<svg width="183" height="573" viewBox="0 0 183 573" fill="none" xmlns="http://www.w3.org/2000/svg">
<path opacity="0.5" d="M24.9939 68.4307V67.8307C24.9939 67.004 25.1473 66.2973 25.4539 65.7107C25.7606 65.1107 26.2406 64.5907 26.8939 64.1507L30.9139 61.5107C31.3406 61.2173 31.7073 60.844 32.0139 60.3907C32.3339 59.924 32.4939 59.3773 32.4939 58.7507C32.4939 57.9773 32.2673 57.3573 31.8139 56.8907C31.3606 56.424 30.6939 56.1907 29.8139 56.1907C29.2806 56.1907 28.8006 56.3107 28.3739 56.5507C27.9606 56.7773 27.6273 57.0973 27.3739 57.5107C27.1339 57.9107 27.0139 58.3707 27.0139 58.8907C27.0139 58.9973 27.0139 59.0973 27.0139 59.1907C27.0139 59.2707 27.0206 59.3507 27.0339 59.4307H25.1339C25.1206 59.3373 25.1139 59.2707 25.1139 59.2307C25.1139 59.1773 25.1139 59.124 25.1139 59.0707C25.1139 58.1773 25.3139 57.3907 25.7139 56.7107C26.1139 56.0173 26.6673 55.4773 27.3739 55.0907C28.0939 54.704 28.9139 54.5107 29.8339 54.5107H30.0539C30.9739 54.5107 31.7673 54.6907 32.4339 55.0507C33.1139 55.3973 33.6339 55.884 33.9939 56.5107C34.3673 57.1373 34.5539 57.864 34.5539 58.6907C34.5539 59.384 34.4339 59.9907 34.1939 60.5107C33.9673 61.0173 33.6539 61.464 33.2539 61.8507C32.8673 62.2373 32.4273 62.5973 31.9339 62.9307L28.5539 65.1307C28.2606 65.3307 28.0339 65.524 27.8739 65.7107C27.7139 65.884 27.6006 66.0507 27.5339 66.2107C27.4673 66.3707 27.4206 66.524 27.3939 66.6707H34.6139V68.4307H24.9939ZM41.5861 68.6307C40.7328 68.6307 39.9595 68.4373 39.2661 68.0507C38.5728 67.6507 38.0261 67.104 37.6261 66.4107C37.2261 65.7173 37.0261 64.9173 37.0261 64.0107V59.1307C37.0261 58.224 37.2261 57.424 37.6261 56.7307C38.0395 56.0373 38.5928 55.4973 39.2861 55.1107C39.9928 54.7107 40.7795 54.5107 41.6461 54.5107H42.0061C42.8861 54.5107 43.6661 54.7107 44.3461 55.1107C45.0261 55.4973 45.5595 56.0373 45.9461 56.7307C46.3461 57.424 46.5461 58.224 46.5461 59.1307V64.0107C46.5461 64.9173 46.3461 65.7173 45.9461 66.4107C45.5461 67.104 44.9995 67.6507 44.3061 68.0507C43.6128 68.4373 42.8328 68.6307 41.9661 68.6307H41.5861ZM41.7861 67.0307C42.3061 67.0307 42.7728 66.9107 43.1861 66.6707C43.5995 66.4173 43.9195 66.084 44.1461 65.6707C44.3861 65.2573 44.5061 64.7907 44.5061 64.2707V58.8707C44.5061 58.3373 44.3861 57.864 44.1461 57.4507C43.9195 57.0373 43.5995 56.7107 43.1861 56.4707C42.7728 56.2307 42.3061 56.1107 41.7861 56.1107C41.2661 56.1107 40.7995 56.2307 40.3861 56.4707C39.9861 56.7107 39.6661 57.0373 39.4261 57.4507C39.1861 57.864 39.0661 58.3373 39.0661 58.8707V64.2707C39.0661 64.7907 39.1861 65.2573 39.4261 65.6707C39.6661 66.084 39.9861 66.4173 40.3861 66.6707C40.7995 66.9107 41.2661 67.0307 41.7861 67.0307ZM49.4583 68.4307V66.7707H53.0783V57.0307H49.4583V55.8107C49.8983 55.7707 50.385 55.6973 50.9183 55.5907C51.4517 55.4707 52.0117 55.324 52.5983 55.1507C53.1983 54.964 53.785 54.7507 54.3583 54.5107H55.0983V66.7707H58.6783V68.4307H49.4583ZM65.4505 68.6307C64.5038 68.6307 63.6705 68.464 62.9505 68.1307C62.2438 67.7973 61.6905 67.3373 61.2905 66.7507C60.8905 66.164 60.6905 65.4973 60.6905 64.7507V64.3907H62.5705C62.5705 65.3107 62.8372 65.9773 63.3705 66.3907C63.9038 66.804 64.6238 67.0107 65.5305 67.0107C66.4105 67.0107 67.1305 66.8107 67.6905 66.4107C68.2505 65.9973 68.5305 65.384 68.5305 64.5707C68.5305 64.0107 68.3972 63.5507 68.1305 63.1907C67.8772 62.8307 67.5372 62.5707 67.1105 62.4107C66.6838 62.2373 66.2172 62.1507 65.7105 62.1507H63.9905V60.6907H65.5305C66.0238 60.6907 66.4705 60.604 66.8705 60.4307C67.2838 60.2573 67.6105 60.004 67.8505 59.6707C68.1038 59.324 68.2305 58.8973 68.2305 58.3907C68.2305 57.884 68.1105 57.464 67.8705 57.1307C67.6305 56.7973 67.3038 56.5507 66.8905 56.3907C66.4905 56.2307 66.0372 56.1507 65.5305 56.1507C64.6905 56.1507 64.0305 56.3573 63.5505 56.7707C63.0838 57.184 62.8505 57.784 62.8505 58.5707H61.0305V58.2307C61.0305 57.4707 61.2238 56.8173 61.6105 56.2707C62.0105 55.7107 62.5505 55.2773 63.2305 54.9707C63.9105 54.664 64.6772 54.5107 65.5305 54.5107H65.7905C66.6305 54.5107 67.3838 54.664 68.0505 54.9707C68.7172 55.264 69.2438 55.6907 69.6305 56.2507C70.0305 56.7973 70.2305 57.4507 70.2305 58.2107C70.2305 58.744 70.1372 59.204 69.9505 59.5907C69.7638 59.9773 69.5105 60.304 69.1905 60.5707C68.8705 60.8373 68.5038 61.0707 68.0905 61.2707V61.3707C68.8105 61.5973 69.3972 61.9907 69.8505 62.5507C70.3172 63.1107 70.5505 63.844 70.5505 64.7507C70.5505 65.524 70.3438 66.204 69.9305 66.7907C69.5305 67.364 68.9705 67.8173 68.2505 68.1507C67.5305 68.4707 66.7105 68.6307 65.7905 68.6307H65.4505Z" fill="#0E0E0E"/>
<path opacity="0.5" d="M24.9939 118.34V117.74C24.9939 116.913 25.1473 116.206 25.4539 115.62C25.7606 115.02 26.2406 114.5 26.8939 114.06L30.9139 111.42C31.3406 111.126 31.7073 110.753 32.0139 110.3C32.3339 109.833 32.4939 109.286 32.4939 108.66C32.4939 107.886 32.2673 107.266 31.8139 106.8C31.3606 106.333 30.6939 106.1 29.8139 106.1C29.2806 106.1 28.8006 106.22 28.3739 106.46C27.9606 106.686 27.6273 107.006 27.3739 107.42C27.1339 107.82 27.0139 108.28 27.0139 108.8C27.0139 108.906 27.0139 109.006 27.0139 109.1C27.0139 109.18 27.0206 109.26 27.0339 109.34H25.1339C25.1206 109.246 25.1139 109.18 25.1139 109.14C25.1139 109.086 25.1139 109.033 25.1139 108.98C25.1139 108.086 25.3139 107.3 25.7139 106.62C26.1139 105.926 26.6673 105.386 27.3739 105C28.0939 104.613 28.9139 104.42 29.8339 104.42H30.0539C30.9739 104.42 31.7673 104.6 32.4339 104.96C33.1139 105.306 33.6339 105.793 33.9939 106.42C34.3673 107.046 34.5539 107.773 34.5539 108.6C34.5539 109.293 34.4339 109.9 34.1939 110.42C33.9673 110.926 33.6539 111.373 33.2539 111.76C32.8673 112.146 32.4273 112.506 31.9339 112.84L28.5539 115.04C28.2606 115.24 28.0339 115.433 27.8739 115.62C27.7139 115.793 27.6006 115.96 27.5339 116.12C27.4673 116.28 27.4206 116.433 27.3939 116.58H34.6139V118.34H24.9939ZM41.5861 118.54C40.7328 118.54 39.9595 118.346 39.2661 117.96C38.5728 117.56 38.0261 117.013 37.6261 116.32C37.2261 115.626 37.0261 114.826 37.0261 113.92V109.04C37.0261 108.133 37.2261 107.333 37.6261 106.64C38.0395 105.946 38.5928 105.406 39.2861 105.02C39.9928 104.62 40.7795 104.42 41.6461 104.42H42.0061C42.8861 104.42 43.6661 104.62 44.3461 105.02C45.0261 105.406 45.5595 105.946 45.9461 106.64C46.3461 107.333 46.5461 108.133 46.5461 109.04V113.92C46.5461 114.826 46.3461 115.626 45.9461 116.32C45.5461 117.013 44.9995 117.56 44.3061 117.96C43.6128 118.346 42.8328 118.54 41.9661 118.54H41.5861ZM41.7861 116.94C42.3061 116.94 42.7728 116.82 43.1861 116.58C43.5995 116.326 43.9195 115.993 44.1461 115.58C44.3861 115.166 44.5061 114.7 44.5061 114.18V108.78C44.5061 108.246 44.3861 107.773 44.1461 107.36C43.9195 106.946 43.5995 106.62 43.1861 106.38C42.7728 106.14 42.3061 106.02 41.7861 106.02C41.2661 106.02 40.7995 106.14 40.3861 106.38C39.9861 106.62 39.6661 106.946 39.4261 107.36C39.1861 107.773 39.0661 108.246 39.0661 108.78V114.18C39.0661 114.7 39.1861 115.166 39.4261 115.58C39.6661 115.993 39.9861 116.326 40.3861 116.58C40.7995 116.82 41.2661 116.94 41.7861 116.94ZM49.4583 118.34V116.68H53.0783V106.94H49.4583V105.72C49.8983 105.68 50.385 105.606 50.9183 105.5C51.4517 105.38 52.0117 105.233 52.5983 105.06C53.1983 104.873 53.785 104.66 54.3583 104.42H55.0983V116.68H58.6783V118.34H49.4583ZM67.0305 118.34V114.84H60.5505V113.2C60.8038 112.826 61.0772 112.38 61.3705 111.86C61.6772 111.326 61.9838 110.753 62.2905 110.14C62.6105 109.513 62.9238 108.866 63.2305 108.2C63.5372 107.533 63.8172 106.88 64.0705 106.24C64.3372 105.586 64.5638 104.98 64.7505 104.42H66.6705C66.4972 105.02 66.2772 105.66 66.0105 106.34C65.7438 107.006 65.4438 107.68 65.1105 108.36C64.7905 109.026 64.4572 109.673 64.1105 110.3C63.7638 110.913 63.4238 111.473 63.0905 111.98C62.7705 112.473 62.4705 112.886 62.1905 113.22H67.0305V109.12C67.1238 108.973 67.2305 108.786 67.3505 108.56C67.4705 108.32 67.5838 108.08 67.6905 107.84C67.8105 107.586 67.9172 107.346 68.0105 107.12C68.1038 106.88 68.1772 106.673 68.2305 106.5H69.0505V113.22H70.7905V114.84H69.0505V118.34H67.0305Z" fill="#0E0E0E"/>
<path opacity="0.5" d="M24.9939 168.249V167.649C24.9939 166.822 25.1473 166.115 25.4539 165.529C25.7606 164.929 26.2406 164.409 26.8939 163.969L30.9139 161.329C31.3406 161.035 31.7073 160.662 32.0139 160.209C32.3339 159.742 32.4939 159.195 32.4939 158.569C32.4939 157.795 32.2673 157.175 31.8139 156.709C31.3606 156.242 30.6939 156.009 29.8139 156.009C29.2806 156.009 28.8006 156.129 28.3739 156.369C27.9606 156.595 27.6273 156.915 27.3739 157.329C27.1339 157.729 27.0139 158.189 27.0139 158.709C27.0139 158.815 27.0139 158.915 27.0139 159.009C27.0139 159.089 27.0206 159.169 27.0339 159.249H25.1339C25.1206 159.155 25.1139 159.089 25.1139 159.049C25.1139 158.995 25.1139 158.942 25.1139 158.889C25.1139 157.995 25.3139 157.209 25.7139 156.529C26.1139 155.835 26.6673 155.295 27.3739 154.909C28.0939 154.522 28.9139 154.329 29.8339 154.329H30.0539C30.9739 154.329 31.7673 154.509 32.4339 154.869C33.1139 155.215 33.6339 155.702 33.9939 156.329C34.3673 156.955 34.5539 157.682 34.5539 158.509C34.5539 159.202 34.4339 159.809 34.1939 160.329C33.9673 160.835 33.6539 161.282 33.2539 161.669C32.8673 162.055 32.4273 162.415 31.9339 162.749L28.5539 164.949C28.2606 165.149 28.0339 165.342 27.8739 165.529C27.7139 165.702 27.6006 165.869 27.5339 166.029C27.4673 166.189 27.4206 166.342 27.3939 166.489H34.6139V168.249H24.9939ZM41.5861 168.449C40.7328 168.449 39.9595 168.255 39.2661 167.869C38.5728 167.469 38.0261 166.922 37.6261 166.229C37.2261 165.535 37.0261 164.735 37.0261 163.829V158.949C37.0261 158.042 37.2261 157.242 37.6261 156.549C38.0395 155.855 38.5928 155.315 39.2861 154.929C39.9928 154.529 40.7795 154.329 41.6461 154.329H42.0061C42.8861 154.329 43.6661 154.529 44.3461 154.929C45.0261 155.315 45.5595 155.855 45.9461 156.549C46.3461 157.242 46.5461 158.042 46.5461 158.949V163.829C46.5461 164.735 46.3461 165.535 45.9461 166.229C45.5461 166.922 44.9995 167.469 44.3061 167.869C43.6128 168.255 42.8328 168.449 41.9661 168.449H41.5861ZM41.7861 166.849C42.3061 166.849 42.7728 166.729 43.1861 166.489C43.5995 166.235 43.9195 165.902 44.1461 165.489C44.3861 165.075 44.5061 164.609 44.5061 164.089V158.689C44.5061 158.155 44.3861 157.682 44.1461 157.269C43.9195 156.855 43.5995 156.529 43.1861 156.289C42.7728 156.049 42.3061 155.929 41.7861 155.929C41.2661 155.929 40.7995 156.049 40.3861 156.289C39.9861 156.529 39.6661 156.855 39.4261 157.269C39.1861 157.682 39.0661 158.155 39.0661 158.689V164.089C39.0661 164.609 39.1861 165.075 39.4261 165.489C39.6661 165.902 39.9861 166.235 40.3861 166.489C40.7995 166.729 41.2661 166.849 41.7861 166.849ZM49.4583 168.249V166.589H53.0783V156.849H49.4583V155.629C49.8983 155.589 50.385 155.515 50.9183 155.409C51.4517 155.289 52.0117 155.142 52.5983 154.969C53.1983 154.782 53.785 154.569 54.3583 154.329H55.0983V166.589H58.6783V168.249H49.4583ZM65.8105 168.449C64.8372 168.449 63.9905 168.255 63.2705 167.869C62.5505 167.469 61.9972 166.935 61.6105 166.269C61.2238 165.589 61.0305 164.809 61.0305 163.929H62.9305C62.9305 164.462 63.0438 164.949 63.2705 165.389C63.5105 165.815 63.8372 166.155 64.2505 166.409C64.6772 166.662 65.1772 166.789 65.7505 166.789C66.3505 166.789 66.8572 166.655 67.2705 166.389C67.6972 166.122 68.0172 165.762 68.2305 165.309C68.4572 164.855 68.5705 164.369 68.5705 163.849C68.5705 163.289 68.4438 162.789 68.1905 162.349C67.9505 161.895 67.6172 161.542 67.1905 161.289C66.7638 161.035 66.2838 160.909 65.7505 160.909C65.2305 160.909 64.7372 161.042 64.2705 161.309C63.8172 161.575 63.4638 161.915 63.2105 162.329L61.5105 162.089L62.0905 154.529H69.8505V156.389H63.7505L63.4505 160.389C63.7972 160.069 64.2105 159.809 64.6905 159.609C65.1705 159.409 65.6905 159.309 66.2505 159.309C67.1172 159.309 67.8705 159.502 68.5105 159.889C69.1638 160.262 69.6705 160.795 70.0305 161.489C70.4038 162.169 70.5905 162.969 70.5905 163.889C70.5905 164.755 70.3905 165.529 69.9905 166.209C69.5905 166.889 69.0305 167.435 68.3105 167.849C67.6038 168.249 66.7705 168.449 65.8105 168.449Z" fill="#0E0E0E"/>
<path opacity="0.5" d="M24.9939 218.158V217.558C24.9939 216.731 25.1473 216.024 25.4539 215.438C25.7606 214.838 26.2406 214.318 26.8939 213.878L30.9139 211.238C31.3406 210.944 31.7073 210.571 32.0139 210.118C32.3339 209.651 32.4939 209.104 32.4939 208.478C32.4939 207.704 32.2673 207.084 31.8139 206.618C31.3606 206.151 30.6939 205.918 29.8139 205.918C29.2806 205.918 28.8006 206.038 28.3739 206.278C27.9606 206.504 27.6273 206.824 27.3739 207.238C27.1339 207.638 27.0139 208.098 27.0139 208.618C27.0139 208.724 27.0139 208.824 27.0139 208.918C27.0139 208.998 27.0206 209.078 27.0339 209.158H25.1339C25.1206 209.064 25.1139 208.998 25.1139 208.958C25.1139 208.904 25.1139 208.851 25.1139 208.798C25.1139 207.904 25.3139 207.118 25.7139 206.438C26.1139 205.744 26.6673 205.204 27.3739 204.818C28.0939 204.431 28.9139 204.238 29.8339 204.238H30.0539C30.9739 204.238 31.7673 204.418 32.4339 204.778C33.1139 205.124 33.6339 205.611 33.9939 206.238C34.3673 206.864 34.5539 207.591 34.5539 208.418C34.5539 209.111 34.4339 209.718 34.1939 210.238C33.9673 210.744 33.6539 211.191 33.2539 211.578C32.8673 211.964 32.4273 212.324 31.9339 212.658L28.5539 214.858C28.2606 215.058 28.0339 215.251 27.8739 215.438C27.7139 215.611 27.6006 215.778 27.5339 215.938C27.4673 216.098 27.4206 216.251 27.3939 216.398H34.6139V218.158H24.9939ZM41.5861 218.358C40.7328 218.358 39.9595 218.164 39.2661 217.778C38.5728 217.378 38.0261 216.831 37.6261 216.138C37.2261 215.444 37.0261 214.644 37.0261 213.738V208.858C37.0261 207.951 37.2261 207.151 37.6261 206.458C38.0395 205.764 38.5928 205.224 39.2861 204.838C39.9928 204.438 40.7795 204.238 41.6461 204.238H42.0061C42.8861 204.238 43.6661 204.438 44.3461 204.838C45.0261 205.224 45.5595 205.764 45.9461 206.458C46.3461 207.151 46.5461 207.951 46.5461 208.858V213.738C46.5461 214.644 46.3461 215.444 45.9461 216.138C45.5461 216.831 44.9995 217.378 44.3061 217.778C43.6128 218.164 42.8328 218.358 41.9661 218.358H41.5861ZM41.7861 216.758C42.3061 216.758 42.7728 216.638 43.1861 216.398C43.5995 216.144 43.9195 215.811 44.1461 215.398C44.3861 214.984 44.5061 214.518 44.5061 213.998V208.598C44.5061 208.064 44.3861 207.591 44.1461 207.178C43.9195 206.764 43.5995 206.438 43.1861 206.198C42.7728 205.958 42.3061 205.838 41.7861 205.838C41.2661 205.838 40.7995 205.958 40.3861 206.198C39.9861 206.438 39.6661 206.764 39.4261 207.178C39.1861 207.591 39.0661 208.064 39.0661 208.598V213.998C39.0661 214.518 39.1861 214.984 39.4261 215.398C39.6661 215.811 39.9861 216.144 40.3861 216.398C40.7995 216.638 41.2661 216.758 41.7861 216.758ZM49.4583 218.158V216.498H53.0783V206.758H49.4583V205.538C49.8983 205.498 50.385 205.424 50.9183 205.318C51.4517 205.198 52.0117 205.051 52.5983 204.878C53.1983 204.691 53.785 204.478 54.3583 204.238H55.0983V216.498H58.6783V218.158H49.4583ZM65.8705 218.358C64.9905 218.358 64.1972 218.164 63.4905 217.778C62.7838 217.378 62.2238 216.831 61.8105 216.138C61.4105 215.444 61.2105 214.644 61.2105 213.738V208.858C61.2105 207.938 61.4105 207.131 61.8105 206.438C62.2105 205.744 62.7572 205.204 63.4505 204.818C64.1572 204.431 64.9438 204.238 65.8105 204.238H66.0505C66.9038 204.238 67.6572 204.418 68.3105 204.778C68.9772 205.138 69.5038 205.651 69.8905 206.318C70.2772 206.984 70.4705 207.784 70.4705 208.718H68.5905C68.5905 207.824 68.3372 207.131 67.8305 206.638C67.3372 206.131 66.7105 205.878 65.9505 205.878C65.4305 205.878 64.9638 205.998 64.5505 206.238C64.1505 206.464 63.8305 206.784 63.5905 207.198C63.3638 207.611 63.2505 208.078 63.2505 208.598V211.038C63.6238 210.544 64.0972 210.171 64.6705 209.918C65.2438 209.651 65.8238 209.518 66.4105 209.518C67.2238 209.518 67.9572 209.698 68.6105 210.058C69.2638 210.404 69.7838 210.898 70.1705 211.538C70.5572 212.178 70.7505 212.938 70.7505 213.818C70.7505 214.724 70.5438 215.518 70.1305 216.198C69.7305 216.878 69.1772 217.411 68.4705 217.798C67.7772 218.171 66.9905 218.358 66.1105 218.358H65.8705ZM65.9905 216.778C66.5505 216.778 67.0372 216.658 67.4505 216.418C67.8638 216.164 68.1838 215.818 68.4105 215.378C68.6372 214.938 68.7505 214.431 68.7505 213.858C68.7505 213.258 68.6305 212.744 68.3905 212.318C68.1638 211.878 67.8372 211.538 67.4105 211.298C66.9972 211.058 66.5238 210.938 65.9905 210.938C65.4305 210.938 64.9438 211.064 64.5305 211.318C64.1305 211.558 63.8172 211.898 63.5905 212.338C63.3638 212.764 63.2505 213.264 63.2505 213.838C63.2505 214.438 63.3638 214.958 63.5905 215.398C63.8172 215.838 64.1372 216.178 64.5505 216.418C64.9638 216.658 65.4438 216.778 65.9905 216.778Z" fill="#0E0E0E"/>
<path opacity="0.5" d="M24.9939 268.067V267.467C24.9939 266.64 25.1473 265.934 25.4539 265.347C25.7606 264.747 26.2406 264.227 26.8939 263.787L30.9139 261.147C31.3406 260.854 31.7073 260.48 32.0139 260.027C32.3339 259.56 32.4939 259.014 32.4939 258.387C32.4939 257.614 32.2673 256.994 31.8139 256.527C31.3606 256.06 30.6939 255.827 29.8139 255.827C29.2806 255.827 28.8006 255.947 28.3739 256.187C27.9606 256.414 27.6273 256.734 27.3739 257.147C27.1339 257.547 27.0139 258.007 27.0139 258.527C27.0139 258.634 27.0139 258.734 27.0139 258.827C27.0139 258.907 27.0206 258.987 27.0339 259.067H25.1339C25.1206 258.974 25.1139 258.907 25.1139 258.867C25.1139 258.814 25.1139 258.76 25.1139 258.707C25.1139 257.814 25.3139 257.027 25.7139 256.347C26.1139 255.654 26.6673 255.114 27.3739 254.727C28.0939 254.34 28.9139 254.147 29.8339 254.147H30.0539C30.9739 254.147 31.7673 254.327 32.4339 254.687C33.1139 255.034 33.6339 255.52 33.9939 256.147C34.3673 256.774 34.5539 257.5 34.5539 258.327C34.5539 259.02 34.4339 259.627 34.1939 260.147C33.9673 260.654 33.6539 261.1 33.2539 261.487C32.8673 261.874 32.4273 262.234 31.9339 262.567L28.5539 264.767C28.2606 264.967 28.0339 265.16 27.8739 265.347C27.7139 265.52 27.6006 265.687 27.5339 265.847C27.4673 266.007 27.4206 266.16 27.3939 266.307H34.6139V268.067H24.9939ZM41.5861 268.267C40.7328 268.267 39.9595 268.074 39.2661 267.687C38.5728 267.287 38.0261 266.74 37.6261 266.047C37.2261 265.354 37.0261 264.554 37.0261 263.647V258.767C37.0261 257.86 37.2261 257.06 37.6261 256.367C38.0395 255.674 38.5928 255.134 39.2861 254.747C39.9928 254.347 40.7795 254.147 41.6461 254.147H42.0061C42.8861 254.147 43.6661 254.347 44.3461 254.747C45.0261 255.134 45.5595 255.674 45.9461 256.367C46.3461 257.06 46.5461 257.86 46.5461 258.767V263.647C46.5461 264.554 46.3461 265.354 45.9461 266.047C45.5461 266.74 44.9995 267.287 44.3061 267.687C43.6128 268.074 42.8328 268.267 41.9661 268.267H41.5861ZM41.7861 266.667C42.3061 266.667 42.7728 266.547 43.1861 266.307C43.5995 266.054 43.9195 265.72 44.1461 265.307C44.3861 264.894 44.5061 264.427 44.5061 263.907V258.507C44.5061 257.974 44.3861 257.5 44.1461 257.087C43.9195 256.674 43.5995 256.347 43.1861 256.107C42.7728 255.867 42.3061 255.747 41.7861 255.747C41.2661 255.747 40.7995 255.867 40.3861 256.107C39.9861 256.347 39.6661 256.674 39.4261 257.087C39.1861 257.5 39.0661 257.974 39.0661 258.507V263.907C39.0661 264.427 39.1861 264.894 39.4261 265.307C39.6661 265.72 39.9861 266.054 40.3861 266.307C40.7995 266.547 41.2661 266.667 41.7861 266.667ZM49.4583 268.067V266.407H53.0783V256.667H49.4583V255.447C49.8983 255.407 50.385 255.334 50.9183 255.227C51.4517 255.107 52.0117 254.96 52.5983 254.787C53.1983 254.6 53.785 254.387 54.3583 254.147H55.0983V266.407H58.6783V268.067H49.4583ZM63.3105 268.067C63.3105 266.867 63.4572 265.714 63.7505 264.607C64.0438 263.487 64.4305 262.427 64.9105 261.427C65.4038 260.414 65.9372 259.474 66.5105 258.607C67.0972 257.727 67.6772 256.927 68.2505 256.207H61.1105V254.347H70.7905V255.347C69.9905 256.334 69.2572 257.334 68.5905 258.347C67.9238 259.36 67.3572 260.394 66.8905 261.447C66.4372 262.5 66.0972 263.58 65.8705 264.687C65.6438 265.78 65.5638 266.907 65.6305 268.067H63.3105Z" fill="#0E0E0E"/>
<path opacity="0.5" d="M24.9939 317.976V317.376C24.9939 316.549 25.1473 315.843 25.4539 315.256C25.7606 314.656 26.2406 314.136 26.8939 313.696L30.9139 311.056C31.3406 310.763 31.7073 310.389 32.0139 309.936C32.3339 309.469 32.4939 308.923 32.4939 308.296C32.4939 307.523 32.2673 306.903 31.8139 306.436C31.3606 305.969 30.6939 305.736 29.8139 305.736C29.2806 305.736 28.8006 305.856 28.3739 306.096C27.9606 306.323 27.6273 306.643 27.3739 307.056C27.1339 307.456 27.0139 307.916 27.0139 308.436C27.0139 308.543 27.0139 308.643 27.0139 308.736C27.0139 308.816 27.0206 308.896 27.0339 308.976H25.1339C25.1206 308.883 25.1139 308.816 25.1139 308.776C25.1139 308.723 25.1139 308.669 25.1139 308.616C25.1139 307.723 25.3139 306.936 25.7139 306.256C26.1139 305.563 26.6673 305.023 27.3739 304.636C28.0939 304.249 28.9139 304.056 29.8339 304.056H30.0539C30.9739 304.056 31.7673 304.236 32.4339 304.596C33.1139 304.943 33.6339 305.429 33.9939 306.056C34.3673 306.683 34.5539 307.409 34.5539 308.236C34.5539 308.929 34.4339 309.536 34.1939 310.056C33.9673 310.563 33.6539 311.009 33.2539 311.396C32.8673 311.783 32.4273 312.143 31.9339 312.476L28.5539 314.676C28.2606 314.876 28.0339 315.069 27.8739 315.256C27.7139 315.429 27.6006 315.596 27.5339 315.756C27.4673 315.916 27.4206 316.069 27.3939 316.216H34.6139V317.976H24.9939ZM41.5861 318.176C40.7328 318.176 39.9595 317.983 39.2661 317.596C38.5728 317.196 38.0261 316.649 37.6261 315.956C37.2261 315.263 37.0261 314.463 37.0261 313.556V308.676C37.0261 307.769 37.2261 306.969 37.6261 306.276C38.0395 305.583 38.5928 305.043 39.2861 304.656C39.9928 304.256 40.7795 304.056 41.6461 304.056H42.0061C42.8861 304.056 43.6661 304.256 44.3461 304.656C45.0261 305.043 45.5595 305.583 45.9461 306.276C46.3461 306.969 46.5461 307.769 46.5461 308.676V313.556C46.5461 314.463 46.3461 315.263 45.9461 315.956C45.5461 316.649 44.9995 317.196 44.3061 317.596C43.6128 317.983 42.8328 318.176 41.9661 318.176H41.5861ZM41.7861 316.576C42.3061 316.576 42.7728 316.456 43.1861 316.216C43.5995 315.963 43.9195 315.629 44.1461 315.216C44.3861 314.803 44.5061 314.336 44.5061 313.816V308.416C44.5061 307.883 44.3861 307.409 44.1461 306.996C43.9195 306.583 43.5995 306.256 43.1861 306.016C42.7728 305.776 42.3061 305.656 41.7861 305.656C41.2661 305.656 40.7995 305.776 40.3861 306.016C39.9861 306.256 39.6661 306.583 39.4261 306.996C39.1861 307.409 39.0661 307.883 39.0661 308.416V313.816C39.0661 314.336 39.1861 314.803 39.4261 315.216C39.6661 315.629 39.9861 315.963 40.3861 316.216C40.7995 316.456 41.2661 316.576 41.7861 316.576ZM49.4583 317.976V316.316H53.0783V306.576H49.4583V305.356C49.8983 305.316 50.385 305.243 50.9183 305.136C51.4517 305.016 52.0117 304.869 52.5983 304.696C53.1983 304.509 53.785 304.296 54.3583 304.056H55.0983V316.316H58.6783V317.976H49.4583ZM65.7705 318.176C64.8238 318.176 63.9838 318.029 63.2505 317.736C62.5305 317.443 61.9638 317.009 61.5505 316.436C61.1505 315.849 60.9505 315.129 60.9505 314.276C60.9505 313.396 61.1572 312.696 61.5705 312.176C61.9972 311.643 62.5505 311.236 63.2305 310.956V310.876C62.7105 310.583 62.2772 310.216 61.9305 309.776C61.5838 309.336 61.4105 308.696 61.4105 307.856C61.4105 307.043 61.5972 306.356 61.9705 305.796C62.3438 305.236 62.8572 304.809 63.5105 304.516C64.1772 304.209 64.9305 304.056 65.7705 304.056C66.6238 304.056 67.3772 304.209 68.0305 304.516C68.6972 304.809 69.2172 305.236 69.5905 305.796C69.9638 306.356 70.1505 307.043 70.1505 307.856C70.1505 308.403 70.0705 308.869 69.9105 309.256C69.7505 309.629 69.5305 309.943 69.2505 310.196C68.9705 310.449 68.6505 310.676 68.2905 310.876V310.956C68.9838 311.289 69.5438 311.703 69.9705 312.196C70.3972 312.676 70.6105 313.369 70.6105 314.276C70.6105 315.476 70.1905 316.429 69.3505 317.136C68.5105 317.829 67.3172 318.176 65.7705 318.176ZM65.7705 316.656C66.7172 316.656 67.4172 316.429 67.8705 315.976C68.3372 315.523 68.5705 314.909 68.5705 314.136C68.5705 313.349 68.3238 312.736 67.8305 312.296C67.3372 311.856 66.6505 311.636 65.7705 311.636C64.8905 311.636 64.2038 311.863 63.7105 312.316C63.2305 312.769 62.9905 313.376 62.9905 314.136C62.9905 314.909 63.2172 315.523 63.6705 315.976C64.1238 316.429 64.8238 316.656 65.7705 316.656ZM65.7705 310.276C66.4772 310.276 67.0638 310.076 67.5305 309.676C68.0105 309.263 68.2505 308.676 68.2505 307.916C68.2505 307.156 68.0238 306.576 67.5705 306.176C67.1172 305.763 66.5105 305.556 65.7505 305.556C65.0038 305.556 64.4038 305.763 63.9505 306.176C63.5105 306.589 63.2905 307.169 63.2905 307.916C63.2905 308.676 63.5305 309.263 64.0105 309.676C64.4905 310.076 65.0772 310.276 65.7705 310.276Z" fill="#0E0E0E"/>
<path opacity="0.5" d="M24.9939 367.885V367.285C24.9939 366.458 25.1473 365.752 25.4539 365.165C25.7606 364.565 26.2406 364.045 26.8939 363.605L30.9139 360.965C31.3406 360.672 31.7073 360.298 32.0139 359.845C32.3339 359.378 32.4939 358.832 32.4939 358.205C32.4939 357.432 32.2673 356.812 31.8139 356.345C31.3606 355.878 30.6939 355.645 29.8139 355.645C29.2806 355.645 28.8006 355.765 28.3739 356.005C27.9606 356.232 27.6273 356.552 27.3739 356.965C27.1339 357.365 27.0139 357.825 27.0139 358.345C27.0139 358.452 27.0139 358.552 27.0139 358.645C27.0139 358.725 27.0206 358.805 27.0339 358.885H25.1339C25.1206 358.792 25.1139 358.725 25.1139 358.685C25.1139 358.632 25.1139 358.578 25.1139 358.525C25.1139 357.632 25.3139 356.845 25.7139 356.165C26.1139 355.472 26.6673 354.932 27.3739 354.545C28.0939 354.158 28.9139 353.965 29.8339 353.965H30.0539C30.9739 353.965 31.7673 354.145 32.4339 354.505C33.1139 354.852 33.6339 355.338 33.9939 355.965C34.3673 356.592 34.5539 357.318 34.5539 358.145C34.5539 358.838 34.4339 359.445 34.1939 359.965C33.9673 360.472 33.6539 360.918 33.2539 361.305C32.8673 361.692 32.4273 362.052 31.9339 362.385L28.5539 364.585C28.2606 364.785 28.0339 364.978 27.8739 365.165C27.7139 365.338 27.6006 365.505 27.5339 365.665C27.4673 365.825 27.4206 365.978 27.3939 366.125H34.6139V367.885H24.9939ZM41.5861 368.085C40.7328 368.085 39.9595 367.892 39.2661 367.505C38.5728 367.105 38.0261 366.558 37.6261 365.865C37.2261 365.172 37.0261 364.372 37.0261 363.465V358.585C37.0261 357.678 37.2261 356.878 37.6261 356.185C38.0395 355.492 38.5928 354.952 39.2861 354.565C39.9928 354.165 40.7795 353.965 41.6461 353.965H42.0061C42.8861 353.965 43.6661 354.165 44.3461 354.565C45.0261 354.952 45.5595 355.492 45.9461 356.185C46.3461 356.878 46.5461 357.678 46.5461 358.585V363.465C46.5461 364.372 46.3461 365.172 45.9461 365.865C45.5461 366.558 44.9995 367.105 44.3061 367.505C43.6128 367.892 42.8328 368.085 41.9661 368.085H41.5861ZM41.7861 366.485C42.3061 366.485 42.7728 366.365 43.1861 366.125C43.5995 365.872 43.9195 365.538 44.1461 365.125C44.3861 364.712 44.5061 364.245 44.5061 363.725V358.325C44.5061 357.792 44.3861 357.318 44.1461 356.905C43.9195 356.492 43.5995 356.165 43.1861 355.925C42.7728 355.685 42.3061 355.565 41.7861 355.565C41.2661 355.565 40.7995 355.685 40.3861 355.925C39.9861 356.165 39.6661 356.492 39.4261 356.905C39.1861 357.318 39.0661 357.792 39.0661 358.325V363.725C39.0661 364.245 39.1861 364.712 39.4261 365.125C39.6661 365.538 39.9861 365.872 40.3861 366.125C40.7995 366.365 41.2661 366.485 41.7861 366.485ZM49.4583 367.885V366.225H53.0783V356.485H49.4583V355.265C49.8983 355.225 50.385 355.152 50.9183 355.045C51.4517 354.925 52.0117 354.778 52.5983 354.605C53.1983 354.418 53.785 354.205 54.3583 353.965H55.0983V366.225H58.6783V367.885H49.4583ZM65.5905 368.085C64.6705 368.085 63.8638 367.905 63.1705 367.545C62.4905 367.172 61.9572 366.652 61.5705 365.985C61.1972 365.305 61.0105 364.512 61.0105 363.605H62.8905C62.8905 364.472 63.1372 365.165 63.6305 365.685C64.1372 366.192 64.7838 366.445 65.5705 366.445C66.1038 366.445 66.5705 366.332 66.9705 366.105C67.3838 365.865 67.7038 365.538 67.9305 365.125C68.1705 364.712 68.2905 364.245 68.2905 363.725V361.265C67.9172 361.745 67.4438 362.125 66.8705 362.405C66.3105 362.672 65.7305 362.805 65.1305 362.805C64.3305 362.805 63.6038 362.632 62.9505 362.285C62.2972 361.925 61.7705 361.425 61.3705 360.785C60.9838 360.132 60.7905 359.372 60.7905 358.505C60.7905 357.585 60.9972 356.785 61.4105 356.105C61.8238 355.425 62.3905 354.898 63.1105 354.525C63.8305 354.152 64.6438 353.965 65.5505 353.965C66.4838 353.965 67.3105 354.158 68.0305 354.545C68.7505 354.932 69.3105 355.472 69.7105 356.165C70.1238 356.845 70.3305 357.652 70.3305 358.585V363.465C70.3305 364.385 70.1238 365.198 69.7105 365.905C69.3105 366.598 68.7505 367.138 68.0305 367.525C67.3238 367.898 66.5105 368.085 65.5905 368.085ZM65.5505 361.385C66.1238 361.385 66.6105 361.258 67.0105 361.005C67.4105 360.752 67.7238 360.405 67.9505 359.965C68.1772 359.525 68.2905 359.025 68.2905 358.465C68.2905 357.865 68.1772 357.352 67.9505 356.925C67.7238 356.485 67.4038 356.145 66.9905 355.905C66.5772 355.665 66.0972 355.545 65.5505 355.545C64.9905 355.545 64.5038 355.672 64.0905 355.925C63.6772 356.165 63.3572 356.505 63.1305 356.945C62.9172 357.385 62.8105 357.892 62.8105 358.465C62.8105 359.052 62.9238 359.565 63.1505 360.005C63.3905 360.432 63.7105 360.772 64.1105 361.025C64.5238 361.265 65.0038 361.385 65.5505 361.385Z" fill="#0E0E0E"/>
<path opacity="0.5" d="M24.9939 417.794V417.194C24.9939 416.368 25.1473 415.661 25.4539 415.074C25.7606 414.474 26.2406 413.954 26.8939 413.514L30.9139 410.874C31.3406 410.581 31.7073 410.208 32.0139 409.754C32.3339 409.288 32.4939 408.741 32.4939 408.114C32.4939 407.341 32.2673 406.721 31.8139 406.254C31.3606 405.788 30.6939 405.554 29.8139 405.554C29.2806 405.554 28.8006 405.674 28.3739 405.914C27.9606 406.141 27.6273 406.461 27.3739 406.874C27.1339 407.274 27.0139 407.734 27.0139 408.254C27.0139 408.361 27.0139 408.461 27.0139 408.554C27.0139 408.634 27.0206 408.714 27.0339 408.794H25.1339C25.1206 408.701 25.1139 408.634 25.1139 408.594C25.1139 408.541 25.1139 408.488 25.1139 408.434C25.1139 407.541 25.3139 406.754 25.7139 406.074C26.1139 405.381 26.6673 404.841 27.3739 404.454C28.0939 404.068 28.9139 403.874 29.8339 403.874H30.0539C30.9739 403.874 31.7673 404.054 32.4339 404.414C33.1139 404.761 33.6339 405.248 33.9939 405.874C34.3673 406.501 34.5539 407.228 34.5539 408.054C34.5539 408.748 34.4339 409.354 34.1939 409.874C33.9673 410.381 33.6539 410.828 33.2539 411.214C32.8673 411.601 32.4273 411.961 31.9339 412.294L28.5539 414.494C28.2606 414.694 28.0339 414.888 27.8739 415.074C27.7139 415.248 27.6006 415.414 27.5339 415.574C27.4673 415.734 27.4206 415.888 27.3939 416.034H34.6139V417.794H24.9939ZM41.5861 417.994C40.7328 417.994 39.9595 417.801 39.2661 417.414C38.5728 417.014 38.0261 416.468 37.6261 415.774C37.2261 415.081 37.0261 414.281 37.0261 413.374V408.494C37.0261 407.588 37.2261 406.788 37.6261 406.094C38.0395 405.401 38.5928 404.861 39.2861 404.474C39.9928 404.074 40.7795 403.874 41.6461 403.874H42.0061C42.8861 403.874 43.6661 404.074 44.3461 404.474C45.0261 404.861 45.5595 405.401 45.9461 406.094C46.3461 406.788 46.5461 407.588 46.5461 408.494V413.374C46.5461 414.281 46.3461 415.081 45.9461 415.774C45.5461 416.468 44.9995 417.014 44.3061 417.414C43.6128 417.801 42.8328 417.994 41.9661 417.994H41.5861ZM41.7861 416.394C42.3061 416.394 42.7728 416.274 43.1861 416.034C43.5995 415.781 43.9195 415.448 44.1461 415.034C44.3861 414.621 44.5061 414.154 44.5061 413.634V408.234C44.5061 407.701 44.3861 407.228 44.1461 406.814C43.9195 406.401 43.5995 406.074 43.1861 405.834C42.7728 405.594 42.3061 405.474 41.7861 405.474C41.2661 405.474 40.7995 405.594 40.3861 405.834C39.9861 406.074 39.6661 406.401 39.4261 406.814C39.1861 407.228 39.0661 407.701 39.0661 408.234V413.634C39.0661 414.154 39.1861 414.621 39.4261 415.034C39.6661 415.448 39.9861 415.781 40.3861 416.034C40.7995 416.274 41.2661 416.394 41.7861 416.394ZM48.9783 417.794V417.194C48.9783 416.368 49.1317 415.661 49.4383 415.074C49.745 414.474 50.225 413.954 50.8783 413.514L54.8983 410.874C55.325 410.581 55.6917 410.208 55.9983 409.754C56.3183 409.288 56.4783 408.741 56.4783 408.114C56.4783 407.341 56.2517 406.721 55.7983 406.254C55.345 405.788 54.6783 405.554 53.7983 405.554C53.265 405.554 52.785 405.674 52.3583 405.914C51.945 406.141 51.6117 406.461 51.3583 406.874C51.1183 407.274 50.9983 407.734 50.9983 408.254C50.9983 408.361 50.9983 408.461 50.9983 408.554C50.9983 408.634 51.005 408.714 51.0183 408.794H49.1183C49.105 408.701 49.0983 408.634 49.0983 408.594C49.0983 408.541 49.0983 408.488 49.0983 408.434C49.0983 407.541 49.2983 406.754 49.6983 406.074C50.0983 405.381 50.6517 404.841 51.3583 404.454C52.0783 404.068 52.8983 403.874 53.8183 403.874H54.0383C54.9583 403.874 55.7517 404.054 56.4183 404.414C57.0983 404.761 57.6183 405.248 57.9783 405.874C58.3517 406.501 58.5383 407.228 58.5383 408.054C58.5383 408.748 58.4183 409.354 58.1783 409.874C57.9517 410.381 57.6383 410.828 57.2383 411.214C56.8517 411.601 56.4117 411.961 55.9183 412.294L52.5383 414.494C52.245 414.694 52.0183 414.888 51.8583 415.074C51.6983 415.248 51.585 415.414 51.5183 415.574C51.4517 415.734 51.405 415.888 51.3783 416.034H58.5983V417.794H48.9783ZM65.5705 417.994C64.7172 417.994 63.9438 417.801 63.2505 417.414C62.5572 417.014 62.0105 416.468 61.6105 415.774C61.2105 415.081 61.0105 414.281 61.0105 413.374V408.494C61.0105 407.588 61.2105 406.788 61.6105 406.094C62.0238 405.401 62.5772 404.861 63.2705 404.474C63.9772 404.074 64.7638 403.874 65.6305 403.874H65.9905C66.8705 403.874 67.6505 404.074 68.3305 404.474C69.0105 404.861 69.5438 405.401 69.9305 406.094C70.3305 406.788 70.5305 407.588 70.5305 408.494V413.374C70.5305 414.281 70.3305 415.081 69.9305 415.774C69.5305 416.468 68.9838 417.014 68.2905 417.414C67.5972 417.801 66.8172 417.994 65.9505 417.994H65.5705ZM65.7705 416.394C66.2905 416.394 66.7572 416.274 67.1705 416.034C67.5838 415.781 67.9038 415.448 68.1305 415.034C68.3705 414.621 68.4905 414.154 68.4905 413.634V408.234C68.4905 407.701 68.3705 407.228 68.1305 406.814C67.9038 406.401 67.5838 406.074 67.1705 405.834C66.7572 405.594 66.2905 405.474 65.7705 405.474C65.2505 405.474 64.7838 405.594 64.3705 405.834C63.9705 406.074 63.6505 406.401 63.4105 406.814C63.1705 407.228 63.0505 407.701 63.0505 408.234V413.634C63.0505 414.154 63.1705 414.621 63.4105 415.034C63.6505 415.448 63.9705 415.781 64.3705 416.034C64.7838 416.274 65.2505 416.394 65.7705 416.394Z" fill="#0E0E0E"/>
<path d="M0.986448 472.786V471.824C0.986448 470.5 1.23211 469.368 1.72343 468.428C2.21476 467.467 2.98379 466.633 4.03052 465.928L10.4711 461.699C11.1547 461.229 11.7422 460.631 12.2335 459.904C12.7462 459.157 13.0025 458.281 13.0025 457.277C13.0025 456.038 12.6394 455.045 11.9131 454.297C11.1868 453.549 10.1187 453.175 8.70879 453.175C7.85431 453.175 7.08528 453.368 6.4017 453.752C5.73948 454.115 5.20543 454.628 4.79955 455.29C4.41504 455.931 4.22278 456.668 4.22278 457.501C4.22278 457.672 4.22278 457.832 4.22278 457.982C4.22278 458.11 4.23346 458.238 4.25482 458.366H1.21075C1.18939 458.217 1.1787 458.11 1.1787 458.046C1.1787 457.96 1.1787 457.875 1.1787 457.79C1.1787 456.358 1.49913 455.098 2.13999 454.009C2.78085 452.898 3.66737 452.033 4.79955 451.413C5.9531 450.794 7.26686 450.484 8.74083 450.484H9.0933C10.5673 450.484 11.8383 450.772 12.9064 451.349C13.9959 451.904 14.829 452.684 15.4058 453.688C16.0039 454.692 16.303 455.856 16.303 457.181C16.303 458.292 16.1107 459.264 15.7262 460.097C15.363 460.908 14.861 461.624 14.2202 462.244C13.6007 462.863 12.8957 463.44 12.1053 463.974L6.69008 467.499C6.22012 467.819 5.85697 468.129 5.60063 468.428C5.34428 468.706 5.16271 468.973 5.0559 469.229C4.94909 469.485 4.87432 469.731 4.8316 469.966H16.3991V472.786H0.986448ZM27.5695 473.106C26.2024 473.106 24.9634 472.796 23.8526 472.177C22.7417 471.536 21.8659 470.66 21.225 469.549C20.5842 468.438 20.2638 467.157 20.2638 465.704V457.886C20.2638 456.433 20.5842 455.151 21.225 454.041C21.8873 452.93 22.7738 452.065 23.8846 451.445C25.0168 450.804 26.2771 450.484 27.6657 450.484H28.2424C29.6523 450.484 30.902 450.804 31.9915 451.445C33.0809 452.065 33.9354 452.93 34.5549 454.041C35.1958 455.151 35.5162 456.433 35.5162 457.886V465.704C35.5162 467.157 35.1958 468.438 34.5549 469.549C33.914 470.66 33.0382 471.536 31.9274 472.177C30.8166 472.796 29.5669 473.106 28.1784 473.106H27.5695ZM27.89 470.543C28.7231 470.543 29.4708 470.35 30.133 469.966C30.7952 469.56 31.3079 469.026 31.671 468.364C32.0555 467.702 32.2478 466.954 32.2478 466.121V457.469C32.2478 456.615 32.0555 455.856 31.671 455.194C31.3079 454.532 30.7952 454.009 30.133 453.624C29.4708 453.239 28.7231 453.047 27.89 453.047C27.0569 453.047 26.3092 453.239 25.647 453.624C25.0061 454.009 24.4934 454.532 24.1089 455.194C23.7244 455.856 23.5321 456.615 23.5321 457.469V466.121C23.5321 466.954 23.7244 467.702 24.1089 468.364C24.4934 469.026 25.0061 469.56 25.647 469.966C26.3092 470.35 27.0569 470.543 27.89 470.543ZM39.4129 472.786V471.824C39.4129 470.5 39.6586 469.368 40.1499 468.428C40.6412 467.467 41.4102 466.633 42.457 465.928L48.8976 461.699C49.5812 461.229 50.1686 460.631 50.66 459.904C51.1726 459.157 51.429 458.281 51.429 457.277C51.429 456.038 51.0658 455.045 50.3395 454.297C49.6132 453.549 48.5451 453.175 47.1352 453.175C46.2808 453.175 45.5117 453.368 44.8282 453.752C44.1659 454.115 43.6319 454.628 43.226 455.29C42.8415 455.931 42.6492 456.668 42.6492 457.501C42.6492 457.672 42.6492 457.832 42.6492 457.982C42.6492 458.11 42.6599 458.238 42.6813 458.366H39.6372C39.6158 458.217 39.6052 458.11 39.6052 458.046C39.6052 457.96 39.6052 457.875 39.6052 457.79C39.6052 456.358 39.9256 455.098 40.5664 454.009C41.2073 452.898 42.0938 452.033 43.226 451.413C44.3796 450.794 45.6933 450.484 47.1673 450.484H47.5198C48.9937 450.484 50.2648 450.772 51.3329 451.349C52.4223 451.904 53.2554 452.684 53.8322 453.688C54.4303 454.692 54.7294 455.856 54.7294 457.181C54.7294 458.292 54.5372 459.264 54.1526 460.097C53.7895 460.908 53.2875 461.624 52.6466 462.244C52.0271 462.863 51.3222 463.44 50.5318 463.974L45.1165 467.499C44.6466 467.819 44.2834 468.129 44.0271 468.428C43.7707 468.706 43.5892 468.973 43.4823 469.229C43.3755 469.485 43.3008 469.731 43.258 469.966H54.8255V472.786H39.4129ZM59.3952 472.786V470.126H65.1949V454.521H59.3952V452.567C60.1001 452.502 60.8798 452.385 61.7343 452.214C62.5888 452.022 63.486 451.787 64.4259 451.509C65.3872 451.21 66.3271 450.868 67.2457 450.484H68.4313V470.126H74.1669V472.786H59.3952Z" fill="#0E0E0E"/>
<path opacity="0.5" d="M24.9939 517.612V517.012C24.9939 516.186 25.1473 515.479 25.4539 514.892C25.7606 514.292 26.2406 513.772 26.8939 513.332L30.9139 510.692C31.3406 510.399 31.7073 510.026 32.0139 509.572C32.3339 509.106 32.4939 508.559 32.4939 507.932C32.4939 507.159 32.2673 506.539 31.8139 506.072C31.3606 505.606 30.6939 505.372 29.8139 505.372C29.2806 505.372 28.8006 505.492 28.3739 505.732C27.9606 505.959 27.6273 506.279 27.3739 506.692C27.1339 507.092 27.0139 507.552 27.0139 508.072C27.0139 508.179 27.0139 508.279 27.0139 508.372C27.0139 508.452 27.0206 508.532 27.0339 508.612H25.1339C25.1206 508.519 25.1139 508.452 25.1139 508.412C25.1139 508.359 25.1139 508.306 25.1139 508.252C25.1139 507.359 25.3139 506.572 25.7139 505.892C26.1139 505.199 26.6673 504.659 27.3739 504.272C28.0939 503.886 28.9139 503.692 29.8339 503.692H30.0539C30.9739 503.692 31.7673 503.872 32.4339 504.232C33.1139 504.579 33.6339 505.066 33.9939 505.692C34.3673 506.319 34.5539 507.046 34.5539 507.872C34.5539 508.566 34.4339 509.172 34.1939 509.692C33.9673 510.199 33.6539 510.646 33.2539 511.032C32.8673 511.419 32.4273 511.779 31.9339 512.112L28.5539 514.312C28.2606 514.512 28.0339 514.706 27.8739 514.892C27.7139 515.066 27.6006 515.232 27.5339 515.392C27.4673 515.552 27.4206 515.706 27.3939 515.852H34.6139V517.612H24.9939ZM41.5861 517.812C40.7328 517.812 39.9595 517.619 39.2661 517.232C38.5728 516.832 38.0261 516.286 37.6261 515.592C37.2261 514.899 37.0261 514.099 37.0261 513.192V508.312C37.0261 507.406 37.2261 506.606 37.6261 505.912C38.0395 505.219 38.5928 504.679 39.2861 504.292C39.9928 503.892 40.7795 503.692 41.6461 503.692H42.0061C42.8861 503.692 43.6661 503.892 44.3461 504.292C45.0261 504.679 45.5595 505.219 45.9461 505.912C46.3461 506.606 46.5461 507.406 46.5461 508.312V513.192C46.5461 514.099 46.3461 514.899 45.9461 515.592C45.5461 516.286 44.9995 516.832 44.3061 517.232C43.6128 517.619 42.8328 517.812 41.9661 517.812H41.5861ZM41.7861 516.212C42.3061 516.212 42.7728 516.092 43.1861 515.852C43.5995 515.599 43.9195 515.266 44.1461 514.852C44.3861 514.439 44.5061 513.972 44.5061 513.452V508.052C44.5061 507.519 44.3861 507.046 44.1461 506.632C43.9195 506.219 43.5995 505.892 43.1861 505.652C42.7728 505.412 42.3061 505.292 41.7861 505.292C41.2661 505.292 40.7995 505.412 40.3861 505.652C39.9861 505.892 39.6661 506.219 39.4261 506.632C39.1861 507.046 39.0661 507.519 39.0661 508.052V513.452C39.0661 513.972 39.1861 514.439 39.4261 514.852C39.6661 515.266 39.9861 515.599 40.3861 515.852C40.7995 516.092 41.2661 516.212 41.7861 516.212ZM48.9783 517.612V517.012C48.9783 516.186 49.1317 515.479 49.4383 514.892C49.745 514.292 50.225 513.772 50.8783 513.332L54.8983 510.692C55.325 510.399 55.6917 510.026 55.9983 509.572C56.3183 509.106 56.4783 508.559 56.4783 507.932C56.4783 507.159 56.2517 506.539 55.7983 506.072C55.345 505.606 54.6783 505.372 53.7983 505.372C53.265 505.372 52.785 505.492 52.3583 505.732C51.945 505.959 51.6117 506.279 51.3583 506.692C51.1183 507.092 50.9983 507.552 50.9983 508.072C50.9983 508.179 50.9983 508.279 50.9983 508.372C50.9983 508.452 51.005 508.532 51.0183 508.612H49.1183C49.105 508.519 49.0983 508.452 49.0983 508.412C49.0983 508.359 49.0983 508.306 49.0983 508.252C49.0983 507.359 49.2983 506.572 49.6983 505.892C50.0983 505.199 50.6517 504.659 51.3583 504.272C52.0783 503.886 52.8983 503.692 53.8183 503.692H54.0383C54.9583 503.692 55.7517 503.872 56.4183 504.232C57.0983 504.579 57.6183 505.066 57.9783 505.692C58.3517 506.319 58.5383 507.046 58.5383 507.872C58.5383 508.566 58.4183 509.172 58.1783 509.692C57.9517 510.199 57.6383 510.646 57.2383 511.032C56.8517 511.419 56.4117 511.779 55.9183 512.112L52.5383 514.312C52.245 514.512 52.0183 514.706 51.8583 514.892C51.6983 515.066 51.585 515.232 51.5183 515.392C51.4517 515.552 51.405 515.706 51.3783 515.852H58.5983V517.612H48.9783ZM60.9705 517.612V517.012C60.9705 516.186 61.1238 515.479 61.4305 514.892C61.7372 514.292 62.2172 513.772 62.8705 513.332L66.8905 510.692C67.3172 510.399 67.6838 510.026 67.9905 509.572C68.3105 509.106 68.4705 508.559 68.4705 507.932C68.4705 507.159 68.2438 506.539 67.7905 506.072C67.3372 505.606 66.6705 505.372 65.7905 505.372C65.2572 505.372 64.7772 505.492 64.3505 505.732C63.9372 505.959 63.6038 506.279 63.3505 506.692C63.1105 507.092 62.9905 507.552 62.9905 508.072C62.9905 508.179 62.9905 508.279 62.9905 508.372C62.9905 508.452 62.9972 508.532 63.0105 508.612H61.1105C61.0972 508.519 61.0905 508.452 61.0905 508.412C61.0905 508.359 61.0905 508.306 61.0905 508.252C61.0905 507.359 61.2905 506.572 61.6905 505.892C62.0905 505.199 62.6438 504.659 63.3505 504.272C64.0705 503.886 64.8905 503.692 65.8105 503.692H66.0305C66.9505 503.692 67.7438 503.872 68.4105 504.232C69.0905 504.579 69.6105 505.066 69.9705 505.692C70.3438 506.319 70.5305 507.046 70.5305 507.872C70.5305 508.566 70.4105 509.172 70.1705 509.692C69.9438 510.199 69.6305 510.646 69.2305 511.032C68.8438 511.419 68.4038 511.779 67.9105 512.112L64.5305 514.312C64.2372 514.512 64.0105 514.706 63.8505 514.892C63.6905 515.066 63.5772 515.232 63.5105 515.392C63.4438 515.552 63.3972 515.706 63.3705 515.852H70.5905V517.612H60.9705Z" fill="#0E0E0E"/>
<path opacity="0.5" d="M24.9939 567.521V566.921C24.9939 566.095 25.1473 565.388 25.4539 564.801C25.7606 564.201 26.2406 563.681 26.8939 563.241L30.9139 560.601C31.3406 560.308 31.7073 559.935 32.0139 559.481C32.3339 559.015 32.4939 558.468 32.4939 557.841C32.4939 557.068 32.2673 556.448 31.8139 555.981C31.3606 555.515 30.6939 555.281 29.8139 555.281C29.2806 555.281 28.8006 555.401 28.3739 555.641C27.9606 555.868 27.6273 556.188 27.3739 556.601C27.1339 557.001 27.0139 557.461 27.0139 557.981C27.0139 558.088 27.0139 558.188 27.0139 558.281C27.0139 558.361 27.0206 558.441 27.0339 558.521H25.1339C25.1206 558.428 25.1139 558.361 25.1139 558.321C25.1139 558.268 25.1139 558.215 25.1139 558.161C25.1139 557.268 25.3139 556.481 25.7139 555.801C26.1139 555.108 26.6673 554.568 27.3739 554.181C28.0939 553.795 28.9139 553.601 29.8339 553.601H30.0539C30.9739 553.601 31.7673 553.781 32.4339 554.141C33.1139 554.488 33.6339 554.975 33.9939 555.601C34.3673 556.228 34.5539 556.955 34.5539 557.781C34.5539 558.475 34.4339 559.081 34.1939 559.601C33.9673 560.108 33.6539 560.555 33.2539 560.941C32.8673 561.328 32.4273 561.688 31.9339 562.021L28.5539 564.221C28.2606 564.421 28.0339 564.615 27.8739 564.801C27.7139 564.975 27.6006 565.141 27.5339 565.301C27.4673 565.461 27.4206 565.615 27.3939 565.761H34.6139V567.521H24.9939ZM41.5861 567.721C40.7328 567.721 39.9595 567.528 39.2661 567.141C38.5728 566.741 38.0261 566.195 37.6261 565.501C37.2261 564.808 37.0261 564.008 37.0261 563.101V558.221C37.0261 557.315 37.2261 556.515 37.6261 555.821C38.0395 555.128 38.5928 554.588 39.2861 554.201C39.9928 553.801 40.7795 553.601 41.6461 553.601H42.0061C42.8861 553.601 43.6661 553.801 44.3461 554.201C45.0261 554.588 45.5595 555.128 45.9461 555.821C46.3461 556.515 46.5461 557.315 46.5461 558.221V563.101C46.5461 564.008 46.3461 564.808 45.9461 565.501C45.5461 566.195 44.9995 566.741 44.3061 567.141C43.6128 567.528 42.8328 567.721 41.9661 567.721H41.5861ZM41.7861 566.121C42.3061 566.121 42.7728 566.001 43.1861 565.761C43.5995 565.508 43.9195 565.175 44.1461 564.761C44.3861 564.348 44.5061 563.881 44.5061 563.361V557.961C44.5061 557.428 44.3861 556.955 44.1461 556.541C43.9195 556.128 43.5995 555.801 43.1861 555.561C42.7728 555.321 42.3061 555.201 41.7861 555.201C41.2661 555.201 40.7995 555.321 40.3861 555.561C39.9861 555.801 39.6661 556.128 39.4261 556.541C39.1861 556.955 39.0661 557.428 39.0661 557.961V563.361C39.0661 563.881 39.1861 564.348 39.4261 564.761C39.6661 565.175 39.9861 565.508 40.3861 565.761C40.7995 566.001 41.2661 566.121 41.7861 566.121ZM48.9783 567.521V566.921C48.9783 566.095 49.1317 565.388 49.4383 564.801C49.745 564.201 50.225 563.681 50.8783 563.241L54.8983 560.601C55.325 560.308 55.6917 559.935 55.9983 559.481C56.3183 559.015 56.4783 558.468 56.4783 557.841C56.4783 557.068 56.2517 556.448 55.7983 555.981C55.345 555.515 54.6783 555.281 53.7983 555.281C53.265 555.281 52.785 555.401 52.3583 555.641C51.945 555.868 51.6117 556.188 51.3583 556.601C51.1183 557.001 50.9983 557.461 50.9983 557.981C50.9983 558.088 50.9983 558.188 50.9983 558.281C50.9983 558.361 51.005 558.441 51.0183 558.521H49.1183C49.105 558.428 49.0983 558.361 49.0983 558.321C49.0983 558.268 49.0983 558.215 49.0983 558.161C49.0983 557.268 49.2983 556.481 49.6983 555.801C50.0983 555.108 50.6517 554.568 51.3583 554.181C52.0783 553.795 52.8983 553.601 53.8183 553.601H54.0383C54.9583 553.601 55.7517 553.781 56.4183 554.141C57.0983 554.488 57.6183 554.975 57.9783 555.601C58.3517 556.228 58.5383 556.955 58.5383 557.781C58.5383 558.475 58.4183 559.081 58.1783 559.601C57.9517 560.108 57.6383 560.555 57.2383 560.941C56.8517 561.328 56.4117 561.688 55.9183 562.021L52.5383 564.221C52.245 564.421 52.0183 564.615 51.8583 564.801C51.6983 564.975 51.585 565.141 51.5183 565.301C51.4517 565.461 51.405 565.615 51.3783 565.761H58.5983V567.521H48.9783ZM65.4505 567.721C64.5038 567.721 63.6705 567.555 62.9505 567.221C62.2438 566.888 61.6905 566.428 61.2905 565.841C60.8905 565.255 60.6905 564.588 60.6905 563.841V563.481H62.5705C62.5705 564.401 62.8372 565.068 63.3705 565.481C63.9038 565.895 64.6238 566.101 65.5305 566.101C66.4105 566.101 67.1305 565.901 67.6905 565.501C68.2505 565.088 68.5305 564.475 68.5305 563.661C68.5305 563.101 68.3972 562.641 68.1305 562.281C67.8772 561.921 67.5372 561.661 67.1105 561.501C66.6838 561.328 66.2172 561.241 65.7105 561.241H63.9905V559.781H65.5305C66.0238 559.781 66.4705 559.695 66.8705 559.521C67.2838 559.348 67.6105 559.095 67.8505 558.761C68.1038 558.415 68.2305 557.988 68.2305 557.481C68.2305 556.975 68.1105 556.555 67.8705 556.221C67.6305 555.888 67.3038 555.641 66.8905 555.481C66.4905 555.321 66.0372 555.241 65.5305 555.241C64.6905 555.241 64.0305 555.448 63.5505 555.861C63.0838 556.275 62.8505 556.875 62.8505 557.661H61.0305V557.321C61.0305 556.561 61.2238 555.908 61.6105 555.361C62.0105 554.801 62.5505 554.368 63.2305 554.061C63.9105 553.755 64.6772 553.601 65.5305 553.601H65.7905C66.6305 553.601 67.3838 553.755 68.0505 554.061C68.7172 554.355 69.2438 554.781 69.6305 555.341C70.0305 555.888 70.2305 556.541 70.2305 557.301C70.2305 557.835 70.1372 558.295 69.9505 558.681C69.7638 559.068 69.5105 559.395 69.1905 559.661C68.8705 559.928 68.5038 560.161 68.0905 560.361V560.461C68.8105 560.688 69.3972 561.081 69.8505 561.641C70.3172 562.201 70.5505 562.935 70.5505 563.841C70.5505 564.615 70.3438 565.295 69.9305 565.881C69.5305 566.455 68.9705 566.908 68.2505 567.241C67.5305 567.561 66.7105 567.721 65.7905 567.721H65.4505Z" fill="#0E0E0E"/>
<line x1="112.528" y1="22.543" x2="183" y2="22.543" stroke="#121212"/>
<line x1="112.528" y1="32.543" x2="183" y2="32.543" stroke="#121212"/>
<line x1="112.528" y1="42.543" x2="183" y2="42.543" stroke="#121212"/>
<line x1="112.528" y1="52.543" x2="183" y2="52.543" stroke="#121212"/>
<line x1="78.7939" y1="62.043" x2="183" y2="62.043" stroke="#D00D0D" stroke-width="2"/>
<line x1="112.528" y1="72.543" x2="183" y2="72.543" stroke="#121212"/>
<line x1="112.528" y1="82.543" x2="183" y2="82.543" stroke="#121212"/>
<line x1="112.528" y1="92.543" x2="183" y2="92.543" stroke="#121212"/>
<line x1="112.528" y1="102.543" x2="183" y2="102.543" stroke="#121212"/>
<line x1="78.7939" y1="112.043" x2="183" y2="112.043" stroke="#D00D0D" stroke-width="2"/>
<line x1="112.528" y1="122.543" x2="183" y2="122.543" stroke="#121212"/>
<line x1="112.528" y1="132.543" x2="183" y2="132.543" stroke="#121212"/>
<line x1="112.528" y1="142.543" x2="183" y2="142.543" stroke="#121212"/>
<line x1="112.528" y1="152.543" x2="183" y2="152.543" stroke="#121212"/>
<line x1="78.7939" y1="162.043" x2="183" y2="162.043" stroke="#D00D0D" stroke-width="2"/>
<line x1="112.528" y1="172.543" x2="183" y2="172.543" stroke="#121212"/>
<line x1="112.528" y1="182.543" x2="183" y2="182.543" stroke="#121212"/>
<line x1="112.528" y1="192.543" x2="183" y2="192.543" stroke="#121212"/>
<line x1="112.528" y1="202.543" x2="183" y2="202.543" stroke="#121212"/>
<line x1="78.7939" y1="212.043" x2="183" y2="212.043" stroke="#D00D0D" stroke-width="2"/>
<line x1="112.528" y1="222.543" x2="183" y2="222.543" stroke="#121212"/>
<line x1="112.528" y1="232.543" x2="183" y2="232.543" stroke="#121212"/>
<line x1="112.528" y1="242.543" x2="183" y2="242.543" stroke="#121212"/>
<line x1="112.528" y1="252.543" x2="183" y2="252.543" stroke="#121212"/>
<line x1="78.7939" y1="262.043" x2="183" y2="262.043" stroke="#D00D0D" stroke-width="2"/>
<line x1="112.528" y1="272.543" x2="183" y2="272.543" stroke="#121212"/>
<line x1="112.528" y1="282.543" x2="183" y2="282.543" stroke="#121212"/>
<line x1="112.528" y1="292.543" x2="183" y2="292.543" stroke="#121212"/>
<line x1="112.528" y1="302.543" x2="183" y2="302.543" stroke="#121212"/>
<line x1="78.7939" y1="312.043" x2="183" y2="312.043" stroke="#D00D0D" stroke-width="2"/>
<line x1="112.528" y1="322.543" x2="183" y2="322.543" stroke="#121212"/>
<line x1="112.528" y1="332.543" x2="183" y2="332.543" stroke="#121212"/>
<line x1="112.528" y1="342.543" x2="183" y2="342.543" stroke="#121212"/>
<line x1="112.528" y1="352.543" x2="183" y2="352.543" stroke="#121212"/>
<line x1="78.7939" y1="362.043" x2="183" y2="362.043" stroke="#D00D0D" stroke-width="2"/>
<line x1="112.528" y1="372.543" x2="183" y2="372.543" stroke="#121212"/>
<line x1="112.528" y1="382.543" x2="183" y2="382.543" stroke="#121212"/>
<line x1="112.528" y1="392.543" x2="183" y2="392.543" stroke="#121212"/>
<line x1="112.528" y1="402.543" x2="183" y2="402.543" stroke="#121212"/>
<line x1="78.7939" y1="412.043" x2="183" y2="412.043" stroke="#D00D0D" stroke-width="2"/>
<line x1="112.528" y1="422.543" x2="183" y2="422.543" stroke="#121212"/>
<line x1="112.528" y1="432.543" x2="183" y2="432.543" stroke="#121212"/>
<line x1="112.528" y1="442.543" x2="183" y2="442.543" stroke="#121212"/>
<line x1="112.528" y1="452.543" x2="183" y2="452.543" stroke="#121212"/>
<line x1="78.7939" y1="462.043" x2="183" y2="462.043" stroke="#D00D0D" stroke-width="2"/>
<line x1="112.528" y1="472.543" x2="183" y2="472.543" stroke="#121212"/>
<line x1="112.528" y1="482.543" x2="183" y2="482.543" stroke="#121212"/>
<line x1="112.528" y1="492.543" x2="183" y2="492.543" stroke="#121212"/>
<line x1="112.528" y1="502.543" x2="183" y2="502.543" stroke="#121212"/>
<line x1="78.7939" y1="512.043" x2="183" y2="512.043" stroke="#D00D0D" stroke-width="2"/>
<line x1="112.528" y1="522.543" x2="183" y2="522.543" stroke="#121212"/>
<line x1="112.528" y1="532.543" x2="183" y2="532.543" stroke="#121212"/>
<line x1="112.528" y1="542.543" x2="183" y2="542.543" stroke="#121212"/>
<line x1="112.528" y1="552.543" x2="183" y2="552.543" stroke="#121212"/>
<line x1="78.7939" y1="562.043" x2="183" y2="562.043" stroke="#D00D0D" stroke-width="2"/>
</svg>
