<svg width="35" height="35" viewBox="0 0 35 35" fill="none" xmlns="http://www.w3.org/2000/svg">
<path d="M27.4001 4.46338C28.1546 4.46338 28.8783 4.76311 29.4118 5.29664C29.9453 5.83017 30.245 6.55379 30.245 7.30831V27.2229C30.245 27.9774 29.9453 28.701 29.4118 29.2345C28.8783 29.7681 28.1546 30.0678 27.4001 30.0678H7.48556C6.73104 30.0678 6.00742 29.7681 5.47389 29.2345C4.94036 28.701 4.64063 27.9774 4.64062 27.2229V7.30831C4.64062 6.55379 4.94036 5.83017 5.47389 5.29664C6.00742 4.76311 6.73104 4.46338 7.48556 4.46338H27.4001ZM26.6889 26.5116V18.9726C26.6889 17.7427 26.2003 16.5632 25.3307 15.6935C24.461 14.8239 23.2815 14.3353 22.0516 14.3353C20.8425 14.3353 19.4343 15.075 18.7515 16.1845V14.6056H14.7828V26.5116H18.7515V19.4989C18.7515 18.4036 19.6334 17.5074 20.7287 17.5074C21.2569 17.5074 21.7634 17.7172 22.1369 18.0907C22.5104 18.4642 22.7202 18.9707 22.7202 19.4989V26.5116H26.6889ZM10.1598 12.3723C10.7936 12.3723 11.4014 12.1205 11.8496 11.6724C12.2978 11.2242 12.5495 10.6164 12.5495 9.98255C12.5495 8.65966 11.4827 7.57858 10.1598 7.57858C9.52223 7.57858 8.91077 7.83186 8.45994 8.28269C8.0091 8.73352 7.75583 9.34498 7.75583 9.98255C7.75583 11.3054 8.83691 12.3723 10.1598 12.3723ZM12.137 26.5116V14.6056H8.19679V26.5116H12.137Z" fill="#F2F2F2"/>
</svg>
