<svg width="29" height="29" viewBox="0 0 29 29" fill="none" xmlns="http://www.w3.org/2000/svg">
<path d="M23.0131 3.94824C23.6364 3.94824 24.2341 4.19583 24.6749 4.63655C25.1156 5.07727 25.3632 5.67501 25.3632 6.29827V22.7485C25.3632 23.3717 25.1156 23.9695 24.6749 24.4102C24.2341 24.8509 23.6364 25.0985 23.0131 25.0985H6.56292C5.93965 25.0985 5.34191 24.8509 4.9012 24.4102C4.46048 23.9695 4.21289 23.3717 4.21289 22.7485V6.29827C4.21289 5.67501 4.46048 5.07727 4.9012 4.63655C5.34191 4.19583 5.93965 3.94824 6.56292 3.94824H23.0131ZM22.4256 22.161V15.9334C22.4256 14.9175 22.022 13.9432 21.3037 13.2248C20.5853 12.5064 19.611 12.1028 18.5951 12.1028C17.5963 12.1028 16.433 12.7139 15.869 13.6304V12.3261H12.5907V22.161H15.869V16.3681C15.869 15.4634 16.5975 14.7231 17.5023 14.7231C17.9386 14.7231 18.357 14.8964 18.6655 15.2049C18.974 15.5134 19.1473 15.9319 19.1473 16.3681V22.161H22.4256ZM8.77195 10.4813C9.29549 10.4813 9.79759 10.2733 10.1678 9.90315C10.538 9.53295 10.746 9.03084 10.746 8.5073C10.746 7.41454 9.86471 6.52153 8.77195 6.52153C8.24529 6.52153 7.7402 6.73074 7.36779 7.10314C6.99539 7.47555 6.78617 7.98064 6.78617 8.5073C6.78617 9.60006 7.67918 10.4813 8.77195 10.4813ZM10.4052 22.161V12.3261H7.15043V22.161H10.4052Z" fill="#060606"/>
</svg>
