<svg width="29" height="29" viewBox="0 0 29 29" fill="none" xmlns="http://www.w3.org/2000/svg">
<path d="M26.8988 7.0696C26.0021 7.46628 25.0512 7.72687 24.0776 7.84276C25.1034 7.22838 25.871 6.26205 26.2372 5.12377C25.2737 5.69718 24.2174 6.09903 23.1176 6.31641C22.378 5.52513 21.3978 5.00035 20.3292 4.82365C19.2606 4.64696 18.1636 4.82824 17.2087 5.33933C16.2538 5.85042 15.4945 6.66267 15.0489 7.64981C14.6032 8.63695 14.4962 9.74367 14.7444 10.7979C12.7903 10.7001 10.8786 10.1925 9.13341 9.30784C7.38825 8.42321 5.84866 7.18142 4.61461 5.6631C4.17785 6.41329 3.94833 7.26609 3.94955 8.13416C3.94955 9.83793 4.81789 11.3431 6.13508 12.2244C5.35489 12.1998 4.59187 11.9891 3.9096 11.6099V11.6698C3.90957 12.8047 4.3021 13.9047 5.02062 14.7832C5.73914 15.6617 6.73941 16.2646 7.85178 16.4897C7.12755 16.6862 6.36808 16.7151 5.631 16.5743C5.94464 17.5512 6.55599 18.4055 7.37942 19.0176C8.20285 19.6297 9.19712 19.9689 10.223 19.9877C9.20346 20.7884 8.03612 21.3803 6.78769 21.7295C5.53927 22.0787 4.23425 22.1784 2.94727 22.0228C5.19357 23.4674 7.80842 24.2343 10.4791 24.2319C19.5197 24.2319 24.4618 16.7435 24.4618 10.2492C24.4618 10.0377 24.4571 9.82383 24.4477 9.6135C25.4093 8.91831 26.2393 8.05609 26.8988 7.0696Z" fill="#060606"/>
</svg>
