<svg width="35" height="35" viewBox="0 0 35 35" fill="none" xmlns="http://www.w3.org/2000/svg">
<path d="M31.98 8.24151C30.8944 8.72173 29.7433 9.0372 28.5646 9.17749C29.8065 8.43373 30.7357 7.2639 31.1791 5.8859C30.0127 6.58006 28.7339 7.06655 27.4025 7.3297C26.5072 6.37178 25.3205 5.73649 24.0269 5.52258C22.7333 5.30867 21.4052 5.52814 20.2492 6.14685C19.0932 6.76557 18.174 7.74888 17.6345 8.94391C17.095 10.1389 16.9655 11.4787 17.266 12.755C14.9003 12.6366 12.586 12.022 10.4733 10.9511C8.36061 9.88019 6.49679 8.37688 5.00286 6.53881C4.47411 7.44699 4.19625 8.47938 4.19774 9.53026C4.19774 11.5928 5.24894 13.415 6.84353 14.4819C5.89903 14.4521 4.97533 14.197 4.14938 13.7379V13.8105C4.14933 15.1844 4.62453 16.516 5.49436 17.5795C6.3642 18.643 7.57512 19.3729 8.92176 19.6454C8.04501 19.8833 7.1256 19.9183 6.23329 19.7478C6.61298 20.9305 7.35308 21.9647 8.34992 22.7057C9.34676 23.4467 10.5504 23.8574 11.7923 23.8801C10.5581 24.8495 9.14492 25.566 7.63358 25.9887C6.12224 26.4115 4.54239 26.5321 2.98438 26.3438C5.70374 28.0926 8.86927 29.021 12.1024 29.0181C23.0469 29.0181 29.0298 19.9527 29.0298 12.0907C29.0298 11.8347 29.0241 11.5758 29.0127 11.3211C30.1768 10.4796 31.1817 9.43576 31.98 8.24151Z" fill="#F2F2F2"/>
</svg>
