<svg width="137" height="32" viewBox="0 0 137 32" fill="none" xmlns="http://www.w3.org/2000/svg">
<g clip-path="url(#clip0_1272_3003)">
<path d="M0.756836 2.02246H28.712L18.5601 12.0592H0.756836V2.02246Z" fill="url(#paint0_linear_1272_3003)"/>
<path d="M28.7119 2.02246L28.7119 29.9776L18.6752 29.9776L18.6752 11.9352L28.7119 2.02246Z" fill="url(#paint1_linear_1272_3003)"/>
<path d="M0.756836 2.02246L28.7119 29.9775H0.756836V2.02246Z" fill="#1E8C51"/>
</g>
<path d="M45.2325 8.83623V10.053H41.1627V23.5H39.6942V10.053H35.6035V8.83623H45.2325ZM55.3551 23.5L51.7259 17.3744H49.0197V23.5H47.5512V8.83623H51.9566C53.5929 8.83623 54.8306 9.22783 55.6698 10.011C56.5229 10.7942 56.9494 11.8221 56.9494 13.0948C56.9494 14.1577 56.6418 15.0668 56.0264 15.822C55.425 16.5632 54.53 17.0457 53.3412 17.2695L57.1173 23.5H55.3551ZM49.0197 16.1786H51.9776C53.1244 16.1786 53.9845 15.8989 54.5579 15.3395C55.1453 14.7801 55.439 14.0318 55.439 13.0948C55.439 12.1298 55.1593 11.3886 54.5999 10.8711C54.0405 10.3397 53.1594 10.0739 51.9566 10.0739H49.0197V16.1786ZM68.3598 20.0176H61.6887L60.409 23.5H58.8567L64.2061 9.02504H65.8634L71.1918 23.5H69.6395L68.3598 20.0176ZM67.9192 18.8009L65.0243 10.8711L62.1293 18.8009H67.9192ZM77.8911 8.83623C79.5134 8.83623 80.905 9.12993 82.0658 9.71732C83.2266 10.3047 84.1146 11.1508 84.73 12.2557C85.3454 13.3605 85.653 14.6752 85.653 16.1996C85.653 17.71 85.3454 19.0177 84.73 20.1225C84.1146 21.2134 83.2266 22.0525 82.0658 22.6399C80.905 23.2133 79.5134 23.5 77.8911 23.5H73.5486V8.83623H77.8911ZM77.8911 22.2833C79.933 22.2833 81.4854 21.7518 82.5483 20.6889C83.6251 19.612 84.1636 18.1156 84.1636 16.1996C84.1636 14.2696 83.6251 12.7662 82.5483 11.6893C81.4854 10.5984 79.933 10.053 77.8911 10.053H75.0171V22.2833H77.8911ZM89.8288 10.032V15.5073H95.3881V16.724H89.8288V22.2833H96.0174V23.5H88.3604V8.81526H96.0174V10.032H89.8288ZM107.218 8.85721V19.1365C107.218 20.5631 106.806 21.6749 105.981 22.4721C105.155 23.2553 104.051 23.6468 102.666 23.6468C101.267 23.6468 100.135 23.2413 99.2676 22.4301C98.4145 21.619 97.9879 20.4861 97.9879 19.0316H100.925C100.939 19.661 101.086 20.1505 101.365 20.5001C101.659 20.8498 102.079 21.0246 102.624 21.0246C103.156 21.0246 103.561 20.8567 103.841 20.5211C104.121 20.1854 104.26 19.7239 104.26 19.1365V8.85721H107.218ZM113.581 8.85721V23.5H110.644V8.85721H113.581ZM129.007 23.5H126.07L119.42 13.4514V23.5H116.483V8.83623H119.42L126.07 18.9058V8.83623H129.007V23.5ZM134.846 8.85721V23.5H131.909V8.85721H134.846Z" fill="black"/>
<defs>
<linearGradient id="paint0_linear_1272_3003" x1="-11.7329" y1="7.50624" x2="36.5179" y2="7.04083" gradientUnits="userSpaceOnUse">
<stop stop-color="#18944A"/>
<stop offset="1" stop-color="#86D3BB"/>
</linearGradient>
<linearGradient id="paint1_linear_1272_3003" x1="23.6936" y1="29.1387" x2="23.6936" y2="13.6515" gradientUnits="userSpaceOnUse">
<stop stop-color="#1E975D"/>
<stop offset="1" stop-color="#86D3BB"/>
</linearGradient>
<clipPath id="clip0_1272_3003">
<rect x="0.756836" y="2.02246" width="27.9552" height="27.9552" rx="3.28004" fill="white"/>
</clipPath>
</defs>
</svg>
