<svg width="202" height="60" viewBox="0 0 202 60" fill="none" xmlns="http://www.w3.org/2000/svg">
<g filter="url(#filter0_d_334_6924)">
<rect x="4" y="0.890625" width="194" height="51" rx="10" fill="#151515"/>
<path d="M75.597 9.49062C76.749 9.49062 77.705 9.89462 78.465 10.7026C79.233 11.5106 79.617 12.5066 79.617 13.6906C79.617 14.8666 79.233 15.8626 78.465 16.6786C77.705 17.4866 76.749 17.8906 75.597 17.8906H72.297V9.49062H75.597ZM75.597 16.5706C76.389 16.5706 77.033 16.2986 77.529 15.7546C78.033 15.2106 78.285 14.5226 78.285 13.6906C78.285 12.8506 78.033 12.1626 77.529 11.6266C77.033 11.0826 76.389 10.8106 75.597 10.8106H73.677V16.5706H75.597ZM83.6232 18.0466C82.7432 18.0466 81.9952 17.7426 81.3792 17.1346C80.7632 16.5266 80.4552 15.7786 80.4552 14.8906C80.4552 14.0026 80.7632 13.2546 81.3792 12.6466C81.9952 12.0386 82.7432 11.7346 83.6232 11.7346C84.5112 11.7346 85.2592 12.0386 85.8672 12.6466C86.4832 13.2546 86.7912 14.0026 86.7912 14.8906C86.7912 15.7786 86.4832 16.5266 85.8672 17.1346C85.2592 17.7426 84.5112 18.0466 83.6232 18.0466ZM82.2912 16.2466C82.6512 16.6066 83.0952 16.7866 83.6232 16.7866C84.1512 16.7866 84.5952 16.6066 84.9552 16.2466C85.3152 15.8866 85.4952 15.4346 85.4952 14.8906C85.4952 14.3466 85.3152 13.8946 84.9552 13.5346C84.5952 13.1746 84.1512 12.9946 83.6232 12.9946C83.0952 12.9946 82.6512 13.1746 82.2912 13.5346C81.9312 13.8946 81.7512 14.3466 81.7512 14.8906C81.7512 15.4346 81.9312 15.8866 82.2912 16.2466ZM94.6407 11.8906H96.0087L94.1247 17.8906H92.8527L91.6047 13.8466L90.3447 17.8906H89.0727L87.1887 11.8906H88.5567L89.7207 16.0306L90.9807 11.8906H92.2167L93.4647 16.0306L94.6407 11.8906ZM100.119 11.7346C100.807 11.7346 101.363 11.9546 101.787 12.3946C102.211 12.8346 102.423 13.4386 102.423 14.2066V17.8906H101.127V14.3386C101.127 13.8906 101.007 13.5466 100.767 13.3066C100.527 13.0666 100.199 12.9466 99.783 12.9466C99.327 12.9466 98.959 13.0906 98.679 13.3786C98.399 13.6586 98.259 14.0906 98.259 14.6746V17.8906H96.963V11.8906H98.259V12.6586C98.651 12.0426 99.271 11.7346 100.119 11.7346ZM103.819 17.8906V9.13062H105.115V17.8906H103.819ZM109.451 18.0466C108.571 18.0466 107.823 17.7426 107.207 17.1346C106.591 16.5266 106.283 15.7786 106.283 14.8906C106.283 14.0026 106.591 13.2546 107.207 12.6466C107.823 12.0386 108.571 11.7346 109.451 11.7346C110.339 11.7346 111.087 12.0386 111.695 12.6466C112.311 13.2546 112.619 14.0026 112.619 14.8906C112.619 15.7786 112.311 16.5266 111.695 17.1346C111.087 17.7426 110.339 18.0466 109.451 18.0466ZM108.119 16.2466C108.479 16.6066 108.923 16.7866 109.451 16.7866C109.979 16.7866 110.423 16.6066 110.783 16.2466C111.143 15.8866 111.323 15.4346 111.323 14.8906C111.323 14.3466 111.143 13.8946 110.783 13.5346C110.423 13.1746 109.979 12.9946 109.451 12.9946C108.923 12.9946 108.479 13.1746 108.119 13.5346C107.759 13.8946 107.579 14.3466 107.579 14.8906C107.579 15.4346 107.759 15.8866 108.119 16.2466ZM118.543 11.8906H119.839V17.8906H118.543V17.0266C118.055 17.7066 117.355 18.0466 116.443 18.0466C115.619 18.0466 114.915 17.7426 114.331 17.1346C113.747 16.5186 113.455 15.7706 113.455 14.8906C113.455 14.0026 113.747 13.2546 114.331 12.6466C114.915 12.0386 115.619 11.7346 116.443 11.7346C117.355 11.7346 118.055 12.0706 118.543 12.7426V11.8906ZM115.291 16.2706C115.651 16.6306 116.103 16.8106 116.647 16.8106C117.191 16.8106 117.643 16.6306 118.003 16.2706C118.363 15.9026 118.543 15.4426 118.543 14.8906C118.543 14.3386 118.363 13.8826 118.003 13.5226C117.643 13.1546 117.191 12.9706 116.647 12.9706C116.103 12.9706 115.651 13.1546 115.291 13.5226C114.931 13.8826 114.751 14.3386 114.751 14.8906C114.751 15.4426 114.931 15.9026 115.291 16.2706ZM126.102 9.49062H127.398V17.8906H126.102V17.0266C125.614 17.7066 124.914 18.0466 124.002 18.0466C123.178 18.0466 122.474 17.7426 121.89 17.1346C121.306 16.5186 121.014 15.7706 121.014 14.8906C121.014 14.0026 121.306 13.2546 121.89 12.6466C122.474 12.0386 123.178 11.7346 124.002 11.7346C124.914 11.7346 125.614 12.0706 126.102 12.7426V9.49062ZM122.85 16.2706C123.21 16.6306 123.662 16.8106 124.206 16.8106C124.75 16.8106 125.202 16.6306 125.562 16.2706C125.922 15.9026 126.102 15.4426 126.102 14.8906C126.102 14.3386 125.922 13.8826 125.562 13.5226C125.202 13.1546 124.75 12.9706 124.206 12.9706C123.662 12.9706 123.21 13.1546 122.85 13.5226C122.49 13.8826 122.31 14.3386 122.31 14.8906C122.31 15.4426 122.49 15.9026 122.85 16.2706ZM134.74 18.0466C133.86 18.0466 133.112 17.7426 132.496 17.1346C131.88 16.5266 131.572 15.7786 131.572 14.8906C131.572 14.0026 131.88 13.2546 132.496 12.6466C133.112 12.0386 133.86 11.7346 134.74 11.7346C135.628 11.7346 136.376 12.0386 136.984 12.6466C137.6 13.2546 137.908 14.0026 137.908 14.8906C137.908 15.7786 137.6 16.5266 136.984 17.1346C136.376 17.7426 135.628 18.0466 134.74 18.0466ZM133.408 16.2466C133.768 16.6066 134.212 16.7866 134.74 16.7866C135.268 16.7866 135.712 16.6066 136.072 16.2466C136.432 15.8866 136.612 15.4346 136.612 14.8906C136.612 14.3466 136.432 13.8946 136.072 13.5346C135.712 13.1746 135.268 12.9946 134.74 12.9946C134.212 12.9946 133.768 13.1746 133.408 13.5346C133.048 13.8946 132.868 14.3466 132.868 14.8906C132.868 15.4346 133.048 15.8866 133.408 16.2466ZM142.236 11.7346C142.924 11.7346 143.48 11.9546 143.904 12.3946C144.328 12.8346 144.54 13.4386 144.54 14.2066V17.8906H143.244V14.3386C143.244 13.8906 143.124 13.5466 142.884 13.3066C142.644 13.0666 142.316 12.9466 141.9 12.9466C141.444 12.9466 141.076 13.0906 140.796 13.3786C140.516 13.6586 140.376 14.0906 140.376 14.6746V17.8906H139.08V11.8906H140.376V12.6586C140.768 12.0426 141.388 11.7346 142.236 11.7346ZM152.284 13.1386H150.796V16.0186C150.796 16.2666 150.852 16.4466 150.964 16.5586C151.076 16.6626 151.24 16.7226 151.456 16.7386C151.68 16.7466 151.956 16.7426 152.284 16.7266V17.8906C151.292 18.0106 150.58 17.9266 150.148 17.6386C149.716 17.3426 149.5 16.8026 149.5 16.0186V13.1386H148.396V11.8906H149.5V10.5946L150.796 10.2106V11.8906H152.284V13.1386ZM156.615 11.7346C157.303 11.7346 157.859 11.9546 158.283 12.3946C158.707 12.8346 158.919 13.4386 158.919 14.2066V17.8906H157.623V14.3386C157.623 13.8906 157.503 13.5466 157.263 13.3066C157.023 13.0666 156.695 12.9466 156.279 12.9466C155.823 12.9466 155.455 13.0906 155.175 13.3786C154.895 13.6586 154.755 14.0906 154.755 14.6746V17.8906H153.459V9.49062H154.755V12.6586C155.147 12.0426 155.767 11.7346 156.615 11.7346ZM161.335 15.4426C161.431 15.8986 161.651 16.2506 161.995 16.4986C162.339 16.7386 162.759 16.8586 163.255 16.8586C163.943 16.8586 164.459 16.6106 164.803 16.1146L165.871 16.7386C165.279 17.6106 164.403 18.0466 163.243 18.0466C162.267 18.0466 161.479 17.7506 160.879 17.1586C160.279 16.5586 159.979 15.8026 159.979 14.8906C159.979 13.9946 160.275 13.2466 160.867 12.6466C161.459 12.0386 162.219 11.7346 163.147 11.7346C164.027 11.7346 164.747 12.0426 165.307 12.6586C165.875 13.2746 166.159 14.0226 166.159 14.9026C166.159 15.0386 166.143 15.2186 166.111 15.4426H161.335ZM161.323 14.3866H164.851C164.763 13.8986 164.559 13.5306 164.239 13.2826C163.927 13.0346 163.559 12.9106 163.135 12.9106C162.655 12.9106 162.255 13.0426 161.935 13.3066C161.615 13.5706 161.411 13.9306 161.323 14.3866Z" fill="white"/>
<path d="M81.6704 38.8906L80.6904 36.0706H74.7304L73.7504 38.8906H71.2504L76.3304 24.8906H79.0904L84.1504 38.8906H81.6704ZM75.4904 33.9106H79.9304L77.7104 27.5906L75.4904 33.9106ZM91.1759 28.6306C92.5492 28.6306 93.7225 29.144 94.6959 30.1706C95.6692 31.184 96.1559 32.424 96.1559 33.8906C96.1559 35.3706 95.6692 36.6173 94.6959 37.6306C93.7225 38.644 92.5492 39.1506 91.1759 39.1506C89.6559 39.1506 88.4892 38.5906 87.6759 37.4706V42.8906H85.5159V28.8906H87.6759V30.3306C88.4892 29.1973 89.6559 28.6306 91.1759 28.6306ZM88.5759 36.1906C89.1759 36.7906 89.9292 37.0906 90.8359 37.0906C91.7425 37.0906 92.4959 36.7906 93.0959 36.1906C93.6959 35.5773 93.9959 34.8106 93.9959 33.8906C93.9959 32.9706 93.6959 32.2106 93.0959 31.6106C92.4959 30.9973 91.7425 30.6906 90.8359 30.6906C89.9292 30.6906 89.1759 30.9973 88.5759 31.6106C87.9759 32.2106 87.6759 32.9706 87.6759 33.8906C87.6759 34.8106 87.9759 35.5773 88.5759 36.1906ZM103.774 28.6306C105.147 28.6306 106.32 29.144 107.294 30.1706C108.267 31.184 108.754 32.424 108.754 33.8906C108.754 35.3706 108.267 36.6173 107.294 37.6306C106.32 38.644 105.147 39.1506 103.774 39.1506C102.254 39.1506 101.087 38.5906 100.274 37.4706V42.8906H98.1135V28.8906H100.274V30.3306C101.087 29.1973 102.254 28.6306 103.774 28.6306ZM101.174 36.1906C101.774 36.7906 102.527 37.0906 103.434 37.0906C104.34 37.0906 105.094 36.7906 105.694 36.1906C106.294 35.5773 106.594 34.8106 106.594 33.8906C106.594 32.9706 106.294 32.2106 105.694 31.6106C105.094 30.9973 104.34 30.6906 103.434 30.6906C102.527 30.6906 101.774 30.9973 101.174 31.6106C100.574 32.2106 100.274 32.9706 100.274 33.8906C100.274 34.8106 100.574 35.5773 101.174 36.1906ZM120.511 39.1506C119.165 39.1506 118.018 38.844 117.071 38.2306C116.138 37.6173 115.485 36.7773 115.111 35.7106L117.091 34.5506C117.651 36.124 118.811 36.9106 120.571 36.9106C121.438 36.9106 122.085 36.744 122.511 36.4106C122.951 36.064 123.171 35.6173 123.171 35.0706C123.171 34.4973 122.938 34.064 122.471 33.7706C122.005 33.464 121.178 33.1306 119.991 32.7706C119.325 32.5706 118.785 32.384 118.371 32.2106C117.958 32.0373 117.518 31.7973 117.051 31.4906C116.598 31.1706 116.258 30.7773 116.031 30.3106C115.805 29.844 115.691 29.2973 115.691 28.6706C115.691 27.4306 116.131 26.4506 117.011 25.7306C117.891 24.9973 118.951 24.6306 120.191 24.6306C121.311 24.6306 122.291 24.904 123.131 25.4506C123.971 25.9973 124.618 26.7506 125.071 27.7106L123.131 28.8306C122.545 27.524 121.565 26.8706 120.191 26.8706C119.525 26.8706 118.991 27.0306 118.591 27.3506C118.191 27.6573 117.991 28.0773 117.991 28.6106C117.991 29.1306 118.191 29.544 118.591 29.8506C119.005 30.144 119.745 30.4573 120.811 30.7906C121.345 30.964 121.731 31.0973 121.971 31.1906C122.225 31.2706 122.571 31.404 123.011 31.5906C123.465 31.7773 123.805 31.964 124.031 32.1506C124.258 32.3373 124.498 32.5706 124.751 32.8506C125.018 33.1306 125.205 33.4506 125.311 33.8106C125.418 34.1706 125.471 34.5773 125.471 35.0306C125.471 36.2973 125.011 37.304 124.091 38.0506C123.185 38.784 121.991 39.1506 120.511 39.1506ZM132.6 30.9706H130.12V35.7706C130.12 36.184 130.213 36.484 130.4 36.6706C130.586 36.844 130.86 36.944 131.22 36.9706C131.593 36.984 132.053 36.9773 132.6 36.9506V38.8906C130.946 39.0906 129.76 38.9506 129.04 38.4706C128.32 37.9773 127.96 37.0773 127.96 35.7706V30.9706H126.12V28.8906H127.96V26.7306L130.12 26.0906V28.8906H132.6V30.9706ZM138.869 39.1506C137.402 39.1506 136.155 38.644 135.129 37.6306C134.102 36.6173 133.589 35.3706 133.589 33.8906C133.589 32.4106 134.102 31.164 135.129 30.1506C136.155 29.1373 137.402 28.6306 138.869 28.6306C140.349 28.6306 141.595 29.1373 142.609 30.1506C143.635 31.164 144.149 32.4106 144.149 33.8906C144.149 35.3706 143.635 36.6173 142.609 37.6306C141.595 38.644 140.349 39.1506 138.869 39.1506ZM136.649 36.1506C137.249 36.7506 137.989 37.0506 138.869 37.0506C139.749 37.0506 140.489 36.7506 141.089 36.1506C141.689 35.5506 141.989 34.7973 141.989 33.8906C141.989 32.984 141.689 32.2306 141.089 31.6306C140.489 31.0306 139.749 30.7306 138.869 30.7306C137.989 30.7306 137.249 31.0306 136.649 31.6306C136.049 32.2306 135.749 32.984 135.749 33.8906C135.749 34.7973 136.049 35.5506 136.649 36.1506ZM148.262 30.5706C148.808 29.3306 149.835 28.7106 151.342 28.7106V31.0506C150.515 30.9973 149.795 31.1973 149.182 31.6506C148.568 32.0906 148.262 32.824 148.262 33.8506V38.8906H146.102V28.8906H148.262V30.5706ZM154.169 34.8106C154.329 35.5706 154.696 36.1573 155.269 36.5706C155.842 36.9706 156.542 37.1706 157.369 37.1706C158.516 37.1706 159.376 36.7573 159.949 35.9306L161.729 36.9706C160.742 38.424 159.282 39.1506 157.349 39.1506C155.722 39.1506 154.409 38.6573 153.409 37.6706C152.409 36.6706 151.909 35.4106 151.909 33.8906C151.909 32.3973 152.402 31.1506 153.389 30.1506C154.376 29.1373 155.642 28.6306 157.189 28.6306C158.656 28.6306 159.856 29.144 160.789 30.1706C161.736 31.1973 162.209 32.444 162.209 33.9106C162.209 34.1373 162.182 34.4373 162.129 34.8106H154.169ZM154.149 33.0506H160.029C159.882 32.2373 159.542 31.624 159.009 31.2106C158.489 30.7973 157.876 30.5906 157.169 30.5906C156.369 30.5906 155.702 30.8106 155.169 31.2506C154.636 31.6906 154.296 32.2906 154.149 33.0506Z" fill="white"/>
<g clip-path="url(#clip0_334_6924)">
<path d="M48.2421 11.4531C50.1764 8.90366 52.8655 8.89124 52.8655 8.89124C52.8655 8.89124 53.2655 11.2882 51.3439 13.5972C49.2921 16.0627 46.9599 15.6592 46.9599 15.6592C46.9599 15.6592 46.522 13.7202 48.2421 11.4531ZM47.2059 17.3383C48.201 17.3383 50.0479 15.9704 52.4518 15.9704C56.5898 15.9704 58.2176 18.9148 58.2176 18.9148C58.2176 18.9148 55.0338 20.5427 55.0338 24.4925C55.0338 28.9483 59 30.4839 59 30.4839C59 30.4839 56.2275 38.2874 52.4826 38.2874C50.7626 38.2874 49.4254 37.1283 47.6131 37.1283C45.7663 37.1283 43.9335 38.3307 42.7398 38.3307C39.3202 38.3308 35 30.9283 35 24.9779C35 19.1235 38.6568 16.0524 42.0867 16.0524C44.3164 16.0524 46.0467 17.3383 47.2059 17.3383Z" fill="white"/>
</g>
</g>
<defs>
<filter id="filter0_d_334_6924" x="0" y="0.890625" width="202" height="59" filterUnits="userSpaceOnUse" color-interpolation-filters="sRGB">
<feFlood flood-opacity="0" result="BackgroundImageFix"/>
<feColorMatrix in="SourceAlpha" type="matrix" values="0 0 0 0 0 0 0 0 0 0 0 0 0 0 0 0 0 0 127 0" result="hardAlpha"/>
<feOffset dy="4"/>
<feGaussianBlur stdDeviation="2"/>
<feComposite in2="hardAlpha" operator="out"/>
<feColorMatrix type="matrix" values="0 0 0 0 0 0 0 0 0 0 0 0 0 0 0 0 0 0 0.25 0"/>
<feBlend mode="normal" in2="BackgroundImageFix" result="effect1_dropShadow_334_6924"/>
<feBlend mode="normal" in="SourceGraphic" in2="effect1_dropShadow_334_6924" result="shape"/>
</filter>
<clipPath id="clip0_334_6924">
<rect width="24" height="29.4406" fill="white" transform="translate(35 8.89062)"/>
</clipPath>
</defs>
</svg>
