<svg width="389" height="229" viewBox="0 0 389 229" fill="none" xmlns="http://www.w3.org/2000/svg">
<g clip-path="url(#clip0_1790_9594)">
<path fill-rule="evenodd" clip-rule="evenodd" d="M18.945 0.35257H68.1505V11.6376C68.1505 18.2576 68.2394 23.5003 68.3727 24.3444C68.506 25.1441 68.8614 26.2993 69.1502 26.8991C69.439 27.5211 70.1054 28.4986 70.6386 29.0984C71.2828 29.8092 72.127 30.4312 74.9038 31.7863L99.9175 31.8974V70.9952C99.9175 105.828 99.8731 110.182 99.5621 110.937C99.3844 111.382 98.9623 112.048 98.6291 112.381C98.2959 112.737 97.6516 113.203 97.2073 113.447C96.3854 113.847 95.2969 113.87 18.6118 113.87L17.4566 113.136C16.5903 112.603 16.1238 112.115 15.1685 110.204L15.1019 57.7775C15.0575 21.5232 15.1241 5.01765 15.2796 4.24014C15.4129 3.61813 15.7683 2.77397 16.1016 2.32968C16.4126 1.88538 17.1901 1.26337 17.8121 0.930151L18.945 0.35257ZM41.0486 42.205C38.916 44.3598 37.05 46.1148 36.9389 46.1148C36.8056 46.1148 36.2058 45.6261 35.606 45.0263C34.9174 44.3821 34.1399 43.8711 33.6067 43.7156C32.9403 43.5379 32.4738 43.5379 31.8295 43.7156C31.3408 43.8489 30.6744 44.2266 30.3634 44.5376C30.0302 44.8708 29.6747 45.515 29.5414 46.0037C29.4081 46.4925 29.3415 47.0034 29.3859 47.1145C29.4304 47.2477 29.5192 47.6254 29.5859 47.9586C29.6747 48.3363 30.6522 49.5359 32.0961 51.0242C33.4068 52.3793 34.873 53.69 35.3172 53.9122C35.7838 54.1565 36.4502 54.3342 36.8278 54.3342C37.1833 54.3342 37.8053 54.2009 38.2052 54.0232C38.605 53.8233 41.4041 51.202 44.403 48.1808C48.8682 43.6934 49.9123 42.5382 50.0456 41.894C50.1344 41.4719 50.1344 40.7833 50.0678 40.339C50.0011 39.9169 49.7124 39.2727 49.4458 38.9172C49.157 38.5618 48.6016 38.1397 48.2018 37.9842C47.8019 37.8065 47.2021 37.6954 46.8689 37.6954C46.5357 37.6954 45.9581 37.8287 45.6026 38.0064C45.225 38.1619 43.1812 40.0724 41.0486 42.205ZM58.4205 45.8038C57.9762 46.4258 57.8207 46.9145 57.8207 47.692C57.8207 48.4251 57.954 48.9583 58.2872 49.3804C58.5316 49.7358 59.0869 50.2467 59.509 50.5133L60.2643 51.0242H83.1454C84.3228 50.2467 84.856 49.7358 85.1226 49.3804C85.4336 48.9583 85.5891 48.4251 85.5891 47.6698C85.5891 46.9145 85.4336 46.4036 85.1226 45.9815C84.856 45.6261 84.3672 45.1374 84.034 44.893C83.4565 44.4709 83.0566 44.4487 71.9715 44.4043C62.6413 44.3598 60.3532 44.4043 59.7534 44.6708C59.3535 44.8263 58.7537 45.3373 58.4205 45.8038ZM40.8709 66.1747L36.8278 70.2177C35.0285 68.4628 34.2732 67.8408 33.9844 67.6852C33.7178 67.552 33.1402 67.4409 32.7181 67.4409C32.296 67.4409 31.6518 67.5964 31.3186 67.7519C30.9854 67.9296 30.4967 68.3073 30.2079 68.5961C29.9413 68.8848 29.6303 69.5069 29.5192 69.9956C29.3859 70.5509 29.4081 71.1952 29.5414 71.6617C29.6969 72.1948 30.5633 73.2611 32.2294 74.9717C33.6067 76.349 34.984 77.6152 35.3172 77.7929C35.6505 77.9706 36.3391 78.1039 36.8278 78.1039C37.3166 78.1039 37.983 77.9706 38.3162 77.7929C38.6494 77.6152 41.3596 75.0383 44.292 72.0838C47.2465 69.107 49.779 66.4412 49.9123 66.1747C50.0456 65.8859 50.1566 65.2861 50.1566 64.8418C50.1566 64.3308 49.9567 63.7088 49.6679 63.2423C49.3791 62.8425 48.9126 62.3093 48.6016 62.1094C48.2906 61.8872 47.7352 61.6651 47.3798 61.5984C47.0022 61.5318 46.3135 61.6206 45.8248 61.7984C45.1583 62.0205 43.8921 63.1312 40.8709 66.1747ZM58.7537 67.6186C58.4205 67.9518 58.0429 68.596 57.9096 69.0626C57.7763 69.5735 57.7763 70.1955 57.9096 70.7287C58.0429 71.2174 58.4427 71.8616 58.9092 72.2837C59.3535 72.6835 60.02 73.0612 60.4198 73.1278C60.8197 73.1945 66.1734 73.2167 72.3047 73.1723C83.0344 73.1056 83.4565 73.1056 84.034 72.6613C84.3672 72.417 84.856 71.9505 85.1226 71.595C85.4336 71.1507 85.5891 70.6398 85.5891 69.8845C85.5891 69.1514 85.4336 68.6183 85.1226 68.1962C84.856 67.8408 84.3228 67.3298 83.9007 67.0632L83.1454 66.5523C64.885 66.5745 60.2643 66.6634 59.9311 66.8189C59.6201 66.93 59.0869 67.3076 58.7537 67.6186ZM40.9376 88.3005L36.9389 92.2991C35.0507 90.5664 34.2732 89.9666 33.9844 89.8555C33.7178 89.7444 33.0736 89.6556 32.5404 89.6778C32.0073 89.6778 31.2964 89.8555 30.8743 90.1221C30.4744 90.3442 30.0079 90.8774 29.808 91.2772C29.6081 91.6771 29.4526 92.388 29.4526 92.8767C29.4526 93.3654 29.6081 94.0763 29.7858 94.4317C29.9857 94.8094 31.2075 96.1645 32.5404 97.4751C33.8511 98.7858 35.2062 99.9632 35.5394 100.096C35.8726 100.23 36.5168 100.319 36.9389 100.319C37.361 100.319 37.983 100.185 38.3162 100.008C38.6494 99.8299 41.4041 97.2085 44.4253 94.1874C49.2903 89.2779 49.9123 88.567 50.0456 87.7673C50.1344 87.2786 50.1344 86.5899 50.0456 86.2123C49.9789 85.8568 49.7346 85.3015 49.5124 84.9905C49.2903 84.7017 48.6905 84.2574 48.1795 84.0575C47.6908 83.8353 47.0466 83.6798 46.7578 83.6798C46.4912 83.6798 45.9581 83.8131 45.6026 83.9908C45.225 84.1463 43.1368 86.1012 40.9376 88.3005ZM58.6871 89.8111C58.3761 90.1443 58.0206 90.8329 57.9096 91.3217C57.7318 92.0325 57.7541 92.4324 58.0206 93.1655C58.2206 93.6764 58.6427 94.3206 58.9759 94.565C59.3091 94.8094 59.9533 95.1204 60.3754 95.2537C60.8641 95.387 65.3071 95.4314 72.3047 95.3869C83.2121 95.3203 83.4565 95.3203 84.0785 94.8538C84.4117 94.6094 84.9226 94.0541 85.2114 93.632C85.5002 93.2099 85.7001 92.5657 85.7001 92.0992C85.7001 91.6771 85.5224 90.9884 85.3003 90.5664C85.1003 90.1221 84.5672 89.5445 84.1451 89.2779L83.3676 88.767C65.4626 88.7892 60.0422 88.8781 59.7534 88.9891C59.4868 89.078 58.9981 89.4556 58.6871 89.8111ZM100.162 25.1219L88.4325 25.1886C79.3467 25.233 76.5699 25.1886 76.0812 24.9664C75.7257 24.8109 75.3037 24.3666 75.1259 23.9668C74.8594 23.367 74.8149 21.2788 74.7705 11.9486C74.7483 5.72852 74.8149 0.596931 74.9038 0.508072C74.9927 0.441428 80.724 5.95067 100.162 25.1219Z" fill="#118B64"/>
</g>
<g filter="url(#filter0_bd_1790_9594)">
<rect x="54.4033" y="30" width="313" height="170" rx="14" fill="white" fill-opacity="0.85" shape-rendering="crispEdges"/>
<g opacity="0.8">
<path d="M105.003 64.1L100.883 78H98.3033L95.3833 67.48L92.2833 78L89.7233 78.02L85.7833 64.1H88.2033L91.0833 75.42L94.2033 64.1H96.7633L99.6633 75.36L102.563 64.1H105.003ZM106.124 72.44C106.124 71.3333 106.35 70.3533 106.804 69.5C107.27 68.6467 107.897 67.9867 108.684 67.52C109.484 67.04 110.364 66.8 111.324 66.8C112.19 66.8 112.944 66.9733 113.584 67.32C114.237 67.6533 114.757 68.0733 115.144 68.58V66.98H117.444V78H115.144V76.36C114.757 76.88 114.23 77.3133 113.564 77.66C112.897 78.0067 112.137 78.18 111.284 78.18C110.337 78.18 109.47 77.94 108.684 77.46C107.897 76.9667 107.27 76.2867 106.804 75.42C106.35 74.54 106.124 73.5467 106.124 72.44ZM115.144 72.48C115.144 71.72 114.984 71.06 114.664 70.5C114.357 69.94 113.95 69.5133 113.444 69.22C112.937 68.9267 112.39 68.78 111.804 68.78C111.217 68.78 110.67 68.9267 110.164 69.22C109.657 69.5 109.244 69.92 108.924 70.48C108.617 71.0267 108.464 71.68 108.464 72.44C108.464 73.2 108.617 73.8667 108.924 74.44C109.244 75.0133 109.657 75.4533 110.164 75.76C110.684 76.0533 111.23 76.2 111.804 76.2C112.39 76.2 112.937 76.0533 113.444 75.76C113.95 75.4667 114.357 75.04 114.664 74.48C114.984 73.9067 115.144 73.24 115.144 72.48ZM123.098 68.84V74.94C123.098 75.3533 123.192 75.6533 123.378 75.84C123.578 76.0133 123.912 76.1 124.378 76.1H125.778V78H123.978C122.952 78 122.165 77.76 121.618 77.28C121.072 76.8 120.798 76.02 120.798 74.94V68.84H119.498V66.98H120.798V64.24H123.098V66.98H125.778V68.84H123.098ZM127.12 72.48C127.12 71.3467 127.347 70.3533 127.8 69.5C128.267 68.6333 128.907 67.9667 129.72 67.5C130.533 67.0333 131.467 66.8 132.52 66.8C133.853 66.8 134.953 67.12 135.82 67.76C136.7 68.3867 137.293 69.2867 137.6 70.46H135.14C134.94 69.9133 134.62 69.4867 134.18 69.18C133.74 68.8733 133.187 68.72 132.52 68.72C131.587 68.72 130.84 69.0533 130.28 69.72C129.733 70.3733 129.46 71.2933 129.46 72.48C129.46 73.6667 129.733 74.5933 130.28 75.26C130.84 75.9267 131.587 76.26 132.52 76.26C133.84 76.26 134.713 75.68 135.14 74.52H137.6C137.28 75.64 136.68 76.5333 135.8 77.2C134.92 77.8533 133.827 78.18 132.52 78.18C131.467 78.18 130.533 77.9467 129.72 77.48C128.907 77 128.267 76.3333 127.8 75.48C127.347 74.6133 127.12 73.6133 127.12 72.48ZM145.572 66.8C146.412 66.8 147.159 66.98 147.812 67.34C148.479 67.7 148.999 68.2333 149.372 68.94C149.759 69.6467 149.952 70.5 149.952 71.5V78H147.692V71.84C147.692 70.8533 147.445 70.1 146.952 69.58C146.459 69.0467 145.785 68.78 144.932 68.78C144.079 68.78 143.399 69.0467 142.892 69.58C142.399 70.1 142.152 70.8533 142.152 71.84V78H139.872V63.2H142.152V68.26C142.539 67.7933 143.025 67.4333 143.612 67.18C144.212 66.9267 144.865 66.8 145.572 66.8ZM155.14 63.2V78H152.86V63.2H155.14ZM159.294 65.52C158.88 65.52 158.534 65.38 158.254 65.1C157.974 64.82 157.834 64.4733 157.834 64.06C157.834 63.6467 157.974 63.3 158.254 63.02C158.534 62.74 158.88 62.6 159.294 62.6C159.694 62.6 160.034 62.74 160.314 63.02C160.594 63.3 160.734 63.6467 160.734 64.06C160.734 64.4733 160.594 64.82 160.314 65.1C160.034 65.38 159.694 65.52 159.294 65.52ZM160.414 66.98V78H158.134V66.98H160.414ZM167.407 78.18C166.541 78.18 165.761 78.0267 165.067 77.72C164.387 77.4 163.847 76.9733 163.447 76.44C163.047 75.8933 162.834 75.2867 162.807 74.62H165.167C165.207 75.0867 165.427 75.48 165.827 75.8C166.241 76.1067 166.754 76.26 167.367 76.26C168.007 76.26 168.501 76.14 168.847 75.9C169.207 75.6467 169.387 75.3267 169.387 74.94C169.387 74.5267 169.187 74.22 168.787 74.02C168.401 73.82 167.781 73.6 166.927 73.36C166.101 73.1333 165.427 72.9133 164.907 72.7C164.387 72.4867 163.934 72.16 163.547 71.72C163.174 71.28 162.987 70.7 162.987 69.98C162.987 69.3933 163.161 68.86 163.507 68.38C163.854 67.8867 164.347 67.5 164.987 67.22C165.641 66.94 166.387 66.8 167.227 66.8C168.481 66.8 169.487 67.12 170.247 67.76C171.021 68.3867 171.434 69.2467 171.487 70.34H169.207C169.167 69.8467 168.967 69.4533 168.607 69.16C168.247 68.8667 167.761 68.72 167.147 68.72C166.547 68.72 166.087 68.8333 165.767 69.06C165.447 69.2867 165.287 69.5867 165.287 69.96C165.287 70.2533 165.394 70.5 165.607 70.7C165.821 70.9 166.081 71.06 166.387 71.18C166.694 71.2867 167.147 71.4267 167.747 71.6C168.547 71.8133 169.201 72.0333 169.707 72.26C170.227 72.4733 170.674 72.7933 171.047 73.22C171.421 73.6467 171.614 74.2133 171.627 74.92C171.627 75.5467 171.454 76.1067 171.107 76.6C170.761 77.0933 170.267 77.48 169.627 77.76C169.001 78.04 168.261 78.18 167.407 78.18ZM176.751 68.84V74.94C176.751 75.3533 176.844 75.6533 177.031 75.84C177.231 76.0133 177.564 76.1 178.031 76.1H179.431V78H177.631C176.604 78 175.817 77.76 175.271 77.28C174.724 76.8 174.451 76.02 174.451 74.94V68.84H173.151V66.98H174.451V64.24H176.751V66.98H179.431V68.84H176.751ZM197.828 64.1V78H195.548V71.92H189.008V78H186.728V64.1H189.008V70.06H195.548V64.1H197.828ZM210.929 72.22C210.929 72.6333 210.902 73.0067 210.849 73.34H202.429C202.496 74.22 202.822 74.9267 203.409 75.46C203.996 75.9933 204.716 76.26 205.569 76.26C206.796 76.26 207.662 75.7467 208.169 74.72H210.629C210.296 75.7333 209.689 76.5667 208.809 77.22C207.942 77.86 206.862 78.18 205.569 78.18C204.516 78.18 203.569 77.9467 202.729 77.48C201.902 77 201.249 76.3333 200.769 75.48C200.302 74.6133 200.069 73.6133 200.069 72.48C200.069 71.3467 200.296 70.3533 200.749 69.5C201.216 68.6333 201.862 67.9667 202.689 67.5C203.529 67.0333 204.489 66.8 205.569 66.8C206.609 66.8 207.536 67.0267 208.349 67.48C209.162 67.9333 209.796 68.5733 210.249 69.4C210.702 70.2133 210.929 71.1533 210.929 72.22ZM208.549 71.5C208.536 70.66 208.236 69.9867 207.649 69.48C207.062 68.9733 206.336 68.72 205.469 68.72C204.682 68.72 204.009 68.9733 203.449 69.48C202.889 69.9733 202.556 70.6467 202.449 71.5H208.549ZM212.413 72.44C212.413 71.3333 212.64 70.3533 213.093 69.5C213.56 68.6467 214.186 67.9867 214.973 67.52C215.773 67.04 216.653 66.8 217.613 66.8C218.48 66.8 219.233 66.9733 219.873 67.32C220.526 67.6533 221.046 68.0733 221.433 68.58V66.98H223.733V78H221.433V76.36C221.046 76.88 220.52 77.3133 219.853 77.66C219.186 78.0067 218.426 78.18 217.573 78.18C216.626 78.18 215.76 77.94 214.973 77.46C214.186 76.9667 213.56 76.2867 213.093 75.42C212.64 74.54 212.413 73.5467 212.413 72.44ZM221.433 72.48C221.433 71.72 221.273 71.06 220.953 70.5C220.646 69.94 220.24 69.5133 219.733 69.22C219.226 68.9267 218.68 68.78 218.093 68.78C217.506 68.78 216.96 68.9267 216.453 69.22C215.946 69.5 215.533 69.92 215.213 70.48C214.906 71.0267 214.753 71.68 214.753 72.44C214.753 73.2 214.906 73.8667 215.213 74.44C215.533 75.0133 215.946 75.4533 216.453 75.76C216.973 76.0533 217.52 76.2 218.093 76.2C218.68 76.2 219.226 76.0533 219.733 75.76C220.24 75.4667 220.646 75.04 220.953 74.48C221.273 73.9067 221.433 73.24 221.433 72.48ZM229.388 68.84V74.94C229.388 75.3533 229.481 75.6533 229.668 75.84C229.868 76.0133 230.201 76.1 230.668 76.1H232.068V78H230.268C229.241 78 228.454 77.76 227.908 77.28C227.361 76.8 227.088 76.02 227.088 74.94V68.84H225.788V66.98H227.088V64.24H229.388V66.98H232.068V68.84H229.388ZM247.509 66.8C248.376 66.8 249.149 66.98 249.829 67.34C250.522 67.7 251.062 68.2333 251.449 68.94C251.849 69.6467 252.049 70.5 252.049 71.5V78H249.789V71.84C249.789 70.8533 249.542 70.1 249.049 69.58C248.556 69.0467 247.882 68.78 247.029 68.78C246.176 68.78 245.496 69.0467 244.989 69.58C244.496 70.1 244.249 70.8533 244.249 71.84V78H241.989V71.84C241.989 70.8533 241.742 70.1 241.249 69.58C240.756 69.0467 240.082 68.78 239.229 68.78C238.376 68.78 237.696 69.0467 237.189 69.58C236.696 70.1 236.449 70.8533 236.449 71.84V78H234.169V66.98H236.449V68.24C236.822 67.7867 237.296 67.4333 237.869 67.18C238.442 66.9267 239.056 66.8 239.709 66.8C240.589 66.8 241.376 66.9867 242.069 67.36C242.762 67.7333 243.296 68.2733 243.669 68.98C244.002 68.3133 244.522 67.7867 245.229 67.4C245.936 67 246.696 66.8 247.509 66.8ZM254.19 72.44C254.19 71.3333 254.417 70.3533 254.87 69.5C255.337 68.6467 255.964 67.9867 256.75 67.52C257.55 67.04 258.43 66.8 259.39 66.8C260.257 66.8 261.01 66.9733 261.65 67.32C262.304 67.6533 262.824 68.0733 263.21 68.58V66.98H265.51V78H263.21V76.36C262.824 76.88 262.297 77.3133 261.63 77.66C260.964 78.0067 260.204 78.18 259.35 78.18C258.404 78.18 257.537 77.94 256.75 77.46C255.964 76.9667 255.337 76.2867 254.87 75.42C254.417 74.54 254.19 73.5467 254.19 72.44ZM263.21 72.48C263.21 71.72 263.05 71.06 262.73 70.5C262.424 69.94 262.017 69.5133 261.51 69.22C261.004 68.9267 260.457 68.78 259.87 68.78C259.284 68.78 258.737 68.9267 258.23 69.22C257.724 69.5 257.31 69.92 256.99 70.48C256.684 71.0267 256.53 71.68 256.53 72.44C256.53 73.2 256.684 73.8667 256.99 74.44C257.31 75.0133 257.724 75.4533 258.23 75.76C258.75 76.0533 259.297 76.2 259.87 76.2C260.457 76.2 261.004 76.0533 261.51 75.76C262.017 75.4667 262.424 75.04 262.73 74.48C263.05 73.9067 263.21 73.24 263.21 72.48ZM270.785 68.6C271.172 68.0933 271.698 67.6667 272.365 67.32C273.032 66.9733 273.785 66.8 274.625 66.8C275.585 66.8 276.458 67.04 277.245 67.52C278.045 67.9867 278.672 68.6467 279.125 69.5C279.578 70.3533 279.805 71.3333 279.805 72.44C279.805 73.5467 279.578 74.54 279.125 75.42C278.672 76.2867 278.045 76.9667 277.245 77.46C276.458 77.94 275.585 78.18 274.625 78.18C273.785 78.18 273.038 78.0133 272.385 77.68C271.732 77.3333 271.198 76.9067 270.785 76.4V83.24H268.505V66.98H270.785V68.6ZM277.485 72.44C277.485 71.68 277.325 71.0267 277.005 70.48C276.698 69.92 276.285 69.5 275.765 69.22C275.258 68.9267 274.712 68.78 274.125 68.78C273.552 68.78 273.005 68.9267 272.485 69.22C271.978 69.5133 271.565 69.94 271.245 70.5C270.938 71.06 270.785 71.72 270.785 72.48C270.785 73.24 270.938 73.9067 271.245 74.48C271.565 75.04 271.978 75.4667 272.485 75.76C273.005 76.0533 273.552 76.2 274.125 76.2C274.712 76.2 275.258 76.0533 275.765 75.76C276.285 75.4533 276.698 75.0133 277.005 74.44C277.325 73.8667 277.485 73.2 277.485 72.44Z" fill="#121212"/>
</g>
<path d="M86.0913 113.416C86.0913 112.328 86.3367 111.352 86.8273 110.488C87.318 109.613 87.9847 108.931 88.8273 108.44C89.6807 107.949 90.6247 107.704 91.6593 107.704C92.8753 107.704 93.9367 107.997 94.8433 108.584C95.75 109.171 96.4113 110.003 96.8273 111.08H95.0833C94.774 110.408 94.326 109.891 93.7393 109.528C93.1633 109.165 92.47 108.984 91.6593 108.984C90.8807 108.984 90.182 109.165 89.5633 109.528C88.9447 109.891 88.4593 110.408 88.1073 111.08C87.7553 111.741 87.5793 112.52 87.5793 113.416C87.5793 114.301 87.7553 115.08 88.1073 115.752C88.4593 116.413 88.9447 116.925 89.5633 117.288C90.182 117.651 90.8807 117.832 91.6593 117.832C92.47 117.832 93.1633 117.656 93.7393 117.304C94.326 116.941 94.774 116.424 95.0833 115.752H96.8273C96.4113 116.819 95.75 117.645 94.8433 118.232C93.9367 118.808 92.8753 119.096 91.6593 119.096C90.6247 119.096 89.6807 118.856 88.8273 118.376C87.9847 117.885 87.318 117.208 86.8273 116.344C86.3367 115.48 86.0913 114.504 86.0913 113.416ZM106.771 110.232V119H105.315V117.704C105.037 118.152 104.648 118.504 104.147 118.76C103.656 119.005 103.112 119.128 102.515 119.128C101.832 119.128 101.219 118.989 100.675 118.712C100.131 118.424 99.6987 117.997 99.3787 117.432C99.0694 116.867 98.9147 116.179 98.9147 115.368V110.232H100.355V115.176C100.355 116.04 100.573 116.707 101.011 117.176C101.448 117.635 102.045 117.864 102.803 117.864C103.581 117.864 104.195 117.624 104.643 117.144C105.091 116.664 105.315 115.965 105.315 115.048V110.232H106.771ZM112.333 119.144C111.661 119.144 111.058 119.032 110.525 118.808C109.992 118.573 109.57 118.253 109.261 117.848C108.952 117.432 108.781 116.957 108.749 116.424H110.253C110.296 116.861 110.498 117.219 110.861 117.496C111.234 117.773 111.72 117.912 112.317 117.912C112.872 117.912 113.309 117.789 113.629 117.544C113.949 117.299 114.109 116.989 114.109 116.616C114.109 116.232 113.938 115.949 113.597 115.768C113.256 115.576 112.728 115.389 112.013 115.208C111.362 115.037 110.829 114.867 110.413 114.696C110.008 114.515 109.656 114.253 109.357 113.912C109.069 113.56 108.925 113.101 108.925 112.536C108.925 112.088 109.058 111.677 109.325 111.304C109.592 110.931 109.97 110.637 110.461 110.424C110.952 110.2 111.512 110.088 112.141 110.088C113.112 110.088 113.896 110.333 114.493 110.824C115.09 111.315 115.41 111.987 115.453 112.84H113.997C113.965 112.381 113.778 112.013 113.437 111.736C113.106 111.459 112.658 111.32 112.093 111.32C111.57 111.32 111.154 111.432 110.845 111.656C110.536 111.88 110.381 112.173 110.381 112.536C110.381 112.824 110.472 113.064 110.653 113.256C110.845 113.437 111.08 113.587 111.357 113.704C111.645 113.811 112.04 113.933 112.541 114.072C113.17 114.243 113.682 114.413 114.077 114.584C114.472 114.744 114.808 114.989 115.085 115.32C115.373 115.651 115.522 116.083 115.533 116.616C115.533 117.096 115.4 117.528 115.133 117.912C114.866 118.296 114.488 118.6 113.997 118.824C113.517 119.037 112.962 119.144 112.333 119.144ZM119.364 111.432V116.6C119.364 117.027 119.455 117.331 119.636 117.512C119.818 117.683 120.132 117.768 120.58 117.768H121.652V119H120.34C119.53 119 118.922 118.813 118.516 118.44C118.111 118.067 117.908 117.453 117.908 116.6V111.432H116.772V110.232H117.908V108.024H119.364V110.232H121.652V111.432H119.364ZM127.241 119.144C126.419 119.144 125.673 118.957 125.001 118.584C124.339 118.211 123.817 117.683 123.433 117C123.059 116.307 122.873 115.507 122.873 114.6C122.873 113.704 123.065 112.915 123.449 112.232C123.843 111.539 124.377 111.011 125.049 110.648C125.721 110.275 126.473 110.088 127.305 110.088C128.137 110.088 128.889 110.275 129.561 110.648C130.233 111.011 130.761 111.533 131.145 112.216C131.539 112.899 131.737 113.693 131.737 114.6C131.737 115.507 131.534 116.307 131.129 117C130.734 117.683 130.195 118.211 129.513 118.584C128.83 118.957 128.073 119.144 127.241 119.144ZM127.241 117.864C127.763 117.864 128.254 117.741 128.713 117.496C129.171 117.251 129.539 116.883 129.817 116.392C130.105 115.901 130.249 115.304 130.249 114.6C130.249 113.896 130.11 113.299 129.833 112.808C129.555 112.317 129.193 111.955 128.745 111.72C128.297 111.475 127.811 111.352 127.289 111.352C126.755 111.352 126.265 111.475 125.817 111.72C125.379 111.955 125.027 112.317 124.761 112.808C124.494 113.299 124.361 113.896 124.361 114.6C124.361 115.315 124.489 115.917 124.745 116.408C125.011 116.899 125.363 117.267 125.801 117.512C126.238 117.747 126.718 117.864 127.241 117.864ZM144.195 110.072C144.878 110.072 145.486 110.216 146.019 110.504C146.552 110.781 146.974 111.203 147.283 111.768C147.592 112.333 147.747 113.021 147.747 113.832V119H146.307V114.04C146.307 113.165 146.088 112.499 145.651 112.04C145.224 111.571 144.643 111.336 143.907 111.336C143.15 111.336 142.547 111.581 142.099 112.072C141.651 112.552 141.427 113.251 141.427 114.168V119H139.987V114.04C139.987 113.165 139.768 112.499 139.331 112.04C138.904 111.571 138.323 111.336 137.587 111.336C136.83 111.336 136.227 111.581 135.779 112.072C135.331 112.552 135.107 113.251 135.107 114.168V119H133.651V110.232H135.107V111.496C135.395 111.037 135.779 110.685 136.259 110.44C136.75 110.195 137.288 110.072 137.875 110.072C138.611 110.072 139.262 110.237 139.827 110.568C140.392 110.899 140.814 111.384 141.091 112.024C141.336 111.405 141.742 110.925 142.307 110.584C142.872 110.243 143.502 110.072 144.195 110.072ZM150.887 108.808C150.61 108.808 150.375 108.712 150.183 108.52C149.991 108.328 149.895 108.093 149.895 107.816C149.895 107.539 149.991 107.304 150.183 107.112C150.375 106.92 150.61 106.824 150.887 106.824C151.154 106.824 151.378 106.92 151.559 107.112C151.751 107.304 151.847 107.539 151.847 107.816C151.847 108.093 151.751 108.328 151.559 108.52C151.378 108.712 151.154 108.808 150.887 108.808ZM151.591 110.232V119H150.135V110.232H151.591ZM157.177 119.144C156.505 119.144 155.902 119.032 155.369 118.808C154.835 118.573 154.414 118.253 154.105 117.848C153.795 117.432 153.625 116.957 153.593 116.424H155.097C155.139 116.861 155.342 117.219 155.705 117.496C156.078 117.773 156.563 117.912 157.161 117.912C157.715 117.912 158.153 117.789 158.473 117.544C158.793 117.299 158.953 116.989 158.953 116.616C158.953 116.232 158.782 115.949 158.441 115.768C158.099 115.576 157.571 115.389 156.857 115.208C156.206 115.037 155.673 114.867 155.257 114.696C154.851 114.515 154.499 114.253 154.201 113.912C153.913 113.56 153.769 113.101 153.769 112.536C153.769 112.088 153.902 111.677 154.169 111.304C154.435 110.931 154.814 110.637 155.305 110.424C155.795 110.2 156.355 110.088 156.985 110.088C157.955 110.088 158.739 110.333 159.337 110.824C159.934 111.315 160.254 111.987 160.297 112.84H158.841C158.809 112.381 158.622 112.013 158.281 111.736C157.95 111.459 157.502 111.32 156.937 111.32C156.414 111.32 155.998 111.432 155.689 111.656C155.379 111.88 155.225 112.173 155.225 112.536C155.225 112.824 155.315 113.064 155.497 113.256C155.689 113.437 155.923 113.587 156.201 113.704C156.489 113.811 156.883 113.933 157.385 114.072C158.014 114.243 158.526 114.413 158.921 114.584C159.315 114.744 159.651 114.989 159.929 115.32C160.217 115.651 160.366 116.083 160.377 116.616C160.377 117.096 160.243 117.528 159.977 117.912C159.71 118.296 159.331 118.6 158.841 118.824C158.361 119.037 157.806 119.144 157.177 119.144ZM170.432 114.28C170.432 114.557 170.416 114.851 170.384 115.16H163.376C163.43 116.024 163.723 116.701 164.256 117.192C164.8 117.672 165.456 117.912 166.224 117.912C166.854 117.912 167.376 117.768 167.792 117.48C168.219 117.181 168.518 116.787 168.688 116.296H170.256C170.022 117.139 169.552 117.827 168.848 118.36C168.144 118.883 167.27 119.144 166.224 119.144C165.392 119.144 164.646 118.957 163.984 118.584C163.334 118.211 162.822 117.683 162.448 117C162.075 116.307 161.888 115.507 161.888 114.6C161.888 113.693 162.07 112.899 162.432 112.216C162.795 111.533 163.302 111.011 163.952 110.648C164.614 110.275 165.371 110.088 166.224 110.088C167.056 110.088 167.792 110.269 168.432 110.632C169.072 110.995 169.563 111.496 169.904 112.136C170.256 112.765 170.432 113.48 170.432 114.28ZM168.928 113.976C168.928 113.421 168.806 112.947 168.56 112.552C168.315 112.147 167.979 111.843 167.552 111.64C167.136 111.427 166.672 111.32 166.16 111.32C165.424 111.32 164.795 111.555 164.272 112.024C163.76 112.493 163.467 113.144 163.392 113.976H168.928ZM178.396 111.432V116.6C178.396 117.027 178.486 117.331 178.668 117.512C178.849 117.683 179.164 117.768 179.612 117.768H180.684V119H179.372C178.561 119 177.953 118.813 177.548 118.44C177.142 118.067 176.94 117.453 176.94 116.6V111.432H175.804V110.232H176.94V108.024H178.396V110.232H180.684V111.432H178.396ZM186.8 110.072C187.461 110.072 188.058 110.216 188.592 110.504C189.125 110.781 189.541 111.203 189.84 111.768C190.149 112.333 190.304 113.021 190.304 113.832V119H188.864V114.04C188.864 113.165 188.645 112.499 188.208 112.04C187.77 111.571 187.173 111.336 186.416 111.336C185.648 111.336 185.034 111.576 184.576 112.056C184.128 112.536 183.904 113.235 183.904 114.152V119H182.448V107.16H183.904V111.48C184.192 111.032 184.586 110.685 185.088 110.44C185.6 110.195 186.17 110.072 186.8 110.072ZM200.682 114.28C200.682 114.557 200.666 114.851 200.634 115.16H193.626C193.68 116.024 193.973 116.701 194.506 117.192C195.05 117.672 195.706 117.912 196.474 117.912C197.104 117.912 197.626 117.768 198.042 117.48C198.469 117.181 198.768 116.787 198.938 116.296H200.506C200.272 117.139 199.802 117.827 199.098 118.36C198.394 118.883 197.52 119.144 196.474 119.144C195.642 119.144 194.896 118.957 194.234 118.584C193.584 118.211 193.072 117.683 192.698 117C192.325 116.307 192.138 115.507 192.138 114.6C192.138 113.693 192.32 112.899 192.682 112.216C193.045 111.533 193.552 111.011 194.202 110.648C194.864 110.275 195.621 110.088 196.474 110.088C197.306 110.088 198.042 110.269 198.682 110.632C199.322 110.995 199.813 111.496 200.154 112.136C200.506 112.765 200.682 113.48 200.682 114.28ZM199.178 113.976C199.178 113.421 199.056 112.947 198.81 112.552C198.565 112.147 198.229 111.843 197.802 111.64C197.386 111.427 196.922 111.32 196.41 111.32C195.674 111.32 195.045 111.555 194.522 112.024C194.01 112.493 193.717 113.144 193.642 113.976H199.178ZM218.55 110.232L215.814 119H214.31L212.198 112.04L210.086 119H208.582L205.83 110.232H207.318L209.334 117.592L211.51 110.232H212.998L215.126 117.608L217.11 110.232H218.55ZM219.451 114.584C219.451 113.688 219.632 112.904 219.995 112.232C220.357 111.549 220.853 111.021 221.483 110.648C222.123 110.275 222.832 110.088 223.611 110.088C224.379 110.088 225.045 110.253 225.611 110.584C226.176 110.915 226.597 111.331 226.875 111.832V110.232H228.347V119H226.875V117.368C226.587 117.88 226.155 118.307 225.579 118.648C225.013 118.979 224.352 119.144 223.595 119.144C222.816 119.144 222.112 118.952 221.483 118.568C220.853 118.184 220.357 117.645 219.995 116.952C219.632 116.259 219.451 115.469 219.451 114.584ZM226.875 114.6C226.875 113.939 226.741 113.363 226.475 112.872C226.208 112.381 225.845 112.008 225.387 111.752C224.939 111.485 224.443 111.352 223.899 111.352C223.355 111.352 222.859 111.48 222.411 111.736C221.963 111.992 221.605 112.365 221.339 112.856C221.072 113.347 220.939 113.923 220.939 114.584C220.939 115.256 221.072 115.843 221.339 116.344C221.605 116.835 221.963 117.213 222.411 117.48C222.859 117.736 223.355 117.864 223.899 117.864C224.443 117.864 224.939 117.736 225.387 117.48C225.845 117.213 226.208 116.835 226.475 116.344C226.741 115.843 226.875 115.261 226.875 114.6ZM232.583 111.432V116.6C232.583 117.027 232.674 117.331 232.855 117.512C233.037 117.683 233.351 117.768 233.799 117.768H234.871V119H233.559C232.749 119 232.141 118.813 231.735 118.44C231.33 118.067 231.127 117.453 231.127 116.6V111.432H229.991V110.232H231.127V108.024H232.583V110.232H234.871V111.432H232.583ZM236.091 114.6C236.091 113.693 236.273 112.904 236.635 112.232C236.998 111.549 237.499 111.021 238.139 110.648C238.79 110.275 239.531 110.088 240.363 110.088C241.441 110.088 242.326 110.349 243.019 110.872C243.723 111.395 244.187 112.12 244.411 113.048H242.843C242.694 112.515 242.401 112.093 241.963 111.784C241.537 111.475 241.003 111.32 240.363 111.32C239.531 111.32 238.859 111.608 238.347 112.184C237.835 112.749 237.579 113.555 237.579 114.6C237.579 115.656 237.835 116.472 238.347 117.048C238.859 117.624 239.531 117.912 240.363 117.912C241.003 117.912 241.537 117.763 241.963 117.464C242.39 117.165 242.683 116.739 242.843 116.184H244.411C244.177 117.08 243.707 117.8 243.003 118.344C242.299 118.877 241.419 119.144 240.363 119.144C239.531 119.144 238.79 118.957 238.139 118.584C237.499 118.211 236.998 117.683 236.635 117C236.273 116.317 236.091 115.517 236.091 114.6ZM250.706 110.072C251.367 110.072 251.965 110.216 252.498 110.504C253.031 110.781 253.447 111.203 253.746 111.768C254.055 112.333 254.21 113.021 254.21 113.832V119H252.77V114.04C252.77 113.165 252.551 112.499 252.114 112.04C251.677 111.571 251.079 111.336 250.322 111.336C249.554 111.336 248.941 111.576 248.482 112.056C248.034 112.536 247.81 113.235 247.81 114.152V119H246.354V107.16H247.81V111.48C248.098 111.032 248.493 110.685 248.994 110.44C249.506 110.195 250.077 110.072 250.706 110.072ZM258.044 107.16V119H256.588V107.16H258.044ZM261.278 108.808C261.001 108.808 260.766 108.712 260.574 108.52C260.382 108.328 260.286 108.093 260.286 107.816C260.286 107.539 260.382 107.304 260.574 107.112C260.766 106.92 261.001 106.824 261.278 106.824C261.545 106.824 261.769 106.92 261.95 107.112C262.142 107.304 262.238 107.539 262.238 107.816C262.238 108.093 262.142 108.328 261.95 108.52C261.769 108.712 261.545 108.808 261.278 108.808ZM261.982 110.232V119H260.526V110.232H261.982ZM267.567 119.144C266.895 119.144 266.293 119.032 265.759 118.808C265.226 118.573 264.805 118.253 264.495 117.848C264.186 117.432 264.015 116.957 263.983 116.424H265.487C265.53 116.861 265.733 117.219 266.095 117.496C266.469 117.773 266.954 117.912 267.551 117.912C268.106 117.912 268.543 117.789 268.863 117.544C269.183 117.299 269.343 116.989 269.343 116.616C269.343 116.232 269.173 115.949 268.831 115.768C268.49 115.576 267.962 115.389 267.247 115.208C266.597 115.037 266.063 114.867 265.647 114.696C265.242 114.515 264.89 114.253 264.591 113.912C264.303 113.56 264.159 113.101 264.159 112.536C264.159 112.088 264.293 111.677 264.559 111.304C264.826 110.931 265.205 110.637 265.695 110.424C266.186 110.2 266.746 110.088 267.375 110.088C268.346 110.088 269.13 110.333 269.727 110.824C270.325 111.315 270.645 111.987 270.687 112.84H269.231C269.199 112.381 269.013 112.013 268.671 111.736C268.341 111.459 267.893 111.32 267.327 111.32C266.805 111.32 266.389 111.432 266.079 111.656C265.77 111.88 265.615 112.173 265.615 112.536C265.615 112.824 265.706 113.064 265.887 113.256C266.079 113.437 266.314 113.587 266.591 113.704C266.879 113.811 267.274 113.933 267.775 114.072C268.405 114.243 268.917 114.413 269.311 114.584C269.706 114.744 270.042 114.989 270.319 115.32C270.607 115.651 270.757 116.083 270.767 116.616C270.767 117.096 270.634 117.528 270.367 117.912C270.101 118.296 269.722 118.6 269.231 118.824C268.751 119.037 268.197 119.144 267.567 119.144ZM274.599 111.432V116.6C274.599 117.027 274.689 117.331 274.871 117.512C275.052 117.683 275.367 117.768 275.815 117.768H276.887V119H275.575C274.764 119 274.156 118.813 273.751 118.44C273.345 118.067 273.143 117.453 273.143 116.6V111.432H272.007V110.232H273.143V108.024H274.599V110.232H276.887V111.432H274.599ZM98.3153 134.232L95.5793 143H94.0753L91.9633 136.04L89.8513 143H88.3473L85.5953 134.232H87.0833L89.0993 141.592L91.2753 134.232H92.7633L94.8913 141.608L96.8753 134.232H98.3153ZM100.512 132.808C100.235 132.808 100 132.712 99.8083 132.52C99.6163 132.328 99.5203 132.093 99.5203 131.816C99.5203 131.539 99.6163 131.304 99.8083 131.112C100 130.92 100.235 130.824 100.512 130.824C100.779 130.824 101.003 130.92 101.184 131.112C101.376 131.304 101.472 131.539 101.472 131.816C101.472 132.093 101.376 132.328 101.184 132.52C101.003 132.712 100.779 132.808 100.512 132.808ZM101.216 134.232V143H99.7603V134.232H101.216ZM107.97 134.072C109.036 134.072 109.9 134.397 110.562 135.048C111.223 135.688 111.554 136.616 111.554 137.832V143H110.114V138.04C110.114 137.165 109.895 136.499 109.458 136.04C109.02 135.571 108.423 135.336 107.666 135.336C106.898 135.336 106.284 135.576 105.826 136.056C105.378 136.536 105.154 137.235 105.154 138.152V143H103.698V134.232H105.154V135.48C105.442 135.032 105.831 134.685 106.322 134.44C106.823 134.195 107.372 134.072 107.97 134.072ZM113.388 138.584C113.388 137.688 113.57 136.904 113.932 136.232C114.295 135.549 114.791 135.021 115.42 134.648C116.06 134.275 116.775 134.088 117.564 134.088C118.247 134.088 118.882 134.248 119.468 134.568C120.055 134.877 120.503 135.288 120.812 135.8V131.16H122.284V143H120.812V141.352C120.524 141.875 120.098 142.307 119.532 142.648C118.967 142.979 118.306 143.144 117.548 143.144C116.77 143.144 116.06 142.952 115.42 142.568C114.791 142.184 114.295 141.645 113.932 140.952C113.57 140.259 113.388 139.469 113.388 138.584ZM120.812 138.6C120.812 137.939 120.679 137.363 120.412 136.872C120.146 136.381 119.783 136.008 119.324 135.752C118.876 135.485 118.38 135.352 117.836 135.352C117.292 135.352 116.796 135.48 116.348 135.736C115.9 135.992 115.543 136.365 115.276 136.856C115.01 137.347 114.876 137.923 114.876 138.584C114.876 139.256 115.01 139.843 115.276 140.344C115.543 140.835 115.9 141.213 116.348 141.48C116.796 141.736 117.292 141.864 117.836 141.864C118.38 141.864 118.876 141.736 119.324 141.48C119.783 141.213 120.146 140.835 120.412 140.344C120.679 139.843 120.812 139.261 120.812 138.6ZM128.569 143.144C127.747 143.144 127.001 142.957 126.329 142.584C125.667 142.211 125.145 141.683 124.761 141C124.387 140.307 124.201 139.507 124.201 138.6C124.201 137.704 124.393 136.915 124.777 136.232C125.171 135.539 125.705 135.011 126.377 134.648C127.049 134.275 127.801 134.088 128.633 134.088C129.465 134.088 130.217 134.275 130.889 134.648C131.561 135.011 132.089 135.533 132.473 136.216C132.867 136.899 133.065 137.693 133.065 138.6C133.065 139.507 132.862 140.307 132.457 141C132.062 141.683 131.523 142.211 130.841 142.584C130.158 142.957 129.401 143.144 128.569 143.144ZM128.569 141.864C129.091 141.864 129.582 141.741 130.041 141.496C130.499 141.251 130.867 140.883 131.145 140.392C131.433 139.901 131.577 139.304 131.577 138.6C131.577 137.896 131.438 137.299 131.161 136.808C130.883 136.317 130.521 135.955 130.073 135.72C129.625 135.475 129.139 135.352 128.617 135.352C128.083 135.352 127.593 135.475 127.145 135.72C126.707 135.955 126.355 136.317 126.089 136.808C125.822 137.299 125.689 137.896 125.689 138.6C125.689 139.315 125.817 139.917 126.073 140.408C126.339 140.899 126.691 141.267 127.129 141.512C127.566 141.747 128.046 141.864 128.569 141.864ZM146.659 134.232L143.923 143H142.419L140.307 136.04L138.195 143H136.691L133.939 134.232H135.427L137.443 141.592L139.619 134.232H141.107L143.235 141.608L145.219 134.232H146.659ZM160.37 138.28C160.37 138.557 160.354 138.851 160.322 139.16H153.314C153.367 140.024 153.66 140.701 154.194 141.192C154.738 141.672 155.394 141.912 156.162 141.912C156.791 141.912 157.314 141.768 157.73 141.48C158.156 141.181 158.455 140.787 158.626 140.296H160.194C159.959 141.139 159.49 141.827 158.786 142.36C158.082 142.883 157.207 143.144 156.162 143.144C155.33 143.144 154.583 142.957 153.922 142.584C153.271 142.211 152.759 141.683 152.386 141C152.012 140.307 151.826 139.507 151.826 138.6C151.826 137.693 152.007 136.899 152.37 136.216C152.732 135.533 153.239 135.011 153.89 134.648C154.551 134.275 155.308 134.088 156.162 134.088C156.994 134.088 157.73 134.269 158.37 134.632C159.01 134.995 159.5 135.496 159.842 136.136C160.194 136.765 160.37 137.48 160.37 138.28ZM158.866 137.976C158.866 137.421 158.743 136.947 158.498 136.552C158.252 136.147 157.916 135.843 157.49 135.64C157.074 135.427 156.61 135.32 156.098 135.32C155.362 135.32 154.732 135.555 154.21 136.024C153.698 136.493 153.404 137.144 153.33 137.976H158.866ZM163.044 132.808C162.766 132.808 162.532 132.712 162.34 132.52C162.148 132.328 162.052 132.093 162.052 131.816C162.052 131.539 162.148 131.304 162.34 131.112C162.532 130.92 162.766 130.824 163.044 130.824C163.31 130.824 163.534 130.92 163.716 131.112C163.908 131.304 164.004 131.539 164.004 131.816C164.004 132.093 163.908 132.328 163.716 132.52C163.534 132.712 163.31 132.808 163.044 132.808ZM163.748 134.232V143H162.292V134.232H163.748ZM168.005 135.432V140.6C168.005 141.027 168.096 141.331 168.277 141.512C168.458 141.683 168.773 141.768 169.221 141.768H170.293V143H168.981C168.17 143 167.562 142.813 167.157 142.44C166.752 142.067 166.549 141.453 166.549 140.6V135.432H165.413V134.232H166.549V132.024H168.005V134.232H170.293V135.432H168.005ZM176.409 134.072C177.071 134.072 177.668 134.216 178.201 134.504C178.735 134.781 179.151 135.203 179.449 135.768C179.759 136.333 179.913 137.021 179.913 137.832V143H178.473V138.04C178.473 137.165 178.255 136.499 177.817 136.04C177.38 135.571 176.783 135.336 176.025 135.336C175.257 135.336 174.644 135.576 174.185 136.056C173.737 136.536 173.513 137.235 173.513 138.152V143H172.057V131.16H173.513V135.48C173.801 135.032 174.196 134.685 174.697 134.44C175.209 134.195 175.78 134.072 176.409 134.072ZM190.292 138.28C190.292 138.557 190.276 138.851 190.244 139.16H183.236C183.289 140.024 183.582 140.701 184.116 141.192C184.66 141.672 185.316 141.912 186.084 141.912C186.713 141.912 187.236 141.768 187.652 141.48C188.078 141.181 188.377 140.787 188.548 140.296H190.116C189.881 141.139 189.412 141.827 188.708 142.36C188.004 142.883 187.129 143.144 186.084 143.144C185.252 143.144 184.505 142.957 183.844 142.584C183.193 142.211 182.681 141.683 182.308 141C181.934 140.307 181.748 139.507 181.748 138.6C181.748 137.693 181.929 136.899 182.292 136.216C182.654 135.533 183.161 135.011 183.812 134.648C184.473 134.275 185.23 134.088 186.084 134.088C186.916 134.088 187.652 134.269 188.292 134.632C188.932 134.995 189.422 135.496 189.764 136.136C190.116 136.765 190.292 137.48 190.292 138.28ZM188.788 137.976C188.788 137.421 188.665 136.947 188.42 136.552C188.174 136.147 187.838 135.843 187.412 135.64C186.996 135.427 186.532 135.32 186.02 135.32C185.284 135.32 184.654 135.555 184.132 136.024C183.62 136.493 183.326 137.144 183.252 137.976H188.788ZM193.669 135.656C193.925 135.155 194.288 134.765 194.757 134.488C195.237 134.211 195.819 134.072 196.501 134.072V135.576H196.117C194.485 135.576 193.669 136.461 193.669 138.232V143H192.213V134.232H193.669V135.656ZM203.2 132.808C202.922 132.808 202.688 132.712 202.496 132.52C202.304 132.328 202.208 132.093 202.208 131.816C202.208 131.539 202.304 131.304 202.496 131.112C202.688 130.92 202.922 130.824 203.2 130.824C203.466 130.824 203.69 130.92 203.872 131.112C204.064 131.304 204.16 131.539 204.16 131.816C204.16 132.093 204.064 132.328 203.872 132.52C203.69 132.712 203.466 132.808 203.2 132.808ZM203.904 134.232V143H202.448V134.232H203.904ZM210.657 134.072C211.724 134.072 212.588 134.397 213.249 135.048C213.911 135.688 214.241 136.616 214.241 137.832V143H212.801V138.04C212.801 137.165 212.583 136.499 212.145 136.04C211.708 135.571 211.111 135.336 210.353 135.336C209.585 135.336 208.972 135.576 208.513 136.056C208.065 136.536 207.841 137.235 207.841 138.152V143H206.385V134.232H207.841V135.48C208.129 135.032 208.519 134.685 209.009 134.44C209.511 134.195 210.06 134.072 210.657 134.072ZM220.341 138.584C220.341 137.688 220.523 136.904 220.885 136.232C221.248 135.549 221.744 135.021 222.373 134.648C223.013 134.275 223.723 134.088 224.501 134.088C225.269 134.088 225.936 134.253 226.501 134.584C227.067 134.915 227.488 135.331 227.765 135.832V134.232H229.237V143H227.765V141.368C227.477 141.88 227.045 142.307 226.469 142.648C225.904 142.979 225.243 143.144 224.485 143.144C223.707 143.144 223.003 142.952 222.373 142.568C221.744 142.184 221.248 141.645 220.885 140.952C220.523 140.259 220.341 139.469 220.341 138.584ZM227.765 138.6C227.765 137.939 227.632 137.363 227.365 136.872C227.099 136.381 226.736 136.008 226.277 135.752C225.829 135.485 225.333 135.352 224.789 135.352C224.245 135.352 223.749 135.48 223.301 135.736C222.853 135.992 222.496 136.365 222.229 136.856C221.963 137.347 221.829 137.923 221.829 138.584C221.829 139.256 221.963 139.843 222.229 140.344C222.496 140.835 222.853 141.213 223.301 141.48C223.749 141.736 224.245 141.864 224.789 141.864C225.333 141.864 225.829 141.736 226.277 141.48C226.736 141.213 227.099 140.835 227.365 140.344C227.632 139.843 227.765 139.261 227.765 138.6ZM240.315 134.072C240.977 134.072 241.574 134.216 242.107 134.504C242.641 134.781 243.057 135.203 243.355 135.768C243.665 136.333 243.819 137.021 243.819 137.832V143H242.379V138.04C242.379 137.165 242.161 136.499 241.723 136.04C241.286 135.571 240.689 135.336 239.931 135.336C239.163 135.336 238.55 135.576 238.091 136.056C237.643 136.536 237.419 137.235 237.419 138.152V143H235.963V131.16H237.419V135.48C237.707 135.032 238.102 134.685 238.603 134.44C239.115 134.195 239.686 134.072 240.315 134.072ZM254.198 138.28C254.198 138.557 254.182 138.851 254.15 139.16H247.142C247.195 140.024 247.488 140.701 248.022 141.192C248.566 141.672 249.222 141.912 249.99 141.912C250.619 141.912 251.142 141.768 251.558 141.48C251.984 141.181 252.283 140.787 252.454 140.296H254.022C253.787 141.139 253.318 141.827 252.614 142.36C251.91 142.883 251.035 143.144 249.99 143.144C249.158 143.144 248.411 142.957 247.75 142.584C247.099 142.211 246.587 141.683 246.214 141C245.84 140.307 245.654 139.507 245.654 138.6C245.654 137.693 245.835 136.899 246.198 136.216C246.56 135.533 247.067 135.011 247.718 134.648C248.379 134.275 249.136 134.088 249.99 134.088C250.822 134.088 251.558 134.269 252.198 134.632C252.838 134.995 253.328 135.496 253.67 136.136C254.022 136.765 254.198 137.48 254.198 138.28ZM252.694 137.976C252.694 137.421 252.571 136.947 252.326 136.552C252.08 136.147 251.744 135.843 251.318 135.64C250.902 135.427 250.438 135.32 249.926 135.32C249.19 135.32 248.56 135.555 248.038 136.024C247.526 136.493 247.232 137.144 247.158 137.976H252.694ZM255.576 138.584C255.576 137.688 255.757 136.904 256.12 136.232C256.482 135.549 256.978 135.021 257.608 134.648C258.248 134.275 258.957 134.088 259.736 134.088C260.504 134.088 261.17 134.253 261.736 134.584C262.301 134.915 262.722 135.331 263 135.832V134.232H264.472V143H263V141.368C262.712 141.88 262.28 142.307 261.704 142.648C261.138 142.979 260.477 143.144 259.72 143.144C258.941 143.144 258.237 142.952 257.608 142.568C256.978 142.184 256.482 141.645 256.12 140.952C255.757 140.259 255.576 139.469 255.576 138.584ZM263 138.6C263 137.939 262.866 137.363 262.6 136.872C262.333 136.381 261.97 136.008 261.512 135.752C261.064 135.485 260.568 135.352 260.024 135.352C259.48 135.352 258.984 135.48 258.536 135.736C258.088 135.992 257.73 136.365 257.464 136.856C257.197 137.347 257.064 137.923 257.064 138.584C257.064 139.256 257.197 139.843 257.464 140.344C257.73 140.835 258.088 141.213 258.536 141.48C258.984 141.736 259.48 141.864 260.024 141.864C260.568 141.864 261.064 141.736 261.512 141.48C261.97 141.213 262.333 140.835 262.6 140.344C262.866 139.843 263 139.261 263 138.6ZM268.708 135.432V140.6C268.708 141.027 268.799 141.331 268.98 141.512C269.162 141.683 269.476 141.768 269.924 141.768H270.996V143H269.684C268.874 143 268.266 142.813 267.86 142.44C267.455 142.067 267.252 141.453 267.252 140.6V135.432H266.116V134.232H267.252V132.024H268.708V134.232H270.996V135.432H268.708ZM283.304 134.072C283.987 134.072 284.595 134.216 285.128 134.504C285.662 134.781 286.083 135.203 286.392 135.768C286.702 136.333 286.856 137.021 286.856 137.832V143H285.416V138.04C285.416 137.165 285.198 136.499 284.76 136.04C284.334 135.571 283.752 135.336 283.016 135.336C282.259 135.336 281.656 135.581 281.208 136.072C280.76 136.552 280.536 137.251 280.536 138.168V143H279.096V138.04C279.096 137.165 278.878 136.499 278.44 136.04C278.014 135.571 277.432 135.336 276.696 135.336C275.939 135.336 275.336 135.581 274.888 136.072C274.44 136.552 274.216 137.251 274.216 138.168V143H272.76V134.232H274.216V135.496C274.504 135.037 274.888 134.685 275.368 134.44C275.859 134.195 276.398 134.072 276.984 134.072C277.72 134.072 278.371 134.237 278.936 134.568C279.502 134.899 279.923 135.384 280.2 136.024C280.446 135.405 280.851 134.925 281.416 134.584C281.982 134.243 282.611 134.072 283.304 134.072ZM288.701 138.584C288.701 137.688 288.882 136.904 289.245 136.232C289.607 135.549 290.103 135.021 290.733 134.648C291.373 134.275 292.082 134.088 292.861 134.088C293.629 134.088 294.295 134.253 294.861 134.584C295.426 134.915 295.847 135.331 296.125 135.832V134.232H297.597V143H296.125V141.368C295.837 141.88 295.405 142.307 294.829 142.648C294.263 142.979 293.602 143.144 292.845 143.144C292.066 143.144 291.362 142.952 290.733 142.568C290.103 142.184 289.607 141.645 289.245 140.952C288.882 140.259 288.701 139.469 288.701 138.584ZM296.125 138.6C296.125 137.939 295.991 137.363 295.725 136.872C295.458 136.381 295.095 136.008 294.637 135.752C294.189 135.485 293.693 135.352 293.149 135.352C292.605 135.352 292.109 135.48 291.661 135.736C291.213 135.992 290.855 136.365 290.589 136.856C290.322 137.347 290.189 137.923 290.189 138.584C290.189 139.256 290.322 139.843 290.589 140.344C290.855 140.835 291.213 141.213 291.661 141.48C292.109 141.736 292.605 141.864 293.149 141.864C293.693 141.864 294.189 141.736 294.637 141.48C295.095 141.213 295.458 140.835 295.725 140.344C295.991 139.843 296.125 139.261 296.125 138.6ZM301.513 135.848C301.801 135.347 302.228 134.931 302.793 134.6C303.369 134.259 304.036 134.088 304.793 134.088C305.572 134.088 306.276 134.275 306.905 134.648C307.545 135.021 308.047 135.549 308.409 136.232C308.772 136.904 308.953 137.688 308.953 138.584C308.953 139.469 308.772 140.259 308.409 140.952C308.047 141.645 307.545 142.184 306.905 142.568C306.276 142.952 305.572 143.144 304.793 143.144C304.047 143.144 303.385 142.979 302.809 142.648C302.244 142.307 301.812 141.885 301.513 141.384V147.16H300.057V134.232H301.513V135.848ZM307.465 138.584C307.465 137.923 307.332 137.347 307.065 136.856C306.799 136.365 306.436 135.992 305.977 135.736C305.529 135.48 305.033 135.352 304.489 135.352C303.956 135.352 303.46 135.485 303.001 135.752C302.553 136.008 302.191 136.387 301.913 136.888C301.647 137.379 301.513 137.949 301.513 138.6C301.513 139.261 301.647 139.843 301.913 140.344C302.191 140.835 302.553 141.213 303.001 141.48C303.46 141.736 303.956 141.864 304.489 141.864C305.033 141.864 305.529 141.736 305.977 141.48C306.436 141.213 306.799 140.835 307.065 140.344C307.332 139.843 307.465 139.256 307.465 138.584ZM90.2033 159.432H88.3633V167H86.9073V159.432H85.7713V158.232H86.9073V157.608C86.9073 156.627 87.158 155.912 87.6593 155.464C88.1713 155.005 88.9873 154.776 90.1073 154.776V155.992C89.4673 155.992 89.014 156.12 88.7473 156.376C88.4913 156.621 88.3633 157.032 88.3633 157.608V158.232H90.2033V159.432ZM95.7249 167.144C94.9036 167.144 94.1569 166.957 93.4849 166.584C92.8236 166.211 92.3009 165.683 91.9169 165C91.5436 164.307 91.3569 163.507 91.3569 162.6C91.3569 161.704 91.5489 160.915 91.9329 160.232C92.3276 159.539 92.8609 159.011 93.5329 158.648C94.2049 158.275 94.9569 158.088 95.7889 158.088C96.6209 158.088 97.3729 158.275 98.0449 158.648C98.7169 159.011 99.2449 159.533 99.6289 160.216C100.024 160.899 100.221 161.693 100.221 162.6C100.221 163.507 100.018 164.307 99.6129 165C99.2183 165.683 98.6796 166.211 97.9969 166.584C97.3143 166.957 96.5569 167.144 95.7249 167.144ZM95.7249 165.864C96.2476 165.864 96.7383 165.741 97.1969 165.496C97.6556 165.251 98.0236 164.883 98.3009 164.392C98.5889 163.901 98.7329 163.304 98.7329 162.6C98.7329 161.896 98.5943 161.299 98.3169 160.808C98.0396 160.317 97.6769 159.955 97.2289 159.72C96.7809 159.475 96.2956 159.352 95.7729 159.352C95.2396 159.352 94.7489 159.475 94.3009 159.72C93.8636 159.955 93.5116 160.317 93.2449 160.808C92.9783 161.299 92.8449 161.896 92.8449 162.6C92.8449 163.315 92.9729 163.917 93.2289 164.408C93.4956 164.899 93.8476 165.267 94.2849 165.512C94.7223 165.747 95.2023 165.864 95.7249 165.864ZM103.591 159.656C103.847 159.155 104.21 158.765 104.679 158.488C105.159 158.211 105.741 158.072 106.423 158.072V159.576H106.039C104.407 159.576 103.591 160.461 103.591 162.232V167H102.135V158.232H103.591V159.656ZM118.648 158.072C119.331 158.072 119.939 158.216 120.472 158.504C121.005 158.781 121.427 159.203 121.736 159.768C122.045 160.333 122.2 161.021 122.2 161.832V167H120.76V162.04C120.76 161.165 120.541 160.499 120.104 160.04C119.677 159.571 119.096 159.336 118.36 159.336C117.603 159.336 117 159.581 116.552 160.072C116.104 160.552 115.88 161.251 115.88 162.168V167H114.44V162.04C114.44 161.165 114.221 160.499 113.784 160.04C113.357 159.571 112.776 159.336 112.04 159.336C111.283 159.336 110.68 159.581 110.232 160.072C109.784 160.552 109.56 161.251 109.56 162.168V167H108.104V158.232H109.56V159.496C109.848 159.037 110.232 158.685 110.712 158.44C111.203 158.195 111.741 158.072 112.328 158.072C113.064 158.072 113.715 158.237 114.28 158.568C114.845 158.899 115.267 159.384 115.544 160.024C115.789 159.405 116.195 158.925 116.76 158.584C117.325 158.243 117.955 158.072 118.648 158.072ZM124.044 162.584C124.044 161.688 124.226 160.904 124.588 160.232C124.951 159.549 125.447 159.021 126.076 158.648C126.716 158.275 127.426 158.088 128.204 158.088C128.972 158.088 129.639 158.253 130.204 158.584C130.77 158.915 131.191 159.331 131.468 159.832V158.232H132.94V167H131.468V165.368C131.18 165.88 130.748 166.307 130.172 166.648C129.607 166.979 128.946 167.144 128.188 167.144C127.41 167.144 126.706 166.952 126.076 166.568C125.447 166.184 124.951 165.645 124.588 164.952C124.226 164.259 124.044 163.469 124.044 162.584ZM131.468 162.6C131.468 161.939 131.335 161.363 131.068 160.872C130.802 160.381 130.439 160.008 129.98 159.752C129.532 159.485 129.036 159.352 128.492 159.352C127.948 159.352 127.452 159.48 127.004 159.736C126.556 159.992 126.199 160.365 125.932 160.856C125.666 161.347 125.532 161.923 125.532 162.584C125.532 163.256 125.666 163.843 125.932 164.344C126.199 164.835 126.556 165.213 127.004 165.48C127.452 165.736 127.948 165.864 128.492 165.864C129.036 165.864 129.532 165.736 129.98 165.48C130.439 165.213 130.802 164.835 131.068 164.344C131.335 163.843 131.468 163.261 131.468 162.6ZM137.177 159.432V164.6C137.177 165.027 137.268 165.331 137.449 165.512C137.63 165.683 137.945 165.768 138.393 165.768H139.465V167H138.153C137.342 167 136.734 166.813 136.329 166.44C135.924 166.067 135.721 165.453 135.721 164.6V159.432H134.585V158.232H135.721V156.024H137.177V158.232H139.465V159.432H137.177ZM149.319 167.144C148.497 167.144 147.751 166.957 147.079 166.584C146.417 166.211 145.895 165.683 145.511 165C145.137 164.307 144.951 163.507 144.951 162.6C144.951 161.704 145.143 160.915 145.527 160.232C145.921 159.539 146.455 159.011 147.127 158.648C147.799 158.275 148.551 158.088 149.383 158.088C150.215 158.088 150.967 158.275 151.639 158.648C152.311 159.011 152.839 159.533 153.223 160.216C153.617 160.899 153.815 161.693 153.815 162.6C153.815 163.507 153.612 164.307 153.207 165C152.812 165.683 152.273 166.211 151.591 166.584C150.908 166.957 150.151 167.144 149.319 167.144ZM149.319 165.864C149.841 165.864 150.332 165.741 150.791 165.496C151.249 165.251 151.617 164.883 151.895 164.392C152.183 163.901 152.327 163.304 152.327 162.6C152.327 161.896 152.188 161.299 151.911 160.808C151.633 160.317 151.271 159.955 150.823 159.72C150.375 159.475 149.889 159.352 149.367 159.352C148.833 159.352 148.343 159.475 147.895 159.72C147.457 159.955 147.105 160.317 146.839 160.808C146.572 161.299 146.439 161.896 146.439 162.6C146.439 163.315 146.567 163.917 146.823 164.408C147.089 164.899 147.441 165.267 147.879 165.512C148.316 165.747 148.796 165.864 149.319 165.864ZM157.185 159.656C157.441 159.155 157.804 158.765 158.273 158.488C158.753 158.211 159.334 158.072 160.017 158.072V159.576H159.633C158.001 159.576 157.185 160.461 157.185 162.232V167H155.729V158.232H157.185V159.656ZM167.419 155.16V167H165.963V155.16H167.419ZM170.653 156.808C170.376 156.808 170.141 156.712 169.949 156.52C169.757 156.328 169.661 156.093 169.661 155.816C169.661 155.539 169.757 155.304 169.949 155.112C170.141 154.92 170.376 154.824 170.653 154.824C170.92 154.824 171.144 154.92 171.325 155.112C171.517 155.304 171.613 155.539 171.613 155.816C171.613 156.093 171.517 156.328 171.325 156.52C171.144 156.712 170.92 156.808 170.653 156.808ZM171.357 158.232V167H169.901V158.232H171.357ZM176.942 167.144C176.27 167.144 175.668 167.032 175.134 166.808C174.601 166.573 174.18 166.253 173.87 165.848C173.561 165.432 173.39 164.957 173.358 164.424H174.862C174.905 164.861 175.108 165.219 175.47 165.496C175.844 165.773 176.329 165.912 176.926 165.912C177.481 165.912 177.918 165.789 178.238 165.544C178.558 165.299 178.718 164.989 178.718 164.616C178.718 164.232 178.548 163.949 178.206 163.768C177.865 163.576 177.337 163.389 176.622 163.208C175.972 163.037 175.438 162.867 175.022 162.696C174.617 162.515 174.265 162.253 173.966 161.912C173.678 161.56 173.534 161.101 173.534 160.536C173.534 160.088 173.668 159.677 173.934 159.304C174.201 158.931 174.58 158.637 175.07 158.424C175.561 158.2 176.121 158.088 176.75 158.088C177.721 158.088 178.505 158.333 179.102 158.824C179.7 159.315 180.02 159.987 180.062 160.84H178.606C178.574 160.381 178.388 160.013 178.046 159.736C177.716 159.459 177.268 159.32 176.702 159.32C176.18 159.32 175.764 159.432 175.454 159.656C175.145 159.88 174.99 160.173 174.99 160.536C174.99 160.824 175.081 161.064 175.262 161.256C175.454 161.437 175.689 161.587 175.966 161.704C176.254 161.811 176.649 161.933 177.15 162.072C177.78 162.243 178.292 162.413 178.686 162.584C179.081 162.744 179.417 162.989 179.694 163.32C179.982 163.651 180.132 164.083 180.142 164.616C180.142 165.096 180.009 165.528 179.742 165.912C179.476 166.296 179.097 166.6 178.606 166.824C178.126 167.037 177.572 167.144 176.942 167.144ZM183.974 159.432V164.6C183.974 165.027 184.064 165.331 184.246 165.512C184.427 165.683 184.742 165.768 185.19 165.768H186.262V167H184.95C184.139 167 183.531 166.813 183.126 166.44C182.72 166.067 182.518 165.453 182.518 164.6V159.432H181.382V158.232H182.518V156.024H183.974V158.232H186.262V159.432H183.974ZM195.86 159.432H194.02V167H192.564V159.432H191.428V158.232H192.564V157.608C192.564 156.627 192.814 155.912 193.316 155.464C193.828 155.005 194.644 154.776 195.764 154.776V155.992C195.124 155.992 194.67 156.12 194.404 156.376C194.148 156.621 194.02 157.032 194.02 157.608V158.232H195.86V159.432ZM201.381 167.144C200.56 167.144 199.813 166.957 199.141 166.584C198.48 166.211 197.957 165.683 197.573 165C197.2 164.307 197.013 163.507 197.013 162.6C197.013 161.704 197.205 160.915 197.589 160.232C197.984 159.539 198.517 159.011 199.189 158.648C199.861 158.275 200.613 158.088 201.445 158.088C202.277 158.088 203.029 158.275 203.701 158.648C204.373 159.011 204.901 159.533 205.285 160.216C205.68 160.899 205.877 161.693 205.877 162.6C205.877 163.507 205.675 164.307 205.269 165C204.875 165.683 204.336 166.211 203.653 166.584C202.971 166.957 202.213 167.144 201.381 167.144ZM201.381 165.864C201.904 165.864 202.395 165.741 202.853 165.496C203.312 165.251 203.68 164.883 203.957 164.392C204.245 163.901 204.389 163.304 204.389 162.6C204.389 161.896 204.251 161.299 203.973 160.808C203.696 160.317 203.333 159.955 202.885 159.72C202.437 159.475 201.952 159.352 201.429 159.352C200.896 159.352 200.405 159.475 199.957 159.72C199.52 159.955 199.168 160.317 198.901 160.808C198.635 161.299 198.501 161.896 198.501 162.6C198.501 163.315 198.629 163.917 198.885 164.408C199.152 164.899 199.504 165.267 199.941 165.512C200.379 165.747 200.859 165.864 201.381 165.864ZM209.248 159.656C209.504 159.155 209.866 158.765 210.336 158.488C210.816 158.211 211.397 158.072 212.08 158.072V159.576H211.696C210.064 159.576 209.248 160.461 209.248 162.232V167H207.792V158.232H209.248V159.656ZM224.304 158.072C224.987 158.072 225.595 158.216 226.128 158.504C226.662 158.781 227.083 159.203 227.392 159.768C227.702 160.333 227.856 161.021 227.856 161.832V167H226.416V162.04C226.416 161.165 226.198 160.499 225.76 160.04C225.334 159.571 224.752 159.336 224.016 159.336C223.259 159.336 222.656 159.581 222.208 160.072C221.76 160.552 221.536 161.251 221.536 162.168V167H220.096V162.04C220.096 161.165 219.878 160.499 219.44 160.04C219.014 159.571 218.432 159.336 217.696 159.336C216.939 159.336 216.336 159.581 215.888 160.072C215.44 160.552 215.216 161.251 215.216 162.168V167H213.76V158.232H215.216V159.496C215.504 159.037 215.888 158.685 216.368 158.44C216.859 158.195 217.398 158.072 217.984 158.072C218.72 158.072 219.371 158.237 219.936 158.568C220.502 158.899 220.923 159.384 221.2 160.024C221.446 159.405 221.851 158.925 222.416 158.584C222.982 158.243 223.611 158.072 224.304 158.072ZM229.701 162.584C229.701 161.688 229.882 160.904 230.245 160.232C230.607 159.549 231.103 159.021 231.733 158.648C232.373 158.275 233.082 158.088 233.861 158.088C234.629 158.088 235.295 158.253 235.861 158.584C236.426 158.915 236.847 159.331 237.125 159.832V158.232H238.597V167H237.125V165.368C236.837 165.88 236.405 166.307 235.829 166.648C235.263 166.979 234.602 167.144 233.845 167.144C233.066 167.144 232.362 166.952 231.733 166.568C231.103 166.184 230.607 165.645 230.245 164.952C229.882 164.259 229.701 163.469 229.701 162.584ZM237.125 162.6C237.125 161.939 236.991 161.363 236.725 160.872C236.458 160.381 236.095 160.008 235.637 159.752C235.189 159.485 234.693 159.352 234.149 159.352C233.605 159.352 233.109 159.48 232.661 159.736C232.213 159.992 231.855 160.365 231.589 160.856C231.322 161.347 231.189 161.923 231.189 162.584C231.189 163.256 231.322 163.843 231.589 164.344C231.855 164.835 232.213 165.213 232.661 165.48C233.109 165.736 233.605 165.864 234.149 165.864C234.693 165.864 235.189 165.736 235.637 165.48C236.095 165.213 236.458 164.835 236.725 164.344C236.991 163.843 237.125 163.261 237.125 162.6ZM242.833 159.432V164.6C242.833 165.027 242.924 165.331 243.105 165.512C243.287 165.683 243.601 165.768 244.049 165.768H245.121V167H243.809C242.999 167 242.391 166.813 241.985 166.44C241.58 166.067 241.377 165.453 241.377 164.6V159.432H240.241V158.232H241.377V156.024H242.833V158.232H245.121V159.432H242.833ZM247.349 167.096C247.072 167.096 246.837 167 246.645 166.808C246.453 166.616 246.357 166.381 246.357 166.104C246.357 165.827 246.453 165.592 246.645 165.4C246.837 165.208 247.072 165.112 247.349 165.112C247.616 165.112 247.84 165.208 248.021 165.4C248.213 165.592 248.309 165.827 248.309 166.104C248.309 166.381 248.213 166.616 248.021 166.808C247.84 167 247.616 167.096 247.349 167.096Z" fill="#5C5C5C"/>
</g>
<defs>
<filter id="filter0_bd_1790_9594" x="28.4033" y="4" width="365" height="225" filterUnits="userSpaceOnUse" color-interpolation-filters="sRGB">
<feFlood flood-opacity="0" result="BackgroundImageFix"/>
<feGaussianBlur in="BackgroundImageFix" stdDeviation="13"/>
<feComposite in2="SourceAlpha" operator="in" result="effect1_backgroundBlur_1790_9594"/>
<feColorMatrix in="SourceAlpha" type="matrix" values="0 0 0 0 0 0 0 0 0 0 0 0 0 0 0 0 0 0 127 0" result="hardAlpha"/>
<feOffset dy="8"/>
<feGaussianBlur stdDeviation="10.5"/>
<feComposite in2="hardAlpha" operator="out"/>
<feColorMatrix type="matrix" values="0 0 0 0 0.1125 0 0 0 0 0.1125 0 0 0 0 0.1125 0 0 0 0.06 0"/>
<feBlend mode="normal" in2="effect1_backgroundBlur_1790_9594" result="effect2_dropShadow_1790_9594"/>
<feBlend mode="normal" in="SourceGraphic" in2="effect2_dropShadow_1790_9594" result="shape"/>
</filter>
<clipPath id="clip0_1790_9594">
<rect width="113.739" height="113.739" fill="white" transform="translate(0.839844 0.130432)"/>
</clipPath>
</defs>
</svg>
