<svg width="380" height="228" viewBox="0 0 380 228" fill="none" xmlns="http://www.w3.org/2000/svg">
<path fill-rule="evenodd" clip-rule="evenodd" d="M49.2308 1.80519C48.0332 2.64898 47.6068 3.79661 47.441 6.62672L47.2223 10.3407L43.2002 11.5896C31.643 15.1782 23.0855 23.8165 20.0518 34.9562C19.5623 36.7531 18.9498 44.3151 18.6898 51.7619C18.2235 65.1321 18.1888 65.3609 15.8653 70.1095C14.5715 72.7545 11.5674 77.0791 9.1889 79.7205C5.39346 83.9358 4.86563 84.8845 4.86563 87.4946C4.86563 89.9042 5.33191 90.9367 7.32738 92.9449L9.78914 95.4223H51.5304C96.8201 95.4223 96.301 95.4668 98.1263 91.4351C99.9227 87.4676 99.2544 84.8 95.3851 80.5002C87.0629 71.2521 85.2347 66.0779 85.2347 51.7721C85.2347 34.8309 83.1871 28.4551 75.1328 20.3153C70.2868 15.418 64.8369 12.2126 59.7121 11.2471C57.0592 10.748 56.9969 10.662 56.9969 7.50475C56.9969 2.15641 52.948 -0.815058 49.2308 1.80519ZM16.1072 7.07266C7.4664 15.8814 1.54226 29.4191 0.22305 43.3685C-0.208482 47.9358 -0.091186 48.7344 1.26785 50.4729C3.03886 52.7391 5.49555 53.0036 7.61917 51.1564C8.75231 50.1705 9.25262 48.3941 9.82679 43.3234C11.1511 31.6175 14.7937 23.0609 22.0617 14.5815C25.4676 10.6081 26.0541 7.58563 23.8146 5.54612C21.6309 3.55761 19.0547 4.06767 16.1072 7.07266ZM80.1664 5.79751C77.8414 8.13723 78.3787 10.3859 82.3732 15.0289C86.2896 19.5822 91.8184 30.2578 93.1065 35.7563C93.5402 37.6063 94.1158 41.5112 94.3859 44.4338C94.7269 48.1303 95.2823 50.156 96.2098 51.0894C99.3898 54.2896 104.06 51.3145 104.06 46.0893C104.06 37.1349 99.8691 23.8427 94.3844 15.3983C87.7348 5.16139 83.5839 2.35824 80.1664 5.79751ZM34.5515 100.895C34.5515 101.1 35.2372 102.736 36.0756 104.53C38.974 110.736 45.035 114.577 51.9286 114.577C59.825 114.577 66.618 109.609 68.9009 102.162L69.4034 100.523H51.9771C42.3929 100.523 34.5515 100.691 34.5515 100.895Z" fill="#118B64"/>
<g filter="url(#filter0_bd_1790_9579)">
<rect x="45.9365" y="28.5331" width="313" height="170" rx="14" fill="white" fill-opacity="0.85" shape-rendering="crispEdges"/>
<g opacity="0.8">
<path d="M77.6765 69.5531C77.6765 68.1931 77.9899 66.9731 78.6165 65.8931C79.2565 64.8131 80.1165 63.973 81.1965 63.373C82.2899 62.7597 83.4832 62.453 84.7765 62.453C86.2565 62.453 87.5699 62.8197 88.7165 63.553C89.8765 64.273 90.7165 65.2997 91.2365 66.633H88.4965C88.1365 65.8997 87.6365 65.3531 86.9965 64.9931C86.3565 64.633 85.6165 64.453 84.7765 64.453C83.8565 64.453 83.0365 64.6597 82.3165 65.0731C81.5965 65.4864 81.0299 66.0797 80.6165 66.853C80.2165 67.6264 80.0165 68.5264 80.0165 69.5531C80.0165 70.5797 80.2165 71.4797 80.6165 72.2531C81.0299 73.0264 81.5965 73.6264 82.3165 74.0531C83.0365 74.4664 83.8565 74.6731 84.7765 74.6731C85.6165 74.6731 86.3565 74.4931 86.9965 74.1331C87.6365 73.7731 88.1365 73.2264 88.4965 72.4931H91.2365C90.7165 73.8264 89.8765 74.8531 88.7165 75.5731C87.5699 76.2931 86.2565 76.6531 84.7765 76.6531C83.4699 76.6531 82.2765 76.3531 81.1965 75.7531C80.1165 75.1397 79.2565 74.2931 78.6165 73.2131C77.9899 72.1331 77.6765 70.9131 77.6765 69.5531ZM103.885 65.5131V76.5331H101.605V75.2331C101.245 75.6864 100.772 76.0464 100.185 76.3131C99.6119 76.5664 98.9986 76.6931 98.3453 76.6931C97.4786 76.6931 96.6986 76.5131 96.0053 76.1531C95.3253 75.7931 94.7853 75.2597 94.3853 74.5531C93.9986 73.8464 93.8053 72.9931 93.8053 71.9931V65.5131H96.0653V71.6531C96.0653 72.6397 96.3119 73.3997 96.8053 73.9331C97.2986 74.4531 97.9719 74.7131 98.8253 74.7131C99.6786 74.7131 100.352 74.4531 100.845 73.9331C101.352 73.3997 101.605 72.6397 101.605 71.6531V65.5131H103.885ZM110.894 76.7131C110.027 76.7131 109.247 76.5597 108.554 76.2531C107.874 75.9331 107.334 75.5064 106.934 74.9731C106.534 74.4264 106.32 73.8197 106.294 73.1531H108.654C108.694 73.6197 108.914 74.0131 109.314 74.3331C109.727 74.6397 110.24 74.7931 110.854 74.7931C111.494 74.7931 111.987 74.6731 112.334 74.4331C112.694 74.1797 112.874 73.8597 112.874 73.4731C112.874 73.0597 112.674 72.7531 112.274 72.5531C111.887 72.3531 111.267 72.1331 110.414 71.8931C109.587 71.6664 108.914 71.4464 108.394 71.2331C107.874 71.0197 107.42 70.6931 107.034 70.2531C106.66 69.8131 106.474 69.2331 106.474 68.5131C106.474 67.9264 106.647 67.393 106.994 66.913C107.34 66.4197 107.834 66.0331 108.474 65.753C109.127 65.4731 109.874 65.3331 110.714 65.3331C111.967 65.3331 112.974 65.6531 113.734 66.2931C114.507 66.9197 114.92 67.7797 114.974 68.8731H112.694C112.654 68.3797 112.454 67.9864 112.094 67.693C111.734 67.3997 111.247 67.2531 110.634 67.2531C110.034 67.2531 109.574 67.3664 109.254 67.5931C108.934 67.8197 108.774 68.1197 108.774 68.4931C108.774 68.7864 108.88 69.0331 109.094 69.2331C109.307 69.4331 109.567 69.5931 109.874 69.7131C110.18 69.8197 110.634 69.9597 111.234 70.1331C112.034 70.3464 112.687 70.5664 113.194 70.7931C113.714 71.0064 114.16 71.3264 114.534 71.7531C114.907 72.1797 115.1 72.7464 115.114 73.4531C115.114 74.0797 114.94 74.6397 114.594 75.1331C114.247 75.6264 113.754 76.0131 113.114 76.2931C112.487 76.5731 111.747 76.7131 110.894 76.7131ZM120.237 67.373V73.4731C120.237 73.8864 120.33 74.1864 120.517 74.3731C120.717 74.5464 121.05 74.6331 121.517 74.6331H122.917V76.5331H121.117C120.09 76.5331 119.304 76.2931 118.757 75.8131C118.21 75.3331 117.937 74.5531 117.937 73.4731V67.373H116.637V65.5131H117.937V62.7731H120.237V65.5131H122.917V67.373H120.237ZM129.799 76.7131C128.759 76.7131 127.819 76.4797 126.979 76.0131C126.139 75.5331 125.479 74.8664 124.999 74.0131C124.519 73.1464 124.279 72.1464 124.279 71.0131C124.279 69.8931 124.525 68.8997 125.019 68.0331C125.512 67.1664 126.185 66.4997 127.039 66.033C127.892 65.5664 128.845 65.3331 129.899 65.3331C130.952 65.3331 131.905 65.5664 132.759 66.033C133.612 66.4997 134.285 67.1664 134.779 68.0331C135.272 68.8997 135.519 69.8931 135.519 71.0131C135.519 72.1331 135.265 73.1264 134.759 73.9931C134.252 74.8597 133.559 75.5331 132.679 76.0131C131.812 76.4797 130.852 76.7131 129.799 76.7131ZM129.799 74.7331C130.385 74.7331 130.932 74.5931 131.439 74.3131C131.959 74.0331 132.379 73.6131 132.699 73.0531C133.019 72.4931 133.179 71.8131 133.179 71.0131C133.179 70.2131 133.025 69.5397 132.719 68.9931C132.412 68.4331 132.005 68.013 131.499 67.733C130.992 67.4531 130.445 67.3131 129.859 67.3131C129.272 67.3131 128.725 67.4531 128.219 67.733C127.725 68.013 127.332 68.4331 127.039 68.9931C126.745 69.5397 126.599 70.2131 126.599 71.0131C126.599 72.1997 126.899 73.1197 127.499 73.7731C128.112 74.4131 128.879 74.7331 129.799 74.7331ZM151.112 65.3331C151.979 65.3331 152.752 65.5131 153.432 65.873C154.126 66.233 154.666 66.7664 155.052 67.4731C155.452 68.1797 155.652 69.0331 155.652 70.0331V76.5331H153.392V70.373C153.392 69.3864 153.146 68.633 152.652 68.113C152.159 67.5797 151.486 67.3131 150.632 67.3131C149.779 67.3131 149.099 67.5797 148.592 68.113C148.099 68.633 147.852 69.3864 147.852 70.373V76.5331H145.592V70.373C145.592 69.3864 145.346 68.633 144.852 68.113C144.359 67.5797 143.686 67.3131 142.832 67.3131C141.979 67.3131 141.299 67.5797 140.792 68.113C140.299 68.633 140.052 69.3864 140.052 70.373V76.5331H137.772V65.5131H140.052V66.773C140.426 66.3197 140.899 65.9664 141.472 65.7131C142.046 65.4597 142.659 65.3331 143.312 65.3331C144.192 65.3331 144.979 65.5197 145.672 65.8931C146.366 66.2664 146.899 66.8064 147.272 67.513C147.606 66.8464 148.126 66.3197 148.832 65.933C149.539 65.5331 150.299 65.3331 151.112 65.3331ZM172.129 73.6931H166.309L165.309 76.5331H162.929L167.909 62.613H170.549L175.529 76.5331H173.129L172.129 73.6931ZM171.489 71.8331L169.229 65.373L166.949 71.8331H171.489ZM179.974 61.7331V76.5331H177.694V61.7331H179.974ZM193.068 70.7531C193.068 71.1664 193.041 71.5397 192.988 71.8731H184.568C184.634 72.7531 184.961 73.4597 185.548 73.9931C186.134 74.5264 186.854 74.7931 187.708 74.7931C188.934 74.7931 189.801 74.2797 190.308 73.2531H192.768C192.434 74.2664 191.828 75.0997 190.948 75.7531C190.081 76.3931 189.001 76.7131 187.708 76.7131C186.654 76.7131 185.708 76.4797 184.868 76.0131C184.041 75.5331 183.388 74.8664 182.908 74.0131C182.441 73.1464 182.208 72.1464 182.208 71.0131C182.208 69.8797 182.434 68.8864 182.888 68.0331C183.354 67.1664 184.001 66.4997 184.828 66.033C185.668 65.5664 186.628 65.3331 187.708 65.3331C188.748 65.3331 189.674 65.5597 190.488 66.0131C191.301 66.4664 191.934 67.1064 192.388 67.9331C192.841 68.7464 193.068 69.6864 193.068 70.7531ZM190.688 70.0331C190.674 69.1931 190.374 68.5197 189.788 68.013C189.201 67.5064 188.474 67.2531 187.608 67.2531C186.821 67.2531 186.148 67.5064 185.588 68.013C185.028 68.5064 184.694 69.1797 184.588 70.0331H190.688ZM197.592 67.1131C197.925 66.5531 198.365 66.1197 198.912 65.8131C199.472 65.4931 200.132 65.3331 200.892 65.3331V67.693H200.312C199.418 67.693 198.738 67.9197 198.272 68.3731C197.818 68.8264 197.592 69.6131 197.592 70.7331V76.5331H195.312V65.5131H197.592V67.1131ZM205.647 67.373V73.4731C205.647 73.8864 205.741 74.1864 205.927 74.3731C206.127 74.5464 206.461 74.6331 206.927 74.6331H208.327V76.5331H206.527C205.501 76.5331 204.714 76.2931 204.167 75.8131C203.621 75.3331 203.347 74.5531 203.347 73.4731V67.373H202.047V65.5131H203.347V62.7731H205.647V65.5131H208.327V67.373H205.647ZM214.429 76.7131C213.562 76.7131 212.782 76.5597 212.089 76.2531C211.409 75.9331 210.869 75.5064 210.469 74.9731C210.069 74.4264 209.855 73.8197 209.829 73.1531H212.189C212.229 73.6197 212.449 74.0131 212.849 74.3331C213.262 74.6397 213.775 74.7931 214.389 74.7931C215.029 74.7931 215.522 74.6731 215.869 74.4331C216.229 74.1797 216.409 73.8597 216.409 73.4731C216.409 73.0597 216.209 72.7531 215.809 72.5531C215.422 72.3531 214.802 72.1331 213.949 71.8931C213.122 71.6664 212.449 71.4464 211.929 71.2331C211.409 71.0197 210.955 70.6931 210.569 70.2531C210.195 69.8131 210.009 69.2331 210.009 68.5131C210.009 67.9264 210.182 67.393 210.529 66.913C210.875 66.4197 211.369 66.0331 212.009 65.753C212.662 65.4731 213.409 65.3331 214.249 65.3331C215.502 65.3331 216.509 65.6531 217.269 66.2931C218.042 66.9197 218.455 67.7797 218.509 68.8731H216.229C216.189 68.3797 215.989 67.9864 215.629 67.693C215.269 67.3997 214.782 67.2531 214.169 67.2531C213.569 67.2531 213.109 67.3664 212.789 67.5931C212.469 67.8197 212.309 68.1197 212.309 68.4931C212.309 68.7864 212.415 69.0331 212.629 69.2331C212.842 69.4331 213.102 69.5931 213.409 69.7131C213.715 69.8197 214.169 69.9597 214.769 70.1331C215.569 70.3464 216.222 70.5664 216.729 70.7931C217.249 71.0064 217.695 71.3264 218.069 71.7531C218.442 72.1797 218.635 72.7464 218.649 73.4531C218.649 74.0797 218.475 74.6397 218.129 75.1331C217.782 75.6264 217.289 76.0131 216.649 76.2931C216.022 76.5731 215.282 76.7131 214.429 76.7131Z" fill="#121212"/>
</g>
<path d="M86.6165 109.613C86.3072 108.962 85.8592 108.461 85.2725 108.109C84.6859 107.746 84.0032 107.565 83.2245 107.565C82.4459 107.565 81.7419 107.746 81.1125 108.109C80.4939 108.461 80.0032 108.973 79.6405 109.645C79.2885 110.306 79.1125 111.074 79.1125 111.949C79.1125 112.824 79.2885 113.592 79.6405 114.253C80.0032 114.914 80.4939 115.426 81.1125 115.789C81.7419 116.141 82.4459 116.317 83.2245 116.317C84.3125 116.317 85.2085 115.992 85.9125 115.341C86.6165 114.69 87.0272 113.81 87.1445 112.701H82.6965V111.517H88.6965V112.637C88.6112 113.554 88.3232 114.397 87.8325 115.165C87.3419 115.922 86.6965 116.525 85.8965 116.973C85.0965 117.41 84.2059 117.629 83.2245 117.629C82.1899 117.629 81.2459 117.389 80.3925 116.909C79.5392 116.418 78.8619 115.741 78.3605 114.877C77.8699 114.013 77.6245 113.037 77.6245 111.949C77.6245 110.861 77.8699 109.885 78.3605 109.021C78.8619 108.146 79.5392 107.469 80.3925 106.989C81.2459 106.498 82.1899 106.253 83.2245 106.253C84.4085 106.253 85.4539 106.546 86.3605 107.133C87.2779 107.72 87.9445 108.546 88.3605 109.613H86.6165ZM98.6216 112.813C98.6216 113.09 98.6056 113.384 98.5736 113.693H91.5656C91.619 114.557 91.9123 115.234 92.4456 115.725C92.9896 116.205 93.6456 116.445 94.4136 116.445C95.043 116.445 95.5656 116.301 95.9816 116.013C96.4083 115.714 96.707 115.32 96.8776 114.829H98.4456C98.211 115.672 97.7416 116.36 97.0376 116.893C96.3336 117.416 95.459 117.677 94.4136 117.677C93.5816 117.677 92.835 117.49 92.1736 117.117C91.523 116.744 91.011 116.216 90.6376 115.533C90.2643 114.84 90.0776 114.04 90.0776 113.133C90.0776 112.226 90.259 111.432 90.6216 110.749C90.9843 110.066 91.491 109.544 92.1416 109.181C92.803 108.808 93.5603 108.621 94.4136 108.621C95.2456 108.621 95.9816 108.802 96.6216 109.165C97.2616 109.528 97.7523 110.029 98.0936 110.669C98.4456 111.298 98.6216 112.013 98.6216 112.813ZM97.1176 112.509C97.1176 111.954 96.995 111.48 96.7496 111.085C96.5043 110.68 96.1683 110.376 95.7416 110.173C95.3256 109.96 94.8616 109.853 94.3496 109.853C93.6136 109.853 92.9843 110.088 92.4616 110.557C91.9496 111.026 91.6563 111.677 91.5816 112.509H97.1176ZM102.32 109.965V115.133C102.32 115.56 102.41 115.864 102.592 116.045C102.773 116.216 103.088 116.301 103.536 116.301H104.608V117.533H103.296C102.485 117.533 101.877 117.346 101.472 116.973C101.066 116.6 100.864 115.986 100.864 115.133V109.965H99.7275V108.765H100.864V106.557H102.32V108.765H104.608V109.965H102.32ZM110.093 111.949C110.093 110.861 110.339 109.885 110.829 109.021C111.32 108.146 111.987 107.464 112.829 106.973C113.683 106.482 114.627 106.237 115.661 106.237C116.877 106.237 117.939 106.53 118.845 107.117C119.752 107.704 120.413 108.536 120.829 109.613H119.085C118.776 108.941 118.328 108.424 117.741 108.061C117.165 107.698 116.472 107.517 115.661 107.517C114.883 107.517 114.184 107.698 113.565 108.061C112.947 108.424 112.461 108.941 112.109 109.613C111.757 110.274 111.581 111.053 111.581 111.949C111.581 112.834 111.757 113.613 112.109 114.285C112.461 114.946 112.947 115.458 113.565 115.821C114.184 116.184 114.883 116.365 115.661 116.365C116.472 116.365 117.165 116.189 117.741 115.837C118.328 115.474 118.776 114.957 119.085 114.285H120.829C120.413 115.352 119.752 116.178 118.845 116.765C117.939 117.341 116.877 117.629 115.661 117.629C114.627 117.629 113.683 117.389 112.829 116.909C111.987 116.418 111.32 115.741 110.829 114.877C110.339 114.013 110.093 113.037 110.093 111.949ZM130.773 108.765V117.533H129.317V116.237C129.039 116.685 128.65 117.037 128.149 117.293C127.658 117.538 127.114 117.661 126.517 117.661C125.834 117.661 125.221 117.522 124.677 117.245C124.133 116.957 123.701 116.53 123.381 115.965C123.071 115.4 122.917 114.712 122.917 113.901V108.765H124.357V113.709C124.357 114.573 124.575 115.24 125.013 115.709C125.45 116.168 126.047 116.397 126.805 116.397C127.583 116.397 128.197 116.157 128.645 115.677C129.093 115.197 129.317 114.498 129.317 113.581V108.765H130.773ZM136.335 117.677C135.663 117.677 135.06 117.565 134.527 117.341C133.994 117.106 133.572 116.786 133.263 116.381C132.954 115.965 132.783 115.49 132.751 114.957H134.255C134.298 115.394 134.5 115.752 134.863 116.029C135.236 116.306 135.722 116.445 136.319 116.445C136.874 116.445 137.311 116.322 137.631 116.077C137.951 115.832 138.111 115.522 138.111 115.149C138.111 114.765 137.94 114.482 137.599 114.301C137.258 114.109 136.73 113.922 136.015 113.741C135.364 113.57 134.831 113.4 134.415 113.229C134.01 113.048 133.658 112.786 133.359 112.445C133.071 112.093 132.927 111.634 132.927 111.069C132.927 110.621 133.06 110.21 133.327 109.837C133.594 109.464 133.972 109.17 134.463 108.957C134.954 108.733 135.514 108.621 136.143 108.621C137.114 108.621 137.898 108.866 138.495 109.357C139.092 109.848 139.412 110.52 139.455 111.373H137.999C137.967 110.914 137.78 110.546 137.439 110.269C137.108 109.992 136.66 109.853 136.095 109.853C135.572 109.853 135.156 109.965 134.847 110.189C134.538 110.413 134.383 110.706 134.383 111.069C134.383 111.357 134.474 111.597 134.655 111.789C134.847 111.97 135.082 112.12 135.359 112.237C135.647 112.344 136.042 112.466 136.543 112.605C137.172 112.776 137.684 112.946 138.079 113.117C138.474 113.277 138.81 113.522 139.087 113.853C139.375 114.184 139.524 114.616 139.535 115.149C139.535 115.629 139.402 116.061 139.135 116.445C138.868 116.829 138.49 117.133 137.999 117.357C137.519 117.57 136.964 117.677 136.335 117.677ZM143.366 109.965V115.133C143.366 115.56 143.457 115.864 143.638 116.045C143.82 116.216 144.134 116.301 144.582 116.301H145.654V117.533H144.342C143.532 117.533 142.924 117.346 142.518 116.973C142.113 116.6 141.91 115.986 141.91 115.133V109.965H140.774V108.765H141.91V106.557H143.366V108.765H145.654V109.965H143.366ZM151.243 117.677C150.421 117.677 149.675 117.49 149.003 117.117C148.341 116.744 147.819 116.216 147.435 115.533C147.061 114.84 146.875 114.04 146.875 113.133C146.875 112.237 147.067 111.448 147.451 110.765C147.845 110.072 148.379 109.544 149.051 109.181C149.723 108.808 150.475 108.621 151.307 108.621C152.139 108.621 152.891 108.808 153.563 109.181C154.235 109.544 154.763 110.066 155.147 110.749C155.541 111.432 155.739 112.226 155.739 113.133C155.739 114.04 155.536 114.84 155.131 115.533C154.736 116.216 154.197 116.744 153.515 117.117C152.832 117.49 152.075 117.677 151.243 117.677ZM151.243 116.397C151.765 116.397 152.256 116.274 152.715 116.029C153.173 115.784 153.541 115.416 153.819 114.925C154.107 114.434 154.251 113.837 154.251 113.133C154.251 112.429 154.112 111.832 153.835 111.341C153.557 110.85 153.195 110.488 152.747 110.253C152.299 110.008 151.813 109.885 151.291 109.885C150.757 109.885 150.267 110.008 149.819 110.253C149.381 110.488 149.029 110.85 148.763 111.341C148.496 111.832 148.363 112.429 148.363 113.133C148.363 113.848 148.491 114.45 148.747 114.941C149.013 115.432 149.365 115.8 149.803 116.045C150.24 116.28 150.72 116.397 151.243 116.397ZM168.197 108.605C168.88 108.605 169.488 108.749 170.021 109.037C170.554 109.314 170.976 109.736 171.285 110.301C171.594 110.866 171.749 111.554 171.749 112.365V117.533H170.309V112.573C170.309 111.698 170.09 111.032 169.653 110.573C169.226 110.104 168.645 109.869 167.909 109.869C167.152 109.869 166.549 110.114 166.101 110.605C165.653 111.085 165.429 111.784 165.429 112.701V117.533H163.989V112.573C163.989 111.698 163.77 111.032 163.333 110.573C162.906 110.104 162.325 109.869 161.589 109.869C160.832 109.869 160.229 110.114 159.781 110.605C159.333 111.085 159.109 111.784 159.109 112.701V117.533H157.653V108.765H159.109V110.029C159.397 109.57 159.781 109.218 160.261 108.973C160.752 108.728 161.29 108.605 161.877 108.605C162.613 108.605 163.264 108.77 163.829 109.101C164.394 109.432 164.816 109.917 165.093 110.557C165.338 109.938 165.744 109.458 166.309 109.117C166.874 108.776 167.504 108.605 168.197 108.605ZM184.995 115.053H180.131L179.235 117.533H177.699L181.731 106.445H183.411L187.427 117.533H185.891L184.995 115.053ZM184.579 113.869L182.563 108.237L180.547 113.869H184.579ZM190.64 105.693V117.533H189.184V105.693H190.64ZM201.122 112.813C201.122 113.09 201.106 113.384 201.074 113.693H194.066C194.119 114.557 194.412 115.234 194.946 115.725C195.49 116.205 196.146 116.445 196.914 116.445C197.543 116.445 198.066 116.301 198.482 116.013C198.908 115.714 199.207 115.32 199.378 114.829H200.946C200.711 115.672 200.242 116.36 199.538 116.893C198.834 117.416 197.959 117.677 196.914 117.677C196.082 117.677 195.335 117.49 194.674 117.117C194.023 116.744 193.511 116.216 193.138 115.533C192.764 114.84 192.578 114.04 192.578 113.133C192.578 112.226 192.759 111.432 193.122 110.749C193.484 110.066 193.991 109.544 194.642 109.181C195.303 108.808 196.06 108.621 196.914 108.621C197.746 108.621 198.482 108.802 199.122 109.165C199.762 109.528 200.252 110.029 200.594 110.669C200.946 111.298 201.122 112.013 201.122 112.813ZM199.618 112.509C199.618 111.954 199.495 111.48 199.25 111.085C199.004 110.68 198.668 110.376 198.242 110.173C197.826 109.96 197.362 109.853 196.85 109.853C196.114 109.853 195.484 110.088 194.962 110.557C194.45 111.026 194.156 111.677 194.082 112.509H199.618ZM204.5 110.189C204.756 109.688 205.118 109.298 205.588 109.021C206.068 108.744 206.649 108.605 207.332 108.605V110.109H206.948C205.316 110.109 204.5 110.994 204.5 112.765V117.533H203.044V108.765H204.5V110.189ZM210.788 109.965V115.133C210.788 115.56 210.879 115.864 211.06 116.045C211.242 116.216 211.556 116.301 212.004 116.301H213.076V117.533H211.764C210.954 117.533 210.346 117.346 209.94 116.973C209.535 116.6 209.332 115.986 209.332 115.133V109.965H208.196V108.765H209.332V106.557H210.788V108.765H213.076V109.965H210.788ZM217.944 117.677C217.272 117.677 216.67 117.565 216.136 117.341C215.603 117.106 215.182 116.786 214.872 116.381C214.563 115.965 214.392 115.49 214.36 114.957H215.864C215.907 115.394 216.11 115.752 216.472 116.029C216.846 116.306 217.331 116.445 217.928 116.445C218.483 116.445 218.92 116.322 219.24 116.077C219.56 115.832 219.72 115.522 219.72 115.149C219.72 114.765 219.55 114.482 219.208 114.301C218.867 114.109 218.339 113.922 217.624 113.741C216.974 113.57 216.44 113.4 216.024 113.229C215.619 113.048 215.267 112.786 214.968 112.445C214.68 112.093 214.536 111.634 214.536 111.069C214.536 110.621 214.67 110.21 214.936 109.837C215.203 109.464 215.582 109.17 216.072 108.957C216.563 108.733 217.123 108.621 217.752 108.621C218.723 108.621 219.507 108.866 220.104 109.357C220.702 109.848 221.022 110.52 221.064 111.373H219.608C219.576 110.914 219.39 110.546 219.048 110.269C218.718 109.992 218.27 109.853 217.704 109.853C217.182 109.853 216.766 109.965 216.456 110.189C216.147 110.413 215.992 110.706 215.992 111.069C215.992 111.357 216.083 111.597 216.264 111.789C216.456 111.97 216.691 112.12 216.968 112.237C217.256 112.344 217.651 112.466 218.152 112.605C218.782 112.776 219.294 112.946 219.688 113.117C220.083 113.277 220.419 113.522 220.696 113.853C220.984 114.184 221.134 114.616 221.144 115.149C221.144 115.629 221.011 116.061 220.744 116.445C220.478 116.829 220.099 117.133 219.608 117.357C219.128 117.57 218.574 117.677 217.944 117.677ZM231.033 109.965H229.193V117.533H227.737V109.965H226.601V108.765H227.737V108.141C227.737 107.16 227.988 106.445 228.489 105.997C229.001 105.538 229.817 105.309 230.937 105.309V106.525C230.297 106.525 229.844 106.653 229.577 106.909C229.321 107.154 229.193 107.565 229.193 108.141V108.765H231.033V109.965ZM236.555 117.677C235.734 117.677 234.987 117.49 234.315 117.117C233.654 116.744 233.131 116.216 232.747 115.533C232.374 114.84 232.187 114.04 232.187 113.133C232.187 112.237 232.379 111.448 232.763 110.765C233.158 110.072 233.691 109.544 234.363 109.181C235.035 108.808 235.787 108.621 236.619 108.621C237.451 108.621 238.203 108.808 238.875 109.181C239.547 109.544 240.075 110.066 240.459 110.749C240.854 111.432 241.051 112.226 241.051 113.133C241.051 114.04 240.848 114.84 240.443 115.533C240.048 116.216 239.51 116.744 238.827 117.117C238.144 117.49 237.387 117.677 236.555 117.677ZM236.555 116.397C237.078 116.397 237.568 116.274 238.027 116.029C238.486 115.784 238.854 115.416 239.131 114.925C239.419 114.434 239.563 113.837 239.563 113.133C239.563 112.429 239.424 111.832 239.147 111.341C238.87 110.85 238.507 110.488 238.059 110.253C237.611 110.008 237.126 109.885 236.603 109.885C236.07 109.885 235.579 110.008 235.131 110.253C234.694 110.488 234.342 110.85 234.075 111.341C233.808 111.832 233.675 112.429 233.675 113.133C233.675 113.848 233.803 114.45 234.059 114.941C234.326 115.432 234.678 115.8 235.115 116.045C235.552 116.28 236.032 116.397 236.555 116.397ZM244.421 110.189C244.677 109.688 245.04 109.298 245.509 109.021C245.989 108.744 246.571 108.605 247.253 108.605V110.109H246.869C245.237 110.109 244.421 110.994 244.421 112.765V117.533H242.965V108.765H244.421V110.189ZM252.656 113.133C252.656 112.226 252.837 111.437 253.2 110.765C253.562 110.082 254.064 109.554 254.704 109.181C255.354 108.808 256.096 108.621 256.928 108.621C258.005 108.621 258.89 108.882 259.584 109.405C260.288 109.928 260.752 110.653 260.976 111.581H259.408C259.258 111.048 258.965 110.626 258.528 110.317C258.101 110.008 257.568 109.853 256.928 109.853C256.096 109.853 255.424 110.141 254.912 110.717C254.4 111.282 254.144 112.088 254.144 113.133C254.144 114.189 254.4 115.005 254.912 115.581C255.424 116.157 256.096 116.445 256.928 116.445C257.568 116.445 258.101 116.296 258.528 115.997C258.954 115.698 259.248 115.272 259.408 114.717H260.976C260.741 115.613 260.272 116.333 259.568 116.877C258.864 117.41 257.984 117.677 256.928 117.677C256.096 117.677 255.354 117.49 254.704 117.117C254.064 116.744 253.562 116.216 253.2 115.533C252.837 114.85 252.656 114.05 252.656 113.133ZM267.271 108.605C267.932 108.605 268.529 108.749 269.063 109.037C269.596 109.314 270.012 109.736 270.311 110.301C270.62 110.866 270.775 111.554 270.775 112.365V117.533H269.335V112.573C269.335 111.698 269.116 111.032 268.679 110.573C268.241 110.104 267.644 109.869 266.887 109.869C266.119 109.869 265.505 110.109 265.047 110.589C264.599 111.069 264.375 111.768 264.375 112.685V117.533H262.919V105.693H264.375V110.013C264.663 109.565 265.057 109.218 265.559 108.973C266.071 108.728 266.641 108.605 267.271 108.605ZM272.609 113.117C272.609 112.221 272.79 111.437 273.153 110.765C273.516 110.082 274.012 109.554 274.641 109.181C275.281 108.808 275.99 108.621 276.769 108.621C277.537 108.621 278.204 108.786 278.769 109.117C279.334 109.448 279.756 109.864 280.033 110.365V108.765H281.505V117.533H280.033V115.901C279.745 116.413 279.313 116.84 278.737 117.181C278.172 117.512 277.51 117.677 276.753 117.677C275.974 117.677 275.27 117.485 274.641 117.101C274.012 116.717 273.516 116.178 273.153 115.485C272.79 114.792 272.609 114.002 272.609 113.117ZM280.033 113.133C280.033 112.472 279.9 111.896 279.633 111.405C279.366 110.914 279.004 110.541 278.545 110.285C278.097 110.018 277.601 109.885 277.057 109.885C276.513 109.885 276.017 110.013 275.569 110.269C275.121 110.525 274.764 110.898 274.497 111.389C274.23 111.88 274.097 112.456 274.097 113.117C274.097 113.789 274.23 114.376 274.497 114.877C274.764 115.368 275.121 115.746 275.569 116.013C276.017 116.269 276.513 116.397 277.057 116.397C277.601 116.397 278.097 116.269 278.545 116.013C279.004 115.746 279.366 115.368 279.633 114.877C279.9 114.376 280.033 113.794 280.033 113.133ZM288.237 108.605C289.304 108.605 290.168 108.93 290.829 109.581C291.491 110.221 291.821 111.149 291.821 112.365V117.533H290.381V112.573C290.381 111.698 290.163 111.032 289.725 110.573C289.288 110.104 288.691 109.869 287.933 109.869C287.165 109.869 286.552 110.109 286.093 110.589C285.645 111.069 285.421 111.768 285.421 112.685V117.533H283.965V108.765H285.421V110.013C285.709 109.565 286.099 109.218 286.589 108.973C287.091 108.728 287.64 108.605 288.237 108.605ZM297.816 108.621C298.573 108.621 299.234 108.786 299.8 109.117C300.376 109.448 300.802 109.864 301.08 110.365V108.765H302.552V117.725C302.552 118.525 302.381 119.234 302.04 119.853C301.698 120.482 301.208 120.973 300.568 121.325C299.938 121.677 299.202 121.853 298.36 121.853C297.208 121.853 296.248 121.581 295.48 121.037C294.712 120.493 294.258 119.752 294.12 118.813H295.56C295.72 119.346 296.05 119.773 296.552 120.093C297.053 120.424 297.656 120.589 298.36 120.589C299.16 120.589 299.81 120.338 300.312 119.837C300.824 119.336 301.08 118.632 301.08 117.725V115.885C300.792 116.397 300.365 116.824 299.8 117.165C299.234 117.506 298.573 117.677 297.816 117.677C297.037 117.677 296.328 117.485 295.688 117.101C295.058 116.717 294.562 116.178 294.2 115.485C293.837 114.792 293.656 114.002 293.656 113.117C293.656 112.221 293.837 111.437 294.2 110.765C294.562 110.082 295.058 109.554 295.688 109.181C296.328 108.808 297.037 108.621 297.816 108.621ZM301.08 113.133C301.08 112.472 300.946 111.896 300.68 111.405C300.413 110.914 300.05 110.541 299.592 110.285C299.144 110.018 298.648 109.885 298.104 109.885C297.56 109.885 297.064 110.013 296.616 110.269C296.168 110.525 295.81 110.898 295.544 111.389C295.277 111.88 295.144 112.456 295.144 113.117C295.144 113.789 295.277 114.376 295.544 114.877C295.81 115.368 296.168 115.746 296.616 116.013C297.064 116.269 297.56 116.397 298.104 116.397C298.648 116.397 299.144 116.269 299.592 116.013C300.05 115.746 300.413 115.368 300.68 114.877C300.946 114.376 301.08 113.794 301.08 113.133ZM313.012 112.813C313.012 113.09 312.996 113.384 312.964 113.693H305.956C306.01 114.557 306.303 115.234 306.836 115.725C307.38 116.205 308.036 116.445 308.804 116.445C309.434 116.445 309.956 116.301 310.372 116.013C310.799 115.714 311.098 115.32 311.268 114.829H312.836C312.602 115.672 312.132 116.36 311.428 116.893C310.724 117.416 309.85 117.677 308.804 117.677C307.972 117.677 307.226 117.49 306.564 117.117C305.914 116.744 305.402 116.216 305.028 115.533C304.655 114.84 304.468 114.04 304.468 113.133C304.468 112.226 304.65 111.432 305.012 110.749C305.375 110.066 305.882 109.544 306.532 109.181C307.194 108.808 307.951 108.621 308.804 108.621C309.636 108.621 310.372 108.802 311.012 109.165C311.652 109.528 312.143 110.029 312.484 110.669C312.836 111.298 313.012 112.013 313.012 112.813ZM311.508 112.509C311.508 111.954 311.386 111.48 311.14 111.085C310.895 110.68 310.559 110.376 310.132 110.173C309.716 109.96 309.252 109.853 308.74 109.853C308.004 109.853 307.375 110.088 306.852 110.557C306.34 111.026 306.047 111.677 305.972 112.509H311.508ZM78.9205 131.341C78.6432 131.341 78.4085 131.245 78.2165 131.053C78.0245 130.861 77.9285 130.626 77.9285 130.349C77.9285 130.072 78.0245 129.837 78.2165 129.645C78.4085 129.453 78.6432 129.357 78.9205 129.357C79.1872 129.357 79.4112 129.453 79.5925 129.645C79.7845 129.837 79.8805 130.072 79.8805 130.349C79.8805 130.626 79.7845 130.861 79.5925 131.053C79.4112 131.245 79.1872 131.341 78.9205 131.341ZM79.6245 132.765V141.533H78.1685V132.765H79.6245ZM86.378 132.605C87.4447 132.605 88.3087 132.93 88.97 133.581C89.6314 134.221 89.962 135.149 89.962 136.365V141.533H88.522V136.573C88.522 135.698 88.3034 135.032 87.866 134.573C87.4287 134.104 86.8314 133.869 86.074 133.869C85.306 133.869 84.6927 134.109 84.234 134.589C83.786 135.069 83.562 135.768 83.562 136.685V141.533H82.106V132.765H83.562V134.013C83.85 133.565 84.2394 133.218 84.73 132.973C85.2314 132.728 85.7807 132.605 86.378 132.605ZM98.062 140.349H101.966V141.533H96.606V130.381H98.062V140.349ZM110.376 130.381V131.565H107.336V141.533H105.88V131.565H102.824V130.381H110.376ZM119.625 133.645C119.625 134.573 119.305 135.346 118.665 135.965C118.035 136.573 117.07 136.877 115.769 136.877H113.625V141.533H112.169V130.381H115.769C117.027 130.381 117.982 130.685 118.633 131.293C119.294 131.901 119.625 132.685 119.625 133.645ZM115.769 135.677C116.579 135.677 117.177 135.501 117.561 135.149C117.945 134.797 118.137 134.296 118.137 133.645C118.137 132.269 117.347 131.581 115.769 131.581H113.625V135.677H115.769ZM122.938 139.517L121.146 143.821H120.17L121.338 139.517H122.938ZM128.328 135.949C128.328 134.861 128.573 133.885 129.064 133.021C129.554 132.146 130.221 131.464 131.064 130.973C131.917 130.482 132.861 130.237 133.896 130.237C135.112 130.237 136.173 130.53 137.08 131.117C137.986 131.704 138.648 132.536 139.064 133.613H137.32C137.01 132.941 136.562 132.424 135.976 132.061C135.4 131.698 134.706 131.517 133.896 131.517C133.117 131.517 132.418 131.698 131.8 132.061C131.181 132.424 130.696 132.941 130.344 133.613C129.992 134.274 129.816 135.053 129.816 135.949C129.816 136.834 129.992 137.613 130.344 138.285C130.696 138.946 131.181 139.458 131.8 139.821C132.418 140.184 133.117 140.365 133.896 140.365C134.706 140.365 135.4 140.189 135.976 139.837C136.562 139.474 137.01 138.957 137.32 138.285H139.064C138.648 139.352 137.986 140.178 137.08 140.765C136.173 141.341 135.112 141.629 133.896 141.629C132.861 141.629 131.917 141.389 131.064 140.909C130.221 140.418 129.554 139.741 129.064 138.877C128.573 138.013 128.328 137.037 128.328 135.949ZM145.583 132.605C146.244 132.605 146.842 132.749 147.375 133.037C147.908 133.314 148.324 133.736 148.623 134.301C148.932 134.866 149.087 135.554 149.087 136.365V141.533H147.647V136.573C147.647 135.698 147.428 135.032 146.991 134.573C146.554 134.104 145.956 133.869 145.199 133.869C144.431 133.869 143.818 134.109 143.359 134.589C142.911 135.069 142.687 135.768 142.687 136.685V141.533H141.231V129.693H142.687V134.013C142.975 133.565 143.37 133.218 143.871 132.973C144.383 132.728 144.954 132.605 145.583 132.605ZM150.921 137.117C150.921 136.221 151.103 135.437 151.465 134.765C151.828 134.082 152.324 133.554 152.953 133.181C153.593 132.808 154.303 132.621 155.081 132.621C155.849 132.621 156.516 132.786 157.081 133.117C157.647 133.448 158.068 133.864 158.345 134.365V132.765H159.817V141.533H158.345V139.901C158.057 140.413 157.625 140.84 157.049 141.181C156.484 141.512 155.823 141.677 155.065 141.677C154.287 141.677 153.583 141.485 152.953 141.101C152.324 140.717 151.828 140.178 151.465 139.485C151.103 138.792 150.921 138.002 150.921 137.117ZM158.345 137.133C158.345 136.472 158.212 135.896 157.945 135.405C157.679 134.914 157.316 134.541 156.857 134.285C156.409 134.018 155.913 133.885 155.369 133.885C154.825 133.885 154.329 134.013 153.881 134.269C153.433 134.525 153.076 134.898 152.809 135.389C152.543 135.88 152.409 136.456 152.409 137.117C152.409 137.789 152.543 138.376 152.809 138.877C153.076 139.368 153.433 139.746 153.881 140.013C154.329 140.269 154.825 140.397 155.369 140.397C155.913 140.397 156.409 140.269 156.857 140.013C157.316 139.746 157.679 139.368 157.945 138.877C158.212 138.376 158.345 137.794 158.345 137.133ZM166.55 132.605C167.617 132.605 168.481 132.93 169.142 133.581C169.803 134.221 170.134 135.149 170.134 136.365V141.533H168.694V136.573C168.694 135.698 168.475 135.032 168.038 134.573C167.601 134.104 167.003 133.869 166.246 133.869C165.478 133.869 164.865 134.109 164.406 134.589C163.958 135.069 163.734 135.768 163.734 136.685V141.533H162.278V132.765H163.734V134.013C164.022 133.565 164.411 133.218 164.902 132.973C165.403 132.728 165.953 132.605 166.55 132.605ZM176.128 132.621C176.886 132.621 177.547 132.786 178.112 133.117C178.688 133.448 179.115 133.864 179.392 134.365V132.765H180.864V141.725C180.864 142.525 180.694 143.234 180.352 143.853C180.011 144.482 179.52 144.973 178.88 145.325C178.251 145.677 177.515 145.853 176.672 145.853C175.52 145.853 174.56 145.581 173.792 145.037C173.024 144.493 172.571 143.752 172.432 142.813H173.872C174.032 143.346 174.363 143.773 174.864 144.093C175.366 144.424 175.968 144.589 176.672 144.589C177.472 144.589 178.123 144.338 178.624 143.837C179.136 143.336 179.392 142.632 179.392 141.725V139.885C179.104 140.397 178.678 140.824 178.112 141.165C177.547 141.506 176.886 141.677 176.128 141.677C175.35 141.677 174.64 141.485 174 141.101C173.371 140.717 172.875 140.178 172.512 139.485C172.15 138.792 171.968 138.002 171.968 137.117C171.968 136.221 172.15 135.437 172.512 134.765C172.875 134.082 173.371 133.554 174 133.181C174.64 132.808 175.35 132.621 176.128 132.621ZM179.392 137.133C179.392 136.472 179.259 135.896 178.992 135.405C178.726 134.914 178.363 134.541 177.904 134.285C177.456 134.018 176.96 133.885 176.416 133.885C175.872 133.885 175.376 134.013 174.928 134.269C174.48 134.525 174.123 134.898 173.856 135.389C173.59 135.88 173.456 136.456 173.456 137.117C173.456 137.789 173.59 138.376 173.856 138.877C174.123 139.368 174.48 139.746 174.928 140.013C175.376 140.269 175.872 140.397 176.416 140.397C176.96 140.397 177.456 140.269 177.904 140.013C178.363 139.746 178.726 139.368 178.992 138.877C179.259 138.376 179.392 137.794 179.392 137.133ZM191.325 136.813C191.325 137.09 191.309 137.384 191.277 137.693H184.269C184.322 138.557 184.615 139.234 185.149 139.725C185.693 140.205 186.349 140.445 187.117 140.445C187.746 140.445 188.269 140.301 188.685 140.013C189.111 139.714 189.41 139.32 189.581 138.829H191.149C190.914 139.672 190.445 140.36 189.741 140.893C189.037 141.416 188.162 141.677 187.117 141.677C186.285 141.677 185.538 141.49 184.877 141.117C184.226 140.744 183.714 140.216 183.341 139.533C182.967 138.84 182.781 138.04 182.781 137.133C182.781 136.226 182.962 135.432 183.325 134.749C183.687 134.066 184.194 133.544 184.845 133.181C185.506 132.808 186.263 132.621 187.117 132.621C187.949 132.621 188.685 132.802 189.325 133.165C189.965 133.528 190.455 134.029 190.797 134.669C191.149 135.298 191.325 136.013 191.325 136.813ZM189.821 136.509C189.821 135.954 189.698 135.48 189.453 135.085C189.207 134.68 188.871 134.376 188.445 134.173C188.029 133.96 187.565 133.853 187.053 133.853C186.317 133.853 185.687 134.088 185.165 134.557C184.653 135.026 184.359 135.677 184.285 136.509H189.821ZM196.952 132.573C196.952 131.848 197.171 131.272 197.608 130.845C198.046 130.408 198.606 130.189 199.288 130.189C199.971 130.189 200.531 130.408 200.968 130.845C201.406 131.272 201.624 131.848 201.624 132.573C201.624 133.309 201.406 133.896 200.968 134.333C200.531 134.76 199.971 134.973 199.288 134.973C198.606 134.973 198.046 134.76 197.608 134.333C197.171 133.896 196.952 133.309 196.952 132.573ZM206.296 130.365L199.816 141.533H198.376L204.856 130.365H206.296ZM199.288 131.085C198.926 131.085 198.638 131.213 198.424 131.469C198.222 131.714 198.12 132.082 198.12 132.573C198.12 133.064 198.222 133.437 198.424 133.693C198.638 133.949 198.926 134.077 199.288 134.077C199.651 134.077 199.939 133.949 200.152 133.693C200.366 133.426 200.472 133.053 200.472 132.573C200.472 132.082 200.366 131.714 200.152 131.469C199.939 131.213 199.651 131.085 199.288 131.085ZM203.08 139.325C203.08 138.589 203.299 138.008 203.736 137.581C204.174 137.144 204.734 136.925 205.416 136.925C206.099 136.925 206.654 137.144 207.08 137.581C207.518 138.008 207.736 138.589 207.736 139.325C207.736 140.05 207.518 140.632 207.08 141.069C206.654 141.506 206.099 141.725 205.416 141.725C204.734 141.725 204.174 141.512 203.736 141.085C203.299 140.648 203.08 140.061 203.08 139.325ZM205.4 137.837C205.038 137.837 204.75 137.965 204.536 138.221C204.323 138.466 204.216 138.834 204.216 139.325C204.216 139.805 204.323 140.173 204.536 140.429C204.75 140.674 205.038 140.797 205.4 140.797C205.763 140.797 206.051 140.674 206.264 140.429C206.478 140.173 206.584 139.805 206.584 139.325C206.584 138.834 206.478 138.466 206.264 138.221C206.051 137.965 205.763 137.837 205.4 137.837ZM213.375 137.117C213.375 136.221 213.556 135.437 213.919 134.765C214.281 134.082 214.777 133.554 215.407 133.181C216.047 132.808 216.756 132.621 217.535 132.621C218.303 132.621 218.969 132.786 219.535 133.117C220.1 133.448 220.521 133.864 220.799 134.365V132.765H222.271V141.533H220.799V139.901C220.511 140.413 220.079 140.84 219.503 141.181C218.937 141.512 218.276 141.677 217.519 141.677C216.74 141.677 216.036 141.485 215.407 141.101C214.777 140.717 214.281 140.178 213.919 139.485C213.556 138.792 213.375 138.002 213.375 137.117ZM220.799 137.133C220.799 136.472 220.665 135.896 220.399 135.405C220.132 134.914 219.769 134.541 219.311 134.285C218.863 134.018 218.367 133.885 217.823 133.885C217.279 133.885 216.783 134.013 216.335 134.269C215.887 134.525 215.529 134.898 215.263 135.389C214.996 135.88 214.863 136.456 214.863 137.117C214.863 137.789 214.996 138.376 215.263 138.877C215.529 139.368 215.887 139.746 216.335 140.013C216.783 140.269 217.279 140.397 217.823 140.397C218.367 140.397 218.863 140.269 219.311 140.013C219.769 139.746 220.132 139.368 220.399 138.877C220.665 138.376 220.799 137.794 220.799 137.133ZM229.003 132.605C230.07 132.605 230.934 132.93 231.595 133.581C232.256 134.221 232.587 135.149 232.587 136.365V141.533H231.147V136.573C231.147 135.698 230.928 135.032 230.491 134.573C230.054 134.104 229.456 133.869 228.699 133.869C227.931 133.869 227.318 134.109 226.859 134.589C226.411 135.069 226.187 135.768 226.187 136.685V141.533H224.731V132.765H226.187V134.013C226.475 133.565 226.864 133.218 227.355 132.973C227.856 132.728 228.406 132.605 229.003 132.605ZM234.421 137.117C234.421 136.221 234.603 135.437 234.965 134.765C235.328 134.082 235.824 133.554 236.453 133.181C237.093 132.808 237.808 132.621 238.597 132.621C239.28 132.621 239.915 132.781 240.501 133.101C241.088 133.41 241.536 133.821 241.845 134.333V129.693H243.317V141.533H241.845V139.885C241.557 140.408 241.131 140.84 240.565 141.181C240 141.512 239.339 141.677 238.581 141.677C237.803 141.677 237.093 141.485 236.453 141.101C235.824 140.717 235.328 140.178 234.965 139.485C234.603 138.792 234.421 138.002 234.421 137.117ZM241.845 137.133C241.845 136.472 241.712 135.896 241.445 135.405C241.179 134.914 240.816 134.541 240.357 134.285C239.909 134.018 239.413 133.885 238.869 133.885C238.325 133.885 237.829 134.013 237.381 134.269C236.933 134.525 236.576 134.898 236.309 135.389C236.043 135.88 235.909 136.456 235.909 137.117C235.909 137.789 236.043 138.376 236.309 138.877C236.576 139.368 236.933 139.746 237.381 140.013C237.829 140.269 238.325 140.397 238.869 140.397C239.413 140.397 239.909 140.269 240.357 140.013C240.816 139.746 241.179 139.368 241.445 138.877C241.712 138.376 241.845 137.794 241.845 137.133ZM254.316 132.605C255.382 132.605 256.246 132.93 256.908 133.581C257.569 134.221 257.9 135.149 257.9 136.365V141.533H256.46V136.573C256.46 135.698 256.241 135.032 255.804 134.573C255.366 134.104 254.769 133.869 254.012 133.869C253.244 133.869 252.63 134.109 252.172 134.589C251.724 135.069 251.5 135.768 251.5 136.685V141.533H250.044V132.765H251.5V134.013C251.788 133.565 252.177 133.218 252.668 132.973C253.169 132.728 253.718 132.605 254.316 132.605ZM268.278 136.813C268.278 137.09 268.262 137.384 268.23 137.693H261.222C261.275 138.557 261.569 139.234 262.102 139.725C262.646 140.205 263.302 140.445 264.07 140.445C264.699 140.445 265.222 140.301 265.638 140.013C266.065 139.714 266.363 139.32 266.534 138.829H268.102C267.867 139.672 267.398 140.36 266.694 140.893C265.99 141.416 265.115 141.677 264.07 141.677C263.238 141.677 262.491 141.49 261.83 141.117C261.179 140.744 260.667 140.216 260.294 139.533C259.921 138.84 259.734 138.04 259.734 137.133C259.734 136.226 259.915 135.432 260.278 134.749C260.641 134.066 261.147 133.544 261.798 133.181C262.459 132.808 263.217 132.621 264.07 132.621C264.902 132.621 265.638 132.802 266.278 133.165C266.918 133.528 267.409 134.029 267.75 134.669C268.102 135.298 268.278 136.013 268.278 136.813ZM266.774 136.509C266.774 135.954 266.651 135.48 266.406 135.085C266.161 134.68 265.825 134.376 265.398 134.173C264.982 133.96 264.518 133.853 264.006 133.853C263.27 133.853 262.641 134.088 262.118 134.557C261.606 135.026 261.313 135.677 261.238 136.509H266.774ZM273.464 140.189L276.184 132.765H277.736L274.296 141.533H272.6L269.16 132.765H270.728L273.464 140.189ZM287.169 136.813C287.169 137.09 287.153 137.384 287.121 137.693H280.113C280.166 138.557 280.459 139.234 280.993 139.725C281.537 140.205 282.193 140.445 282.961 140.445C283.59 140.445 284.113 140.301 284.529 140.013C284.955 139.714 285.254 139.32 285.425 138.829H286.993C286.758 139.672 286.289 140.36 285.585 140.893C284.881 141.416 284.006 141.677 282.961 141.677C282.129 141.677 281.382 141.49 280.721 141.117C280.07 140.744 279.558 140.216 279.185 139.533C278.811 138.84 278.625 138.04 278.625 137.133C278.625 136.226 278.806 135.432 279.169 134.749C279.531 134.066 280.038 133.544 280.689 133.181C281.35 132.808 282.107 132.621 282.961 132.621C283.793 132.621 284.529 132.802 285.169 133.165C285.809 133.528 286.299 134.029 286.641 134.669C286.993 135.298 287.169 136.013 287.169 136.813ZM285.665 136.509C285.665 135.954 285.542 135.48 285.297 135.085C285.051 134.68 284.715 134.376 284.289 134.173C283.873 133.96 283.409 133.853 282.897 133.853C282.161 133.853 281.531 134.088 281.009 134.557C280.497 135.026 280.203 135.677 280.129 136.509H285.665ZM290.546 134.189C290.802 133.688 291.165 133.298 291.634 133.021C292.114 132.744 292.696 132.605 293.378 132.605V134.109H292.994C291.362 134.109 290.546 134.994 290.546 136.765V141.533H289.09V132.765H290.546V134.189ZM88.7125 156.605C89.3952 156.605 90.0032 156.749 90.5365 157.037C91.0699 157.314 91.4912 157.736 91.8005 158.301C92.1099 158.866 92.2645 159.554 92.2645 160.365V165.533H90.8245V160.573C90.8245 159.698 90.6059 159.032 90.1685 158.573C89.7419 158.104 89.1605 157.869 88.4245 157.869C87.6672 157.869 87.0645 158.114 86.6165 158.605C86.1685 159.085 85.9445 159.784 85.9445 160.701V165.533H84.5045V160.573C84.5045 159.698 84.2859 159.032 83.8485 158.573C83.4219 158.104 82.8405 157.869 82.1045 157.869C81.3472 157.869 80.7445 158.114 80.2965 158.605C79.8485 159.085 79.6245 159.784 79.6245 160.701V165.533H78.1685V156.765H79.6245V158.029C79.9125 157.57 80.2965 157.218 80.7765 156.973C81.2672 156.728 81.8059 156.605 82.3925 156.605C83.1285 156.605 83.7792 156.77 84.3445 157.101C84.9099 157.432 85.3312 157.917 85.6085 158.557C85.8539 157.938 86.2592 157.458 86.8245 157.117C87.3899 156.776 88.0192 156.605 88.7125 156.605ZM95.4049 155.341C95.1276 155.341 94.8929 155.245 94.7009 155.053C94.5089 154.861 94.4129 154.626 94.4129 154.349C94.4129 154.072 94.5089 153.837 94.7009 153.645C94.8929 153.453 95.1276 153.357 95.4049 153.357C95.6716 153.357 95.8956 153.453 96.0769 153.645C96.2689 153.837 96.3649 154.072 96.3649 154.349C96.3649 154.626 96.2689 154.861 96.0769 155.053C95.8956 155.245 95.6716 155.341 95.4049 155.341ZM96.1089 156.765V165.533H94.6529V156.765H96.1089ZM101.694 165.677C101.022 165.677 100.42 165.565 99.8864 165.341C99.3531 165.106 98.9317 164.786 98.6224 164.381C98.3131 163.965 98.1424 163.49 98.1104 162.957H99.6144C99.6571 163.394 99.8597 163.752 100.222 164.029C100.596 164.306 101.081 164.445 101.678 164.445C102.233 164.445 102.67 164.322 102.99 164.077C103.31 163.832 103.47 163.522 103.47 163.149C103.47 162.765 103.3 162.482 102.958 162.301C102.617 162.109 102.089 161.922 101.374 161.741C100.724 161.57 100.19 161.4 99.7744 161.229C99.3691 161.048 99.0171 160.786 98.7184 160.445C98.4304 160.093 98.2864 159.634 98.2864 159.069C98.2864 158.621 98.4197 158.21 98.6864 157.837C98.9531 157.464 99.3317 157.17 99.8224 156.957C100.313 156.733 100.873 156.621 101.502 156.621C102.473 156.621 103.257 156.866 103.854 157.357C104.452 157.848 104.772 158.52 104.814 159.373H103.358C103.326 158.914 103.14 158.546 102.798 158.269C102.468 157.992 102.02 157.853 101.454 157.853C100.932 157.853 100.516 157.965 100.206 158.189C99.8971 158.413 99.7424 158.706 99.7424 159.069C99.7424 159.357 99.8331 159.597 100.014 159.789C100.206 159.97 100.441 160.12 100.718 160.237C101.006 160.344 101.401 160.466 101.902 160.605C102.532 160.776 103.044 160.946 103.438 161.117C103.833 161.277 104.169 161.522 104.446 161.853C104.734 162.184 104.884 162.616 104.894 163.149C104.894 163.629 104.761 164.061 104.494 164.445C104.228 164.829 103.849 165.133 103.358 165.357C102.878 165.57 102.324 165.677 101.694 165.677ZM110.054 165.677C109.382 165.677 108.779 165.565 108.246 165.341C107.712 165.106 107.291 164.786 106.982 164.381C106.672 163.965 106.502 163.49 106.47 162.957H107.974C108.016 163.394 108.219 163.752 108.582 164.029C108.955 164.306 109.44 164.445 110.038 164.445C110.592 164.445 111.03 164.322 111.35 164.077C111.67 163.832 111.83 163.522 111.83 163.149C111.83 162.765 111.659 162.482 111.318 162.301C110.976 162.109 110.448 161.922 109.734 161.741C109.083 161.57 108.55 161.4 108.134 161.229C107.728 161.048 107.376 160.786 107.078 160.445C106.79 160.093 106.646 159.634 106.646 159.069C106.646 158.621 106.779 158.21 107.046 157.837C107.312 157.464 107.691 157.17 108.182 156.957C108.672 156.733 109.232 156.621 109.862 156.621C110.832 156.621 111.616 156.866 112.214 157.357C112.811 157.848 113.131 158.52 113.174 159.373H111.718C111.686 158.914 111.499 158.546 111.158 158.269C110.827 157.992 110.379 157.853 109.814 157.853C109.291 157.853 108.875 157.965 108.566 158.189C108.256 158.413 108.102 158.706 108.102 159.069C108.102 159.357 108.192 159.597 108.374 159.789C108.566 159.97 108.8 160.12 109.078 160.237C109.366 160.344 109.76 160.466 110.262 160.605C110.891 160.776 111.403 160.946 111.798 161.117C112.192 161.277 112.528 161.522 112.806 161.853C113.094 162.184 113.243 162.616 113.254 163.149C113.254 163.629 113.12 164.061 112.854 164.445C112.587 164.829 112.208 165.133 111.718 165.357C111.238 165.57 110.683 165.677 110.054 165.677ZM119.031 161.117C119.031 160.221 119.212 159.437 119.575 158.765C119.937 158.082 120.433 157.554 121.063 157.181C121.703 156.808 122.412 156.621 123.191 156.621C123.959 156.621 124.625 156.786 125.191 157.117C125.756 157.448 126.177 157.864 126.455 158.365V156.765H127.927V165.533H126.455V163.901C126.167 164.413 125.735 164.84 125.159 165.181C124.593 165.512 123.932 165.677 123.175 165.677C122.396 165.677 121.692 165.485 121.063 165.101C120.433 164.717 119.937 164.178 119.575 163.485C119.212 162.792 119.031 162.002 119.031 161.117ZM126.455 161.133C126.455 160.472 126.321 159.896 126.055 159.405C125.788 158.914 125.425 158.541 124.967 158.285C124.519 158.018 124.023 157.885 123.479 157.885C122.935 157.885 122.439 158.013 121.991 158.269C121.543 158.525 121.185 158.898 120.919 159.389C120.652 159.88 120.519 160.456 120.519 161.117C120.519 161.789 120.652 162.376 120.919 162.877C121.185 163.368 121.543 163.746 121.991 164.013C122.439 164.269 122.935 164.397 123.479 164.397C124.023 164.397 124.519 164.269 124.967 164.013C125.425 163.746 125.788 163.368 126.055 162.877C126.321 162.376 126.455 161.794 126.455 161.133ZM145.197 156.605C145.88 156.605 146.488 156.749 147.021 157.037C147.554 157.314 147.976 157.736 148.285 158.301C148.594 158.866 148.749 159.554 148.749 160.365V165.533H147.309V160.573C147.309 159.698 147.09 159.032 146.653 158.573C146.226 158.104 145.645 157.869 144.909 157.869C144.152 157.869 143.549 158.114 143.101 158.605C142.653 159.085 142.429 159.784 142.429 160.701V165.533H140.989V160.573C140.989 159.698 140.77 159.032 140.333 158.573C139.906 158.104 139.325 157.869 138.589 157.869C137.832 157.869 137.229 158.114 136.781 158.605C136.333 159.085 136.109 159.784 136.109 160.701V165.533H134.653V156.765H136.109V158.029C136.397 157.57 136.781 157.218 137.261 156.973C137.752 156.728 138.29 156.605 138.877 156.605C139.613 156.605 140.264 156.77 140.829 157.101C141.394 157.432 141.816 157.917 142.093 158.557C142.338 157.938 142.744 157.458 143.309 157.117C143.874 156.776 144.504 156.605 145.197 156.605ZM150.593 161.117C150.593 160.221 150.775 159.437 151.137 158.765C151.5 158.082 151.996 157.554 152.625 157.181C153.265 156.808 153.975 156.621 154.753 156.621C155.521 156.621 156.188 156.786 156.753 157.117C157.319 157.448 157.74 157.864 158.017 158.365V156.765H159.489V165.533H158.017V163.901C157.729 164.413 157.297 164.84 156.721 165.181C156.156 165.512 155.495 165.677 154.737 165.677C153.959 165.677 153.255 165.485 152.625 165.101C151.996 164.717 151.5 164.178 151.137 163.485C150.775 162.792 150.593 162.002 150.593 161.117ZM158.017 161.133C158.017 160.472 157.884 159.896 157.617 159.405C157.351 158.914 156.988 158.541 156.529 158.285C156.081 158.018 155.585 157.885 155.041 157.885C154.497 157.885 154.001 158.013 153.553 158.269C153.105 158.525 152.748 158.898 152.481 159.389C152.215 159.88 152.081 160.456 152.081 161.117C152.081 161.789 152.215 162.376 152.481 162.877C152.748 163.368 153.105 163.746 153.553 164.013C154.001 164.269 154.497 164.397 155.041 164.397C155.585 164.397 156.081 164.269 156.529 164.013C156.988 163.746 157.351 163.368 157.617 162.877C157.884 162.376 158.017 161.794 158.017 161.133ZM163.406 158.189C163.662 157.688 164.024 157.298 164.494 157.021C164.974 156.744 165.555 156.605 166.238 156.605V158.109H165.854C164.222 158.109 163.406 158.994 163.406 160.765V165.533H161.95V156.765H163.406V158.189ZM172.815 165.533L169.375 161.661V165.533H167.919V153.693H169.375V160.653L172.751 156.765H174.783L170.655 161.133L174.799 165.533H172.815ZM184.153 160.813C184.153 161.09 184.137 161.384 184.105 161.693H177.097C177.15 162.557 177.444 163.234 177.977 163.725C178.521 164.205 179.177 164.445 179.945 164.445C180.574 164.445 181.097 164.301 181.513 164.013C181.94 163.714 182.238 163.32 182.409 162.829H183.977C183.742 163.672 183.273 164.36 182.569 164.893C181.865 165.416 180.99 165.677 179.945 165.677C179.113 165.677 178.366 165.49 177.705 165.117C177.054 164.744 176.542 164.216 176.169 163.533C175.796 162.84 175.609 162.04 175.609 161.133C175.609 160.226 175.79 159.432 176.153 158.749C176.516 158.066 177.022 157.544 177.673 157.181C178.334 156.808 179.092 156.621 179.945 156.621C180.777 156.621 181.513 156.802 182.153 157.165C182.793 157.528 183.284 158.029 183.625 158.669C183.977 159.298 184.153 160.013 184.153 160.813ZM182.649 160.509C182.649 159.954 182.526 159.48 182.281 159.085C182.036 158.68 181.7 158.376 181.273 158.173C180.857 157.96 180.393 157.853 179.881 157.853C179.145 157.853 178.516 158.088 177.993 158.557C177.481 159.026 177.188 159.677 177.113 160.509H182.649ZM187.851 157.965V163.133C187.851 163.56 187.941 163.864 188.123 164.045C188.304 164.216 188.619 164.301 189.067 164.301H190.139V165.533H188.827C188.016 165.533 187.408 165.346 187.003 164.973C186.597 164.6 186.395 163.986 186.395 163.133V157.965H185.259V156.765H186.395V154.557H187.851V156.765H190.139V157.965H187.851ZM199.993 165.677C199.171 165.677 198.425 165.49 197.753 165.117C197.091 164.744 196.569 164.216 196.185 163.533C195.811 162.84 195.625 162.04 195.625 161.133C195.625 160.237 195.817 159.448 196.201 158.765C196.595 158.072 197.129 157.544 197.801 157.181C198.473 156.808 199.225 156.621 200.057 156.621C200.889 156.621 201.641 156.808 202.313 157.181C202.985 157.544 203.513 158.066 203.897 158.749C204.291 159.432 204.489 160.226 204.489 161.133C204.489 162.04 204.286 162.84 203.881 163.533C203.486 164.216 202.947 164.744 202.265 165.117C201.582 165.49 200.825 165.677 199.993 165.677ZM199.993 164.397C200.515 164.397 201.006 164.274 201.465 164.029C201.923 163.784 202.291 163.416 202.569 162.925C202.857 162.434 203.001 161.837 203.001 161.133C203.001 160.429 202.862 159.832 202.585 159.341C202.307 158.85 201.945 158.488 201.497 158.253C201.049 158.008 200.563 157.885 200.041 157.885C199.507 157.885 199.017 158.008 198.569 158.253C198.131 158.488 197.779 158.85 197.513 159.341C197.246 159.832 197.113 160.429 197.113 161.133C197.113 161.848 197.241 162.45 197.497 162.941C197.763 163.432 198.115 163.8 198.553 164.045C198.99 164.28 199.47 164.397 199.993 164.397ZM207.859 158.381C208.147 157.88 208.574 157.464 209.139 157.133C209.715 156.792 210.382 156.621 211.139 156.621C211.918 156.621 212.622 156.808 213.251 157.181C213.891 157.554 214.392 158.082 214.755 158.765C215.118 159.437 215.299 160.221 215.299 161.117C215.299 162.002 215.118 162.792 214.755 163.485C214.392 164.178 213.891 164.717 213.251 165.101C212.622 165.485 211.918 165.677 211.139 165.677C210.392 165.677 209.731 165.512 209.155 165.181C208.59 164.84 208.158 164.418 207.859 163.917V169.693H206.403V156.765H207.859V158.381ZM213.811 161.117C213.811 160.456 213.678 159.88 213.411 159.389C213.144 158.898 212.782 158.525 212.323 158.269C211.875 158.013 211.379 157.885 210.835 157.885C210.302 157.885 209.806 158.018 209.347 158.285C208.899 158.541 208.536 158.92 208.259 159.421C207.992 159.912 207.859 160.482 207.859 161.133C207.859 161.794 207.992 162.376 208.259 162.877C208.536 163.368 208.899 163.746 209.347 164.013C209.806 164.269 210.302 164.397 210.835 164.397C211.379 164.397 211.875 164.269 212.323 164.013C212.782 163.746 213.144 163.368 213.411 162.877C213.678 162.376 213.811 161.789 213.811 161.117ZM218.671 158.381C218.959 157.88 219.386 157.464 219.951 157.133C220.527 156.792 221.194 156.621 221.951 156.621C222.73 156.621 223.434 156.808 224.063 157.181C224.703 157.554 225.205 158.082 225.567 158.765C225.93 159.437 226.111 160.221 226.111 161.117C226.111 162.002 225.93 162.792 225.567 163.485C225.205 164.178 224.703 164.717 224.063 165.101C223.434 165.485 222.73 165.677 221.951 165.677C221.205 165.677 220.543 165.512 219.967 165.181C219.402 164.84 218.97 164.418 218.671 163.917V169.693H217.215V156.765H218.671V158.381ZM224.623 161.117C224.623 160.456 224.49 159.88 224.223 159.389C223.957 158.898 223.594 158.525 223.135 158.269C222.687 158.013 222.191 157.885 221.647 157.885C221.114 157.885 220.618 158.018 220.159 158.285C219.711 158.541 219.349 158.92 219.071 159.421C218.805 159.912 218.671 160.482 218.671 161.133C218.671 161.794 218.805 162.376 219.071 162.877C219.349 163.368 219.711 163.746 220.159 164.013C220.618 164.269 221.114 164.397 221.647 164.397C222.191 164.397 222.687 164.269 223.135 164.013C223.594 163.746 223.957 163.368 224.223 162.877C224.49 162.376 224.623 161.789 224.623 161.117ZM231.852 165.677C231.031 165.677 230.284 165.49 229.612 165.117C228.951 164.744 228.428 164.216 228.044 163.533C227.671 162.84 227.484 162.04 227.484 161.133C227.484 160.237 227.676 159.448 228.06 158.765C228.455 158.072 228.988 157.544 229.66 157.181C230.332 156.808 231.084 156.621 231.916 156.621C232.748 156.621 233.5 156.808 234.172 157.181C234.844 157.544 235.372 158.066 235.756 158.749C236.151 159.432 236.348 160.226 236.348 161.133C236.348 162.04 236.145 162.84 235.74 163.533C235.345 164.216 234.807 164.744 234.124 165.117C233.441 165.49 232.684 165.677 231.852 165.677ZM231.852 164.397C232.375 164.397 232.865 164.274 233.324 164.029C233.783 163.784 234.151 163.416 234.428 162.925C234.716 162.434 234.86 161.837 234.86 161.133C234.86 160.429 234.721 159.832 234.444 159.341C234.167 158.85 233.804 158.488 233.356 158.253C232.908 158.008 232.423 157.885 231.9 157.885C231.367 157.885 230.876 158.008 230.428 158.253C229.991 158.488 229.639 158.85 229.372 159.341C229.105 159.832 228.972 160.429 228.972 161.133C228.972 161.848 229.1 162.45 229.356 162.941C229.623 163.432 229.975 163.8 230.412 164.045C230.849 164.28 231.329 164.397 231.852 164.397ZM239.718 158.189C239.974 157.688 240.337 157.298 240.806 157.021C241.286 156.744 241.868 156.605 242.55 156.605V158.109H242.166C240.534 158.109 239.718 158.994 239.718 160.765V165.533H238.262V156.765H239.718V158.189ZM246.007 157.965V163.133C246.007 163.56 246.098 163.864 246.279 164.045C246.46 164.216 246.775 164.301 247.223 164.301H248.295V165.533H246.983C246.172 165.533 245.564 165.346 245.159 164.973C244.754 164.6 244.551 163.986 244.551 163.133V157.965H243.415V156.765H244.551V154.557H246.007V156.765H248.295V157.965H246.007ZM257.835 156.765V165.533H256.379V164.237C256.102 164.685 255.712 165.037 255.211 165.293C254.72 165.538 254.176 165.661 253.579 165.661C252.896 165.661 252.283 165.522 251.739 165.245C251.195 164.957 250.763 164.53 250.443 163.965C250.134 163.4 249.979 162.712 249.979 161.901V156.765H251.419V161.709C251.419 162.573 251.638 163.24 252.075 163.709C252.512 164.168 253.11 164.397 253.867 164.397C254.646 164.397 255.259 164.157 255.707 163.677C256.155 163.197 256.379 162.498 256.379 161.581V156.765H257.835ZM264.566 156.605C265.632 156.605 266.496 156.93 267.158 157.581C267.819 158.221 268.15 159.149 268.15 160.365V165.533H266.71V160.573C266.71 159.698 266.491 159.032 266.054 158.573C265.616 158.104 265.019 157.869 264.262 157.869C263.494 157.869 262.88 158.109 262.422 158.589C261.974 159.069 261.75 159.768 261.75 160.685V165.533H260.294V156.765H261.75V158.013C262.038 157.565 262.427 157.218 262.918 156.973C263.419 156.728 263.968 156.605 264.566 156.605ZM271.28 155.341C271.003 155.341 270.768 155.245 270.576 155.053C270.384 154.861 270.288 154.626 270.288 154.349C270.288 154.072 270.384 153.837 270.576 153.645C270.768 153.453 271.003 153.357 271.28 153.357C271.547 153.357 271.771 153.453 271.952 153.645C272.144 153.837 272.24 154.072 272.24 154.349C272.24 154.626 272.144 154.861 271.952 155.053C271.771 155.245 271.547 155.341 271.28 155.341ZM271.984 156.765V165.533H270.528V156.765H271.984ZM276.241 157.965V163.133C276.241 163.56 276.332 163.864 276.513 164.045C276.695 164.216 277.009 164.301 277.457 164.301H278.529V165.533H277.217C276.407 165.533 275.799 165.346 275.393 164.973C274.988 164.6 274.785 163.986 274.785 163.133V157.965H273.649V156.765H274.785V154.557H276.241V156.765H278.529V157.965H276.241ZM287.846 156.765L282.566 169.661H281.062L282.79 165.437L279.254 156.765H280.87L283.622 163.869L286.342 156.765H287.846ZM289.773 165.629C289.496 165.629 289.261 165.533 289.069 165.341C288.877 165.149 288.781 164.914 288.781 164.637C288.781 164.36 288.877 164.125 289.069 163.933C289.261 163.741 289.496 163.645 289.773 163.645C290.04 163.645 290.264 163.741 290.445 163.933C290.637 164.125 290.733 164.36 290.733 164.637C290.733 164.914 290.637 165.149 290.445 165.341C290.264 165.533 290.04 165.629 289.773 165.629Z" fill="#5C5C5C"/>
</g>
<defs>
<filter id="filter0_bd_1790_9579" x="19.9365" y="2.53305" width="365" height="225" filterUnits="userSpaceOnUse" color-interpolation-filters="sRGB">
<feFlood flood-opacity="0" result="BackgroundImageFix"/>
<feGaussianBlur in="BackgroundImageFix" stdDeviation="13"/>
<feComposite in2="SourceAlpha" operator="in" result="effect1_backgroundBlur_1790_9579"/>
<feColorMatrix in="SourceAlpha" type="matrix" values="0 0 0 0 0 0 0 0 0 0 0 0 0 0 0 0 0 0 127 0" result="hardAlpha"/>
<feOffset dy="8"/>
<feGaussianBlur stdDeviation="10.5"/>
<feComposite in2="hardAlpha" operator="out"/>
<feColorMatrix type="matrix" values="0 0 0 0 0.1125 0 0 0 0 0.1125 0 0 0 0 0.1125 0 0 0 0.06 0"/>
<feBlend mode="normal" in2="effect1_backgroundBlur_1790_9579" result="effect2_dropShadow_1790_9579"/>
<feBlend mode="normal" in="SourceGraphic" in2="effect2_dropShadow_1790_9579" result="shape"/>
</filter>
</defs>
</svg>
