<svg width="376" height="228" viewBox="0 0 376 228" fill="none" xmlns="http://www.w3.org/2000/svg">
<path fill-rule="evenodd" clip-rule="evenodd" d="M9.10188 0.844613H46.9474C83.7294 0.819877 84.8425 0.844613 86.4008 1.31459C87.2913 1.56195 88.5775 2.18034 89.2454 2.67505C89.938 3.14503 90.8532 4.01078 91.2985 4.60443C91.7437 5.17335 92.3621 6.26172 93.2031 8.36425L93.3268 111.017L92.7826 112.13C92.461 112.749 91.8179 113.491 91.3479 113.812C90.878 114.134 90.2101 114.455 89.8638 114.53C89.5175 114.604 88.8496 114.53 88.3797 114.357C87.9097 114.183 84.4962 111.982 80.7858 109.434C77.1002 106.911 74.033 104.833 73.9588 104.833C73.8846 104.833 71.0152 106.837 67.577 109.31C64.114 111.784 60.9231 113.961 60.5026 114.208C60.0573 114.431 59.4637 114.604 59.1916 114.604C58.9195 114.604 58.2764 114.406 57.7816 114.159C57.2622 113.936 54.6402 111.809 47.0711 105.204L42.124 109.533C39.4031 111.908 36.7563 114.035 36.2369 114.233C35.7422 114.455 35.1238 114.604 34.8764 114.604C34.6538 114.604 34.0354 114.381 33.516 114.134C33.0213 113.862 29.8304 111.636 20.2329 104.759L17.6357 106.54C16.201 107.53 13.1338 109.607 10.8334 111.19C8.53295 112.749 6.23254 114.183 5.76256 114.357C5.29258 114.53 4.62472 114.604 4.27842 114.53C3.93212 114.455 3.26426 114.134 2.79428 113.812C2.3243 113.491 1.68118 112.773 0.81543 111.265L0.939108 8.36425L1.48329 7.00379C1.78012 6.26172 2.39851 5.17335 2.86849 4.60443C3.33847 4.03551 4.20421 3.1945 4.79787 2.74926C5.39153 2.30402 6.60357 1.68562 7.49406 1.3888L9.10188 0.844613ZM23.3496 23.1562C23.0281 23.453 22.6075 23.9972 22.4344 24.3682C22.2365 24.7393 22.0881 25.5308 22.0634 26.0997C22.0634 26.7923 22.2612 27.4602 22.6323 28.0044C22.9291 28.4743 23.498 29.068 23.8938 29.3648C24.5864 29.8843 24.6606 29.8843 47.0711 29.8843C69.4816 29.8843 69.5311 29.8843 70.2237 29.3648C70.6195 29.068 71.1884 28.4743 71.4852 28.0044C71.881 27.4354 72.0541 26.7923 72.0541 26.0502C72.0541 25.3082 71.881 24.6651 71.4852 24.0961C71.1884 23.6262 70.6195 23.0078 70.2237 22.7357C69.5311 22.2162 69.4321 22.2162 47.3432 22.1668C32.9471 22.142 24.9574 22.1915 24.5617 22.3646C24.2154 22.5131 23.6712 22.8594 23.3496 23.1562ZM24.3143 43.662C23.6959 43.9836 22.9291 44.6267 22.6075 45.0967C22.1376 45.7893 22.0634 46.2098 22.1376 47.3229C22.187 48.1639 22.4097 48.9555 22.7312 49.4254C23.0033 49.8212 23.6464 50.3654 24.1412 50.588C24.9822 51.0085 26.6147 51.0333 47.0711 51.0333C67.5275 51.0333 69.1353 51.0085 69.9763 50.588C70.471 50.3654 71.1142 49.8212 71.3863 49.4254C71.7078 48.9555 71.9552 48.1639 72.0046 47.3229C72.0789 46.2098 71.9799 45.7893 71.5099 45.0967C71.1884 44.6267 70.4216 43.9836 69.8279 43.662L68.7148 43.1179H25.4274L24.3143 43.662ZM22.756 65.9489C22.4097 66.4436 22.187 67.2104 22.1376 68.0761C22.0634 69.1892 22.1376 69.6097 22.6075 70.3023C22.9291 70.7971 23.6959 71.4402 24.3143 71.737L25.4274 72.3059C48.0853 72.1575 48.1842 72.1575 49.0994 71.6133C49.6436 71.267 50.2373 70.6239 50.5588 70.0055C50.9546 69.214 51.0536 68.6698 50.9299 67.8288C50.8557 67.2351 50.5836 66.4436 50.3362 66.0973C50.0641 65.7757 49.4705 65.2315 49.0252 64.9347L48.1842 64.3658C26.3674 64.3905 24.8338 64.44 24.0917 64.7863C23.6464 65.0089 23.0528 65.5284 22.756 65.9489Z" fill="#118B64"/>
<g filter="url(#filter0_bd_1790_9577)">
<rect x="41.6919" y="28.5525" width="313" height="170" rx="14" fill="white" fill-opacity="0.85" shape-rendering="crispEdges"/>
<g opacity="0.8">
<path d="M78.7719 76.6925C77.8386 76.6925 76.9986 76.5325 76.2519 76.2125C75.5052 75.8792 74.9186 75.4125 74.4919 74.8125C74.0652 74.2125 73.8519 73.5125 73.8519 72.7125H76.2919C76.3452 73.3125 76.5786 73.8058 76.9919 74.1925C77.4186 74.5792 78.0119 74.7725 78.7719 74.7725C79.5586 74.7725 80.1719 74.5858 80.6119 74.2125C81.0519 73.8258 81.2719 73.3325 81.2719 72.7325C81.2719 72.2658 81.1319 71.8858 80.8519 71.5925C80.5852 71.2992 80.2452 71.0725 79.8319 70.9125C79.4319 70.7525 78.8719 70.5792 78.1519 70.3925C77.2452 70.1525 76.5052 69.9125 75.9319 69.6725C75.3719 69.4192 74.8919 69.0325 74.4919 68.5125C74.0919 67.9925 73.8919 67.2992 73.8919 66.4325C73.8919 65.6325 74.0919 64.9325 74.4919 64.3325C74.8919 63.7325 75.4519 63.2725 76.1719 62.9525C76.8919 62.6325 77.7252 62.4725 78.6719 62.4725C80.0186 62.4725 81.1186 62.8125 81.9719 63.4925C82.8386 64.1592 83.3186 65.0792 83.4119 66.2525H80.8919C80.8519 65.7458 80.6119 65.3125 80.1719 64.9525C79.7319 64.5925 79.1519 64.4125 78.4319 64.4125C77.7786 64.4125 77.2452 64.5792 76.8319 64.9125C76.4186 65.2458 76.2119 65.7258 76.2119 66.3525C76.2119 66.7792 76.3386 67.1325 76.5919 67.4125C76.8586 67.6792 77.1919 67.8925 77.5919 68.0525C77.9919 68.2125 78.5386 68.3858 79.2319 68.5725C80.1519 68.8258 80.8986 69.0792 81.4719 69.3325C82.0586 69.5858 82.5519 69.9792 82.9519 70.5125C83.3652 71.0325 83.5719 71.7325 83.5719 72.6125C83.5719 73.3192 83.3786 73.9858 82.9919 74.6125C82.6186 75.2392 82.0652 75.7458 81.3319 76.1325C80.6119 76.5058 79.7586 76.6925 78.7719 76.6925ZM88.5422 61.7525V76.5525H86.2622V61.7525H88.5422ZM101.636 70.7725C101.636 71.1858 101.609 71.5592 101.556 71.8925H93.1356C93.2023 72.7725 93.529 73.4792 94.1156 74.0125C94.7023 74.5458 95.4223 74.8125 96.2756 74.8125C97.5023 74.8125 98.369 74.2992 98.8756 73.2725H101.336C101.002 74.2858 100.396 75.1192 99.5156 75.7725C98.649 76.4125 97.569 76.7325 96.2756 76.7325C95.2223 76.7325 94.2756 76.4992 93.4356 76.0325C92.609 75.5525 91.9556 74.8858 91.4756 74.0325C91.009 73.1658 90.7756 72.1658 90.7756 71.0325C90.7756 69.8992 91.0023 68.9058 91.4556 68.0525C91.9223 67.1858 92.569 66.5192 93.3956 66.0525C94.2356 65.5858 95.1956 65.3525 96.2756 65.3525C97.3156 65.3525 98.2423 65.5792 99.0556 66.0325C99.869 66.4858 100.502 67.1258 100.956 67.9525C101.409 68.7658 101.636 69.7058 101.636 70.7725ZM99.2556 70.0525C99.2423 69.2125 98.9423 68.5392 98.3556 68.0325C97.769 67.5258 97.0423 67.2725 96.1756 67.2725C95.389 67.2725 94.7156 67.5258 94.1556 68.0325C93.5956 68.5258 93.2623 69.1992 93.1556 70.0525H99.2556ZM113.979 70.7725C113.979 71.1858 113.953 71.5592 113.899 71.8925H105.479C105.546 72.7725 105.873 73.4792 106.459 74.0125C107.046 74.5458 107.766 74.8125 108.619 74.8125C109.846 74.8125 110.713 74.2992 111.219 73.2725H113.679C113.346 74.2858 112.739 75.1192 111.859 75.7725C110.993 76.4125 109.913 76.7325 108.619 76.7325C107.566 76.7325 106.619 76.4992 105.779 76.0325C104.953 75.5525 104.299 74.8858 103.819 74.0325C103.353 73.1658 103.119 72.1658 103.119 71.0325C103.119 69.8992 103.346 68.9058 103.799 68.0525C104.266 67.1858 104.913 66.5192 105.739 66.0525C106.579 65.5858 107.539 65.3525 108.619 65.3525C109.659 65.3525 110.586 65.5792 111.399 66.0325C112.213 66.4858 112.846 67.1258 113.299 67.9525C113.753 68.7658 113.979 69.7058 113.979 70.7725ZM111.599 70.0525C111.586 69.2125 111.286 68.5392 110.699 68.0325C110.113 67.5258 109.386 67.2725 108.519 67.2725C107.733 67.2725 107.059 67.5258 106.499 68.0325C105.939 68.5258 105.606 69.1992 105.499 70.0525H111.599ZM120.583 71.0525L125.663 76.5525H122.583L118.503 71.8125V76.5525H116.223V61.7525H118.503V70.3525L122.503 65.5325H125.663L120.583 71.0525ZM138.833 76.6925C137.539 76.6925 136.346 76.3925 135.253 75.7925C134.173 75.1792 133.313 74.3325 132.673 73.2525C132.046 72.1592 131.733 70.9325 131.733 69.5725C131.733 68.2125 132.046 66.9925 132.673 65.9125C133.313 64.8325 134.173 63.9925 135.253 63.3925C136.346 62.7792 137.539 62.4725 138.833 62.4725C140.139 62.4725 141.333 62.7792 142.413 63.3925C143.506 63.9925 144.366 64.8325 144.993 65.9125C145.619 66.9925 145.933 68.2125 145.933 69.5725C145.933 70.9325 145.619 72.1592 144.993 73.2525C144.366 74.3325 143.506 75.1792 142.413 75.7925C141.333 76.3925 140.139 76.6925 138.833 76.6925ZM138.833 74.7125C139.753 74.7125 140.573 74.5058 141.293 74.0925C142.013 73.6658 142.573 73.0658 142.973 72.2925C143.386 71.5058 143.593 70.5992 143.593 69.5725C143.593 68.5458 143.386 67.6458 142.973 66.8725C142.573 66.0992 142.013 65.5058 141.293 65.0925C140.573 64.6792 139.753 64.4725 138.833 64.4725C137.913 64.4725 137.093 64.6792 136.373 65.0925C135.653 65.5058 135.086 66.0992 134.673 66.8725C134.273 67.6458 134.073 68.5458 134.073 69.5725C134.073 70.5992 134.273 71.5058 134.673 72.2925C135.086 73.0658 135.653 73.6658 136.373 74.0925C137.093 74.5058 137.913 74.7125 138.833 74.7125ZM150.456 67.1325C150.79 66.5725 151.23 66.1392 151.776 65.8325C152.336 65.5125 152.996 65.3525 153.756 65.3525V67.7125H153.176C152.283 67.7125 151.603 67.9392 151.136 68.3925C150.683 68.8458 150.456 69.6325 150.456 70.7525V76.5525H148.176V65.5325H150.456V67.1325ZM155.092 70.9925C155.092 69.8858 155.319 68.9058 155.772 68.0525C156.239 67.1992 156.865 66.5392 157.652 66.0725C158.452 65.5925 159.339 65.3525 160.312 65.3525C161.032 65.3525 161.739 65.5125 162.432 65.8325C163.139 66.1392 163.699 66.5525 164.112 67.0725V61.7525H166.412V76.5525H164.112V74.8925C163.739 75.4258 163.219 75.8658 162.552 76.2125C161.899 76.5592 161.145 76.7325 160.292 76.7325C159.332 76.7325 158.452 76.4925 157.652 76.0125C156.865 75.5192 156.239 74.8392 155.772 73.9725C155.319 73.0925 155.092 72.0992 155.092 70.9925ZM164.112 71.0325C164.112 70.2725 163.952 69.6125 163.632 69.0525C163.325 68.4925 162.919 68.0658 162.412 67.7725C161.905 67.4792 161.359 67.3325 160.772 67.3325C160.185 67.3325 159.639 67.4792 159.132 67.7725C158.625 68.0525 158.212 68.4725 157.892 69.0325C157.585 69.5792 157.432 70.2325 157.432 70.9925C157.432 71.7525 157.585 72.4192 157.892 72.9925C158.212 73.5658 158.625 74.0058 159.132 74.3125C159.652 74.6058 160.199 74.7525 160.772 74.7525C161.359 74.7525 161.905 74.6058 162.412 74.3125C162.919 74.0192 163.325 73.5925 163.632 73.0325C163.952 72.4592 164.112 71.7925 164.112 71.0325ZM179.507 70.7725C179.507 71.1858 179.48 71.5592 179.427 71.8925H171.007C171.073 72.7725 171.4 73.4792 171.987 74.0125C172.573 74.5458 173.293 74.8125 174.147 74.8125C175.373 74.8125 176.24 74.2992 176.747 73.2725H179.207C178.873 74.2858 178.267 75.1192 177.387 75.7725C176.52 76.4125 175.44 76.7325 174.147 76.7325C173.093 76.7325 172.147 76.4992 171.307 76.0325C170.48 75.5525 169.827 74.8858 169.347 74.0325C168.88 73.1658 168.647 72.1658 168.647 71.0325C168.647 69.8992 168.873 68.9058 169.327 68.0525C169.793 67.1858 170.44 66.5192 171.267 66.0525C172.107 65.5858 173.067 65.3525 174.147 65.3525C175.187 65.3525 176.113 65.5792 176.927 66.0325C177.74 66.4858 178.373 67.1258 178.827 67.9525C179.28 68.7658 179.507 69.7058 179.507 70.7725ZM177.127 70.0525C177.113 69.2125 176.813 68.5392 176.227 68.0325C175.64 67.5258 174.913 67.2725 174.047 67.2725C173.26 67.2725 172.587 67.5258 172.027 68.0325C171.467 68.5258 171.133 69.1992 171.027 70.0525H177.127ZM184.03 67.1325C184.364 66.5725 184.804 66.1392 185.35 65.8325C185.91 65.5125 186.57 65.3525 187.33 65.3525V67.7125H186.75C185.857 67.7125 185.177 67.9392 184.71 68.3925C184.257 68.8458 184.03 69.6325 184.03 70.7525V76.5525H181.75V65.5325H184.03V67.1325ZM204.342 66.7925C204.342 67.4992 204.175 68.1658 203.842 68.7925C203.508 69.4192 202.975 69.9325 202.242 70.3325C201.508 70.7192 200.568 70.9125 199.422 70.9125H196.902V76.5525H194.622V62.6525H199.422C200.488 62.6525 201.388 62.8392 202.122 63.2125C202.868 63.5725 203.422 64.0658 203.782 64.6925C204.155 65.3192 204.342 66.0192 204.342 66.7925ZM199.422 69.0525C200.288 69.0525 200.935 68.8592 201.362 68.4725C201.788 68.0725 202.002 67.5125 202.002 66.7925C202.002 65.2725 201.142 64.5125 199.422 64.5125H196.902V69.0525H199.422ZM205.756 70.9925C205.756 69.8858 205.983 68.9058 206.436 68.0525C206.903 67.1992 207.529 66.5392 208.316 66.0725C209.116 65.5925 209.996 65.3525 210.956 65.3525C211.823 65.3525 212.576 65.5258 213.216 65.8725C213.869 66.2058 214.389 66.6258 214.776 67.1325V65.5325H217.076V76.5525H214.776V74.9125C214.389 75.4325 213.863 75.8658 213.196 76.2125C212.529 76.5592 211.769 76.7325 210.916 76.7325C209.969 76.7325 209.103 76.4925 208.316 76.0125C207.529 75.5192 206.903 74.8392 206.436 73.9725C205.983 73.0925 205.756 72.0992 205.756 70.9925ZM214.776 71.0325C214.776 70.2725 214.616 69.6125 214.296 69.0525C213.989 68.4925 213.583 68.0658 213.076 67.7725C212.569 67.4792 212.023 67.3325 211.436 67.3325C210.849 67.3325 210.303 67.4792 209.796 67.7725C209.289 68.0525 208.876 68.4725 208.556 69.0325C208.249 69.5792 208.096 70.2325 208.096 70.9925C208.096 71.7525 208.249 72.4192 208.556 72.9925C208.876 73.5658 209.289 74.0058 209.796 74.3125C210.316 74.6058 210.863 74.7525 211.436 74.7525C212.023 74.7525 212.569 74.6058 213.076 74.3125C213.583 74.0192 213.989 73.5925 214.296 73.0325C214.616 72.4592 214.776 71.7925 214.776 71.0325ZM219.311 70.9925C219.311 69.8858 219.537 68.9058 219.991 68.0525C220.457 67.1992 221.084 66.5392 221.871 66.0725C222.671 65.5925 223.557 65.3525 224.531 65.3525C225.251 65.3525 225.957 65.5125 226.651 65.8325C227.357 66.1392 227.917 66.5525 228.331 67.0725V61.7525H230.631V76.5525H228.331V74.8925C227.957 75.4258 227.437 75.8658 226.771 76.2125C226.117 76.5592 225.364 76.7325 224.511 76.7325C223.551 76.7325 222.671 76.4925 221.871 76.0125C221.084 75.5192 220.457 74.8392 219.991 73.9725C219.537 73.0925 219.311 72.0992 219.311 70.9925ZM228.331 71.0325C228.331 70.2725 228.171 69.6125 227.851 69.0525C227.544 68.4925 227.137 68.0658 226.631 67.7725C226.124 67.4792 225.577 67.3325 224.991 67.3325C224.404 67.3325 223.857 67.4792 223.351 67.7725C222.844 68.0525 222.431 68.4725 222.111 69.0325C221.804 69.5792 221.651 70.2325 221.651 70.9925C221.651 71.7525 221.804 72.4192 222.111 72.9925C222.431 73.5658 222.844 74.0058 223.351 74.3125C223.871 74.6058 224.417 74.7525 224.991 74.7525C225.577 74.7525 226.124 74.6058 226.631 74.3125C227.137 74.0192 227.544 73.5925 227.851 73.0325C228.171 72.4592 228.331 71.7925 228.331 71.0325Z" fill="#121212"/>
</g>
<path d="M80.5159 115.073H75.6519L74.7559 117.553H73.2199L77.2519 106.465H78.9319L82.9479 117.553H81.4119L80.5159 115.073ZM80.0999 113.889L78.0839 108.257L76.0679 113.889H80.0999ZM88.9771 108.625C90.0438 108.625 90.9078 108.95 91.5691 109.601C92.2305 110.241 92.5611 111.169 92.5611 112.385V117.553H91.1211V112.593C91.1211 111.718 90.9025 111.051 90.4651 110.593C90.0278 110.123 89.4305 109.889 88.6731 109.889C87.9051 109.889 87.2918 110.129 86.8331 110.609C86.3851 111.089 86.1611 111.787 86.1611 112.705V117.553H84.7051V108.785H86.1611V110.033C86.4491 109.585 86.8385 109.238 87.3291 108.993C87.8305 108.747 88.3798 108.625 88.9771 108.625ZM94.3955 113.137C94.3955 112.241 94.5769 111.457 94.9395 110.785C95.3022 110.102 95.7982 109.574 96.4275 109.201C97.0675 108.827 97.7769 108.641 98.5555 108.641C99.3235 108.641 99.9902 108.806 100.556 109.137C101.121 109.467 101.542 109.883 101.82 110.385V108.785H103.292V117.553H101.82V115.921C101.532 116.433 101.1 116.859 100.524 117.201C99.9582 117.531 99.2969 117.697 98.5395 117.697C97.7609 117.697 97.0569 117.505 96.4275 117.121C95.7982 116.737 95.3022 116.198 94.9395 115.505C94.5769 114.811 94.3955 114.022 94.3955 113.137ZM101.82 113.153C101.82 112.491 101.686 111.915 101.42 111.425C101.153 110.934 100.79 110.561 100.332 110.305C99.8835 110.038 99.3875 109.905 98.8435 109.905C98.2995 109.905 97.8035 110.033 97.3555 110.289C96.9075 110.545 96.5502 110.918 96.2835 111.409C96.0169 111.899 95.8835 112.475 95.8835 113.137C95.8835 113.809 96.0169 114.395 96.2835 114.897C96.5502 115.387 96.9075 115.766 97.3555 116.033C97.8035 116.289 98.2995 116.417 98.8435 116.417C99.3875 116.417 99.8835 116.289 100.332 116.033C100.79 115.766 101.153 115.387 101.42 114.897C101.686 114.395 101.82 113.814 101.82 113.153ZM107.208 105.713V117.553H105.752V105.713H107.208ZM117.242 108.785L111.962 121.681H110.458L112.186 117.457L108.65 108.785H110.266L113.018 115.889L115.738 108.785H117.242ZM121.809 117.697C121.137 117.697 120.534 117.585 120.001 117.361C119.468 117.126 119.046 116.806 118.737 116.401C118.428 115.985 118.257 115.51 118.225 114.977H119.729C119.772 115.414 119.974 115.771 120.337 116.049C120.71 116.326 121.196 116.465 121.793 116.465C122.348 116.465 122.785 116.342 123.105 116.097C123.425 115.851 123.585 115.542 123.585 115.169C123.585 114.785 123.414 114.502 123.073 114.321C122.732 114.129 122.204 113.942 121.489 113.761C120.838 113.59 120.305 113.419 119.889 113.249C119.484 113.067 119.132 112.806 118.833 112.465C118.545 112.113 118.401 111.654 118.401 111.089C118.401 110.641 118.534 110.23 118.801 109.857C119.068 109.483 119.446 109.19 119.937 108.977C120.428 108.753 120.988 108.641 121.617 108.641C122.588 108.641 123.372 108.886 123.969 109.377C124.566 109.867 124.886 110.539 124.929 111.393H123.473C123.441 110.934 123.254 110.566 122.913 110.289C122.582 110.011 122.134 109.873 121.569 109.873C121.046 109.873 120.63 109.985 120.321 110.209C120.012 110.433 119.857 110.726 119.857 111.089C119.857 111.377 119.948 111.617 120.129 111.809C120.321 111.99 120.556 112.139 120.833 112.257C121.121 112.363 121.516 112.486 122.017 112.625C122.646 112.795 123.158 112.966 123.553 113.137C123.948 113.297 124.284 113.542 124.561 113.873C124.849 114.203 124.998 114.635 125.009 115.169C125.009 115.649 124.876 116.081 124.609 116.465C124.342 116.849 123.964 117.153 123.473 117.377C122.993 117.59 122.438 117.697 121.809 117.697ZM135.065 112.833C135.065 113.11 135.049 113.403 135.017 113.713H128.009C128.062 114.577 128.355 115.254 128.889 115.745C129.433 116.225 130.089 116.465 130.857 116.465C131.486 116.465 132.009 116.321 132.425 116.033C132.851 115.734 133.15 115.339 133.321 114.849H134.889C134.654 115.691 134.185 116.379 133.481 116.913C132.777 117.435 131.902 117.697 130.857 117.697C130.025 117.697 129.278 117.51 128.617 117.137C127.966 116.763 127.454 116.235 127.081 115.553C126.707 114.859 126.521 114.059 126.521 113.153C126.521 112.246 126.702 111.451 127.065 110.769C127.427 110.086 127.934 109.563 128.585 109.201C129.246 108.827 130.003 108.641 130.857 108.641C131.689 108.641 132.425 108.822 133.065 109.185C133.705 109.547 134.195 110.049 134.537 110.689C134.889 111.318 135.065 112.033 135.065 112.833ZM133.561 112.529C133.561 111.974 133.438 111.499 133.193 111.105C132.947 110.699 132.611 110.395 132.185 110.193C131.769 109.979 131.305 109.873 130.793 109.873C130.057 109.873 129.427 110.107 128.905 110.577C128.393 111.046 128.099 111.697 128.025 112.529H133.561ZM140.708 113.137C140.708 112.241 140.889 111.457 141.252 110.785C141.615 110.102 142.111 109.574 142.74 109.201C143.38 108.827 144.089 108.641 144.868 108.641C145.636 108.641 146.303 108.806 146.868 109.137C147.433 109.467 147.855 109.883 148.132 110.385V108.785H149.604V117.553H148.132V115.921C147.844 116.433 147.412 116.859 146.836 117.201C146.271 117.531 145.609 117.697 144.852 117.697C144.073 117.697 143.369 117.505 142.74 117.121C142.111 116.737 141.615 116.198 141.252 115.505C140.889 114.811 140.708 114.022 140.708 113.137ZM148.132 113.153C148.132 112.491 147.999 111.915 147.732 111.425C147.465 110.934 147.103 110.561 146.644 110.305C146.196 110.038 145.7 109.905 145.156 109.905C144.612 109.905 144.116 110.033 143.668 110.289C143.22 110.545 142.863 110.918 142.596 111.409C142.329 111.899 142.196 112.475 142.196 113.137C142.196 113.809 142.329 114.395 142.596 114.897C142.863 115.387 143.22 115.766 143.668 116.033C144.116 116.289 144.612 116.417 145.156 116.417C145.7 116.417 146.196 116.289 146.644 116.033C147.103 115.766 147.465 115.387 147.732 114.897C147.999 114.395 148.132 113.814 148.132 113.153ZM153.521 105.713V117.553H152.065V105.713H153.521ZM157.458 105.713V117.553H156.002V105.713H157.458ZM165.981 109.985V115.153C165.981 115.579 166.072 115.883 166.253 116.065C166.434 116.235 166.749 116.321 167.197 116.321H168.269V117.553H166.957C166.146 117.553 165.538 117.366 165.133 116.993C164.728 116.619 164.525 116.006 164.525 115.153V109.985H163.389V108.785H164.525V106.577H165.981V108.785H168.269V109.985H165.981ZM174.385 108.625C175.047 108.625 175.644 108.769 176.177 109.057C176.711 109.334 177.127 109.755 177.425 110.321C177.735 110.886 177.889 111.574 177.889 112.385V117.553H176.449V112.593C176.449 111.718 176.231 111.051 175.793 110.593C175.356 110.123 174.759 109.889 174.001 109.889C173.233 109.889 172.62 110.129 172.161 110.609C171.713 111.089 171.489 111.787 171.489 112.705V117.553H170.033V105.713H171.489V110.033C171.777 109.585 172.172 109.238 172.673 108.993C173.185 108.747 173.756 108.625 174.385 108.625ZM188.268 112.833C188.268 113.11 188.252 113.403 188.22 113.713H181.212C181.265 114.577 181.558 115.254 182.092 115.745C182.636 116.225 183.292 116.465 184.06 116.465C184.689 116.465 185.212 116.321 185.628 116.033C186.054 115.734 186.353 115.339 186.524 114.849H188.092C187.857 115.691 187.388 116.379 186.684 116.913C185.98 117.435 185.105 117.697 184.06 117.697C183.228 117.697 182.481 117.51 181.82 117.137C181.169 116.763 180.657 116.235 180.284 115.553C179.91 114.859 179.724 114.059 179.724 113.153C179.724 112.246 179.905 111.451 180.268 110.769C180.63 110.086 181.137 109.563 181.788 109.201C182.449 108.827 183.206 108.641 184.06 108.641C184.892 108.641 185.628 108.822 186.268 109.185C186.908 109.547 187.398 110.049 187.74 110.689C188.092 111.318 188.268 112.033 188.268 112.833ZM186.764 112.529C186.764 111.974 186.641 111.499 186.396 111.105C186.15 110.699 185.814 110.395 185.388 110.193C184.972 109.979 184.508 109.873 183.996 109.873C183.26 109.873 182.63 110.107 182.108 110.577C181.596 111.046 181.302 111.697 181.228 112.529H186.764ZM198.279 117.697C197.458 117.697 196.711 117.51 196.039 117.137C195.378 116.763 194.855 116.235 194.471 115.553C194.098 114.859 193.911 114.059 193.911 113.153C193.911 112.257 194.103 111.467 194.487 110.785C194.882 110.091 195.415 109.563 196.087 109.201C196.759 108.827 197.511 108.641 198.343 108.641C199.175 108.641 199.927 108.827 200.599 109.201C201.271 109.563 201.799 110.086 202.183 110.769C202.578 111.451 202.775 112.246 202.775 113.153C202.775 114.059 202.572 114.859 202.167 115.553C201.772 116.235 201.234 116.763 200.551 117.137C199.868 117.51 199.111 117.697 198.279 117.697ZM198.279 116.417C198.802 116.417 199.292 116.294 199.751 116.049C200.21 115.803 200.578 115.435 200.855 114.945C201.143 114.454 201.287 113.857 201.287 113.153C201.287 112.449 201.148 111.851 200.871 111.361C200.594 110.87 200.231 110.507 199.783 110.273C199.335 110.027 198.85 109.905 198.327 109.905C197.794 109.905 197.303 110.027 196.855 110.273C196.418 110.507 196.066 110.87 195.799 111.361C195.532 111.851 195.399 112.449 195.399 113.153C195.399 113.867 195.527 114.47 195.783 114.961C196.05 115.451 196.402 115.819 196.839 116.065C197.276 116.299 197.756 116.417 198.279 116.417ZM206.146 110.209C206.402 109.707 206.764 109.318 207.234 109.041C207.714 108.763 208.295 108.625 208.978 108.625V110.129H208.594C206.962 110.129 206.146 111.014 206.146 112.785V117.553H204.69V108.785H206.146V110.209ZM210.114 113.137C210.114 112.241 210.296 111.457 210.658 110.785C211.021 110.102 211.517 109.574 212.146 109.201C212.786 108.827 213.501 108.641 214.29 108.641C214.973 108.641 215.608 108.801 216.194 109.121C216.781 109.43 217.229 109.841 217.538 110.353V105.713H219.01V117.553H217.538V115.905C217.25 116.427 216.824 116.859 216.258 117.201C215.693 117.531 215.032 117.697 214.274 117.697C213.496 117.697 212.786 117.505 212.146 117.121C211.517 116.737 211.021 116.198 210.658 115.505C210.296 114.811 210.114 114.022 210.114 113.137ZM217.538 113.153C217.538 112.491 217.405 111.915 217.138 111.425C216.872 110.934 216.509 110.561 216.05 110.305C215.602 110.038 215.106 109.905 214.562 109.905C214.018 109.905 213.522 110.033 213.074 110.289C212.626 110.545 212.269 110.918 212.002 111.409C211.736 111.899 211.602 112.475 211.602 113.137C211.602 113.809 211.736 114.395 212.002 114.897C212.269 115.387 212.626 115.766 213.074 116.033C213.522 116.289 214.018 116.417 214.562 116.417C215.106 116.417 215.602 116.289 216.05 116.033C216.509 115.766 216.872 115.387 217.138 114.897C217.405 114.395 217.538 113.814 217.538 113.153ZM229.471 112.833C229.471 113.11 229.455 113.403 229.423 113.713H222.415C222.468 114.577 222.761 115.254 223.295 115.745C223.839 116.225 224.495 116.465 225.263 116.465C225.892 116.465 226.415 116.321 226.831 116.033C227.257 115.734 227.556 115.339 227.727 114.849H229.295C229.06 115.691 228.591 116.379 227.887 116.913C227.183 117.435 226.308 117.697 225.263 117.697C224.431 117.697 223.684 117.51 223.023 117.137C222.372 116.763 221.86 116.235 221.487 115.553C221.113 114.859 220.927 114.059 220.927 113.153C220.927 112.246 221.108 111.451 221.471 110.769C221.833 110.086 222.34 109.563 222.991 109.201C223.652 108.827 224.409 108.641 225.263 108.641C226.095 108.641 226.831 108.822 227.471 109.185C228.111 109.547 228.601 110.049 228.943 110.689C229.295 111.318 229.471 112.033 229.471 112.833ZM227.967 112.529C227.967 111.974 227.844 111.499 227.599 111.105C227.353 110.699 227.017 110.395 226.591 110.193C226.175 109.979 225.711 109.873 225.199 109.873C224.463 109.873 223.833 110.107 223.311 110.577C222.799 111.046 222.505 111.697 222.431 112.529H227.967ZM232.849 110.209C233.105 109.707 233.467 109.318 233.937 109.041C234.417 108.763 234.998 108.625 235.681 108.625V110.129H235.297C233.665 110.129 232.849 111.014 232.849 112.785V117.553H231.393V108.785H232.849V110.209ZM240.465 117.697C239.793 117.697 239.191 117.585 238.657 117.361C238.124 117.126 237.703 116.806 237.393 116.401C237.084 115.985 236.913 115.51 236.881 114.977H238.385C238.428 115.414 238.631 115.771 238.993 116.049C239.367 116.326 239.852 116.465 240.449 116.465C241.004 116.465 241.441 116.342 241.761 116.097C242.081 115.851 242.241 115.542 242.241 115.169C242.241 114.785 242.071 114.502 241.729 114.321C241.388 114.129 240.86 113.942 240.145 113.761C239.495 113.59 238.961 113.419 238.545 113.249C238.14 113.067 237.788 112.806 237.489 112.465C237.201 112.113 237.057 111.654 237.057 111.089C237.057 110.641 237.191 110.23 237.457 109.857C237.724 109.483 238.103 109.19 238.593 108.977C239.084 108.753 239.644 108.641 240.273 108.641C241.244 108.641 242.028 108.886 242.625 109.377C243.223 109.867 243.543 110.539 243.585 111.393H242.129C242.097 110.934 241.911 110.566 241.569 110.289C241.239 110.011 240.791 109.873 240.225 109.873C239.703 109.873 239.287 109.985 238.977 110.209C238.668 110.433 238.513 110.726 238.513 111.089C238.513 111.377 238.604 111.617 238.785 111.809C238.977 111.99 239.212 112.139 239.489 112.257C239.777 112.363 240.172 112.486 240.673 112.625C241.303 112.795 241.815 112.966 242.209 113.137C242.604 113.297 242.94 113.542 243.217 113.873C243.505 114.203 243.655 114.635 243.665 115.169C243.665 115.649 243.532 116.081 243.265 116.465C242.999 116.849 242.62 117.153 242.129 117.377C241.649 117.59 241.095 117.697 240.465 117.697ZM253.73 120.529C252.706 119.526 251.906 118.251 251.33 116.705C250.765 115.158 250.482 113.489 250.482 111.697C250.482 109.862 250.781 108.15 251.378 106.561C251.986 104.961 252.85 103.643 253.97 102.609H255.49V102.753C254.296 103.873 253.394 105.222 252.786 106.801C252.189 108.369 251.89 110.001 251.89 111.697C251.89 113.35 252.173 114.929 252.738 116.433C253.314 117.937 254.152 119.254 255.25 120.385V120.529H253.73ZM261.076 117.697C260.255 117.697 259.508 117.51 258.836 117.137C258.175 116.763 257.652 116.235 257.268 115.553C256.895 114.859 256.708 114.059 256.708 113.153C256.708 112.257 256.9 111.467 257.284 110.785C257.679 110.091 258.212 109.563 258.884 109.201C259.556 108.827 260.308 108.641 261.14 108.641C261.972 108.641 262.724 108.827 263.396 109.201C264.068 109.563 264.596 110.086 264.98 110.769C265.375 111.451 265.572 112.246 265.572 113.153C265.572 114.059 265.369 114.859 264.964 115.553C264.569 116.235 264.031 116.763 263.348 117.137C262.665 117.51 261.908 117.697 261.076 117.697ZM261.076 116.417C261.599 116.417 262.089 116.294 262.548 116.049C263.007 115.803 263.375 115.435 263.652 114.945C263.94 114.454 264.084 113.857 264.084 113.153C264.084 112.449 263.945 111.851 263.668 111.361C263.391 110.87 263.028 110.507 262.58 110.273C262.132 110.027 261.647 109.905 261.124 109.905C260.591 109.905 260.1 110.027 259.652 110.273C259.215 110.507 258.863 110.87 258.596 111.361C258.329 111.851 258.196 112.449 258.196 113.153C258.196 113.867 258.324 114.47 258.58 114.961C258.847 115.451 259.199 115.819 259.636 116.065C260.073 116.299 260.553 116.417 261.076 116.417ZM268.942 110.401C269.23 109.899 269.657 109.483 270.222 109.153C270.798 108.811 271.465 108.641 272.222 108.641C273.001 108.641 273.705 108.827 274.334 109.201C274.974 109.574 275.476 110.102 275.838 110.785C276.201 111.457 276.382 112.241 276.382 113.137C276.382 114.022 276.201 114.811 275.838 115.505C275.476 116.198 274.974 116.737 274.334 117.121C273.705 117.505 273.001 117.697 272.222 117.697C271.476 117.697 270.814 117.531 270.238 117.201C269.673 116.859 269.241 116.438 268.942 115.937V121.713H267.486V108.785H268.942V110.401ZM274.894 113.137C274.894 112.475 274.761 111.899 274.494 111.409C274.228 110.918 273.865 110.545 273.406 110.289C272.958 110.033 272.462 109.905 271.918 109.905C271.385 109.905 270.889 110.038 270.43 110.305C269.982 110.561 269.62 110.939 269.342 111.441C269.076 111.931 268.942 112.502 268.942 113.153C268.942 113.814 269.076 114.395 269.342 114.897C269.62 115.387 269.982 115.766 270.43 116.033C270.889 116.289 271.385 116.417 271.918 116.417C272.462 116.417 272.958 116.289 273.406 116.033C273.865 115.766 274.228 115.387 274.494 114.897C274.761 114.395 274.894 113.809 274.894 113.137ZM286.299 112.833C286.299 113.11 286.283 113.403 286.251 113.713H279.243C279.296 114.577 279.59 115.254 280.123 115.745C280.667 116.225 281.323 116.465 282.091 116.465C282.72 116.465 283.243 116.321 283.659 116.033C284.086 115.734 284.384 115.339 284.555 114.849H286.123C285.888 115.691 285.419 116.379 284.715 116.913C284.011 117.435 283.136 117.697 282.091 117.697C281.259 117.697 280.512 117.51 279.851 117.137C279.2 116.763 278.688 116.235 278.315 115.553C277.942 114.859 277.755 114.059 277.755 113.153C277.755 112.246 277.936 111.451 278.299 110.769C278.662 110.086 279.168 109.563 279.819 109.201C280.48 108.827 281.238 108.641 282.091 108.641C282.923 108.641 283.659 108.822 284.299 109.185C284.939 109.547 285.43 110.049 285.771 110.689C286.123 111.318 286.299 112.033 286.299 112.833ZM284.795 112.529C284.795 111.974 284.672 111.499 284.427 111.105C284.182 110.699 283.846 110.395 283.419 110.193C283.003 109.979 282.539 109.873 282.027 109.873C281.291 109.873 280.662 110.107 280.139 110.577C279.627 111.046 279.334 111.697 279.259 112.529H284.795ZM292.493 108.625C293.559 108.625 294.423 108.95 295.085 109.601C295.746 110.241 296.077 111.169 296.077 112.385V117.553H294.637V112.593C294.637 111.718 294.418 111.051 293.981 110.593C293.543 110.123 292.946 109.889 292.189 109.889C291.421 109.889 290.807 110.129 290.349 110.609C289.901 111.089 289.677 111.787 289.677 112.705V117.553H288.221V108.785H289.677V110.033C289.965 109.585 290.354 109.238 290.845 108.993C291.346 108.747 291.895 108.625 292.493 108.625ZM299.959 115.537L298.167 119.841H297.191L298.359 115.537H299.959ZM81.9239 136.833C81.9239 137.11 81.9079 137.403 81.8759 137.713H74.8679C74.9212 138.577 75.2146 139.254 75.7479 139.745C76.2919 140.225 76.9479 140.465 77.7159 140.465C78.3452 140.465 78.8679 140.321 79.2839 140.033C79.7106 139.734 80.0092 139.339 80.1799 138.849H81.7479C81.5132 139.691 81.0439 140.379 80.3399 140.913C79.6359 141.435 78.7612 141.697 77.7159 141.697C76.8839 141.697 76.1372 141.51 75.4759 141.137C74.8252 140.763 74.3132 140.235 73.9399 139.553C73.5666 138.859 73.3799 138.059 73.3799 137.153C73.3799 136.246 73.5612 135.451 73.9239 134.769C74.2866 134.086 74.7932 133.563 75.4439 133.201C76.1052 132.827 76.8626 132.641 77.7159 132.641C78.5479 132.641 79.2839 132.822 79.9239 133.185C80.5639 133.547 81.0546 134.049 81.3959 134.689C81.7479 135.318 81.9239 136.033 81.9239 136.833ZM80.4199 136.529C80.4199 135.974 80.2972 135.499 80.0519 135.105C79.8066 134.699 79.4706 134.395 79.0439 134.193C78.6279 133.979 78.1639 133.873 77.6519 133.873C76.9159 133.873 76.2866 134.107 75.7639 134.577C75.2519 135.046 74.9586 135.697 74.8839 136.529H80.4199ZM88.4218 141.553L86.3418 138.289L84.3418 141.553H82.8218L85.6538 137.201L82.8218 132.785H84.4698L86.5498 136.033L88.5338 132.785H90.0538L87.2378 137.121L90.0698 141.553H88.4218ZM99.502 136.833C99.502 137.11 99.486 137.403 99.454 137.713H92.446C92.4994 138.577 92.7927 139.254 93.326 139.745C93.87 140.225 94.526 140.465 95.294 140.465C95.9234 140.465 96.446 140.321 96.862 140.033C97.2887 139.734 97.5874 139.339 97.758 138.849H99.326C99.0914 139.691 98.622 140.379 97.918 140.913C97.214 141.435 96.3394 141.697 95.294 141.697C94.462 141.697 93.7154 141.51 93.054 141.137C92.4034 140.763 91.8914 140.235 91.518 139.553C91.1447 138.859 90.958 138.059 90.958 137.153C90.958 136.246 91.1394 135.451 91.502 134.769C91.8647 134.086 92.3714 133.563 93.022 133.201C93.6834 132.827 94.4407 132.641 95.294 132.641C96.126 132.641 96.862 132.822 97.502 133.185C98.142 133.547 98.6327 134.049 98.974 134.689C99.326 135.318 99.502 136.033 99.502 136.833ZM97.998 136.529C97.998 135.974 97.8754 135.499 97.63 135.105C97.3847 134.699 97.0487 134.395 96.622 134.193C96.206 133.979 95.742 133.873 95.23 133.873C94.494 133.873 93.8647 134.107 93.342 134.577C92.83 135.046 92.5367 135.697 92.462 136.529H97.998ZM100.88 137.153C100.88 136.246 101.061 135.457 101.424 134.785C101.787 134.102 102.288 133.574 102.928 133.201C103.579 132.827 104.32 132.641 105.152 132.641C106.229 132.641 107.115 132.902 107.808 133.425C108.512 133.947 108.976 134.673 109.2 135.601H107.632C107.483 135.067 107.189 134.646 106.752 134.337C106.325 134.027 105.792 133.873 105.152 133.873C104.32 133.873 103.648 134.161 103.136 134.737C102.624 135.302 102.368 136.107 102.368 137.153C102.368 138.209 102.624 139.025 103.136 139.601C103.648 140.177 104.32 140.465 105.152 140.465C105.792 140.465 106.325 140.315 106.752 140.017C107.179 139.718 107.472 139.291 107.632 138.737H109.2C108.965 139.633 108.496 140.353 107.792 140.897C107.088 141.43 106.208 141.697 105.152 141.697C104.32 141.697 103.579 141.51 102.928 141.137C102.288 140.763 101.787 140.235 101.424 139.553C101.061 138.87 100.88 138.07 100.88 137.153ZM118.919 132.785V141.553H117.463V140.257C117.185 140.705 116.796 141.057 116.295 141.313C115.804 141.558 115.26 141.681 114.663 141.681C113.98 141.681 113.367 141.542 112.823 141.265C112.279 140.977 111.847 140.55 111.527 139.985C111.217 139.419 111.063 138.731 111.063 137.921V132.785H112.503V137.729C112.503 138.593 112.721 139.259 113.159 139.729C113.596 140.187 114.193 140.417 114.951 140.417C115.729 140.417 116.343 140.177 116.791 139.697C117.239 139.217 117.463 138.518 117.463 137.601V132.785H118.919ZM123.153 133.985V139.153C123.153 139.579 123.244 139.883 123.425 140.065C123.606 140.235 123.921 140.321 124.369 140.321H125.441V141.553H124.129C123.318 141.553 122.71 141.366 122.305 140.993C121.9 140.619 121.697 140.006 121.697 139.153V133.985H120.561V132.785H121.697V130.577H123.153V132.785H125.441V133.985H123.153ZM135.205 136.833C135.205 137.11 135.189 137.403 135.157 137.713H128.149C128.202 138.577 128.496 139.254 129.029 139.745C129.573 140.225 130.229 140.465 130.997 140.465C131.626 140.465 132.149 140.321 132.565 140.033C132.992 139.734 133.29 139.339 133.461 138.849H135.029C134.794 139.691 134.325 140.379 133.621 140.913C132.917 141.435 132.042 141.697 130.997 141.697C130.165 141.697 129.418 141.51 128.757 141.137C128.106 140.763 127.594 140.235 127.221 139.553C126.848 138.859 126.661 138.059 126.661 137.153C126.661 136.246 126.842 135.451 127.205 134.769C127.568 134.086 128.074 133.563 128.725 133.201C129.386 132.827 130.144 132.641 130.997 132.641C131.829 132.641 132.565 132.822 133.205 133.185C133.845 133.547 134.336 134.049 134.677 134.689C135.029 135.318 135.205 136.033 135.205 136.833ZM133.701 136.529C133.701 135.974 133.578 135.499 133.333 135.105C133.088 134.699 132.752 134.395 132.325 134.193C131.909 133.979 131.445 133.873 130.933 133.873C130.197 133.873 129.568 134.107 129.045 134.577C128.533 135.046 128.24 135.697 128.165 136.529H133.701ZM136.583 137.137C136.583 136.241 136.764 135.457 137.127 134.785C137.49 134.102 137.986 133.574 138.615 133.201C139.255 132.827 139.97 132.641 140.759 132.641C141.442 132.641 142.076 132.801 142.663 133.121C143.25 133.43 143.698 133.841 144.007 134.353V129.713H145.479V141.553H144.007V139.905C143.719 140.427 143.292 140.859 142.727 141.201C142.162 141.531 141.5 141.697 140.743 141.697C139.964 141.697 139.255 141.505 138.615 141.121C137.986 140.737 137.49 140.198 137.127 139.505C136.764 138.811 136.583 138.022 136.583 137.137ZM144.007 137.153C144.007 136.491 143.874 135.915 143.607 135.425C143.34 134.934 142.978 134.561 142.519 134.305C142.071 134.038 141.575 133.905 141.031 133.905C140.487 133.905 139.991 134.033 139.543 134.289C139.095 134.545 138.738 134.918 138.471 135.409C138.204 135.899 138.071 136.475 138.071 137.137C138.071 137.809 138.204 138.395 138.471 138.897C138.738 139.387 139.095 139.766 139.543 140.033C139.991 140.289 140.487 140.417 141.031 140.417C141.575 140.417 142.071 140.289 142.519 140.033C142.978 139.766 143.34 139.387 143.607 138.897C143.874 138.395 144.007 137.814 144.007 137.153ZM149.444 139.537L147.652 143.841H146.676L147.844 139.537H149.444ZM163.825 133.633C163.516 132.982 163.068 132.481 162.481 132.129C161.894 131.766 161.212 131.585 160.433 131.585C159.654 131.585 158.95 131.766 158.321 132.129C157.702 132.481 157.212 132.993 156.849 133.665C156.497 134.326 156.321 135.094 156.321 135.969C156.321 136.843 156.497 137.611 156.849 138.273C157.212 138.934 157.702 139.446 158.321 139.809C158.95 140.161 159.654 140.337 160.433 140.337C161.521 140.337 162.417 140.011 163.121 139.361C163.825 138.71 164.236 137.83 164.353 136.721H159.905V135.537H165.905V136.657C165.82 137.574 165.532 138.417 165.041 139.185C164.55 139.942 163.905 140.545 163.105 140.993C162.305 141.43 161.414 141.649 160.433 141.649C159.398 141.649 158.454 141.409 157.601 140.929C156.748 140.438 156.07 139.761 155.569 138.897C155.078 138.033 154.833 137.057 154.833 135.969C154.833 134.881 155.078 133.905 155.569 133.041C156.07 132.166 156.748 131.489 157.601 131.009C158.454 130.518 159.398 130.273 160.433 130.273C161.617 130.273 162.662 130.566 163.569 131.153C164.486 131.739 165.153 132.566 165.569 133.633H163.825ZM174.694 130.401V131.585H171.654V141.553H170.198V131.585H167.142V130.401H174.694ZM183.35 130.401V131.585H180.31V141.553H178.854V131.585H175.798V130.401H183.35ZM186.647 139.537L184.855 143.841H183.879L185.047 139.537H186.647ZM198.164 135.809C198.569 135.873 198.937 136.038 199.268 136.305C199.609 136.571 199.876 136.902 200.068 137.297C200.271 137.691 200.372 138.113 200.372 138.561C200.372 139.126 200.228 139.638 199.94 140.097C199.652 140.545 199.231 140.902 198.676 141.169C198.132 141.425 197.487 141.553 196.74 141.553H192.58V130.401H196.58C197.337 130.401 197.983 130.529 198.516 130.785C199.049 131.03 199.449 131.366 199.716 131.793C199.983 132.219 200.116 132.699 200.116 133.233C200.116 133.894 199.935 134.443 199.572 134.881C199.22 135.307 198.751 135.617 198.164 135.809ZM194.036 135.217H196.484C197.167 135.217 197.695 135.057 198.068 134.737C198.441 134.417 198.628 133.974 198.628 133.409C198.628 132.843 198.441 132.401 198.068 132.081C197.695 131.761 197.156 131.601 196.452 131.601H194.036V135.217ZM196.612 140.353C197.337 140.353 197.903 140.182 198.308 139.841C198.713 139.499 198.916 139.025 198.916 138.417C198.916 137.798 198.703 137.313 198.276 136.961C197.849 136.598 197.279 136.417 196.564 136.417H194.036V140.353H196.612ZM201.849 137.137C201.849 136.241 202.03 135.457 202.393 134.785C202.755 134.102 203.251 133.574 203.881 133.201C204.521 132.827 205.23 132.641 206.009 132.641C206.777 132.641 207.443 132.806 208.009 133.137C208.574 133.467 208.995 133.883 209.273 134.385V132.785H210.745V141.553H209.273V139.921C208.985 140.433 208.553 140.859 207.977 141.201C207.411 141.531 206.75 141.697 205.993 141.697C205.214 141.697 204.51 141.505 203.881 141.121C203.251 140.737 202.755 140.198 202.393 139.505C202.03 138.811 201.849 138.022 201.849 137.137ZM209.273 137.153C209.273 136.491 209.139 135.915 208.873 135.425C208.606 134.934 208.243 134.561 207.785 134.305C207.337 134.038 206.841 133.905 206.297 133.905C205.753 133.905 205.257 134.033 204.809 134.289C204.361 134.545 204.003 134.918 203.737 135.409C203.47 135.899 203.337 136.475 203.337 137.137C203.337 137.809 203.47 138.395 203.737 138.897C204.003 139.387 204.361 139.766 204.809 140.033C205.257 140.289 205.753 140.417 206.297 140.417C206.841 140.417 207.337 140.289 207.785 140.033C208.243 139.766 208.606 139.387 208.873 138.897C209.139 138.395 209.273 137.814 209.273 137.153ZM216.309 141.697C215.637 141.697 215.034 141.585 214.501 141.361C213.968 141.126 213.546 140.806 213.237 140.401C212.928 139.985 212.757 139.51 212.725 138.977H214.229C214.272 139.414 214.474 139.771 214.837 140.049C215.21 140.326 215.696 140.465 216.293 140.465C216.848 140.465 217.285 140.342 217.605 140.097C217.925 139.851 218.085 139.542 218.085 139.169C218.085 138.785 217.914 138.502 217.573 138.321C217.232 138.129 216.704 137.942 215.989 137.761C215.338 137.59 214.805 137.419 214.389 137.249C213.984 137.067 213.632 136.806 213.333 136.465C213.045 136.113 212.901 135.654 212.901 135.089C212.901 134.641 213.034 134.23 213.301 133.857C213.568 133.483 213.946 133.19 214.437 132.977C214.928 132.753 215.488 132.641 216.117 132.641C217.088 132.641 217.872 132.886 218.469 133.377C219.066 133.867 219.386 134.539 219.429 135.393H217.973C217.941 134.934 217.754 134.566 217.413 134.289C217.082 134.011 216.634 133.873 216.069 133.873C215.546 133.873 215.13 133.985 214.821 134.209C214.512 134.433 214.357 134.726 214.357 135.089C214.357 135.377 214.448 135.617 214.629 135.809C214.821 135.99 215.056 136.139 215.333 136.257C215.621 136.363 216.016 136.486 216.517 136.625C217.146 136.795 217.658 136.966 218.053 137.137C218.448 137.297 218.784 137.542 219.061 137.873C219.349 138.203 219.498 138.635 219.509 139.169C219.509 139.649 219.376 140.081 219.109 140.465C218.842 140.849 218.464 141.153 217.973 141.377C217.493 141.59 216.938 141.697 216.309 141.697ZM226.461 141.553L223.021 137.681V141.553H221.565V129.713H223.021V136.673L226.397 132.785H228.429L224.301 137.153L228.445 141.553H226.461ZM237.799 136.833C237.799 137.11 237.783 137.403 237.751 137.713H230.743C230.796 138.577 231.09 139.254 231.623 139.745C232.167 140.225 232.823 140.465 233.591 140.465C234.22 140.465 234.743 140.321 235.159 140.033C235.586 139.734 235.884 139.339 236.055 138.849H237.623C237.388 139.691 236.919 140.379 236.215 140.913C235.511 141.435 234.636 141.697 233.591 141.697C232.759 141.697 232.012 141.51 231.351 141.137C230.7 140.763 230.188 140.235 229.815 139.553C229.442 138.859 229.255 138.059 229.255 137.153C229.255 136.246 229.436 135.451 229.799 134.769C230.162 134.086 230.668 133.563 231.319 133.201C231.98 132.827 232.738 132.641 233.591 132.641C234.423 132.641 235.159 132.822 235.799 133.185C236.439 133.547 236.93 134.049 237.271 134.689C237.623 135.318 237.799 136.033 237.799 136.833ZM236.295 136.529C236.295 135.974 236.172 135.499 235.927 135.105C235.682 134.699 235.346 134.395 234.919 134.193C234.503 133.979 234.039 133.873 233.527 133.873C232.791 133.873 232.162 134.107 231.639 134.577C231.127 135.046 230.834 135.697 230.759 136.529H236.295ZM241.497 133.985V139.153C241.497 139.579 241.587 139.883 241.769 140.065C241.95 140.235 242.265 140.321 242.713 140.321H243.785V141.553H242.473C241.662 141.553 241.054 141.366 240.649 140.993C240.243 140.619 240.041 140.006 240.041 139.153V133.985H238.905V132.785H240.041V130.577H241.497V132.785H243.785V133.985H241.497ZM249.271 137.137C249.271 136.241 249.452 135.457 249.815 134.785C250.177 134.102 250.673 133.574 251.303 133.201C251.943 132.827 252.652 132.641 253.431 132.641C254.199 132.641 254.865 132.806 255.431 133.137C255.996 133.467 256.417 133.883 256.695 134.385V132.785H258.167V141.553H256.695V139.921C256.407 140.433 255.975 140.859 255.399 141.201C254.833 141.531 254.172 141.697 253.415 141.697C252.636 141.697 251.932 141.505 251.303 141.121C250.673 140.737 250.177 140.198 249.815 139.505C249.452 138.811 249.271 138.022 249.271 137.137ZM256.695 137.153C256.695 136.491 256.561 135.915 256.295 135.425C256.028 134.934 255.665 134.561 255.207 134.305C254.759 134.038 254.263 133.905 253.719 133.905C253.175 133.905 252.679 134.033 252.231 134.289C251.783 134.545 251.425 134.918 251.159 135.409C250.892 135.899 250.759 136.475 250.759 137.137C250.759 137.809 250.892 138.395 251.159 138.897C251.425 139.387 251.783 139.766 252.231 140.033C252.679 140.289 253.175 140.417 253.719 140.417C254.263 140.417 254.759 140.289 255.207 140.033C255.665 139.766 256.028 139.387 256.295 138.897C256.561 138.395 256.695 137.814 256.695 137.153ZM264.899 132.625C265.966 132.625 266.83 132.95 267.491 133.601C268.152 134.241 268.483 135.169 268.483 136.385V141.553H267.043V136.593C267.043 135.718 266.824 135.051 266.387 134.593C265.95 134.123 265.352 133.889 264.595 133.889C263.827 133.889 263.214 134.129 262.755 134.609C262.307 135.089 262.083 135.787 262.083 136.705V141.553H260.627V132.785H262.083V134.033C262.371 133.585 262.76 133.238 263.251 132.993C263.752 132.747 264.302 132.625 264.899 132.625ZM270.317 137.137C270.317 136.241 270.499 135.457 270.861 134.785C271.224 134.102 271.72 133.574 272.349 133.201C272.989 132.827 273.704 132.641 274.493 132.641C275.176 132.641 275.811 132.801 276.397 133.121C276.984 133.43 277.432 133.841 277.741 134.353V129.713H279.213V141.553H277.741V139.905C277.453 140.427 277.027 140.859 276.461 141.201C275.896 141.531 275.235 141.697 274.477 141.697C273.699 141.697 272.989 141.505 272.349 141.121C271.72 140.737 271.224 140.198 270.861 139.505C270.499 138.811 270.317 138.022 270.317 137.137ZM277.741 137.153C277.741 136.491 277.608 135.915 277.341 135.425C277.075 134.934 276.712 134.561 276.253 134.305C275.805 134.038 275.309 133.905 274.765 133.905C274.221 133.905 273.725 134.033 273.277 134.289C272.829 134.545 272.472 134.918 272.205 135.409C271.939 135.899 271.805 136.475 271.805 137.137C271.805 137.809 271.939 138.395 272.205 138.897C272.472 139.387 272.829 139.766 273.277 140.033C273.725 140.289 274.221 140.417 274.765 140.417C275.309 140.417 275.805 140.289 276.253 140.033C276.712 139.766 277.075 139.387 277.341 138.897C277.608 138.395 277.741 137.814 277.741 137.153ZM289.476 141.665C288.74 141.665 288.078 141.537 287.492 141.281C286.916 141.014 286.462 140.651 286.132 140.193C285.801 139.723 285.63 139.185 285.62 138.577H287.172C287.225 139.099 287.438 139.542 287.812 139.905C288.196 140.257 288.75 140.433 289.476 140.433C290.169 140.433 290.713 140.262 291.108 139.921C291.513 139.569 291.716 139.121 291.716 138.577C291.716 138.15 291.598 137.803 291.364 137.537C291.129 137.27 290.836 137.067 290.484 136.929C290.132 136.79 289.657 136.641 289.06 136.481C288.324 136.289 287.732 136.097 287.284 135.905C286.846 135.713 286.468 135.414 286.148 135.009C285.838 134.593 285.684 134.038 285.684 133.345C285.684 132.737 285.838 132.198 286.148 131.729C286.457 131.259 286.889 130.897 287.444 130.641C288.009 130.385 288.654 130.257 289.38 130.257C290.425 130.257 291.278 130.518 291.94 131.041C292.612 131.563 292.99 132.257 293.076 133.121H291.476C291.422 132.694 291.198 132.321 290.804 132.001C290.409 131.67 289.886 131.505 289.236 131.505C288.628 131.505 288.132 131.665 287.748 131.985C287.364 132.294 287.172 132.731 287.172 133.297C287.172 133.702 287.284 134.033 287.508 134.289C287.742 134.545 288.025 134.742 288.356 134.881C288.697 135.009 289.172 135.158 289.78 135.329C290.516 135.531 291.108 135.734 291.556 135.937C292.004 136.129 292.388 136.433 292.708 136.849C293.028 137.254 293.188 137.809 293.188 138.513C293.188 139.057 293.044 139.569 292.756 140.049C292.468 140.529 292.041 140.918 291.476 141.217C290.91 141.515 290.244 141.665 289.476 141.665ZM296.786 130.401V141.553H295.33V130.401H296.786ZM306.724 133.665C306.724 134.593 306.404 135.366 305.764 135.985C305.134 136.593 304.169 136.897 302.868 136.897H300.724V141.553H299.268V130.401H302.868C304.126 130.401 305.081 130.705 305.732 131.313C306.393 131.921 306.724 132.705 306.724 133.665ZM302.868 135.697C303.678 135.697 304.276 135.521 304.66 135.169C305.044 134.817 305.236 134.315 305.236 133.665C305.236 132.289 304.446 131.601 302.868 131.601H300.724V135.697H302.868ZM308.069 144.529V144.385C309.168 143.254 310 141.937 310.565 140.433C311.141 138.929 311.429 137.35 311.429 135.697C311.429 134.001 311.125 132.369 310.517 130.801C309.92 129.222 309.024 127.873 307.829 126.753V126.609H309.349C310.469 127.643 311.328 128.961 311.925 130.561C312.533 132.15 312.837 133.862 312.837 135.697C312.837 137.489 312.549 139.158 311.973 140.705C311.408 142.251 310.613 143.526 309.589 144.529H308.069ZM74.6759 155.361C74.3986 155.361 74.1639 155.265 73.9719 155.073C73.7799 154.881 73.6839 154.646 73.6839 154.369C73.6839 154.091 73.7799 153.857 73.9719 153.665C74.1639 153.473 74.3986 153.377 74.6759 153.377C74.9426 153.377 75.1666 153.473 75.3479 153.665C75.5399 153.857 75.6359 154.091 75.6359 154.369C75.6359 154.646 75.5399 154.881 75.3479 155.073C75.1666 155.265 74.9426 155.361 74.6759 155.361ZM75.3799 156.785V165.553H73.9239V156.785H75.3799ZM82.1334 156.625C83.2001 156.625 84.0641 156.95 84.7254 157.601C85.3867 158.241 85.7174 159.169 85.7174 160.385V165.553H84.2774V160.593C84.2774 159.718 84.0587 159.051 83.6214 158.593C83.1841 158.123 82.5867 157.889 81.8294 157.889C81.0614 157.889 80.4481 158.129 79.9894 158.609C79.5414 159.089 79.3174 159.787 79.3174 160.705V165.553H77.8614V156.785H79.3174V158.033C79.6054 157.585 79.9947 157.238 80.4854 156.993C80.9867 156.747 81.5361 156.625 82.1334 156.625ZM96.1854 165.697C95.3641 165.697 94.6174 165.51 93.9454 165.137C93.2841 164.763 92.7614 164.235 92.3774 163.553C92.0041 162.859 91.8174 162.059 91.8174 161.153C91.8174 160.257 92.0094 159.467 92.3934 158.785C92.7881 158.091 93.3214 157.563 93.9934 157.201C94.6654 156.827 95.4174 156.641 96.2494 156.641C97.0814 156.641 97.8334 156.827 98.5054 157.201C99.1774 157.563 99.7054 158.086 100.089 158.769C100.484 159.451 100.681 160.246 100.681 161.153C100.681 162.059 100.479 162.859 100.073 163.553C99.6787 164.235 99.1401 164.763 98.4574 165.137C97.7747 165.51 97.0174 165.697 96.1854 165.697ZM96.1854 164.417C96.7081 164.417 97.1987 164.294 97.6574 164.049C98.1161 163.803 98.4841 163.435 98.7614 162.945C99.0494 162.454 99.1934 161.857 99.1934 161.153C99.1934 160.449 99.0547 159.851 98.7774 159.361C98.5001 158.87 98.1374 158.507 97.6894 158.273C97.2414 158.027 96.7561 157.905 96.2334 157.905C95.7001 157.905 95.2094 158.027 94.7614 158.273C94.3241 158.507 93.9721 158.87 93.7054 159.361C93.4387 159.851 93.3054 160.449 93.3054 161.153C93.3054 161.867 93.4334 162.47 93.6894 162.961C93.9561 163.451 94.3081 163.819 94.7454 164.065C95.1827 164.299 95.6627 164.417 96.1854 164.417ZM106.868 156.625C107.934 156.625 108.798 156.95 109.46 157.601C110.121 158.241 110.452 159.169 110.452 160.385V165.553H109.012V160.593C109.012 159.718 108.793 159.051 108.356 158.593C107.918 158.123 107.321 157.889 106.564 157.889C105.796 157.889 105.182 158.129 104.724 158.609C104.276 159.089 104.052 159.787 104.052 160.705V165.553H102.596V156.785H104.052V158.033C104.34 157.585 104.729 157.238 105.22 156.993C105.721 156.747 106.27 156.625 106.868 156.625ZM120.83 160.833C120.83 161.11 120.814 161.403 120.782 161.713H113.774C113.827 162.577 114.121 163.254 114.654 163.745C115.198 164.225 115.854 164.465 116.622 164.465C117.251 164.465 117.774 164.321 118.19 164.033C118.617 163.734 118.915 163.339 119.086 162.849H120.654C120.419 163.691 119.95 164.379 119.246 164.913C118.542 165.435 117.667 165.697 116.622 165.697C115.79 165.697 115.043 165.51 114.382 165.137C113.731 164.763 113.219 164.235 112.846 163.553C112.473 162.859 112.286 162.059 112.286 161.153C112.286 160.246 112.467 159.451 112.83 158.769C113.193 158.086 113.699 157.563 114.35 157.201C115.011 156.827 115.769 156.641 116.622 156.641C117.454 156.641 118.19 156.822 118.83 157.185C119.47 157.547 119.961 158.049 120.302 158.689C120.654 159.318 120.83 160.033 120.83 160.833ZM119.326 160.529C119.326 159.974 119.203 159.499 118.958 159.105C118.713 158.699 118.377 158.395 117.95 158.193C117.534 157.979 117.07 157.873 116.558 157.873C115.822 157.873 115.193 158.107 114.67 158.577C114.158 159.046 113.865 159.697 113.79 160.529H119.326ZM138.698 156.785L135.962 165.553H134.458L132.346 158.593L130.234 165.553H128.73L125.978 156.785H127.466L129.482 164.145L131.658 156.785H133.146L135.274 164.161L137.258 156.785H138.698ZM140.895 155.361C140.617 155.361 140.383 155.265 140.191 155.073C139.999 154.881 139.903 154.646 139.903 154.369C139.903 154.091 139.999 153.857 140.191 153.665C140.383 153.473 140.617 153.377 140.895 153.377C141.161 153.377 141.385 153.473 141.567 153.665C141.759 153.857 141.855 154.091 141.855 154.369C141.855 154.646 141.759 154.881 141.567 155.073C141.385 155.265 141.161 155.361 140.895 155.361ZM141.599 156.785V165.553H140.143V156.785H141.599ZM148.352 156.625C149.419 156.625 150.283 156.95 150.944 157.601C151.605 158.241 151.936 159.169 151.936 160.385V165.553H150.496V160.593C150.496 159.718 150.277 159.051 149.84 158.593C149.403 158.123 148.805 157.889 148.048 157.889C147.28 157.889 146.667 158.129 146.208 158.609C145.76 159.089 145.536 159.787 145.536 160.705V165.553H144.08V156.785H145.536V158.033C145.824 157.585 146.213 157.238 146.704 156.993C147.205 156.747 147.755 156.625 148.352 156.625ZM153.771 161.137C153.771 160.241 153.952 159.457 154.315 158.785C154.677 158.102 155.173 157.574 155.803 157.201C156.443 156.827 157.157 156.641 157.947 156.641C158.629 156.641 159.264 156.801 159.851 157.121C160.437 157.43 160.885 157.841 161.195 158.353V153.713H162.667V165.553H161.195V163.905C160.907 164.427 160.48 164.859 159.915 165.201C159.349 165.531 158.688 165.697 157.931 165.697C157.152 165.697 156.443 165.505 155.803 165.121C155.173 164.737 154.677 164.198 154.315 163.505C153.952 162.811 153.771 162.022 153.771 161.137ZM161.195 161.153C161.195 160.491 161.061 159.915 160.795 159.425C160.528 158.934 160.165 158.561 159.707 158.305C159.259 158.038 158.763 157.905 158.219 157.905C157.675 157.905 157.179 158.033 156.731 158.289C156.283 158.545 155.925 158.918 155.659 159.409C155.392 159.899 155.259 160.475 155.259 161.137C155.259 161.809 155.392 162.395 155.659 162.897C155.925 163.387 156.283 163.766 156.731 164.033C157.179 164.289 157.675 164.417 158.219 164.417C158.763 164.417 159.259 164.289 159.707 164.033C160.165 163.766 160.528 163.387 160.795 162.897C161.061 162.395 161.195 161.814 161.195 161.153ZM168.951 165.697C168.13 165.697 167.383 165.51 166.711 165.137C166.05 164.763 165.527 164.235 165.143 163.553C164.77 162.859 164.583 162.059 164.583 161.153C164.583 160.257 164.775 159.467 165.159 158.785C165.554 158.091 166.087 157.563 166.759 157.201C167.431 156.827 168.183 156.641 169.015 156.641C169.847 156.641 170.599 156.827 171.271 157.201C171.943 157.563 172.471 158.086 172.855 158.769C173.25 159.451 173.447 160.246 173.447 161.153C173.447 162.059 173.244 162.859 172.839 163.553C172.444 164.235 171.906 164.763 171.223 165.137C170.54 165.51 169.783 165.697 168.951 165.697ZM168.951 164.417C169.474 164.417 169.964 164.294 170.423 164.049C170.882 163.803 171.25 163.435 171.527 162.945C171.815 162.454 171.959 161.857 171.959 161.153C171.959 160.449 171.82 159.851 171.543 159.361C171.266 158.87 170.903 158.507 170.455 158.273C170.007 158.027 169.522 157.905 168.999 157.905C168.466 157.905 167.975 158.027 167.527 158.273C167.09 158.507 166.738 158.87 166.471 159.361C166.204 159.851 166.071 160.449 166.071 161.153C166.071 161.867 166.199 162.47 166.455 162.961C166.722 163.451 167.074 163.819 167.511 164.065C167.948 164.299 168.428 164.417 168.951 164.417ZM187.041 156.785L184.305 165.553H182.801L180.689 158.593L178.577 165.553H177.073L174.321 156.785H175.809L177.825 164.145L180.001 156.785H181.489L183.617 164.161L185.601 156.785H187.041ZM188.95 165.649C188.673 165.649 188.438 165.553 188.246 165.361C188.054 165.169 187.958 164.934 187.958 164.657C187.958 164.379 188.054 164.145 188.246 163.953C188.438 163.761 188.673 163.665 188.95 163.665C189.217 163.665 189.441 163.761 189.622 163.953C189.814 164.145 189.91 164.379 189.91 164.657C189.91 164.934 189.814 165.169 189.622 165.361C189.441 165.553 189.217 165.649 188.95 165.649Z" fill="#5C5C5C"/>
</g>
<defs>
<filter id="filter0_bd_1790_9577" x="15.6919" y="2.55251" width="365" height="225" filterUnits="userSpaceOnUse" color-interpolation-filters="sRGB">
<feFlood flood-opacity="0" result="BackgroundImageFix"/>
<feGaussianBlur in="BackgroundImageFix" stdDeviation="13"/>
<feComposite in2="SourceAlpha" operator="in" result="effect1_backgroundBlur_1790_9577"/>
<feColorMatrix in="SourceAlpha" type="matrix" values="0 0 0 0 0 0 0 0 0 0 0 0 0 0 0 0 0 0 127 0" result="hardAlpha"/>
<feOffset dy="8"/>
<feGaussianBlur stdDeviation="10.5"/>
<feComposite in2="hardAlpha" operator="out"/>
<feColorMatrix type="matrix" values="0 0 0 0 0.1125 0 0 0 0 0.1125 0 0 0 0 0.1125 0 0 0 0.06 0"/>
<feBlend mode="normal" in2="effect1_backgroundBlur_1790_9577" result="effect2_dropShadow_1790_9577"/>
<feBlend mode="normal" in="SourceGraphic" in2="effect2_dropShadow_1790_9577" result="shape"/>
</filter>
</defs>
</svg>
