<svg width="398" height="235" viewBox="0 0 398 235" fill="none" xmlns="http://www.w3.org/2000/svg">
<path fill-rule="evenodd" clip-rule="evenodd" d="M63.3563 6.64127C101.378 6.61676 103.683 6.64127 105.006 7.05802C105.791 7.30316 106.918 7.76893 107.531 8.13665C108.144 8.47985 109.051 9.21529 109.541 9.77912C110.056 10.3184 110.694 11.201 110.939 11.6912C111.184 12.206 111.576 13.2847 111.797 14.0937C112.14 15.4174 112.189 20.639 112.189 63.858C112.189 111.465 112.189 112.176 111.699 114.064C111.429 115.093 110.939 116.368 110.62 116.858C110.301 117.373 109.517 118.28 108.855 118.868C108.193 119.481 107.213 120.168 106.673 120.413C106.134 120.633 105.08 120.952 104.344 121.099C103.364 121.295 102.555 121.295 101.403 121.075C100.52 120.928 99.0493 120.486 98.0932 120.119C97.1372 119.751 95.5437 119.04 94.5386 118.574C93.5336 118.084 91.8175 117.471 90.7389 117.152C89.1945 116.711 88.1404 116.613 85.7134 116.613C83.6787 116.613 82.0608 116.76 80.9331 117.03C79.9771 117.25 77.8443 118.084 76.1528 118.893C74.4613 119.702 72.0344 120.609 70.7596 120.952C69.4849 121.271 67.2786 121.688 65.8568 121.859C63.7485 122.129 62.817 122.129 60.8313 121.859C59.483 121.688 57.3748 121.295 56.1736 120.977C54.9478 120.682 52.5209 119.751 50.7804 118.942C49.0153 118.108 46.809 117.25 45.8775 117.03C44.7253 116.76 43.1319 116.613 41.0972 116.613C38.6948 116.613 37.6161 116.736 36.1207 117.128C35.0911 117.422 33.4977 118.035 32.5661 118.501C31.6591 118.942 29.9921 119.653 28.84 120.07C27.6878 120.462 26.0943 120.928 25.2854 121.075C24.2558 121.271 23.4223 121.271 22.4662 121.099C21.7308 120.952 20.5541 120.584 19.8922 120.266C19.2058 119.947 18.1762 119.187 17.5633 118.574C16.9505 117.961 16.166 116.883 15.8228 116.172C15.4551 115.436 15.0383 114.26 14.8912 113.549C14.6951 112.642 14.6216 98.6194 14.6216 64.1521C14.6216 31.8421 14.6951 15.6136 14.8667 14.7065C15.0138 13.9711 15.3815 12.7944 15.6757 12.1325C15.9944 11.4461 16.6808 10.4165 17.2201 9.82815C17.7349 9.2398 18.6665 8.47985 19.2793 8.13665C19.8922 7.76893 20.9953 7.30316 21.7308 7.05802C22.981 6.66578 25.8247 6.64127 63.3318 6.64127H63.3563ZM36.9542 26.2283C36.5375 26.6205 36.0962 27.3805 35.9491 27.8708C35.8021 28.3856 35.7285 29.2191 35.8266 29.7094C35.9001 30.2242 36.2678 30.9841 36.6355 31.4009C37.0278 31.8421 37.6161 32.3324 37.9838 32.504C38.3761 32.7001 39.136 32.8472 39.6999 32.8472C40.3863 32.8472 41.0481 32.6756 41.5875 32.3079C42.0532 31.9892 42.6416 31.4744 42.8867 31.1312C43.1564 30.788 43.426 30.028 43.4996 29.4152C43.5976 28.5817 43.4996 28.0669 43.1074 27.2579C42.8377 26.6941 42.2248 26.0077 41.7836 25.7625C41.3668 25.4929 40.6069 25.2232 40.1411 25.1497C39.6753 25.1006 38.9154 25.1252 38.4741 25.2722C38.0574 25.3948 37.371 25.8116 36.9542 26.2283ZM49.8243 26.3999C49.334 26.9883 48.9908 27.7482 48.8682 28.4346C48.7212 29.3416 48.7947 29.7339 49.2605 30.6409C49.5792 31.2538 50.2165 31.9892 50.6823 32.3079L51.5403 32.8717H87.8217C89.121 31.9892 89.7093 31.4744 89.9544 31.1312C90.2241 30.788 90.4938 30.028 90.5673 29.4152C90.6654 28.5817 90.5673 28.0669 90.1751 27.2579C89.8809 26.645 89.2926 26.0077 88.7287 25.6645L87.8217 25.1252C59.8507 25.0516 51.908 25.1252 51.4423 25.2722C50.9275 25.3948 50.2656 25.8851 49.8243 26.3999ZM37.6897 46.6243C37.2484 46.943 36.6601 47.4578 36.4149 47.801C36.1453 48.1442 35.8756 48.9042 35.8021 49.517C35.704 50.3505 35.8021 50.8653 36.1943 51.6498C36.4885 52.2872 37.0768 52.9245 37.6406 53.2432L38.5477 53.807H87.8217C89.2926 52.9245 89.8809 52.2872 90.1751 51.6498C90.5673 50.8653 90.6654 50.3505 90.5673 49.517C90.4938 48.9042 90.2241 48.1442 89.9544 47.801C89.7093 47.4578 89.121 46.943 88.6552 46.6243L87.8217 46.0605L38.5232 46.085L37.6897 46.6243ZM36.5375 68.3441C36.2188 68.7608 35.9001 69.4718 35.8021 69.913C35.7285 70.3543 35.7285 71.1142 35.8021 71.629C35.9001 72.2419 36.2678 72.8548 36.9297 73.5167C37.5181 74.105 38.2535 74.5708 38.7193 74.6688C39.1605 74.7424 39.945 74.7179 40.4843 74.6443C41.138 74.5136 41.7672 74.154 42.3719 73.5657C42.8867 73.0509 43.328 72.3154 43.426 71.8006C43.5241 71.3349 43.5486 70.5504 43.4751 70.0356C43.377 69.5208 43.0093 68.7608 42.6416 68.3441C42.2739 67.9028 41.612 67.4126 41.1707 67.241C40.7295 67.0448 40.0185 66.9223 39.5773 66.9223C39.136 66.9223 38.4006 67.0694 37.9348 67.2655C37.4936 67.4371 36.8562 67.9274 36.5375 68.3441ZM50.9029 67.4616C50.4372 67.7558 49.7753 68.3931 49.4566 68.8834C49.0153 69.4718 48.8437 70.0601 48.8437 70.8201C48.8437 71.531 49.0399 72.2664 49.3585 72.7812C49.6527 73.2715 50.3391 73.9089 50.9029 74.2031L51.8835 74.7424C87.6991 74.6443 88.1649 74.6198 88.8023 74.1295C89.17 73.8599 89.7093 73.3451 89.979 72.9528C90.3712 72.438 90.4938 71.9232 90.4938 70.8446C90.4938 69.7414 90.3712 69.2266 89.979 68.7118C89.7093 68.3196 89.17 67.8048 88.8023 67.5106C88.1649 67.0448 87.6991 67.0203 69.9507 66.9713L51.761 66.9223L50.9029 67.4616ZM37.0768 88.7156C36.8317 88.9117 36.4149 89.5246 36.1453 90.0639C35.7775 90.7993 35.704 91.3386 35.8021 92.1476C35.8756 92.7605 36.1453 93.5204 36.3904 93.8636C36.6601 94.2068 37.2484 94.7216 37.6897 95.0403L38.5477 95.6042H87.8217C89.0964 94.7216 89.6848 94.2068 89.9544 93.8636C90.1996 93.5204 90.4693 92.7605 90.5428 92.1476C90.6654 91.3141 90.5673 90.7993 90.1751 90.0149C89.8564 89.3775 89.268 88.7401 88.7287 88.4214L87.8217 87.8576C45.0195 87.7595 39.0625 87.8331 38.4006 88.0537C37.9348 88.2253 37.322 88.5195 37.0768 88.7156Z" fill="#118B64"/>
<g filter="url(#filter0_bd_1790_9593)">
<rect x="63.1602" y="36" width="313" height="170" rx="14" fill="white" fill-opacity="0.85" shape-rendering="crispEdges"/>
<g opacity="0.8">
<path d="M110.3 70.1V84H108.02V74.48L103.78 84H102.2L97.9402 74.48V84H95.6602V70.1H98.1202L103 81L107.86 70.1H110.3ZM118.077 84.18C117.037 84.18 116.097 83.9467 115.257 83.48C114.417 83 113.757 82.3333 113.277 81.48C112.797 80.6133 112.557 79.6133 112.557 78.48C112.557 77.36 112.804 76.3667 113.297 75.5C113.79 74.6333 114.464 73.9667 115.317 73.5C116.17 73.0333 117.124 72.8 118.177 72.8C119.23 72.8 120.184 73.0333 121.037 73.5C121.89 73.9667 122.564 74.6333 123.057 75.5C123.55 76.3667 123.797 77.36 123.797 78.48C123.797 79.6 123.544 80.5933 123.037 81.46C122.53 82.3267 121.837 83 120.957 83.48C120.09 83.9467 119.13 84.18 118.077 84.18ZM118.077 82.2C118.664 82.2 119.21 82.06 119.717 81.78C120.237 81.5 120.657 81.08 120.977 80.52C121.297 79.96 121.457 79.28 121.457 78.48C121.457 77.68 121.304 77.0067 120.997 76.46C120.69 75.9 120.284 75.48 119.777 75.2C119.27 74.92 118.724 74.78 118.137 74.78C117.55 74.78 117.004 74.92 116.497 75.2C116.004 75.48 115.61 75.9 115.317 76.46C115.024 77.0067 114.877 77.68 114.877 78.48C114.877 79.6667 115.177 80.5867 115.777 81.24C116.39 81.88 117.157 82.2 118.077 82.2ZM125.291 78.44C125.291 77.3333 125.517 76.3533 125.971 75.5C126.437 74.6467 127.064 73.9867 127.851 73.52C128.651 73.04 129.537 72.8 130.511 72.8C131.231 72.8 131.937 72.96 132.631 73.28C133.337 73.5867 133.897 74 134.311 74.52V69.2H136.611V84H134.311V82.34C133.937 82.8733 133.417 83.3133 132.751 83.66C132.097 84.0067 131.344 84.18 130.491 84.18C129.531 84.18 128.651 83.94 127.851 83.46C127.064 82.9667 126.437 82.2867 125.971 81.42C125.517 80.54 125.291 79.5467 125.291 78.44ZM134.311 78.48C134.311 77.72 134.151 77.06 133.831 76.5C133.524 75.94 133.117 75.5133 132.611 75.22C132.104 74.9267 131.557 74.78 130.971 74.78C130.384 74.78 129.837 74.9267 129.331 75.22C128.824 75.5 128.411 75.92 128.091 76.48C127.784 77.0267 127.631 77.68 127.631 78.44C127.631 79.2 127.784 79.8667 128.091 80.44C128.411 81.0133 128.824 81.4533 129.331 81.76C129.851 82.0533 130.397 82.2 130.971 82.2C131.557 82.2 132.104 82.0533 132.611 81.76C133.117 81.4667 133.524 81.04 133.831 80.48C134.151 79.9067 134.311 79.24 134.311 78.48ZM140.765 71.52C140.352 71.52 140.005 71.38 139.725 71.1C139.445 70.82 139.305 70.4733 139.305 70.06C139.305 69.6467 139.445 69.3 139.725 69.02C140.005 68.74 140.352 68.6 140.765 68.6C141.165 68.6 141.505 68.74 141.785 69.02C142.065 69.3 142.205 69.6467 142.205 70.06C142.205 70.4733 142.065 70.82 141.785 71.1C141.505 71.38 141.165 71.52 140.765 71.52ZM141.885 72.98V84H139.605V72.98H141.885ZM149.499 74.84H147.459V84H145.159V74.84H143.859V72.98H145.159V72.2C145.159 70.9333 145.492 70.0133 146.159 69.44C146.839 68.8533 147.899 68.56 149.339 68.56V70.46C148.646 70.46 148.159 70.5933 147.879 70.86C147.599 71.1133 147.459 71.56 147.459 72.2V72.98H149.499V74.84ZM161.44 72.98L154.68 89.18H152.32L154.56 83.82L150.22 72.98H152.76L155.86 81.38L159.08 72.98H161.44ZM182.995 70.1V84H180.715V74.48L176.475 84H174.895L170.635 74.48V84H168.355V70.1H170.815L175.695 81L180.555 70.1H182.995ZM195.972 72.98V84H193.692V82.7C193.332 83.1533 192.859 83.5133 192.272 83.78C191.699 84.0333 191.086 84.16 190.432 84.16C189.566 84.16 188.786 83.98 188.092 83.62C187.412 83.26 186.872 82.7267 186.472 82.02C186.086 81.3133 185.892 80.46 185.892 79.46V72.98H188.152V79.12C188.152 80.1067 188.399 80.8667 188.892 81.4C189.386 81.92 190.059 82.18 190.912 82.18C191.766 82.18 192.439 81.92 192.932 81.4C193.439 80.8667 193.692 80.1067 193.692 79.12V72.98H195.972ZM201.26 69.2V84H198.98V69.2H201.26ZM206.914 74.84V80.94C206.914 81.3533 207.007 81.6533 207.194 81.84C207.394 82.0133 207.727 82.1 208.194 82.1H209.594V84H207.794C206.767 84 205.981 83.76 205.434 83.28C204.887 82.8 204.614 82.02 204.614 80.94V74.84H203.314V72.98H204.614V70.24H206.914V72.98H209.594V74.84H206.914ZM212.855 71.52C212.442 71.52 212.095 71.38 211.815 71.1C211.535 70.82 211.395 70.4733 211.395 70.06C211.395 69.6467 211.535 69.3 211.815 69.02C212.095 68.74 212.442 68.6 212.855 68.6C213.255 68.6 213.595 68.74 213.875 69.02C214.155 69.3 214.295 69.6467 214.295 70.06C214.295 70.4733 214.155 70.82 213.875 71.1C213.595 71.38 213.255 71.52 212.855 71.52ZM213.975 72.98V84H211.695V72.98H213.975ZM219.249 74.6C219.635 74.0933 220.162 73.6667 220.829 73.32C221.495 72.9733 222.249 72.8 223.089 72.8C224.049 72.8 224.922 73.04 225.709 73.52C226.509 73.9867 227.135 74.6467 227.589 75.5C228.042 76.3533 228.269 77.3333 228.269 78.44C228.269 79.5467 228.042 80.54 227.589 81.42C227.135 82.2867 226.509 82.9667 225.709 83.46C224.922 83.94 224.049 84.18 223.089 84.18C222.249 84.18 221.502 84.0133 220.849 83.68C220.195 83.3333 219.662 82.9067 219.249 82.4V89.24H216.969V72.98H219.249V74.6ZM225.949 78.44C225.949 77.68 225.789 77.0267 225.469 76.48C225.162 75.92 224.749 75.5 224.229 75.22C223.722 74.9267 223.175 74.78 222.589 74.78C222.015 74.78 221.469 74.9267 220.949 75.22C220.442 75.5133 220.029 75.94 219.709 76.5C219.402 77.06 219.249 77.72 219.249 78.48C219.249 79.24 219.402 79.9067 219.709 80.48C220.029 81.04 220.442 81.4667 220.949 81.76C221.469 82.0533 222.015 82.2 222.589 82.2C223.175 82.2 223.722 82.0533 224.229 81.76C224.749 81.4533 225.162 81.0133 225.469 80.44C225.789 79.8667 225.949 79.2 225.949 78.44ZM232.803 69.2V84H230.523V69.2H232.803ZM245.897 78.22C245.897 78.6333 245.87 79.0067 245.817 79.34H237.397C237.464 80.22 237.79 80.9267 238.377 81.46C238.964 81.9933 239.684 82.26 240.537 82.26C241.764 82.26 242.63 81.7467 243.137 80.72H245.597C245.264 81.7333 244.657 82.5667 243.777 83.22C242.91 83.86 241.83 84.18 240.537 84.18C239.484 84.18 238.537 83.9467 237.697 83.48C236.87 83 236.217 82.3333 235.737 81.48C235.27 80.6133 235.037 79.6133 235.037 78.48C235.037 77.3467 235.264 76.3533 235.717 75.5C236.184 74.6333 236.83 73.9667 237.657 73.5C238.497 73.0333 239.457 72.8 240.537 72.8C241.577 72.8 242.504 73.0267 243.317 73.48C244.13 73.9333 244.764 74.5733 245.217 75.4C245.67 76.2133 245.897 77.1533 245.897 78.22ZM243.517 77.5C243.504 76.66 243.204 75.9867 242.617 75.48C242.03 74.9733 241.304 74.72 240.437 74.72C239.65 74.72 238.977 74.9733 238.417 75.48C237.857 75.9733 237.524 76.6467 237.417 77.5H243.517ZM259.676 84.14C258.383 84.14 257.189 83.84 256.096 83.24C255.016 82.6267 254.156 81.78 253.516 80.7C252.889 79.6067 252.576 78.38 252.576 77.02C252.576 75.66 252.889 74.44 253.516 73.36C254.156 72.28 255.016 71.44 256.096 70.84C257.189 70.2267 258.383 69.92 259.676 69.92C260.983 69.92 262.176 70.2267 263.256 70.84C264.349 71.44 265.209 72.28 265.836 73.36C266.463 74.44 266.776 75.66 266.776 77.02C266.776 78.38 266.463 79.6067 265.836 80.7C265.209 81.78 264.349 82.6267 263.256 83.24C262.176 83.84 260.983 84.14 259.676 84.14ZM259.676 82.16C260.596 82.16 261.416 81.9533 262.136 81.54C262.856 81.1133 263.416 80.5133 263.816 79.74C264.229 78.9533 264.436 78.0467 264.436 77.02C264.436 75.9933 264.229 75.0933 263.816 74.32C263.416 73.5467 262.856 72.9533 262.136 72.54C261.416 72.1267 260.596 71.92 259.676 71.92C258.756 71.92 257.936 72.1267 257.216 72.54C256.496 72.9533 255.929 73.5467 255.516 74.32C255.116 75.0933 254.916 75.9933 254.916 77.02C254.916 78.0467 255.116 78.9533 255.516 79.74C255.929 80.5133 256.496 81.1133 257.216 81.54C257.936 81.9533 258.756 82.16 259.676 82.16ZM271.3 74.58C271.633 74.02 272.073 73.5867 272.62 73.28C273.18 72.96 273.84 72.8 274.6 72.8V75.16H274.02C273.126 75.16 272.446 75.3867 271.98 75.84C271.526 76.2933 271.3 77.08 271.3 78.2V84H269.02V72.98H271.3V74.58ZM275.935 78.44C275.935 77.3333 276.162 76.3533 276.615 75.5C277.082 74.6467 277.709 73.9867 278.495 73.52C279.295 73.04 280.182 72.8 281.155 72.8C281.875 72.8 282.582 72.96 283.275 73.28C283.982 73.5867 284.542 74 284.955 74.52V69.2H287.255V84H284.955V82.34C284.582 82.8733 284.062 83.3133 283.395 83.66C282.742 84.0067 281.989 84.18 281.135 84.18C280.175 84.18 279.295 83.94 278.495 83.46C277.709 82.9667 277.082 82.2867 276.615 81.42C276.162 80.54 275.935 79.5467 275.935 78.44ZM284.955 78.48C284.955 77.72 284.795 77.06 284.475 76.5C284.169 75.94 283.762 75.5133 283.255 75.22C282.749 74.9267 282.202 74.78 281.615 74.78C281.029 74.78 280.482 74.9267 279.975 75.22C279.469 75.5 279.055 75.92 278.735 76.48C278.429 77.0267 278.275 77.68 278.275 78.44C278.275 79.2 278.429 79.8667 278.735 80.44C279.055 81.0133 279.469 81.4533 279.975 81.76C280.495 82.0533 281.042 82.2 281.615 82.2C282.202 82.2 282.749 82.0533 283.255 81.76C283.762 81.4667 284.169 81.04 284.475 80.48C284.795 79.9067 284.955 79.24 284.955 78.48ZM300.35 78.22C300.35 78.6333 300.323 79.0067 300.27 79.34H291.85C291.917 80.22 292.243 80.9267 292.83 81.46C293.417 81.9933 294.137 82.26 294.99 82.26C296.217 82.26 297.083 81.7467 297.59 80.72H300.05C299.717 81.7333 299.11 82.5667 298.23 83.22C297.363 83.86 296.283 84.18 294.99 84.18C293.937 84.18 292.99 83.9467 292.15 83.48C291.323 83 290.67 82.3333 290.19 81.48C289.723 80.6133 289.49 79.6133 289.49 78.48C289.49 77.3467 289.717 76.3533 290.17 75.5C290.637 74.6333 291.283 73.9667 292.11 73.5C292.95 73.0333 293.91 72.8 294.99 72.8C296.03 72.8 296.957 73.0267 297.77 73.48C298.583 73.9333 299.217 74.5733 299.67 75.4C300.123 76.2133 300.35 77.1533 300.35 78.22ZM297.97 77.5C297.957 76.66 297.657 75.9867 297.07 75.48C296.483 74.9733 295.757 74.72 294.89 74.72C294.103 74.72 293.43 74.9733 292.87 75.48C292.31 75.9733 291.977 76.6467 291.87 77.5H297.97ZM304.874 74.58C305.207 74.02 305.647 73.5867 306.194 73.28C306.754 72.96 307.414 72.8 308.174 72.8V75.16H307.594C306.7 75.16 306.02 75.3867 305.554 75.84C305.1 76.2933 304.874 77.08 304.874 78.2V84H302.594V72.98H304.874V74.58ZM314.27 84.18C313.403 84.18 312.623 84.0267 311.93 83.72C311.25 83.4 310.71 82.9733 310.31 82.44C309.91 81.8933 309.696 81.2867 309.67 80.62H312.03C312.07 81.0867 312.29 81.48 312.69 81.8C313.103 82.1067 313.616 82.26 314.23 82.26C314.87 82.26 315.363 82.14 315.71 81.9C316.07 81.6467 316.25 81.3267 316.25 80.94C316.25 80.5267 316.05 80.22 315.65 80.02C315.263 79.82 314.643 79.6 313.79 79.36C312.963 79.1333 312.29 78.9133 311.77 78.7C311.25 78.4867 310.796 78.16 310.41 77.72C310.036 77.28 309.85 76.7 309.85 75.98C309.85 75.3933 310.023 74.86 310.37 74.38C310.716 73.8867 311.21 73.5 311.85 73.22C312.503 72.94 313.25 72.8 314.09 72.8C315.343 72.8 316.35 73.12 317.11 73.76C317.883 74.3867 318.296 75.2467 318.35 76.34H316.07C316.03 75.8467 315.83 75.4533 315.47 75.16C315.11 74.8667 314.623 74.72 314.01 74.72C313.41 74.72 312.95 74.8333 312.63 75.06C312.31 75.2867 312.15 75.5867 312.15 75.96C312.15 76.2533 312.256 76.5 312.47 76.7C312.683 76.9 312.943 77.06 313.25 77.18C313.556 77.2867 314.01 77.4267 314.61 77.6C315.41 77.8133 316.063 78.0333 316.57 78.26C317.09 78.4733 317.536 78.7933 317.91 79.22C318.283 79.6467 318.476 80.2133 318.49 80.92C318.49 81.5467 318.316 82.1067 317.97 82.6C317.623 83.0933 317.13 83.48 316.49 83.76C315.863 84.04 315.123 84.18 314.27 84.18Z" fill="#121212"/>
</g>
<path d="M106.704 113.928V125H105.248V116.744L101.568 125H100.544L96.8482 116.728V125H95.3922V113.928H96.9602L101.056 123.08L105.152 113.928H106.704ZM112.997 125.144C112.176 125.144 111.429 124.957 110.757 124.584C110.096 124.211 109.573 123.683 109.189 123C108.816 122.307 108.629 121.507 108.629 120.6C108.629 119.704 108.821 118.915 109.205 118.232C109.6 117.539 110.133 117.011 110.805 116.648C111.477 116.275 112.229 116.088 113.061 116.088C113.893 116.088 114.645 116.275 115.317 116.648C115.989 117.011 116.517 117.533 116.901 118.216C117.296 118.899 117.493 119.693 117.493 120.6C117.493 121.507 117.291 122.307 116.885 123C116.491 123.683 115.952 124.211 115.269 124.584C114.587 124.957 113.829 125.144 112.997 125.144ZM112.997 123.864C113.52 123.864 114.011 123.741 114.469 123.496C114.928 123.251 115.296 122.883 115.573 122.392C115.861 121.901 116.005 121.304 116.005 120.6C116.005 119.896 115.867 119.299 115.589 118.808C115.312 118.317 114.949 117.955 114.501 117.72C114.053 117.475 113.568 117.352 113.045 117.352C112.512 117.352 112.021 117.475 111.573 117.72C111.136 117.955 110.784 118.317 110.517 118.808C110.251 119.299 110.117 119.896 110.117 120.6C110.117 121.315 110.245 121.917 110.501 122.408C110.768 122.899 111.12 123.267 111.557 123.512C111.995 123.747 112.475 123.864 112.997 123.864ZM118.864 120.584C118.864 119.688 119.045 118.904 119.408 118.232C119.77 117.549 120.266 117.021 120.896 116.648C121.536 116.275 122.25 116.088 123.04 116.088C123.722 116.088 124.357 116.248 124.944 116.568C125.53 116.877 125.978 117.288 126.288 117.8V113.16H127.76V125H126.288V123.352C126 123.875 125.573 124.307 125.008 124.648C124.442 124.979 123.781 125.144 123.024 125.144C122.245 125.144 121.536 124.952 120.896 124.568C120.266 124.184 119.77 123.645 119.408 122.952C119.045 122.259 118.864 121.469 118.864 120.584ZM126.288 120.6C126.288 119.939 126.154 119.363 125.888 118.872C125.621 118.381 125.258 118.008 124.8 117.752C124.352 117.485 123.856 117.352 123.312 117.352C122.768 117.352 122.272 117.48 121.824 117.736C121.376 117.992 121.018 118.365 120.752 118.856C120.485 119.347 120.352 119.923 120.352 120.584C120.352 121.256 120.485 121.843 120.752 122.344C121.018 122.835 121.376 123.213 121.824 123.48C122.272 123.736 122.768 123.864 123.312 123.864C123.856 123.864 124.352 123.736 124.8 123.48C125.258 123.213 125.621 122.835 125.888 122.344C126.154 121.843 126.288 121.261 126.288 120.6ZM130.972 114.808C130.695 114.808 130.46 114.712 130.268 114.52C130.076 114.328 129.98 114.093 129.98 113.816C129.98 113.539 130.076 113.304 130.268 113.112C130.46 112.92 130.695 112.824 130.972 112.824C131.239 112.824 131.463 112.92 131.644 113.112C131.836 113.304 131.932 113.539 131.932 113.816C131.932 114.093 131.836 114.328 131.644 114.52C131.463 114.712 131.239 114.808 130.972 114.808ZM131.676 116.232V125H130.22V116.232H131.676ZM137.726 117.432H135.886V125H134.43V117.432H133.294V116.232H134.43V115.608C134.43 114.627 134.68 113.912 135.182 113.464C135.694 113.005 136.51 112.776 137.63 112.776V113.992C136.99 113.992 136.536 114.12 136.27 114.376C136.014 114.621 135.886 115.032 135.886 115.608V116.232H137.726V117.432ZM146.975 116.232L141.695 129.128H140.191L141.919 124.904L138.383 116.232H139.999L142.751 123.336L145.471 116.232H146.975ZM156.529 125.144C155.707 125.144 154.961 124.957 154.289 124.584C153.627 124.211 153.105 123.683 152.721 123C152.347 122.307 152.161 121.507 152.161 120.6C152.161 119.704 152.353 118.915 152.737 118.232C153.131 117.539 153.665 117.011 154.337 116.648C155.009 116.275 155.761 116.088 156.593 116.088C157.425 116.088 158.177 116.275 158.849 116.648C159.521 117.011 160.049 117.533 160.433 118.216C160.827 118.899 161.025 119.693 161.025 120.6C161.025 121.507 160.822 122.307 160.417 123C160.022 123.683 159.483 124.211 158.801 124.584C158.118 124.957 157.361 125.144 156.529 125.144ZM156.529 123.864C157.051 123.864 157.542 123.741 158.001 123.496C158.459 123.251 158.827 122.883 159.105 122.392C159.393 121.901 159.537 121.304 159.537 120.6C159.537 119.896 159.398 119.299 159.121 118.808C158.843 118.317 158.481 117.955 158.033 117.72C157.585 117.475 157.099 117.352 156.577 117.352C156.043 117.352 155.553 117.475 155.105 117.72C154.667 117.955 154.315 118.317 154.049 118.808C153.782 119.299 153.649 119.896 153.649 120.6C153.649 121.315 153.777 121.917 154.033 122.408C154.299 122.899 154.651 123.267 155.089 123.512C155.526 123.747 156.006 123.864 156.529 123.864ZM164.395 117.656C164.651 117.155 165.014 116.765 165.483 116.488C165.963 116.211 166.544 116.072 167.227 116.072V117.576H166.843C165.211 117.576 164.395 118.461 164.395 120.232V125H162.939V116.232H164.395V117.656ZM172.629 120.6C172.629 119.693 172.811 118.904 173.173 118.232C173.536 117.549 174.037 117.021 174.677 116.648C175.328 116.275 176.069 116.088 176.901 116.088C177.979 116.088 178.864 116.349 179.557 116.872C180.261 117.395 180.725 118.12 180.949 119.048H179.381C179.232 118.515 178.939 118.093 178.501 117.784C178.075 117.475 177.541 117.32 176.901 117.32C176.069 117.32 175.397 117.608 174.885 118.184C174.373 118.749 174.117 119.555 174.117 120.6C174.117 121.656 174.373 122.472 174.885 123.048C175.397 123.624 176.069 123.912 176.901 123.912C177.541 123.912 178.075 123.763 178.501 123.464C178.928 123.165 179.221 122.739 179.381 122.184H180.949C180.715 123.08 180.245 123.8 179.541 124.344C178.837 124.877 177.957 125.144 176.901 125.144C176.069 125.144 175.328 124.957 174.677 124.584C174.037 124.211 173.536 123.683 173.173 123C172.811 122.317 172.629 121.517 172.629 120.6ZM182.348 120.584C182.348 119.688 182.529 118.904 182.892 118.232C183.255 117.549 183.751 117.021 184.38 116.648C185.02 116.275 185.729 116.088 186.508 116.088C187.276 116.088 187.943 116.253 188.508 116.584C189.073 116.915 189.495 117.331 189.772 117.832V116.232H191.244V125H189.772V123.368C189.484 123.88 189.052 124.307 188.476 124.648C187.911 124.979 187.249 125.144 186.492 125.144C185.713 125.144 185.009 124.952 184.38 124.568C183.751 124.184 183.255 123.645 182.892 122.952C182.529 122.259 182.348 121.469 182.348 120.584ZM189.772 120.6C189.772 119.939 189.639 119.363 189.372 118.872C189.105 118.381 188.743 118.008 188.284 117.752C187.836 117.485 187.34 117.352 186.796 117.352C186.252 117.352 185.756 117.48 185.308 117.736C184.86 117.992 184.503 118.365 184.236 118.856C183.969 119.347 183.836 119.923 183.836 120.584C183.836 121.256 183.969 121.843 184.236 122.344C184.503 122.835 184.86 123.213 185.308 123.48C185.756 123.736 186.252 123.864 186.796 123.864C187.34 123.864 187.836 123.736 188.284 123.48C188.743 123.213 189.105 122.835 189.372 122.344C189.639 121.843 189.772 121.261 189.772 120.6ZM197.977 116.072C199.043 116.072 199.907 116.397 200.569 117.048C201.23 117.688 201.561 118.616 201.561 119.832V125H200.121V120.04C200.121 119.165 199.902 118.499 199.465 118.04C199.027 117.571 198.43 117.336 197.673 117.336C196.905 117.336 196.291 117.576 195.833 118.056C195.385 118.536 195.161 119.235 195.161 120.152V125H193.705V116.232H195.161V117.48C195.449 117.032 195.838 116.685 196.329 116.44C196.83 116.195 197.379 116.072 197.977 116.072ZM203.395 120.6C203.395 119.693 203.576 118.904 203.939 118.232C204.302 117.549 204.803 117.021 205.443 116.648C206.094 116.275 206.835 116.088 207.667 116.088C208.744 116.088 209.63 116.349 210.323 116.872C211.027 117.395 211.491 118.12 211.715 119.048H210.147C209.998 118.515 209.704 118.093 209.267 117.784C208.84 117.475 208.307 117.32 207.667 117.32C206.835 117.32 206.163 117.608 205.651 118.184C205.139 118.749 204.883 119.555 204.883 120.6C204.883 121.656 205.139 122.472 205.651 123.048C206.163 123.624 206.835 123.912 207.667 123.912C208.307 123.912 208.84 123.763 209.267 123.464C209.694 123.165 209.987 122.739 210.147 122.184H211.715C211.48 123.08 211.011 123.8 210.307 124.344C209.603 124.877 208.723 125.144 207.667 125.144C206.835 125.144 206.094 124.957 205.443 124.584C204.803 124.211 204.302 123.683 203.939 123C203.576 122.317 203.395 121.517 203.395 120.6ZM221.658 120.28C221.658 120.557 221.642 120.851 221.61 121.16H214.602C214.655 122.024 214.948 122.701 215.482 123.192C216.026 123.672 216.682 123.912 217.45 123.912C218.079 123.912 218.602 123.768 219.018 123.48C219.444 123.181 219.743 122.787 219.914 122.296H221.482C221.247 123.139 220.778 123.827 220.074 124.36C219.37 124.883 218.495 125.144 217.45 125.144C216.618 125.144 215.871 124.957 215.21 124.584C214.559 124.211 214.047 123.683 213.674 123C213.3 122.307 213.114 121.507 213.114 120.6C213.114 119.693 213.295 118.899 213.658 118.216C214.02 117.533 214.527 117.011 215.178 116.648C215.839 116.275 216.596 116.088 217.45 116.088C218.282 116.088 219.018 116.269 219.658 116.632C220.298 116.995 220.788 117.496 221.13 118.136C221.482 118.765 221.658 119.48 221.658 120.28ZM220.154 119.976C220.154 119.421 220.031 118.947 219.786 118.552C219.54 118.147 219.204 117.843 218.778 117.64C218.362 117.427 217.898 117.32 217.386 117.32C216.65 117.32 216.02 117.555 215.498 118.024C214.986 118.493 214.692 119.144 214.618 119.976H220.154ZM225.036 113.16V125H223.58V113.16H225.036ZM242.327 116.072C243.009 116.072 243.617 116.216 244.151 116.504C244.684 116.781 245.105 117.203 245.415 117.768C245.724 118.333 245.879 119.021 245.879 119.832V125H244.439V120.04C244.439 119.165 244.22 118.499 243.783 118.04C243.356 117.571 242.775 117.336 242.039 117.336C241.281 117.336 240.679 117.581 240.231 118.072C239.783 118.552 239.559 119.251 239.559 120.168V125H238.119V120.04C238.119 119.165 237.9 118.499 237.463 118.04C237.036 117.571 236.455 117.336 235.719 117.336C234.961 117.336 234.359 117.581 233.911 118.072C233.463 118.552 233.239 119.251 233.239 120.168V125H231.783V116.232H233.239V117.496C233.527 117.037 233.911 116.685 234.391 116.44C234.881 116.195 235.42 116.072 236.007 116.072C236.743 116.072 237.393 116.237 237.959 116.568C238.524 116.899 238.945 117.384 239.223 118.024C239.468 117.405 239.873 116.925 240.439 116.584C241.004 116.243 241.633 116.072 242.327 116.072ZM256.043 116.232V125H254.587V123.704C254.31 124.152 253.92 124.504 253.419 124.76C252.928 125.005 252.384 125.128 251.787 125.128C251.104 125.128 250.491 124.989 249.947 124.712C249.403 124.424 248.971 123.997 248.651 123.432C248.342 122.867 248.187 122.179 248.187 121.368V116.232H249.627V121.176C249.627 122.04 249.846 122.707 250.283 123.176C250.72 123.635 251.318 123.864 252.075 123.864C252.854 123.864 253.467 123.624 253.915 123.144C254.363 122.664 254.587 121.965 254.587 121.048V116.232H256.043ZM259.958 113.16V125H258.502V113.16H259.958ZM264.215 117.432V122.6C264.215 123.027 264.306 123.331 264.487 123.512C264.668 123.683 264.983 123.768 265.431 123.768H266.503V125H265.191C264.38 125 263.772 124.813 263.367 124.44C262.962 124.067 262.759 123.453 262.759 122.6V117.432H261.623V116.232H262.759V114.024H264.215V116.232H266.503V117.432H264.215ZM269.019 114.808C268.742 114.808 268.507 114.712 268.315 114.52C268.123 114.328 268.027 114.093 268.027 113.816C268.027 113.539 268.123 113.304 268.315 113.112C268.507 112.92 268.742 112.824 269.019 112.824C269.286 112.824 269.51 112.92 269.691 113.112C269.883 113.304 269.979 113.539 269.979 113.816C269.979 114.093 269.883 114.328 269.691 114.52C269.51 114.712 269.286 114.808 269.019 114.808ZM269.723 116.232V125H268.267V116.232H269.723ZM273.661 117.848C273.949 117.347 274.375 116.931 274.941 116.6C275.517 116.259 276.183 116.088 276.941 116.088C277.719 116.088 278.423 116.275 279.053 116.648C279.693 117.021 280.194 117.549 280.557 118.232C280.919 118.904 281.101 119.688 281.101 120.584C281.101 121.469 280.919 122.259 280.557 122.952C280.194 123.645 279.693 124.184 279.053 124.568C278.423 124.952 277.719 125.144 276.941 125.144C276.194 125.144 275.533 124.979 274.957 124.648C274.391 124.307 273.959 123.885 273.661 123.384V129.16H272.205V116.232H273.661V117.848ZM279.613 120.584C279.613 119.923 279.479 119.347 279.213 118.856C278.946 118.365 278.583 117.992 278.125 117.736C277.677 117.48 277.181 117.352 276.637 117.352C276.103 117.352 275.607 117.485 275.149 117.752C274.701 118.008 274.338 118.387 274.061 118.888C273.794 119.379 273.661 119.949 273.661 120.6C273.661 121.261 273.794 121.843 274.061 122.344C274.338 122.835 274.701 123.213 275.149 123.48C275.607 123.736 276.103 123.864 276.637 123.864C277.181 123.864 277.677 123.736 278.125 123.48C278.583 123.213 278.946 122.835 279.213 122.344C279.479 121.843 279.613 121.256 279.613 120.584ZM284.473 113.16V125H283.017V113.16H284.473ZM294.955 120.28C294.955 120.557 294.939 120.851 294.907 121.16H287.899C287.952 122.024 288.245 122.701 288.779 123.192C289.323 123.672 289.979 123.912 290.747 123.912C291.376 123.912 291.899 123.768 292.315 123.48C292.741 123.181 293.04 122.787 293.211 122.296H294.779C294.544 123.139 294.075 123.827 293.371 124.36C292.667 124.883 291.792 125.144 290.747 125.144C289.915 125.144 289.168 124.957 288.507 124.584C287.856 124.211 287.344 123.683 286.971 123C286.597 122.307 286.411 121.507 286.411 120.6C286.411 119.693 286.592 118.899 286.955 118.216C287.317 117.533 287.824 117.011 288.475 116.648C289.136 116.275 289.893 116.088 290.747 116.088C291.579 116.088 292.315 116.269 292.955 116.632C293.595 116.995 294.085 117.496 294.427 118.136C294.779 118.765 294.955 119.48 294.955 120.28ZM293.451 119.976C293.451 119.421 293.328 118.947 293.083 118.552C292.837 118.147 292.501 117.843 292.075 117.64C291.659 117.427 291.195 117.32 290.683 117.32C289.947 117.32 289.317 117.555 288.795 118.024C288.283 118.493 287.989 119.144 287.915 119.976H293.451ZM99.2162 149.144C98.3948 149.144 97.6482 148.957 96.9762 148.584C96.3148 148.211 95.7922 147.683 95.4082 147C95.0348 146.307 94.8482 145.507 94.8482 144.6C94.8482 143.704 95.0402 142.915 95.4242 142.232C95.8188 141.539 96.3522 141.011 97.0242 140.648C97.6962 140.275 98.4482 140.088 99.2802 140.088C100.112 140.088 100.864 140.275 101.536 140.648C102.208 141.011 102.736 141.533 103.12 142.216C103.515 142.899 103.712 143.693 103.712 144.6C103.712 145.507 103.509 146.307 103.104 147C102.709 147.683 102.171 148.211 101.488 148.584C100.805 148.957 100.048 149.144 99.2162 149.144ZM99.2162 147.864C99.7388 147.864 100.229 147.741 100.688 147.496C101.147 147.251 101.515 146.883 101.792 146.392C102.08 145.901 102.224 145.304 102.224 144.6C102.224 143.896 102.085 143.299 101.808 142.808C101.531 142.317 101.168 141.955 100.72 141.72C100.272 141.475 99.7868 141.352 99.2642 141.352C98.7308 141.352 98.2402 141.475 97.7922 141.72C97.3548 141.955 97.0028 142.317 96.7362 142.808C96.4695 143.299 96.3362 143.896 96.3362 144.6C96.3362 145.315 96.4642 145.917 96.7202 146.408C96.9868 146.899 97.3388 147.267 97.7762 147.512C98.2135 147.747 98.6935 147.864 99.2162 147.864ZM107.083 141.656C107.339 141.155 107.701 140.765 108.171 140.488C108.651 140.211 109.232 140.072 109.915 140.072V141.576H109.531C107.899 141.576 107.083 142.461 107.083 144.232V149H105.627V140.232H107.083V141.656ZM111.051 144.584C111.051 143.688 111.233 142.904 111.595 142.232C111.958 141.549 112.454 141.021 113.083 140.648C113.723 140.275 114.438 140.088 115.227 140.088C115.91 140.088 116.545 140.248 117.131 140.568C117.718 140.877 118.166 141.288 118.475 141.8V137.16H119.947V149H118.475V147.352C118.187 147.875 117.761 148.307 117.195 148.648C116.63 148.979 115.969 149.144 115.211 149.144C114.433 149.144 113.723 148.952 113.083 148.568C112.454 148.184 111.958 147.645 111.595 146.952C111.233 146.259 111.051 145.469 111.051 144.584ZM118.475 144.6C118.475 143.939 118.342 143.363 118.075 142.872C117.809 142.381 117.446 142.008 116.987 141.752C116.539 141.485 116.043 141.352 115.499 141.352C114.955 141.352 114.459 141.48 114.011 141.736C113.563 141.992 113.206 142.365 112.939 142.856C112.673 143.347 112.539 143.923 112.539 144.584C112.539 145.256 112.673 145.843 112.939 146.344C113.206 146.835 113.563 147.213 114.011 147.48C114.459 147.736 114.955 147.864 115.499 147.864C116.043 147.864 116.539 147.736 116.987 147.48C117.446 147.213 117.809 146.835 118.075 146.344C118.342 145.843 118.475 145.261 118.475 144.6ZM130.408 144.28C130.408 144.557 130.392 144.851 130.36 145.16H123.352C123.405 146.024 123.698 146.701 124.232 147.192C124.776 147.672 125.432 147.912 126.2 147.912C126.829 147.912 127.352 147.768 127.768 147.48C128.194 147.181 128.493 146.787 128.664 146.296H130.232C129.997 147.139 129.528 147.827 128.824 148.36C128.12 148.883 127.245 149.144 126.2 149.144C125.368 149.144 124.621 148.957 123.96 148.584C123.309 148.211 122.797 147.683 122.424 147C122.05 146.307 121.864 145.507 121.864 144.6C121.864 143.693 122.045 142.899 122.408 142.216C122.77 141.533 123.277 141.011 123.928 140.648C124.589 140.275 125.346 140.088 126.2 140.088C127.032 140.088 127.768 140.269 128.408 140.632C129.048 140.995 129.538 141.496 129.88 142.136C130.232 142.765 130.408 143.48 130.408 144.28ZM128.904 143.976C128.904 143.421 128.781 142.947 128.536 142.552C128.29 142.147 127.954 141.843 127.528 141.64C127.112 141.427 126.648 141.32 126.136 141.32C125.4 141.32 124.77 141.555 124.248 142.024C123.736 142.493 123.442 143.144 123.368 143.976H128.904ZM133.786 141.656C134.042 141.155 134.404 140.765 134.874 140.488C135.354 140.211 135.935 140.072 136.618 140.072V141.576H136.234C134.602 141.576 133.786 142.461 133.786 144.232V149H132.33V140.232H133.786V141.656ZM141.402 149.144C140.73 149.144 140.128 149.032 139.594 148.808C139.061 148.573 138.64 148.253 138.33 147.848C138.021 147.432 137.85 146.957 137.818 146.424H139.322C139.365 146.861 139.568 147.219 139.93 147.496C140.304 147.773 140.789 147.912 141.386 147.912C141.941 147.912 142.378 147.789 142.698 147.544C143.018 147.299 143.178 146.989 143.178 146.616C143.178 146.232 143.008 145.949 142.666 145.768C142.325 145.576 141.797 145.389 141.082 145.208C140.432 145.037 139.898 144.867 139.482 144.696C139.077 144.515 138.725 144.253 138.426 143.912C138.138 143.56 137.994 143.101 137.994 142.536C137.994 142.088 138.128 141.677 138.394 141.304C138.661 140.931 139.04 140.637 139.53 140.424C140.021 140.2 140.581 140.088 141.21 140.088C142.181 140.088 142.965 140.333 143.562 140.824C144.16 141.315 144.48 141.987 144.522 142.84H143.066C143.034 142.381 142.848 142.013 142.506 141.736C142.176 141.459 141.728 141.32 141.162 141.32C140.64 141.32 140.224 141.432 139.914 141.656C139.605 141.88 139.45 142.173 139.45 142.536C139.45 142.824 139.541 143.064 139.722 143.256C139.914 143.437 140.149 143.587 140.426 143.704C140.714 143.811 141.109 143.933 141.61 144.072C142.24 144.243 142.752 144.413 143.146 144.584C143.541 144.744 143.877 144.989 144.154 145.32C144.442 145.651 144.592 146.083 144.602 146.616C144.602 147.096 144.469 147.528 144.202 147.912C143.936 148.296 143.557 148.6 143.066 148.824C142.586 149.037 142.032 149.144 141.402 149.144ZM151.675 138.808C151.398 138.808 151.163 138.712 150.971 138.52C150.779 138.328 150.683 138.093 150.683 137.816C150.683 137.539 150.779 137.304 150.971 137.112C151.163 136.92 151.398 136.824 151.675 136.824C151.942 136.824 152.166 136.92 152.347 137.112C152.539 137.304 152.635 137.539 152.635 137.816C152.635 138.093 152.539 138.328 152.347 138.52C152.166 138.712 151.942 138.808 151.675 138.808ZM152.379 140.232V149H150.923V140.232H152.379ZM159.133 140.072C160.2 140.072 161.064 140.397 161.725 141.048C162.386 141.688 162.717 142.616 162.717 143.832V149H161.277V144.04C161.277 143.165 161.058 142.499 160.621 142.04C160.184 141.571 159.586 141.336 158.829 141.336C158.061 141.336 157.448 141.576 156.989 142.056C156.541 142.536 156.317 143.235 156.317 144.152V149H154.861V140.232H156.317V141.48C156.605 141.032 156.994 140.685 157.485 140.44C157.986 140.195 158.536 140.072 159.133 140.072ZM168.817 144.584C168.817 143.688 168.998 142.904 169.361 142.232C169.724 141.549 170.22 141.021 170.849 140.648C171.489 140.275 172.198 140.088 172.977 140.088C173.745 140.088 174.412 140.253 174.977 140.584C175.542 140.915 175.964 141.331 176.241 141.832V140.232H177.713V149H176.241V147.368C175.953 147.88 175.521 148.307 174.945 148.648C174.38 148.979 173.718 149.144 172.961 149.144C172.182 149.144 171.478 148.952 170.849 148.568C170.22 148.184 169.724 147.645 169.361 146.952C168.998 146.259 168.817 145.469 168.817 144.584ZM176.241 144.6C176.241 143.939 176.108 143.363 175.841 142.872C175.574 142.381 175.212 142.008 174.753 141.752C174.305 141.485 173.809 141.352 173.265 141.352C172.721 141.352 172.225 141.48 171.777 141.736C171.329 141.992 170.972 142.365 170.705 142.856C170.438 143.347 170.305 143.923 170.305 144.584C170.305 145.256 170.438 145.843 170.705 146.344C170.972 146.835 171.329 147.213 171.777 147.48C172.225 147.736 172.721 147.864 173.265 147.864C173.809 147.864 174.305 147.736 174.753 147.48C175.212 147.213 175.574 146.835 175.841 146.344C176.108 145.843 176.241 145.261 176.241 144.6ZM185.223 138.808C184.946 138.808 184.711 138.712 184.519 138.52C184.338 138.328 184.247 138.093 184.247 137.816C184.247 137.539 184.338 137.304 184.519 137.112C184.711 136.92 184.946 136.824 185.223 136.824C185.5 136.824 185.73 136.92 185.911 137.112C186.103 137.304 186.199 137.539 186.199 137.816C186.199 138.093 186.103 138.328 185.911 138.52C185.73 138.712 185.5 138.808 185.223 138.808ZM185.943 150.904C185.943 151.683 185.746 152.253 185.351 152.616C184.956 152.979 184.38 153.16 183.623 153.16H182.775V151.928H183.383C183.788 151.928 184.071 151.848 184.231 151.688C184.402 151.528 184.487 151.256 184.487 150.872V140.232H185.943V150.904ZM189.16 138.808C188.882 138.808 188.648 138.712 188.456 138.52C188.264 138.328 188.168 138.093 188.168 137.816C188.168 137.539 188.264 137.304 188.456 137.112C188.648 136.92 188.882 136.824 189.16 136.824C189.426 136.824 189.65 136.92 189.832 137.112C190.024 137.304 190.12 137.539 190.12 137.816C190.12 138.093 190.024 138.328 189.832 138.52C189.65 138.712 189.426 138.808 189.16 138.808ZM189.864 140.232V149H188.408V140.232H189.864ZM195.913 141.432H194.073V149H192.617V141.432H191.481V140.232H192.617V139.608C192.617 138.627 192.868 137.912 193.369 137.464C193.881 137.005 194.697 136.776 195.817 136.776V137.992C195.177 137.992 194.724 138.12 194.457 138.376C194.201 138.621 194.073 139.032 194.073 139.608V140.232H195.913V141.432ZM201.179 141.432H199.339V149H197.883V141.432H196.747V140.232H197.883V139.608C197.883 138.627 198.134 137.912 198.635 137.464C199.147 137.005 199.963 136.776 201.083 136.776V137.992C200.443 137.992 199.99 138.12 199.723 138.376C199.467 138.621 199.339 139.032 199.339 139.608V140.232H201.179V141.432ZM210.429 140.232L205.149 153.128H203.645L205.373 148.904L201.837 140.232H203.453L206.205 147.336L208.925 140.232H210.429ZM213.78 137.848L213.604 145.848H212.388L212.212 137.848H213.78ZM213.06 149.096C212.783 149.096 212.548 149 212.356 148.808C212.164 148.616 212.068 148.381 212.068 148.104C212.068 147.827 212.164 147.592 212.356 147.4C212.548 147.208 212.783 147.112 213.06 147.112C213.327 147.112 213.551 147.208 213.732 147.4C213.924 147.592 214.02 147.827 214.02 148.104C214.02 148.381 213.924 148.616 213.732 148.808C213.551 149 213.327 149.096 213.06 149.096Z" fill="#5C5C5C"/>
</g>
<defs>
<filter id="filter0_bd_1790_9593" x="37.1602" y="10" width="365" height="225" filterUnits="userSpaceOnUse" color-interpolation-filters="sRGB">
<feFlood flood-opacity="0" result="BackgroundImageFix"/>
<feGaussianBlur in="BackgroundImageFix" stdDeviation="13"/>
<feComposite in2="SourceAlpha" operator="in" result="effect1_backgroundBlur_1790_9593"/>
<feColorMatrix in="SourceAlpha" type="matrix" values="0 0 0 0 0 0 0 0 0 0 0 0 0 0 0 0 0 0 127 0" result="hardAlpha"/>
<feOffset dy="8"/>
<feGaussianBlur stdDeviation="10.5"/>
<feComposite in2="hardAlpha" operator="out"/>
<feColorMatrix type="matrix" values="0 0 0 0 0.1125 0 0 0 0 0.1125 0 0 0 0 0.1125 0 0 0 0.06 0"/>
<feBlend mode="normal" in2="effect1_backgroundBlur_1790_9593" result="effect2_dropShadow_1790_9593"/>
<feBlend mode="normal" in="SourceGraphic" in2="effect2_dropShadow_1790_9593" result="shape"/>
</filter>
</defs>
</svg>
