<svg width="372" height="228" viewBox="0 0 372 228" fill="none" xmlns="http://www.w3.org/2000/svg">
<path fill-rule="evenodd" clip-rule="evenodd" d="M7.27219 2.22365C0.688474 5.07702 0.937759 2.8507 0.937759 58.8816C0.937759 108.278 0.989404 109.648 2.9241 111.574C6.71304 115.348 9.03904 114.237 24.7192 101.17C32.892 94.3593 39.8491 88.3509 40.1798 87.8178C40.5106 87.2847 41.314 86.8515 41.9646 86.8545C42.6151 86.8584 50.2824 92.8668 59.0024 100.206C69.4604 109.01 75.6459 113.553 77.1734 113.553C78.4466 113.553 80.5849 112.46 81.9257 111.124L84.3639 108.697V59.5976C84.3639 5.06614 84.4037 5.4222 77.9302 2.36212C75.1295 1.03879 69.7574 0.808345 42.5009 0.840983C17.6806 0.870654 9.66771 1.18517 7.27219 2.22365Z" fill="#118B64"/>
<g filter="url(#filter0_bd_1790_9578)">
<rect x="37.8154" y="28.5525" width="313" height="170" rx="14" fill="white" fill-opacity="0.85" shape-rendering="crispEdges"/>
<g opacity="0.8">
<path d="M88.4154 62.6525L84.2954 76.5525H81.7154L78.7954 66.0325L75.6954 76.5525L73.1354 76.5725L69.1954 62.6525H71.6154L74.4954 73.9725L77.6154 62.6525H80.1754L83.0754 73.9125L85.9754 62.6525H88.4154ZM89.5359 70.9925C89.5359 69.8858 89.7626 68.9058 90.2159 68.0525C90.6826 67.1992 91.3092 66.5392 92.0959 66.0725C92.8959 65.5925 93.7759 65.3525 94.7359 65.3525C95.6026 65.3525 96.3559 65.5258 96.9959 65.8725C97.6492 66.2058 98.1692 66.6258 98.5559 67.1325V65.5325H100.856V76.5525H98.5559V74.9125C98.1692 75.4325 97.6426 75.8658 96.9759 76.2125C96.3092 76.5592 95.5492 76.7325 94.6959 76.7325C93.7492 76.7325 92.8826 76.4925 92.0959 76.0125C91.3092 75.5192 90.6826 74.8392 90.2159 73.9725C89.7626 73.0925 89.5359 72.0992 89.5359 70.9925ZM98.5559 71.0325C98.5559 70.2725 98.3959 69.6125 98.0759 69.0525C97.7692 68.4925 97.3626 68.0658 96.8559 67.7725C96.3492 67.4792 95.8026 67.3325 95.2159 67.3325C94.6292 67.3325 94.0826 67.4792 93.5759 67.7725C93.0692 68.0525 92.6559 68.4725 92.3359 69.0325C92.0292 69.5792 91.8759 70.2325 91.8759 70.9925C91.8759 71.7525 92.0292 72.4192 92.3359 72.9925C92.6559 73.5658 93.0692 74.0058 93.5759 74.3125C94.0959 74.6058 94.6426 74.7525 95.2159 74.7525C95.8026 74.7525 96.3492 74.6058 96.8559 74.3125C97.3626 74.0192 97.7692 73.5925 98.0759 73.0325C98.3959 72.4592 98.5559 71.7925 98.5559 71.0325ZM106.511 67.3925V73.4925C106.511 73.9058 106.604 74.2058 106.791 74.3925C106.991 74.5658 107.324 74.6525 107.791 74.6525H109.191V76.5525H107.391C106.364 76.5525 105.577 76.3125 105.031 75.8325C104.484 75.3525 104.211 74.5725 104.211 73.4925V67.3925H102.911V65.5325H104.211V62.7925H106.511V65.5325H109.191V67.3925H106.511ZM110.532 71.0325C110.532 69.8992 110.759 68.9058 111.212 68.0525C111.679 67.1858 112.319 66.5192 113.132 66.0525C113.945 65.5858 114.879 65.3525 115.932 65.3525C117.265 65.3525 118.365 65.6725 119.232 66.3125C120.112 66.9392 120.705 67.8392 121.012 69.0125H118.552C118.352 68.4658 118.032 68.0392 117.592 67.7325C117.152 67.4258 116.599 67.2725 115.932 67.2725C114.999 67.2725 114.252 67.6058 113.692 68.2725C113.145 68.9258 112.872 69.8458 112.872 71.0325C112.872 72.2192 113.145 73.1458 113.692 73.8125C114.252 74.4792 114.999 74.8125 115.932 74.8125C117.252 74.8125 118.125 74.2325 118.552 73.0725H121.012C120.692 74.1925 120.092 75.0858 119.212 75.7525C118.332 76.4058 117.239 76.7325 115.932 76.7325C114.879 76.7325 113.945 76.4992 113.132 76.0325C112.319 75.5525 111.679 74.8858 111.212 74.0325C110.759 73.1658 110.532 72.1658 110.532 71.0325ZM128.984 65.3525C129.824 65.3525 130.571 65.5325 131.224 65.8925C131.891 66.2525 132.411 66.7858 132.784 67.4925C133.171 68.1992 133.364 69.0525 133.364 70.0525V76.5525H131.104V70.3925C131.104 69.4058 130.858 68.6525 130.364 68.1325C129.871 67.5992 129.198 67.3325 128.344 67.3325C127.491 67.3325 126.811 67.5992 126.304 68.1325C125.811 68.6525 125.564 69.4058 125.564 70.3925V76.5525H123.284V61.7525H125.564V66.8125C125.951 66.3458 126.438 65.9858 127.024 65.7325C127.624 65.4792 128.278 65.3525 128.984 65.3525ZM138.552 61.7525V76.5525H136.272V61.7525H138.552ZM142.706 64.0725C142.293 64.0725 141.946 63.9325 141.666 63.6525C141.386 63.3725 141.246 63.0258 141.246 62.6125C141.246 62.1992 141.386 61.8525 141.666 61.5725C141.946 61.2925 142.293 61.1525 142.706 61.1525C143.106 61.1525 143.446 61.2925 143.726 61.5725C144.006 61.8525 144.146 62.1992 144.146 62.6125C144.146 63.0258 144.006 63.3725 143.726 63.6525C143.446 63.9325 143.106 64.0725 142.706 64.0725ZM143.826 65.5325V76.5525H141.546V65.5325H143.826ZM150.819 76.7325C149.953 76.7325 149.173 76.5792 148.479 76.2725C147.799 75.9525 147.259 75.5258 146.859 74.9925C146.459 74.4458 146.246 73.8392 146.219 73.1725H148.579C148.619 73.6392 148.839 74.0325 149.239 74.3525C149.653 74.6592 150.166 74.8125 150.779 74.8125C151.419 74.8125 151.913 74.6925 152.259 74.4525C152.619 74.1992 152.799 73.8792 152.799 73.4925C152.799 73.0792 152.599 72.7725 152.199 72.5725C151.813 72.3725 151.193 72.1525 150.339 71.9125C149.513 71.6858 148.839 71.4658 148.319 71.2525C147.799 71.0392 147.346 70.7125 146.959 70.2725C146.586 69.8325 146.399 69.2525 146.399 68.5325C146.399 67.9458 146.573 67.4125 146.919 66.9325C147.266 66.4392 147.759 66.0525 148.399 65.7725C149.053 65.4925 149.799 65.3525 150.639 65.3525C151.893 65.3525 152.899 65.6725 153.659 66.3125C154.433 66.9392 154.846 67.7992 154.899 68.8925H152.619C152.579 68.3992 152.379 68.0058 152.019 67.7125C151.659 67.4192 151.173 67.2725 150.559 67.2725C149.959 67.2725 149.499 67.3858 149.179 67.6125C148.859 67.8392 148.699 68.1392 148.699 68.5125C148.699 68.8058 148.806 69.0525 149.019 69.2525C149.233 69.4525 149.493 69.6125 149.799 69.7325C150.106 69.8392 150.559 69.9792 151.159 70.1525C151.959 70.3658 152.613 70.5858 153.119 70.8125C153.639 71.0258 154.086 71.3458 154.459 71.7725C154.833 72.1992 155.026 72.7658 155.039 73.4725C155.039 74.0992 154.866 74.6592 154.519 75.1525C154.173 75.6458 153.679 76.0325 153.039 76.3125C152.413 76.5925 151.673 76.7325 150.819 76.7325ZM160.163 67.3925V73.4925C160.163 73.9058 160.256 74.2058 160.443 74.3925C160.643 74.5658 160.976 74.6525 161.443 74.6525H162.843V76.5525H161.043C160.016 76.5525 159.23 76.3125 158.683 75.8325C158.136 75.3525 157.863 74.5725 157.863 73.4925V67.3925H156.563V65.5325H157.863V62.7925H160.163V65.5325H162.843V67.3925H160.163ZM184.94 65.5325L181.52 76.5525H179.12L176.9 68.4125L174.68 76.5525H172.28L168.84 65.5325H171.16L173.46 74.3925L175.8 65.5325H178.18L180.42 74.3525L182.7 65.5325H184.94ZM187.804 64.0725C187.39 64.0725 187.044 63.9325 186.764 63.6525C186.484 63.3725 186.344 63.0258 186.344 62.6125C186.344 62.1992 186.484 61.8525 186.764 61.5725C187.044 61.2925 187.39 61.1525 187.804 61.1525C188.204 61.1525 188.544 61.2925 188.824 61.5725C189.104 61.8525 189.244 62.1992 189.244 62.6125C189.244 63.0258 189.104 63.3725 188.824 63.6525C188.544 63.9325 188.204 64.0725 187.804 64.0725ZM188.924 65.5325V76.5525H186.644V65.5325H188.924ZM191.157 70.9925C191.157 69.8858 191.384 68.9058 191.837 68.0525C192.304 67.1992 192.93 66.5392 193.717 66.0725C194.517 65.5925 195.404 65.3525 196.377 65.3525C197.097 65.3525 197.804 65.5125 198.497 65.8325C199.204 66.1392 199.764 66.5525 200.177 67.0725V61.7525H202.477V76.5525H200.177V74.8925C199.804 75.4258 199.284 75.8658 198.617 76.2125C197.964 76.5592 197.21 76.7325 196.357 76.7325C195.397 76.7325 194.517 76.4925 193.717 76.0125C192.93 75.5192 192.304 74.8392 191.837 73.9725C191.384 73.0925 191.157 72.0992 191.157 70.9925ZM200.177 71.0325C200.177 70.2725 200.017 69.6125 199.697 69.0525C199.39 68.4925 198.984 68.0658 198.477 67.7725C197.97 67.4792 197.424 67.3325 196.837 67.3325C196.25 67.3325 195.704 67.4792 195.197 67.7725C194.69 68.0525 194.277 68.4725 193.957 69.0325C193.65 69.5792 193.497 70.2325 193.497 70.9925C193.497 71.7525 193.65 72.4192 193.957 72.9925C194.277 73.5658 194.69 74.0058 195.197 74.3125C195.717 74.6058 196.264 74.7525 196.837 74.7525C197.424 74.7525 197.97 74.6058 198.477 74.3125C198.984 74.0192 199.39 73.5925 199.697 73.0325C200.017 72.4592 200.177 71.7925 200.177 71.0325ZM209.912 65.3525C210.765 65.3525 211.518 65.5258 212.172 65.8725C212.838 66.2058 213.358 66.6258 213.732 67.1325V65.5325H216.032V76.7325C216.032 77.7458 215.818 78.6458 215.392 79.4325C214.965 80.2325 214.345 80.8592 213.532 81.3125C212.732 81.7658 211.772 81.9925 210.652 81.9925C209.158 81.9925 207.918 81.6392 206.932 80.9325C205.945 80.2392 205.385 79.2925 205.252 78.0925H207.512C207.685 78.6658 208.052 79.1258 208.612 79.4725C209.185 79.8325 209.865 80.0125 210.652 80.0125C211.572 80.0125 212.312 79.7325 212.872 79.1725C213.445 78.6125 213.732 77.7992 213.732 76.7325V74.8925C213.345 75.4125 212.818 75.8525 212.152 76.2125C211.498 76.5592 210.752 76.7325 209.912 76.7325C208.952 76.7325 208.072 76.4925 207.272 76.0125C206.485 75.5192 205.858 74.8392 205.392 73.9725C204.938 73.0925 204.712 72.0992 204.712 70.9925C204.712 69.8858 204.938 68.9058 205.392 68.0525C205.858 67.1992 206.485 66.5392 207.272 66.0725C208.072 65.5925 208.952 65.3525 209.912 65.3525ZM213.732 71.0325C213.732 70.2725 213.572 69.6125 213.252 69.0525C212.945 68.4925 212.538 68.0658 212.032 67.7725C211.525 67.4792 210.978 67.3325 210.392 67.3325C209.805 67.3325 209.258 67.4792 208.752 67.7725C208.245 68.0525 207.832 68.4725 207.512 69.0325C207.205 69.5792 207.052 70.2325 207.052 70.9925C207.052 71.7525 207.205 72.4192 207.512 72.9925C207.832 73.5658 208.245 74.0058 208.752 74.3125C209.272 74.6058 209.818 74.7525 210.392 74.7525C210.978 74.7525 211.525 74.6058 212.032 74.3125C212.538 74.0192 212.945 73.5925 213.252 73.0325C213.572 72.4592 213.732 71.7925 213.732 71.0325ZM229.126 70.7725C229.126 71.1858 229.1 71.5592 229.046 71.8925H220.626C220.693 72.7725 221.02 73.4792 221.606 74.0125C222.193 74.5458 222.913 74.8125 223.766 74.8125C224.993 74.8125 225.86 74.2992 226.366 73.2725H228.826C228.493 74.2858 227.886 75.1192 227.006 75.7725C226.14 76.4125 225.06 76.7325 223.766 76.7325C222.713 76.7325 221.766 76.4992 220.926 76.0325C220.1 75.5525 219.446 74.8858 218.966 74.0325C218.5 73.1658 218.266 72.1658 218.266 71.0325C218.266 69.8992 218.493 68.9058 218.946 68.0525C219.413 67.1858 220.06 66.5192 220.886 66.0525C221.726 65.5858 222.686 65.3525 223.766 65.3525C224.806 65.3525 225.733 65.5792 226.546 66.0325C227.36 66.4858 227.993 67.1258 228.446 67.9525C228.9 68.7658 229.126 69.7058 229.126 70.7725ZM226.746 70.0525C226.733 69.2125 226.433 68.5392 225.846 68.0325C225.26 67.5258 224.533 67.2725 223.666 67.2725C222.88 67.2725 222.206 67.5258 221.646 68.0325C221.086 68.5258 220.753 69.1992 220.646 70.0525H226.746ZM234.03 67.3925V73.4925C234.03 73.9058 234.123 74.2058 234.31 74.3925C234.51 74.5658 234.843 74.6525 235.31 74.6525H236.71V76.5525H234.91C233.883 76.5525 233.097 76.3125 232.55 75.8325C232.003 75.3525 231.73 74.5725 231.73 73.4925V67.3925H230.43V65.5325H231.73V62.7925H234.03V65.5325H236.71V67.3925H234.03ZM242.812 76.7325C241.945 76.7325 241.165 76.5792 240.472 76.2725C239.792 75.9525 239.252 75.5258 238.852 74.9925C238.452 74.4458 238.238 73.8392 238.212 73.1725H240.572C240.612 73.6392 240.832 74.0325 241.232 74.3525C241.645 74.6592 242.158 74.8125 242.772 74.8125C243.412 74.8125 243.905 74.6925 244.252 74.4525C244.612 74.1992 244.792 73.8792 244.792 73.4925C244.792 73.0792 244.592 72.7725 244.192 72.5725C243.805 72.3725 243.185 72.1525 242.332 71.9125C241.505 71.6858 240.832 71.4658 240.312 71.2525C239.792 71.0392 239.338 70.7125 238.952 70.2725C238.578 69.8325 238.392 69.2525 238.392 68.5325C238.392 67.9458 238.565 67.4125 238.912 66.9325C239.258 66.4392 239.752 66.0525 240.392 65.7725C241.045 65.4925 241.792 65.3525 242.632 65.3525C243.885 65.3525 244.892 65.6725 245.652 66.3125C246.425 66.9392 246.838 67.7992 246.892 68.8925H244.612C244.572 68.3992 244.372 68.0058 244.012 67.7125C243.652 67.4192 243.165 67.2725 242.552 67.2725C241.952 67.2725 241.492 67.3858 241.172 67.6125C240.852 67.8392 240.692 68.1392 240.692 68.5125C240.692 68.8058 240.798 69.0525 241.012 69.2525C241.225 69.4525 241.485 69.6125 241.792 69.7325C242.098 69.8392 242.552 69.9792 243.152 70.1525C243.952 70.3658 244.605 70.5858 245.112 70.8125C245.632 71.0258 246.078 71.3458 246.452 71.7725C246.825 72.1992 247.018 72.7658 247.032 73.4725C247.032 74.0992 246.858 74.6592 246.512 75.1525C246.165 75.6458 245.672 76.0325 245.032 76.3125C244.405 76.5925 243.665 76.7325 242.812 76.7325Z" fill="#121212"/>
</g>
<path d="M69.5034 111.969C69.5034 110.881 69.7488 109.905 70.2394 109.041C70.7301 108.166 71.3968 107.483 72.2394 106.993C73.0928 106.502 74.0368 106.257 75.0714 106.257C76.2874 106.257 77.3488 106.55 78.2554 107.137C79.1621 107.723 79.8234 108.555 80.2394 109.633H78.4954C78.1861 108.961 77.7381 108.443 77.1514 108.081C76.5754 107.718 75.8821 107.537 75.0714 107.537C74.2928 107.537 73.5941 107.718 72.9754 108.081C72.3568 108.443 71.8714 108.961 71.5194 109.633C71.1674 110.294 70.9914 111.073 70.9914 111.969C70.9914 112.854 71.1674 113.633 71.5194 114.305C71.8714 114.966 72.3568 115.478 72.9754 115.841C73.5941 116.203 74.2928 116.385 75.0714 116.385C75.8821 116.385 76.5754 116.209 77.1514 115.857C77.7381 115.494 78.1861 114.977 78.4954 114.305H80.2394C79.8234 115.371 79.1621 116.198 78.2554 116.785C77.3488 117.361 76.2874 117.649 75.0714 117.649C74.0368 117.649 73.0928 117.409 72.2394 116.929C71.3968 116.438 70.7301 115.761 70.2394 114.897C69.7488 114.033 69.5034 113.057 69.5034 111.969ZM90.1828 108.785V117.553H88.7268V116.257C88.4495 116.705 88.0601 117.057 87.5588 117.313C87.0681 117.558 86.5241 117.681 85.9268 117.681C85.2441 117.681 84.6308 117.542 84.0868 117.265C83.5428 116.977 83.1108 116.55 82.7908 115.985C82.4815 115.419 82.3268 114.731 82.3268 113.921V108.785H83.7668V113.729C83.7668 114.593 83.9855 115.259 84.4228 115.729C84.8601 116.187 85.4575 116.417 86.2148 116.417C86.9935 116.417 87.6068 116.177 88.0548 115.697C88.5028 115.217 88.7268 114.518 88.7268 113.601V108.785H90.1828ZM95.7452 117.697C95.0732 117.697 94.4705 117.585 93.9372 117.361C93.4038 117.126 92.9825 116.806 92.6732 116.401C92.3638 115.985 92.1932 115.51 92.1612 114.977H93.6652C93.7078 115.414 93.9105 115.771 94.2732 116.049C94.6465 116.326 95.1318 116.465 95.7292 116.465C96.2838 116.465 96.7212 116.342 97.0412 116.097C97.3612 115.851 97.5212 115.542 97.5212 115.169C97.5212 114.785 97.3505 114.502 97.0092 114.321C96.6678 114.129 96.1398 113.942 95.4252 113.761C94.7745 113.59 94.2412 113.419 93.8252 113.249C93.4198 113.067 93.0678 112.806 92.7692 112.465C92.4812 112.113 92.3372 111.654 92.3372 111.089C92.3372 110.641 92.4705 110.23 92.7372 109.857C93.0038 109.483 93.3825 109.19 93.8732 108.977C94.3638 108.753 94.9238 108.641 95.5532 108.641C96.5238 108.641 97.3078 108.886 97.9052 109.377C98.5025 109.867 98.8225 110.539 98.8652 111.393H97.4092C97.3772 110.934 97.1905 110.566 96.8492 110.289C96.5185 110.011 96.0705 109.873 95.5052 109.873C94.9825 109.873 94.5665 109.985 94.2572 110.209C93.9478 110.433 93.7932 110.726 93.7932 111.089C93.7932 111.377 93.8838 111.617 94.0652 111.809C94.2572 111.99 94.4918 112.139 94.7692 112.257C95.0572 112.363 95.4518 112.486 95.9532 112.625C96.5825 112.795 97.0945 112.966 97.4892 113.137C97.8838 113.297 98.2198 113.542 98.4972 113.873C98.7852 114.203 98.9345 114.635 98.9452 115.169C98.9452 115.649 98.8118 116.081 98.5452 116.465C98.2785 116.849 97.8998 117.153 97.4092 117.377C96.9292 117.59 96.3745 117.697 95.7452 117.697ZM102.777 109.985V115.153C102.777 115.579 102.867 115.883 103.049 116.065C103.23 116.235 103.545 116.321 103.993 116.321H105.065V117.553H103.753C102.942 117.553 102.334 117.366 101.929 116.993C101.523 116.619 101.321 116.006 101.321 115.153V109.985H100.185V108.785H101.321V106.577H102.777V108.785H105.065V109.985H102.777ZM110.653 117.697C109.831 117.697 109.085 117.51 108.413 117.137C107.751 116.763 107.229 116.235 106.845 115.553C106.471 114.859 106.285 114.059 106.285 113.153C106.285 112.257 106.477 111.467 106.861 110.785C107.255 110.091 107.789 109.563 108.461 109.201C109.133 108.827 109.885 108.641 110.717 108.641C111.549 108.641 112.301 108.827 112.973 109.201C113.645 109.563 114.173 110.086 114.557 110.769C114.951 111.451 115.149 112.246 115.149 113.153C115.149 114.059 114.946 114.859 114.541 115.553C114.146 116.235 113.607 116.763 112.925 117.137C112.242 117.51 111.485 117.697 110.653 117.697ZM110.653 116.417C111.175 116.417 111.666 116.294 112.125 116.049C112.583 115.803 112.951 115.435 113.229 114.945C113.517 114.454 113.661 113.857 113.661 113.153C113.661 112.449 113.522 111.851 113.245 111.361C112.967 110.87 112.605 110.507 112.157 110.273C111.709 110.027 111.223 109.905 110.701 109.905C110.167 109.905 109.677 110.027 109.229 110.273C108.791 110.507 108.439 110.87 108.173 111.361C107.906 111.851 107.773 112.449 107.773 113.153C107.773 113.867 107.901 114.47 108.157 114.961C108.423 115.451 108.775 115.819 109.213 116.065C109.65 116.299 110.13 116.417 110.653 116.417ZM127.607 108.625C128.29 108.625 128.898 108.769 129.431 109.057C129.964 109.334 130.386 109.755 130.695 110.321C131.004 110.886 131.159 111.574 131.159 112.385V117.553H129.719V112.593C129.719 111.718 129.5 111.051 129.063 110.593C128.636 110.123 128.055 109.889 127.319 109.889C126.562 109.889 125.959 110.134 125.511 110.625C125.063 111.105 124.839 111.803 124.839 112.721V117.553H123.399V112.593C123.399 111.718 123.18 111.051 122.743 110.593C122.316 110.123 121.735 109.889 120.999 109.889C120.242 109.889 119.639 110.134 119.191 110.625C118.743 111.105 118.519 111.803 118.519 112.721V117.553H117.063V108.785H118.519V110.049C118.807 109.59 119.191 109.238 119.671 108.993C120.162 108.747 120.7 108.625 121.287 108.625C122.023 108.625 122.674 108.79 123.239 109.121C123.804 109.451 124.226 109.937 124.503 110.577C124.748 109.958 125.154 109.478 125.719 109.137C126.284 108.795 126.914 108.625 127.607 108.625ZM134.299 107.361C134.022 107.361 133.787 107.265 133.595 107.073C133.403 106.881 133.307 106.646 133.307 106.369C133.307 106.091 133.403 105.857 133.595 105.665C133.787 105.473 134.022 105.377 134.299 105.377C134.566 105.377 134.79 105.473 134.971 105.665C135.163 105.857 135.259 106.091 135.259 106.369C135.259 106.646 135.163 106.881 134.971 107.073C134.79 107.265 134.566 107.361 134.299 107.361ZM135.003 108.785V117.553H133.547V108.785H135.003ZM140.589 117.697C139.917 117.697 139.314 117.585 138.781 117.361C138.248 117.126 137.826 116.806 137.517 116.401C137.208 115.985 137.037 115.51 137.005 114.977H138.509C138.552 115.414 138.754 115.771 139.117 116.049C139.49 116.326 139.976 116.465 140.573 116.465C141.128 116.465 141.565 116.342 141.885 116.097C142.205 115.851 142.365 115.542 142.365 115.169C142.365 114.785 142.194 114.502 141.853 114.321C141.512 114.129 140.984 113.942 140.269 113.761C139.618 113.59 139.085 113.419 138.669 113.249C138.264 113.067 137.912 112.806 137.613 112.465C137.325 112.113 137.181 111.654 137.181 111.089C137.181 110.641 137.314 110.23 137.581 109.857C137.848 109.483 138.226 109.19 138.717 108.977C139.208 108.753 139.768 108.641 140.397 108.641C141.368 108.641 142.152 108.886 142.749 109.377C143.346 109.867 143.666 110.539 143.709 111.393H142.253C142.221 110.934 142.034 110.566 141.693 110.289C141.362 110.011 140.914 109.873 140.349 109.873C139.826 109.873 139.41 109.985 139.101 110.209C138.792 110.433 138.637 110.726 138.637 111.089C138.637 111.377 138.728 111.617 138.909 111.809C139.101 111.99 139.336 112.139 139.613 112.257C139.901 112.363 140.296 112.486 140.797 112.625C141.426 112.795 141.938 112.966 142.333 113.137C142.728 113.297 143.064 113.542 143.341 113.873C143.629 114.203 143.778 114.635 143.789 115.169C143.789 115.649 143.656 116.081 143.389 116.465C143.122 116.849 142.744 117.153 142.253 117.377C141.773 117.59 141.218 117.697 140.589 117.697ZM153.844 112.833C153.844 113.11 153.828 113.403 153.796 113.713H146.788C146.842 114.577 147.135 115.254 147.668 115.745C148.212 116.225 148.868 116.465 149.636 116.465C150.266 116.465 150.788 116.321 151.204 116.033C151.631 115.734 151.93 115.339 152.1 114.849H153.668C153.434 115.691 152.964 116.379 152.26 116.913C151.556 117.435 150.682 117.697 149.636 117.697C148.804 117.697 148.058 117.51 147.396 117.137C146.746 116.763 146.234 116.235 145.86 115.553C145.487 114.859 145.3 114.059 145.3 113.153C145.3 112.246 145.482 111.451 145.844 110.769C146.207 110.086 146.714 109.563 147.364 109.201C148.026 108.827 148.783 108.641 149.636 108.641C150.468 108.641 151.204 108.822 151.844 109.185C152.484 109.547 152.975 110.049 153.316 110.689C153.668 111.318 153.844 112.033 153.844 112.833ZM152.34 112.529C152.34 111.974 152.218 111.499 151.972 111.105C151.727 110.699 151.391 110.395 150.964 110.193C150.548 109.979 150.084 109.873 149.572 109.873C148.836 109.873 148.207 110.107 147.684 110.577C147.172 111.046 146.879 111.697 146.804 112.529H152.34ZM161.808 109.985V115.153C161.808 115.579 161.898 115.883 162.08 116.065C162.261 116.235 162.576 116.321 163.024 116.321H164.096V117.553H162.784C161.973 117.553 161.365 117.366 160.96 116.993C160.554 116.619 160.352 116.006 160.352 115.153V109.985H159.216V108.785H160.352V106.577H161.808V108.785H164.096V109.985H161.808ZM170.212 108.625C170.873 108.625 171.471 108.769 172.004 109.057C172.537 109.334 172.953 109.755 173.252 110.321C173.561 110.886 173.716 111.574 173.716 112.385V117.553H172.276V112.593C172.276 111.718 172.057 111.051 171.62 110.593C171.183 110.123 170.585 109.889 169.828 109.889C169.06 109.889 168.447 110.129 167.988 110.609C167.54 111.089 167.316 111.787 167.316 112.705V117.553H165.86V105.713H167.316V110.033C167.604 109.585 167.999 109.238 168.5 108.993C169.012 108.747 169.583 108.625 170.212 108.625ZM184.094 112.833C184.094 113.11 184.078 113.403 184.046 113.713H177.038C177.092 114.577 177.385 115.254 177.918 115.745C178.462 116.225 179.118 116.465 179.886 116.465C180.516 116.465 181.038 116.321 181.454 116.033C181.881 115.734 182.18 115.339 182.35 114.849H183.918C183.684 115.691 183.214 116.379 182.51 116.913C181.806 117.435 180.932 117.697 179.886 117.697C179.054 117.697 178.308 117.51 177.646 117.137C176.996 116.763 176.484 116.235 176.11 115.553C175.737 114.859 175.55 114.059 175.55 113.153C175.55 112.246 175.732 111.451 176.094 110.769C176.457 110.086 176.964 109.563 177.614 109.201C178.276 108.827 179.033 108.641 179.886 108.641C180.718 108.641 181.454 108.822 182.094 109.185C182.734 109.547 183.225 110.049 183.566 110.689C183.918 111.318 184.094 112.033 184.094 112.833ZM182.59 112.529C182.59 111.974 182.468 111.499 182.222 111.105C181.977 110.699 181.641 110.395 181.214 110.193C180.798 109.979 180.334 109.873 179.822 109.873C179.086 109.873 178.457 110.107 177.934 110.577C177.422 111.046 177.129 111.697 177.054 112.529H182.59ZM201.962 108.785L199.226 117.553H197.722L195.61 110.593L193.498 117.553H191.994L189.242 108.785H190.73L192.746 116.145L194.922 108.785H196.41L198.538 116.161L200.522 108.785H201.962ZM202.863 113.137C202.863 112.241 203.044 111.457 203.407 110.785C203.769 110.102 204.265 109.574 204.895 109.201C205.535 108.827 206.244 108.641 207.023 108.641C207.791 108.641 208.457 108.806 209.023 109.137C209.588 109.467 210.009 109.883 210.287 110.385V108.785H211.759V117.553H210.287V115.921C209.999 116.433 209.567 116.859 208.991 117.201C208.425 117.531 207.764 117.697 207.007 117.697C206.228 117.697 205.524 117.505 204.895 117.121C204.265 116.737 203.769 116.198 203.407 115.505C203.044 114.811 202.863 114.022 202.863 113.137ZM210.287 113.153C210.287 112.491 210.153 111.915 209.887 111.425C209.62 110.934 209.257 110.561 208.799 110.305C208.351 110.038 207.855 109.905 207.311 109.905C206.767 109.905 206.271 110.033 205.823 110.289C205.375 110.545 205.017 110.918 204.751 111.409C204.484 111.899 204.351 112.475 204.351 113.137C204.351 113.809 204.484 114.395 204.751 114.897C205.017 115.387 205.375 115.766 205.823 116.033C206.271 116.289 206.767 116.417 207.311 116.417C207.855 116.417 208.351 116.289 208.799 116.033C209.257 115.766 209.62 115.387 209.887 114.897C210.153 114.395 210.287 113.814 210.287 113.153ZM215.995 109.985V115.153C215.995 115.579 216.086 115.883 216.267 116.065C216.449 116.235 216.763 116.321 217.211 116.321H218.283V117.553H216.971C216.161 117.553 215.553 117.366 215.147 116.993C214.742 116.619 214.539 116.006 214.539 115.153V109.985H213.403V108.785H214.539V106.577H215.995V108.785H218.283V109.985H215.995ZM219.503 113.153C219.503 112.246 219.685 111.457 220.047 110.785C220.41 110.102 220.911 109.574 221.551 109.201C222.202 108.827 222.943 108.641 223.775 108.641C224.853 108.641 225.738 108.902 226.431 109.425C227.135 109.947 227.599 110.673 227.823 111.601H226.255C226.106 111.067 225.813 110.646 225.375 110.337C224.949 110.027 224.415 109.873 223.775 109.873C222.943 109.873 222.271 110.161 221.759 110.737C221.247 111.302 220.991 112.107 220.991 113.153C220.991 114.209 221.247 115.025 221.759 115.601C222.271 116.177 222.943 116.465 223.775 116.465C224.415 116.465 224.949 116.315 225.375 116.017C225.802 115.718 226.095 115.291 226.255 114.737H227.823C227.589 115.633 227.119 116.353 226.415 116.897C225.711 117.43 224.831 117.697 223.775 117.697C222.943 117.697 222.202 117.51 221.551 117.137C220.911 116.763 220.41 116.235 220.047 115.553C219.685 114.87 219.503 114.07 219.503 113.153ZM234.118 108.625C234.78 108.625 235.377 108.769 235.91 109.057C236.444 109.334 236.86 109.755 237.158 110.321C237.468 110.886 237.622 111.574 237.622 112.385V117.553H236.182V112.593C236.182 111.718 235.964 111.051 235.526 110.593C235.089 110.123 234.492 109.889 233.734 109.889C232.966 109.889 232.353 110.129 231.894 110.609C231.446 111.089 231.222 111.787 231.222 112.705V117.553H229.766V105.713H231.222V110.033C231.51 109.585 231.905 109.238 232.406 108.993C232.918 108.747 233.489 108.625 234.118 108.625ZM241.457 105.713V117.553H240.001V105.713H241.457ZM244.69 107.361C244.413 107.361 244.178 107.265 243.986 107.073C243.794 106.881 243.698 106.646 243.698 106.369C243.698 106.091 243.794 105.857 243.986 105.665C244.178 105.473 244.413 105.377 244.69 105.377C244.957 105.377 245.181 105.473 245.362 105.665C245.554 105.857 245.65 106.091 245.65 106.369C245.65 106.646 245.554 106.881 245.362 107.073C245.181 107.265 244.957 107.361 244.69 107.361ZM245.394 108.785V117.553H243.938V108.785H245.394ZM250.98 117.697C250.308 117.697 249.705 117.585 249.172 117.361C248.638 117.126 248.217 116.806 247.908 116.401C247.598 115.985 247.428 115.51 247.396 114.977H248.9C248.942 115.414 249.145 115.771 249.508 116.049C249.881 116.326 250.366 116.465 250.964 116.465C251.518 116.465 251.956 116.342 252.276 116.097C252.596 115.851 252.756 115.542 252.756 115.169C252.756 114.785 252.585 114.502 252.244 114.321C251.902 114.129 251.374 113.942 250.66 113.761C250.009 113.59 249.476 113.419 249.06 113.249C248.654 113.067 248.302 112.806 248.004 112.465C247.716 112.113 247.572 111.654 247.572 111.089C247.572 110.641 247.705 110.23 247.972 109.857C248.238 109.483 248.617 109.19 249.108 108.977C249.598 108.753 250.158 108.641 250.788 108.641C251.758 108.641 252.542 108.886 253.14 109.377C253.737 109.867 254.057 110.539 254.1 111.393H252.644C252.612 110.934 252.425 110.566 252.084 110.289C251.753 110.011 251.305 109.873 250.74 109.873C250.217 109.873 249.801 109.985 249.492 110.209C249.182 110.433 249.028 110.726 249.028 111.089C249.028 111.377 249.118 111.617 249.3 111.809C249.492 111.99 249.726 112.139 250.004 112.257C250.292 112.363 250.686 112.486 251.188 112.625C251.817 112.795 252.329 112.966 252.724 113.137C253.118 113.297 253.454 113.542 253.732 113.873C254.02 114.203 254.169 114.635 254.18 115.169C254.18 115.649 254.046 116.081 253.78 116.465C253.513 116.849 253.134 117.153 252.644 117.377C252.164 117.59 251.609 117.697 250.98 117.697ZM258.011 109.985V115.153C258.011 115.579 258.102 115.883 258.283 116.065C258.464 116.235 258.779 116.321 259.227 116.321H260.299V117.553H258.987C258.176 117.553 257.568 117.366 257.163 116.993C256.758 116.619 256.555 116.006 256.555 115.153V109.985H255.419V108.785H256.555V106.577H258.011V108.785H260.299V109.985H258.011ZM81.7274 132.785L78.9914 141.553H77.4874L75.3754 134.593L73.2634 141.553H71.7594L69.0074 132.785H70.4954L72.5114 140.145L74.6874 132.785H76.1754L78.3034 140.161L80.2874 132.785H81.7274ZM83.9244 131.361C83.6471 131.361 83.4124 131.265 83.2204 131.073C83.0284 130.881 82.9324 130.646 82.9324 130.369C82.9324 130.091 83.0284 129.857 83.2204 129.665C83.4124 129.473 83.6471 129.377 83.9244 129.377C84.1911 129.377 84.4151 129.473 84.5964 129.665C84.7884 129.857 84.8844 130.091 84.8844 130.369C84.8844 130.646 84.7884 130.881 84.5964 131.073C84.4151 131.265 84.1911 131.361 83.9244 131.361ZM84.6284 132.785V141.553H83.1724V132.785H84.6284ZM91.3819 132.625C92.4486 132.625 93.3126 132.95 93.9739 133.601C94.6353 134.241 94.9659 135.169 94.9659 136.385V141.553H93.5259V136.593C93.5259 135.718 93.3073 135.051 92.8699 134.593C92.4326 134.123 91.8353 133.889 91.0779 133.889C90.3099 133.889 89.6966 134.129 89.2379 134.609C88.7899 135.089 88.5659 135.787 88.5659 136.705V141.553H87.1099V132.785H88.5659V134.033C88.8539 133.585 89.2433 133.238 89.7339 132.993C90.2353 132.747 90.7846 132.625 91.3819 132.625ZM96.8003 137.137C96.8003 136.241 96.9816 135.457 97.3443 134.785C97.707 134.102 98.203 133.574 98.8323 133.201C99.4723 132.827 100.187 132.641 100.976 132.641C101.659 132.641 102.294 132.801 102.88 133.121C103.467 133.43 103.915 133.841 104.224 134.353V129.713H105.696V141.553H104.224V139.905C103.936 140.427 103.51 140.859 102.944 141.201C102.379 141.531 101.718 141.697 100.96 141.697C100.182 141.697 99.4723 141.505 98.8323 141.121C98.203 140.737 97.707 140.198 97.3443 139.505C96.9816 138.811 96.8003 138.022 96.8003 137.137ZM104.224 137.153C104.224 136.491 104.091 135.915 103.824 135.425C103.558 134.934 103.195 134.561 102.736 134.305C102.288 134.038 101.792 133.905 101.248 133.905C100.704 133.905 100.208 134.033 99.7603 134.289C99.3123 134.545 98.955 134.918 98.6883 135.409C98.4216 135.899 98.2883 136.475 98.2883 137.137C98.2883 137.809 98.4216 138.395 98.6883 138.897C98.955 139.387 99.3123 139.766 99.7603 140.033C100.208 140.289 100.704 140.417 101.248 140.417C101.792 140.417 102.288 140.289 102.736 140.033C103.195 139.766 103.558 139.387 103.824 138.897C104.091 138.395 104.224 137.814 104.224 137.153ZM111.981 141.697C111.159 141.697 110.413 141.51 109.741 141.137C109.079 140.763 108.557 140.235 108.173 139.553C107.799 138.859 107.613 138.059 107.613 137.153C107.613 136.257 107.805 135.467 108.189 134.785C108.583 134.091 109.117 133.563 109.789 133.201C110.461 132.827 111.213 132.641 112.045 132.641C112.877 132.641 113.629 132.827 114.301 133.201C114.973 133.563 115.501 134.086 115.885 134.769C116.279 135.451 116.477 136.246 116.477 137.153C116.477 138.059 116.274 138.859 115.869 139.553C115.474 140.235 114.935 140.763 114.253 141.137C113.57 141.51 112.813 141.697 111.981 141.697ZM111.981 140.417C112.503 140.417 112.994 140.294 113.453 140.049C113.911 139.803 114.279 139.435 114.557 138.945C114.845 138.454 114.989 137.857 114.989 137.153C114.989 136.449 114.85 135.851 114.573 135.361C114.295 134.87 113.933 134.507 113.485 134.273C113.037 134.027 112.551 133.905 112.029 133.905C111.495 133.905 111.005 134.027 110.557 134.273C110.119 134.507 109.767 134.87 109.501 135.361C109.234 135.851 109.101 136.449 109.101 137.153C109.101 137.867 109.229 138.47 109.485 138.961C109.751 139.451 110.103 139.819 110.541 140.065C110.978 140.299 111.458 140.417 111.981 140.417ZM130.071 132.785L127.335 141.553H125.831L123.719 134.593L121.607 141.553H120.103L117.351 132.785H118.839L120.855 140.145L123.031 132.785H124.519L126.647 140.161L128.631 132.785H130.071ZM143.782 136.833C143.782 137.11 143.766 137.403 143.734 137.713H136.726C136.779 138.577 137.072 139.254 137.606 139.745C138.15 140.225 138.806 140.465 139.574 140.465C140.203 140.465 140.726 140.321 141.142 140.033C141.568 139.734 141.867 139.339 142.038 138.849H143.606C143.371 139.691 142.902 140.379 142.198 140.913C141.494 141.435 140.619 141.697 139.574 141.697C138.742 141.697 137.995 141.51 137.334 141.137C136.683 140.763 136.171 140.235 135.798 139.553C135.424 138.859 135.238 138.059 135.238 137.153C135.238 136.246 135.419 135.451 135.782 134.769C136.144 134.086 136.651 133.563 137.302 133.201C137.963 132.827 138.72 132.641 139.574 132.641C140.406 132.641 141.142 132.822 141.782 133.185C142.422 133.547 142.912 134.049 143.254 134.689C143.606 135.318 143.782 136.033 143.782 136.833ZM142.278 136.529C142.278 135.974 142.155 135.499 141.91 135.105C141.664 134.699 141.328 134.395 140.902 134.193C140.486 133.979 140.022 133.873 139.51 133.873C138.774 133.873 138.144 134.107 137.622 134.577C137.11 135.046 136.816 135.697 136.742 136.529H142.278ZM146.456 131.361C146.178 131.361 145.944 131.265 145.752 131.073C145.56 130.881 145.464 130.646 145.464 130.369C145.464 130.091 145.56 129.857 145.752 129.665C145.944 129.473 146.178 129.377 146.456 129.377C146.722 129.377 146.946 129.473 147.128 129.665C147.32 129.857 147.416 130.091 147.416 130.369C147.416 130.646 147.32 130.881 147.128 131.073C146.946 131.265 146.722 131.361 146.456 131.361ZM147.16 132.785V141.553H145.704V132.785H147.16ZM151.417 133.985V139.153C151.417 139.579 151.508 139.883 151.689 140.065C151.871 140.235 152.185 140.321 152.633 140.321H153.705V141.553H152.393C151.583 141.553 150.975 141.366 150.569 140.993C150.164 140.619 149.961 140.006 149.961 139.153V133.985H148.825V132.785H149.961V130.577H151.417V132.785H153.705V133.985H151.417ZM159.821 132.625C160.483 132.625 161.08 132.769 161.613 133.057C162.147 133.334 162.563 133.755 162.861 134.321C163.171 134.886 163.325 135.574 163.325 136.385V141.553H161.885V136.593C161.885 135.718 161.667 135.051 161.229 134.593C160.792 134.123 160.195 133.889 159.437 133.889C158.669 133.889 158.056 134.129 157.597 134.609C157.149 135.089 156.925 135.787 156.925 136.705V141.553H155.469V129.713H156.925V134.033C157.213 133.585 157.608 133.238 158.109 132.993C158.621 132.747 159.192 132.625 159.821 132.625ZM173.704 136.833C173.704 137.11 173.688 137.403 173.656 137.713H166.648C166.701 138.577 166.994 139.254 167.528 139.745C168.072 140.225 168.728 140.465 169.496 140.465C170.125 140.465 170.648 140.321 171.064 140.033C171.49 139.734 171.789 139.339 171.96 138.849H173.528C173.293 139.691 172.824 140.379 172.12 140.913C171.416 141.435 170.541 141.697 169.496 141.697C168.664 141.697 167.917 141.51 167.256 141.137C166.605 140.763 166.093 140.235 165.72 139.553C165.346 138.859 165.16 138.059 165.16 137.153C165.16 136.246 165.341 135.451 165.704 134.769C166.066 134.086 166.573 133.563 167.224 133.201C167.885 132.827 168.642 132.641 169.496 132.641C170.328 132.641 171.064 132.822 171.704 133.185C172.344 133.547 172.834 134.049 173.176 134.689C173.528 135.318 173.704 136.033 173.704 136.833ZM172.2 136.529C172.2 135.974 172.077 135.499 171.832 135.105C171.586 134.699 171.25 134.395 170.824 134.193C170.408 133.979 169.944 133.873 169.432 133.873C168.696 133.873 168.066 134.107 167.544 134.577C167.032 135.046 166.738 135.697 166.664 136.529H172.2ZM177.082 134.209C177.338 133.707 177.7 133.318 178.17 133.041C178.65 132.763 179.231 132.625 179.914 132.625V134.129H179.53C177.898 134.129 177.082 135.014 177.082 136.785V141.553H175.626V132.785H177.082V134.209ZM186.612 131.361C186.335 131.361 186.1 131.265 185.908 131.073C185.716 130.881 185.62 130.646 185.62 130.369C185.62 130.091 185.716 129.857 185.908 129.665C186.1 129.473 186.335 129.377 186.612 129.377C186.879 129.377 187.103 129.473 187.284 129.665C187.476 129.857 187.572 130.091 187.572 130.369C187.572 130.646 187.476 130.881 187.284 131.073C187.103 131.265 186.879 131.361 186.612 131.361ZM187.316 132.785V141.553H185.86V132.785H187.316ZM194.069 132.625C195.136 132.625 196 132.95 196.661 133.601C197.323 134.241 197.653 135.169 197.653 136.385V141.553H196.213V136.593C196.213 135.718 195.995 135.051 195.557 134.593C195.12 134.123 194.523 133.889 193.765 133.889C192.997 133.889 192.384 134.129 191.925 134.609C191.477 135.089 191.253 135.787 191.253 136.705V141.553H189.797V132.785H191.253V134.033C191.541 133.585 191.931 133.238 192.421 132.993C192.923 132.747 193.472 132.625 194.069 132.625ZM203.753 137.137C203.753 136.241 203.935 135.457 204.297 134.785C204.66 134.102 205.156 133.574 205.785 133.201C206.425 132.827 207.135 132.641 207.913 132.641C208.681 132.641 209.348 132.806 209.913 133.137C210.479 133.467 210.9 133.883 211.177 134.385V132.785H212.649V141.553H211.177V139.921C210.889 140.433 210.457 140.859 209.881 141.201C209.316 141.531 208.655 141.697 207.897 141.697C207.119 141.697 206.415 141.505 205.785 141.121C205.156 140.737 204.66 140.198 204.297 139.505C203.935 138.811 203.753 138.022 203.753 137.137ZM211.177 137.153C211.177 136.491 211.044 135.915 210.777 135.425C210.511 134.934 210.148 134.561 209.689 134.305C209.241 134.038 208.745 133.905 208.201 133.905C207.657 133.905 207.161 134.033 206.713 134.289C206.265 134.545 205.908 134.918 205.641 135.409C205.375 135.899 205.241 136.475 205.241 137.137C205.241 137.809 205.375 138.395 205.641 138.897C205.908 139.387 206.265 139.766 206.713 140.033C207.161 140.289 207.657 140.417 208.201 140.417C208.745 140.417 209.241 140.289 209.689 140.033C210.148 139.766 210.511 139.387 210.777 138.897C211.044 138.395 211.177 137.814 211.177 137.153ZM231.056 132.785L228.32 141.553H226.816L224.704 134.593L222.592 141.553H221.088L218.336 132.785H219.824L221.84 140.145L224.016 132.785H225.504L227.632 140.161L229.616 132.785H231.056ZM233.253 131.361C232.975 131.361 232.741 131.265 232.549 131.073C232.357 130.881 232.261 130.646 232.261 130.369C232.261 130.091 232.357 129.857 232.549 129.665C232.741 129.473 232.975 129.377 233.253 129.377C233.519 129.377 233.743 129.473 233.925 129.665C234.117 129.857 234.213 130.091 234.213 130.369C234.213 130.646 234.117 130.881 233.925 131.073C233.743 131.265 233.519 131.361 233.253 131.361ZM233.957 132.785V141.553H232.501V132.785H233.957ZM235.894 137.137C235.894 136.241 236.075 135.457 236.438 134.785C236.801 134.102 237.297 133.574 237.926 133.201C238.566 132.827 239.281 132.641 240.07 132.641C240.753 132.641 241.387 132.801 241.974 133.121C242.561 133.43 243.009 133.841 243.318 134.353V129.713H244.79V141.553H243.318V139.905C243.03 140.427 242.603 140.859 242.038 141.201C241.473 141.531 240.811 141.697 240.054 141.697C239.275 141.697 238.566 141.505 237.926 141.121C237.297 140.737 236.801 140.198 236.438 139.505C236.075 138.811 235.894 138.022 235.894 137.137ZM243.318 137.153C243.318 136.491 243.185 135.915 242.918 135.425C242.651 134.934 242.289 134.561 241.83 134.305C241.382 134.038 240.886 133.905 240.342 133.905C239.798 133.905 239.302 134.033 238.854 134.289C238.406 134.545 238.049 134.918 237.782 135.409C237.515 135.899 237.382 136.475 237.382 137.137C237.382 137.809 237.515 138.395 237.782 138.897C238.049 139.387 238.406 139.766 238.854 140.033C239.302 140.289 239.798 140.417 240.342 140.417C240.886 140.417 241.382 140.289 241.83 140.033C242.289 139.766 242.651 139.387 242.918 138.897C243.185 138.395 243.318 137.814 243.318 137.153ZM250.867 132.641C251.624 132.641 252.285 132.806 252.851 133.137C253.427 133.467 253.853 133.883 254.131 134.385V132.785H255.603V141.745C255.603 142.545 255.432 143.254 255.091 143.873C254.749 144.502 254.259 144.993 253.619 145.345C252.989 145.697 252.253 145.873 251.411 145.873C250.259 145.873 249.299 145.601 248.531 145.057C247.763 144.513 247.309 143.771 247.171 142.833H248.611C248.771 143.366 249.101 143.793 249.603 144.113C250.104 144.443 250.707 144.609 251.411 144.609C252.211 144.609 252.861 144.358 253.363 143.857C253.875 143.355 254.131 142.651 254.131 141.745V139.905C253.843 140.417 253.416 140.843 252.851 141.185C252.285 141.526 251.624 141.697 250.867 141.697C250.088 141.697 249.379 141.505 248.739 141.121C248.109 140.737 247.613 140.198 247.251 139.505C246.888 138.811 246.707 138.022 246.707 137.137C246.707 136.241 246.888 135.457 247.251 134.785C247.613 134.102 248.109 133.574 248.739 133.201C249.379 132.827 250.088 132.641 250.867 132.641ZM254.131 137.153C254.131 136.491 253.997 135.915 253.731 135.425C253.464 134.934 253.101 134.561 252.643 134.305C252.195 134.038 251.699 133.905 251.155 133.905C250.611 133.905 250.115 134.033 249.667 134.289C249.219 134.545 248.861 134.918 248.595 135.409C248.328 135.899 248.195 136.475 248.195 137.137C248.195 137.809 248.328 138.395 248.595 138.897C248.861 139.387 249.219 139.766 249.667 140.033C250.115 140.289 250.611 140.417 251.155 140.417C251.699 140.417 252.195 140.289 252.643 140.033C253.101 139.766 253.464 139.387 253.731 138.897C253.997 138.395 254.131 137.814 254.131 137.153ZM266.063 136.833C266.063 137.11 266.047 137.403 266.015 137.713H259.007C259.06 138.577 259.354 139.254 259.887 139.745C260.431 140.225 261.087 140.465 261.855 140.465C262.484 140.465 263.007 140.321 263.423 140.033C263.85 139.734 264.148 139.339 264.319 138.849H265.887C265.652 139.691 265.183 140.379 264.479 140.913C263.775 141.435 262.9 141.697 261.855 141.697C261.023 141.697 260.276 141.51 259.615 141.137C258.964 140.763 258.452 140.235 258.079 139.553C257.706 138.859 257.519 138.059 257.519 137.153C257.519 136.246 257.7 135.451 258.063 134.769C258.426 134.086 258.932 133.563 259.583 133.201C260.244 132.827 261.002 132.641 261.855 132.641C262.687 132.641 263.423 132.822 264.063 133.185C264.703 133.547 265.194 134.049 265.535 134.689C265.887 135.318 266.063 136.033 266.063 136.833ZM264.559 136.529C264.559 135.974 264.436 135.499 264.191 135.105C263.946 134.699 263.61 134.395 263.183 134.193C262.767 133.979 262.303 133.873 261.791 133.873C261.055 133.873 260.426 134.107 259.903 134.577C259.391 135.046 259.098 135.697 259.023 136.529H264.559ZM269.761 133.985V139.153C269.761 139.579 269.852 139.883 270.033 140.065C270.214 140.235 270.529 140.321 270.977 140.321H272.049V141.553H270.737C269.926 141.553 269.318 141.366 268.913 140.993C268.508 140.619 268.305 140.006 268.305 139.153V133.985H267.169V132.785H268.305V130.577H269.761V132.785H272.049V133.985H269.761ZM73.6154 157.985H71.7754V165.553H70.3194V157.985H69.1834V156.785H70.3194V156.161C70.3194 155.179 70.5701 154.465 71.0714 154.017C71.5834 153.558 72.3994 153.329 73.5194 153.329V154.545C72.8794 154.545 72.4261 154.673 72.1594 154.929C71.9034 155.174 71.7754 155.585 71.7754 156.161V156.785H73.6154V157.985ZM79.1371 165.697C78.3157 165.697 77.5691 165.51 76.8971 165.137C76.2357 164.763 75.7131 164.235 75.3291 163.553C74.9557 162.859 74.7691 162.059 74.7691 161.153C74.7691 160.257 74.9611 159.467 75.3451 158.785C75.7397 158.091 76.2731 157.563 76.9451 157.201C77.6171 156.827 78.3691 156.641 79.2011 156.641C80.0331 156.641 80.7851 156.827 81.4571 157.201C82.1291 157.563 82.6571 158.086 83.0411 158.769C83.4357 159.451 83.6331 160.246 83.6331 161.153C83.6331 162.059 83.4304 162.859 83.0251 163.553C82.6304 164.235 82.0917 164.763 81.4091 165.137C80.7264 165.51 79.9691 165.697 79.1371 165.697ZM79.1371 164.417C79.6597 164.417 80.1504 164.294 80.6091 164.049C81.0677 163.803 81.4357 163.435 81.7131 162.945C82.0011 162.454 82.1451 161.857 82.1451 161.153C82.1451 160.449 82.0064 159.851 81.7291 159.361C81.4517 158.87 81.0891 158.507 80.6411 158.273C80.1931 158.027 79.7077 157.905 79.1851 157.905C78.6517 157.905 78.1611 158.027 77.7131 158.273C77.2757 158.507 76.9237 158.87 76.6571 159.361C76.3904 159.851 76.2571 160.449 76.2571 161.153C76.2571 161.867 76.3851 162.47 76.6411 162.961C76.9077 163.451 77.2597 163.819 77.6971 164.065C78.1344 164.299 78.6144 164.417 79.1371 164.417ZM87.0034 158.209C87.2594 157.707 87.6221 157.318 88.0914 157.041C88.5714 156.763 89.1528 156.625 89.8354 156.625V158.129H89.4514C87.8194 158.129 87.0034 159.014 87.0034 160.785V165.553H85.5474V156.785H87.0034V158.209ZM102.06 156.625C102.743 156.625 103.351 156.769 103.884 157.057C104.418 157.334 104.839 157.755 105.148 158.321C105.458 158.886 105.612 159.574 105.612 160.385V165.553H104.172V160.593C104.172 159.718 103.954 159.051 103.516 158.593C103.09 158.123 102.508 157.889 101.772 157.889C101.015 157.889 100.412 158.134 99.9642 158.625C99.5162 159.105 99.2922 159.803 99.2922 160.721V165.553H97.8522V160.593C97.8522 159.718 97.6335 159.051 97.1962 158.593C96.7695 158.123 96.1882 157.889 95.4522 157.889C94.6948 157.889 94.0922 158.134 93.6442 158.625C93.1962 159.105 92.9722 159.803 92.9722 160.721V165.553H91.5162V156.785H92.9722V158.049C93.2602 157.59 93.6442 157.238 94.1242 156.993C94.6148 156.747 95.1535 156.625 95.7402 156.625C96.4762 156.625 97.1268 156.79 97.6922 157.121C98.2575 157.451 98.6788 157.937 98.9562 158.577C99.2015 157.958 99.6068 157.478 100.172 157.137C100.738 156.795 101.367 156.625 102.06 156.625ZM107.457 161.137C107.457 160.241 107.638 159.457 108.001 158.785C108.363 158.102 108.859 157.574 109.489 157.201C110.129 156.827 110.838 156.641 111.617 156.641C112.385 156.641 113.051 156.806 113.617 157.137C114.182 157.467 114.603 157.883 114.881 158.385V156.785H116.353V165.553H114.881V163.921C114.593 164.433 114.161 164.859 113.585 165.201C113.019 165.531 112.358 165.697 111.601 165.697C110.822 165.697 110.118 165.505 109.489 165.121C108.859 164.737 108.363 164.198 108.001 163.505C107.638 162.811 107.457 162.022 107.457 161.137ZM114.881 161.153C114.881 160.491 114.747 159.915 114.481 159.425C114.214 158.934 113.851 158.561 113.393 158.305C112.945 158.038 112.449 157.905 111.905 157.905C111.361 157.905 110.865 158.033 110.417 158.289C109.969 158.545 109.611 158.918 109.345 159.409C109.078 159.899 108.945 160.475 108.945 161.137C108.945 161.809 109.078 162.395 109.345 162.897C109.611 163.387 109.969 163.766 110.417 164.033C110.865 164.289 111.361 164.417 111.905 164.417C112.449 164.417 112.945 164.289 113.393 164.033C113.851 163.766 114.214 163.387 114.481 162.897C114.747 162.395 114.881 161.814 114.881 161.153ZM120.589 157.985V163.153C120.589 163.579 120.68 163.883 120.861 164.065C121.042 164.235 121.357 164.321 121.805 164.321H122.877V165.553H121.565C120.754 165.553 120.146 165.366 119.741 164.993C119.336 164.619 119.133 164.006 119.133 163.153V157.985H117.997V156.785H119.133V154.577H120.589V156.785H122.877V157.985H120.589ZM132.731 165.697C131.909 165.697 131.163 165.51 130.491 165.137C129.829 164.763 129.307 164.235 128.923 163.553C128.549 162.859 128.363 162.059 128.363 161.153C128.363 160.257 128.555 159.467 128.939 158.785C129.333 158.091 129.867 157.563 130.539 157.201C131.211 156.827 131.963 156.641 132.795 156.641C133.627 156.641 134.379 156.827 135.051 157.201C135.723 157.563 136.251 158.086 136.635 158.769C137.029 159.451 137.227 160.246 137.227 161.153C137.227 162.059 137.024 162.859 136.619 163.553C136.224 164.235 135.685 164.763 135.003 165.137C134.32 165.51 133.563 165.697 132.731 165.697ZM132.731 164.417C133.253 164.417 133.744 164.294 134.203 164.049C134.661 163.803 135.029 163.435 135.307 162.945C135.595 162.454 135.739 161.857 135.739 161.153C135.739 160.449 135.6 159.851 135.323 159.361C135.045 158.87 134.683 158.507 134.235 158.273C133.787 158.027 133.301 157.905 132.779 157.905C132.245 157.905 131.755 158.027 131.307 158.273C130.869 158.507 130.517 158.87 130.251 159.361C129.984 159.851 129.851 160.449 129.851 161.153C129.851 161.867 129.979 162.47 130.235 162.961C130.501 163.451 130.853 163.819 131.291 164.065C131.728 164.299 132.208 164.417 132.731 164.417ZM140.597 158.209C140.853 157.707 141.216 157.318 141.685 157.041C142.165 156.763 142.747 156.625 143.429 156.625V158.129H143.045C141.413 158.129 140.597 159.014 140.597 160.785V165.553H139.141V156.785H140.597V158.209ZM150.832 153.713V165.553H149.376V153.713H150.832ZM154.065 155.361C153.788 155.361 153.553 155.265 153.361 155.073C153.169 154.881 153.073 154.646 153.073 154.369C153.073 154.091 153.169 153.857 153.361 153.665C153.553 153.473 153.788 153.377 154.065 153.377C154.332 153.377 154.556 153.473 154.737 153.665C154.929 153.857 155.025 154.091 155.025 154.369C155.025 154.646 154.929 154.881 154.737 155.073C154.556 155.265 154.332 155.361 154.065 155.361ZM154.769 156.785V165.553H153.313V156.785H154.769ZM160.355 165.697C159.683 165.697 159.08 165.585 158.547 165.361C158.013 165.126 157.592 164.806 157.283 164.401C156.973 163.985 156.803 163.51 156.771 162.977H158.275C158.317 163.414 158.52 163.771 158.883 164.049C159.256 164.326 159.741 164.465 160.339 164.465C160.893 164.465 161.331 164.342 161.651 164.097C161.971 163.851 162.131 163.542 162.131 163.169C162.131 162.785 161.96 162.502 161.619 162.321C161.277 162.129 160.749 161.942 160.035 161.761C159.384 161.59 158.851 161.419 158.435 161.249C158.029 161.067 157.677 160.806 157.379 160.465C157.091 160.113 156.947 159.654 156.947 159.089C156.947 158.641 157.08 158.23 157.347 157.857C157.613 157.483 157.992 157.19 158.483 156.977C158.973 156.753 159.533 156.641 160.163 156.641C161.133 156.641 161.917 156.886 162.515 157.377C163.112 157.867 163.432 158.539 163.475 159.393H162.019C161.987 158.934 161.8 158.566 161.459 158.289C161.128 158.011 160.68 157.873 160.115 157.873C159.592 157.873 159.176 157.985 158.867 158.209C158.557 158.433 158.403 158.726 158.403 159.089C158.403 159.377 158.493 159.617 158.675 159.809C158.867 159.99 159.101 160.139 159.379 160.257C159.667 160.363 160.061 160.486 160.563 160.625C161.192 160.795 161.704 160.966 162.099 161.137C162.493 161.297 162.829 161.542 163.107 161.873C163.395 162.203 163.544 162.635 163.555 163.169C163.555 163.649 163.421 164.081 163.155 164.465C162.888 164.849 162.509 165.153 162.019 165.377C161.539 165.59 160.984 165.697 160.355 165.697ZM167.386 157.985V163.153C167.386 163.579 167.477 163.883 167.658 164.065C167.839 164.235 168.154 164.321 168.602 164.321H169.674V165.553H168.362C167.551 165.553 166.943 165.366 166.538 164.993C166.133 164.619 165.93 164.006 165.93 163.153V157.985H164.794V156.785H165.93V154.577H167.386V156.785H169.674V157.985H167.386ZM179.272 157.985H177.432V165.553H175.976V157.985H174.84V156.785H175.976V156.161C175.976 155.179 176.226 154.465 176.728 154.017C177.24 153.558 178.056 153.329 179.176 153.329V154.545C178.536 154.545 178.082 154.673 177.816 154.929C177.56 155.174 177.432 155.585 177.432 156.161V156.785H179.272V157.985ZM184.793 165.697C183.972 165.697 183.225 165.51 182.553 165.137C181.892 164.763 181.369 164.235 180.985 163.553C180.612 162.859 180.425 162.059 180.425 161.153C180.425 160.257 180.617 159.467 181.001 158.785C181.396 158.091 181.929 157.563 182.601 157.201C183.273 156.827 184.025 156.641 184.857 156.641C185.689 156.641 186.441 156.827 187.113 157.201C187.785 157.563 188.313 158.086 188.697 158.769C189.092 159.451 189.289 160.246 189.289 161.153C189.289 162.059 189.087 162.859 188.681 163.553C188.287 164.235 187.748 164.763 187.065 165.137C186.383 165.51 185.625 165.697 184.793 165.697ZM184.793 164.417C185.316 164.417 185.807 164.294 186.265 164.049C186.724 163.803 187.092 163.435 187.369 162.945C187.657 162.454 187.801 161.857 187.801 161.153C187.801 160.449 187.663 159.851 187.385 159.361C187.108 158.87 186.745 158.507 186.297 158.273C185.849 158.027 185.364 157.905 184.841 157.905C184.308 157.905 183.817 158.027 183.369 158.273C182.932 158.507 182.58 158.87 182.313 159.361C182.047 159.851 181.913 160.449 181.913 161.153C181.913 161.867 182.041 162.47 182.297 162.961C182.564 163.451 182.916 163.819 183.353 164.065C183.791 164.299 184.271 164.417 184.793 164.417ZM192.66 158.209C192.916 157.707 193.278 157.318 193.748 157.041C194.228 156.763 194.809 156.625 195.492 156.625V158.129H195.108C193.476 158.129 192.66 159.014 192.66 160.785V165.553H191.204V156.785H192.66V158.209ZM207.716 156.625C208.399 156.625 209.007 156.769 209.54 157.057C210.074 157.334 210.495 157.755 210.804 158.321C211.114 158.886 211.268 159.574 211.268 160.385V165.553H209.828V160.593C209.828 159.718 209.61 159.051 209.172 158.593C208.746 158.123 208.164 157.889 207.428 157.889C206.671 157.889 206.068 158.134 205.62 158.625C205.172 159.105 204.948 159.803 204.948 160.721V165.553H203.508V160.593C203.508 159.718 203.29 159.051 202.852 158.593C202.426 158.123 201.844 157.889 201.108 157.889C200.351 157.889 199.748 158.134 199.3 158.625C198.852 159.105 198.628 159.803 198.628 160.721V165.553H197.172V156.785H198.628V158.049C198.916 157.59 199.3 157.238 199.78 156.993C200.271 156.747 200.81 156.625 201.396 156.625C202.132 156.625 202.783 156.79 203.348 157.121C203.914 157.451 204.335 157.937 204.612 158.577C204.858 157.958 205.263 157.478 205.828 157.137C206.394 156.795 207.023 156.625 207.716 156.625ZM213.113 161.137C213.113 160.241 213.294 159.457 213.657 158.785C214.019 158.102 214.515 157.574 215.145 157.201C215.785 156.827 216.494 156.641 217.273 156.641C218.041 156.641 218.707 156.806 219.273 157.137C219.838 157.467 220.259 157.883 220.537 158.385V156.785H222.009V165.553H220.537V163.921C220.249 164.433 219.817 164.859 219.241 165.201C218.675 165.531 218.014 165.697 217.257 165.697C216.478 165.697 215.774 165.505 215.145 165.121C214.515 164.737 214.019 164.198 213.657 163.505C213.294 162.811 213.113 162.022 213.113 161.137ZM220.537 161.153C220.537 160.491 220.403 159.915 220.137 159.425C219.87 158.934 219.507 158.561 219.049 158.305C218.601 158.038 218.105 157.905 217.561 157.905C217.017 157.905 216.521 158.033 216.073 158.289C215.625 158.545 215.267 158.918 215.001 159.409C214.734 159.899 214.601 160.475 214.601 161.137C214.601 161.809 214.734 162.395 215.001 162.897C215.267 163.387 215.625 163.766 216.073 164.033C216.521 164.289 217.017 164.417 217.561 164.417C218.105 164.417 218.601 164.289 219.049 164.033C219.507 163.766 219.87 163.387 220.137 162.897C220.403 162.395 220.537 161.814 220.537 161.153ZM226.245 157.985V163.153C226.245 163.579 226.336 163.883 226.517 164.065C226.699 164.235 227.013 164.321 227.461 164.321H228.533V165.553H227.221C226.411 165.553 225.803 165.366 225.397 164.993C224.992 164.619 224.789 164.006 224.789 163.153V157.985H223.653V156.785H224.789V154.577H226.245V156.785H228.533V157.985H226.245ZM230.761 165.649C230.484 165.649 230.249 165.553 230.057 165.361C229.865 165.169 229.769 164.934 229.769 164.657C229.769 164.379 229.865 164.145 230.057 163.953C230.249 163.761 230.484 163.665 230.761 163.665C231.028 163.665 231.252 163.761 231.433 163.953C231.625 164.145 231.721 164.379 231.721 164.657C231.721 164.934 231.625 165.169 231.433 165.361C231.252 165.553 231.028 165.649 230.761 165.649Z" fill="#5C5C5C"/>
</g>
<defs>
<filter id="filter0_bd_1790_9578" x="11.8154" y="2.55251" width="365" height="225" filterUnits="userSpaceOnUse" color-interpolation-filters="sRGB">
<feFlood flood-opacity="0" result="BackgroundImageFix"/>
<feGaussianBlur in="BackgroundImageFix" stdDeviation="13"/>
<feComposite in2="SourceAlpha" operator="in" result="effect1_backgroundBlur_1790_9578"/>
<feColorMatrix in="SourceAlpha" type="matrix" values="0 0 0 0 0 0 0 0 0 0 0 0 0 0 0 0 0 0 127 0" result="hardAlpha"/>
<feOffset dy="8"/>
<feGaussianBlur stdDeviation="10.5"/>
<feComposite in2="hardAlpha" operator="out"/>
<feColorMatrix type="matrix" values="0 0 0 0 0.1125 0 0 0 0 0.1125 0 0 0 0 0.1125 0 0 0 0.06 0"/>
<feBlend mode="normal" in2="effect1_backgroundBlur_1790_9578" result="effect2_dropShadow_1790_9578"/>
<feBlend mode="normal" in="SourceGraphic" in2="effect2_dropShadow_1790_9578" result="shape"/>
</filter>
</defs>
</svg>
