<svg width="201" height="28" viewBox="0 0 201 28" fill="none" xmlns="http://www.w3.org/2000/svg">
<g clip-path="url(#clip0_3802_34673)">
<path d="M50.1544 22.0192H54.0904V6.59917H59.2394V2.87917H45.0594V6.59917H50.1544V22.0192ZM59.2454 22.0192H62.9384V15.5762C62.9384 13.3392 64.0974 11.9912 65.8494 11.9912C66.4694 11.9912 66.9544 12.0992 67.5214 12.2882V8.54117C67.1187 8.42457 66.7005 8.36995 66.2814 8.37917C64.7714 8.37917 63.3964 9.37617 62.9384 10.6972V8.54117H59.2454V22.0192ZM74.6094 22.3162C76.4694 22.3162 77.8714 21.3722 78.4914 20.5102V22.0202H82.1844V8.53917H78.4914V10.0492C77.8714 9.18717 76.4694 8.24317 74.6094 8.24317C71.0244 8.24317 68.2744 11.4782 68.2744 15.2792C68.2744 19.0802 71.0244 22.3162 74.6094 22.3162ZM75.3914 18.9462C73.3424 18.9462 71.9944 17.4102 71.9944 15.2802C71.9944 13.1502 73.3424 11.6142 75.3914 11.6142C77.4404 11.6142 78.7874 13.1502 78.7874 15.2802C78.7874 17.4102 77.4404 18.9462 75.3914 18.9462ZM90.9774 22.3162C92.8374 22.3162 94.2394 21.3722 94.8594 20.5102V22.0202H98.5524V1.80017H94.8594V10.0502C94.2394 9.18717 92.8374 8.24317 90.9774 8.24317C87.3924 8.24317 84.6424 11.4782 84.6424 15.2792C84.6424 19.0802 87.3924 22.3162 90.9774 22.3162ZM91.7594 18.9462C89.7104 18.9462 88.3624 17.4102 88.3624 15.2802C88.3624 13.1502 89.7104 11.6142 91.7594 11.6142C93.8084 11.6142 95.1564 13.1502 95.1564 15.2802C95.1564 17.4102 93.8084 18.9462 91.7594 18.9462ZM103.706 6.33017C104.016 6.33281 104.324 6.27415 104.611 6.15759C104.898 6.04102 105.16 5.86883 105.38 5.65092C105.601 5.43301 105.776 5.17367 105.896 4.88781C106.016 4.60194 106.078 4.29519 106.079 3.98517C106.078 3.67507 106.016 3.36821 105.896 3.08222C105.776 2.79624 105.601 2.53679 105.381 2.31877C105.16 2.10075 104.899 1.92848 104.611 1.81185C104.324 1.69522 104.016 1.63653 103.706 1.63917C102.439 1.63917 101.361 2.69117 101.361 3.98517C101.361 5.27917 102.439 6.33017 103.706 6.33017ZM101.873 22.0202H105.566V8.53917H101.873V22.0202ZM108.843 22.0192H112.536V15.4432C112.536 12.8552 113.803 11.6152 115.529 11.6152C117.065 11.6152 117.901 12.8012 117.901 14.7422V22.0202H121.594V14.1222C121.594 10.6172 119.653 8.24517 116.391 8.24517C114.639 8.24517 113.264 9.00017 112.536 10.0782V8.54117H108.843V22.0192ZM130.992 18.5152C129.132 18.5152 127.569 17.1132 127.569 15.0652C127.569 12.9892 129.132 11.6142 130.992 11.6142C132.852 11.6142 134.416 12.9892 134.416 15.0642C134.416 17.1142 132.852 18.5152 130.992 18.5152ZM130.561 27.9232C134.685 27.9232 137.813 25.8202 137.813 20.9682V8.54117H134.119V10.0512C133.391 8.99917 131.936 8.24417 130.211 8.24417C126.679 8.24417 123.849 11.2642 123.849 15.0642C123.849 18.8382 126.679 21.8582 130.211 21.8582C131.936 21.8582 133.391 21.0762 134.119 20.0782V20.9952C134.119 23.1522 132.691 24.6882 130.507 24.6882C128.997 24.6882 127.488 24.1762 126.302 23.0172L124.28 25.7672C125.816 27.2492 128.216 27.9232 130.561 27.9232ZM145.621 22.0192H149.099L157.024 2.87917H152.711L147.373 16.1692L141.955 2.87917H137.723L145.621 22.0192ZM160.413 6.33017C160.723 6.33267 161.031 6.27392 161.318 6.1573C161.605 6.04067 161.866 5.86846 162.087 5.65056C162.307 5.43267 162.482 5.17337 162.602 4.88757C162.722 4.60177 162.784 4.2951 162.785 3.98517C162.784 3.67515 162.722 3.36837 162.602 3.08246C162.483 2.79654 162.307 2.53713 162.087 2.31913C161.867 2.10112 161.605 1.92882 161.318 1.81214C161.031 1.69545 160.723 1.63666 160.413 1.63917C159.146 1.63917 158.067 2.69117 158.067 3.98517C158.067 5.27917 159.146 6.33017 160.413 6.33017ZM158.58 22.0202H162.273V8.53917H158.58V22.0202ZM171.831 22.3162C174.661 22.3162 176.818 21.1302 178.085 19.2962L175.335 17.2482C174.715 18.1912 173.556 18.9462 171.858 18.9462C170.079 18.9462 168.488 17.9492 168.272 16.1432H178.354C178.435 15.5762 178.408 15.1992 178.408 14.8762C178.408 10.4822 175.308 8.24417 171.777 8.24417C167.679 8.24417 164.687 11.2902 164.687 15.2802C164.687 19.5402 167.814 22.3162 171.831 22.3162ZM168.407 13.6362C168.758 11.9912 170.294 11.2902 171.669 11.2902C173.044 11.2902 174.392 12.0182 174.715 13.6362H168.407ZM192.245 22.0192H195.911L200.359 8.54117H196.396L193.862 17.1672L191.112 8.54117H188.282L185.559 17.1672L182.998 8.54117H179.063L183.537 22.0192H187.204L189.711 14.3632L192.245 22.0192ZM15.2554 22.0252H8.16237V9.96517H0.359375V2.87317H15.2554V22.0252Z" fill="#131722"/>
<path d="M21.6388 11.3852C23.9893 11.3852 25.8948 9.47974 25.8948 7.12921C25.8948 4.77869 23.9893 2.87321 21.6388 2.87321C19.2883 2.87321 17.3828 4.77869 17.3828 7.12921C17.3828 9.47974 19.2883 11.3852 21.6388 11.3852Z" fill="#131722"/>
<path d="M29.7976 2.87324L21.6406 22.0252H30.1526L38.3096 2.87224L29.7976 2.87324Z" fill="#131722"/>
</g>
<defs>
<clipPath id="clip0_3802_34673">
<rect width="200" height="27" fill="white" transform="translate(0.359375 0.993164)"/>
</clipPath>
</defs>
</svg>
