<svg width="202" height="60" viewBox="0 0 202 60" fill="none" xmlns="http://www.w3.org/2000/svg">
<g filter="url(#filter0_d_334_6914)">
<rect x="4" y="0.890625" width="194" height="51" rx="10" fill="#151515"/>
<g clip-path="url(#clip0_334_6914)">
<path d="M42.3872 21.2169L27.9059 13.983C27.7239 13.8907 27.495 13.8958 27.3189 13.9881C27.1369 14.0805 27.0254 14.2447 27.0254 14.4294C27.0254 14.4294 27.0313 15.0963 27.0371 16.1942L37.5856 25.4135L42.3872 21.2169Z" fill="url(#paint0_linear_334_6914)"/>
<path d="M27.0371 16.1942C27.0547 20.1549 27.1075 29.7692 27.131 34.5559L37.5914 25.4135L27.0371 16.1942Z" fill="url(#paint1_linear_334_6914)"/>
<path d="M50.6756 25.357L42.3871 21.2168L37.5796 25.4135L43.0035 30.154L50.6815 26.2446C50.8634 26.1522 50.975 25.9829 50.975 25.8034C50.975 25.6187 50.8576 25.4494 50.6756 25.357Z" fill="url(#paint2_linear_334_6914)"/>
<path d="M27.125 34.5558C27.1367 36.2642 27.1426 37.357 27.1426 37.357C27.1426 37.5417 27.2541 37.711 27.4361 37.7982C27.6181 37.8906 27.8411 37.8906 28.0231 37.7982L43.0093 30.1591L37.5854 25.4186L27.125 34.5558Z" fill="url(#paint3_linear_334_6914)"/>
</g>
<path d="M71.2796 13.5466V14.1226C71.2796 15.2746 70.8996 16.2186 70.1396 16.9546C69.3796 17.6826 68.3876 18.0466 67.1636 18.0466C65.8676 18.0466 64.7956 17.6266 63.9476 16.7866C63.1076 15.9466 62.6876 14.9146 62.6876 13.6906C62.6876 12.4746 63.1076 11.4466 63.9476 10.6066C64.7956 9.75862 65.8436 9.33462 67.0916 9.33462C67.8756 9.33462 68.5916 9.51462 69.2396 9.87462C69.8876 10.2346 70.3916 10.7186 70.7516 11.3266L69.5636 12.0106C69.3396 11.6106 69.0076 11.2906 68.5676 11.0506C68.1276 10.8026 67.6356 10.6786 67.0916 10.6786C66.2116 10.6786 65.4876 10.9666 64.9196 11.5426C64.3516 12.1186 64.0676 12.8386 64.0676 13.7026C64.0676 14.5666 64.3516 15.2826 64.9196 15.8506C65.4956 16.4186 66.2476 16.7026 67.1756 16.7026C67.9196 16.7026 68.5236 16.5306 68.9876 16.1866C69.4596 15.8346 69.7596 15.3666 69.8876 14.7826H67.0796V13.5466H71.2796ZM73.9212 16.5706H77.6412V17.8906H72.5412V9.49062H77.5812V10.8106H73.9212V12.9946H77.2812V14.3026H73.9212V16.5706ZM84.3645 9.49062V10.8106H82.0005V17.8906H80.6205V10.8106H78.2445V9.49062H84.3645ZM88.3849 9.49062H89.7649V17.8906H88.3849V9.49062ZM96.9035 9.49062V10.8106H94.5395V17.8906H93.1595V10.8106H90.7835V9.49062H96.9035ZM107.944 16.7866C107.104 17.6266 106.076 18.0466 104.86 18.0466C103.644 18.0466 102.612 17.6266 101.764 16.7866C100.924 15.9386 100.504 14.9066 100.504 13.6906C100.504 12.4746 100.924 11.4466 101.764 10.6066C102.612 9.75862 103.644 9.33462 104.86 9.33462C106.076 9.33462 107.104 9.75862 107.944 10.6066C108.792 11.4466 109.216 12.4746 109.216 13.6906C109.216 14.9066 108.792 15.9386 107.944 16.7866ZM102.736 15.8506C103.312 16.4186 104.02 16.7026 104.86 16.7026C105.7 16.7026 106.404 16.4186 106.972 15.8506C107.548 15.2746 107.836 14.5546 107.836 13.6906C107.836 12.8266 107.548 12.1106 106.972 11.5426C106.404 10.9666 105.7 10.6786 104.86 10.6786C104.02 10.6786 103.312 10.9666 102.736 11.5426C102.168 12.1106 101.884 12.8266 101.884 13.6906C101.884 14.5546 102.168 15.2746 102.736 15.8506ZM115.515 9.49062H116.895V17.8906H115.815L111.855 12.1906V17.8906H110.475V9.49062H111.555L115.515 15.1906V9.49062Z" fill="white"/>
<path d="M77.0259 31.6506V32.6106C77.0259 34.5306 76.3925 36.104 75.1259 37.3306C73.8592 38.544 72.2059 39.1506 70.1659 39.1506C68.0059 39.1506 66.2192 38.4506 64.8059 37.0506C63.4059 35.6506 62.7059 33.9306 62.7059 31.8906C62.7059 29.864 63.4059 28.1506 64.8059 26.7506C66.2192 25.3373 67.9659 24.6306 70.0459 24.6306C71.3525 24.6306 72.5459 24.9306 73.6259 25.5306C74.7059 26.1306 75.5459 26.9373 76.1459 27.9506L74.1659 29.0906C73.7925 28.424 73.2392 27.8906 72.5059 27.4906C71.7725 27.0773 70.9525 26.8706 70.0459 26.8706C68.5792 26.8706 67.3725 27.3506 66.4259 28.3106C65.4792 29.2706 65.0059 30.4706 65.0059 31.9106C65.0059 33.3506 65.4792 34.544 66.4259 35.4906C67.3859 36.4373 68.6392 36.9106 70.1859 36.9106C71.4259 36.9106 72.4325 36.624 73.2059 36.0506C73.9925 35.464 74.4925 34.684 74.7059 33.7106H70.0259V31.6506H77.0259ZM83.7085 39.1506C82.2418 39.1506 80.9952 38.644 79.9685 37.6306C78.9418 36.6173 78.4285 35.3706 78.4285 33.8906C78.4285 32.4106 78.9418 31.164 79.9685 30.1506C80.9952 29.1373 82.2418 28.6306 83.7085 28.6306C85.1885 28.6306 86.4352 29.1373 87.4485 30.1506C88.4752 31.164 88.9885 32.4106 88.9885 33.8906C88.9885 35.3706 88.4752 36.6173 87.4485 37.6306C86.4352 38.644 85.1885 39.1506 83.7085 39.1506ZM81.4885 36.1506C82.0885 36.7506 82.8285 37.0506 83.7085 37.0506C84.5885 37.0506 85.3285 36.7506 85.9285 36.1506C86.5285 35.5506 86.8285 34.7973 86.8285 33.8906C86.8285 32.984 86.5285 32.2306 85.9285 31.6306C85.3285 31.0306 84.5885 30.7306 83.7085 30.7306C82.8285 30.7306 82.0885 31.0306 81.4885 31.6306C80.8885 32.2306 80.5885 32.984 80.5885 33.8906C80.5885 34.7973 80.8885 35.5506 81.4885 36.1506ZM95.6616 39.1506C94.195 39.1506 92.9483 38.644 91.9216 37.6306C90.895 36.6173 90.3816 35.3706 90.3816 33.8906C90.3816 32.4106 90.895 31.164 91.9216 30.1506C92.9483 29.1373 94.195 28.6306 95.6616 28.6306C97.1416 28.6306 98.3883 29.1373 99.4016 30.1506C100.428 31.164 100.942 32.4106 100.942 33.8906C100.942 35.3706 100.428 36.6173 99.4016 37.6306C98.3883 38.644 97.1416 39.1506 95.6616 39.1506ZM93.4416 36.1506C94.0416 36.7506 94.7816 37.0506 95.6616 37.0506C96.5416 37.0506 97.2816 36.7506 97.8816 36.1506C98.4816 35.5506 98.7816 34.7973 98.7816 33.8906C98.7816 32.984 98.4816 32.2306 97.8816 31.6306C97.2816 31.0306 96.5416 30.7306 95.6616 30.7306C94.7816 30.7306 94.0416 31.0306 93.4416 31.6306C92.8416 32.2306 92.5416 32.984 92.5416 33.8906C92.5416 34.7973 92.8416 35.5506 93.4416 36.1506ZM110.855 28.8906H112.975V38.4306C112.975 39.9506 112.475 41.1173 111.475 41.9306C110.475 42.744 109.261 43.1506 107.835 43.1506C105.528 43.1506 103.948 42.344 103.095 40.7306L104.955 39.6506C105.475 40.6773 106.448 41.1906 107.875 41.1906C108.808 41.1906 109.535 40.944 110.055 40.4506C110.588 39.9706 110.855 39.2973 110.855 38.4306V37.2106C110.041 38.3706 108.881 38.9506 107.375 38.9506C105.961 38.9506 104.768 38.4506 103.795 37.4506C102.821 36.4373 102.335 35.2173 102.335 33.7906C102.335 32.364 102.821 31.1506 103.795 30.1506C104.768 29.1373 105.961 28.6306 107.375 28.6306C108.881 28.6306 110.041 29.2106 110.855 30.3706V28.8906ZM105.395 36.0306C106.008 36.6306 106.768 36.9306 107.675 36.9306C108.581 36.9306 109.335 36.6306 109.935 36.0306C110.548 35.4306 110.855 34.684 110.855 33.7906C110.855 32.8973 110.548 32.1506 109.935 31.5506C109.335 30.9506 108.581 30.6506 107.675 30.6506C106.768 30.6506 106.008 30.9506 105.395 31.5506C104.795 32.1506 104.495 32.8973 104.495 33.7906C104.495 34.684 104.795 35.4306 105.395 36.0306ZM115.492 38.8906V24.2906H117.652V38.8906H115.492ZM121.86 34.8106C122.02 35.5706 122.387 36.1573 122.96 36.5706C123.534 36.9706 124.234 37.1706 125.06 37.1706C126.207 37.1706 127.067 36.7573 127.64 35.9306L129.42 36.9706C128.434 38.424 126.974 39.1506 125.04 39.1506C123.414 39.1506 122.1 38.6573 121.1 37.6706C120.1 36.6706 119.6 35.4106 119.6 33.8906C119.6 32.3973 120.094 31.1506 121.08 30.1506C122.067 29.1373 123.334 28.6306 124.88 28.6306C126.347 28.6306 127.547 29.144 128.48 30.1706C129.427 31.1973 129.9 32.444 129.9 33.9106C129.9 34.1373 129.874 34.4373 129.82 34.8106H121.86ZM121.84 33.0506H127.72C127.574 32.2373 127.234 31.624 126.7 31.2106C126.18 30.7973 125.567 30.5906 124.86 30.5906C124.06 30.5906 123.394 30.8106 122.86 31.2506C122.327 31.6906 121.987 32.2906 121.84 33.0506ZM142.101 24.8906C143.421 24.8906 144.521 25.3306 145.401 26.2106C146.294 27.0906 146.741 28.184 146.741 29.4906C146.741 30.784 146.294 31.8773 145.401 32.7706C144.521 33.6506 143.421 34.0906 142.101 34.0906H139.241V38.8906H136.941V24.8906H142.101ZM142.101 31.9306C142.781 31.9306 143.341 31.704 143.781 31.2506C144.221 30.784 144.441 30.1973 144.441 29.4906C144.441 28.784 144.221 28.204 143.781 27.7506C143.341 27.284 142.781 27.0506 142.101 27.0506H139.241V31.9306H142.101ZM148.598 38.8906V24.2906H150.758V38.8906H148.598ZM161.186 28.8906H163.346V38.8906H161.186V37.4506C160.373 38.584 159.206 39.1506 157.686 39.1506C156.313 39.1506 155.139 38.644 154.166 37.6306C153.193 36.604 152.706 35.3573 152.706 33.8906C152.706 32.4106 153.193 31.164 154.166 30.1506C155.139 29.1373 156.313 28.6306 157.686 28.6306C159.206 28.6306 160.373 29.1906 161.186 30.3106V28.8906ZM155.766 36.1906C156.366 36.7906 157.119 37.0906 158.026 37.0906C158.933 37.0906 159.686 36.7906 160.286 36.1906C160.886 35.5773 161.186 34.8106 161.186 33.8906C161.186 32.9706 160.886 32.2106 160.286 31.6106C159.686 30.9973 158.933 30.6906 158.026 30.6906C157.119 30.6906 156.366 30.9973 155.766 31.6106C155.166 32.2106 154.866 32.9706 154.866 33.8906C154.866 34.8106 155.166 35.5773 155.766 36.1906ZM172.604 28.8906H174.904L171.064 39.2106C170.104 41.7973 168.477 43.024 166.184 42.8906V40.8706C166.864 40.9106 167.41 40.764 167.824 40.4306C168.237 40.1106 168.577 39.604 168.844 38.9106L168.944 38.7106L164.704 28.8906H167.064L170.044 36.1506L172.604 28.8906Z" fill="white"/>
</g>
<defs>
<filter id="filter0_d_334_6914" x="0" y="0.890625" width="202" height="59" filterUnits="userSpaceOnUse" color-interpolation-filters="sRGB">
<feFlood flood-opacity="0" result="BackgroundImageFix"/>
<feColorMatrix in="SourceAlpha" type="matrix" values="0 0 0 0 0 0 0 0 0 0 0 0 0 0 0 0 0 0 127 0" result="hardAlpha"/>
<feOffset dy="4"/>
<feGaussianBlur stdDeviation="2"/>
<feComposite in2="hardAlpha" operator="out"/>
<feColorMatrix type="matrix" values="0 0 0 0 0 0 0 0 0 0 0 0 0 0 0 0 0 0 0.25 0"/>
<feBlend mode="normal" in2="BackgroundImageFix" result="effect1_dropShadow_334_6914"/>
<feBlend mode="normal" in="SourceGraphic" in2="effect1_dropShadow_334_6914" result="shape"/>
</filter>
<linearGradient id="paint0_linear_334_6914" x1="34.7063" y1="13.9163" x2="34.7063" y2="25.4135" gradientUnits="userSpaceOnUse">
<stop stop-color="#151515"/>
<stop offset="0.70625" stop-color="#01787B"/>
</linearGradient>
<linearGradient id="paint1_linear_334_6914" x1="27.0343" y1="25.3773" x2="37.5853" y2="25.3773" gradientUnits="userSpaceOnUse">
<stop stop-color="#3EC6F2"/>
<stop offset="1" stop-color="#45AFE3"/>
</linearGradient>
<linearGradient id="paint2_linear_334_6914" x1="37.5852" y1="25.6887" x2="50.9736" y2="25.6887" gradientUnits="userSpaceOnUse">
<stop stop-color="#FAA51A"/>
<stop offset="0.387" stop-color="#FAB716"/>
<stop offset="0.741" stop-color="#FAC412"/>
<stop offset="1" stop-color="#FAC80F"/>
</linearGradient>
<linearGradient id="paint3_linear_334_6914" x1="27.1276" y1="31.6428" x2="43.009" y2="31.6428" gradientUnits="userSpaceOnUse">
<stop stop-color="#EC3B50"/>
<stop offset="1" stop-color="#E7515B"/>
</linearGradient>
<clipPath id="clip0_334_6914">
<rect width="24" height="24" fill="white" transform="translate(27 13.8906)"/>
</clipPath>
</defs>
</svg>
