<svg width="74" height="74" viewBox="0 0 74 74" fill="none" xmlns="http://www.w3.org/2000/svg">
<path d="M58.6534 6.12842H61.7176V36.7701H58.6534V6.12842ZM23.4155 10.7247H26.4797V36.7701H23.4155V10.7247ZM12.6909 41.3663H15.7551V67.4118H12.6909V41.3663ZM43.3326 29.1097H46.3968V62.8155H43.3326V29.1097Z" fill="#323232"/>
<path d="M55.5897 10.7246H64.7822C66.4675 10.7246 67.8463 12.1035 67.8463 13.7888V29.1096C67.8463 30.7949 66.4675 32.1738 64.7822 32.1738H55.5897C53.9044 32.1738 52.5255 30.7949 52.5255 29.1096V13.7888C52.5255 12.1035 53.9044 10.7246 55.5897 10.7246ZM20.3518 15.3209H29.5443C31.2296 15.3209 32.6084 16.6997 32.6084 18.385V29.1096C32.6084 30.7949 31.2296 32.1738 29.5443 32.1738H20.3518C18.6665 32.1738 17.2876 30.7949 17.2876 29.1096V18.385C17.2876 16.6997 18.6665 15.3209 20.3518 15.3209Z" fill="#323232"/>
<path d="M9.62716 45.9625H18.8197C20.5049 45.9625 21.8838 47.3414 21.8838 49.0266V59.7512C21.8838 61.4365 20.5049 62.8154 18.8197 62.8154H9.62716C7.94186 62.8154 6.56299 61.4365 6.56299 59.7512V49.0266C6.56299 47.3414 7.94186 45.9625 9.62716 45.9625ZM40.2688 33.7058H49.4613C51.1466 33.7058 52.5255 35.0847 52.5255 36.77V55.155C52.5255 56.8403 51.1466 58.2191 49.4613 58.2191H40.2688C38.5835 58.2191 37.2047 56.8403 37.2047 55.155V36.77C37.2047 35.0847 38.5835 33.7058 40.2688 33.7058Z" fill="#323232"/>
</svg>
