<svg width="177" height="27" viewBox="0 0 177 27" fill="none" xmlns="http://www.w3.org/2000/svg">
<path d="M12.3249 16.1803C12.5722 16.3775 12.6134 16.7367 12.4171 16.9843C10.9704 18.822 8.66489 18.822 7.22959 16.9843C7.04278 16.7364 7.08703 16.3852 7.33019 16.1913C7.5731 15.9973 7.92665 16.0306 8.1289 16.2665C8.49352 16.8531 9.13682 17.2099 9.82921 17.2099C10.5216 17.2099 11.1649 16.8531 11.5295 16.2665C11.7282 16.0293 12.0797 15.9911 12.3249 16.1803H12.3249ZM9.8177 14.6297C3.11449 14.3657 3.10856 4.81503 9.8177 4.54528C11.6256 4.54528 13.2964 5.50621 14.2003 7.06623C15.1045 8.62632 15.1045 10.5484 14.2003 12.1084C13.2963 13.6685 11.6256 14.6296 9.8177 14.6296V14.6297ZM13.7255 9.58758C13.541 4.419 6.09418 4.419 5.90973 9.58758C5.90973 10.9787 6.65443 12.2639 7.86352 12.9595C9.07261 13.655 10.5625 13.655 11.7716 12.9595C12.9807 12.2639 13.7254 10.9787 13.7254 9.58758H13.7255ZM14.5093 14.9053H14.5095C14.2674 14.6928 13.8984 14.7161 13.6851 14.9571C13.472 15.1981 13.4952 15.5658 13.7371 15.7783C15.766 17.6104 17.2298 20.7056 17.8006 24.3526H1.83439C2.41077 20.7059 3.869 17.6101 5.89794 15.7783C6.02171 15.6794 6.09916 15.5337 6.11151 15.3761C6.12412 15.2184 6.07086 15.0623 5.96433 14.9451C5.8578 14.8279 5.70727 14.7595 5.54851 14.7564C5.38974 14.7533 5.2369 14.8154 5.12548 14.9284C2.77955 17.0476 1.12523 20.6713 0.600816 24.8521C0.579201 25.0169 0.63015 25.1828 0.740796 25.3074C0.851185 25.4318 1.01047 25.5025 1.1772 25.501H18.4629C18.6296 25.5025 18.7889 25.4318 18.8993 25.3074C19.0099 25.1828 19.0609 25.0169 19.0392 24.8521C18.5089 20.6598 16.8546 17.0418 14.509 14.9225L14.5093 14.9053ZM19.6162 9.98958C19.7835 11.4884 18.9013 12.8323 17.3107 12.861H16.7343C16.416 12.861 16.1579 12.6039 16.1579 12.2867V8.93276C15.812 0.554092 3.82322 0.554092 3.47739 8.93276V12.2867C3.47739 12.439 3.41666 12.5851 3.30859 12.6928C3.20052 12.8005 3.05384 12.861 2.901 12.861H2.32461C0.727992 12.8323 -0.142252 11.4884 0.0190699 9.98958C0.0182979 9.36094 0.276125 8.75949 0.732603 8.32546C1.18908 7.89141 1.80382 7.66244 2.43423 7.69247C4.00206 -0.560187 15.6279 -0.565438 17.2016 7.69247H17.3109C17.9223 7.69247 18.5088 7.93449 18.9413 8.3652C19.3736 8.79592 19.6165 9.38021 19.6165 9.98961L19.6162 9.98958ZM2.32461 11.7124V8.84101C2.01893 8.84101 1.72558 8.96202 1.50944 9.17737C1.2933 9.39273 1.17184 9.685 1.17184 9.98958V10.5639C1.17184 10.8684 1.2933 11.1605 1.50944 11.3761C1.72558 11.5914 2.01893 11.7124 2.32461 11.7124ZM18.4634 9.98958C18.4634 9.685 18.342 9.39273 18.1258 9.17737C17.9097 8.96202 17.6163 8.84101 17.3107 8.84101V11.7124C17.6163 11.7124 17.9097 11.5914 18.1258 11.3761C18.342 11.1605 18.4634 10.8684 18.4634 10.5639V9.98958Z" fill="#01CD98"/>
<g filter="url(#filter0_b_1_277)">
<path d="M41.5909 20.127C40.7509 20.127 39.9949 19.983 39.3229 19.695C38.6509 19.395 38.1229 18.975 37.7389 18.435C37.3549 17.895 37.1629 17.265 37.1629 16.545H39.3589C39.4069 17.085 39.6169 17.529 39.9889 17.877C40.3729 18.225 40.9069 18.399 41.5909 18.399C42.2989 18.399 42.8509 18.231 43.2469 17.895C43.6429 17.547 43.8409 17.103 43.8409 16.563C43.8409 16.143 43.7149 15.801 43.4629 15.537C43.2229 15.273 42.9169 15.069 42.5449 14.925C42.1849 14.781 41.6809 14.625 41.0329 14.457C40.2169 14.241 39.5509 14.025 39.0349 13.809C38.5309 13.581 38.0989 13.233 37.7389 12.765C37.3789 12.297 37.1989 11.673 37.1989 10.893C37.1989 10.173 37.3789 9.54301 37.7389 9.00301C38.0989 8.46301 38.6029 8.04901 39.2509 7.76101C39.8989 7.47301 40.6489 7.32901 41.5009 7.32901C42.7129 7.32901 43.7029 7.63501 44.4709 8.24701C45.2509 8.84701 45.6829 9.67501 45.7669 10.731H43.4989C43.4629 10.275 43.2469 9.88501 42.8509 9.56101C42.4549 9.23701 41.9329 9.07501 41.2849 9.07501C40.6969 9.07501 40.2169 9.22501 39.8449 9.52501C39.4729 9.82501 39.2869 10.257 39.2869 10.821C39.2869 11.205 39.4009 11.523 39.6289 11.775C39.8689 12.015 40.1689 12.207 40.5289 12.351C40.8889 12.495 41.3809 12.651 42.0049 12.819C42.8329 13.047 43.5049 13.275 44.0209 13.503C44.5489 13.731 44.9929 14.085 45.3529 14.565C45.7249 15.033 45.9109 15.663 45.9109 16.455C45.9109 17.091 45.7369 17.691 45.3889 18.255C45.0529 18.819 44.5549 19.275 43.8949 19.623C43.2469 19.959 42.4789 20.127 41.5909 20.127ZM57.3142 10.083V20.001H55.2622V18.831C54.9382 19.239 54.5122 19.563 53.9842 19.803C53.4682 20.031 52.9162 20.145 52.3282 20.145C51.5482 20.145 50.8462 19.983 50.2222 19.659C49.6102 19.335 49.1242 18.855 48.7642 18.219C48.4162 17.583 48.2422 16.815 48.2422 15.915V10.083H50.2762V15.609C50.2762 16.497 50.4982 17.181 50.9422 17.661C51.3862 18.129 51.9922 18.363 52.7602 18.363C53.5282 18.363 54.1342 18.129 54.5782 17.661C55.0342 17.181 55.2622 16.497 55.2622 15.609V10.083H57.3142ZM62.0736 11.541C62.4216 11.085 62.8956 10.701 63.4956 10.389C64.0956 10.077 64.7736 9.92101 65.5296 9.92101C66.3936 9.92101 67.1796 10.137 67.8876 10.569C68.6076 10.989 69.1716 11.583 69.5796 12.351C69.9876 13.119 70.1916 14.001 70.1916 14.997C70.1916 15.993 69.9876 16.887 69.5796 17.679C69.1716 18.459 68.6076 19.071 67.8876 19.515C67.1796 19.947 66.3936 20.163 65.5296 20.163C64.7736 20.163 64.1016 20.013 63.5136 19.713C62.9256 19.401 62.4456 19.017 62.0736 18.561V24.717H60.0216V10.083H62.0736V11.541ZM68.1036 14.997C68.1036 14.313 67.9596 13.725 67.6716 13.233C67.3956 12.729 67.0236 12.351 66.5556 12.099C66.0996 11.835 65.6076 11.703 65.0796 11.703C64.5636 11.703 64.0716 11.835 63.6036 12.099C63.1476 12.363 62.7756 12.747 62.4876 13.251C62.2116 13.755 62.0736 14.349 62.0736 15.033C62.0736 15.717 62.2116 16.317 62.4876 16.833C62.7756 17.337 63.1476 17.721 63.6036 17.985C64.0716 18.249 64.5636 18.381 65.0796 18.381C65.6076 18.381 66.0996 18.249 66.5556 17.985C67.0236 17.709 67.3956 17.313 67.6716 16.797C67.9596 16.281 68.1036 15.681 68.1036 14.997ZM74.2728 11.541C74.6208 11.085 75.0948 10.701 75.6948 10.389C76.2948 10.077 76.9728 9.92101 77.7288 9.92101C78.5928 9.92101 79.3788 10.137 80.0869 10.569C80.8069 10.989 81.3708 11.583 81.7788 12.351C82.1869 13.119 82.3909 14.001 82.3909 14.997C82.3909 15.993 82.1869 16.887 81.7788 17.679C81.3708 18.459 80.8069 19.071 80.0869 19.515C79.3788 19.947 78.5928 20.163 77.7288 20.163C76.9728 20.163 76.3008 20.013 75.7129 19.713C75.1248 19.401 74.6448 19.017 74.2728 18.561V24.717H72.2208V10.083H74.2728V11.541ZM80.3029 14.997C80.3029 14.313 80.1589 13.725 79.8708 13.233C79.5948 12.729 79.2229 12.351 78.7549 12.099C78.2988 11.835 77.8068 11.703 77.2788 11.703C76.7628 11.703 76.2709 11.835 75.8028 12.099C75.3468 12.363 74.9748 12.747 74.6868 13.251C74.4108 13.755 74.2728 14.349 74.2728 15.033C74.2728 15.717 74.4108 16.317 74.6868 16.833C74.9748 17.337 75.3468 17.721 75.8028 17.985C76.2709 18.249 76.7628 18.381 77.2788 18.381C77.8068 18.381 78.2988 18.249 78.7549 17.985C79.2229 17.709 79.5948 17.313 79.8708 16.797C80.1589 16.281 80.3029 15.681 80.3029 14.997ZM88.7221 20.163C87.7861 20.163 86.9401 19.953 86.1841 19.533C85.4281 19.101 84.8341 18.501 84.4021 17.733C83.9701 16.953 83.7541 16.053 83.7541 15.033C83.7541 14.025 83.9761 13.131 84.4201 12.351C84.8641 11.571 85.4701 10.971 86.2381 10.551C87.0061 10.131 87.8641 9.92101 88.8121 9.92101C89.7601 9.92101 90.6181 10.131 91.3861 10.551C92.1541 10.971 92.7601 11.571 93.2041 12.351C93.6481 13.131 93.8701 14.025 93.8701 15.033C93.8701 16.041 93.6421 16.935 93.1861 17.715C92.7301 18.495 92.1061 19.101 91.3141 19.533C90.5341 19.953 89.6701 20.163 88.7221 20.163ZM88.7221 18.381C89.2501 18.381 89.7421 18.255 90.1981 18.003C90.6661 17.751 91.0441 17.373 91.3321 16.869C91.6201 16.365 91.7641 15.753 91.7641 15.033C91.7641 14.313 91.6261 13.707 91.3501 13.215C91.0741 12.711 90.7081 12.333 90.2521 12.081C89.7961 11.829 89.3041 11.703 88.7761 11.703C88.2481 11.703 87.7561 11.829 87.3001 12.081C86.8561 12.333 86.5021 12.711 86.2381 13.215C85.9741 13.707 85.8421 14.313 85.8421 15.033C85.8421 16.101 86.1121 16.929 86.6521 17.517C87.2041 18.093 87.8941 18.381 88.7221 18.381ZM97.9506 11.523C98.2506 11.019 98.6466 10.629 99.1386 10.353C99.6426 10.065 100.237 9.92101 100.921 9.92101V12.045H100.399C99.5946 12.045 98.9826 12.249 98.5626 12.657C98.1546 13.065 97.9506 13.773 97.9506 14.781V20.001H95.8986V10.083H97.9506V11.523ZM105.201 11.757V17.247C105.201 17.619 105.285 17.889 105.453 18.057C105.633 18.213 105.933 18.291 106.353 18.291H107.613V20.001H105.993C105.069 20.001 104.361 19.785 103.869 19.353C103.377 18.921 103.131 18.219 103.131 17.247V11.757H101.961V10.083H103.131V7.61701H105.201V10.083H107.613V11.757H105.201Z" fill="#2F4858"/>
</g>
<defs>
<filter id="filter0_b_1_277" x="33.6476" y="3.81378" width="77.4804" height="24.4185" filterUnits="userSpaceOnUse" color-interpolation-filters="sRGB">
<feFlood flood-opacity="0" result="BackgroundImageFix"/>
<feGaussianBlur in="BackgroundImageFix" stdDeviation="1.75762"/>
<feComposite in2="SourceAlpha" operator="in" result="effect1_backgroundBlur_1_277"/>
<feBlend mode="normal" in="SourceGraphic" in2="effect1_backgroundBlur_1_277" result="shape"/>
</filter>
</defs>
</svg>
