<svg width="40" height="40" viewBox="0 0 40 40" fill="none" xmlns="http://www.w3.org/2000/svg">
<circle cx="20" cy="20" r="12.8921" transform="rotate(-135 20 20)" fill="white" stroke="#7B7B7B" stroke-width="2.5"/>
<path fill-rule="evenodd" clip-rule="evenodd" d="M19.7834 13.9765C20.076 13.9765 20.3133 14.2141 20.3133 14.5072V19.284H25.0825C25.3751 19.284 25.6124 19.5216 25.6124 19.8147C25.6124 20.1079 25.3751 20.3455 25.0825 20.3455H20.3133V25.1222C20.3133 25.4154 20.076 25.653 19.7834 25.653C19.4907 25.653 19.2535 25.4154 19.2535 25.1222V20.3455H14.4843C14.1916 20.3455 13.9543 20.1079 13.9543 19.8147C13.9543 19.5216 14.1916 19.284 14.4843 19.284H19.2535V14.5072C19.2535 14.2141 19.4907 13.9765 19.7834 13.9765Z" fill="#7B7B7B" stroke="#7B7B7B" stroke-linecap="round" stroke-linejoin="round"/>
</svg>
