<svg width="28" height="28" viewBox="0 0 28 28" fill="none" xmlns="http://www.w3.org/2000/svg">
<path d="M20.2394 28.001C16.6355 28.001 11.6069 26.0686 6.76984 21.2309C0.573696 15.0345 -0.857147 8.52345 0.436466 5.09538C1.3614 2.64511 3.94062 1.84414 5.39587 1.58495C6.3182 1.42216 7.24807 1.89335 7.65676 2.7344L9.91585 7.37814C10.3214 8.21112 10.1258 9.22827 9.44023 9.85161L7.51901 11.5973C7.59559 12.2175 8.072 14.1335 10.9698 17.0313C13.8566 19.9186 15.7695 20.4021 16.4056 20.481L18.149 18.5616C18.7718 17.8763 19.7905 17.6798 20.623 18.0852L25.2665 20.3442C26.108 20.7534 26.5805 21.6833 26.4159 22.6051C26.1567 24.0598 25.356 26.6391 22.9063 27.564C22.1543 27.8479 21.2536 28.0006 20.2406 28.0006L20.2394 28.001ZM5.76829 2.95291C5.72635 2.95291 5.68363 2.95656 5.64091 2.96411C4.47766 3.17145 2.42588 3.78796 1.74554 5.59048C0.606223 8.61094 2.00211 14.4844 7.7591 20.241C13.5181 25.9998 19.393 27.3952 22.4096 26.2545C24.2123 25.5742 24.8286 23.5222 25.036 22.3594C25.092 22.0458 24.938 21.7426 24.6526 21.6041L20.0091 19.345C19.7319 19.2098 19.3923 19.2747 19.1847 19.5041L17.2231 21.6632C17.1095 21.788 16.9551 21.8674 16.7876 21.888C16.5154 21.9192 14.0404 22.0841 9.97877 18.022C5.91749 13.9605 6.08079 11.4829 6.1128 11.2132C6.1326 11.0455 6.21256 10.8913 6.33733 10.7777L8.4972 8.81529C8.72615 8.60769 8.79101 8.26908 8.65582 7.99118L6.39674 3.34744C6.27718 3.10103 6.03442 2.95282 5.76821 2.95282L5.76829 2.95291Z" fill="#01787b"/>
<path d="M27.2989 12.1903C26.9647 12.1903 26.6693 11.9506 26.6097 11.6105C25.7014 6.40567 21.5943 2.29845 16.3895 1.39025C16.0087 1.32331 15.7537 0.960729 15.8201 0.57994C15.8865 0.199131 16.2439 -0.0558774 16.6304 0.0105436C22.415 1.02016 26.9793 5.58522 27.9895 11.3697C28.0559 11.7505 27.8009 12.113 27.4201 12.18C27.3798 12.1867 27.3386 12.1901 27.2993 12.1901L27.2989 12.1903Z" fill="#01787b"/>
<path d="M22.9586 13.1217C22.6247 13.1217 22.3291 12.8824 22.2694 12.5422C21.663 9.07532 18.926 6.33826 15.4586 5.73139C15.0778 5.66445 14.8233 5.30187 14.89 4.92108C14.9564 4.54053 15.3154 4.28292 15.7011 4.35247C19.7473 5.06043 22.9413 8.25512 23.6495 12.3009C23.7159 12.6817 23.4612 13.0442 23.0801 13.1112C23.0397 13.1182 22.9986 13.1216 22.9592 13.1216L22.9586 13.1217Z" fill="#01787b"/>
</svg>
