<svg width="30" height="23" viewBox="0 0 30 23" fill="none" xmlns="http://www.w3.org/2000/svg">
<path d="M26.4291 0.501007H3.22306C1.44608 0.501007 0 1.95258 0 3.7363V19.2657C0 21.0494 1.44608 22.501 3.22306 22.501H26.4291C28.2061 22.501 29.6522 21.0494 29.6522 19.2657V3.7363C29.6522 1.95258 28.2061 0.501007 26.4291 0.501007ZM18.6195 11.4998L28.1278 2.82734C28.2731 3.10008 28.3636 3.40651 28.3636 3.73679V19.2662C28.3636 19.5965 28.2731 19.9029 28.1278 20.1757L18.6195 11.5008V11.4998ZM26.4291 1.79512C26.6939 1.79512 26.9459 1.84929 27.1759 1.9463L16.1254 12.0262C15.3959 12.6943 14.2548 12.694 13.5261 12.0246L2.47617 1.94584C2.70615 1.84883 2.95819 1.79467 3.22294 1.79467L26.4291 1.79512ZM1.52497 20.1753C1.37964 19.9026 1.28924 19.5961 1.28924 19.2658V3.73642C1.28924 3.40615 1.37965 3.09972 1.52497 2.82697L11.0333 11.4994L1.52497 20.1743V20.1753ZM3.22306 21.207C2.95831 21.207 2.70627 21.1528 2.47629 21.0558L11.9914 12.3742L12.6569 12.9815C13.2653 13.5402 14.0459 13.819 14.8265 13.819C15.6073 13.819 16.3859 13.5405 16.9932 12.9832L17.6605 12.3744L27.1756 21.0561C26.9457 21.1531 26.6936 21.2073 26.4289 21.2073H3.22282L3.22306 21.207Z" fill="#01787b"/>
</svg>
