<svg width="20" height="25" viewBox="0 0 20 25" fill="none" xmlns="http://www.w3.org/2000/svg">
<path d="M12.3249 15.1803C12.5722 15.3775 12.6134 15.7367 12.4171 15.9843C10.9704 17.822 8.66489 17.822 7.22959 15.9843C7.04278 15.7364 7.08703 15.3852 7.33019 15.1913C7.5731 14.9973 7.92665 15.0306 8.1289 15.2665C8.49352 15.8531 9.13682 16.2099 9.82921 16.2099C10.5216 16.2099 11.1649 15.8531 11.5295 15.2665C11.7282 15.0293 12.0797 14.9911 12.3249 15.1803H12.3249ZM9.8177 13.6297C3.11449 13.3657 3.10856 3.81503 9.8177 3.54528C11.6256 3.54528 13.2964 4.50621 14.2003 6.06623C15.1045 7.62632 15.1045 9.54838 14.2003 11.1084C13.2963 12.6685 11.6256 13.6296 9.8177 13.6296V13.6297ZM13.7255 8.58758C13.541 3.419 6.09418 3.419 5.90973 8.58758C5.90973 9.97866 6.65443 11.2639 7.86352 11.9595C9.07261 12.655 10.5625 12.655 11.7716 11.9595C12.9807 11.2639 13.7254 9.97866 13.7254 8.58758H13.7255ZM14.5093 13.9053H14.5095C14.2674 13.6928 13.8984 13.7161 13.6851 13.9571C13.472 14.1981 13.4952 14.5658 13.7371 14.7783C15.766 16.6104 17.2298 19.7056 17.8006 23.3526H1.83439C2.41077 19.7059 3.869 16.6101 5.89794 14.7783C6.02171 14.6794 6.09916 14.5337 6.11151 14.3761C6.12412 14.2184 6.07086 14.0623 5.96433 13.9451C5.8578 13.8279 5.70727 13.7595 5.54851 13.7564C5.38974 13.7533 5.2369 13.8154 5.12548 13.9284C2.77955 16.0476 1.12523 19.6713 0.600816 23.8521C0.579201 24.0169 0.63015 24.1828 0.740796 24.3074C0.851185 24.4318 1.01047 24.5025 1.1772 24.501H18.4629C18.6296 24.5025 18.7889 24.4318 18.8993 24.3074C19.0099 24.1828 19.0609 24.0169 19.0392 23.8521C18.5089 19.6598 16.8546 16.0418 14.509 13.9225L14.5093 13.9053ZM19.6162 8.98958C19.7835 10.4884 18.9013 11.8323 17.3107 11.861H16.7343C16.416 11.861 16.1579 11.6039 16.1579 11.2867V7.93276C15.812 -0.445908 3.82322 -0.445908 3.47739 7.93276V11.2867C3.47739 11.439 3.41666 11.5851 3.30859 11.6928C3.20052 11.8005 3.05384 11.861 2.901 11.861H2.32461C0.727992 11.8323 -0.142252 10.4884 0.0190699 8.98958C0.0182979 8.36094 0.276125 7.75949 0.732603 7.32546C1.18908 6.89141 1.80382 6.66244 2.43423 6.69247C4.00206 -1.56019 15.6279 -1.56544 17.2016 6.69247H17.3109C17.9223 6.69247 18.5088 6.93449 18.9413 7.3652C19.3736 7.79592 19.6165 8.38021 19.6165 8.98961L19.6162 8.98958ZM2.32461 10.7124V7.84101C2.01893 7.84101 1.72558 7.96202 1.50944 8.17737C1.2933 8.39273 1.17184 8.685 1.17184 8.98958V9.56386C1.17184 9.86844 1.2933 10.1605 1.50944 10.3761C1.72558 10.5914 2.01893 10.7124 2.32461 10.7124ZM18.4634 8.98958C18.4634 8.685 18.342 8.39273 18.1258 8.17737C17.9097 7.96202 17.6163 7.84101 17.3107 7.84101V10.7124C17.6163 10.7124 17.9097 10.5914 18.1258 10.3761C18.342 10.1605 18.4634 9.86844 18.4634 9.56386V8.98958Z" fill="#118B64"/>
</svg>
