<svg width="62" height="44" viewBox="0 0 62 44" fill="none" xmlns="http://www.w3.org/2000/svg">
<path fill-rule="evenodd" clip-rule="evenodd" d="M4.74908 0.320801C3.53008 0.320801 2.36101 0.805047 1.49904 1.66701C0.637079 2.52897 0.152832 3.69805 0.152832 4.91705V11.0454H61.4362V4.91705C61.4362 3.69805 60.9519 2.52897 60.09 1.66701C59.228 0.805047 58.0589 0.320801 56.8399 0.320801H4.74908ZM61.4362 20.2379H0.152832V38.6229C0.152832 39.8419 0.637079 41.011 1.49904 41.8729C2.36101 42.7349 3.53008 43.2191 4.74908 43.2191H56.8399C58.0589 43.2191 59.228 42.7349 60.09 41.8729C60.9519 41.011 61.4362 39.8419 61.4362 38.6229V20.2379Z" fill="#323232"/>
</svg>
