<svg width="50" height="50" viewBox="0 0 50 50" fill="none" xmlns="http://www.w3.org/2000/svg">
<path d="M25.3843 0.257324C28.6351 0.257324 31.7528 1.54872 34.0515 3.84741C36.3502 6.14611 37.6416 9.2638 37.6416 12.5146C37.6416 15.7655 36.3502 18.8832 34.0515 21.1819C31.7528 23.4806 28.6351 24.772 25.3843 24.772C22.1334 24.772 19.0157 23.4806 16.717 21.1819C14.4183 18.8832 13.127 15.7655 13.127 12.5146C13.127 9.2638 14.4183 6.14611 16.717 3.84741C19.0157 1.54872 22.1334 0.257324 25.3843 0.257324ZM25.3843 30.9006C38.9286 30.9006 49.8989 36.3858 49.8989 43.158V49.2866H0.869629V43.158C0.869629 36.3858 11.8399 30.9006 25.3843 30.9006Z" fill="#323232"/>
</svg>
