<svg width="26" height="27" viewBox="0 0 26 27" fill="none" xmlns="http://www.w3.org/2000/svg">
<path fill-rule="evenodd" clip-rule="evenodd" d="M13.1379 0.553467C16.4041 0.553467 19.1023 3.04219 19.4349 6.22517L19.5278 6.22627C21.3397 6.22627 23.5427 7.4296 24.2861 10.8047L25.2721 18.4358C25.6257 20.8987 25.1833 22.8743 23.955 24.2913C22.7329 25.7008 20.7986 26.4468 18.3607 26.4468H7.92927C5.25144 26.4468 3.38583 25.7908 2.22498 24.4425C1.05913 23.0905 0.669264 21.0624 1.06663 18.4158L2.03629 10.8859C2.67358 7.43335 5.00402 6.22627 6.8084 6.22627C6.96418 4.78986 7.61187 3.42336 8.6394 2.39908C9.82025 1.22574 11.4484 0.553467 13.1116 0.553467H13.1379ZM19.5278 8.10062H6.8084C6.25734 8.10062 4.41548 8.32305 3.88691 11.1771L2.92224 18.6745C2.6086 20.7775 2.85101 22.2995 3.64449 23.2204C4.42797 24.1301 5.82999 24.5725 7.92927 24.5725H18.3607C19.6702 24.5725 21.4584 24.3113 22.538 23.0642C23.3952 22.0758 23.6901 20.6038 23.4152 18.6882L22.4418 11.1258C22.0269 9.26272 20.9323 8.10062 19.5278 8.10062ZM16.7822 11.5796C17.2996 11.5796 17.7481 11.9994 17.7481 12.5167C17.7481 13.0341 17.357 13.4539 16.8397 13.4539H16.7822C16.2649 13.4539 15.845 13.0341 15.845 12.5167C15.845 11.9994 16.2649 11.5796 16.7822 11.5796ZM9.49711 11.5796C10.0144 11.5796 10.463 11.9994 10.463 12.5167C10.463 13.0341 10.0707 13.4539 9.55334 13.4539H9.49711C8.97978 13.4539 8.55993 13.0341 8.55993 12.5167C8.55993 11.9994 8.97978 11.5796 9.49711 11.5796ZM13.1341 2.42782H13.1154C11.9395 2.42782 10.7937 2.90141 9.9627 3.72738C9.2858 4.40123 8.8431 5.28708 8.6999 6.22569L17.546 6.22604C17.2249 4.07898 15.3682 2.42782 13.1341 2.42782Z" fill="#01C198"/>
</svg>
