<svg width="22" height="27" viewBox="0 0 22 27" fill="none" xmlns="http://www.w3.org/2000/svg">
<path fill-rule="evenodd" clip-rule="evenodd" d="M21.484 21.7397C21.484 26.0793 15.4635 26.5809 10.9362 26.5809L10.6122 26.5806C7.72779 26.5737 0.385742 26.3937 0.385742 21.7134C0.385742 17.4623 6.16426 16.8942 10.6571 16.8728L11.2602 16.8724C14.1444 16.8793 21.484 17.0593 21.484 21.7397ZM10.9362 18.8471C5.26072 18.8471 2.38368 19.8108 2.38368 21.7134C2.38368 23.633 5.26072 24.606 10.9362 24.606C16.6104 24.606 19.4861 23.6422 19.4861 21.7397C19.4861 19.8201 16.6104 18.8471 10.9362 18.8471ZM10.9362 0.419067C14.8362 0.419067 18.0076 3.55527 18.0076 7.41034C18.0076 11.2654 14.8362 14.4003 10.9362 14.4003H10.8936C7.00159 14.3885 3.84884 11.2509 3.86212 7.40639C3.86212 3.55527 7.03489 0.419067 10.9362 0.419067ZM10.9362 2.29921C8.08448 2.29921 5.76417 4.59145 5.76417 7.41034C5.75488 10.22 8.05784 12.5109 10.8976 12.5215L10.9362 13.4615V12.5215C13.7866 12.5215 16.1055 10.2279 16.1055 7.41034C16.1055 4.59145 13.7866 2.29921 10.9362 2.29921Z" fill="#01C198"/>
</svg>
