<svg width="58" height="58" viewBox="0 0 58 58" fill="none" xmlns="http://www.w3.org/2000/svg">
<path d="M28.396 1.80941C28.5091 1.2827 29.2606 1.28271 29.3737 1.8094L33.8968 22.8727C34.0207 23.4497 34.4715 23.9004 35.0485 24.0243L56.1117 28.5474C56.6384 28.6605 56.6384 29.412 56.1117 29.5251L35.0485 34.0482C34.4715 34.1721 34.0207 34.6228 33.8968 35.1998L29.3737 56.2631C29.2606 56.7898 28.5091 56.7898 28.396 56.2631L23.873 35.1998C23.7491 34.6228 23.2983 34.1721 22.7213 34.0482L1.65804 29.5251C1.13134 29.412 1.13134 28.6605 1.65804 28.5474L22.7213 24.0243C23.2983 23.9004 23.7491 23.4497 23.873 22.8727L28.396 1.80941Z" stroke="#22B691"/>
</svg>
