<svg width="17" height="17" viewBox="0 0 17 17" fill="none" xmlns="http://www.w3.org/2000/svg">
<path d="M3.95919 7.44823C5.21092 9.90822 7.22758 11.9162 9.68757 13.1766L11.5999 11.2643C11.8346 11.0296 12.1823 10.9513 12.4866 11.0556C13.4601 11.3773 14.5119 11.5511 15.5898 11.5511C16.0679 11.5511 16.459 11.9423 16.459 12.4204V15.4541C16.459 15.9321 16.0679 16.3233 15.5898 16.3233C7.42751 16.3233 0.8125 9.70829 0.8125 1.54601C0.8125 1.06792 1.20366 0.676758 1.68175 0.676758H4.72414C5.20223 0.676758 5.59339 1.06792 5.59339 1.54601C5.59339 2.63258 5.76724 3.67568 6.08886 4.64924C6.18448 4.95348 6.11494 5.29249 5.87155 5.53588L3.95919 7.44823Z" fill="black"/>
</svg>
