<svg width="403" height="210" viewBox="0 0 403 210" fill="none" xmlns="http://www.w3.org/2000/svg">
<g clip-path="url(#clip0_1818_9667)">
<path fill-rule="evenodd" clip-rule="evenodd" d="M57.2029 0.774129C60.0019 0.818558 63.112 0.974061 64.0894 1.12956C65.0669 1.26285 67.1106 1.6405 68.6434 1.95151C70.1762 2.26251 72.8642 2.9956 74.6414 3.5954C76.4186 4.17298 79.0177 5.17264 80.4172 5.79465C81.8167 6.43888 84.2604 7.72733 85.8376 8.66035C87.3926 9.59336 89.7029 11.1262 90.947 12.0592C92.1688 12.9922 94.057 14.5695 95.1456 15.5691C96.2119 16.5466 97.9002 18.2349 98.8776 19.3012C99.8773 20.3897 101.455 22.278 102.388 23.4998C103.321 24.7438 104.853 27.0541 105.786 28.6091C106.719 30.1864 108.008 32.63 108.652 34.0295C109.274 35.4291 110.274 38.0282 110.851 39.8054C111.451 41.5825 112.184 44.2705 112.495 45.8033C112.806 47.3361 113.206 49.802 113.384 51.3126C113.584 52.801 113.739 55.5778 113.739 57.466C113.739 59.3543 113.584 62.1756 113.406 63.7528C113.206 65.3078 112.806 67.8181 112.495 69.3509C112.184 70.8837 111.451 73.5717 110.851 75.3489C110.274 77.126 109.274 79.7252 108.652 81.1247C108.008 82.5242 106.719 84.9678 105.786 86.5451C104.853 88.1001 103.321 90.4104 102.388 91.6545C101.455 92.8763 99.8773 94.7645 98.8776 95.853C97.9002 96.9193 96.2119 98.6077 95.1456 99.5851C94.057 100.585 92.1688 102.162 90.947 103.095C89.7029 104.028 87.3926 105.561 85.8376 106.494C84.2604 107.427 81.8167 108.715 80.4172 109.36C79.0177 109.982 76.4186 110.981 74.6414 111.559C72.8642 112.159 70.1762 112.892 68.6434 113.203C67.1106 113.514 64.9558 113.891 63.8673 114.047C62.7121 114.225 59.7798 114.336 56.8696 114.336C53.9595 114.336 51.0272 114.225 49.872 114.047C48.7613 113.891 46.6287 113.514 45.0958 113.203C43.563 112.892 40.875 112.159 39.0979 111.559C37.3207 110.981 34.7216 109.982 33.322 109.36C31.9225 108.715 29.4789 107.427 27.9017 106.494C26.3466 105.561 24.0363 104.028 22.7923 103.095C21.5705 102.162 19.6822 100.585 18.5937 99.5851C17.5274 98.6077 15.8391 96.9193 14.8616 95.853C13.862 94.7645 12.2847 92.8763 11.3517 91.6545C10.4187 90.4104 8.88588 88.1001 7.95286 86.5451C7.01984 84.9678 5.73139 82.5242 5.08717 81.1247C4.46515 79.7252 3.46549 77.126 2.88791 75.3489C2.28811 73.5717 1.55503 70.8837 1.24402 69.3509C0.933017 67.8181 0.533153 65.3523 0.355435 63.8417C0.155503 62.3533 0 59.5764 0 57.6882C0 55.7999 0.155503 52.9787 0.33322 51.4014C0.533153 49.8464 0.933017 47.3361 1.24402 45.8033C1.55503 44.2705 2.28811 41.5825 2.88791 39.8054C3.46549 38.0282 4.46515 35.4291 5.08717 34.0295C5.73139 32.63 7.01984 30.1864 7.95286 28.6091C8.88588 27.0541 10.4187 24.7438 11.3517 23.4998C12.2847 22.278 13.862 20.3897 14.8616 19.3012C15.8391 18.2349 17.5274 16.5466 18.5937 15.5691C19.6822 14.5695 21.5705 12.9922 22.7923 12.0592C24.0363 11.1262 26.3466 9.59336 27.9017 8.66035C29.4789 7.72733 31.9225 6.43888 33.322 5.79465C34.7216 5.17264 37.3207 4.17298 39.0979 3.5954C40.875 2.9956 43.563 2.26251 45.0958 1.95151C46.6287 1.6405 48.7613 1.28507 49.872 1.15178C50.9605 1.01849 51.9158 0.840773 51.9824 0.796343C52.0268 0.729699 54.3816 0.729699 57.2029 0.774129ZM46.3176 17.3685C45.3402 17.6351 43.8296 18.1016 42.9854 18.3904C42.1191 18.7014 40.4308 19.4123 39.2089 19.9898C37.9871 20.5452 36.1877 21.5004 35.2103 22.1225C34.2328 22.7223 32.6334 23.8108 31.6559 24.5439C30.6785 25.2992 28.8125 26.943 27.524 28.2315C26.2356 29.5199 24.5917 31.386 23.8364 32.3634C23.1033 33.3409 22.0148 34.9403 21.415 35.9178C20.793 36.8952 19.8377 38.6946 19.2601 39.9164C18.7048 41.1382 18.0161 42.7377 17.7495 43.4708C17.5052 44.2039 17.0387 45.6478 16.7499 46.6919C16.4611 47.736 16.0168 49.8686 15.7724 51.4681C15.4836 53.3341 15.3281 55.4889 15.3281 57.5771C15.3281 59.6653 15.4836 61.8201 15.7724 63.6862C16.0168 65.2634 16.4611 67.4182 16.7499 68.4623C17.0387 69.5064 17.5052 70.9504 17.7495 71.6834C18.0161 72.4165 18.7048 74.016 19.2601 75.2378C19.8377 76.4596 20.793 78.259 21.415 79.2364C22.0148 80.2139 23.1033 81.8133 23.8364 82.7908C24.5917 83.7682 26.2356 85.6343 27.524 86.9227C28.8125 88.2112 30.6785 89.8551 31.6559 90.6104C32.6334 91.3435 34.2328 92.432 35.2103 93.0318C36.1877 93.6538 37.9871 94.609 39.2089 95.1866C40.4308 95.742 42.0302 96.4306 42.7633 96.6972C43.4964 96.9416 44.9403 97.4081 45.9844 97.6969C47.0285 97.9856 49.1611 98.4299 50.7606 98.6743C52.6266 98.9631 54.7814 99.1186 56.8696 99.1186C58.9578 99.1186 61.1126 98.9631 62.9787 98.6743C64.5559 98.4299 66.7107 97.9856 67.7548 97.6969C68.7989 97.4081 70.2429 96.9416 70.976 96.6972C71.709 96.4306 73.3085 95.742 74.5303 95.1866C75.7521 94.609 77.5515 93.6538 78.529 93.0318C79.5064 92.432 81.1059 91.3435 82.0833 90.6104C83.0608 89.8551 84.9268 88.2112 86.2152 86.9227C87.5037 85.6343 89.1476 83.7682 89.9029 82.7908C90.636 81.8133 91.7245 80.2139 92.3243 79.2364C92.9463 78.259 93.9015 76.4596 94.4791 75.2378C95.0345 74.016 95.7231 72.4165 95.9897 71.6834C96.2341 70.9504 96.7006 69.5064 96.9894 68.4623C97.2782 67.4182 97.7225 65.2634 97.9668 63.6862C98.2556 61.8201 98.4111 59.6653 98.4111 57.5771C98.4111 55.4889 98.2556 53.3341 97.9668 51.4681C97.7225 49.8686 97.2782 47.736 96.9894 46.6919C96.7006 45.6478 96.2341 44.2039 95.9897 43.4708C95.7231 42.7377 95.0345 41.1382 94.4791 39.9164C93.9015 38.6946 92.9463 36.8952 92.3243 35.9178C91.7245 34.9403 90.636 33.3409 89.9029 32.3634C89.1476 31.386 87.5037 29.5199 86.2152 28.2315C84.9268 26.943 83.0608 25.2992 82.0833 24.5439C81.1059 23.8108 79.5064 22.7223 78.529 22.1225C77.5515 21.5004 75.7521 20.5452 74.5303 19.9676C73.3085 19.4123 71.709 18.7236 70.976 18.457C70.2429 18.2127 68.7989 17.7462 67.7548 17.4574C66.7107 17.1686 64.5559 16.7243 62.9787 16.4799C60.9571 16.1689 59.0467 16.0356 56.6475 16.0578C54.5593 16.0801 52.2045 16.2356 50.6495 16.4799C49.25 16.6799 47.2951 17.0797 46.3176 17.3685ZM57.5361 22.7889C60.6461 22.8555 62.1789 22.9888 63.8673 23.3665C65.0891 23.6108 66.9773 24.144 68.0881 24.5216C69.1766 24.8993 71.087 25.699 72.3088 26.2988C73.5307 26.8986 75.33 27.9427 76.3075 28.5869C77.2849 29.2534 78.8622 30.453 79.8174 31.2971C80.7726 32.1191 82.2388 33.6075 83.1052 34.5849C83.9716 35.5623 85.1934 37.1618 85.8598 38.1393C86.504 39.1167 87.5481 40.9161 88.1479 42.1379C88.7477 43.3597 89.5474 45.248 89.9251 46.3587C90.3027 47.4472 90.8359 49.4021 91.1247 50.6906C91.5468 52.6899 91.6134 53.6673 91.6134 57.5771C91.6134 61.4869 91.5468 62.4643 91.1247 64.4637C90.8359 65.7521 90.3027 67.6848 89.9251 68.7955C89.5474 69.8841 88.7477 71.7945 88.1479 73.0163C87.5481 74.2381 86.504 76.0375 85.8598 77.015C85.1934 77.9924 83.9716 79.5919 83.1052 80.5693C82.2388 81.5468 80.7726 83.0352 79.8174 83.8571C78.8622 84.7013 77.2849 85.9009 76.3075 86.5673C75.33 87.2115 73.5307 88.2556 72.3088 88.8554C71.087 89.4552 69.1766 90.2549 68.0881 90.6326C66.9773 91.0102 65.0446 91.5434 63.7562 91.8322C61.7569 92.2543 60.7794 92.3209 56.8696 92.3209C52.9598 92.3209 51.9824 92.2543 49.9831 91.8322C48.6946 91.5434 46.7397 91.0102 45.6512 90.6326C44.5405 90.2549 42.6522 89.4552 41.4304 88.8554C40.2086 88.2556 38.4092 87.2115 37.4318 86.5673C36.4543 85.9009 34.8771 84.7013 33.9218 83.8571C32.9666 83.0352 31.5004 81.5468 30.6341 80.5693C29.7677 79.5919 28.5459 77.9924 27.8794 77.015C27.2352 76.0375 26.1911 74.2381 25.5913 73.0163C24.9915 71.7945 24.1918 69.8841 23.8142 68.7955C23.4365 67.6848 22.9034 65.7521 22.6146 64.4637C22.1925 62.4643 22.1258 61.4869 22.1258 57.5771C22.1258 53.6673 22.1925 52.6899 22.6146 50.6906C22.9034 49.4021 23.4365 47.4472 23.8142 46.3587C24.1918 45.248 24.9915 43.3597 25.5913 42.1379C26.1911 40.9161 27.2352 39.1167 27.8794 38.1393C28.5459 37.1618 29.7455 35.5846 30.5896 34.6293C31.4116 33.6741 32.9 32.2079 33.8774 31.3416C34.8549 30.4752 36.4543 29.2534 37.4318 28.5869C38.4092 27.9427 40.142 26.943 41.2749 26.3877C42.3856 25.8323 43.9851 25.1214 44.8293 24.8104C45.6512 24.4994 46.9174 24.0773 47.6505 23.8774C48.3836 23.6997 49.9831 23.3443 51.2049 23.1221C53.0043 22.7889 54.2039 22.7223 57.5361 22.7889ZM40.875 43.3597C46.562 43.3597 48.0504 43.4708 48.939 43.6929C49.6276 43.8706 50.6273 44.2483 51.1605 44.5149C51.6714 44.7592 52.6266 45.4923 53.2931 46.1143C53.9373 46.7363 54.7592 47.7582 55.1147 48.358C55.4701 48.98 55.7589 49.5354 55.7589 49.6465C55.7589 49.7353 52.4045 49.802 48.317 49.802H40.875V56.4664H55.7589C55.559 57.2439 55.2035 57.9103 54.8703 58.4657C54.5149 59.0211 53.7596 59.9097 53.1598 60.465C52.5822 60.9982 51.4937 61.709 50.7606 62.0645C50.0275 62.3977 48.7835 62.7754 47.9837 62.8864C47.184 63.0197 45.8067 63.1308 44.9403 63.1308H43.3187V68.7955C56.5808 80.7693 60.4462 84.257 60.4906 84.3014C60.5128 84.3236 61.5125 83.3017 62.6899 82.0133C63.8895 80.7248 64.8447 79.6141 64.8669 79.5252C64.8669 79.4142 62.1567 76.9039 58.8689 73.9049L52.871 68.4623C55.2035 67.2627 56.3809 66.5074 56.9807 65.9965C57.6027 65.4855 58.6246 64.4637 59.2466 63.7084C59.8908 62.9753 60.8238 61.5535 61.3126 60.5761C61.8013 59.5987 62.3122 58.2658 62.4677 57.6215L62.7565 56.4664H72.8642V49.802H62.7565C62.5344 48.8467 62.2456 48.0248 62.0012 47.3584C61.7569 46.6919 61.2015 45.5367 60.7572 44.8037C60.3129 44.0706 59.9575 43.4486 59.9797 43.4263C59.9797 43.3819 62.8676 43.3597 66.422 43.3597H72.8642V36.6953H40.875V43.3597Z" fill="#118B64"/>
</g>
<g filter="url(#filter0_bd_1818_9667)">
<rect x="68.6919" y="39.4785" width="313" height="110" rx="14" fill="white" fill-opacity="0.85" shape-rendering="crispEdges"/>
<g opacity="0.8">
<path d="M103.472 59.5785V73.4785H101.192V59.5785H103.472ZM119.805 62.2785C120.672 62.2785 121.445 62.4585 122.125 62.8185C122.819 63.1785 123.359 63.7118 123.745 64.4185C124.145 65.1252 124.345 65.9785 124.345 66.9785V73.4785H122.085V67.3185C122.085 66.3318 121.839 65.5785 121.345 65.0585C120.852 64.5252 120.179 64.2585 119.325 64.2585C118.472 64.2585 117.792 64.5252 117.285 65.0585C116.792 65.5785 116.545 66.3318 116.545 67.3185V73.4785H114.285V67.3185C114.285 66.3318 114.039 65.5785 113.545 65.0585C113.052 64.5252 112.379 64.2585 111.525 64.2585C110.672 64.2585 109.992 64.5252 109.485 65.0585C108.992 65.5785 108.745 66.3318 108.745 67.3185V73.4785H106.465V62.4585H108.745V63.7185C109.119 63.2652 109.592 62.9118 110.165 62.6585C110.739 62.4052 111.352 62.2785 112.005 62.2785C112.885 62.2785 113.672 62.4652 114.365 62.8385C115.059 63.2118 115.592 63.7518 115.965 64.4585C116.299 63.7918 116.819 63.2652 117.525 62.8785C118.232 62.4785 118.992 62.2785 119.805 62.2785ZM140.587 62.2785C141.453 62.2785 142.227 62.4585 142.907 62.8185C143.6 63.1785 144.14 63.7118 144.527 64.4185C144.927 65.1252 145.127 65.9785 145.127 66.9785V73.4785H142.867V67.3185C142.867 66.3318 142.62 65.5785 142.127 65.0585C141.633 64.5252 140.96 64.2585 140.107 64.2585C139.253 64.2585 138.573 64.5252 138.067 65.0585C137.573 65.5785 137.327 66.3318 137.327 67.3185V73.4785H135.067V67.3185C135.067 66.3318 134.82 65.5785 134.327 65.0585C133.833 64.5252 133.16 64.2585 132.307 64.2585C131.453 64.2585 130.773 64.5252 130.267 65.0585C129.773 65.5785 129.527 66.3318 129.527 67.3185V73.4785H127.247V62.4585H129.527V63.7185C129.9 63.2652 130.373 62.9118 130.947 62.6585C131.52 62.4052 132.133 62.2785 132.787 62.2785C133.667 62.2785 134.453 62.4652 135.147 62.8385C135.84 63.2118 136.373 63.7518 136.747 64.4585C137.08 63.7918 137.6 63.2652 138.307 62.8785C139.013 62.4785 139.773 62.2785 140.587 62.2785ZM158.128 67.6985C158.128 68.1118 158.101 68.4852 158.048 68.8185H149.628C149.694 69.6985 150.021 70.4052 150.608 70.9385C151.194 71.4718 151.914 71.7385 152.768 71.7385C153.994 71.7385 154.861 71.2252 155.368 70.1985H157.828C157.494 71.2118 156.888 72.0452 156.008 72.6985C155.141 73.3385 154.061 73.6585 152.768 73.6585C151.714 73.6585 150.768 73.4252 149.928 72.9585C149.101 72.4785 148.448 71.8118 147.968 70.9585C147.501 70.0918 147.268 69.0918 147.268 67.9585C147.268 66.8252 147.494 65.8318 147.948 64.9785C148.414 64.1118 149.061 63.4452 149.888 62.9785C150.728 62.5118 151.688 62.2785 152.768 62.2785C153.808 62.2785 154.734 62.5052 155.548 62.9585C156.361 63.4118 156.994 64.0518 157.448 64.8785C157.901 65.6918 158.128 66.6318 158.128 67.6985ZM155.748 66.9785C155.734 66.1385 155.434 65.4652 154.848 64.9585C154.261 64.4518 153.534 64.1985 152.668 64.1985C151.881 64.1985 151.208 64.4518 150.648 64.9585C150.088 65.4518 149.754 66.1252 149.648 66.9785H155.748ZM159.612 67.9185C159.612 66.8118 159.838 65.8318 160.292 64.9785C160.758 64.1252 161.385 63.4652 162.172 62.9985C162.972 62.5185 163.858 62.2785 164.832 62.2785C165.552 62.2785 166.258 62.4385 166.952 62.7585C167.658 63.0652 168.218 63.4785 168.632 63.9985V58.6785H170.932V73.4785H168.632V71.8185C168.258 72.3518 167.738 72.7918 167.072 73.1385C166.418 73.4852 165.665 73.6585 164.812 73.6585C163.852 73.6585 162.972 73.4185 162.172 72.9385C161.385 72.4452 160.758 71.7652 160.292 70.8985C159.838 70.0185 159.612 69.0252 159.612 67.9185ZM168.632 67.9585C168.632 67.1985 168.472 66.5385 168.152 65.9785C167.845 65.4185 167.438 64.9918 166.932 64.6985C166.425 64.4052 165.878 64.2585 165.292 64.2585C164.705 64.2585 164.158 64.4052 163.652 64.6985C163.145 64.9785 162.732 65.3985 162.412 65.9585C162.105 66.5052 161.952 67.1585 161.952 67.9185C161.952 68.6785 162.105 69.3452 162.412 69.9185C162.732 70.4918 163.145 70.9318 163.652 71.2385C164.172 71.5318 164.718 71.6785 165.292 71.6785C165.878 71.6785 166.425 71.5318 166.932 71.2385C167.438 70.9452 167.845 70.5185 168.152 69.9585C168.472 69.3852 168.632 68.7185 168.632 67.9585ZM175.086 60.9985C174.673 60.9985 174.326 60.8585 174.046 60.5785C173.766 60.2985 173.626 59.9518 173.626 59.5385C173.626 59.1252 173.766 58.7785 174.046 58.4985C174.326 58.2185 174.673 58.0785 175.086 58.0785C175.486 58.0785 175.826 58.2185 176.106 58.4985C176.386 58.7785 176.526 59.1252 176.526 59.5385C176.526 59.9518 176.386 60.2985 176.106 60.5785C175.826 60.8585 175.486 60.9985 175.086 60.9985ZM176.206 62.4585V73.4785H173.926V62.4585H176.206ZM178.44 67.9185C178.44 66.8118 178.666 65.8318 179.12 64.9785C179.586 64.1252 180.213 63.4652 181 62.9985C181.8 62.5185 182.68 62.2785 183.64 62.2785C184.506 62.2785 185.26 62.4518 185.9 62.7985C186.553 63.1318 187.073 63.5518 187.46 64.0585V62.4585H189.76V73.4785H187.46V71.8385C187.073 72.3585 186.546 72.7918 185.88 73.1385C185.213 73.4852 184.453 73.6585 183.6 73.6585C182.653 73.6585 181.786 73.4185 181 72.9385C180.213 72.4452 179.586 71.7652 179.12 70.8985C178.666 70.0185 178.44 69.0252 178.44 67.9185ZM187.46 67.9585C187.46 67.1985 187.3 66.5385 186.98 65.9785C186.673 65.4185 186.266 64.9918 185.76 64.6985C185.253 64.4052 184.706 64.2585 184.12 64.2585C183.533 64.2585 182.986 64.4052 182.48 64.6985C181.973 64.9785 181.56 65.3985 181.24 65.9585C180.933 66.5052 180.78 67.1585 180.78 67.9185C180.78 68.6785 180.933 69.3452 181.24 69.9185C181.56 70.4918 181.973 70.9318 182.48 71.2385C183 71.5318 183.546 71.6785 184.12 71.6785C184.706 71.6785 185.253 71.5318 185.76 71.2385C186.266 70.9452 186.673 70.5185 186.98 69.9585C187.3 69.3852 187.46 68.7185 187.46 67.9585ZM195.414 64.3185V70.4185C195.414 70.8318 195.508 71.1318 195.694 71.3185C195.894 71.4918 196.228 71.5785 196.694 71.5785H198.094V73.4785H196.294C195.268 73.4785 194.481 73.2385 193.934 72.7585C193.388 72.2785 193.114 71.4985 193.114 70.4185V64.3185H191.814V62.4585H193.114V59.7185H195.414V62.4585H198.094V64.3185H195.414ZM210.296 67.6985C210.296 68.1118 210.269 68.4852 210.216 68.8185H201.796C201.862 69.6985 202.189 70.4052 202.776 70.9385C203.362 71.4718 204.082 71.7385 204.936 71.7385C206.162 71.7385 207.029 71.2252 207.536 70.1985H209.996C209.662 71.2118 209.056 72.0452 208.176 72.6985C207.309 73.3385 206.229 73.6585 204.936 73.6585C203.882 73.6585 202.936 73.4252 202.096 72.9585C201.269 72.4785 200.616 71.8118 200.136 70.9585C199.669 70.0918 199.436 69.0918 199.436 67.9585C199.436 66.8252 199.662 65.8318 200.116 64.9785C200.582 64.1118 201.229 63.4452 202.056 62.9785C202.896 62.5118 203.856 62.2785 204.936 62.2785C205.976 62.2785 206.902 62.5052 207.716 62.9585C208.529 63.4118 209.162 64.0518 209.616 64.8785C210.069 65.6918 210.296 66.6318 210.296 67.6985ZM207.916 66.9785C207.902 66.1385 207.602 65.4652 207.016 64.9585C206.429 64.4518 205.702 64.1985 204.836 64.1985C204.049 64.1985 203.376 64.4518 202.816 64.9585C202.256 65.4518 201.922 66.1252 201.816 66.9785H207.916ZM220.015 64.0785C220.402 63.5718 220.928 63.1452 221.595 62.7985C222.262 62.4518 223.015 62.2785 223.855 62.2785C224.815 62.2785 225.688 62.5185 226.475 62.9985C227.275 63.4652 227.902 64.1252 228.355 64.9785C228.808 65.8318 229.035 66.8118 229.035 67.9185C229.035 69.0252 228.808 70.0185 228.355 70.8985C227.902 71.7652 227.275 72.4452 226.475 72.9385C225.688 73.4185 224.815 73.6585 223.855 73.6585C223.015 73.6585 222.268 73.4918 221.615 73.1585C220.962 72.8118 220.428 72.3852 220.015 71.8785V78.7185H217.735V62.4585H220.015V64.0785ZM226.715 67.9185C226.715 67.1585 226.555 66.5052 226.235 65.9585C225.928 65.3985 225.515 64.9785 224.995 64.6985C224.488 64.4052 223.942 64.2585 223.355 64.2585C222.782 64.2585 222.235 64.4052 221.715 64.6985C221.208 64.9918 220.795 65.4185 220.475 65.9785C220.168 66.5385 220.015 67.1985 220.015 67.9585C220.015 68.7185 220.168 69.3852 220.475 69.9585C220.795 70.5185 221.208 70.9452 221.715 71.2385C222.235 71.5318 222.782 71.6785 223.355 71.6785C223.942 71.6785 224.488 71.5318 224.995 71.2385C225.515 70.9318 225.928 70.4918 226.235 69.9185C226.555 69.3452 226.715 68.6785 226.715 67.9185ZM230.53 67.9185C230.53 66.8118 230.756 65.8318 231.21 64.9785C231.676 64.1252 232.303 63.4652 233.09 62.9985C233.89 62.5185 234.77 62.2785 235.73 62.2785C236.596 62.2785 237.35 62.4518 237.99 62.7985C238.643 63.1318 239.163 63.5518 239.55 64.0585V62.4585H241.85V73.4785H239.55V71.8385C239.163 72.3585 238.636 72.7918 237.97 73.1385C237.303 73.4852 236.543 73.6585 235.69 73.6585C234.743 73.6585 233.876 73.4185 233.09 72.9385C232.303 72.4452 231.676 71.7652 231.21 70.8985C230.756 70.0185 230.53 69.0252 230.53 67.9185ZM239.55 67.9585C239.55 67.1985 239.39 66.5385 239.07 65.9785C238.763 65.4185 238.356 64.9918 237.85 64.6985C237.343 64.4052 236.796 64.2585 236.21 64.2585C235.623 64.2585 235.076 64.4052 234.57 64.6985C234.063 64.9785 233.65 65.3985 233.33 65.9585C233.023 66.5052 232.87 67.1585 232.87 67.9185C232.87 68.6785 233.023 69.3452 233.33 69.9185C233.65 70.4918 234.063 70.9318 234.57 71.2385C235.09 71.5318 235.636 71.6785 236.21 71.6785C236.796 71.6785 237.343 71.5318 237.85 71.2385C238.356 70.9452 238.763 70.5185 239.07 69.9585C239.39 69.3852 239.55 68.7185 239.55 67.9585ZM254.764 62.4585L248.004 78.6585H245.644L247.884 73.2985L243.544 62.4585H246.084L249.184 70.8585L252.404 62.4585H254.764ZM261.265 73.6585C260.225 73.6585 259.285 73.4252 258.445 72.9585C257.605 72.4785 256.945 71.8118 256.465 70.9585C255.985 70.0918 255.745 69.0918 255.745 67.9585C255.745 66.8385 255.992 65.8452 256.485 64.9785C256.978 64.1118 257.652 63.4452 258.505 62.9785C259.358 62.5118 260.312 62.2785 261.365 62.2785C262.418 62.2785 263.372 62.5118 264.225 62.9785C265.078 63.4452 265.752 64.1118 266.245 64.9785C266.738 65.8452 266.985 66.8385 266.985 67.9585C266.985 69.0785 266.732 70.0718 266.225 70.9385C265.718 71.8052 265.025 72.4785 264.145 72.9585C263.278 73.4252 262.318 73.6585 261.265 73.6585ZM261.265 71.6785C261.852 71.6785 262.398 71.5385 262.905 71.2585C263.425 70.9785 263.845 70.5585 264.165 69.9985C264.485 69.4385 264.645 68.7585 264.645 67.9585C264.645 67.1585 264.492 66.4852 264.185 65.9385C263.878 65.3785 263.472 64.9585 262.965 64.6785C262.458 64.3985 261.912 64.2585 261.325 64.2585C260.738 64.2585 260.192 64.3985 259.685 64.6785C259.192 64.9585 258.798 65.3785 258.505 65.9385C258.212 66.4852 258.065 67.1585 258.065 67.9585C258.065 69.1452 258.365 70.0652 258.965 70.7185C259.578 71.3585 260.345 71.6785 261.265 71.6785ZM279.219 62.4585V73.4785H276.939V72.1785C276.579 72.6318 276.105 72.9918 275.519 73.2585C274.945 73.5118 274.332 73.6385 273.679 73.6385C272.812 73.6385 272.032 73.4585 271.339 73.0985C270.659 72.7385 270.119 72.2052 269.719 71.4985C269.332 70.7918 269.139 69.9385 269.139 68.9385V62.4585H271.399V68.5985C271.399 69.5852 271.645 70.3452 272.139 70.8785C272.632 71.3985 273.305 71.6585 274.159 71.6585C275.012 71.6585 275.685 71.3985 276.179 70.8785C276.685 70.3452 276.939 69.5852 276.939 68.5985V62.4585H279.219ZM284.887 64.3185V70.4185C284.887 70.8318 284.98 71.1318 285.167 71.3185C285.367 71.4918 285.7 71.5785 286.167 71.5785H287.567V73.4785H285.767C284.74 73.4785 283.954 73.2385 283.407 72.7585C282.86 72.2785 282.587 71.4985 282.587 70.4185V64.3185H281.287V62.4585H282.587V59.7185H284.887V62.4585H287.567V64.3185H284.887ZM105.972 101.659C104.932 101.659 103.992 101.425 103.152 100.959C102.312 100.479 101.652 99.8118 101.172 98.9585C100.692 98.0918 100.452 97.0918 100.452 95.9585C100.452 94.8385 100.699 93.8452 101.192 92.9785C101.685 92.1118 102.359 91.4452 103.212 90.9785C104.065 90.5118 105.019 90.2785 106.072 90.2785C107.125 90.2785 108.079 90.5118 108.932 90.9785C109.785 91.4452 110.459 92.1118 110.952 92.9785C111.445 93.8452 111.692 94.8385 111.692 95.9585C111.692 97.0785 111.439 98.0718 110.932 98.9385C110.425 99.8052 109.732 100.479 108.852 100.959C107.985 101.425 107.025 101.659 105.972 101.659ZM105.972 99.6785C106.559 99.6785 107.105 99.5385 107.612 99.2585C108.132 98.9785 108.552 98.5585 108.872 97.9985C109.192 97.4385 109.352 96.7585 109.352 95.9585C109.352 95.1585 109.199 94.4852 108.892 93.9385C108.585 93.3785 108.179 92.9585 107.672 92.6785C107.165 92.3985 106.619 92.2585 106.032 92.2585C105.445 92.2585 104.899 92.3985 104.392 92.6785C103.899 92.9585 103.505 93.3785 103.212 93.9385C102.919 94.4852 102.772 95.1585 102.772 95.9585C102.772 97.1452 103.072 98.0652 103.672 98.7185C104.285 99.3585 105.052 99.6785 105.972 99.6785ZM116.226 92.0785C116.612 91.5718 117.139 91.1452 117.806 90.7985C118.472 90.4518 119.226 90.2785 120.066 90.2785C121.026 90.2785 121.899 90.5185 122.686 90.9985C123.486 91.4652 124.112 92.1252 124.566 92.9785C125.019 93.8318 125.246 94.8118 125.246 95.9185C125.246 97.0252 125.019 98.0185 124.566 98.8985C124.112 99.7652 123.486 100.445 122.686 100.939C121.899 101.419 121.026 101.659 120.066 101.659C119.226 101.659 118.479 101.492 117.826 101.159C117.172 100.812 116.639 100.385 116.226 99.8785V106.719H113.946V90.4585H116.226V92.0785ZM122.926 95.9185C122.926 95.1585 122.766 94.5052 122.446 93.9585C122.139 93.3985 121.726 92.9785 121.206 92.6985C120.699 92.4052 120.152 92.2585 119.566 92.2585C118.992 92.2585 118.446 92.4052 117.926 92.6985C117.419 92.9918 117.006 93.4185 116.686 93.9785C116.379 94.5385 116.226 95.1985 116.226 95.9585C116.226 96.7185 116.379 97.3852 116.686 97.9585C117.006 98.5185 117.419 98.9452 117.926 99.2385C118.446 99.5318 118.992 99.6785 119.566 99.6785C120.152 99.6785 120.699 99.5318 121.206 99.2385C121.726 98.9318 122.139 98.4918 122.446 97.9185C122.766 97.3452 122.926 96.6785 122.926 95.9185ZM130.16 92.3185V98.4185C130.16 98.8318 130.254 99.1318 130.44 99.3185C130.64 99.4918 130.974 99.5785 131.44 99.5785H132.84V101.479H131.04C130.014 101.479 129.227 101.239 128.68 100.759C128.134 100.279 127.86 99.4985 127.86 98.4185V92.3185H126.56V90.4585H127.86V87.7185H130.16V90.4585H132.84V92.3185H130.16ZM136.102 88.9985C135.689 88.9985 135.342 88.8585 135.062 88.5785C134.782 88.2985 134.642 87.9518 134.642 87.5385C134.642 87.1252 134.782 86.7785 135.062 86.4985C135.342 86.2185 135.689 86.0785 136.102 86.0785C136.502 86.0785 136.842 86.2185 137.122 86.4985C137.402 86.7785 137.542 87.1252 137.542 87.5385C137.542 87.9518 137.402 88.2985 137.122 88.5785C136.842 88.8585 136.502 88.9985 136.102 88.9985ZM137.222 90.4585V101.479H134.942V90.4585H137.222ZM144.995 101.659C143.955 101.659 143.015 101.425 142.175 100.959C141.335 100.479 140.675 99.8118 140.195 98.9585C139.715 98.0918 139.475 97.0918 139.475 95.9585C139.475 94.8385 139.722 93.8452 140.215 92.9785C140.709 92.1118 141.382 91.4452 142.235 90.9785C143.089 90.5118 144.042 90.2785 145.095 90.2785C146.149 90.2785 147.102 90.5118 147.955 90.9785C148.809 91.4452 149.482 92.1118 149.975 92.9785C150.469 93.8452 150.715 94.8385 150.715 95.9585C150.715 97.0785 150.462 98.0718 149.955 98.9385C149.449 99.8052 148.755 100.479 147.875 100.959C147.009 101.425 146.049 101.659 144.995 101.659ZM144.995 99.6785C145.582 99.6785 146.129 99.5385 146.635 99.2585C147.155 98.9785 147.575 98.5585 147.895 97.9985C148.215 97.4385 148.375 96.7585 148.375 95.9585C148.375 95.1585 148.222 94.4852 147.915 93.9385C147.609 93.3785 147.202 92.9585 146.695 92.6785C146.189 92.3985 145.642 92.2585 145.055 92.2585C144.469 92.2585 143.922 92.3985 143.415 92.6785C142.922 92.9585 142.529 93.3785 142.235 93.9385C141.942 94.4852 141.795 95.1585 141.795 95.9585C141.795 97.1452 142.095 98.0652 142.695 98.7185C143.309 99.3585 144.075 99.6785 144.995 99.6785ZM158.529 90.2785C159.396 90.2785 160.169 90.4585 160.849 90.8185C161.543 91.1785 162.083 91.7118 162.469 92.4185C162.856 93.1252 163.049 93.9785 163.049 94.9785V101.479H160.789V95.3185C160.789 94.3318 160.543 93.5785 160.049 93.0585C159.556 92.5252 158.883 92.2585 158.029 92.2585C157.176 92.2585 156.496 92.5252 155.989 93.0585C155.496 93.5785 155.249 94.3318 155.249 95.3185V101.479H152.969V90.4585H155.249V91.7185C155.623 91.2652 156.096 90.9118 156.669 90.6585C157.256 90.4052 157.876 90.2785 158.529 90.2785ZM173.813 92.3185V98.4185C173.813 98.8318 173.906 99.1318 174.093 99.3185C174.293 99.4918 174.626 99.5785 175.093 99.5785H176.493V101.479H174.693C173.666 101.479 172.879 101.239 172.333 100.759C171.786 100.279 171.513 99.4985 171.513 98.4185V92.3185H170.213V90.4585H171.513V87.7185H173.813V90.4585H176.493V92.3185H173.813ZM183.374 101.659C182.334 101.659 181.394 101.425 180.554 100.959C179.714 100.479 179.054 99.8118 178.574 98.9585C178.094 98.0918 177.854 97.0918 177.854 95.9585C177.854 94.8385 178.101 93.8452 178.594 92.9785C179.088 92.1118 179.761 91.4452 180.614 90.9785C181.468 90.5118 182.421 90.2785 183.474 90.2785C184.528 90.2785 185.481 90.5118 186.334 90.9785C187.188 91.4452 187.861 92.1118 188.354 92.9785C188.848 93.8452 189.094 94.8385 189.094 95.9585C189.094 97.0785 188.841 98.0718 188.334 98.9385C187.828 99.8052 187.134 100.479 186.254 100.959C185.388 101.425 184.428 101.659 183.374 101.659ZM183.374 99.6785C183.961 99.6785 184.508 99.5385 185.014 99.2585C185.534 98.9785 185.954 98.5585 186.274 97.9985C186.594 97.4385 186.754 96.7585 186.754 95.9585C186.754 95.1585 186.601 94.4852 186.294 93.9385C185.988 93.3785 185.581 92.9585 185.074 92.6785C184.568 92.3985 184.021 92.2585 183.434 92.2585C182.848 92.2585 182.301 92.3985 181.794 92.6785C181.301 92.9585 180.908 93.3785 180.614 93.9385C180.321 94.4852 180.174 95.1585 180.174 95.9585C180.174 97.1452 180.474 98.0652 181.074 98.7185C181.688 99.3585 182.454 99.6785 183.374 99.6785ZM206.463 90.4585L199.703 106.659H197.343L199.583 101.299L195.243 90.4585H197.783L200.883 98.8585L204.103 90.4585H206.463ZM212.964 101.659C211.924 101.659 210.984 101.425 210.144 100.959C209.304 100.479 208.644 99.8118 208.164 98.9585C207.684 98.0918 207.444 97.0918 207.444 95.9585C207.444 94.8385 207.691 93.8452 208.184 92.9785C208.677 92.1118 209.351 91.4452 210.204 90.9785C211.057 90.5118 212.011 90.2785 213.064 90.2785C214.117 90.2785 215.071 90.5118 215.924 90.9785C216.777 91.4452 217.451 92.1118 217.944 92.9785C218.437 93.8452 218.684 94.8385 218.684 95.9585C218.684 97.0785 218.431 98.0718 217.924 98.9385C217.417 99.8052 216.724 100.479 215.844 100.959C214.977 101.425 214.017 101.659 212.964 101.659ZM212.964 99.6785C213.551 99.6785 214.097 99.5385 214.604 99.2585C215.124 98.9785 215.544 98.5585 215.864 97.9985C216.184 97.4385 216.344 96.7585 216.344 95.9585C216.344 95.1585 216.191 94.4852 215.884 93.9385C215.577 93.3785 215.171 92.9585 214.664 92.6785C214.157 92.3985 213.611 92.2585 213.024 92.2585C212.437 92.2585 211.891 92.3985 211.384 92.6785C210.891 92.9585 210.497 93.3785 210.204 93.9385C209.911 94.4852 209.764 95.1585 209.764 95.9585C209.764 97.1452 210.064 98.0652 210.664 98.7185C211.277 99.3585 212.044 99.6785 212.964 99.6785ZM230.918 90.4585V101.479H228.638V100.179C228.278 100.632 227.805 100.992 227.218 101.259C226.645 101.512 226.031 101.639 225.378 101.639C224.511 101.639 223.731 101.459 223.038 101.099C222.358 100.739 221.818 100.205 221.418 99.4985C221.031 98.7918 220.838 97.9385 220.838 96.9385V90.4585H223.098V96.5985C223.098 97.5852 223.345 98.3452 223.838 98.8785C224.331 99.3985 225.005 99.6585 225.858 99.6585C226.711 99.6585 227.385 99.3985 227.878 98.8785C228.385 98.3452 228.638 97.5852 228.638 96.5985V90.4585H230.918ZM236.206 92.0585C236.54 91.4985 236.98 91.0652 237.526 90.7585C238.086 90.4385 238.746 90.2785 239.506 90.2785V92.6385H238.926C238.033 92.6385 237.353 92.8652 236.886 93.3185C236.433 93.7718 236.206 94.5585 236.206 95.6785V101.479H233.926V90.4585H236.206V92.0585ZM246.037 95.9185C246.037 94.8118 246.264 93.8318 246.717 92.9785C247.184 92.1252 247.811 91.4652 248.597 90.9985C249.397 90.5185 250.284 90.2785 251.257 90.2785C251.977 90.2785 252.684 90.4385 253.377 90.7585C254.084 91.0652 254.644 91.4785 255.057 91.9985V86.6785H257.357V101.479H255.057V99.8185C254.684 100.352 254.164 100.792 253.497 101.139C252.844 101.485 252.091 101.659 251.237 101.659C250.277 101.659 249.397 101.419 248.597 100.939C247.811 100.445 247.184 99.7652 246.717 98.8985C246.264 98.0185 246.037 97.0252 246.037 95.9185ZM255.057 95.9585C255.057 95.1985 254.897 94.5385 254.577 93.9785C254.271 93.4185 253.864 92.9918 253.357 92.6985C252.851 92.4052 252.304 92.2585 251.717 92.2585C251.131 92.2585 250.584 92.4052 250.077 92.6985C249.571 92.9785 249.157 93.3985 248.837 93.9585C248.531 94.5052 248.377 95.1585 248.377 95.9185C248.377 96.6785 248.531 97.3452 248.837 97.9185C249.157 98.4918 249.571 98.9318 250.077 99.2385C250.597 99.5318 251.144 99.6785 251.717 99.6785C252.304 99.6785 252.851 99.5318 253.357 99.2385C253.864 98.9452 254.271 98.5185 254.577 97.9585C254.897 97.3852 255.057 96.7185 255.057 95.9585ZM270.452 95.6985C270.452 96.1118 270.425 96.4852 270.372 96.8185H261.952C262.019 97.6985 262.345 98.4052 262.932 98.9385C263.519 99.4718 264.239 99.7385 265.092 99.7385C266.319 99.7385 267.185 99.2252 267.692 98.1985H270.152C269.819 99.2118 269.212 100.045 268.332 100.699C267.465 101.339 266.385 101.659 265.092 101.659C264.039 101.659 263.092 101.425 262.252 100.959C261.425 100.479 260.772 99.8118 260.292 98.9585C259.825 98.0918 259.592 97.0918 259.592 95.9585C259.592 94.8252 259.819 93.8318 260.272 92.9785C260.739 92.1118 261.385 91.4452 262.212 90.9785C263.052 90.5118 264.012 90.2785 265.092 90.2785C266.132 90.2785 267.059 90.5052 267.872 90.9585C268.685 91.4118 269.319 92.0518 269.772 92.8785C270.225 93.6918 270.452 94.6318 270.452 95.6985ZM268.072 94.9785C268.059 94.1385 267.759 93.4652 267.172 92.9585C266.585 92.4518 265.859 92.1985 264.992 92.1985C264.205 92.1985 263.532 92.4518 262.972 92.9585C262.412 93.4518 262.079 94.1252 261.972 94.9785H268.072ZM276.696 101.659C275.829 101.659 275.049 101.505 274.356 101.199C273.676 100.879 273.136 100.452 272.736 99.9185C272.336 99.3718 272.122 98.7652 272.096 98.0985H274.456C274.496 98.5652 274.716 98.9585 275.116 99.2785C275.529 99.5852 276.042 99.7385 276.656 99.7385C277.296 99.7385 277.789 99.6185 278.136 99.3785C278.496 99.1252 278.676 98.8052 278.676 98.4185C278.676 98.0052 278.476 97.6985 278.076 97.4985C277.689 97.2985 277.069 97.0785 276.216 96.8385C275.389 96.6118 274.716 96.3918 274.196 96.1785C273.676 95.9652 273.222 95.6385 272.836 95.1985C272.462 94.7585 272.276 94.1785 272.276 93.4585C272.276 92.8718 272.449 92.3385 272.796 91.8585C273.142 91.3652 273.636 90.9785 274.276 90.6985C274.929 90.4185 275.676 90.2785 276.516 90.2785C277.769 90.2785 278.776 90.5985 279.536 91.2385C280.309 91.8652 280.722 92.7252 280.776 93.8185H278.496C278.456 93.3252 278.256 92.9318 277.896 92.6385C277.536 92.3452 277.049 92.1985 276.436 92.1985C275.836 92.1985 275.376 92.3118 275.056 92.5385C274.736 92.7652 274.576 93.0652 274.576 93.4385C274.576 93.7318 274.682 93.9785 274.896 94.1785C275.109 94.3785 275.369 94.5385 275.676 94.6585C275.982 94.7652 276.436 94.9052 277.036 95.0785C277.836 95.2918 278.489 95.5118 278.996 95.7385C279.516 95.9518 279.962 96.2718 280.336 96.6985C280.709 97.1252 280.902 97.6918 280.916 98.3985C280.916 99.0252 280.742 99.5852 280.396 100.079C280.049 100.572 279.556 100.959 278.916 101.239C278.289 101.519 277.549 101.659 276.696 101.659ZM284.539 88.9985C284.126 88.9985 283.779 88.8585 283.499 88.5785C283.219 88.2985 283.079 87.9518 283.079 87.5385C283.079 87.1252 283.219 86.7785 283.499 86.4985C283.779 86.2185 284.126 86.0785 284.539 86.0785C284.939 86.0785 285.279 86.2185 285.559 86.4985C285.839 86.7785 285.979 87.1252 285.979 87.5385C285.979 87.9518 285.839 88.2985 285.559 88.5785C285.279 88.8585 284.939 88.9985 284.539 88.9985ZM285.659 90.4585V101.479H283.379V90.4585H285.659ZM290.933 92.0585C291.266 91.4985 291.706 91.0652 292.253 90.7585C292.813 90.4385 293.473 90.2785 294.233 90.2785V92.6385H293.653C292.759 92.6385 292.079 92.8652 291.613 93.3185C291.159 93.7718 290.933 94.5585 290.933 95.6785V101.479H288.653V90.4585H290.933V92.0585ZM306.429 95.6985C306.429 96.1118 306.402 96.4852 306.349 96.8185H297.929C297.995 97.6985 298.322 98.4052 298.909 98.9385C299.495 99.4718 300.215 99.7385 301.069 99.7385C302.295 99.7385 303.162 99.2252 303.669 98.1985H306.129C305.795 99.2118 305.189 100.045 304.309 100.699C303.442 101.339 302.362 101.659 301.069 101.659C300.015 101.659 299.069 101.425 298.229 100.959C297.402 100.479 296.749 99.8118 296.269 98.9585C295.802 98.0918 295.569 97.0918 295.569 95.9585C295.569 94.8252 295.795 93.8318 296.249 92.9785C296.715 92.1118 297.362 91.4452 298.189 90.9785C299.029 90.5118 299.989 90.2785 301.069 90.2785C302.109 90.2785 303.035 90.5052 303.849 90.9585C304.662 91.4118 305.295 92.0518 305.749 92.8785C306.202 93.6918 306.429 94.6318 306.429 95.6985ZM304.049 94.9785C304.035 94.1385 303.735 93.4652 303.149 92.9585C302.562 92.4518 301.835 92.1985 300.969 92.1985C300.182 92.1985 299.509 92.4518 298.949 92.9585C298.389 93.4518 298.055 94.1252 297.949 94.9785H304.049ZM307.912 95.9185C307.912 94.8118 308.139 93.8318 308.592 92.9785C309.059 92.1252 309.686 91.4652 310.472 90.9985C311.272 90.5185 312.159 90.2785 313.132 90.2785C313.852 90.2785 314.559 90.4385 315.252 90.7585C315.959 91.0652 316.519 91.4785 316.932 91.9985V86.6785H319.232V101.479H316.932V99.8185C316.559 100.352 316.039 100.792 315.372 101.139C314.719 101.485 313.966 101.659 313.112 101.659C312.152 101.659 311.272 101.419 310.472 100.939C309.686 100.445 309.059 99.7652 308.592 98.8985C308.139 98.0185 307.912 97.0252 307.912 95.9185ZM316.932 95.9585C316.932 95.1985 316.772 94.5385 316.452 93.9785C316.146 93.4185 315.739 92.9918 315.232 92.6985C314.726 92.4052 314.179 92.2585 313.592 92.2585C313.006 92.2585 312.459 92.4052 311.952 92.6985C311.446 92.9785 311.032 93.3985 310.712 93.9585C310.406 94.5052 310.252 95.1585 310.252 95.9185C310.252 96.6785 310.406 97.3452 310.712 97.9185C311.032 98.4918 311.446 98.9318 311.952 99.2385C312.472 99.5318 313.019 99.6785 313.592 99.6785C314.179 99.6785 314.726 99.5318 315.232 99.2385C315.739 98.9452 316.146 98.5185 316.452 97.9585C316.772 97.3852 316.932 96.7185 316.932 95.9585ZM103.472 120.099C103.859 119.565 104.385 119.132 105.052 118.799C105.732 118.452 106.485 118.279 107.312 118.279C108.285 118.279 109.165 118.512 109.952 118.979C110.739 119.445 111.359 120.112 111.812 120.979C112.265 121.832 112.492 122.812 112.492 123.919C112.492 125.025 112.265 126.019 111.812 126.899C111.359 127.765 110.732 128.445 109.932 128.939C109.145 129.419 108.272 129.659 107.312 129.659C106.459 129.659 105.699 129.492 105.032 129.159C104.379 128.825 103.859 128.399 103.472 127.879V129.479H101.192V114.679H103.472V120.099ZM110.172 123.919C110.172 123.159 110.012 122.505 109.692 121.959C109.385 121.399 108.972 120.979 108.452 120.699C107.945 120.405 107.399 120.259 106.812 120.259C106.239 120.259 105.692 120.405 105.172 120.699C104.665 120.992 104.252 121.419 103.932 121.979C103.625 122.539 103.472 123.199 103.472 123.959C103.472 124.719 103.625 125.385 103.932 125.959C104.252 126.519 104.665 126.945 105.172 127.239C105.692 127.532 106.239 127.679 106.812 127.679C107.399 127.679 107.945 127.532 108.452 127.239C108.972 126.932 109.385 126.492 109.692 125.919C110.012 125.345 110.172 124.679 110.172 123.919ZM113.987 123.919C113.987 122.812 114.213 121.832 114.667 120.979C115.133 120.125 115.76 119.465 116.547 118.999C117.347 118.519 118.227 118.279 119.187 118.279C120.053 118.279 120.807 118.452 121.447 118.799C122.1 119.132 122.62 119.552 123.007 120.059V118.459H125.307V129.479H123.007V127.839C122.62 128.359 122.093 128.792 121.427 129.139C120.76 129.485 120 129.659 119.147 129.659C118.2 129.659 117.333 129.419 116.547 128.939C115.76 128.445 115.133 127.765 114.667 126.899C114.213 126.019 113.987 125.025 113.987 123.919ZM123.007 123.959C123.007 123.199 122.847 122.539 122.527 121.979C122.22 121.419 121.813 120.992 121.307 120.699C120.8 120.405 120.253 120.259 119.667 120.259C119.08 120.259 118.533 120.405 118.027 120.699C117.52 120.979 117.107 121.399 116.787 121.959C116.48 122.505 116.327 123.159 116.327 123.919C116.327 124.679 116.48 125.345 116.787 125.919C117.107 126.492 117.52 126.932 118.027 127.239C118.547 127.532 119.093 127.679 119.667 127.679C120.253 127.679 120.8 127.532 121.307 127.239C121.813 126.945 122.22 126.519 122.527 125.959C122.847 125.385 123.007 124.719 123.007 123.959ZM133.861 118.279C134.728 118.279 135.501 118.459 136.181 118.819C136.875 119.179 137.415 119.712 137.801 120.419C138.188 121.125 138.381 121.979 138.381 122.979V129.479H136.121V123.319C136.121 122.332 135.875 121.579 135.381 121.059C134.888 120.525 134.215 120.259 133.361 120.259C132.508 120.259 131.828 120.525 131.321 121.059C130.828 121.579 130.581 122.332 130.581 123.319V129.479H128.301V118.459H130.581V119.719C130.955 119.265 131.428 118.912 132.001 118.659C132.588 118.405 133.208 118.279 133.861 118.279ZM145.65 123.979L150.73 129.479H147.65L143.57 124.739V129.479H141.29V114.679H143.57V123.279L147.57 118.459H150.73L145.65 123.979ZM156.799 123.919C156.799 122.812 157.026 121.832 157.479 120.979C157.946 120.125 158.572 119.465 159.359 118.999C160.159 118.519 161.039 118.279 161.999 118.279C162.866 118.279 163.619 118.452 164.259 118.799C164.912 119.132 165.432 119.552 165.819 120.059V118.459H168.119V129.479H165.819V127.839C165.432 128.359 164.906 128.792 164.239 129.139C163.572 129.485 162.812 129.659 161.959 129.659C161.012 129.659 160.146 129.419 159.359 128.939C158.572 128.445 157.946 127.765 157.479 126.899C157.026 126.019 156.799 125.025 156.799 123.919ZM165.819 123.959C165.819 123.199 165.659 122.539 165.339 121.979C165.032 121.419 164.626 120.992 164.119 120.699C163.612 120.405 163.066 120.259 162.479 120.259C161.892 120.259 161.346 120.405 160.839 120.699C160.332 120.979 159.919 121.399 159.599 121.959C159.292 122.505 159.139 123.159 159.139 123.919C159.139 124.679 159.292 125.345 159.599 125.919C159.919 126.492 160.332 126.932 160.839 127.239C161.359 127.532 161.906 127.679 162.479 127.679C163.066 127.679 163.612 127.532 164.119 127.239C164.626 126.945 165.032 126.519 165.339 125.959C165.659 125.385 165.819 124.719 165.819 123.959ZM170.354 123.959C170.354 122.825 170.58 121.832 171.034 120.979C171.5 120.112 172.14 119.445 172.954 118.979C173.767 118.512 174.7 118.279 175.754 118.279C177.087 118.279 178.187 118.599 179.054 119.239C179.934 119.865 180.527 120.765 180.834 121.939H178.374C178.174 121.392 177.854 120.965 177.414 120.659C176.974 120.352 176.42 120.199 175.754 120.199C174.82 120.199 174.074 120.532 173.514 121.199C172.967 121.852 172.694 122.772 172.694 123.959C172.694 125.145 172.967 126.072 173.514 126.739C174.074 127.405 174.82 127.739 175.754 127.739C177.074 127.739 177.947 127.159 178.374 125.999H180.834C180.514 127.119 179.914 128.012 179.034 128.679C178.154 129.332 177.06 129.659 175.754 129.659C174.7 129.659 173.767 129.425 172.954 128.959C172.14 128.479 171.5 127.812 171.034 126.959C170.58 126.092 170.354 125.092 170.354 123.959ZM182.346 123.959C182.346 122.825 182.573 121.832 183.026 120.979C183.493 120.112 184.133 119.445 184.946 118.979C185.759 118.512 186.693 118.279 187.746 118.279C189.079 118.279 190.179 118.599 191.046 119.239C191.926 119.865 192.519 120.765 192.826 121.939H190.366C190.166 121.392 189.846 120.965 189.406 120.659C188.966 120.352 188.413 120.199 187.746 120.199C186.813 120.199 186.066 120.532 185.506 121.199C184.959 121.852 184.686 122.772 184.686 123.959C184.686 125.145 184.959 126.072 185.506 126.739C186.066 127.405 186.813 127.739 187.746 127.739C189.066 127.739 189.939 127.159 190.366 125.999H192.826C192.506 127.119 191.906 128.012 191.026 128.679C190.146 129.332 189.053 129.659 187.746 129.659C186.693 129.659 185.759 129.425 184.946 128.959C184.133 128.479 183.493 127.812 183.026 126.959C182.573 126.092 182.346 125.092 182.346 123.959ZM199.878 129.659C198.838 129.659 197.898 129.425 197.058 128.959C196.218 128.479 195.558 127.812 195.078 126.959C194.598 126.092 194.358 125.092 194.358 123.959C194.358 122.839 194.605 121.845 195.098 120.979C195.591 120.112 196.265 119.445 197.118 118.979C197.971 118.512 198.925 118.279 199.978 118.279C201.031 118.279 201.985 118.512 202.838 118.979C203.691 119.445 204.365 120.112 204.858 120.979C205.351 121.845 205.598 122.839 205.598 123.959C205.598 125.079 205.345 126.072 204.838 126.939C204.331 127.805 203.638 128.479 202.758 128.959C201.891 129.425 200.931 129.659 199.878 129.659ZM199.878 127.679C200.465 127.679 201.011 127.539 201.518 127.259C202.038 126.979 202.458 126.559 202.778 125.999C203.098 125.439 203.258 124.759 203.258 123.959C203.258 123.159 203.105 122.485 202.798 121.939C202.491 121.379 202.085 120.959 201.578 120.679C201.071 120.399 200.525 120.259 199.938 120.259C199.351 120.259 198.805 120.399 198.298 120.679C197.805 120.959 197.411 121.379 197.118 121.939C196.825 122.485 196.678 123.159 196.678 123.959C196.678 125.145 196.978 126.065 197.578 126.719C198.191 127.359 198.958 127.679 199.878 127.679ZM217.832 118.459V129.479H215.552V128.179C215.192 128.632 214.719 128.992 214.132 129.259C213.559 129.512 212.945 129.639 212.292 129.639C211.425 129.639 210.645 129.459 209.952 129.099C209.272 128.739 208.732 128.205 208.332 127.499C207.945 126.792 207.752 125.939 207.752 124.939V118.459H210.012V124.599C210.012 125.585 210.259 126.345 210.752 126.879C211.245 127.399 211.919 127.659 212.772 127.659C213.625 127.659 214.299 127.399 214.792 126.879C215.299 126.345 215.552 125.585 215.552 124.599V118.459H217.832ZM226.4 118.279C227.267 118.279 228.04 118.459 228.72 118.819C229.414 119.179 229.954 119.712 230.34 120.419C230.727 121.125 230.92 121.979 230.92 122.979V129.479H228.66V123.319C228.66 122.332 228.414 121.579 227.92 121.059C227.427 120.525 226.754 120.259 225.9 120.259C225.047 120.259 224.367 120.525 223.86 121.059C223.367 121.579 223.12 122.332 223.12 123.319V129.479H220.84V118.459H223.12V119.719C223.494 119.265 223.967 118.912 224.54 118.659C225.127 118.405 225.747 118.279 226.4 118.279ZM236.489 120.319V126.419C236.489 126.832 236.582 127.132 236.769 127.319C236.969 127.492 237.302 127.579 237.769 127.579H239.169V129.479H237.369C236.342 129.479 235.555 129.239 235.009 128.759C234.462 128.279 234.189 127.499 234.189 126.419V120.319H232.889V118.459H234.189V115.719H236.489V118.459H239.169V120.319H236.489Z" fill="#121212"/>
</g>
</g>
<defs>
<filter id="filter0_bd_1818_9667" x="42.6919" y="13.4785" width="365" height="165" filterUnits="userSpaceOnUse" color-interpolation-filters="sRGB">
<feFlood flood-opacity="0" result="BackgroundImageFix"/>
<feGaussianBlur in="BackgroundImageFix" stdDeviation="13"/>
<feComposite in2="SourceAlpha" operator="in" result="effect1_backgroundBlur_1818_9667"/>
<feColorMatrix in="SourceAlpha" type="matrix" values="0 0 0 0 0 0 0 0 0 0 0 0 0 0 0 0 0 0 127 0" result="hardAlpha"/>
<feOffset dy="8"/>
<feGaussianBlur stdDeviation="10.5"/>
<feComposite in2="hardAlpha" operator="out"/>
<feColorMatrix type="matrix" values="0 0 0 0 0.1125 0 0 0 0 0.1125 0 0 0 0 0.1125 0 0 0 0.06 0"/>
<feBlend mode="normal" in2="effect1_backgroundBlur_1818_9667" result="effect2_dropShadow_1818_9667"/>
<feBlend mode="normal" in="SourceGraphic" in2="effect2_dropShadow_1818_9667" result="shape"/>
</filter>
<clipPath id="clip0_1818_9667">
<rect width="113.739" height="113.739" fill="white" transform="translate(0 0.70752)"/>
</clipPath>
</defs>
</svg>
