<svg width="399" height="210" viewBox="0 0 399 210" fill="none" xmlns="http://www.w3.org/2000/svg">
<g clip-path="url(#clip0_1818_9657)">
<path fill-rule="evenodd" clip-rule="evenodd" d="M63.6228 0.743164H74.8634V1.74283C74.8634 2.29819 75.019 3.52 75.2189 4.47523C75.4188 5.40825 75.8631 6.94106 76.2185 7.85187C76.5518 8.76267 77.3515 10.2733 77.9513 11.1841C78.5511 12.0949 79.7285 13.5166 80.5726 14.3386C81.3946 15.1383 82.7719 16.2712 83.6383 16.8266C84.5046 17.4042 85.993 18.1595 86.9705 18.5371C87.9479 18.9148 89.4807 19.3591 90.3693 19.5368C91.2357 19.7145 92.4131 19.8478 93.9681 19.8478V68.498L92.7019 68.6091C91.991 68.6757 90.5692 68.9201 89.5251 69.1644C88.4811 69.4088 86.7927 70.0086 85.7486 70.5195C84.7046 71.0083 83.1273 71.9857 82.2165 72.6744C81.3057 73.363 80.0395 74.5626 79.4397 75.3179C78.8177 76.051 77.9735 77.2062 77.5959 77.8726C77.196 78.5168 76.6184 79.6498 76.3296 80.3829C76.0186 81.1159 75.6187 82.3155 75.441 83.0486C75.2411 83.7817 75.0189 85.1368 74.7524 87.7137L66.1553 87.7803C60.5127 87.8026 57.536 87.7581 57.536 87.6026C57.536 87.4693 58.2024 86.2475 59.0022 84.8924C59.8241 83.5151 61.3569 80.9827 62.401 79.2721C63.4673 77.5616 64.5336 75.6511 64.8002 75.0513C65.0446 74.4515 65.3778 73.4074 65.5111 72.7854C65.6443 72.1412 65.7554 71.1415 65.7554 70.564C65.7554 69.9642 65.5999 68.9201 65.4222 68.2314C65.2445 67.5205 64.8446 66.4542 64.5336 65.8322C64.2226 65.2324 63.4007 64.0995 62.6676 63.3442C61.9567 62.5667 60.8015 61.6337 60.0685 61.2338C59.3576 60.8561 58.0691 60.3674 57.2028 60.1675C56.1365 59.9009 55.159 59.8343 54.0927 59.9231C53.2485 59.9898 51.9379 60.2563 51.2048 60.5007C50.4717 60.7673 49.5165 61.1894 49.0944 61.4337C48.6723 61.7003 47.4505 62.7666 44.4293 65.7212V19.8478H45.429C45.9843 19.8478 47.2061 19.6923 48.1614 19.4924C49.0944 19.3147 50.6272 18.8481 51.538 18.4705C52.4488 18.1151 53.915 17.3598 54.7591 16.8044C55.6255 16.2268 56.8918 15.2271 57.6248 14.5385C58.3357 13.8498 59.3576 12.6947 59.8685 11.9616C60.3795 11.2285 61.0903 10.0733 61.4236 9.4069C61.7568 8.74046 62.2899 7.47422 62.5787 6.63006C62.8675 5.76369 63.2229 4.09758 63.3562 2.89799L63.6228 0.743164ZM56.8695 0.743164V1.2541C56.8918 1.52068 56.7807 2.34262 56.6474 3.09792C56.5141 3.80879 56.0698 5.11946 55.6699 5.96362C55.2701 6.82999 54.4926 8.07401 53.9594 8.74046C53.404 9.42911 52.2711 10.4288 51.4269 11.0064C50.5828 11.5617 49.2721 12.2504 48.539 12.517C47.8059 12.7835 46.5841 13.0723 44.4293 13.2945V8.25173C44.4293 4.20866 44.496 3.07571 44.7625 2.52034C44.9625 2.1649 45.429 1.60954 45.8288 1.32075C46.5397 0.765379 46.5619 0.765379 56.8695 0.743164ZM63.8672 33.6653C62.8231 34.1541 61.8456 34.8872 60.8682 35.8646C60.0907 36.6421 59.1132 37.9084 58.7356 38.6414C58.3357 39.3745 57.847 40.663 57.6471 41.5294C57.3805 42.6179 57.3138 43.6175 57.4027 44.9726C57.4471 46.0389 57.7137 47.4162 57.9803 48.1938C58.2246 48.9268 58.8022 50.0376 59.2243 50.6818C59.6464 51.326 60.4239 52.2813 60.9793 52.7922C61.5346 53.3031 62.5565 54.0807 63.2674 54.5027C63.956 54.947 65.2001 55.458 65.9776 55.6801C66.8217 55.9023 68.199 56.0578 69.1987 56.0578C70.1761 56.0578 71.5312 55.9245 72.1977 55.7245C72.8863 55.5468 73.9749 55.147 74.6413 54.8137C75.3522 54.4583 76.5296 53.5475 77.4626 52.6367C78.4622 51.637 79.2842 50.5485 79.7507 49.6377C80.1505 48.838 80.6171 47.5273 80.7726 46.7498C80.9503 45.9501 81.0836 44.7949 81.0836 44.1951C81.1058 43.5731 80.8836 42.2847 80.6393 41.3072C80.3949 40.3298 79.8618 38.9747 79.4841 38.3082C79.0842 37.6196 78.2179 36.531 77.5514 35.8424C76.7073 35.0204 75.7076 34.3096 74.4192 33.6876C73.2862 33.11 71.9755 32.6657 71.0869 32.5324C70.3094 32.3991 69.3098 32.3103 68.8655 32.3103C68.4434 32.3325 67.4882 32.4658 66.7551 32.6213C66.022 32.7768 64.7335 33.2433 63.8672 33.6653ZM81.4612 0.765379L86.5484 0.743164C91.5245 0.743164 91.6578 0.765379 92.4131 1.27632C92.8574 1.56511 93.3683 2.1649 93.5904 2.6092C93.9237 3.29785 93.9681 4.1198 93.9681 13.2056H93.1461C92.6796 13.2056 91.7022 13.0501 90.9691 12.8502C90.236 12.6725 89.0364 12.2282 88.3033 11.8505C87.5703 11.4951 86.4373 10.7176 85.7486 10.1178C85.0822 9.54018 84.1714 8.51831 83.7271 7.85187C83.2828 7.18543 82.6386 5.96362 82.3276 5.14167C82.0166 4.31973 81.6834 2.98685 81.6167 2.20933L81.4612 0.765379ZM36.6986 96.7329C50.6494 96.7329 51.1159 96.7329 51.9823 97.1772C52.6043 97.4882 53.0042 97.888 53.3152 98.5545C53.7151 99.4209 53.7595 99.9762 53.7595 105.619C53.7595 111.15 53.7151 111.794 53.3374 112.616C53.093 113.105 52.5599 113.705 51.3159 114.505H22.1035L21.326 113.971C20.9039 113.683 20.3708 113.083 20.1486 112.639C19.8154 111.906 19.771 111.128 19.8154 105.33C19.8821 99.0654 19.9043 98.7988 20.3708 98.1324C20.6374 97.7548 21.1927 97.2882 21.5926 97.0883C22.2368 96.7773 23.9251 96.7329 36.6986 96.7329ZM37.5872 42.6623C37.676 42.7734 37.7871 50.1264 37.876 75.1402L38.4313 75.74C38.7423 76.051 39.2533 76.4731 39.5865 76.6286C39.9419 76.8063 40.6084 76.9618 41.0971 76.9618C41.5858 76.9618 42.2078 76.8285 42.4744 76.6952C42.7632 76.5619 45.1402 74.3182 47.7615 71.7191C51.6713 67.8538 52.6932 66.943 53.4263 66.743C53.915 66.632 54.6036 66.5209 54.9813 66.5209C55.3367 66.5209 56.0476 66.6986 56.5363 66.9208C57.025 67.1651 57.6471 67.5872 57.9136 67.876C58.1802 68.1648 58.5579 68.7646 58.7356 69.2311C58.9355 69.6976 59.091 70.3862 59.091 70.7861C59.091 71.186 58.8689 71.9635 58.6245 72.5189C58.3801 73.052 55.8477 77.2284 47.8726 90.0685H26.2133L26.2799 75.8955C26.3465 62.2112 26.3688 61.6559 26.8575 59.5233C27.1241 58.3014 27.7461 56.3021 28.2348 55.0803C28.7235 53.8585 29.5232 52.1924 29.9898 51.4149C30.4563 50.6152 31.2782 49.3711 31.8336 48.6381C32.3889 47.905 33.8551 46.2167 35.1214 44.8838C36.3876 43.5731 37.4761 42.5734 37.5872 42.6623ZM93.6793 75.2068C93.9014 75.1846 93.9681 76.3176 93.9681 80.2274C93.9903 85.1146 93.9681 85.3145 93.4794 86.0476C93.1906 86.4475 92.6796 87.0028 92.3464 87.2694C91.7466 87.6915 91.3912 87.7359 81.5279 87.847V87.0695C81.5279 86.6252 81.6389 85.7588 81.7722 85.1146C81.9055 84.4704 82.372 83.2041 82.7941 82.2933C83.3717 81.0715 84.0159 80.1829 85.1711 79.0278C86.1263 78.0725 87.2592 77.2062 88.0812 76.7841C88.8143 76.4286 89.8139 75.9844 90.3027 75.8288C90.7914 75.6733 91.68 75.4734 92.302 75.3846C92.9018 75.2957 93.546 75.2068 93.6793 75.2068ZM69.5319 39.0635C70.0873 39.1079 70.9314 39.3301 71.4202 39.5745C71.9089 39.8188 72.6864 40.4408 73.1307 40.9962C73.5972 41.5294 74.0859 42.4179 74.2192 42.9511C74.3747 43.5065 74.4192 44.395 74.3303 44.906C74.2636 45.4169 74.0193 46.2167 73.7749 46.6832C73.5528 47.1497 73.0196 47.8161 72.6198 48.1715C72.1977 48.5048 71.5312 48.9491 71.1314 49.1046C70.7537 49.2601 69.8429 49.3934 69.1321 49.3934C68.399 49.3934 67.4882 49.2379 66.9772 48.9935C66.4885 48.7713 65.7332 48.1938 65.3111 47.705C64.889 47.2163 64.4003 46.4166 64.267 45.9279C64.1115 45.4614 63.9782 44.6394 63.9782 44.1285C63.9782 43.6175 64.1337 42.8178 64.3337 42.3513C64.5336 41.8848 64.889 41.2628 65.1334 40.9518C65.3778 40.663 65.8887 40.1965 66.2886 39.9299C66.6662 39.6633 67.3327 39.3523 67.7547 39.219C68.1768 39.0857 68.9766 39.0191 69.5319 39.0635Z" fill="#118B64"/>
</g>
<g filter="url(#filter0_bd_1818_9657)">
<rect x="64.8154" y="39.4785" width="313" height="110" rx="14" fill="white" fill-opacity="0.85" shape-rendering="crispEdges"/>
<g opacity="0.8">
<path d="M101.895 87.6185C100.962 87.6185 100.122 87.4585 99.3754 87.1385C98.6288 86.8052 98.0421 86.3385 97.6154 85.7385C97.1888 85.1385 96.9754 84.4385 96.9754 83.6385H99.4154C99.4688 84.2385 99.7021 84.7318 100.115 85.1185C100.542 85.5052 101.135 85.6985 101.895 85.6985C102.682 85.6985 103.295 85.5118 103.735 85.1385C104.175 84.7518 104.395 84.2585 104.395 83.6585C104.395 83.1918 104.255 82.8118 103.975 82.5185C103.709 82.2252 103.369 81.9985 102.955 81.8385C102.555 81.6785 101.995 81.5052 101.275 81.3185C100.369 81.0785 99.6288 80.8385 99.0554 80.5985C98.4954 80.3452 98.0154 79.9585 97.6154 79.4385C97.2154 78.9185 97.0154 78.2252 97.0154 77.3585C97.0154 76.5585 97.2154 75.8585 97.6154 75.2585C98.0154 74.6585 98.5754 74.1985 99.2954 73.8785C100.015 73.5585 100.849 73.3985 101.795 73.3985C103.142 73.3985 104.242 73.7385 105.095 74.4185C105.962 75.0852 106.442 76.0052 106.535 77.1785H104.015C103.975 76.6718 103.735 76.2385 103.295 75.8785C102.855 75.5185 102.275 75.3385 101.555 75.3385C100.902 75.3385 100.369 75.5052 99.9554 75.8385C99.5421 76.1718 99.3354 76.6518 99.3354 77.2785C99.3354 77.7052 99.4621 78.0585 99.7154 78.3385C99.9821 78.6052 100.315 78.8185 100.715 78.9785C101.115 79.1385 101.662 79.3118 102.355 79.4985C103.275 79.7518 104.022 80.0052 104.595 80.2585C105.182 80.5118 105.675 80.9052 106.075 81.4385C106.489 81.9585 106.695 82.6585 106.695 83.5385C106.695 84.2452 106.502 84.9118 106.115 85.5385C105.742 86.1652 105.189 86.6718 104.455 87.0585C103.735 87.4318 102.882 87.6185 101.895 87.6185ZM119.486 81.6985C119.486 82.1118 119.459 82.4852 119.406 82.8185H110.986C111.052 83.6985 111.379 84.4052 111.966 84.9385C112.552 85.4718 113.272 85.7385 114.126 85.7385C115.352 85.7385 116.219 85.2252 116.726 84.1985H119.186C118.852 85.2118 118.246 86.0452 117.366 86.6985C116.499 87.3385 115.419 87.6585 114.126 87.6585C113.072 87.6585 112.126 87.4252 111.286 86.9585C110.459 86.4785 109.806 85.8118 109.326 84.9585C108.859 84.0918 108.626 83.0918 108.626 81.9585C108.626 80.8252 108.852 79.8318 109.306 78.9785C109.772 78.1118 110.419 77.4452 111.246 76.9785C112.086 76.5118 113.046 76.2785 114.126 76.2785C115.166 76.2785 116.092 76.5052 116.906 76.9585C117.719 77.4118 118.352 78.0518 118.806 78.8785C119.259 79.6918 119.486 80.6318 119.486 81.6985ZM117.106 80.9785C117.092 80.1385 116.792 79.4652 116.206 78.9585C115.619 78.4518 114.892 78.1985 114.026 78.1985C113.239 78.1985 112.566 78.4518 112.006 78.9585C111.446 79.4518 111.112 80.1252 111.006 80.9785H117.106ZM120.969 81.9185C120.969 80.8118 121.196 79.8318 121.649 78.9785C122.116 78.1252 122.743 77.4652 123.529 76.9985C124.329 76.5185 125.209 76.2785 126.169 76.2785C127.036 76.2785 127.789 76.4518 128.429 76.7985C129.083 77.1318 129.603 77.5518 129.989 78.0585V76.4585H132.289V87.4785H129.989V85.8385C129.603 86.3585 129.076 86.7918 128.409 87.1385C127.743 87.4852 126.983 87.6585 126.129 87.6585C125.183 87.6585 124.316 87.4185 123.529 86.9385C122.743 86.4452 122.116 85.7652 121.649 84.8985C121.196 84.0185 120.969 83.0252 120.969 81.9185ZM129.989 81.9585C129.989 81.1985 129.829 80.5385 129.509 79.9785C129.203 79.4185 128.796 78.9918 128.289 78.6985C127.783 78.4052 127.236 78.2585 126.649 78.2585C126.063 78.2585 125.516 78.4052 125.009 78.6985C124.503 78.9785 124.089 79.3985 123.769 79.9585C123.463 80.5052 123.309 81.1585 123.309 81.9185C123.309 82.6785 123.463 83.3452 123.769 83.9185C124.089 84.4918 124.503 84.9318 125.009 85.2385C125.529 85.5318 126.076 85.6785 126.649 85.6785C127.236 85.6785 127.783 85.5318 128.289 85.2385C128.796 84.9452 129.203 84.5185 129.509 83.9585C129.829 83.3852 129.989 82.7185 129.989 81.9585ZM148.624 76.2785C149.491 76.2785 150.264 76.4585 150.944 76.8185C151.638 77.1785 152.178 77.7118 152.564 78.4185C152.964 79.1252 153.164 79.9785 153.164 80.9785V87.4785H150.904V81.3185C150.904 80.3318 150.658 79.5785 150.164 79.0585C149.671 78.5252 148.998 78.2585 148.144 78.2585C147.291 78.2585 146.611 78.5252 146.104 79.0585C145.611 79.5785 145.364 80.3318 145.364 81.3185V87.4785H143.104V81.3185C143.104 80.3318 142.858 79.5785 142.364 79.0585C141.871 78.5252 141.198 78.2585 140.344 78.2585C139.491 78.2585 138.811 78.5252 138.304 79.0585C137.811 79.5785 137.564 80.3318 137.564 81.3185V87.4785H135.284V76.4585H137.564V77.7185C137.938 77.2652 138.411 76.9118 138.984 76.6585C139.558 76.4052 140.171 76.2785 140.824 76.2785C141.704 76.2785 142.491 76.4652 143.184 76.8385C143.878 77.2118 144.411 77.7518 144.784 78.4585C145.118 77.7918 145.638 77.2652 146.344 76.8785C147.051 76.4785 147.811 76.2785 148.624 76.2785ZM158.345 72.6785V87.4785H156.065V72.6785H158.345ZM171.439 81.6985C171.439 82.1118 171.412 82.4852 171.359 82.8185H162.939C163.006 83.6985 163.332 84.4052 163.919 84.9385C164.506 85.4718 165.226 85.7385 166.079 85.7385C167.306 85.7385 168.172 85.2252 168.679 84.1985H171.139C170.806 85.2118 170.199 86.0452 169.319 86.6985C168.452 87.3385 167.372 87.6585 166.079 87.6585C165.026 87.6585 164.079 87.4252 163.239 86.9585C162.412 86.4785 161.759 85.8118 161.279 84.9585C160.812 84.0918 160.579 83.0918 160.579 81.9585C160.579 80.8252 160.806 79.8318 161.259 78.9785C161.726 78.1118 162.372 77.4452 163.199 76.9785C164.039 76.5118 164.999 76.2785 166.079 76.2785C167.119 76.2785 168.046 76.5052 168.859 76.9585C169.672 77.4118 170.306 78.0518 170.759 78.8785C171.212 79.6918 171.439 80.6318 171.439 81.6985ZM169.059 80.9785C169.046 80.1385 168.746 79.4652 168.159 78.9585C167.572 78.4518 166.846 78.1985 165.979 78.1985C165.192 78.1985 164.519 78.4518 163.959 78.9585C163.399 79.4518 163.066 80.1252 162.959 80.9785H169.059ZM177.683 87.6585C176.816 87.6585 176.036 87.5052 175.343 87.1985C174.663 86.8785 174.123 86.4518 173.723 85.9185C173.323 85.3718 173.109 84.7652 173.083 84.0985H175.443C175.483 84.5652 175.703 84.9585 176.103 85.2785C176.516 85.5852 177.029 85.7385 177.643 85.7385C178.283 85.7385 178.776 85.6185 179.123 85.3785C179.483 85.1252 179.663 84.8052 179.663 84.4185C179.663 84.0052 179.463 83.6985 179.063 83.4985C178.676 83.2985 178.056 83.0785 177.203 82.8385C176.376 82.6118 175.703 82.3918 175.183 82.1785C174.663 81.9652 174.209 81.6385 173.823 81.1985C173.449 80.7585 173.263 80.1785 173.263 79.4585C173.263 78.8718 173.436 78.3385 173.783 77.8585C174.129 77.3652 174.623 76.9785 175.263 76.6985C175.916 76.4185 176.663 76.2785 177.503 76.2785C178.756 76.2785 179.763 76.5985 180.523 77.2385C181.296 77.8652 181.709 78.7252 181.763 79.8185H179.483C179.443 79.3252 179.243 78.9318 178.883 78.6385C178.523 78.3452 178.036 78.1985 177.423 78.1985C176.823 78.1985 176.363 78.3118 176.043 78.5385C175.723 78.7652 175.563 79.0652 175.563 79.4385C175.563 79.7318 175.669 79.9785 175.883 80.1785C176.096 80.3785 176.356 80.5385 176.663 80.6585C176.969 80.7652 177.423 80.9052 178.023 81.0785C178.823 81.2918 179.476 81.5118 179.983 81.7385C180.503 81.9518 180.949 82.2718 181.323 82.6985C181.696 83.1252 181.889 83.6918 181.903 84.3985C181.903 85.0252 181.729 85.5852 181.383 86.0785C181.036 86.5718 180.543 86.9585 179.903 87.2385C179.276 87.5185 178.536 87.6585 177.683 87.6585ZM188.366 87.6585C187.5 87.6585 186.72 87.5052 186.026 87.1985C185.346 86.8785 184.806 86.4518 184.406 85.9185C184.006 85.3718 183.793 84.7652 183.766 84.0985H186.126C186.166 84.5652 186.386 84.9585 186.786 85.2785C187.2 85.5852 187.713 85.7385 188.326 85.7385C188.966 85.7385 189.46 85.6185 189.806 85.3785C190.166 85.1252 190.346 84.8052 190.346 84.4185C190.346 84.0052 190.146 83.6985 189.746 83.4985C189.36 83.2985 188.74 83.0785 187.886 82.8385C187.06 82.6118 186.386 82.3918 185.866 82.1785C185.346 81.9652 184.893 81.6385 184.506 81.1985C184.133 80.7585 183.946 80.1785 183.946 79.4585C183.946 78.8718 184.12 78.3385 184.466 77.8585C184.813 77.3652 185.306 76.9785 185.946 76.6985C186.6 76.4185 187.346 76.2785 188.186 76.2785C189.44 76.2785 190.446 76.5985 191.206 77.2385C191.98 77.8652 192.393 78.7252 192.446 79.8185H190.166C190.126 79.3252 189.926 78.9318 189.566 78.6385C189.206 78.3452 188.72 78.1985 188.106 78.1985C187.506 78.1985 187.046 78.3118 186.726 78.5385C186.406 78.7652 186.246 79.0652 186.246 79.4385C186.246 79.7318 186.353 79.9785 186.566 80.1785C186.78 80.3785 187.04 80.5385 187.346 80.6585C187.653 80.7652 188.106 80.9052 188.706 81.0785C189.506 81.2918 190.16 81.5118 190.666 81.7385C191.186 81.9518 191.633 82.2718 192.006 82.6985C192.38 83.1252 192.573 83.6918 192.586 84.3985C192.586 85.0252 192.413 85.5852 192.066 86.0785C191.72 86.5718 191.226 86.9585 190.586 87.2385C189.96 87.5185 189.22 87.6585 188.366 87.6585ZM209.965 77.7185C209.965 78.4252 209.798 79.0918 209.465 79.7185C209.132 80.3452 208.598 80.8585 207.865 81.2585C207.132 81.6452 206.192 81.8385 205.045 81.8385H202.525V87.4785H200.245V73.5785H205.045C206.112 73.5785 207.012 73.7652 207.745 74.1385C208.492 74.4985 209.045 74.9918 209.405 75.6185C209.778 76.2452 209.965 76.9452 209.965 77.7185ZM205.045 79.9785C205.912 79.9785 206.558 79.7852 206.985 79.3985C207.412 78.9985 207.625 78.4385 207.625 77.7185C207.625 76.1985 206.765 75.4385 205.045 75.4385H202.525V79.9785H205.045ZM214.42 72.6785V87.4785H212.14V72.6785H214.42ZM227.513 81.6985C227.513 82.1118 227.486 82.4852 227.433 82.8185H219.013C219.08 83.6985 219.406 84.4052 219.993 84.9385C220.58 85.4718 221.3 85.7385 222.153 85.7385C223.38 85.7385 224.246 85.2252 224.753 84.1985H227.213C226.88 85.2118 226.273 86.0452 225.393 86.6985C224.526 87.3385 223.446 87.6585 222.153 87.6585C221.1 87.6585 220.153 87.4252 219.313 86.9585C218.486 86.4785 217.833 85.8118 217.353 84.9585C216.886 84.0918 216.653 83.0918 216.653 81.9585C216.653 80.8252 216.88 79.8318 217.333 78.9785C217.8 78.1118 218.446 77.4452 219.273 76.9785C220.113 76.5118 221.073 76.2785 222.153 76.2785C223.193 76.2785 224.12 76.5052 224.933 76.9585C225.746 77.4118 226.38 78.0518 226.833 78.8785C227.286 79.6918 227.513 80.6318 227.513 81.6985ZM225.133 80.9785C225.12 80.1385 224.82 79.4652 224.233 78.9585C223.646 78.4518 222.92 78.1985 222.053 78.1985C221.266 78.1985 220.593 78.4518 220.033 78.9585C219.473 79.4518 219.14 80.1252 219.033 80.9785H225.133ZM228.997 81.9185C228.997 80.8118 229.224 79.8318 229.677 78.9785C230.144 78.1252 230.77 77.4652 231.557 76.9985C232.357 76.5185 233.244 76.2785 234.217 76.2785C234.937 76.2785 235.644 76.4385 236.337 76.7585C237.044 77.0652 237.604 77.4785 238.017 77.9985V72.6785H240.317V87.4785H238.017V85.8185C237.644 86.3518 237.124 86.7918 236.457 87.1385C235.804 87.4852 235.05 87.6585 234.197 87.6585C233.237 87.6585 232.357 87.4185 231.557 86.9385C230.77 86.4452 230.144 85.7652 229.677 84.8985C229.224 84.0185 228.997 83.0252 228.997 81.9185ZM238.017 81.9585C238.017 81.1985 237.857 80.5385 237.537 79.9785C237.23 79.4185 236.824 78.9918 236.317 78.6985C235.81 78.4052 235.264 78.2585 234.677 78.2585C234.09 78.2585 233.544 78.4052 233.037 78.6985C232.53 78.9785 232.117 79.3985 231.797 79.9585C231.49 80.5052 231.337 81.1585 231.337 81.9185C231.337 82.6785 231.49 83.3452 231.797 83.9185C232.117 84.4918 232.53 84.9318 233.037 85.2385C233.557 85.5318 234.104 85.6785 234.677 85.6785C235.264 85.6785 235.81 85.5318 236.317 85.2385C236.824 84.9452 237.23 84.5185 237.537 83.9585C237.857 83.3852 238.017 82.7185 238.017 81.9585ZM247.752 76.2785C248.605 76.2785 249.358 76.4518 250.012 76.7985C250.678 77.1318 251.198 77.5518 251.572 78.0585V76.4585H253.872V87.6585C253.872 88.6718 253.658 89.5718 253.232 90.3585C252.805 91.1585 252.185 91.7852 251.372 92.2385C250.572 92.6918 249.612 92.9185 248.492 92.9185C246.998 92.9185 245.758 92.5652 244.772 91.8585C243.785 91.1652 243.225 90.2185 243.092 89.0185H245.352C245.525 89.5918 245.892 90.0518 246.452 90.3985C247.025 90.7585 247.705 90.9385 248.492 90.9385C249.412 90.9385 250.152 90.6585 250.712 90.0985C251.285 89.5385 251.572 88.7252 251.572 87.6585V85.8185C251.185 86.3385 250.658 86.7785 249.992 87.1385C249.338 87.4852 248.592 87.6585 247.752 87.6585C246.792 87.6585 245.912 87.4185 245.112 86.9385C244.325 86.4452 243.698 85.7652 243.232 84.8985C242.778 84.0185 242.552 83.0252 242.552 81.9185C242.552 80.8118 242.778 79.8318 243.232 78.9785C243.698 78.1252 244.325 77.4652 245.112 76.9985C245.912 76.5185 246.792 76.2785 247.752 76.2785ZM251.572 81.9585C251.572 81.1985 251.412 80.5385 251.092 79.9785C250.785 79.4185 250.378 78.9918 249.872 78.6985C249.365 78.4052 248.818 78.2585 248.232 78.2585C247.645 78.2585 247.098 78.4052 246.592 78.6985C246.085 78.9785 245.672 79.3985 245.352 79.9585C245.045 80.5052 244.892 81.1585 244.892 81.9185C244.892 82.6785 245.045 83.3452 245.352 83.9185C245.672 84.4918 246.085 84.9318 246.592 85.2385C247.112 85.5318 247.658 85.6785 248.232 85.6785C248.818 85.6785 249.365 85.5318 249.872 85.2385C250.378 84.9452 250.785 84.5185 251.092 83.9585C251.412 83.3852 251.572 82.7185 251.572 81.9585ZM266.966 81.6985C266.966 82.1118 266.94 82.4852 266.886 82.8185H258.466C258.533 83.6985 258.86 84.4052 259.446 84.9385C260.033 85.4718 260.753 85.7385 261.606 85.7385C262.833 85.7385 263.7 85.2252 264.206 84.1985H266.666C266.333 85.2118 265.726 86.0452 264.846 86.6985C263.98 87.3385 262.9 87.6585 261.606 87.6585C260.553 87.6585 259.606 87.4252 258.766 86.9585C257.94 86.4785 257.286 85.8118 256.806 84.9585C256.34 84.0918 256.106 83.0918 256.106 81.9585C256.106 80.8252 256.333 79.8318 256.786 78.9785C257.253 78.1118 257.9 77.4452 258.726 76.9785C259.566 76.5118 260.526 76.2785 261.606 76.2785C262.646 76.2785 263.573 76.5052 264.386 76.9585C265.2 77.4118 265.833 78.0518 266.286 78.8785C266.74 79.6918 266.966 80.6318 266.966 81.6985ZM264.586 80.9785C264.573 80.1385 264.273 79.4652 263.686 78.9585C263.1 78.4518 262.373 78.1985 261.506 78.1985C260.72 78.1985 260.046 78.4518 259.486 78.9585C258.926 79.4518 258.593 80.1252 258.486 80.9785H264.586ZM273.645 81.9185C273.645 80.8118 273.872 79.8318 274.325 78.9785C274.792 78.1252 275.419 77.4652 276.205 76.9985C277.005 76.5185 277.885 76.2785 278.845 76.2785C279.712 76.2785 280.465 76.4518 281.105 76.7985C281.759 77.1318 282.279 77.5518 282.665 78.0585V76.4585H284.965V87.4785H282.665V85.8385C282.279 86.3585 281.752 86.7918 281.085 87.1385C280.419 87.4852 279.659 87.6585 278.805 87.6585C277.859 87.6585 276.992 87.4185 276.205 86.9385C275.419 86.4452 274.792 85.7652 274.325 84.8985C273.872 84.0185 273.645 83.0252 273.645 81.9185ZM282.665 81.9585C282.665 81.1985 282.505 80.5385 282.185 79.9785C281.879 79.4185 281.472 78.9918 280.965 78.6985C280.459 78.4052 279.912 78.2585 279.325 78.2585C278.739 78.2585 278.192 78.4052 277.685 78.6985C277.179 78.9785 276.765 79.3985 276.445 79.9585C276.139 80.5052 275.985 81.1585 275.985 81.9185C275.985 82.6785 276.139 83.3452 276.445 83.9185C276.765 84.4918 277.179 84.9318 277.685 85.2385C278.205 85.5318 278.752 85.6785 279.325 85.6785C279.912 85.6785 280.459 85.5318 280.965 85.2385C281.472 84.9452 281.879 84.5185 282.185 83.9585C282.505 83.3852 282.665 82.7185 282.665 81.9585ZM293.52 76.2785C294.387 76.2785 295.16 76.4585 295.84 76.8185C296.533 77.1785 297.073 77.7118 297.46 78.4185C297.847 79.1252 298.04 79.9785 298.04 80.9785V87.4785H295.78V81.3185C295.78 80.3318 295.533 79.5785 295.04 79.0585C294.547 78.5252 293.873 78.2585 293.02 78.2585C292.167 78.2585 291.487 78.5252 290.98 79.0585C290.487 79.5785 290.24 80.3318 290.24 81.3185V87.4785H287.96V76.4585H290.24V77.7185C290.613 77.2652 291.087 76.9118 291.66 76.6585C292.247 76.4052 292.867 76.2785 293.52 76.2785ZM300.188 81.9185C300.188 80.8118 300.415 79.8318 300.868 78.9785C301.335 78.1252 301.962 77.4652 302.748 76.9985C303.548 76.5185 304.435 76.2785 305.408 76.2785C306.128 76.2785 306.835 76.4385 307.528 76.7585C308.235 77.0652 308.795 77.4785 309.208 77.9985V72.6785H311.508V87.4785H309.208V85.8185C308.835 86.3518 308.315 86.7918 307.648 87.1385C306.995 87.4852 306.242 87.6585 305.388 87.6585C304.428 87.6585 303.548 87.4185 302.748 86.9385C301.962 86.4452 301.335 85.7652 300.868 84.8985C300.415 84.0185 300.188 83.0252 300.188 81.9185ZM309.208 81.9585C309.208 81.1985 309.048 80.5385 308.728 79.9785C308.422 79.4185 308.015 78.9918 307.508 78.6985C307.002 78.4052 306.455 78.2585 305.868 78.2585C305.282 78.2585 304.735 78.4052 304.228 78.6985C303.722 78.9785 303.308 79.3985 302.988 79.9585C302.682 80.5052 302.528 81.1585 302.528 81.9185C302.528 82.6785 302.682 83.3452 302.988 83.9185C303.308 84.4918 303.722 84.9318 304.228 85.2385C304.748 85.5318 305.295 85.6785 305.868 85.6785C306.455 85.6785 307.002 85.5318 307.508 85.2385C308.015 84.9452 308.422 84.5185 308.728 83.9585C309.048 83.3852 309.208 82.7185 309.208 81.9585ZM107.035 105.719C107.035 106.425 106.869 107.092 106.535 107.719C106.202 108.345 105.669 108.859 104.935 109.259C104.202 109.645 103.262 109.839 102.115 109.839H99.5954V115.479H97.3154V101.579H102.115C103.182 101.579 104.082 101.765 104.815 102.139C105.562 102.499 106.115 102.992 106.475 103.619C106.849 104.245 107.035 104.945 107.035 105.719ZM102.115 107.979C102.982 107.979 103.629 107.785 104.055 107.399C104.482 106.999 104.695 106.439 104.695 105.719C104.695 104.199 103.835 103.439 102.115 103.439H99.5954V107.979H102.115ZM111.49 100.679V115.479H109.21V100.679H111.49ZM124.583 109.699C124.583 110.112 124.557 110.485 124.503 110.819H116.083C116.15 111.699 116.477 112.405 117.063 112.939C117.65 113.472 118.37 113.739 119.223 113.739C120.45 113.739 121.317 113.225 121.823 112.199H124.283C123.95 113.212 123.343 114.045 122.463 114.699C121.597 115.339 120.517 115.659 119.223 115.659C118.17 115.659 117.223 115.425 116.383 114.959C115.557 114.479 114.903 113.812 114.423 112.959C113.957 112.092 113.723 111.092 113.723 109.959C113.723 108.825 113.95 107.832 114.403 106.979C114.87 106.112 115.517 105.445 116.343 104.979C117.183 104.512 118.143 104.279 119.223 104.279C120.263 104.279 121.19 104.505 122.003 104.959C122.817 105.412 123.45 106.052 123.903 106.879C124.357 107.692 124.583 108.632 124.583 109.699ZM122.203 108.979C122.19 108.139 121.89 107.465 121.303 106.959C120.717 106.452 119.99 106.199 119.123 106.199C118.337 106.199 117.663 106.452 117.103 106.959C116.543 107.452 116.21 108.125 116.103 108.979H122.203ZM126.067 109.919C126.067 108.812 126.294 107.832 126.747 106.979C127.214 106.125 127.84 105.465 128.627 104.999C129.427 104.519 130.314 104.279 131.287 104.279C132.007 104.279 132.714 104.439 133.407 104.759C134.114 105.065 134.674 105.479 135.087 105.999V100.679H137.387V115.479H135.087V113.819C134.714 114.352 134.194 114.792 133.527 115.139C132.874 115.485 132.12 115.659 131.267 115.659C130.307 115.659 129.427 115.419 128.627 114.939C127.84 114.445 127.214 113.765 126.747 112.899C126.294 112.019 126.067 111.025 126.067 109.919ZM135.087 109.959C135.087 109.199 134.927 108.539 134.607 107.979C134.3 107.419 133.894 106.992 133.387 106.699C132.88 106.405 132.334 106.259 131.747 106.259C131.16 106.259 130.614 106.405 130.107 106.699C129.6 106.979 129.187 107.399 128.867 107.959C128.56 108.505 128.407 109.159 128.407 109.919C128.407 110.679 128.56 111.345 128.867 111.919C129.187 112.492 129.6 112.932 130.107 113.239C130.627 113.532 131.174 113.679 131.747 113.679C132.334 113.679 132.88 113.532 133.387 113.239C133.894 112.945 134.3 112.519 134.607 111.959C134.927 111.385 135.087 110.719 135.087 109.959ZM144.822 104.279C145.675 104.279 146.429 104.452 147.082 104.799C147.749 105.132 148.269 105.552 148.642 106.059V104.459H150.942V115.659C150.942 116.672 150.729 117.572 150.302 118.359C149.875 119.159 149.255 119.785 148.442 120.239C147.642 120.692 146.682 120.919 145.562 120.919C144.069 120.919 142.829 120.565 141.842 119.859C140.855 119.165 140.295 118.219 140.162 117.019H142.422C142.595 117.592 142.962 118.052 143.522 118.399C144.095 118.759 144.775 118.939 145.562 118.939C146.482 118.939 147.222 118.659 147.782 118.099C148.355 117.539 148.642 116.725 148.642 115.659V113.819C148.255 114.339 147.729 114.779 147.062 115.139C146.409 115.485 145.662 115.659 144.822 115.659C143.862 115.659 142.982 115.419 142.182 114.939C141.395 114.445 140.769 113.765 140.302 112.899C139.849 112.019 139.622 111.025 139.622 109.919C139.622 108.812 139.849 107.832 140.302 106.979C140.769 106.125 141.395 105.465 142.182 104.999C142.982 104.519 143.862 104.279 144.822 104.279ZM148.642 109.959C148.642 109.199 148.482 108.539 148.162 107.979C147.855 107.419 147.449 106.992 146.942 106.699C146.435 106.405 145.889 106.259 145.302 106.259C144.715 106.259 144.169 106.405 143.662 106.699C143.155 106.979 142.742 107.399 142.422 107.959C142.115 108.505 141.962 109.159 141.962 109.919C141.962 110.679 142.115 111.345 142.422 111.919C142.742 112.492 143.155 112.932 143.662 113.239C144.182 113.532 144.729 113.679 145.302 113.679C145.889 113.679 146.435 113.532 146.942 113.239C147.449 112.945 147.855 112.519 148.162 111.959C148.482 111.385 148.642 110.719 148.642 109.959ZM164.037 109.699C164.037 110.112 164.01 110.485 163.957 110.819H155.537C155.603 111.699 155.93 112.405 156.517 112.939C157.103 113.472 157.823 113.739 158.677 113.739C159.903 113.739 160.77 113.225 161.277 112.199H163.737C163.403 113.212 162.797 114.045 161.917 114.699C161.05 115.339 159.97 115.659 158.677 115.659C157.623 115.659 156.677 115.425 155.837 114.959C155.01 114.479 154.357 113.812 153.877 112.959C153.41 112.092 153.177 111.092 153.177 109.959C153.177 108.825 153.403 107.832 153.857 106.979C154.323 106.112 154.97 105.445 155.797 104.979C156.637 104.512 157.597 104.279 158.677 104.279C159.717 104.279 160.643 104.505 161.457 104.959C162.27 105.412 162.903 106.052 163.357 106.879C163.81 107.692 164.037 108.632 164.037 109.699ZM161.657 108.979C161.643 108.139 161.343 107.465 160.757 106.959C160.17 106.452 159.443 106.199 158.577 106.199C157.79 106.199 157.117 106.452 156.557 106.959C155.997 107.452 155.663 108.125 155.557 108.979H161.657ZM173.756 106.059C174.089 105.499 174.529 105.065 175.076 104.759C175.636 104.439 176.296 104.279 177.056 104.279V106.639H176.476C175.582 106.639 174.902 106.865 174.436 107.319C173.982 107.772 173.756 108.559 173.756 109.679V115.479H171.476V104.459H173.756V106.059ZM189.251 109.699C189.251 110.112 189.225 110.485 189.171 110.819H180.751C180.818 111.699 181.145 112.405 181.731 112.939C182.318 113.472 183.038 113.739 183.891 113.739C185.118 113.739 185.985 113.225 186.491 112.199H188.951C188.618 113.212 188.011 114.045 187.131 114.699C186.265 115.339 185.185 115.659 183.891 115.659C182.838 115.659 181.891 115.425 181.051 114.959C180.225 114.479 179.571 113.812 179.091 112.959C178.625 112.092 178.391 111.092 178.391 109.959C178.391 108.825 178.618 107.832 179.071 106.979C179.538 106.112 180.185 105.445 181.011 104.979C181.851 104.512 182.811 104.279 183.891 104.279C184.931 104.279 185.858 104.505 186.671 104.959C187.485 105.412 188.118 106.052 188.571 106.879C189.025 107.692 189.251 108.632 189.251 109.699ZM186.871 108.979C186.858 108.139 186.558 107.465 185.971 106.959C185.385 106.452 184.658 106.199 183.791 106.199C183.005 106.199 182.331 106.452 181.771 106.959C181.211 107.452 180.878 108.125 180.771 108.979H186.871ZM193.775 100.679V115.479H191.495V100.679H193.775ZM206.869 109.699C206.869 110.112 206.842 110.485 206.789 110.819H198.369C198.435 111.699 198.762 112.405 199.349 112.939C199.935 113.472 200.655 113.739 201.509 113.739C202.735 113.739 203.602 113.225 204.109 112.199H206.569C206.235 113.212 205.629 114.045 204.749 114.699C203.882 115.339 202.802 115.659 201.509 115.659C200.455 115.659 199.509 115.425 198.669 114.959C197.842 114.479 197.189 113.812 196.709 112.959C196.242 112.092 196.009 111.092 196.009 109.959C196.009 108.825 196.235 107.832 196.689 106.979C197.155 106.112 197.802 105.445 198.629 104.979C199.469 104.512 200.429 104.279 201.509 104.279C202.549 104.279 203.475 104.505 204.289 104.959C205.102 105.412 205.735 106.052 206.189 106.879C206.642 107.692 206.869 108.632 206.869 109.699ZM204.489 108.979C204.475 108.139 204.175 107.465 203.589 106.959C203.002 106.452 202.275 106.199 201.409 106.199C200.622 106.199 199.949 106.452 199.389 106.959C198.829 107.452 198.495 108.125 198.389 108.979H204.489ZM208.352 109.919C208.352 108.812 208.579 107.832 209.032 106.979C209.499 106.125 210.126 105.465 210.912 104.999C211.712 104.519 212.592 104.279 213.552 104.279C214.419 104.279 215.172 104.452 215.812 104.799C216.466 105.132 216.986 105.552 217.372 106.059V104.459H219.672V115.479H217.372V113.839C216.986 114.359 216.459 114.792 215.792 115.139C215.126 115.485 214.366 115.659 213.512 115.659C212.566 115.659 211.699 115.419 210.912 114.939C210.126 114.445 209.499 113.765 209.032 112.899C208.579 112.019 208.352 111.025 208.352 109.919ZM217.372 109.959C217.372 109.199 217.212 108.539 216.892 107.979C216.586 107.419 216.179 106.992 215.672 106.699C215.166 106.405 214.619 106.259 214.032 106.259C213.446 106.259 212.899 106.405 212.392 106.699C211.886 106.979 211.472 107.399 211.152 107.959C210.846 108.505 210.692 109.159 210.692 109.919C210.692 110.679 210.846 111.345 211.152 111.919C211.472 112.492 211.886 112.932 212.392 113.239C212.912 113.532 213.459 113.679 214.032 113.679C214.619 113.679 215.166 113.532 215.672 113.239C216.179 112.945 216.586 112.519 216.892 111.959C217.212 111.385 217.372 110.719 217.372 109.959ZM226.667 115.659C225.8 115.659 225.02 115.505 224.327 115.199C223.647 114.879 223.107 114.452 222.707 113.919C222.307 113.372 222.094 112.765 222.067 112.099H224.427C224.467 112.565 224.687 112.959 225.087 113.279C225.5 113.585 226.014 113.739 226.627 113.739C227.267 113.739 227.76 113.619 228.107 113.379C228.467 113.125 228.647 112.805 228.647 112.419C228.647 112.005 228.447 111.699 228.047 111.499C227.66 111.299 227.04 111.079 226.187 110.839C225.36 110.612 224.687 110.392 224.167 110.179C223.647 109.965 223.194 109.639 222.807 109.199C222.434 108.759 222.247 108.179 222.247 107.459C222.247 106.872 222.42 106.339 222.767 105.859C223.114 105.365 223.607 104.979 224.247 104.699C224.9 104.419 225.647 104.279 226.487 104.279C227.74 104.279 228.747 104.599 229.507 105.239C230.28 105.865 230.694 106.725 230.747 107.819H228.467C228.427 107.325 228.227 106.932 227.867 106.639C227.507 106.345 227.02 106.199 226.407 106.199C225.807 106.199 225.347 106.312 225.027 106.539C224.707 106.765 224.547 107.065 224.547 107.439C224.547 107.732 224.654 107.979 224.867 108.179C225.08 108.379 225.34 108.539 225.647 108.659C225.954 108.765 226.407 108.905 227.007 109.079C227.807 109.292 228.46 109.512 228.967 109.739C229.487 109.952 229.934 110.272 230.307 110.699C230.68 111.125 230.874 111.692 230.887 112.399C230.887 113.025 230.714 113.585 230.367 114.079C230.02 114.572 229.527 114.959 228.887 115.239C228.26 115.519 227.52 115.659 226.667 115.659ZM243.451 109.699C243.451 110.112 243.424 110.485 243.371 110.819H234.951C235.017 111.699 235.344 112.405 235.931 112.939C236.517 113.472 237.237 113.739 238.091 113.739C239.317 113.739 240.184 113.225 240.691 112.199H243.151C242.817 113.212 242.211 114.045 241.331 114.699C240.464 115.339 239.384 115.659 238.091 115.659C237.037 115.659 236.091 115.425 235.251 114.959C234.424 114.479 233.771 113.812 233.291 112.959C232.824 112.092 232.591 111.092 232.591 109.959C232.591 108.825 232.817 107.832 233.271 106.979C233.737 106.112 234.384 105.445 235.211 104.979C236.051 104.512 237.011 104.279 238.091 104.279C239.131 104.279 240.057 104.505 240.871 104.959C241.684 105.412 242.317 106.052 242.771 106.879C243.224 107.692 243.451 108.632 243.451 109.699ZM241.071 108.979C241.057 108.139 240.757 107.465 240.171 106.959C239.584 106.452 238.857 106.199 237.991 106.199C237.204 106.199 236.531 106.452 235.971 106.959C235.411 107.452 235.077 108.125 234.971 108.979H241.071Z" fill="#121212"/>
</g>
</g>
<defs>
<filter id="filter0_bd_1818_9657" x="38.8154" y="13.4785" width="365" height="165" filterUnits="userSpaceOnUse" color-interpolation-filters="sRGB">
<feFlood flood-opacity="0" result="BackgroundImageFix"/>
<feGaussianBlur in="BackgroundImageFix" stdDeviation="13"/>
<feComposite in2="SourceAlpha" operator="in" result="effect1_backgroundBlur_1818_9657"/>
<feColorMatrix in="SourceAlpha" type="matrix" values="0 0 0 0 0 0 0 0 0 0 0 0 0 0 0 0 0 0 127 0" result="hardAlpha"/>
<feOffset dy="8"/>
<feGaussianBlur stdDeviation="10.5"/>
<feComposite in2="hardAlpha" operator="out"/>
<feColorMatrix type="matrix" values="0 0 0 0 0.1125 0 0 0 0 0.1125 0 0 0 0 0.1125 0 0 0 0.06 0"/>
<feBlend mode="normal" in2="effect1_backgroundBlur_1818_9657" result="effect2_dropShadow_1818_9657"/>
<feBlend mode="normal" in="SourceGraphic" in2="effect2_dropShadow_1818_9657" result="shape"/>
</filter>
<clipPath id="clip0_1818_9657">
<rect width="113.739" height="113.739" fill="white" transform="translate(0 0.743164)"/>
</clipPath>
</defs>
</svg>
