<svg width="385" height="210" viewBox="0 0 385 210" fill="none" xmlns="http://www.w3.org/2000/svg">
<g clip-path="url(#clip0_1818_9647)">
<path d="M19.3268 1.40961C18.2382 1.78725 16.7943 2.52034 15.9057 3.12014C15.0615 3.69772 13.8619 4.78624 13.2399 5.51932C12.6401 6.25241 11.8182 7.54086 11.3961 8.40724C10.9962 9.27361 10.5075 10.6509 10.3298 11.5173C10.1521 12.3837 9.99658 13.6277 9.99658 14.2941C9.99658 14.9606 10.1521 16.2268 10.3298 17.071C10.5075 17.9151 11.0185 19.3813 11.4627 20.2921C12.0625 21.5139 12.7512 22.4247 13.973 23.6465C15.1948 24.8683 16.1056 25.557 17.3274 26.1568C18.2382 26.6011 19.7044 27.112 20.5486 27.2897C21.3927 27.4674 22.659 27.6229 23.3254 27.6229C23.9918 27.6229 25.2581 27.4674 26.1022 27.2897C26.9464 27.112 28.4126 26.6011 29.3234 26.1568C30.5452 25.557 31.456 24.8683 32.6778 23.6465C33.8996 22.4247 34.5883 21.5139 35.188 20.2921C35.6323 19.3813 36.1433 17.9151 36.321 17.071C36.4987 16.2268 36.6542 14.9606 36.6542 14.2941C36.6542 13.6277 36.4987 12.3837 36.321 11.5173C36.1433 10.6509 35.6546 9.27361 35.2547 8.40724C34.8326 7.54086 34.0107 6.25241 33.4109 5.51932C32.7889 4.78624 31.5893 3.71993 30.7451 3.12014C29.8343 2.49813 28.4348 1.78725 27.2796 1.40961C25.6579 0.854238 24.9915 0.743164 23.281 0.743164C21.5927 0.765379 20.8596 0.876452 19.3268 1.40961ZM86.4151 1.40961C85.3266 1.78725 83.8827 2.52034 82.9941 3.12014C82.1499 3.69772 80.9503 4.78624 80.3283 5.51932C79.7285 6.25241 78.9066 7.54086 78.4845 8.40724C78.0846 9.27361 77.5959 10.6509 77.4182 11.5173C77.2405 12.3837 77.085 13.6277 77.085 14.2941C77.085 14.9606 77.2405 16.2268 77.4182 17.071C77.5959 17.9151 78.1068 19.3813 78.5511 20.2921C79.1509 21.5139 79.8396 22.4247 81.0614 23.6465C82.2832 24.8683 83.194 25.557 84.4158 26.1568C85.3266 26.6011 86.7706 27.112 87.637 27.2897C88.5033 27.4674 89.7474 27.6229 90.4138 27.6229C91.0802 27.6229 92.3243 27.4674 93.1906 27.2897C94.057 27.112 95.501 26.6011 96.4118 26.1568C97.6336 25.557 98.5444 24.8683 99.7662 23.6465C100.988 22.4247 101.677 21.5139 102.276 20.2921C102.721 19.3813 103.232 17.9151 103.409 17.071C103.587 16.2268 103.743 14.9606 103.743 14.2941C103.743 13.6277 103.587 12.3837 103.409 11.5173C103.232 10.6509 102.743 9.27361 102.343 8.40724C101.921 7.54086 101.099 6.25241 100.499 5.51932C99.8773 4.78624 98.6777 3.71993 97.8335 3.12014C96.9227 2.49813 95.5232 1.78725 94.368 1.40961C92.7463 0.854238 92.0799 0.743164 90.3694 0.743164C88.681 0.765379 87.948 0.876452 86.4151 1.40961ZM6.42001 28.4449C5.62028 29.2891 4.55398 30.5997 3.99861 31.3994C3.46546 32.1992 2.6213 33.6876 2.15479 34.7317C1.66607 35.7757 1.02184 37.5751 0.710836 38.7303C0.199898 40.6408 0.133254 41.3516 0.0443948 46.1722C-0.044464 51.2594 -0.0222493 51.5482 0.422045 52.459C0.73305 53.1032 1.15513 53.5253 1.77714 53.8363C2.64351 54.2806 3.11002 54.2806 23.3254 54.2806C43.5408 54.2806 44.0073 54.2806 44.8737 53.8363C45.4735 53.5253 45.9178 53.1032 46.2288 52.459C46.6953 51.5482 46.6953 51.2816 46.6064 46.1722C46.4953 41.4183 46.4287 40.6185 45.94 38.7303C45.629 37.5751 44.9847 35.7757 44.496 34.7317C44.0295 33.6876 43.1853 32.1992 42.6522 31.3994C42.0968 30.5997 41.0305 29.2891 40.2308 28.4449L38.809 26.9565C36.2766 29.3557 34.9215 30.4664 34.1662 30.9774C33.3887 31.4661 32.2113 32.1325 31.5448 32.4435C30.8784 32.7545 29.8787 33.1544 29.3234 33.3321C28.768 33.4876 27.524 33.7764 26.5465 33.9541C25.5691 34.1319 24.1251 34.2874 23.3254 34.2874C22.5257 34.2874 21.0817 34.1319 20.1043 33.9541C19.1268 33.7764 17.8828 33.4876 17.3274 33.3321C16.7721 33.1544 15.7724 32.7545 15.106 32.4435C14.4395 32.1325 13.2621 31.4661 12.5068 30.9774C11.7293 30.4664 10.3742 29.3557 9.46343 28.5115L7.84175 26.9565L6.42001 28.4449ZM73.5084 28.4449C72.7087 29.2668 71.6424 30.5997 71.087 31.3772C70.5538 32.177 69.7097 33.6876 69.2432 34.7094C68.7545 35.7535 68.1102 37.5529 67.7992 38.7081C67.3105 40.5963 67.2439 41.3961 67.1328 46.15C67.0439 51.2594 67.0439 51.526 67.5104 52.4368C67.8214 53.081 68.2657 53.5253 68.8655 53.8141C69.7319 54.2584 70.1984 54.2584 90.4138 54.2584C110.629 54.2584 111.096 54.2584 111.962 53.8141C112.584 53.5253 113.006 53.081 113.317 52.4368C113.761 51.526 113.784 51.2372 113.695 46.15C113.606 41.3294 113.539 40.6408 113.028 38.7081C112.717 37.5529 112.073 35.7535 111.584 34.7094C111.118 33.6876 110.274 32.177 109.741 31.3772C109.185 30.5997 108.119 29.2668 107.319 28.4449L105.897 26.9343C103.365 29.3557 102.01 30.4664 101.255 30.9552C100.477 31.4439 99.2997 32.1103 98.6332 32.4213C97.9668 32.7545 96.9671 33.1322 96.4118 33.3099C95.8564 33.4876 94.6124 33.7764 93.6349 33.9541C92.6575 34.1319 91.2135 34.2651 90.4138 34.2651C89.6141 34.2651 88.1701 34.1319 87.1927 33.9541C86.2152 33.7764 84.9712 33.4876 84.4158 33.3099C83.8605 33.1322 82.8608 32.7545 82.1944 32.4213C81.5279 32.1103 80.3505 31.4439 79.5952 30.9552C78.8177 30.4664 77.4626 29.3557 76.5518 28.4893L74.9301 26.9343L73.5084 28.4449ZM39.7421 88.4246C38.9423 89.2465 37.876 90.5794 37.3207 91.3791C36.7875 92.1789 35.9433 93.6673 35.4768 94.7113C34.9881 95.7554 34.3439 97.5548 34.0329 98.71C33.5442 100.598 33.4775 101.376 33.3664 106.263C33.2776 111.372 33.2998 111.75 33.6997 112.594C33.944 113.083 34.5216 113.705 34.9659 113.971L35.7656 114.482H77.9736C79.2398 113.705 79.7952 113.083 80.0395 112.594C80.4394 111.75 80.4616 111.372 80.3727 106.263C80.2617 101.376 80.195 100.598 79.7063 98.71C79.3953 97.5548 78.7511 95.7554 78.2623 94.7113C77.7958 93.6673 76.9517 92.1789 76.4185 91.3791C75.8632 90.5794 74.7969 89.2465 74.0193 88.4246L72.5976 86.9362C70.3095 89.091 68.9988 90.1573 68.1991 90.7127C67.3994 91.2458 66.0665 92.0011 65.2001 92.401C64.3559 92.8009 62.8009 93.3562 61.7568 93.6228C60.224 94.0449 59.3132 94.1338 56.8696 94.1338C54.4482 94.1338 53.5152 94.0449 51.9824 93.6228C50.9383 93.3562 49.4055 92.8009 48.5391 92.401C47.6949 92.0011 46.3398 91.2458 45.5401 90.7127C44.7404 90.1573 43.4297 89.091 42.63 88.3357L41.1638 86.9362L39.7421 88.4246ZM50.7606 28.2005C49.672 28.3782 48.739 28.5782 48.7168 28.6226C48.6724 28.667 49.0722 29.4001 49.5832 30.2221C50.0719 31.044 50.7828 32.3769 51.116 33.1544L51.738 34.5984H62.2456C63.1786 32.3769 63.7784 31.0662 64.2004 30.2665C64.6225 29.489 65.0002 28.7781 65.0446 28.7115C65.0668 28.667 64.0449 28.4227 62.7565 28.2227C61.1126 27.934 59.3132 27.8451 56.603 27.8451C54.3593 27.8673 51.9157 28.0228 50.7606 28.2005ZM20.0821 62.2112C20.0154 62.8999 19.9932 64.5882 20.0821 65.9211C20.1487 67.2762 20.3708 69.1644 20.5263 70.1419C20.7041 71.1193 21.0151 72.5855 21.215 73.363C21.4149 74.1627 21.8814 75.6733 22.2369 76.6952C22.6145 77.7393 23.4587 79.6498 24.1029 80.916C24.7694 82.2045 25.8579 84.0483 26.5465 85.0257C27.213 86.0032 28.3459 87.4694 29.0568 88.2913C29.7454 89.1132 30.3675 89.8019 30.4341 89.8019C30.5007 89.8241 31.0339 89.091 31.6337 88.2024C32.2335 87.3139 33.1443 86.1143 33.633 85.5145L34.5438 84.4481C33.7663 83.5151 33.0777 82.6043 32.5001 81.8046C31.9225 81.0271 31.0117 79.6276 30.4785 78.6945C29.9676 77.7837 29.1457 76.0288 28.6791 74.807C28.1904 73.5852 27.5684 71.5414 27.3018 70.253C26.902 68.4091 26.7909 67.1873 26.7909 64.4327L26.7687 60.9228H20.2376L20.0821 62.2112ZM53.9817 61.3004C53.182 61.4559 51.8491 61.9447 50.9827 62.3445C50.1385 62.7444 48.8279 63.5885 48.0948 64.1883C47.3617 64.7881 46.2732 66.0322 45.6512 66.943C45.0069 67.876 44.2961 69.3422 43.9851 70.2752C43.5408 71.6081 43.4297 72.3856 43.4297 74.2738C43.4297 76.1399 43.5408 76.9174 43.9851 78.2725C44.2961 79.2055 45.0069 80.6494 45.6512 81.5825C46.2732 82.4933 47.3617 83.7373 48.0948 84.3593C48.8279 84.9591 50.1385 85.781 50.9827 86.1809C51.8491 86.603 53.2486 87.0695 54.0928 87.2694C54.9591 87.4471 56.2032 87.5804 56.8696 87.5804C57.536 87.5804 58.8023 87.4471 59.6464 87.2694C60.5128 87.0695 61.9123 86.603 62.7565 86.1809C63.6229 85.781 64.9113 84.9591 65.6444 84.3593C66.3775 83.7373 67.4882 82.4933 68.1102 81.5825C68.7322 80.6494 69.4653 79.2055 69.7763 78.2725C70.1984 76.9174 70.3095 76.1399 70.3095 74.2738C70.3095 72.3856 70.1984 71.6081 69.7763 70.2752C69.4653 69.3422 68.7322 67.876 68.1102 66.943C67.4882 66.0322 66.3775 64.7881 65.6444 64.1883C64.9113 63.5885 63.6229 62.7666 62.7565 62.3445C61.9123 61.9447 60.5128 61.4559 59.6464 61.2782C58.8023 61.1005 57.4916 60.945 56.7585 60.9672C56.0254 60.9672 54.7814 61.1227 53.9817 61.3004ZM86.9483 64.4327C86.9483 67.2095 86.8372 68.4091 86.4374 70.2752C86.1708 71.5636 85.5488 73.6074 85.0823 74.8292C84.5935 76.051 83.7716 77.806 83.2607 78.7168C82.7275 79.6276 81.8389 81.0271 81.2613 81.8268C80.6615 82.6265 79.9729 83.5373 79.7063 83.8706L79.1954 84.4704C80.6171 86.1143 81.5057 87.3361 82.1055 88.2246C82.7053 89.1132 83.2384 89.8241 83.3051 89.8241C83.3717 89.8019 83.9937 89.1132 84.7046 88.3135C85.3933 87.4916 86.5262 86.0254 87.2149 85.0479C87.8813 84.0705 88.9698 82.2267 89.6363 80.9382C90.2805 79.6498 91.1247 77.7615 91.5023 76.7174C91.88 75.6733 92.3465 74.185 92.5464 73.3852C92.7463 72.5855 93.0351 71.1415 93.2128 70.1641C93.3906 69.1867 93.5905 67.2762 93.6571 65.9433C93.746 64.5882 93.746 62.9221 93.6794 62.2112L93.5238 60.945H86.9705L86.9483 64.4327Z" fill="#118B64"/>
</g>
<g filter="url(#filter0_bd_1818_9647)">
<rect x="50.9365" y="39.459" width="313" height="109" rx="14" fill="white" fill-opacity="0.85" shape-rendering="crispEdges"/>
<g opacity="0.8">
<path d="M90.6565 100.959L87.4565 95.399H85.7165V100.959H83.4365V87.059H88.2365C89.3032 87.059 90.2032 87.2456 90.9365 87.619C91.6832 87.9923 92.2365 88.4923 92.5965 89.119C92.9699 89.7457 93.1565 90.4457 93.1565 91.219C93.1565 92.1257 92.8899 92.9523 92.3565 93.699C91.8365 94.4323 91.0299 94.9323 89.9365 95.199L93.3765 100.959H90.6565ZM85.7165 93.579H88.2365C89.0899 93.579 89.7299 93.3657 90.1565 92.939C90.5965 92.5123 90.8165 91.939 90.8165 91.219C90.8165 90.499 90.6032 89.939 90.1765 89.539C89.7499 89.1257 89.1032 88.919 88.2365 88.919H85.7165V93.579ZM100.853 101.139C99.8132 101.139 98.8732 100.906 98.0332 100.439C97.1932 99.959 96.5332 99.2923 96.0532 98.439C95.5732 97.5723 95.3332 96.5723 95.3332 95.439C95.3332 94.319 95.5799 93.3257 96.0732 92.459C96.5666 91.5923 97.2399 90.9257 98.0932 90.459C98.9466 89.9923 99.8999 89.759 100.953 89.759C102.007 89.759 102.96 89.9923 103.813 90.459C104.667 90.9257 105.34 91.5923 105.833 92.459C106.327 93.3257 106.573 94.319 106.573 95.439C106.573 96.559 106.32 97.5523 105.813 98.419C105.307 99.2857 104.613 99.959 103.733 100.439C102.867 100.906 101.907 101.139 100.853 101.139ZM100.853 99.159C101.44 99.159 101.987 99.019 102.493 98.739C103.013 98.459 103.433 98.039 103.753 97.479C104.073 96.919 104.233 96.239 104.233 95.439C104.233 94.639 104.08 93.9657 103.773 93.419C103.467 92.859 103.06 92.439 102.553 92.159C102.047 91.879 101.5 91.739 100.913 91.739C100.327 91.739 99.7799 91.879 99.2732 92.159C98.7799 92.439 98.3866 92.859 98.0932 93.419C97.7999 93.9657 97.6532 94.639 97.6532 95.439C97.6532 96.6257 97.9532 97.5457 98.5532 98.199C99.1666 98.839 99.9332 99.159 100.853 99.159ZM111.107 91.579C111.494 91.0457 112.02 90.6123 112.687 90.279C113.367 89.9323 114.12 89.759 114.947 89.759C115.92 89.759 116.8 89.9923 117.587 90.459C118.374 90.9257 118.994 91.5923 119.447 92.459C119.9 93.3123 120.127 94.2923 120.127 95.399C120.127 96.5057 119.9 97.499 119.447 98.379C118.994 99.2457 118.367 99.9257 117.567 100.419C116.78 100.899 115.907 101.139 114.947 101.139C114.094 101.139 113.334 100.972 112.667 100.639C112.014 100.306 111.494 99.879 111.107 99.359V100.959H108.827V86.159H111.107V91.579ZM117.807 95.399C117.807 94.639 117.647 93.9857 117.327 93.439C117.02 92.879 116.607 92.459 116.087 92.179C115.58 91.8857 115.034 91.739 114.447 91.739C113.874 91.739 113.327 91.8857 112.807 92.179C112.3 92.4723 111.887 92.899 111.567 93.459C111.26 94.019 111.107 94.679 111.107 95.439C111.107 96.199 111.26 96.8657 111.567 97.439C111.887 97.999 112.3 98.4257 112.807 98.719C113.327 99.0123 113.874 99.159 114.447 99.159C115.034 99.159 115.58 99.0123 116.087 98.719C116.607 98.4123 117.02 97.9723 117.327 97.399C117.647 96.8257 117.807 96.159 117.807 95.399ZM132.362 89.939V100.959H130.082V99.659C129.722 100.112 129.249 100.472 128.662 100.739C128.089 100.992 127.475 101.119 126.822 101.119C125.955 101.119 125.175 100.939 124.482 100.579C123.802 100.219 123.262 99.6857 122.862 98.979C122.475 98.2723 122.282 97.419 122.282 96.419V89.939H124.542V96.079C124.542 97.0657 124.789 97.8257 125.282 98.359C125.775 98.879 126.449 99.139 127.302 99.139C128.155 99.139 128.829 98.879 129.322 98.359C129.829 97.8257 130.082 97.0657 130.082 96.079V89.939H132.362ZM139.37 101.139C138.503 101.139 137.723 100.986 137.03 100.679C136.35 100.359 135.81 99.9323 135.41 99.399C135.01 98.8523 134.797 98.2457 134.77 97.579H137.13C137.17 98.0457 137.39 98.439 137.79 98.759C138.203 99.0657 138.717 99.219 139.33 99.219C139.97 99.219 140.463 99.099 140.81 98.859C141.17 98.6057 141.35 98.2857 141.35 97.899C141.35 97.4857 141.15 97.179 140.75 96.979C140.363 96.779 139.743 96.559 138.89 96.319C138.063 96.0923 137.39 95.8723 136.87 95.659C136.35 95.4457 135.897 95.119 135.51 94.679C135.137 94.239 134.95 93.659 134.95 92.939C134.95 92.3523 135.123 91.819 135.47 91.339C135.817 90.8457 136.31 90.459 136.95 90.179C137.603 89.899 138.35 89.759 139.19 89.759C140.443 89.759 141.45 90.079 142.21 90.719C142.983 91.3457 143.397 92.2057 143.45 93.299H141.17C141.13 92.8057 140.93 92.4123 140.57 92.119C140.21 91.8257 139.723 91.679 139.11 91.679C138.51 91.679 138.05 91.7923 137.73 92.019C137.41 92.2457 137.25 92.5457 137.25 92.919C137.25 93.2123 137.357 93.459 137.57 93.659C137.783 93.859 138.043 94.019 138.35 94.139C138.657 94.2457 139.11 94.3857 139.71 94.559C140.51 94.7723 141.163 94.9923 141.67 95.219C142.19 95.4323 142.637 95.7523 143.01 96.179C143.383 96.6057 143.577 97.1723 143.59 97.879C143.59 98.5057 143.417 99.0657 143.07 99.559C142.723 100.052 142.23 100.439 141.59 100.719C140.963 100.999 140.223 101.139 139.37 101.139ZM148.714 91.799V97.899C148.714 98.3123 148.807 98.6123 148.994 98.799C149.194 98.9723 149.527 99.059 149.994 99.059H151.394V100.959H149.594C148.567 100.959 147.78 100.719 147.234 100.239C146.687 99.759 146.414 98.979 146.414 97.899V91.799H145.114V89.939H146.414V87.199H148.714V89.939H151.394V91.799H148.714ZM160.97 91.539C161.304 90.979 161.744 90.5457 162.29 90.239C162.85 89.919 163.51 89.759 164.27 89.759V92.119H163.69C162.797 92.119 162.117 92.3457 161.65 92.799C161.197 93.2523 160.97 94.039 160.97 95.159V100.959H158.69V89.939H160.97V91.539ZM176.466 95.179C176.466 95.5923 176.44 95.9657 176.386 96.299H167.966C168.033 97.179 168.36 97.8857 168.946 98.419C169.533 98.9523 170.253 99.219 171.106 99.219C172.333 99.219 173.2 98.7057 173.706 97.679H176.166C175.833 98.6923 175.226 99.5257 174.346 100.179C173.48 100.819 172.4 101.139 171.106 101.139C170.053 101.139 169.106 100.906 168.266 100.439C167.44 99.959 166.786 99.2923 166.306 98.439C165.84 97.5723 165.606 96.5723 165.606 95.439C165.606 94.3057 165.833 93.3123 166.286 92.459C166.753 91.5923 167.4 90.9257 168.226 90.459C169.066 89.9923 170.026 89.759 171.106 89.759C172.146 89.759 173.073 89.9857 173.886 90.439C174.7 90.8923 175.333 91.5323 175.786 92.359C176.24 93.1723 176.466 94.1123 176.466 95.179ZM174.086 94.459C174.073 93.619 173.773 92.9457 173.186 92.439C172.6 91.9323 171.873 91.679 171.006 91.679C170.22 91.679 169.546 91.9323 168.986 92.439C168.426 92.9323 168.093 93.6057 167.986 94.459H174.086ZM183.33 91.799H181.29V100.959H178.99V91.799H177.69V89.939H178.99V89.159C178.99 87.8923 179.323 86.9723 179.99 86.399C180.67 85.8123 181.73 85.519 183.17 85.519V87.419C182.477 87.419 181.99 87.5523 181.71 87.819C181.43 88.0723 181.29 88.519 181.29 89.159V89.939H183.33V91.799ZM195.451 95.179C195.451 95.5923 195.424 95.9657 195.371 96.299H186.951C187.017 97.179 187.344 97.8857 187.931 98.419C188.517 98.9523 189.237 99.219 190.091 99.219C191.317 99.219 192.184 98.7057 192.691 97.679H195.151C194.817 98.6923 194.211 99.5257 193.331 100.179C192.464 100.819 191.384 101.139 190.091 101.139C189.037 101.139 188.091 100.906 187.251 100.439C186.424 99.959 185.771 99.2923 185.291 98.439C184.824 97.5723 184.591 96.5723 184.591 95.439C184.591 94.3057 184.817 93.3123 185.271 92.459C185.737 91.5923 186.384 90.9257 187.211 90.459C188.051 89.9923 189.011 89.759 190.091 89.759C191.131 89.759 192.057 89.9857 192.871 90.439C193.684 90.8923 194.317 91.5323 194.771 92.359C195.224 93.1723 195.451 94.1123 195.451 95.179ZM193.071 94.459C193.057 93.619 192.757 92.9457 192.171 92.439C191.584 91.9323 190.857 91.679 189.991 91.679C189.204 91.679 188.531 91.9323 187.971 92.439C187.411 92.9323 187.077 93.6057 186.971 94.459H193.071ZM199.974 91.539C200.308 90.979 200.748 90.5457 201.294 90.239C201.854 89.919 202.514 89.759 203.274 89.759V92.119H202.694C201.801 92.119 201.121 92.3457 200.654 92.799C200.201 93.2523 199.974 94.039 199.974 95.159V100.959H197.694V89.939H199.974V91.539ZM207.65 91.539C207.983 90.979 208.423 90.5457 208.97 90.239C209.53 89.919 210.19 89.759 210.95 89.759V92.119H210.37C209.477 92.119 208.797 92.3457 208.33 92.799C207.877 93.2523 207.65 94.039 207.65 95.159V100.959H205.37V89.939H207.65V91.539ZM212.286 95.399C212.286 94.2923 212.513 93.3123 212.966 92.459C213.433 91.6057 214.059 90.9457 214.846 90.479C215.646 89.999 216.526 89.759 217.486 89.759C218.353 89.759 219.106 89.9323 219.746 90.279C220.399 90.6123 220.919 91.0323 221.306 91.539V89.939H223.606V100.959H221.306V99.319C220.919 99.839 220.393 100.272 219.726 100.619C219.059 100.966 218.299 101.139 217.446 101.139C216.499 101.139 215.633 100.899 214.846 100.419C214.059 99.9257 213.433 99.2457 212.966 98.379C212.513 97.499 212.286 96.5057 212.286 95.399ZM221.306 95.439C221.306 94.679 221.146 94.019 220.826 93.459C220.519 92.899 220.113 92.4723 219.606 92.179C219.099 91.8857 218.553 91.739 217.966 91.739C217.379 91.739 216.833 91.8857 216.326 92.179C215.819 92.459 215.406 92.879 215.086 93.439C214.779 93.9857 214.626 94.639 214.626 95.399C214.626 96.159 214.779 96.8257 215.086 97.399C215.406 97.9723 215.819 98.4123 216.326 98.719C216.846 99.0123 217.393 99.159 217.966 99.159C218.553 99.159 219.099 99.0123 219.606 98.719C220.113 98.4257 220.519 97.999 220.826 97.439C221.146 96.8657 221.306 96.199 221.306 95.439ZM228.881 86.159V100.959H226.601V86.159H228.881ZM236.309 95.399C236.309 94.2923 236.536 93.3123 236.989 92.459C237.456 91.6057 238.083 90.9457 238.869 90.479C239.669 89.999 240.556 89.759 241.529 89.759C242.249 89.759 242.956 89.919 243.649 90.239C244.356 90.5457 244.916 90.959 245.329 91.479V86.159H247.629V100.959H245.329V99.299C244.956 99.8323 244.436 100.272 243.769 100.619C243.116 100.966 242.363 101.139 241.509 101.139C240.549 101.139 239.669 100.899 238.869 100.419C238.083 99.9257 237.456 99.2457 236.989 98.379C236.536 97.499 236.309 96.5057 236.309 95.399ZM245.329 95.439C245.329 94.679 245.169 94.019 244.849 93.459C244.543 92.899 244.136 92.4723 243.629 92.179C243.123 91.8857 242.576 91.739 241.989 91.739C241.403 91.739 240.856 91.8857 240.349 92.179C239.843 92.459 239.429 92.879 239.109 93.439C238.803 93.9857 238.649 94.639 238.649 95.399C238.649 96.159 238.803 96.8257 239.109 97.399C239.429 97.9723 239.843 98.4123 240.349 98.719C240.869 99.0123 241.416 99.159 241.989 99.159C242.576 99.159 243.123 99.0123 243.629 98.719C244.136 98.4257 244.543 97.999 244.849 97.439C245.169 96.8657 245.329 96.199 245.329 95.439ZM260.724 95.179C260.724 95.5923 260.697 95.9657 260.644 96.299H252.224C252.291 97.179 252.617 97.8857 253.204 98.419C253.791 98.9523 254.511 99.219 255.364 99.219C256.591 99.219 257.457 98.7057 257.964 97.679H260.424C260.091 98.6923 259.484 99.5257 258.604 100.179C257.737 100.819 256.657 101.139 255.364 101.139C254.311 101.139 253.364 100.906 252.524 100.439C251.697 99.959 251.044 99.2923 250.564 98.439C250.097 97.5723 249.864 96.5723 249.864 95.439C249.864 94.3057 250.091 93.3123 250.544 92.459C251.011 91.5923 251.657 90.9257 252.484 90.459C253.324 89.9923 254.284 89.759 255.364 89.759C256.404 89.759 257.331 89.9857 258.144 90.439C258.957 90.8923 259.591 91.5323 260.044 92.359C260.497 93.1723 260.724 94.1123 260.724 95.179ZM258.344 94.459C258.331 93.619 258.031 92.9457 257.444 92.439C256.857 91.9323 256.131 91.679 255.264 91.679C254.477 91.679 253.804 91.9323 253.244 92.439C252.684 92.9323 252.351 93.6057 252.244 94.459H258.344ZM265.628 91.799V97.899C265.628 98.3123 265.721 98.6123 265.908 98.799C266.108 98.9723 266.441 99.059 266.908 99.059H268.308V100.959H266.508C265.481 100.959 264.694 100.719 264.148 100.239C263.601 99.759 263.328 98.979 263.328 97.899V91.799H262.028V89.939H263.328V87.199H265.628V89.939H268.308V91.799H265.628ZM269.649 95.399C269.649 94.2923 269.876 93.3123 270.329 92.459C270.796 91.6057 271.423 90.9457 272.209 90.479C273.009 89.999 273.889 89.759 274.849 89.759C275.716 89.759 276.469 89.9323 277.109 90.279C277.763 90.6123 278.283 91.0323 278.669 91.539V89.939H280.969V100.959H278.669V99.319C278.283 99.839 277.756 100.272 277.089 100.619C276.423 100.966 275.663 101.139 274.809 101.139C273.863 101.139 272.996 100.899 272.209 100.419C271.423 99.9257 270.796 99.2457 270.329 98.379C269.876 97.499 269.649 96.5057 269.649 95.399ZM278.669 95.439C278.669 94.679 278.509 94.019 278.189 93.459C277.883 92.899 277.476 92.4723 276.969 92.179C276.463 91.8857 275.916 91.739 275.329 91.739C274.743 91.739 274.196 91.8857 273.689 92.179C273.183 92.459 272.769 92.879 272.449 93.439C272.143 93.9857 271.989 94.639 271.989 95.399C271.989 96.159 272.143 96.8257 272.449 97.399C272.769 97.9723 273.183 98.4123 273.689 98.719C274.209 99.0123 274.756 99.159 275.329 99.159C275.916 99.159 276.463 99.0123 276.969 98.719C277.476 98.4257 277.883 97.999 278.189 97.439C278.509 96.8657 278.669 96.199 278.669 95.439ZM285.124 88.479C284.711 88.479 284.364 88.339 284.084 88.059C283.804 87.779 283.664 87.4323 283.664 87.019C283.664 86.6057 283.804 86.259 284.084 85.979C284.364 85.699 284.711 85.559 285.124 85.559C285.524 85.559 285.864 85.699 286.144 85.979C286.424 86.259 286.564 86.6057 286.564 87.019C286.564 87.4323 286.424 87.779 286.144 88.059C285.864 88.339 285.524 88.479 285.124 88.479ZM286.244 89.939V100.959H283.964V89.939H286.244ZM291.517 86.159V100.959H289.237V86.159H291.517ZM298.511 101.139C297.644 101.139 296.864 100.986 296.171 100.679C295.491 100.359 294.951 99.9323 294.551 99.399C294.151 98.8523 293.937 98.2457 293.911 97.579H296.271C296.311 98.0457 296.531 98.439 296.931 98.759C297.344 99.0657 297.857 99.219 298.471 99.219C299.111 99.219 299.604 99.099 299.951 98.859C300.311 98.6057 300.491 98.2857 300.491 97.899C300.491 97.4857 300.291 97.179 299.891 96.979C299.504 96.779 298.884 96.559 298.031 96.319C297.204 96.0923 296.531 95.8723 296.011 95.659C295.491 95.4457 295.037 95.119 294.651 94.679C294.277 94.239 294.091 93.659 294.091 92.939C294.091 92.3523 294.264 91.819 294.611 91.339C294.957 90.8457 295.451 90.459 296.091 90.179C296.744 89.899 297.491 89.759 298.331 89.759C299.584 89.759 300.591 90.079 301.351 90.719C302.124 91.3457 302.537 92.2057 302.591 93.299H300.311C300.271 92.8057 300.071 92.4123 299.711 92.119C299.351 91.8257 298.864 91.679 298.251 91.679C297.651 91.679 297.191 91.7923 296.871 92.019C296.551 92.2457 296.391 92.5457 296.391 92.919C296.391 93.2123 296.497 93.459 296.711 93.659C296.924 93.859 297.184 94.019 297.491 94.139C297.797 94.2457 298.251 94.3857 298.851 94.559C299.651 94.7723 300.304 94.9923 300.811 95.219C301.331 95.4323 301.777 95.7523 302.151 96.179C302.524 96.6057 302.717 97.1723 302.731 97.879C302.731 98.5057 302.557 99.0657 302.211 99.559C301.864 100.052 301.371 100.439 300.731 100.719C300.104 100.999 299.364 101.139 298.511 101.139Z" fill="#121212"/>
</g>
</g>
<defs>
<filter id="filter0_bd_1818_9647" x="24.9365" y="13.459" width="365" height="164" filterUnits="userSpaceOnUse" color-interpolation-filters="sRGB">
<feFlood flood-opacity="0" result="BackgroundImageFix"/>
<feGaussianBlur in="BackgroundImageFix" stdDeviation="13"/>
<feComposite in2="SourceAlpha" operator="in" result="effect1_backgroundBlur_1818_9647"/>
<feColorMatrix in="SourceAlpha" type="matrix" values="0 0 0 0 0 0 0 0 0 0 0 0 0 0 0 0 0 0 127 0" result="hardAlpha"/>
<feOffset dy="8"/>
<feGaussianBlur stdDeviation="10.5"/>
<feComposite in2="hardAlpha" operator="out"/>
<feColorMatrix type="matrix" values="0 0 0 0 0.1125 0 0 0 0 0.1125 0 0 0 0 0.1125 0 0 0 0.06 0"/>
<feBlend mode="normal" in2="effect1_backgroundBlur_1818_9647" result="effect2_dropShadow_1818_9647"/>
<feBlend mode="normal" in="SourceGraphic" in2="effect2_dropShadow_1818_9647" result="shape"/>
</filter>
<clipPath id="clip0_1818_9647">
<rect width="113.739" height="113.739" fill="white" transform="translate(0 0.743164)"/>
</clipPath>
</defs>
</svg>
