<svg width="722" height="356" viewBox="0 0 722 356" fill="none" xmlns="http://www.w3.org/2000/svg">
<g filter="url(#filter0_b_1818_9638)">
<rect width="722" height="356" rx="19" fill="#FEFEFE" fill-opacity="0.6"/>
<path d="M284.36 105.392C281.635 105.392 279.171 104.925 276.968 103.992C274.803 103.059 273.085 101.715 271.816 99.96C270.547 98.2053 269.893 96.1333 269.856 93.744H278.256C278.368 95.3493 278.928 96.6187 279.936 97.552C280.981 98.4853 282.4 98.952 284.192 98.952C286.021 98.952 287.459 98.5227 288.504 97.664C289.549 96.768 290.072 95.6107 290.072 94.192C290.072 93.0347 289.717 92.0827 289.008 91.336C288.299 90.5893 287.403 90.0107 286.32 89.6C285.275 89.152 283.819 88.6667 281.952 88.144C279.413 87.3973 277.341 86.6693 275.736 85.96C274.168 85.2133 272.805 84.112 271.648 82.656C270.528 81.1627 269.968 79.184 269.968 76.72C269.968 74.4053 270.547 72.3893 271.704 70.672C272.861 68.9547 274.485 67.648 276.576 66.752C278.667 65.8187 281.056 65.352 283.744 65.352C287.776 65.352 291.043 66.3413 293.544 68.32C296.083 70.2613 297.483 72.9867 297.744 76.496H289.12C289.045 75.152 288.467 74.0507 287.384 73.192C286.339 72.296 284.939 71.848 283.184 71.848C281.653 71.848 280.421 72.24 279.488 73.024C278.592 73.808 278.144 74.9467 278.144 76.44C278.144 77.4853 278.48 78.3627 279.152 79.072C279.861 79.744 280.72 80.304 281.728 80.752C282.773 81.1627 284.229 81.648 286.096 82.208C288.635 82.9547 290.707 83.7013 292.312 84.448C293.917 85.1947 295.299 86.3147 296.456 87.808C297.613 89.3013 298.192 91.2613 298.192 93.688C298.192 95.7787 297.651 97.72 296.568 99.512C295.485 101.304 293.899 102.741 291.808 103.824C289.717 104.869 287.235 105.392 284.36 105.392ZM333.493 78.008C333.493 80.0987 332.989 82.0587 331.981 83.888C331.01 85.7173 329.461 87.192 327.333 88.312C325.242 89.432 322.592 89.992 319.381 89.992H312.829V105H304.989V65.912H319.381C322.405 65.912 324.981 66.4347 327.109 67.48C329.237 68.5253 330.824 69.9627 331.869 71.792C332.952 73.6213 333.493 75.6933 333.493 78.008ZM319.045 83.664C321.21 83.664 322.816 83.1787 323.861 82.208C324.906 81.2 325.429 79.8 325.429 78.008C325.429 74.2 323.301 72.296 319.045 72.296H312.829V83.664H319.045ZM363.027 97.552H347.459L344.883 105H336.651L350.707 65.856H359.835L373.891 105H365.603L363.027 97.552ZM360.899 91.28L355.243 74.928L349.587 91.28H360.899ZM399.305 105L390.681 89.768H386.985V105H379.145V65.912H393.817C396.841 65.912 399.417 66.4533 401.545 67.536C403.673 68.5813 405.26 70.0187 406.305 71.848C407.388 73.64 407.929 75.656 407.929 77.896C407.929 80.472 407.183 82.8053 405.689 84.896C404.196 86.9493 401.975 88.368 399.025 89.152L408.377 105H399.305ZM386.985 83.888H393.537C395.665 83.888 397.252 83.384 398.297 82.376C399.343 81.3307 399.865 79.8933 399.865 78.064C399.865 76.272 399.343 74.8907 398.297 73.92C397.252 72.912 395.665 72.408 393.537 72.408H386.985V83.888ZM413.116 85.4C413.116 81.5547 413.975 78.12 415.692 75.096C417.447 72.0347 419.818 69.664 422.804 67.984C425.828 66.2667 429.207 65.408 432.94 65.408C437.308 65.408 441.135 66.528 444.42 68.768C447.706 71.008 450.002 74.1067 451.308 78.064H442.292C441.396 76.1973 440.127 74.7973 438.484 73.864C436.879 72.9307 435.012 72.464 432.884 72.464C430.607 72.464 428.572 73.0053 426.78 74.088C425.026 75.1333 423.644 76.6267 422.636 78.568C421.666 80.5093 421.18 82.7867 421.18 85.4C421.18 87.976 421.666 90.2533 422.636 92.232C423.644 94.1733 425.026 95.6853 426.78 96.768C428.572 97.8133 430.607 98.336 432.884 98.336C435.012 98.336 436.879 97.8693 438.484 96.936C440.127 95.9653 441.396 94.5467 442.292 92.68H451.308C450.002 96.6747 447.706 99.792 444.42 102.032C441.172 104.235 437.346 105.336 432.94 105.336C429.207 105.336 425.828 104.496 422.804 102.816C419.818 101.099 417.447 98.728 415.692 95.704C413.975 92.68 413.116 89.2453 413.116 85.4Z" fill="#121212"/>
<path d="M59.8993 159.06V160.54H56.0993V173H54.2793V160.54H50.4593V159.06H59.8993ZM67.5796 161.84C68.4063 161.84 69.1529 162.02 69.8196 162.38C70.4863 162.727 71.0063 163.253 71.3796 163.96C71.7663 164.667 71.9596 165.527 71.9596 166.54V173H70.1596V166.8C70.1596 165.707 69.8863 164.873 69.3396 164.3C68.7929 163.713 68.0463 163.42 67.0996 163.42C66.1396 163.42 65.3729 163.72 64.7996 164.32C64.2396 164.92 63.9596 165.793 63.9596 166.94V173H62.1396V158.2H63.9596V163.6C64.3196 163.04 64.8129 162.607 65.4396 162.3C66.0796 161.993 66.7929 161.84 67.5796 161.84ZM84.9326 167.1C84.9326 167.447 84.9126 167.813 84.8726 168.2H76.1126C76.1792 169.28 76.5459 170.127 77.2126 170.74C77.8926 171.34 78.7126 171.64 79.6726 171.64C80.4592 171.64 81.1126 171.46 81.6326 171.1C82.1659 170.727 82.5392 170.233 82.7526 169.62H84.7126C84.4192 170.673 83.8326 171.533 82.9526 172.2C82.0726 172.853 80.9792 173.18 79.6726 173.18C78.6326 173.18 77.6992 172.947 76.8726 172.48C76.0592 172.013 75.4192 171.353 74.9526 170.5C74.4859 169.633 74.2526 168.633 74.2526 167.5C74.2526 166.367 74.4792 165.373 74.9326 164.52C75.3859 163.667 76.0192 163.013 76.8326 162.56C77.6592 162.093 78.6059 161.86 79.6726 161.86C80.7126 161.86 81.6326 162.087 82.4326 162.54C83.2326 162.993 83.8459 163.62 84.2726 164.42C84.7126 165.207 84.9326 166.1 84.9326 167.1ZM83.0526 166.72C83.0526 166.027 82.8992 165.433 82.5926 164.94C82.2859 164.433 81.8659 164.053 81.3326 163.8C80.8126 163.533 80.2326 163.4 79.5926 163.4C78.6726 163.4 77.8859 163.693 77.2326 164.28C76.5926 164.867 76.2259 165.68 76.1326 166.72H83.0526ZM96.547 173.18C95.707 173.18 94.9536 173.04 94.287 172.76C93.6203 172.467 93.0936 172.067 92.707 171.56C92.3203 171.04 92.107 170.447 92.067 169.78H93.947C94.0003 170.327 94.2536 170.773 94.707 171.12C95.1736 171.467 95.7803 171.64 96.527 171.64C97.2203 171.64 97.767 171.487 98.167 171.18C98.567 170.873 98.767 170.487 98.767 170.02C98.767 169.54 98.5536 169.187 98.127 168.96C97.7003 168.72 97.0403 168.487 96.147 168.26C95.3336 168.047 94.667 167.833 94.147 167.62C93.6403 167.393 93.2003 167.067 92.827 166.64C92.467 166.2 92.287 165.627 92.287 164.92C92.287 164.36 92.4536 163.847 92.787 163.38C93.1203 162.913 93.5936 162.547 94.207 162.28C94.8203 162 95.5203 161.86 96.307 161.86C97.5203 161.86 98.5003 162.167 99.247 162.78C99.9936 163.393 100.394 164.233 100.447 165.3H98.627C98.587 164.727 98.3536 164.267 97.927 163.92C97.5136 163.573 96.9536 163.4 96.247 163.4C95.5936 163.4 95.0736 163.54 94.687 163.82C94.3003 164.1 94.107 164.467 94.107 164.92C94.107 165.28 94.2203 165.58 94.447 165.82C94.687 166.047 94.9803 166.233 95.327 166.38C95.687 166.513 96.1803 166.667 96.807 166.84C97.5936 167.053 98.2336 167.267 98.727 167.48C99.2203 167.68 99.6403 167.987 99.987 168.4C100.347 168.813 100.534 169.353 100.547 170.02C100.547 170.62 100.38 171.16 100.047 171.64C99.7136 172.12 99.2403 172.5 98.627 172.78C98.027 173.047 97.3336 173.18 96.547 173.18ZM113.116 167.1C113.116 167.447 113.096 167.813 113.056 168.2H104.296C104.363 169.28 104.73 170.127 105.396 170.74C106.076 171.34 106.896 171.64 107.856 171.64C108.643 171.64 109.296 171.46 109.816 171.1C110.35 170.727 110.723 170.233 110.936 169.62H112.896C112.603 170.673 112.016 171.533 111.136 172.2C110.256 172.853 109.163 173.18 107.856 173.18C106.816 173.18 105.883 172.947 105.056 172.48C104.243 172.013 103.603 171.353 103.136 170.5C102.67 169.633 102.436 168.633 102.436 167.5C102.436 166.367 102.663 165.373 103.116 164.52C103.57 163.667 104.203 163.013 105.016 162.56C105.843 162.093 106.79 161.86 107.856 161.86C108.896 161.86 109.816 162.087 110.616 162.54C111.416 162.993 112.03 163.62 112.456 164.42C112.896 165.207 113.116 166.1 113.116 167.1ZM111.236 166.72C111.236 166.027 111.083 165.433 110.776 164.94C110.47 164.433 110.05 164.053 109.516 163.8C108.996 163.533 108.416 163.4 107.776 163.4C106.856 163.4 106.07 163.693 105.416 164.28C104.776 164.867 104.41 165.68 104.316 166.72H111.236ZM114.839 167.48C114.839 166.36 115.065 165.38 115.519 164.54C115.972 163.687 116.592 163.027 117.379 162.56C118.179 162.093 119.065 161.86 120.039 161.86C120.999 161.86 121.832 162.067 122.539 162.48C123.245 162.893 123.772 163.413 124.119 164.04V162.04H125.959V173H124.119V170.96C123.759 171.6 123.219 172.133 122.499 172.56C121.792 172.973 120.965 173.18 120.019 173.18C119.045 173.18 118.165 172.94 117.379 172.46C116.592 171.98 115.972 171.307 115.519 170.44C115.065 169.573 114.839 168.587 114.839 167.48ZM124.119 167.5C124.119 166.673 123.952 165.953 123.619 165.34C123.285 164.727 122.832 164.26 122.259 163.94C121.699 163.607 121.079 163.44 120.399 163.44C119.719 163.44 119.099 163.6 118.539 163.92C117.979 164.24 117.532 164.707 117.199 165.32C116.865 165.933 116.699 166.653 116.699 167.48C116.699 168.32 116.865 169.053 117.199 169.68C117.532 170.293 117.979 170.767 118.539 171.1C119.099 171.42 119.719 171.58 120.399 171.58C121.079 171.58 121.699 171.42 122.259 171.1C122.832 170.767 123.285 170.293 123.619 169.68C123.952 169.053 124.119 168.327 124.119 167.5ZM142.214 161.84C143.067 161.84 143.827 162.02 144.494 162.38C145.161 162.727 145.687 163.253 146.074 163.96C146.461 164.667 146.654 165.527 146.654 166.54V173H144.854V166.8C144.854 165.707 144.581 164.873 144.034 164.3C143.501 163.713 142.774 163.42 141.854 163.42C140.907 163.42 140.154 163.727 139.594 164.34C139.034 164.94 138.754 165.813 138.754 166.96V173H136.954V166.8C136.954 165.707 136.681 164.873 136.134 164.3C135.601 163.713 134.874 163.42 133.954 163.42C133.007 163.42 132.254 163.727 131.694 164.34C131.134 164.94 130.854 165.813 130.854 166.96V173H129.034V162.04H130.854V163.62C131.214 163.047 131.694 162.607 132.294 162.3C132.907 161.993 133.581 161.84 134.314 161.84C135.234 161.84 136.047 162.047 136.754 162.46C137.461 162.873 137.987 163.48 138.334 164.28C138.641 163.507 139.147 162.907 139.854 162.48C140.561 162.053 141.347 161.84 142.214 161.84ZM151.46 158.2V173H149.64V158.2H151.46ZM164.561 167.1C164.561 167.447 164.541 167.813 164.501 168.2H155.741C155.808 169.28 156.175 170.127 156.841 170.74C157.521 171.34 158.341 171.64 159.301 171.64C160.088 171.64 160.741 171.46 161.261 171.1C161.795 170.727 162.168 170.233 162.381 169.62H164.341C164.048 170.673 163.461 171.533 162.581 172.2C161.701 172.853 160.608 173.18 159.301 173.18C158.261 173.18 157.328 172.947 156.501 172.48C155.688 172.013 155.048 171.353 154.581 170.5C154.115 169.633 153.881 168.633 153.881 167.5C153.881 166.367 154.108 165.373 154.561 164.52C155.015 163.667 155.648 163.013 156.461 162.56C157.288 162.093 158.235 161.86 159.301 161.86C160.341 161.86 161.261 162.087 162.061 162.54C162.861 162.993 163.475 163.62 163.901 164.42C164.341 165.207 164.561 166.1 164.561 167.1ZM162.681 166.72C162.681 166.027 162.528 165.433 162.221 164.94C161.915 164.433 161.495 164.053 160.961 163.8C160.441 163.533 159.861 163.4 159.221 163.4C158.301 163.4 157.515 163.693 156.861 164.28C156.221 164.867 155.855 165.68 155.761 166.72H162.681ZM170.844 173.18C170.004 173.18 169.25 173.04 168.584 172.76C167.917 172.467 167.39 172.067 167.004 171.56C166.617 171.04 166.404 170.447 166.364 169.78H168.244C168.297 170.327 168.55 170.773 169.004 171.12C169.47 171.467 170.077 171.64 170.824 171.64C171.517 171.64 172.064 171.487 172.464 171.18C172.864 170.873 173.064 170.487 173.064 170.02C173.064 169.54 172.85 169.187 172.424 168.96C171.997 168.72 171.337 168.487 170.444 168.26C169.63 168.047 168.964 167.833 168.444 167.62C167.937 167.393 167.497 167.067 167.124 166.64C166.764 166.2 166.584 165.627 166.584 164.92C166.584 164.36 166.75 163.847 167.084 163.38C167.417 162.913 167.89 162.547 168.504 162.28C169.117 162 169.817 161.86 170.604 161.86C171.817 161.86 172.797 162.167 173.544 162.78C174.29 163.393 174.69 164.233 174.744 165.3H172.924C172.884 164.727 172.65 164.267 172.224 163.92C171.81 163.573 171.25 163.4 170.544 163.4C169.89 163.4 169.37 163.54 168.984 163.82C168.597 164.1 168.404 164.467 168.404 164.92C168.404 165.28 168.517 165.58 168.744 165.82C168.984 166.047 169.277 166.233 169.624 166.38C169.984 166.513 170.477 166.667 171.104 166.84C171.89 167.053 172.53 167.267 173.024 167.48C173.517 167.68 173.937 167.987 174.284 168.4C174.644 168.813 174.83 169.353 174.844 170.02C174.844 170.62 174.677 171.16 174.344 171.64C174.01 172.12 173.537 172.5 172.924 172.78C172.324 173.047 171.63 173.18 170.844 173.18ZM181.293 173.18C180.453 173.18 179.7 173.04 179.033 172.76C178.366 172.467 177.84 172.067 177.453 171.56C177.066 171.04 176.853 170.447 176.813 169.78H178.693C178.746 170.327 179 170.773 179.453 171.12C179.92 171.467 180.526 171.64 181.273 171.64C181.966 171.64 182.513 171.487 182.913 171.18C183.313 170.873 183.513 170.487 183.513 170.02C183.513 169.54 183.3 169.187 182.873 168.96C182.446 168.72 181.786 168.487 180.893 168.26C180.08 168.047 179.413 167.833 178.893 167.62C178.386 167.393 177.946 167.067 177.573 166.64C177.213 166.2 177.033 165.627 177.033 164.92C177.033 164.36 177.2 163.847 177.533 163.38C177.866 162.913 178.34 162.547 178.953 162.28C179.566 162 180.266 161.86 181.053 161.86C182.266 161.86 183.246 162.167 183.993 162.78C184.74 163.393 185.14 164.233 185.193 165.3H183.373C183.333 164.727 183.1 164.267 182.673 163.92C182.26 163.573 181.7 163.4 180.993 163.4C180.34 163.4 179.82 163.54 179.433 163.82C179.046 164.1 178.853 164.467 178.853 164.92C178.853 165.28 178.966 165.58 179.193 165.82C179.433 166.047 179.726 166.233 180.073 166.38C180.433 166.513 180.926 166.667 181.553 166.84C182.34 167.053 182.98 167.267 183.473 167.48C183.966 167.68 184.386 167.987 184.733 168.4C185.093 168.813 185.28 169.353 185.293 170.02C185.293 170.62 185.126 171.16 184.793 171.64C184.46 172.12 183.986 172.5 183.373 172.78C182.773 173.047 182.08 173.18 181.293 173.18ZM195.014 164.08C195.388 163.427 195.934 162.893 196.654 162.48C197.374 162.067 198.194 161.86 199.114 161.86C200.101 161.86 200.988 162.093 201.774 162.56C202.561 163.027 203.181 163.687 203.634 164.54C204.088 165.38 204.314 166.36 204.314 167.48C204.314 168.587 204.088 169.573 203.634 170.44C203.181 171.307 202.554 171.98 201.754 172.46C200.968 172.94 200.088 173.18 199.114 173.18C198.168 173.18 197.334 172.973 196.614 172.56C195.908 172.147 195.374 171.62 195.014 170.98V173H193.194V158.2H195.014V164.08ZM202.454 167.48C202.454 166.653 202.288 165.933 201.954 165.32C201.621 164.707 201.168 164.24 200.594 163.92C200.034 163.6 199.414 163.44 198.734 163.44C198.068 163.44 197.448 163.607 196.874 163.94C196.314 164.26 195.861 164.733 195.514 165.36C195.181 165.973 195.014 166.687 195.014 167.5C195.014 168.327 195.181 169.053 195.514 169.68C195.861 170.293 196.314 170.767 196.874 171.1C197.448 171.42 198.068 171.58 198.734 171.58C199.414 171.58 200.034 171.42 200.594 171.1C201.168 170.767 201.621 170.293 201.954 169.68C202.288 169.053 202.454 168.32 202.454 167.48ZM206.03 167.48C206.03 166.36 206.257 165.38 206.71 164.54C207.163 163.687 207.783 163.027 208.57 162.56C209.37 162.093 210.257 161.86 211.23 161.86C212.19 161.86 213.023 162.067 213.73 162.48C214.437 162.893 214.963 163.413 215.31 164.04V162.04H217.15V173H215.31V170.96C214.95 171.6 214.41 172.133 213.69 172.56C212.983 172.973 212.157 173.18 211.21 173.18C210.237 173.18 209.357 172.94 208.57 172.46C207.783 171.98 207.163 171.307 206.71 170.44C206.257 169.573 206.03 168.587 206.03 167.48ZM215.31 167.5C215.31 166.673 215.143 165.953 214.81 165.34C214.477 164.727 214.023 164.26 213.45 163.94C212.89 163.607 212.27 163.44 211.59 163.44C210.91 163.44 210.29 163.6 209.73 163.92C209.17 164.24 208.723 164.707 208.39 165.32C208.057 165.933 207.89 166.653 207.89 167.48C207.89 168.32 208.057 169.053 208.39 169.68C208.723 170.293 209.17 170.767 209.73 171.1C210.29 171.42 210.91 171.58 211.59 171.58C212.27 171.58 212.89 171.42 213.45 171.1C214.023 170.767 214.477 170.293 214.81 169.68C215.143 169.053 215.31 168.327 215.31 167.5ZM219.546 167.5C219.546 166.367 219.772 165.38 220.226 164.54C220.679 163.687 221.306 163.027 222.106 162.56C222.919 162.093 223.846 161.86 224.886 161.86C226.232 161.86 227.339 162.187 228.206 162.84C229.086 163.493 229.666 164.4 229.946 165.56H227.986C227.799 164.893 227.432 164.367 226.886 163.98C226.352 163.593 225.686 163.4 224.886 163.4C223.846 163.4 223.006 163.76 222.366 164.48C221.726 165.187 221.406 166.193 221.406 167.5C221.406 168.82 221.726 169.84 222.366 170.56C223.006 171.28 223.846 171.64 224.886 171.64C225.686 171.64 226.352 171.453 226.886 171.08C227.419 170.707 227.786 170.173 227.986 169.48H229.946C229.652 170.6 229.066 171.5 228.186 172.18C227.306 172.847 226.206 173.18 224.886 173.18C223.846 173.18 222.919 172.947 222.106 172.48C221.306 172.013 220.679 171.353 220.226 170.5C219.772 169.647 219.546 168.647 219.546 167.5ZM238.494 173L234.194 168.16V173H232.374V158.2H234.194V166.9L238.414 162.04H240.954L235.794 167.5L240.974 173H238.494ZM252.667 167.1C252.667 167.447 252.647 167.813 252.607 168.2H243.847C243.914 169.28 244.28 170.127 244.947 170.74C245.627 171.34 246.447 171.64 247.407 171.64C248.194 171.64 248.847 171.46 249.367 171.1C249.9 170.727 250.274 170.233 250.487 169.62H252.447C252.154 170.673 251.567 171.533 250.687 172.2C249.807 172.853 248.714 173.18 247.407 173.18C246.367 173.18 245.434 172.947 244.607 172.48C243.794 172.013 243.154 171.353 242.687 170.5C242.22 169.633 241.987 168.633 241.987 167.5C241.987 166.367 242.214 165.373 242.667 164.52C243.12 163.667 243.754 163.013 244.567 162.56C245.394 162.093 246.34 161.86 247.407 161.86C248.447 161.86 249.367 162.087 250.167 162.54C250.967 162.993 251.58 163.62 252.007 164.42C252.447 165.207 252.667 166.1 252.667 167.1ZM250.787 166.72C250.787 166.027 250.634 165.433 250.327 164.94C250.02 164.433 249.6 164.053 249.067 163.8C248.547 163.533 247.967 163.4 247.327 163.4C246.407 163.4 245.62 163.693 244.967 164.28C244.327 164.867 243.96 165.68 243.867 166.72H250.787ZM260.409 161.84C261.743 161.84 262.823 162.247 263.649 163.06C264.476 163.86 264.889 165.02 264.889 166.54V173H263.089V166.8C263.089 165.707 262.816 164.873 262.269 164.3C261.723 163.713 260.976 163.42 260.029 163.42C259.069 163.42 258.303 163.72 257.729 164.32C257.169 164.92 256.889 165.793 256.889 166.94V173H255.069V162.04H256.889V163.6C257.249 163.04 257.736 162.607 258.349 162.3C258.976 161.993 259.663 161.84 260.409 161.84ZM267.182 167.48C267.182 166.36 267.409 165.38 267.862 164.54C268.316 163.687 268.936 163.027 269.722 162.56C270.522 162.093 271.416 161.86 272.402 161.86C273.256 161.86 274.049 162.06 274.782 162.46C275.516 162.847 276.076 163.36 276.462 164V158.2H278.302V173H276.462V170.94C276.102 171.593 275.569 172.133 274.862 172.56C274.156 172.973 273.329 173.18 272.382 173.18C271.409 173.18 270.522 172.94 269.722 172.46C268.936 171.98 268.316 171.307 267.862 170.44C267.409 169.573 267.182 168.587 267.182 167.48ZM276.462 167.5C276.462 166.673 276.296 165.953 275.962 165.34C275.629 164.727 275.176 164.26 274.602 163.94C274.042 163.607 273.422 163.44 272.742 163.44C272.062 163.44 271.442 163.6 270.882 163.92C270.322 164.24 269.876 164.707 269.542 165.32C269.209 165.933 269.042 166.653 269.042 167.48C269.042 168.32 269.209 169.053 269.542 169.68C269.876 170.293 270.322 170.767 270.882 171.1C271.442 171.42 272.062 171.58 272.742 171.58C273.422 171.58 274.042 171.42 274.602 171.1C275.176 170.767 275.629 170.293 275.962 169.68C276.296 169.053 276.462 168.327 276.462 167.5ZM288.53 164.06C288.89 163.433 289.423 162.913 290.13 162.5C290.85 162.073 291.683 161.86 292.63 161.86C293.603 161.86 294.483 162.093 295.27 162.56C296.07 163.027 296.697 163.687 297.15 164.54C297.603 165.38 297.83 166.36 297.83 167.48C297.83 168.587 297.603 169.573 297.15 170.44C296.697 171.307 296.07 171.98 295.27 172.46C294.483 172.94 293.603 173.18 292.63 173.18C291.697 173.18 290.87 172.973 290.15 172.56C289.443 172.133 288.903 171.607 288.53 170.98V178.2H286.71V162.04H288.53V164.06ZM295.97 167.48C295.97 166.653 295.803 165.933 295.47 165.32C295.137 164.707 294.683 164.24 294.11 163.92C293.55 163.6 292.93 163.44 292.25 163.44C291.583 163.44 290.963 163.607 290.39 163.94C289.83 164.26 289.377 164.733 289.03 165.36C288.697 165.973 288.53 166.687 288.53 167.5C288.53 168.327 288.697 169.053 289.03 169.68C289.377 170.293 289.83 170.767 290.39 171.1C290.963 171.42 291.583 171.58 292.25 171.58C292.93 171.58 293.55 171.42 294.11 171.1C294.683 170.767 295.137 170.293 295.47 169.68C295.803 169.053 295.97 168.32 295.97 167.48ZM302.046 158.2V173H300.226V158.2H302.046ZM304.467 167.48C304.467 166.36 304.694 165.38 305.147 164.54C305.601 163.687 306.221 163.027 307.007 162.56C307.807 162.093 308.694 161.86 309.667 161.86C310.627 161.86 311.461 162.067 312.167 162.48C312.874 162.893 313.401 163.413 313.747 164.04V162.04H315.587V173H313.747V170.96C313.387 171.6 312.847 172.133 312.127 172.56C311.421 172.973 310.594 173.18 309.647 173.18C308.674 173.18 307.794 172.94 307.007 172.46C306.221 171.98 305.601 171.307 305.147 170.44C304.694 169.573 304.467 168.587 304.467 167.48ZM313.747 167.5C313.747 166.673 313.581 165.953 313.247 165.34C312.914 164.727 312.461 164.26 311.887 163.94C311.327 163.607 310.707 163.44 310.027 163.44C309.347 163.44 308.727 163.6 308.167 163.92C307.607 164.24 307.161 164.707 306.827 165.32C306.494 165.933 306.327 166.653 306.327 167.48C306.327 168.32 306.494 169.053 306.827 169.68C307.161 170.293 307.607 170.767 308.167 171.1C308.727 171.42 309.347 171.58 310.027 171.58C310.707 171.58 311.327 171.42 311.887 171.1C312.461 170.767 312.914 170.293 313.247 169.68C313.581 169.053 313.747 168.327 313.747 167.5ZM320.883 163.54V170C320.883 170.533 320.996 170.913 321.223 171.14C321.45 171.353 321.843 171.46 322.403 171.46H323.743V173H322.103C321.09 173 320.33 172.767 319.823 172.3C319.316 171.833 319.063 171.067 319.063 170V163.54H317.643V162.04H319.063V159.28H320.883V162.04H323.743V163.54H320.883ZM330.408 163.54H328.108V173H326.288V163.54H324.868V162.04H326.288V161.26C326.288 160.033 326.602 159.14 327.228 158.58C327.868 158.007 328.888 157.72 330.288 157.72V159.24C329.488 159.24 328.922 159.4 328.588 159.72C328.268 160.027 328.108 160.54 328.108 161.26V162.04H330.408V163.54ZM337.31 173.18C336.284 173.18 335.35 172.947 334.51 172.48C333.684 172.013 333.03 171.353 332.55 170.5C332.084 169.633 331.85 168.633 331.85 167.5C331.85 166.38 332.09 165.393 332.57 164.54C333.064 163.673 333.73 163.013 334.57 162.56C335.41 162.093 336.35 161.86 337.39 161.86C338.43 161.86 339.37 162.093 340.21 162.56C341.05 163.013 341.71 163.667 342.19 164.52C342.684 165.373 342.93 166.367 342.93 167.5C342.93 168.633 342.677 169.633 342.17 170.5C341.677 171.353 341.004 172.013 340.15 172.48C339.297 172.947 338.35 173.18 337.31 173.18ZM337.31 171.58C337.964 171.58 338.577 171.427 339.15 171.12C339.724 170.813 340.184 170.353 340.53 169.74C340.89 169.127 341.07 168.38 341.07 167.5C341.07 166.62 340.897 165.873 340.55 165.26C340.204 164.647 339.75 164.193 339.19 163.9C338.63 163.593 338.024 163.44 337.37 163.44C336.704 163.44 336.09 163.593 335.53 163.9C334.984 164.193 334.544 164.647 334.21 165.26C333.877 165.873 333.71 166.62 333.71 167.5C333.71 168.393 333.87 169.147 334.19 169.76C334.524 170.373 334.964 170.833 335.51 171.14C336.057 171.433 336.657 171.58 337.31 171.58ZM347.143 163.82C347.463 163.193 347.917 162.707 348.503 162.36C349.103 162.013 349.83 161.84 350.683 161.84V163.72H350.203C348.163 163.72 347.143 164.827 347.143 167.04V173H345.323V162.04H347.143V163.82ZM365.964 161.84C366.817 161.84 367.577 162.02 368.244 162.38C368.911 162.727 369.437 163.253 369.824 163.96C370.211 164.667 370.404 165.527 370.404 166.54V173H368.604V166.8C368.604 165.707 368.331 164.873 367.784 164.3C367.251 163.713 366.524 163.42 365.604 163.42C364.657 163.42 363.904 163.727 363.344 164.34C362.784 164.94 362.504 165.813 362.504 166.96V173H360.704V166.8C360.704 165.707 360.431 164.873 359.884 164.3C359.351 163.713 358.624 163.42 357.704 163.42C356.757 163.42 356.004 163.727 355.444 164.34C354.884 164.94 354.604 165.813 354.604 166.96V173H352.784V162.04H354.604V163.62C354.964 163.047 355.444 162.607 356.044 162.3C356.657 161.993 357.331 161.84 358.064 161.84C358.984 161.84 359.797 162.047 360.504 162.46C361.211 162.873 361.737 163.48 362.084 164.28C362.391 163.507 362.897 162.907 363.604 162.48C364.311 162.053 365.097 161.84 365.964 161.84ZM393.322 162.04L389.902 173H388.022L385.382 164.3L382.742 173H380.862L377.422 162.04H379.282L381.802 171.24L384.522 162.04H386.382L389.042 171.26L391.522 162.04H393.322ZM400.568 161.84C401.395 161.84 402.141 162.02 402.808 162.38C403.475 162.727 403.995 163.253 404.368 163.96C404.755 164.667 404.948 165.527 404.948 166.54V173H403.148V166.8C403.148 165.707 402.875 164.873 402.328 164.3C401.781 163.713 401.035 163.42 400.088 163.42C399.128 163.42 398.361 163.72 397.788 164.32C397.228 164.92 396.948 165.793 396.948 166.94V173H395.128V158.2H396.948V163.6C397.308 163.04 397.801 162.607 398.428 162.3C399.068 161.993 399.781 161.84 400.568 161.84ZM408.861 160.26C408.514 160.26 408.221 160.14 407.981 159.9C407.741 159.66 407.621 159.367 407.621 159.02C407.621 158.673 407.741 158.38 407.981 158.14C408.221 157.9 408.514 157.78 408.861 157.78C409.194 157.78 409.474 157.9 409.701 158.14C409.941 158.38 410.061 158.673 410.061 159.02C410.061 159.367 409.941 159.66 409.701 159.9C409.474 160.14 409.194 160.26 408.861 160.26ZM409.741 162.04V173H407.921V162.04H409.741ZM412.163 167.5C412.163 166.367 412.389 165.38 412.843 164.54C413.296 163.687 413.923 163.027 414.723 162.56C415.536 162.093 416.463 161.86 417.503 161.86C418.849 161.86 419.956 162.187 420.823 162.84C421.703 163.493 422.283 164.4 422.563 165.56H420.603C420.416 164.893 420.049 164.367 419.503 163.98C418.969 163.593 418.303 163.4 417.503 163.4C416.463 163.4 415.623 163.76 414.983 164.48C414.343 165.187 414.023 166.193 414.023 167.5C414.023 168.82 414.343 169.84 414.983 170.56C415.623 171.28 416.463 171.64 417.503 171.64C418.303 171.64 418.969 171.453 419.503 171.08C420.036 170.707 420.403 170.173 420.603 169.48H422.563C422.269 170.6 421.683 171.5 420.803 172.18C419.923 172.847 418.823 173.18 417.503 173.18C416.463 173.18 415.536 172.947 414.723 172.48C413.923 172.013 413.296 171.353 412.843 170.5C412.389 169.647 412.163 168.647 412.163 167.5ZM430.431 161.84C431.258 161.84 432.005 162.02 432.671 162.38C433.338 162.727 433.858 163.253 434.231 163.96C434.618 164.667 434.811 165.527 434.811 166.54V173H433.011V166.8C433.011 165.707 432.738 164.873 432.191 164.3C431.645 163.713 430.898 163.42 429.951 163.42C428.991 163.42 428.225 163.72 427.651 164.32C427.091 164.92 426.811 165.793 426.811 166.94V173H424.991V158.2H426.811V163.6C427.171 163.04 427.665 162.607 428.291 162.3C428.931 161.993 429.645 161.84 430.431 161.84ZM448.556 161.84C449.383 161.84 450.13 162.02 450.796 162.38C451.463 162.727 451.983 163.253 452.356 163.96C452.743 164.667 452.936 165.527 452.936 166.54V173H451.136V166.8C451.136 165.707 450.863 164.873 450.316 164.3C449.77 163.713 449.023 163.42 448.076 163.42C447.116 163.42 446.35 163.72 445.776 164.32C445.216 164.92 444.936 165.793 444.936 166.94V173H443.116V158.2H444.936V163.6C445.296 163.04 445.79 162.607 446.416 162.3C447.056 161.993 447.77 161.84 448.556 161.84ZM465.909 167.1C465.909 167.447 465.889 167.813 465.849 168.2H457.089C457.156 169.28 457.522 170.127 458.189 170.74C458.869 171.34 459.689 171.64 460.649 171.64C461.436 171.64 462.089 171.46 462.609 171.1C463.142 170.727 463.516 170.233 463.729 169.62H465.689C465.396 170.673 464.809 171.533 463.929 172.2C463.049 172.853 461.956 173.18 460.649 173.18C459.609 173.18 458.676 172.947 457.849 172.48C457.036 172.013 456.396 171.353 455.929 170.5C455.462 169.633 455.229 168.633 455.229 167.5C455.229 166.367 455.456 165.373 455.909 164.52C456.362 163.667 456.996 163.013 457.809 162.56C458.636 162.093 459.582 161.86 460.649 161.86C461.689 161.86 462.609 162.087 463.409 162.54C464.209 162.993 464.822 163.62 465.249 164.42C465.689 165.207 465.909 166.1 465.909 167.1ZM464.029 166.72C464.029 166.027 463.876 165.433 463.569 164.94C463.262 164.433 462.842 164.053 462.309 163.8C461.789 163.533 461.209 163.4 460.569 163.4C459.649 163.4 458.862 163.693 458.209 164.28C457.569 164.867 457.202 165.68 457.109 166.72H464.029ZM470.131 158.2V173H468.311V158.2H470.131ZM475.053 164.06C475.413 163.433 475.947 162.913 476.653 162.5C477.373 162.073 478.207 161.86 479.153 161.86C480.127 161.86 481.007 162.093 481.793 162.56C482.593 163.027 483.22 163.687 483.673 164.54C484.127 165.38 484.353 166.36 484.353 167.48C484.353 168.587 484.127 169.573 483.673 170.44C483.22 171.307 482.593 171.98 481.793 172.46C481.007 172.94 480.127 173.18 479.153 173.18C478.22 173.18 477.393 172.973 476.673 172.56C475.967 172.133 475.427 171.607 475.053 170.98V178.2H473.233V162.04H475.053V164.06ZM482.493 167.48C482.493 166.653 482.327 165.933 481.993 165.32C481.66 164.707 481.207 164.24 480.633 163.92C480.073 163.6 479.453 163.44 478.773 163.44C478.107 163.44 477.487 163.607 476.913 163.94C476.353 164.26 475.9 164.733 475.553 165.36C475.22 165.973 475.053 166.687 475.053 167.5C475.053 168.327 475.22 169.053 475.553 169.68C475.9 170.293 476.353 170.767 476.913 171.1C477.487 171.42 478.107 171.58 478.773 171.58C479.453 171.58 480.073 171.42 480.633 171.1C481.207 170.767 481.66 170.293 481.993 169.68C482.327 169.053 482.493 168.32 482.493 167.48ZM490.629 173.18C489.789 173.18 489.036 173.04 488.369 172.76C487.702 172.467 487.176 172.067 486.789 171.56C486.402 171.04 486.189 170.447 486.149 169.78H488.029C488.082 170.327 488.336 170.773 488.789 171.12C489.256 171.467 489.862 171.64 490.609 171.64C491.302 171.64 491.849 171.487 492.249 171.18C492.649 170.873 492.849 170.487 492.849 170.02C492.849 169.54 492.636 169.187 492.209 168.96C491.782 168.72 491.122 168.487 490.229 168.26C489.416 168.047 488.749 167.833 488.229 167.62C487.722 167.393 487.282 167.067 486.909 166.64C486.549 166.2 486.369 165.627 486.369 164.92C486.369 164.36 486.536 163.847 486.869 163.38C487.202 162.913 487.676 162.547 488.289 162.28C488.902 162 489.602 161.86 490.389 161.86C491.602 161.86 492.582 162.167 493.329 162.78C494.076 163.393 494.476 164.233 494.529 165.3H492.709C492.669 164.727 492.436 164.267 492.009 163.92C491.596 163.573 491.036 163.4 490.329 163.4C489.676 163.4 489.156 163.54 488.769 163.82C488.382 164.1 488.189 164.467 488.189 164.92C488.189 165.28 488.302 165.58 488.529 165.82C488.769 166.047 489.062 166.233 489.409 166.38C489.769 166.513 490.262 166.667 490.889 166.84C491.676 167.053 492.316 167.267 492.809 167.48C493.302 167.68 493.722 167.987 494.069 168.4C494.429 168.813 494.616 169.353 494.629 170.02C494.629 170.62 494.462 171.16 494.129 171.64C493.796 172.12 493.322 172.5 492.709 172.78C492.109 173.047 491.416 173.18 490.629 173.18ZM511.97 162.04L505.37 178.16H503.49L505.65 172.88L501.23 162.04H503.25L506.69 170.92L510.09 162.04H511.97ZM518.58 173.18C517.553 173.18 516.62 172.947 515.78 172.48C514.953 172.013 514.3 171.353 513.82 170.5C513.353 169.633 513.12 168.633 513.12 167.5C513.12 166.38 513.36 165.393 513.84 164.54C514.333 163.673 515 163.013 515.84 162.56C516.68 162.093 517.62 161.86 518.66 161.86C519.7 161.86 520.64 162.093 521.48 162.56C522.32 163.013 522.98 163.667 523.46 164.52C523.953 165.373 524.2 166.367 524.2 167.5C524.2 168.633 523.946 169.633 523.44 170.5C522.946 171.353 522.273 172.013 521.42 172.48C520.566 172.947 519.62 173.18 518.58 173.18ZM518.58 171.58C519.233 171.58 519.846 171.427 520.42 171.12C520.993 170.813 521.453 170.353 521.8 169.74C522.16 169.127 522.34 168.38 522.34 167.5C522.34 166.62 522.166 165.873 521.82 165.26C521.473 164.647 521.02 164.193 520.46 163.9C519.9 163.593 519.293 163.44 518.64 163.44C517.973 163.44 517.36 163.593 516.8 163.9C516.253 164.193 515.813 164.647 515.48 165.26C515.146 165.873 514.98 166.62 514.98 167.5C514.98 168.393 515.14 169.147 515.46 169.76C515.793 170.373 516.233 170.833 516.78 171.14C517.326 171.433 517.926 171.58 518.58 171.58ZM536.313 162.04V173H534.493V171.38C534.146 171.94 533.659 172.38 533.033 172.7C532.419 173.007 531.739 173.16 530.993 173.16C530.139 173.16 529.373 172.987 528.693 172.64C528.013 172.28 527.473 171.747 527.073 171.04C526.686 170.333 526.493 169.473 526.493 168.46V162.04H528.293V168.22C528.293 169.3 528.566 170.133 529.113 170.72C529.659 171.293 530.406 171.58 531.353 171.58C532.326 171.58 533.093 171.28 533.653 170.68C534.213 170.08 534.493 169.207 534.493 168.06V162.04H536.313ZM546.938 163.54V170C546.938 170.533 547.051 170.913 547.278 171.14C547.504 171.353 547.898 171.46 548.458 171.46H549.798V173H548.158C547.144 173 546.384 172.767 545.878 172.3C545.371 171.833 545.118 171.067 545.118 170V163.54H543.698V162.04H545.118V159.28H546.938V162.04H549.798V163.54H546.938ZM553.823 163.82C554.143 163.193 554.596 162.707 555.183 162.36C555.783 162.013 556.51 161.84 557.363 161.84V163.72H556.883C554.843 163.72 553.823 164.827 553.823 167.04V173H552.003V162.04H553.823V163.82ZM558.784 167.48C558.784 166.36 559.01 165.38 559.464 164.54C559.917 163.687 560.537 163.027 561.324 162.56C562.124 162.093 563.01 161.86 563.984 161.86C564.944 161.86 565.777 162.067 566.484 162.48C567.19 162.893 567.717 163.413 568.064 164.04V162.04H569.904V173H568.064V170.96C567.704 171.6 567.164 172.133 566.444 172.56C565.737 172.973 564.91 173.18 563.964 173.18C562.99 173.18 562.11 172.94 561.324 172.46C560.537 171.98 559.917 171.307 559.464 170.44C559.01 169.573 558.784 168.587 558.784 167.48ZM568.064 167.5C568.064 166.673 567.897 165.953 567.564 165.34C567.23 164.727 566.777 164.26 566.204 163.94C565.644 163.607 565.024 163.44 564.344 163.44C563.664 163.44 563.044 163.6 562.484 163.92C561.924 164.24 561.477 164.707 561.144 165.32C560.81 165.933 560.644 166.653 560.644 167.48C560.644 168.32 560.81 169.053 561.144 169.68C561.477 170.293 561.924 170.767 562.484 171.1C563.044 171.42 563.664 171.58 564.344 171.58C565.024 171.58 565.644 171.42 566.204 171.1C566.777 170.767 567.23 170.293 567.564 169.68C567.897 169.053 568.064 168.327 568.064 167.5ZM572.299 167.5C572.299 166.367 572.526 165.38 572.979 164.54C573.433 163.687 574.059 163.027 574.859 162.56C575.673 162.093 576.599 161.86 577.639 161.86C578.986 161.86 580.093 162.187 580.959 162.84C581.839 163.493 582.419 164.4 582.699 165.56H580.739C580.553 164.893 580.186 164.367 579.639 163.98C579.106 163.593 578.439 163.4 577.639 163.4C576.599 163.4 575.759 163.76 575.119 164.48C574.479 165.187 574.159 166.193 574.159 167.5C574.159 168.82 574.479 169.84 575.119 170.56C575.759 171.28 576.599 171.64 577.639 171.64C578.439 171.64 579.106 171.453 579.639 171.08C580.173 170.707 580.539 170.173 580.739 169.48H582.699C582.406 170.6 581.819 171.5 580.939 172.18C580.059 172.847 578.959 173.18 577.639 173.18C576.599 173.18 575.673 172.947 574.859 172.48C574.059 172.013 573.433 171.353 572.979 170.5C572.526 169.647 572.299 168.647 572.299 167.5ZM591.248 173L586.948 168.16V173H585.128V158.2H586.948V166.9L591.168 162.04H593.708L588.548 167.5L593.728 173H591.248ZM600.073 167.48C600.073 166.36 600.3 165.38 600.753 164.54C601.206 163.687 601.826 163.027 602.613 162.56C603.413 162.093 604.3 161.86 605.273 161.86C606.233 161.86 607.066 162.067 607.773 162.48C608.48 162.893 609.006 163.413 609.353 164.04V162.04H611.193V173H609.353V170.96C608.993 171.6 608.453 172.133 607.733 172.56C607.026 172.973 606.2 173.18 605.253 173.18C604.28 173.18 603.4 172.94 602.613 172.46C601.826 171.98 601.206 171.307 600.753 170.44C600.3 169.573 600.073 168.587 600.073 167.48ZM609.353 167.5C609.353 166.673 609.186 165.953 608.853 165.34C608.52 164.727 608.066 164.26 607.493 163.94C606.933 163.607 606.313 163.44 605.633 163.44C604.953 163.44 604.333 163.6 603.773 163.92C603.213 164.24 602.766 164.707 602.433 165.32C602.1 165.933 601.933 166.653 601.933 167.48C601.933 168.32 602.1 169.053 602.433 169.68C602.766 170.293 603.213 170.767 603.773 171.1C604.333 171.42 604.953 171.58 605.633 171.58C606.313 171.58 606.933 171.42 607.493 171.1C608.066 170.767 608.52 170.293 608.853 169.68C609.186 169.053 609.353 168.327 609.353 167.5ZM616.089 158.2V173H614.269V158.2H616.089ZM621.01 158.2V173H619.19V158.2H621.01ZM638.884 162.04L632.284 178.16H630.404L632.564 172.88L628.144 162.04H630.164L633.604 170.92L637.004 162.04H638.884ZM645.494 173.18C644.467 173.18 643.534 172.947 642.694 172.48C641.867 172.013 641.214 171.353 640.734 170.5C640.267 169.633 640.034 168.633 640.034 167.5C640.034 166.38 640.274 165.393 640.754 164.54C641.247 163.673 641.914 163.013 642.754 162.56C643.594 162.093 644.534 161.86 645.574 161.86C646.614 161.86 647.554 162.093 648.394 162.56C649.234 163.013 649.894 163.667 650.374 164.52C650.867 165.373 651.114 166.367 651.114 167.5C651.114 168.633 650.86 169.633 650.354 170.5C649.86 171.353 649.187 172.013 648.334 172.48C647.48 172.947 646.534 173.18 645.494 173.18ZM645.494 171.58C646.147 171.58 646.76 171.427 647.334 171.12C647.907 170.813 648.367 170.353 648.714 169.74C649.074 169.127 649.254 168.38 649.254 167.5C649.254 166.62 649.08 165.873 648.734 165.26C648.387 164.647 647.934 164.193 647.374 163.9C646.814 163.593 646.207 163.44 645.554 163.44C644.887 163.44 644.274 163.593 643.714 163.9C643.167 164.193 642.727 164.647 642.394 165.26C642.06 165.873 641.894 166.62 641.894 167.5C641.894 168.393 642.054 169.147 642.374 169.76C642.707 170.373 643.147 170.833 643.694 171.14C644.24 171.433 644.84 171.58 645.494 171.58ZM663.227 162.04V173H661.407V171.38C661.06 171.94 660.573 172.38 659.947 172.7C659.333 173.007 658.653 173.16 657.907 173.16C657.053 173.16 656.287 172.987 655.607 172.64C654.927 172.28 654.387 171.747 653.987 171.04C653.6 170.333 653.407 169.473 653.407 168.46V162.04H655.207V168.22C655.207 169.3 655.48 170.133 656.027 170.72C656.573 171.293 657.32 171.58 658.267 171.58C659.24 171.58 660.007 171.28 660.567 170.68C661.127 170.08 661.407 169.207 661.407 168.06V162.04H663.227ZM668.12 163.82C668.44 163.193 668.893 162.707 669.48 162.36C670.08 162.013 670.806 161.84 671.66 161.84V163.72H671.18C669.14 163.72 668.12 164.827 668.12 167.04V173H666.3V162.04H668.12V163.82ZM128.774 193.54V200C128.774 200.533 128.887 200.913 129.114 201.14C129.34 201.353 129.734 201.46 130.294 201.46H131.634V203H129.994C128.98 203 128.22 202.767 127.714 202.3C127.207 201.833 126.954 201.067 126.954 200V193.54H125.534V192.04H126.954V189.28H128.774V192.04H131.634V193.54H128.774ZM135.659 193.82C135.979 193.193 136.432 192.707 137.019 192.36C137.619 192.013 138.345 191.84 139.199 191.84V193.72H138.719C136.679 193.72 135.659 194.827 135.659 197.04V203H133.839V192.04H135.659V193.82ZM140.62 197.48C140.62 196.36 140.846 195.38 141.3 194.54C141.753 193.687 142.373 193.027 143.16 192.56C143.96 192.093 144.846 191.86 145.82 191.86C146.78 191.86 147.613 192.067 148.32 192.48C149.026 192.893 149.553 193.413 149.9 194.04V192.04H151.74V203H149.9V200.96C149.54 201.6 149 202.133 148.28 202.56C147.573 202.973 146.746 203.18 145.8 203.18C144.826 203.18 143.946 202.94 143.16 202.46C142.373 201.98 141.753 201.307 141.3 200.44C140.846 199.573 140.62 198.587 140.62 197.48ZM149.9 197.5C149.9 196.673 149.733 195.953 149.4 195.34C149.066 194.727 148.613 194.26 148.04 193.94C147.48 193.607 146.86 193.44 146.18 193.44C145.5 193.44 144.88 193.6 144.32 193.92C143.76 194.24 143.313 194.707 142.98 195.32C142.646 195.933 142.48 196.653 142.48 197.48C142.48 198.32 142.646 199.053 142.98 199.68C143.313 200.293 143.76 200.767 144.32 201.1C144.88 201.42 145.5 201.58 146.18 201.58C146.86 201.58 147.48 201.42 148.04 201.1C148.613 200.767 149.066 200.293 149.4 199.68C149.733 199.053 149.9 198.327 149.9 197.5ZM154.135 197.48C154.135 196.36 154.362 195.38 154.815 194.54C155.269 193.687 155.889 193.027 156.675 192.56C157.475 192.093 158.369 191.86 159.355 191.86C160.209 191.86 161.002 192.06 161.735 192.46C162.469 192.847 163.029 193.36 163.415 194V188.2H165.255V203H163.415V200.94C163.055 201.593 162.522 202.133 161.815 202.56C161.109 202.973 160.282 203.18 159.335 203.18C158.362 203.18 157.475 202.94 156.675 202.46C155.889 201.98 155.269 201.307 154.815 200.44C154.362 199.573 154.135 198.587 154.135 197.48ZM163.415 197.5C163.415 196.673 163.249 195.953 162.915 195.34C162.582 194.727 162.129 194.26 161.555 193.94C160.995 193.607 160.375 193.44 159.695 193.44C159.015 193.44 158.395 193.6 157.835 193.92C157.275 194.24 156.829 194.707 156.495 195.32C156.162 195.933 155.995 196.653 155.995 197.48C155.995 198.32 156.162 199.053 156.495 199.68C156.829 200.293 157.275 200.767 157.835 201.1C158.395 201.42 159.015 201.58 159.695 201.58C160.375 201.58 160.995 201.42 161.555 201.1C162.129 200.767 162.582 200.293 162.915 199.68C163.249 199.053 163.415 198.327 163.415 197.5ZM178.331 197.1C178.331 197.447 178.311 197.813 178.271 198.2H169.511C169.578 199.28 169.944 200.127 170.611 200.74C171.291 201.34 172.111 201.64 173.071 201.64C173.858 201.64 174.511 201.46 175.031 201.1C175.564 200.727 175.938 200.233 176.151 199.62H178.111C177.818 200.673 177.231 201.533 176.351 202.2C175.471 202.853 174.378 203.18 173.071 203.18C172.031 203.18 171.098 202.947 170.271 202.48C169.458 202.013 168.818 201.353 168.351 200.5C167.884 199.633 167.651 198.633 167.651 197.5C167.651 196.367 167.878 195.373 168.331 194.52C168.784 193.667 169.418 193.013 170.231 192.56C171.058 192.093 172.004 191.86 173.071 191.86C174.111 191.86 175.031 192.087 175.831 192.54C176.631 192.993 177.244 193.62 177.671 194.42C178.111 195.207 178.331 196.1 178.331 197.1ZM176.451 196.72C176.451 196.027 176.298 195.433 175.991 194.94C175.684 194.433 175.264 194.053 174.731 193.8C174.211 193.533 173.631 193.4 172.991 193.4C172.071 193.4 171.284 193.693 170.631 194.28C169.991 194.867 169.624 195.68 169.531 196.72H176.451ZM184.613 203.18C183.773 203.18 183.02 203.04 182.353 202.76C181.687 202.467 181.16 202.067 180.773 201.56C180.387 201.04 180.173 200.447 180.133 199.78H182.013C182.067 200.327 182.32 200.773 182.773 201.12C183.24 201.467 183.847 201.64 184.593 201.64C185.287 201.64 185.833 201.487 186.233 201.18C186.633 200.873 186.833 200.487 186.833 200.02C186.833 199.54 186.62 199.187 186.193 198.96C185.767 198.72 185.107 198.487 184.213 198.26C183.4 198.047 182.733 197.833 182.213 197.62C181.707 197.393 181.267 197.067 180.893 196.64C180.533 196.2 180.353 195.627 180.353 194.92C180.353 194.36 180.52 193.847 180.853 193.38C181.187 192.913 181.66 192.547 182.273 192.28C182.887 192 183.587 191.86 184.373 191.86C185.587 191.86 186.567 192.167 187.313 192.78C188.06 193.393 188.46 194.233 188.513 195.3H186.693C186.653 194.727 186.42 194.267 185.993 193.92C185.58 193.573 185.02 193.4 184.313 193.4C183.66 193.4 183.14 193.54 182.753 193.82C182.367 194.1 182.173 194.467 182.173 194.92C182.173 195.28 182.287 195.58 182.513 195.82C182.753 196.047 183.047 196.233 183.393 196.38C183.753 196.513 184.247 196.667 184.873 196.84C185.66 197.053 186.3 197.267 186.793 197.48C187.287 197.68 187.707 197.987 188.053 198.4C188.413 198.813 188.6 199.353 188.613 200.02C188.613 200.62 188.447 201.16 188.113 201.64C187.78 202.12 187.307 202.5 186.693 202.78C186.093 203.047 185.4 203.18 184.613 203.18ZM211.115 192.04L207.695 203H205.815L203.175 194.3L200.535 203H198.655L195.215 192.04H197.075L199.595 201.24L202.315 192.04H204.175L206.835 201.26L209.315 192.04H211.115ZM213.861 190.26C213.514 190.26 213.221 190.14 212.981 189.9C212.741 189.66 212.621 189.367 212.621 189.02C212.621 188.673 212.741 188.38 212.981 188.14C213.221 187.9 213.514 187.78 213.861 187.78C214.194 187.78 214.474 187.9 214.701 188.14C214.941 188.38 215.061 188.673 215.061 189.02C215.061 189.367 214.941 189.66 214.701 189.9C214.474 190.14 214.194 190.26 213.861 190.26ZM214.741 192.04V203H212.921V192.04H214.741ZM220.063 193.54V200C220.063 200.533 220.176 200.913 220.403 201.14C220.629 201.353 221.023 201.46 221.583 201.46H222.923V203H221.283C220.269 203 219.509 202.767 219.003 202.3C218.496 201.833 218.243 201.067 218.243 200V193.54H216.823V192.04H218.243V189.28H220.063V192.04H222.923V193.54H220.063ZM230.568 191.84C231.395 191.84 232.141 192.02 232.808 192.38C233.475 192.727 233.995 193.253 234.368 193.96C234.755 194.667 234.948 195.527 234.948 196.54V203H233.148V196.8C233.148 195.707 232.875 194.873 232.328 194.3C231.781 193.713 231.035 193.42 230.088 193.42C229.128 193.42 228.361 193.72 227.788 194.32C227.228 194.92 226.948 195.793 226.948 196.94V203H225.128V188.2H226.948V193.6C227.308 193.04 227.801 192.607 228.428 192.3C229.068 191.993 229.781 191.84 230.568 191.84ZM253.253 197.1C253.253 197.447 253.233 197.813 253.193 198.2H244.433C244.5 199.28 244.866 200.127 245.533 200.74C246.213 201.34 247.033 201.64 247.993 201.64C248.78 201.64 249.433 201.46 249.953 201.1C250.486 200.727 250.86 200.233 251.073 199.62H253.033C252.74 200.673 252.153 201.533 251.273 202.2C250.393 202.853 249.3 203.18 247.993 203.18C246.953 203.18 246.02 202.947 245.193 202.48C244.38 202.013 243.74 201.353 243.273 200.5C242.806 199.633 242.573 198.633 242.573 197.5C242.573 196.367 242.8 195.373 243.253 194.52C243.706 193.667 244.34 193.013 245.153 192.56C245.98 192.093 246.926 191.86 247.993 191.86C249.033 191.86 249.953 192.087 250.753 192.54C251.553 192.993 252.166 193.62 252.593 194.42C253.033 195.207 253.253 196.1 253.253 197.1ZM251.373 196.72C251.373 196.027 251.22 195.433 250.913 194.94C250.606 194.433 250.186 194.053 249.653 193.8C249.133 193.533 248.553 193.4 247.913 193.4C246.993 193.4 246.206 193.693 245.553 194.28C244.913 194.867 244.546 195.68 244.453 196.72H251.373ZM260.995 191.84C262.329 191.84 263.409 192.247 264.235 193.06C265.062 193.86 265.475 195.02 265.475 196.54V203H263.675V196.8C263.675 195.707 263.402 194.873 262.855 194.3C262.309 193.713 261.562 193.42 260.615 193.42C259.655 193.42 258.889 193.72 258.315 194.32C257.755 194.92 257.475 195.793 257.475 196.94V203H255.655V192.04H257.475V193.6C257.835 193.04 258.322 192.607 258.935 192.3C259.562 191.993 260.249 191.84 260.995 191.84ZM273.888 191.84C274.715 191.84 275.462 192.02 276.128 192.38C276.795 192.727 277.315 193.253 277.688 193.96C278.075 194.667 278.268 195.527 278.268 196.54V203H276.468V196.8C276.468 195.707 276.195 194.873 275.648 194.3C275.102 193.713 274.355 193.42 273.408 193.42C272.448 193.42 271.682 193.72 271.108 194.32C270.548 194.92 270.268 195.793 270.268 196.94V203H268.448V188.2H270.268V193.6C270.628 193.04 271.122 192.607 271.748 192.3C272.388 191.993 273.102 191.84 273.888 191.84ZM280.561 197.48C280.561 196.36 280.788 195.38 281.241 194.54C281.695 193.687 282.315 193.027 283.101 192.56C283.901 192.093 284.788 191.86 285.761 191.86C286.721 191.86 287.555 192.067 288.261 192.48C288.968 192.893 289.495 193.413 289.841 194.04V192.04H291.681V203H289.841V200.96C289.481 201.6 288.941 202.133 288.221 202.56C287.515 202.973 286.688 203.18 285.741 203.18C284.768 203.18 283.888 202.94 283.101 202.46C282.315 201.98 281.695 201.307 281.241 200.44C280.788 199.573 280.561 198.587 280.561 197.48ZM289.841 197.5C289.841 196.673 289.675 195.953 289.341 195.34C289.008 194.727 288.555 194.26 287.981 193.94C287.421 193.607 286.801 193.44 286.121 193.44C285.441 193.44 284.821 193.6 284.261 193.92C283.701 194.24 283.255 194.707 282.921 195.32C282.588 195.933 282.421 196.653 282.421 197.48C282.421 198.32 282.588 199.053 282.921 199.68C283.255 200.293 283.701 200.767 284.261 201.1C284.821 201.42 285.441 201.58 286.121 201.58C286.801 201.58 287.421 201.42 287.981 201.1C288.555 200.767 289.008 200.293 289.341 199.68C289.675 199.053 289.841 198.327 289.841 197.5ZM300.097 191.84C301.43 191.84 302.51 192.247 303.337 193.06C304.163 193.86 304.577 195.02 304.577 196.54V203H302.777V196.8C302.777 195.707 302.503 194.873 301.957 194.3C301.41 193.713 300.663 193.42 299.717 193.42C298.757 193.42 297.99 193.72 297.417 194.32C296.857 194.92 296.577 195.793 296.577 196.94V203H294.757V192.04H296.577V193.6C296.937 193.04 297.423 192.607 298.037 192.3C298.663 191.993 299.35 191.84 300.097 191.84ZM306.87 197.5C306.87 196.367 307.096 195.38 307.55 194.54C308.003 193.687 308.63 193.027 309.43 192.56C310.243 192.093 311.17 191.86 312.21 191.86C313.556 191.86 314.663 192.187 315.53 192.84C316.41 193.493 316.99 194.4 317.27 195.56H315.31C315.123 194.893 314.756 194.367 314.21 193.98C313.676 193.593 313.01 193.4 312.21 193.4C311.17 193.4 310.33 193.76 309.69 194.48C309.05 195.187 308.73 196.193 308.73 197.5C308.73 198.82 309.05 199.84 309.69 200.56C310.33 201.28 311.17 201.64 312.21 201.64C313.01 201.64 313.676 201.453 314.21 201.08C314.743 200.707 315.11 200.173 315.31 199.48H317.27C316.976 200.6 316.39 201.5 315.51 202.18C314.63 202.847 313.53 203.18 312.21 203.18C311.17 203.18 310.243 202.947 309.43 202.48C308.63 202.013 308.003 201.353 307.55 200.5C307.096 199.647 306.87 198.647 306.87 197.5ZM329.698 197.1C329.698 197.447 329.678 197.813 329.638 198.2H320.878C320.945 199.28 321.312 200.127 321.978 200.74C322.658 201.34 323.478 201.64 324.438 201.64C325.225 201.64 325.878 201.46 326.398 201.1C326.932 200.727 327.305 200.233 327.518 199.62H329.478C329.185 200.673 328.598 201.533 327.718 202.2C326.838 202.853 325.745 203.18 324.438 203.18C323.398 203.18 322.465 202.947 321.638 202.48C320.825 202.013 320.185 201.353 319.718 200.5C319.252 199.633 319.018 198.633 319.018 197.5C319.018 196.367 319.245 195.373 319.698 194.52C320.152 193.667 320.785 193.013 321.598 192.56C322.425 192.093 323.372 191.86 324.438 191.86C325.478 191.86 326.398 192.087 327.198 192.54C327.998 192.993 328.612 193.62 329.038 194.42C329.478 195.207 329.698 196.1 329.698 197.1ZM327.818 196.72C327.818 196.027 327.665 195.433 327.358 194.94C327.052 194.433 326.632 194.053 326.098 193.8C325.578 193.533 324.998 193.4 324.358 193.4C323.438 193.4 322.652 193.693 321.998 194.28C321.358 194.867 320.992 195.68 320.898 196.72H327.818ZM331.421 197.48C331.421 196.36 331.647 195.38 332.101 194.54C332.554 193.687 333.174 193.027 333.961 192.56C334.761 192.093 335.654 191.86 336.641 191.86C337.494 191.86 338.287 192.06 339.021 192.46C339.754 192.847 340.314 193.36 340.701 194V188.2H342.541V203H340.701V200.94C340.341 201.593 339.807 202.133 339.101 202.56C338.394 202.973 337.567 203.18 336.621 203.18C335.647 203.18 334.761 202.94 333.961 202.46C333.174 201.98 332.554 201.307 332.101 200.44C331.647 199.573 331.421 198.587 331.421 197.48ZM340.701 197.5C340.701 196.673 340.534 195.953 340.201 195.34C339.867 194.727 339.414 194.26 338.841 193.94C338.281 193.607 337.661 193.44 336.981 193.44C336.301 193.44 335.681 193.6 335.121 193.92C334.561 194.24 334.114 194.707 333.781 195.32C333.447 195.933 333.281 196.653 333.281 197.48C333.281 198.32 333.447 199.053 333.781 199.68C334.114 200.293 334.561 200.767 335.121 201.1C335.681 201.42 336.301 201.58 336.981 201.58C337.661 201.58 338.281 201.42 338.841 201.1C339.414 200.767 339.867 200.293 340.201 199.68C340.534 199.053 340.701 198.327 340.701 197.5ZM352.768 193.82C353.088 193.193 353.542 192.707 354.128 192.36C354.728 192.013 355.455 191.84 356.308 191.84V193.72H355.828C353.788 193.72 352.768 194.827 352.768 197.04V203H350.948V192.04H352.768V193.82ZM368.409 197.1C368.409 197.447 368.389 197.813 368.349 198.2H359.589C359.656 199.28 360.022 200.127 360.689 200.74C361.369 201.34 362.189 201.64 363.149 201.64C363.936 201.64 364.589 201.46 365.109 201.1C365.642 200.727 366.016 200.233 366.229 199.62H368.189C367.896 200.673 367.309 201.533 366.429 202.2C365.549 202.853 364.456 203.18 363.149 203.18C362.109 203.18 361.176 202.947 360.349 202.48C359.536 202.013 358.896 201.353 358.429 200.5C357.962 199.633 357.729 198.633 357.729 197.5C357.729 196.367 357.956 195.373 358.409 194.52C358.862 193.667 359.496 193.013 360.309 192.56C361.136 192.093 362.082 191.86 363.149 191.86C364.189 191.86 365.109 192.087 365.909 192.54C366.709 192.993 367.322 193.62 367.749 194.42C368.189 195.207 368.409 196.1 368.409 197.1ZM366.529 196.72C366.529 196.027 366.376 195.433 366.069 194.94C365.762 194.433 365.342 194.053 364.809 193.8C364.289 193.533 363.709 193.4 363.069 193.4C362.149 193.4 361.362 193.693 360.709 194.28C360.069 194.867 359.702 195.68 359.609 196.72H366.529ZM372.631 194.06C372.991 193.433 373.525 192.913 374.231 192.5C374.951 192.073 375.785 191.86 376.731 191.86C377.705 191.86 378.585 192.093 379.371 192.56C380.171 193.027 380.798 193.687 381.251 194.54C381.705 195.38 381.931 196.36 381.931 197.48C381.931 198.587 381.705 199.573 381.251 200.44C380.798 201.307 380.171 201.98 379.371 202.46C378.585 202.94 377.705 203.18 376.731 203.18C375.798 203.18 374.971 202.973 374.251 202.56C373.545 202.133 373.005 201.607 372.631 200.98V208.2H370.811V192.04H372.631V194.06ZM380.071 197.48C380.071 196.653 379.905 195.933 379.571 195.32C379.238 194.707 378.785 194.24 378.211 193.92C377.651 193.6 377.031 193.44 376.351 193.44C375.685 193.44 375.065 193.607 374.491 193.94C373.931 194.26 373.478 194.733 373.131 195.36C372.798 195.973 372.631 196.687 372.631 197.5C372.631 198.327 372.798 199.053 373.131 199.68C373.478 200.293 373.931 200.767 374.491 201.1C375.065 201.42 375.685 201.58 376.351 201.58C377.031 201.58 377.651 201.42 378.211 201.1C378.785 200.767 379.238 200.293 379.571 199.68C379.905 199.053 380.071 198.32 380.071 197.48ZM389.107 203.18C388.08 203.18 387.147 202.947 386.307 202.48C385.48 202.013 384.827 201.353 384.347 200.5C383.88 199.633 383.647 198.633 383.647 197.5C383.647 196.38 383.887 195.393 384.367 194.54C384.86 193.673 385.527 193.013 386.367 192.56C387.207 192.093 388.147 191.86 389.187 191.86C390.227 191.86 391.167 192.093 392.007 192.56C392.847 193.013 393.507 193.667 393.987 194.52C394.48 195.373 394.727 196.367 394.727 197.5C394.727 198.633 394.474 199.633 393.967 200.5C393.474 201.353 392.8 202.013 391.947 202.48C391.094 202.947 390.147 203.18 389.107 203.18ZM389.107 201.58C389.76 201.58 390.374 201.427 390.947 201.12C391.52 200.813 391.98 200.353 392.327 199.74C392.687 199.127 392.867 198.38 392.867 197.5C392.867 196.62 392.694 195.873 392.347 195.26C392 194.647 391.547 194.193 390.987 193.9C390.427 193.593 389.82 193.44 389.167 193.44C388.5 193.44 387.887 193.593 387.327 193.9C386.78 194.193 386.34 194.647 386.007 195.26C385.674 195.873 385.507 196.62 385.507 197.5C385.507 198.393 385.667 199.147 385.987 199.76C386.32 200.373 386.76 200.833 387.307 201.14C387.854 201.433 388.454 201.58 389.107 201.58ZM398.94 193.82C399.26 193.193 399.713 192.707 400.3 192.36C400.9 192.013 401.627 191.84 402.48 191.84V193.72H402C399.96 193.72 398.94 194.827 398.94 197.04V203H397.12V192.04H398.94V193.82ZM406.801 193.54V200C406.801 200.533 406.914 200.913 407.141 201.14C407.368 201.353 407.761 201.46 408.321 201.46H409.661V203H408.021C407.008 203 406.248 202.767 405.741 202.3C405.234 201.833 404.981 201.067 404.981 200V193.54H403.561V192.04H404.981V189.28H406.801V192.04H409.661V193.54H406.801ZM415.746 203.18C414.906 203.18 414.153 203.04 413.486 202.76C412.82 202.467 412.293 202.067 411.906 201.56C411.52 201.04 411.306 200.447 411.266 199.78H413.146C413.2 200.327 413.453 200.773 413.906 201.12C414.373 201.467 414.98 201.64 415.726 201.64C416.42 201.64 416.966 201.487 417.366 201.18C417.766 200.873 417.966 200.487 417.966 200.02C417.966 199.54 417.753 199.187 417.326 198.96C416.9 198.72 416.24 198.487 415.346 198.26C414.533 198.047 413.866 197.833 413.346 197.62C412.84 197.393 412.4 197.067 412.026 196.64C411.666 196.2 411.486 195.627 411.486 194.92C411.486 194.36 411.653 193.847 411.986 193.38C412.32 192.913 412.793 192.547 413.406 192.28C414.02 192 414.72 191.86 415.506 191.86C416.72 191.86 417.7 192.167 418.446 192.78C419.193 193.393 419.593 194.233 419.646 195.3H417.826C417.786 194.727 417.553 194.267 417.126 193.92C416.713 193.573 416.153 193.4 415.446 193.4C414.793 193.4 414.273 193.54 413.886 193.82C413.5 194.1 413.306 194.467 413.306 194.92C413.306 195.28 413.42 195.58 413.646 195.82C413.886 196.047 414.18 196.233 414.526 196.38C414.886 196.513 415.38 196.667 416.006 196.84C416.793 197.053 417.433 197.267 417.926 197.48C418.42 197.68 418.84 197.987 419.186 198.4C419.546 198.813 419.733 199.353 419.746 200.02C419.746 200.62 419.58 201.16 419.246 201.64C418.913 202.12 418.44 202.5 417.826 202.78C417.226 203.047 416.533 203.18 415.746 203.18ZM426.967 197.48C426.967 196.36 427.194 195.38 427.647 194.54C428.101 193.687 428.721 193.027 429.507 192.56C430.307 192.093 431.194 191.86 432.167 191.86C433.127 191.86 433.961 192.067 434.667 192.48C435.374 192.893 435.901 193.413 436.247 194.04V192.04H438.087V203H436.247V200.96C435.887 201.6 435.347 202.133 434.627 202.56C433.921 202.973 433.094 203.18 432.147 203.18C431.174 203.18 430.294 202.94 429.507 202.46C428.721 201.98 428.101 201.307 427.647 200.44C427.194 199.573 426.967 198.587 426.967 197.48ZM436.247 197.5C436.247 196.673 436.081 195.953 435.747 195.34C435.414 194.727 434.961 194.26 434.387 193.94C433.827 193.607 433.207 193.44 432.527 193.44C431.847 193.44 431.227 193.6 430.667 193.92C430.107 194.24 429.661 194.707 429.327 195.32C428.994 195.933 428.827 196.653 428.827 197.48C428.827 198.32 428.994 199.053 429.327 199.68C429.661 200.293 430.107 200.767 430.667 201.1C431.227 201.42 431.847 201.58 432.527 201.58C433.207 201.58 433.827 201.42 434.387 201.1C434.961 200.767 435.414 200.293 435.747 199.68C436.081 199.053 436.247 198.327 436.247 197.5ZM446.503 191.84C447.836 191.84 448.916 192.247 449.743 193.06C450.57 193.86 450.983 195.02 450.983 196.54V203H449.183V196.8C449.183 195.707 448.91 194.873 448.363 194.3C447.816 193.713 447.07 193.42 446.123 193.42C445.163 193.42 444.396 193.72 443.823 194.32C443.263 194.92 442.983 195.793 442.983 196.94V203H441.163V192.04H442.983V193.6C443.343 193.04 443.83 192.607 444.443 192.3C445.07 191.993 445.756 191.84 446.503 191.84ZM453.276 197.48C453.276 196.36 453.503 195.38 453.956 194.54C454.409 193.687 455.029 193.027 455.816 192.56C456.616 192.093 457.509 191.86 458.496 191.86C459.349 191.86 460.143 192.06 460.876 192.46C461.609 192.847 462.169 193.36 462.556 194V188.2H464.396V203H462.556V200.94C462.196 201.593 461.663 202.133 460.956 202.56C460.249 202.973 459.423 203.18 458.476 203.18C457.503 203.18 456.616 202.94 455.816 202.46C455.029 201.98 454.409 201.307 453.956 200.44C453.503 199.573 453.276 198.587 453.276 197.48ZM462.556 197.5C462.556 196.673 462.389 195.953 462.056 195.34C461.723 194.727 461.269 194.26 460.696 193.94C460.136 193.607 459.516 193.44 458.836 193.44C458.156 193.44 457.536 193.6 456.976 193.92C456.416 194.24 455.969 194.707 455.636 195.32C455.303 195.933 455.136 196.653 455.136 197.48C455.136 198.32 455.303 199.053 455.636 199.68C455.969 200.293 456.416 200.767 456.976 201.1C457.536 201.42 458.156 201.58 458.836 201.58C459.516 201.58 460.136 201.42 460.696 201.1C461.269 200.767 461.723 200.293 462.056 199.68C462.389 199.053 462.556 198.327 462.556 197.5ZM472.124 197.48C472.124 196.36 472.35 195.38 472.804 194.54C473.257 193.687 473.877 193.027 474.664 192.56C475.464 192.093 476.357 191.86 477.344 191.86C478.197 191.86 478.99 192.06 479.724 192.46C480.457 192.847 481.017 193.36 481.404 194V188.2H483.244V203H481.404V200.94C481.044 201.593 480.51 202.133 479.804 202.56C479.097 202.973 478.27 203.18 477.324 203.18C476.35 203.18 475.464 202.94 474.664 202.46C473.877 201.98 473.257 201.307 472.804 200.44C472.35 199.573 472.124 198.587 472.124 197.48ZM481.404 197.5C481.404 196.673 481.237 195.953 480.904 195.34C480.57 194.727 480.117 194.26 479.544 193.94C478.984 193.607 478.364 193.44 477.684 193.44C477.004 193.44 476.384 193.6 475.824 193.92C475.264 194.24 474.817 194.707 474.484 195.32C474.15 195.933 473.984 196.653 473.984 197.48C473.984 198.32 474.15 199.053 474.484 199.68C474.817 200.293 475.264 200.767 475.824 201.1C476.384 201.42 477.004 201.58 477.684 201.58C478.364 201.58 478.984 201.42 479.544 201.1C480.117 200.767 480.57 200.293 480.904 199.68C481.237 199.053 481.404 198.327 481.404 197.5ZM485.639 197.48C485.639 196.36 485.866 195.38 486.319 194.54C486.773 193.687 487.393 193.027 488.179 192.56C488.979 192.093 489.866 191.86 490.839 191.86C491.799 191.86 492.633 192.067 493.339 192.48C494.046 192.893 494.573 193.413 494.919 194.04V192.04H496.759V203H494.919V200.96C494.559 201.6 494.019 202.133 493.299 202.56C492.593 202.973 491.766 203.18 490.819 203.18C489.846 203.18 488.966 202.94 488.179 202.46C487.393 201.98 486.773 201.307 486.319 200.44C485.866 199.573 485.639 198.587 485.639 197.48ZM494.919 197.5C494.919 196.673 494.753 195.953 494.419 195.34C494.086 194.727 493.633 194.26 493.059 193.94C492.499 193.607 491.879 193.44 491.199 193.44C490.519 193.44 489.899 193.6 489.339 193.92C488.779 194.24 488.333 194.707 487.999 195.32C487.666 195.933 487.499 196.653 487.499 197.48C487.499 198.32 487.666 199.053 487.999 199.68C488.333 200.293 488.779 200.767 489.339 201.1C489.899 201.42 490.519 201.58 491.199 201.58C491.879 201.58 492.499 201.42 493.059 201.1C493.633 200.767 494.086 200.293 494.419 199.68C494.753 199.053 494.919 198.327 494.919 197.5ZM503.715 203.18C502.875 203.18 502.122 203.04 501.455 202.76C500.788 202.467 500.262 202.067 499.875 201.56C499.488 201.04 499.275 200.447 499.235 199.78H501.115C501.168 200.327 501.422 200.773 501.875 201.12C502.342 201.467 502.948 201.64 503.695 201.64C504.388 201.64 504.935 201.487 505.335 201.18C505.735 200.873 505.935 200.487 505.935 200.02C505.935 199.54 505.722 199.187 505.295 198.96C504.868 198.72 504.208 198.487 503.315 198.26C502.502 198.047 501.835 197.833 501.315 197.62C500.808 197.393 500.368 197.067 499.995 196.64C499.635 196.2 499.455 195.627 499.455 194.92C499.455 194.36 499.622 193.847 499.955 193.38C500.288 192.913 500.762 192.547 501.375 192.28C501.988 192 502.688 191.86 503.475 191.86C504.688 191.86 505.668 192.167 506.415 192.78C507.162 193.393 507.562 194.233 507.615 195.3H505.795C505.755 194.727 505.522 194.267 505.095 193.92C504.682 193.573 504.122 193.4 503.415 193.4C502.762 193.4 502.242 193.54 501.855 193.82C501.468 194.1 501.275 194.467 501.275 194.92C501.275 195.28 501.388 195.58 501.615 195.82C501.855 196.047 502.148 196.233 502.495 196.38C502.855 196.513 503.348 196.667 503.975 196.84C504.762 197.053 505.402 197.267 505.895 197.48C506.388 197.68 506.808 197.987 507.155 198.4C507.515 198.813 507.702 199.353 507.715 200.02C507.715 200.62 507.548 201.16 507.215 201.64C506.882 202.12 506.408 202.5 505.795 202.78C505.195 203.047 504.502 203.18 503.715 203.18ZM515.724 191.84C516.551 191.84 517.297 192.02 517.964 192.38C518.631 192.727 519.151 193.253 519.524 193.96C519.911 194.667 520.104 195.527 520.104 196.54V203H518.304V196.8C518.304 195.707 518.031 194.873 517.484 194.3C516.937 193.713 516.191 193.42 515.244 193.42C514.284 193.42 513.517 193.72 512.944 194.32C512.384 194.92 512.104 195.793 512.104 196.94V203H510.284V188.2H512.104V193.6C512.464 193.04 512.957 192.607 513.584 192.3C514.224 191.993 514.937 191.84 515.724 191.84ZM524.897 194.08C525.27 193.427 525.817 192.893 526.537 192.48C527.257 192.067 528.077 191.86 528.997 191.86C529.984 191.86 530.87 192.093 531.657 192.56C532.444 193.027 533.064 193.687 533.517 194.54C533.97 195.38 534.197 196.36 534.197 197.48C534.197 198.587 533.97 199.573 533.517 200.44C533.064 201.307 532.437 201.98 531.637 202.46C530.85 202.94 529.97 203.18 528.997 203.18C528.05 203.18 527.217 202.973 526.497 202.56C525.79 202.147 525.257 201.62 524.897 200.98V203H523.077V188.2H524.897V194.08ZM532.337 197.48C532.337 196.653 532.17 195.933 531.837 195.32C531.504 194.707 531.05 194.24 530.477 193.92C529.917 193.6 529.297 193.44 528.617 193.44C527.95 193.44 527.33 193.607 526.757 193.94C526.197 194.26 525.744 194.733 525.397 195.36C525.064 195.973 524.897 196.687 524.897 197.5C524.897 198.327 525.064 199.053 525.397 199.68C525.744 200.293 526.197 200.767 526.757 201.1C527.33 201.42 527.95 201.58 528.617 201.58C529.297 201.58 529.917 201.42 530.477 201.1C531.05 200.767 531.504 200.293 531.837 199.68C532.17 199.053 532.337 198.32 532.337 197.48ZM541.373 203.18C540.346 203.18 539.413 202.947 538.573 202.48C537.746 202.013 537.093 201.353 536.613 200.5C536.146 199.633 535.913 198.633 535.913 197.5C535.913 196.38 536.153 195.393 536.633 194.54C537.126 193.673 537.793 193.013 538.633 192.56C539.473 192.093 540.413 191.86 541.453 191.86C542.493 191.86 543.433 192.093 544.273 192.56C545.113 193.013 545.773 193.667 546.253 194.52C546.746 195.373 546.993 196.367 546.993 197.5C546.993 198.633 546.739 199.633 546.233 200.5C545.739 201.353 545.066 202.013 544.213 202.48C543.359 202.947 542.413 203.18 541.373 203.18ZM541.373 201.58C542.026 201.58 542.639 201.427 543.213 201.12C543.786 200.813 544.246 200.353 544.593 199.74C544.953 199.127 545.133 198.38 545.133 197.5C545.133 196.62 544.959 195.873 544.613 195.26C544.266 194.647 543.813 194.193 543.253 193.9C542.693 193.593 542.086 193.44 541.433 193.44C540.766 193.44 540.153 193.593 539.593 193.9C539.046 194.193 538.606 194.647 538.273 195.26C537.939 195.873 537.773 196.62 537.773 197.5C537.773 198.393 537.933 199.147 538.253 199.76C538.586 200.373 539.026 200.833 539.573 201.14C540.119 201.433 540.719 201.58 541.373 201.58ZM548.706 197.48C548.706 196.36 548.932 195.38 549.386 194.54C549.839 193.687 550.459 193.027 551.246 192.56C552.046 192.093 552.932 191.86 553.906 191.86C554.866 191.86 555.699 192.067 556.406 192.48C557.112 192.893 557.639 193.413 557.986 194.04V192.04H559.826V203H557.986V200.96C557.626 201.6 557.086 202.133 556.366 202.56C555.659 202.973 554.832 203.18 553.886 203.18C552.912 203.18 552.032 202.94 551.246 202.46C550.459 201.98 549.839 201.307 549.386 200.44C548.932 199.573 548.706 198.587 548.706 197.48ZM557.986 197.5C557.986 196.673 557.819 195.953 557.486 195.34C557.152 194.727 556.699 194.26 556.126 193.94C555.566 193.607 554.946 193.44 554.266 193.44C553.586 193.44 552.966 193.6 552.406 193.92C551.846 194.24 551.399 194.707 551.066 195.32C550.732 195.933 550.566 196.653 550.566 197.48C550.566 198.32 550.732 199.053 551.066 199.68C551.399 200.293 551.846 200.767 552.406 201.1C552.966 201.42 553.586 201.58 554.266 201.58C554.946 201.58 555.566 201.42 556.126 201.1C556.699 200.767 557.152 200.293 557.486 199.68C557.819 199.053 557.986 198.327 557.986 197.5ZM564.721 193.82C565.041 193.193 565.495 192.707 566.081 192.36C566.681 192.013 567.408 191.84 568.261 191.84V193.72H567.781C565.741 193.72 564.721 194.827 564.721 197.04V203H562.901V192.04H564.721V193.82ZM569.682 197.48C569.682 196.36 569.909 195.38 570.362 194.54C570.816 193.687 571.436 193.027 572.222 192.56C573.022 192.093 573.916 191.86 574.902 191.86C575.756 191.86 576.549 192.06 577.282 192.46C578.016 192.847 578.576 193.36 578.962 194V188.2H580.802V203H578.962V200.94C578.602 201.593 578.069 202.133 577.362 202.56C576.656 202.973 575.829 203.18 574.882 203.18C573.909 203.18 573.022 202.94 572.222 202.46C571.436 201.98 570.816 201.307 570.362 200.44C569.909 199.573 569.682 198.587 569.682 197.48ZM578.962 197.5C578.962 196.673 578.796 195.953 578.462 195.34C578.129 194.727 577.676 194.26 577.102 193.94C576.542 193.607 575.922 193.44 575.242 193.44C574.562 193.44 573.942 193.6 573.382 193.92C572.822 194.24 572.376 194.707 572.042 195.32C571.709 195.933 571.542 196.653 571.542 197.48C571.542 198.32 571.709 199.053 572.042 199.68C572.376 200.293 572.822 200.767 573.382 201.1C573.942 201.42 574.562 201.58 575.242 201.58C575.922 201.58 576.542 201.42 577.102 201.1C577.676 200.767 578.129 200.293 578.462 199.68C578.796 199.053 578.962 198.327 578.962 197.5ZM587.758 203.18C586.918 203.18 586.165 203.04 585.498 202.76C584.831 202.467 584.305 202.067 583.918 201.56C583.531 201.04 583.318 200.447 583.278 199.78H585.158C585.211 200.327 585.465 200.773 585.918 201.12C586.385 201.467 586.991 201.64 587.738 201.64C588.431 201.64 588.978 201.487 589.378 201.18C589.778 200.873 589.978 200.487 589.978 200.02C589.978 199.54 589.765 199.187 589.338 198.96C588.911 198.72 588.251 198.487 587.358 198.26C586.545 198.047 585.878 197.833 585.358 197.62C584.851 197.393 584.411 197.067 584.038 196.64C583.678 196.2 583.498 195.627 583.498 194.92C583.498 194.36 583.665 193.847 583.998 193.38C584.331 192.913 584.805 192.547 585.418 192.28C586.031 192 586.731 191.86 587.518 191.86C588.731 191.86 589.711 192.167 590.458 192.78C591.205 193.393 591.605 194.233 591.658 195.3H589.838C589.798 194.727 589.565 194.267 589.138 193.92C588.725 193.573 588.165 193.4 587.458 193.4C586.805 193.4 586.285 193.54 585.898 193.82C585.511 194.1 585.318 194.467 585.318 194.92C585.318 195.28 585.431 195.58 585.658 195.82C585.898 196.047 586.191 196.233 586.538 196.38C586.898 196.513 587.391 196.667 588.018 196.84C588.805 197.053 589.445 197.267 589.938 197.48C590.431 197.68 590.851 197.987 591.198 198.4C591.558 198.813 591.745 199.353 591.758 200.02C591.758 200.62 591.591 201.16 591.258 201.64C590.925 202.12 590.451 202.5 589.838 202.78C589.238 203.047 588.545 203.18 587.758 203.18ZM594.907 203.12C594.56 203.12 594.267 203 594.027 202.76C593.787 202.52 593.667 202.227 593.667 201.88C593.667 201.533 593.787 201.24 594.027 201C594.267 200.76 594.56 200.64 594.907 200.64C595.24 200.64 595.52 200.76 595.747 201C595.987 201.24 596.107 201.533 596.107 201.88C596.107 202.227 595.987 202.52 595.747 202.76C595.52 203 595.24 203.12 594.907 203.12Z" fill="#121212"/>
<g filter="url(#filter1_d_1818_9638)">
<rect x="280" y="247" width="162" height="66" rx="33" fill="url(#paint0_linear_1818_9638)"/>
<path d="M335.18 284.78H339.78V287H332.38V273.04H335.18V284.78ZM346.48 287.18C345.413 287.18 344.453 286.947 343.6 286.48C342.746 286 342.073 285.327 341.58 284.46C341.1 283.593 340.86 282.593 340.86 281.46C340.86 280.327 341.106 279.327 341.6 278.46C342.106 277.593 342.793 276.927 343.66 276.46C344.526 275.98 345.493 275.74 346.56 275.74C347.626 275.74 348.593 275.98 349.46 276.46C350.326 276.927 351.006 277.593 351.5 278.46C352.006 279.327 352.26 280.327 352.26 281.46C352.26 282.593 352 283.593 351.48 284.46C350.973 285.327 350.28 286 349.4 286.48C348.533 286.947 347.56 287.18 346.48 287.18ZM346.48 284.74C346.986 284.74 347.46 284.62 347.9 284.38C348.353 284.127 348.713 283.753 348.98 283.26C349.246 282.767 349.38 282.167 349.38 281.46C349.38 280.407 349.1 279.6 348.54 279.04C347.993 278.467 347.32 278.18 346.52 278.18C345.72 278.18 345.046 278.467 344.5 279.04C343.966 279.6 343.7 280.407 343.7 281.46C343.7 282.513 343.96 283.327 344.48 283.9C345.013 284.46 345.68 284.74 346.48 284.74ZM358.654 275.74C359.48 275.74 360.207 275.907 360.834 276.24C361.46 276.56 361.954 276.98 362.314 277.5V275.92H365.134V287.08C365.134 288.107 364.927 289.02 364.514 289.82C364.1 290.633 363.48 291.273 362.654 291.74C361.827 292.22 360.827 292.46 359.654 292.46C358.08 292.46 356.787 292.093 355.774 291.36C354.774 290.627 354.207 289.627 354.074 288.36H356.854C357 288.867 357.314 289.267 357.794 289.56C358.287 289.867 358.88 290.02 359.574 290.02C360.387 290.02 361.047 289.773 361.554 289.28C362.06 288.8 362.314 288.067 362.314 287.08V285.36C361.954 285.88 361.454 286.313 360.814 286.66C360.187 287.007 359.467 287.18 358.654 287.18C357.72 287.18 356.867 286.94 356.094 286.46C355.32 285.98 354.707 285.307 354.254 284.44C353.814 283.56 353.594 282.553 353.594 281.42C353.594 280.3 353.814 279.307 354.254 278.44C354.707 277.573 355.314 276.907 356.074 276.44C356.847 275.973 357.707 275.74 358.654 275.74ZM362.314 281.46C362.314 280.78 362.18 280.2 361.914 279.72C361.647 279.227 361.287 278.853 360.834 278.6C360.38 278.333 359.894 278.2 359.374 278.2C358.854 278.2 358.374 278.327 357.934 278.58C357.494 278.833 357.134 279.207 356.854 279.7C356.587 280.18 356.454 280.753 356.454 281.42C356.454 282.087 356.587 282.673 356.854 283.18C357.134 283.673 357.494 284.053 357.934 284.32C358.387 284.587 358.867 284.72 359.374 284.72C359.894 284.72 360.38 284.593 360.834 284.34C361.287 284.073 361.647 283.7 361.914 283.22C362.18 282.727 362.314 282.14 362.314 281.46ZM374.054 274.6C373.561 274.6 373.147 274.447 372.814 274.14C372.494 273.82 372.334 273.427 372.334 272.96C372.334 272.493 372.494 272.107 372.814 271.8C373.147 271.48 373.561 271.32 374.054 271.32C374.547 271.32 374.954 271.48 375.274 271.8C375.607 272.107 375.774 272.493 375.774 272.96C375.774 273.427 375.607 273.82 375.274 274.14C374.954 274.447 374.547 274.6 374.054 274.6ZM375.434 275.92V287H372.634V275.92H375.434ZM384.34 275.76C385.66 275.76 386.727 276.18 387.54 277.02C388.354 277.847 388.76 279.007 388.76 280.5V287H385.96V280.88C385.96 280 385.74 279.327 385.3 278.86C384.86 278.38 384.26 278.14 383.5 278.14C382.727 278.14 382.114 278.38 381.66 278.86C381.22 279.327 381 280 381 280.88V287H378.2V275.92H381V277.3C381.374 276.82 381.847 276.447 382.42 276.18C383.007 275.9 383.647 275.76 384.34 275.76Z" fill="white"/>
</g>
<rect x="2" y="2" width="718" height="352" rx="17" stroke="white" stroke-width="4"/>
</g>
<defs>
<filter id="filter0_b_1818_9638" x="-5" y="-5" width="732" height="366" filterUnits="userSpaceOnUse" color-interpolation-filters="sRGB">
<feFlood flood-opacity="0" result="BackgroundImageFix"/>
<feGaussianBlur in="BackgroundImageFix" stdDeviation="2.5"/>
<feComposite in2="SourceAlpha" operator="in" result="effect1_backgroundBlur_1818_9638"/>
<feBlend mode="normal" in="SourceGraphic" in2="effect1_backgroundBlur_1818_9638" result="shape"/>
</filter>
<filter id="filter1_d_1818_9638" x="264.236" y="231.236" width="193.527" height="97.5272" filterUnits="userSpaceOnUse" color-interpolation-filters="sRGB">
<feFlood flood-opacity="0" result="BackgroundImageFix"/>
<feColorMatrix in="SourceAlpha" type="matrix" values="0 0 0 0 0 0 0 0 0 0 0 0 0 0 0 0 0 0 127 0" result="hardAlpha"/>
<feOffset/>
<feGaussianBlur stdDeviation="7.8818"/>
<feComposite in2="hardAlpha" operator="out"/>
<feColorMatrix type="matrix" values="0 0 0 0 0.219608 0 0 0 0 0.72549 0 0 0 0 0.564706 0 0 0 0.5 0"/>
<feBlend mode="normal" in2="BackgroundImageFix" result="effect1_dropShadow_1818_9638"/>
<feBlend mode="normal" in="SourceGraphic" in2="effect1_dropShadow_1818_9638" result="shape"/>
</filter>
<linearGradient id="paint0_linear_1818_9638" x1="361" y1="154.598" x2="361" y2="313" gradientUnits="userSpaceOnUse">
<stop stop-color="#0B224E"/>
<stop offset="0.973392" stop-color="#01787B"/>
</linearGradient>
</defs>
</svg>
