<svg width="1440" height="609" viewBox="0 0 1440 609" fill="none" xmlns="http://www.w3.org/2000/svg">
<rect width="1440" height="608" transform="translate(0 0.012207)" fill="white"/>
<circle opacity="0.4" cx="1026.4" cy="268.012" r="93" fill="#9BDCC7"/>
<path d="M332.25 250.56L598.678 332.543L394.465 522.286L332.25 250.56Z" fill="#DCF2EA"/>
<path d="M513.674 233.126L486.424 227.254L486.529 226.765L473.75 224.012L482.524 214.322L482.154 213.987L500.864 193.323L501.234 193.659L519.945 172.995L519.574 172.659L538.284 151.996L538.655 152.331L557.365 131.668L556.994 131.332L575.705 110.669L576.075 111.004L594.786 90.3408L594.415 90.0052L613.125 69.3417L613.496 69.6773L632.206 49.0137L631.835 48.6781L650.546 28.0145L650.916 28.3501L659.69 18.6603L663.695 31.1036L664.171 30.9504L672.711 57.4858L672.235 57.6389L680.775 84.1742L681.251 84.021L689.791 110.556L689.315 110.71L697.855 137.245L698.331 137.092L706.871 163.627L706.395 163.78L714.935 190.315L715.411 190.162L723.951 216.698L723.475 216.851L732.015 243.386L732.491 243.233L741.031 269.768L740.555 269.921L744.56 282.365L731.781 279.611L731.676 280.1L704.426 274.228L704.531 273.739L677.281 267.868L677.176 268.356L649.925 262.485L650.031 261.996L622.78 256.124L622.675 256.613L595.425 250.741L595.53 250.252L568.28 244.381L568.174 244.869L540.924 238.998L541.029 238.509L513.779 232.637L513.674 233.126Z" stroke="black" stroke-dasharray="30 30"/>
<g filter="url(#filter0_b_1818_9601)">
<rect x="359" y="156" width="722" height="356" rx="19" fill="#FEFEFE" fill-opacity="0.6"/>
<path d="M643.36 261.392C640.635 261.392 638.171 260.925 635.968 259.992C633.803 259.059 632.085 257.715 630.816 255.96C629.547 254.205 628.893 252.133 628.856 249.744H637.256C637.368 251.349 637.928 252.619 638.936 253.552C639.981 254.485 641.4 254.952 643.192 254.952C645.021 254.952 646.459 254.523 647.504 253.664C648.549 252.768 649.072 251.611 649.072 250.192C649.072 249.035 648.717 248.083 648.008 247.336C647.299 246.589 646.403 246.011 645.32 245.6C644.275 245.152 642.819 244.667 640.952 244.144C638.413 243.397 636.341 242.669 634.736 241.96C633.168 241.213 631.805 240.112 630.648 238.656C629.528 237.163 628.968 235.184 628.968 232.72C628.968 230.405 629.547 228.389 630.704 226.672C631.861 224.955 633.485 223.648 635.576 222.752C637.667 221.819 640.056 221.352 642.744 221.352C646.776 221.352 650.043 222.341 652.544 224.32C655.083 226.261 656.483 228.987 656.744 232.496H648.12C648.045 231.152 647.467 230.051 646.384 229.192C645.339 228.296 643.939 227.848 642.184 227.848C640.653 227.848 639.421 228.24 638.488 229.024C637.592 229.808 637.144 230.947 637.144 232.44C637.144 233.485 637.48 234.363 638.152 235.072C638.861 235.744 639.72 236.304 640.728 236.752C641.773 237.163 643.229 237.648 645.096 238.208C647.635 238.955 649.707 239.701 651.312 240.448C652.917 241.195 654.299 242.315 655.456 243.808C656.613 245.301 657.192 247.261 657.192 249.688C657.192 251.779 656.651 253.72 655.568 255.512C654.485 257.304 652.899 258.741 650.808 259.824C648.717 260.869 646.235 261.392 643.36 261.392ZM692.493 234.008C692.493 236.099 691.989 238.059 690.981 239.888C690.01 241.717 688.461 243.192 686.333 244.312C684.242 245.432 681.592 245.992 678.381 245.992H671.829V261H663.989V221.912H678.381C681.405 221.912 683.981 222.435 686.109 223.48C688.237 224.525 689.824 225.963 690.869 227.792C691.952 229.621 692.493 231.693 692.493 234.008ZM678.045 239.664C680.21 239.664 681.816 239.179 682.861 238.208C683.906 237.2 684.429 235.8 684.429 234.008C684.429 230.2 682.301 228.296 678.045 228.296H671.829V239.664H678.045ZM722.027 253.552H706.459L703.883 261H695.651L709.707 221.856H718.835L732.891 261H724.603L722.027 253.552ZM719.899 247.28L714.243 230.928L708.587 247.28H719.899ZM758.305 261L749.681 245.768H745.985V261H738.145V221.912H752.817C755.841 221.912 758.417 222.453 760.545 223.536C762.673 224.581 764.26 226.019 765.305 227.848C766.388 229.64 766.929 231.656 766.929 233.896C766.929 236.472 766.183 238.805 764.689 240.896C763.196 242.949 760.975 244.368 758.025 245.152L767.377 261H758.305ZM745.985 239.888H752.537C754.665 239.888 756.252 239.384 757.297 238.376C758.343 237.331 758.865 235.893 758.865 234.064C758.865 232.272 758.343 230.891 757.297 229.92C756.252 228.912 754.665 228.408 752.537 228.408H745.985V239.888ZM772.116 241.4C772.116 237.555 772.975 234.12 774.692 231.096C776.447 228.035 778.818 225.664 781.804 223.984C784.828 222.267 788.207 221.408 791.94 221.408C796.308 221.408 800.135 222.528 803.42 224.768C806.706 227.008 809.002 230.107 810.308 234.064H801.292C800.396 232.197 799.127 230.797 797.484 229.864C795.879 228.931 794.012 228.464 791.884 228.464C789.607 228.464 787.572 229.005 785.78 230.088C784.026 231.133 782.644 232.627 781.636 234.568C780.666 236.509 780.18 238.787 780.18 241.4C780.18 243.976 780.666 246.253 781.636 248.232C782.644 250.173 784.026 251.685 785.78 252.768C787.572 253.813 789.607 254.336 791.884 254.336C794.012 254.336 795.879 253.869 797.484 252.936C799.127 251.965 800.396 250.547 801.292 248.68H810.308C809.002 252.675 806.706 255.792 803.42 258.032C800.172 260.235 796.346 261.336 791.94 261.336C788.207 261.336 784.828 260.496 781.804 258.816C778.818 257.099 776.447 254.728 774.692 251.704C772.975 248.68 772.116 245.245 772.116 241.4Z" fill="#121212"/>
<path d="M418.899 315.06V316.54H415.099V329H413.279V316.54H409.459V315.06H418.899ZM426.58 317.84C427.406 317.84 428.153 318.02 428.82 318.38C429.486 318.727 430.006 319.253 430.38 319.96C430.766 320.667 430.96 321.527 430.96 322.54V329H429.16V322.8C429.16 321.707 428.886 320.873 428.34 320.3C427.793 319.713 427.046 319.42 426.1 319.42C425.14 319.42 424.373 319.72 423.8 320.32C423.24 320.92 422.96 321.793 422.96 322.94V329H421.14V314.2H422.96V319.6C423.32 319.04 423.813 318.607 424.44 318.3C425.08 317.993 425.793 317.84 426.58 317.84ZM443.933 323.1C443.933 323.447 443.913 323.813 443.873 324.2H435.113C435.179 325.28 435.546 326.127 436.213 326.74C436.893 327.34 437.713 327.64 438.673 327.64C439.459 327.64 440.113 327.46 440.633 327.1C441.166 326.727 441.539 326.233 441.753 325.62H443.713C443.419 326.673 442.833 327.533 441.953 328.2C441.073 328.853 439.979 329.18 438.673 329.18C437.633 329.18 436.699 328.947 435.873 328.48C435.059 328.013 434.419 327.353 433.953 326.5C433.486 325.633 433.253 324.633 433.253 323.5C433.253 322.367 433.479 321.373 433.933 320.52C434.386 319.667 435.019 319.013 435.833 318.56C436.659 318.093 437.606 317.86 438.673 317.86C439.713 317.86 440.633 318.087 441.433 318.54C442.233 318.993 442.846 319.62 443.273 320.42C443.713 321.207 443.933 322.1 443.933 323.1ZM442.053 322.72C442.053 322.027 441.899 321.433 441.593 320.94C441.286 320.433 440.866 320.053 440.333 319.8C439.813 319.533 439.233 319.4 438.593 319.4C437.673 319.4 436.886 319.693 436.233 320.28C435.593 320.867 435.226 321.68 435.133 322.72H442.053ZM455.547 329.18C454.707 329.18 453.954 329.04 453.287 328.76C452.62 328.467 452.094 328.067 451.707 327.56C451.32 327.04 451.107 326.447 451.067 325.78H452.947C453 326.327 453.254 326.773 453.707 327.12C454.174 327.467 454.78 327.64 455.527 327.64C456.22 327.64 456.767 327.487 457.167 327.18C457.567 326.873 457.767 326.487 457.767 326.02C457.767 325.54 457.554 325.187 457.127 324.96C456.7 324.72 456.04 324.487 455.147 324.26C454.334 324.047 453.667 323.833 453.147 323.62C452.64 323.393 452.2 323.067 451.827 322.64C451.467 322.2 451.287 321.627 451.287 320.92C451.287 320.36 451.454 319.847 451.787 319.38C452.12 318.913 452.594 318.547 453.207 318.28C453.82 318 454.52 317.86 455.307 317.86C456.52 317.86 457.5 318.167 458.247 318.78C458.994 319.393 459.394 320.233 459.447 321.3H457.627C457.587 320.727 457.354 320.267 456.927 319.92C456.514 319.573 455.954 319.4 455.247 319.4C454.594 319.4 454.074 319.54 453.687 319.82C453.3 320.1 453.107 320.467 453.107 320.92C453.107 321.28 453.22 321.58 453.447 321.82C453.687 322.047 453.98 322.233 454.327 322.38C454.687 322.513 455.18 322.667 455.807 322.84C456.594 323.053 457.234 323.267 457.727 323.48C458.22 323.68 458.64 323.987 458.987 324.4C459.347 324.813 459.534 325.353 459.547 326.02C459.547 326.62 459.38 327.16 459.047 327.64C458.714 328.12 458.24 328.5 457.627 328.78C457.027 329.047 456.334 329.18 455.547 329.18ZM472.116 323.1C472.116 323.447 472.096 323.813 472.056 324.2H463.296C463.363 325.28 463.73 326.127 464.396 326.74C465.076 327.34 465.896 327.64 466.856 327.64C467.643 327.64 468.296 327.46 468.816 327.1C469.35 326.727 469.723 326.233 469.936 325.62H471.896C471.603 326.673 471.016 327.533 470.136 328.2C469.256 328.853 468.163 329.18 466.856 329.18C465.816 329.18 464.883 328.947 464.056 328.48C463.243 328.013 462.603 327.353 462.136 326.5C461.67 325.633 461.436 324.633 461.436 323.5C461.436 322.367 461.663 321.373 462.116 320.52C462.57 319.667 463.203 319.013 464.016 318.56C464.843 318.093 465.79 317.86 466.856 317.86C467.896 317.86 468.816 318.087 469.616 318.54C470.416 318.993 471.03 319.62 471.456 320.42C471.896 321.207 472.116 322.1 472.116 323.1ZM470.236 322.72C470.236 322.027 470.083 321.433 469.776 320.94C469.47 320.433 469.05 320.053 468.516 319.8C467.996 319.533 467.416 319.4 466.776 319.4C465.856 319.4 465.07 319.693 464.416 320.28C463.776 320.867 463.41 321.68 463.316 322.72H470.236ZM473.839 323.48C473.839 322.36 474.065 321.38 474.519 320.54C474.972 319.687 475.592 319.027 476.379 318.56C477.179 318.093 478.065 317.86 479.039 317.86C479.999 317.86 480.832 318.067 481.539 318.48C482.245 318.893 482.772 319.413 483.119 320.04V318.04H484.959V329H483.119V326.96C482.759 327.6 482.219 328.133 481.499 328.56C480.792 328.973 479.965 329.18 479.019 329.18C478.045 329.18 477.165 328.94 476.379 328.46C475.592 327.98 474.972 327.307 474.519 326.44C474.065 325.573 473.839 324.587 473.839 323.48ZM483.119 323.5C483.119 322.673 482.952 321.953 482.619 321.34C482.285 320.727 481.832 320.26 481.259 319.94C480.699 319.607 480.079 319.44 479.399 319.44C478.719 319.44 478.099 319.6 477.539 319.92C476.979 320.24 476.532 320.707 476.199 321.32C475.865 321.933 475.699 322.653 475.699 323.48C475.699 324.32 475.865 325.053 476.199 325.68C476.532 326.293 476.979 326.767 477.539 327.1C478.099 327.42 478.719 327.58 479.399 327.58C480.079 327.58 480.699 327.42 481.259 327.1C481.832 326.767 482.285 326.293 482.619 325.68C482.952 325.053 483.119 324.327 483.119 323.5ZM501.214 317.84C502.067 317.84 502.827 318.02 503.494 318.38C504.161 318.727 504.687 319.253 505.074 319.96C505.461 320.667 505.654 321.527 505.654 322.54V329H503.854V322.8C503.854 321.707 503.581 320.873 503.034 320.3C502.501 319.713 501.774 319.42 500.854 319.42C499.907 319.42 499.154 319.727 498.594 320.34C498.034 320.94 497.754 321.813 497.754 322.96V329H495.954V322.8C495.954 321.707 495.681 320.873 495.134 320.3C494.601 319.713 493.874 319.42 492.954 319.42C492.007 319.42 491.254 319.727 490.694 320.34C490.134 320.94 489.854 321.813 489.854 322.96V329H488.034V318.04H489.854V319.62C490.214 319.047 490.694 318.607 491.294 318.3C491.907 317.993 492.581 317.84 493.314 317.84C494.234 317.84 495.047 318.047 495.754 318.46C496.461 318.873 496.987 319.48 497.334 320.28C497.641 319.507 498.147 318.907 498.854 318.48C499.561 318.053 500.347 317.84 501.214 317.84ZM510.46 314.2V329H508.64V314.2H510.46ZM523.561 323.1C523.561 323.447 523.541 323.813 523.501 324.2H514.741C514.808 325.28 515.175 326.127 515.841 326.74C516.521 327.34 517.341 327.64 518.301 327.64C519.088 327.64 519.741 327.46 520.261 327.1C520.795 326.727 521.168 326.233 521.381 325.62H523.341C523.048 326.673 522.461 327.533 521.581 328.2C520.701 328.853 519.608 329.18 518.301 329.18C517.261 329.18 516.328 328.947 515.501 328.48C514.688 328.013 514.048 327.353 513.581 326.5C513.115 325.633 512.881 324.633 512.881 323.5C512.881 322.367 513.108 321.373 513.561 320.52C514.015 319.667 514.648 319.013 515.461 318.56C516.288 318.093 517.235 317.86 518.301 317.86C519.341 317.86 520.261 318.087 521.061 318.54C521.861 318.993 522.475 319.62 522.901 320.42C523.341 321.207 523.561 322.1 523.561 323.1ZM521.681 322.72C521.681 322.027 521.528 321.433 521.221 320.94C520.915 320.433 520.495 320.053 519.961 319.8C519.441 319.533 518.861 319.4 518.221 319.4C517.301 319.4 516.515 319.693 515.861 320.28C515.221 320.867 514.855 321.68 514.761 322.72H521.681ZM529.844 329.18C529.004 329.18 528.25 329.04 527.584 328.76C526.917 328.467 526.39 328.067 526.004 327.56C525.617 327.04 525.404 326.447 525.364 325.78H527.244C527.297 326.327 527.55 326.773 528.004 327.12C528.47 327.467 529.077 327.64 529.824 327.64C530.517 327.64 531.064 327.487 531.464 327.18C531.864 326.873 532.064 326.487 532.064 326.02C532.064 325.54 531.85 325.187 531.424 324.96C530.997 324.72 530.337 324.487 529.444 324.26C528.63 324.047 527.964 323.833 527.444 323.62C526.937 323.393 526.497 323.067 526.124 322.64C525.764 322.2 525.584 321.627 525.584 320.92C525.584 320.36 525.75 319.847 526.084 319.38C526.417 318.913 526.89 318.547 527.504 318.28C528.117 318 528.817 317.86 529.604 317.86C530.817 317.86 531.797 318.167 532.544 318.78C533.29 319.393 533.69 320.233 533.744 321.3H531.924C531.884 320.727 531.65 320.267 531.224 319.92C530.81 319.573 530.25 319.4 529.544 319.4C528.89 319.4 528.37 319.54 527.984 319.82C527.597 320.1 527.404 320.467 527.404 320.92C527.404 321.28 527.517 321.58 527.744 321.82C527.984 322.047 528.277 322.233 528.624 322.38C528.984 322.513 529.477 322.667 530.104 322.84C530.89 323.053 531.53 323.267 532.024 323.48C532.517 323.68 532.937 323.987 533.284 324.4C533.644 324.813 533.83 325.353 533.844 326.02C533.844 326.62 533.677 327.16 533.344 327.64C533.01 328.12 532.537 328.5 531.924 328.78C531.324 329.047 530.63 329.18 529.844 329.18ZM540.293 329.18C539.453 329.18 538.7 329.04 538.033 328.76C537.366 328.467 536.84 328.067 536.453 327.56C536.066 327.04 535.853 326.447 535.813 325.78H537.693C537.746 326.327 538 326.773 538.453 327.12C538.92 327.467 539.526 327.64 540.273 327.64C540.966 327.64 541.513 327.487 541.913 327.18C542.313 326.873 542.513 326.487 542.513 326.02C542.513 325.54 542.3 325.187 541.873 324.96C541.446 324.72 540.786 324.487 539.893 324.26C539.08 324.047 538.413 323.833 537.893 323.62C537.386 323.393 536.946 323.067 536.573 322.64C536.213 322.2 536.033 321.627 536.033 320.92C536.033 320.36 536.2 319.847 536.533 319.38C536.866 318.913 537.34 318.547 537.953 318.28C538.566 318 539.266 317.86 540.053 317.86C541.266 317.86 542.246 318.167 542.993 318.78C543.74 319.393 544.14 320.233 544.193 321.3H542.373C542.333 320.727 542.1 320.267 541.673 319.92C541.26 319.573 540.7 319.4 539.993 319.4C539.34 319.4 538.82 319.54 538.433 319.82C538.046 320.1 537.853 320.467 537.853 320.92C537.853 321.28 537.966 321.58 538.193 321.82C538.433 322.047 538.726 322.233 539.073 322.38C539.433 322.513 539.926 322.667 540.553 322.84C541.34 323.053 541.98 323.267 542.473 323.48C542.966 323.68 543.386 323.987 543.733 324.4C544.093 324.813 544.28 325.353 544.293 326.02C544.293 326.62 544.126 327.16 543.793 327.64C543.46 328.12 542.986 328.5 542.373 328.78C541.773 329.047 541.08 329.18 540.293 329.18ZM554.014 320.08C554.388 319.427 554.934 318.893 555.654 318.48C556.374 318.067 557.194 317.86 558.114 317.86C559.101 317.86 559.988 318.093 560.774 318.56C561.561 319.027 562.181 319.687 562.634 320.54C563.088 321.38 563.314 322.36 563.314 323.48C563.314 324.587 563.088 325.573 562.634 326.44C562.181 327.307 561.554 327.98 560.754 328.46C559.968 328.94 559.088 329.18 558.114 329.18C557.168 329.18 556.334 328.973 555.614 328.56C554.908 328.147 554.374 327.62 554.014 326.98V329H552.194V314.2H554.014V320.08ZM561.454 323.48C561.454 322.653 561.288 321.933 560.954 321.32C560.621 320.707 560.168 320.24 559.594 319.92C559.034 319.6 558.414 319.44 557.734 319.44C557.068 319.44 556.448 319.607 555.874 319.94C555.314 320.26 554.861 320.733 554.514 321.36C554.181 321.973 554.014 322.687 554.014 323.5C554.014 324.327 554.181 325.053 554.514 325.68C554.861 326.293 555.314 326.767 555.874 327.1C556.448 327.42 557.068 327.58 557.734 327.58C558.414 327.58 559.034 327.42 559.594 327.1C560.168 326.767 560.621 326.293 560.954 325.68C561.288 325.053 561.454 324.32 561.454 323.48ZM565.03 323.48C565.03 322.36 565.257 321.38 565.71 320.54C566.163 319.687 566.783 319.027 567.57 318.56C568.37 318.093 569.257 317.86 570.23 317.86C571.19 317.86 572.023 318.067 572.73 318.48C573.437 318.893 573.963 319.413 574.31 320.04V318.04H576.15V329H574.31V326.96C573.95 327.6 573.41 328.133 572.69 328.56C571.983 328.973 571.157 329.18 570.21 329.18C569.237 329.18 568.357 328.94 567.57 328.46C566.783 327.98 566.163 327.307 565.71 326.44C565.257 325.573 565.03 324.587 565.03 323.48ZM574.31 323.5C574.31 322.673 574.143 321.953 573.81 321.34C573.477 320.727 573.023 320.26 572.45 319.94C571.89 319.607 571.27 319.44 570.59 319.44C569.91 319.44 569.29 319.6 568.73 319.92C568.17 320.24 567.723 320.707 567.39 321.32C567.057 321.933 566.89 322.653 566.89 323.48C566.89 324.32 567.057 325.053 567.39 325.68C567.723 326.293 568.17 326.767 568.73 327.1C569.29 327.42 569.91 327.58 570.59 327.58C571.27 327.58 571.89 327.42 572.45 327.1C573.023 326.767 573.477 326.293 573.81 325.68C574.143 325.053 574.31 324.327 574.31 323.5ZM578.546 323.5C578.546 322.367 578.772 321.38 579.226 320.54C579.679 319.687 580.306 319.027 581.106 318.56C581.919 318.093 582.846 317.86 583.886 317.86C585.232 317.86 586.339 318.187 587.206 318.84C588.086 319.493 588.666 320.4 588.946 321.56H586.986C586.799 320.893 586.432 320.367 585.886 319.98C585.352 319.593 584.686 319.4 583.886 319.4C582.846 319.4 582.006 319.76 581.366 320.48C580.726 321.187 580.406 322.193 580.406 323.5C580.406 324.82 580.726 325.84 581.366 326.56C582.006 327.28 582.846 327.64 583.886 327.64C584.686 327.64 585.352 327.453 585.886 327.08C586.419 326.707 586.786 326.173 586.986 325.48H588.946C588.652 326.6 588.066 327.5 587.186 328.18C586.306 328.847 585.206 329.18 583.886 329.18C582.846 329.18 581.919 328.947 581.106 328.48C580.306 328.013 579.679 327.353 579.226 326.5C578.772 325.647 578.546 324.647 578.546 323.5ZM597.494 329L593.194 324.16V329H591.374V314.2H593.194V322.9L597.414 318.04H599.954L594.794 323.5L599.974 329H597.494ZM611.667 323.1C611.667 323.447 611.647 323.813 611.607 324.2H602.847C602.914 325.28 603.28 326.127 603.947 326.74C604.627 327.34 605.447 327.64 606.407 327.64C607.194 327.64 607.847 327.46 608.367 327.1C608.9 326.727 609.274 326.233 609.487 325.62H611.447C611.154 326.673 610.567 327.533 609.687 328.2C608.807 328.853 607.714 329.18 606.407 329.18C605.367 329.18 604.434 328.947 603.607 328.48C602.794 328.013 602.154 327.353 601.687 326.5C601.22 325.633 600.987 324.633 600.987 323.5C600.987 322.367 601.214 321.373 601.667 320.52C602.12 319.667 602.754 319.013 603.567 318.56C604.394 318.093 605.34 317.86 606.407 317.86C607.447 317.86 608.367 318.087 609.167 318.54C609.967 318.993 610.58 319.62 611.007 320.42C611.447 321.207 611.667 322.1 611.667 323.1ZM609.787 322.72C609.787 322.027 609.634 321.433 609.327 320.94C609.02 320.433 608.6 320.053 608.067 319.8C607.547 319.533 606.967 319.4 606.327 319.4C605.407 319.4 604.62 319.693 603.967 320.28C603.327 320.867 602.96 321.68 602.867 322.72H609.787ZM619.409 317.84C620.743 317.84 621.823 318.247 622.649 319.06C623.476 319.86 623.889 321.02 623.889 322.54V329H622.089V322.8C622.089 321.707 621.816 320.873 621.269 320.3C620.723 319.713 619.976 319.42 619.029 319.42C618.069 319.42 617.303 319.72 616.729 320.32C616.169 320.92 615.889 321.793 615.889 322.94V329H614.069V318.04H615.889V319.6C616.249 319.04 616.736 318.607 617.349 318.3C617.976 317.993 618.663 317.84 619.409 317.84ZM626.182 323.48C626.182 322.36 626.409 321.38 626.862 320.54C627.316 319.687 627.936 319.027 628.722 318.56C629.522 318.093 630.416 317.86 631.402 317.86C632.256 317.86 633.049 318.06 633.782 318.46C634.516 318.847 635.076 319.36 635.462 320V314.2H637.302V329H635.462V326.94C635.102 327.593 634.569 328.133 633.862 328.56C633.156 328.973 632.329 329.18 631.382 329.18C630.409 329.18 629.522 328.94 628.722 328.46C627.936 327.98 627.316 327.307 626.862 326.44C626.409 325.573 626.182 324.587 626.182 323.48ZM635.462 323.5C635.462 322.673 635.296 321.953 634.962 321.34C634.629 320.727 634.176 320.26 633.602 319.94C633.042 319.607 632.422 319.44 631.742 319.44C631.062 319.44 630.442 319.6 629.882 319.92C629.322 320.24 628.876 320.707 628.542 321.32C628.209 321.933 628.042 322.653 628.042 323.48C628.042 324.32 628.209 325.053 628.542 325.68C628.876 326.293 629.322 326.767 629.882 327.1C630.442 327.42 631.062 327.58 631.742 327.58C632.422 327.58 633.042 327.42 633.602 327.1C634.176 326.767 634.629 326.293 634.962 325.68C635.296 325.053 635.462 324.327 635.462 323.5ZM647.53 320.06C647.89 319.433 648.423 318.913 649.13 318.5C649.85 318.073 650.683 317.86 651.63 317.86C652.603 317.86 653.483 318.093 654.27 318.56C655.07 319.027 655.697 319.687 656.15 320.54C656.603 321.38 656.83 322.36 656.83 323.48C656.83 324.587 656.603 325.573 656.15 326.44C655.697 327.307 655.07 327.98 654.27 328.46C653.483 328.94 652.603 329.18 651.63 329.18C650.697 329.18 649.87 328.973 649.15 328.56C648.443 328.133 647.903 327.607 647.53 326.98V334.2H645.71V318.04H647.53V320.06ZM654.97 323.48C654.97 322.653 654.803 321.933 654.47 321.32C654.137 320.707 653.683 320.24 653.11 319.92C652.55 319.6 651.93 319.44 651.25 319.44C650.583 319.44 649.963 319.607 649.39 319.94C648.83 320.26 648.377 320.733 648.03 321.36C647.697 321.973 647.53 322.687 647.53 323.5C647.53 324.327 647.697 325.053 648.03 325.68C648.377 326.293 648.83 326.767 649.39 327.1C649.963 327.42 650.583 327.58 651.25 327.58C651.93 327.58 652.55 327.42 653.11 327.1C653.683 326.767 654.137 326.293 654.47 325.68C654.803 325.053 654.97 324.32 654.97 323.48ZM661.046 314.2V329H659.226V314.2H661.046ZM663.467 323.48C663.467 322.36 663.694 321.38 664.147 320.54C664.601 319.687 665.221 319.027 666.007 318.56C666.807 318.093 667.694 317.86 668.667 317.86C669.627 317.86 670.461 318.067 671.167 318.48C671.874 318.893 672.401 319.413 672.747 320.04V318.04H674.587V329H672.747V326.96C672.387 327.6 671.847 328.133 671.127 328.56C670.421 328.973 669.594 329.18 668.647 329.18C667.674 329.18 666.794 328.94 666.007 328.46C665.221 327.98 664.601 327.307 664.147 326.44C663.694 325.573 663.467 324.587 663.467 323.48ZM672.747 323.5C672.747 322.673 672.581 321.953 672.247 321.34C671.914 320.727 671.461 320.26 670.887 319.94C670.327 319.607 669.707 319.44 669.027 319.44C668.347 319.44 667.727 319.6 667.167 319.92C666.607 320.24 666.161 320.707 665.827 321.32C665.494 321.933 665.327 322.653 665.327 323.48C665.327 324.32 665.494 325.053 665.827 325.68C666.161 326.293 666.607 326.767 667.167 327.1C667.727 327.42 668.347 327.58 669.027 327.58C669.707 327.58 670.327 327.42 670.887 327.1C671.461 326.767 671.914 326.293 672.247 325.68C672.581 325.053 672.747 324.327 672.747 323.5ZM679.883 319.54V326C679.883 326.533 679.996 326.913 680.223 327.14C680.45 327.353 680.843 327.46 681.403 327.46H682.743V329H681.103C680.09 329 679.33 328.767 678.823 328.3C678.316 327.833 678.063 327.067 678.063 326V319.54H676.643V318.04H678.063V315.28H679.883V318.04H682.743V319.54H679.883ZM689.408 319.54H687.108V329H685.288V319.54H683.868V318.04H685.288V317.26C685.288 316.033 685.602 315.14 686.228 314.58C686.868 314.007 687.888 313.72 689.288 313.72V315.24C688.488 315.24 687.922 315.4 687.588 315.72C687.268 316.027 687.108 316.54 687.108 317.26V318.04H689.408V319.54ZM696.31 329.18C695.284 329.18 694.35 328.947 693.51 328.48C692.684 328.013 692.03 327.353 691.55 326.5C691.084 325.633 690.85 324.633 690.85 323.5C690.85 322.38 691.09 321.393 691.57 320.54C692.064 319.673 692.73 319.013 693.57 318.56C694.41 318.093 695.35 317.86 696.39 317.86C697.43 317.86 698.37 318.093 699.21 318.56C700.05 319.013 700.71 319.667 701.19 320.52C701.684 321.373 701.93 322.367 701.93 323.5C701.93 324.633 701.677 325.633 701.17 326.5C700.677 327.353 700.004 328.013 699.15 328.48C698.297 328.947 697.35 329.18 696.31 329.18ZM696.31 327.58C696.964 327.58 697.577 327.427 698.15 327.12C698.724 326.813 699.184 326.353 699.53 325.74C699.89 325.127 700.07 324.38 700.07 323.5C700.07 322.62 699.897 321.873 699.55 321.26C699.204 320.647 698.75 320.193 698.19 319.9C697.63 319.593 697.024 319.44 696.37 319.44C695.704 319.44 695.09 319.593 694.53 319.9C693.984 320.193 693.544 320.647 693.21 321.26C692.877 321.873 692.71 322.62 692.71 323.5C692.71 324.393 692.87 325.147 693.19 325.76C693.524 326.373 693.964 326.833 694.51 327.14C695.057 327.433 695.657 327.58 696.31 327.58ZM706.143 319.82C706.463 319.193 706.917 318.707 707.503 318.36C708.103 318.013 708.83 317.84 709.683 317.84V319.72H709.203C707.163 319.72 706.143 320.827 706.143 323.04V329H704.323V318.04H706.143V319.82ZM724.964 317.84C725.817 317.84 726.577 318.02 727.244 318.38C727.911 318.727 728.437 319.253 728.824 319.96C729.211 320.667 729.404 321.527 729.404 322.54V329H727.604V322.8C727.604 321.707 727.331 320.873 726.784 320.3C726.251 319.713 725.524 319.42 724.604 319.42C723.657 319.42 722.904 319.727 722.344 320.34C721.784 320.94 721.504 321.813 721.504 322.96V329H719.704V322.8C719.704 321.707 719.431 320.873 718.884 320.3C718.351 319.713 717.624 319.42 716.704 319.42C715.757 319.42 715.004 319.727 714.444 320.34C713.884 320.94 713.604 321.813 713.604 322.96V329H711.784V318.04H713.604V319.62C713.964 319.047 714.444 318.607 715.044 318.3C715.657 317.993 716.331 317.84 717.064 317.84C717.984 317.84 718.797 318.047 719.504 318.46C720.211 318.873 720.737 319.48 721.084 320.28C721.391 319.507 721.897 318.907 722.604 318.48C723.311 318.053 724.097 317.84 724.964 317.84ZM752.322 318.04L748.902 329H747.022L744.382 320.3L741.742 329H739.862L736.422 318.04H738.282L740.802 327.24L743.522 318.04H745.382L748.042 327.26L750.522 318.04H752.322ZM759.568 317.84C760.395 317.84 761.141 318.02 761.808 318.38C762.475 318.727 762.995 319.253 763.368 319.96C763.755 320.667 763.948 321.527 763.948 322.54V329H762.148V322.8C762.148 321.707 761.875 320.873 761.328 320.3C760.781 319.713 760.035 319.42 759.088 319.42C758.128 319.42 757.361 319.72 756.788 320.32C756.228 320.92 755.948 321.793 755.948 322.94V329H754.128V314.2H755.948V319.6C756.308 319.04 756.801 318.607 757.428 318.3C758.068 317.993 758.781 317.84 759.568 317.84ZM767.861 316.26C767.514 316.26 767.221 316.14 766.981 315.9C766.741 315.66 766.621 315.367 766.621 315.02C766.621 314.673 766.741 314.38 766.981 314.14C767.221 313.9 767.514 313.78 767.861 313.78C768.194 313.78 768.474 313.9 768.701 314.14C768.941 314.38 769.061 314.673 769.061 315.02C769.061 315.367 768.941 315.66 768.701 315.9C768.474 316.14 768.194 316.26 767.861 316.26ZM768.741 318.04V329H766.921V318.04H768.741ZM771.163 323.5C771.163 322.367 771.389 321.38 771.843 320.54C772.296 319.687 772.923 319.027 773.723 318.56C774.536 318.093 775.463 317.86 776.503 317.86C777.849 317.86 778.956 318.187 779.823 318.84C780.703 319.493 781.283 320.4 781.563 321.56H779.603C779.416 320.893 779.049 320.367 778.503 319.98C777.969 319.593 777.303 319.4 776.503 319.4C775.463 319.4 774.623 319.76 773.983 320.48C773.343 321.187 773.023 322.193 773.023 323.5C773.023 324.82 773.343 325.84 773.983 326.56C774.623 327.28 775.463 327.64 776.503 327.64C777.303 327.64 777.969 327.453 778.503 327.08C779.036 326.707 779.403 326.173 779.603 325.48H781.563C781.269 326.6 780.683 327.5 779.803 328.18C778.923 328.847 777.823 329.18 776.503 329.18C775.463 329.18 774.536 328.947 773.723 328.48C772.923 328.013 772.296 327.353 771.843 326.5C771.389 325.647 771.163 324.647 771.163 323.5ZM789.431 317.84C790.258 317.84 791.005 318.02 791.671 318.38C792.338 318.727 792.858 319.253 793.231 319.96C793.618 320.667 793.811 321.527 793.811 322.54V329H792.011V322.8C792.011 321.707 791.738 320.873 791.191 320.3C790.645 319.713 789.898 319.42 788.951 319.42C787.991 319.42 787.225 319.72 786.651 320.32C786.091 320.92 785.811 321.793 785.811 322.94V329H783.991V314.2H785.811V319.6C786.171 319.04 786.665 318.607 787.291 318.3C787.931 317.993 788.645 317.84 789.431 317.84ZM807.556 317.84C808.383 317.84 809.13 318.02 809.796 318.38C810.463 318.727 810.983 319.253 811.356 319.96C811.743 320.667 811.936 321.527 811.936 322.54V329H810.136V322.8C810.136 321.707 809.863 320.873 809.316 320.3C808.77 319.713 808.023 319.42 807.076 319.42C806.116 319.42 805.35 319.72 804.776 320.32C804.216 320.92 803.936 321.793 803.936 322.94V329H802.116V314.2H803.936V319.6C804.296 319.04 804.79 318.607 805.416 318.3C806.056 317.993 806.77 317.84 807.556 317.84ZM824.909 323.1C824.909 323.447 824.889 323.813 824.849 324.2H816.089C816.156 325.28 816.522 326.127 817.189 326.74C817.869 327.34 818.689 327.64 819.649 327.64C820.436 327.64 821.089 327.46 821.609 327.1C822.142 326.727 822.516 326.233 822.729 325.62H824.689C824.396 326.673 823.809 327.533 822.929 328.2C822.049 328.853 820.956 329.18 819.649 329.18C818.609 329.18 817.676 328.947 816.849 328.48C816.036 328.013 815.396 327.353 814.929 326.5C814.462 325.633 814.229 324.633 814.229 323.5C814.229 322.367 814.456 321.373 814.909 320.52C815.362 319.667 815.996 319.013 816.809 318.56C817.636 318.093 818.582 317.86 819.649 317.86C820.689 317.86 821.609 318.087 822.409 318.54C823.209 318.993 823.822 319.62 824.249 320.42C824.689 321.207 824.909 322.1 824.909 323.1ZM823.029 322.72C823.029 322.027 822.876 321.433 822.569 320.94C822.262 320.433 821.842 320.053 821.309 319.8C820.789 319.533 820.209 319.4 819.569 319.4C818.649 319.4 817.862 319.693 817.209 320.28C816.569 320.867 816.202 321.68 816.109 322.72H823.029ZM829.131 314.2V329H827.311V314.2H829.131ZM834.053 320.06C834.413 319.433 834.947 318.913 835.653 318.5C836.373 318.073 837.207 317.86 838.153 317.86C839.127 317.86 840.007 318.093 840.793 318.56C841.593 319.027 842.22 319.687 842.673 320.54C843.127 321.38 843.353 322.36 843.353 323.48C843.353 324.587 843.127 325.573 842.673 326.44C842.22 327.307 841.593 327.98 840.793 328.46C840.007 328.94 839.127 329.18 838.153 329.18C837.22 329.18 836.393 328.973 835.673 328.56C834.967 328.133 834.427 327.607 834.053 326.98V334.2H832.233V318.04H834.053V320.06ZM841.493 323.48C841.493 322.653 841.327 321.933 840.993 321.32C840.66 320.707 840.207 320.24 839.633 319.92C839.073 319.6 838.453 319.44 837.773 319.44C837.107 319.44 836.487 319.607 835.913 319.94C835.353 320.26 834.9 320.733 834.553 321.36C834.22 321.973 834.053 322.687 834.053 323.5C834.053 324.327 834.22 325.053 834.553 325.68C834.9 326.293 835.353 326.767 835.913 327.1C836.487 327.42 837.107 327.58 837.773 327.58C838.453 327.58 839.073 327.42 839.633 327.1C840.207 326.767 840.66 326.293 840.993 325.68C841.327 325.053 841.493 324.32 841.493 323.48ZM849.629 329.18C848.789 329.18 848.036 329.04 847.369 328.76C846.702 328.467 846.176 328.067 845.789 327.56C845.402 327.04 845.189 326.447 845.149 325.78H847.029C847.082 326.327 847.336 326.773 847.789 327.12C848.256 327.467 848.862 327.64 849.609 327.64C850.302 327.64 850.849 327.487 851.249 327.18C851.649 326.873 851.849 326.487 851.849 326.02C851.849 325.54 851.636 325.187 851.209 324.96C850.782 324.72 850.122 324.487 849.229 324.26C848.416 324.047 847.749 323.833 847.229 323.62C846.722 323.393 846.282 323.067 845.909 322.64C845.549 322.2 845.369 321.627 845.369 320.92C845.369 320.36 845.536 319.847 845.869 319.38C846.202 318.913 846.676 318.547 847.289 318.28C847.902 318 848.602 317.86 849.389 317.86C850.602 317.86 851.582 318.167 852.329 318.78C853.076 319.393 853.476 320.233 853.529 321.3H851.709C851.669 320.727 851.436 320.267 851.009 319.92C850.596 319.573 850.036 319.4 849.329 319.4C848.676 319.4 848.156 319.54 847.769 319.82C847.382 320.1 847.189 320.467 847.189 320.92C847.189 321.28 847.302 321.58 847.529 321.82C847.769 322.047 848.062 322.233 848.409 322.38C848.769 322.513 849.262 322.667 849.889 322.84C850.676 323.053 851.316 323.267 851.809 323.48C852.302 323.68 852.722 323.987 853.069 324.4C853.429 324.813 853.616 325.353 853.629 326.02C853.629 326.62 853.462 327.16 853.129 327.64C852.796 328.12 852.322 328.5 851.709 328.78C851.109 329.047 850.416 329.18 849.629 329.18ZM870.97 318.04L864.37 334.16H862.49L864.65 328.88L860.23 318.04H862.25L865.69 326.92L869.09 318.04H870.97ZM877.58 329.18C876.553 329.18 875.62 328.947 874.78 328.48C873.953 328.013 873.3 327.353 872.82 326.5C872.353 325.633 872.12 324.633 872.12 323.5C872.12 322.38 872.36 321.393 872.84 320.54C873.333 319.673 874 319.013 874.84 318.56C875.68 318.093 876.62 317.86 877.66 317.86C878.7 317.86 879.64 318.093 880.48 318.56C881.32 319.013 881.98 319.667 882.46 320.52C882.953 321.373 883.2 322.367 883.2 323.5C883.2 324.633 882.946 325.633 882.44 326.5C881.946 327.353 881.273 328.013 880.42 328.48C879.566 328.947 878.62 329.18 877.58 329.18ZM877.58 327.58C878.233 327.58 878.846 327.427 879.42 327.12C879.993 326.813 880.453 326.353 880.8 325.74C881.16 325.127 881.34 324.38 881.34 323.5C881.34 322.62 881.166 321.873 880.82 321.26C880.473 320.647 880.02 320.193 879.46 319.9C878.9 319.593 878.293 319.44 877.64 319.44C876.973 319.44 876.36 319.593 875.8 319.9C875.253 320.193 874.813 320.647 874.48 321.26C874.146 321.873 873.98 322.62 873.98 323.5C873.98 324.393 874.14 325.147 874.46 325.76C874.793 326.373 875.233 326.833 875.78 327.14C876.326 327.433 876.926 327.58 877.58 327.58ZM895.313 318.04V329H893.493V327.38C893.146 327.94 892.659 328.38 892.033 328.7C891.419 329.007 890.739 329.16 889.993 329.16C889.139 329.16 888.373 328.987 887.693 328.64C887.013 328.28 886.473 327.747 886.073 327.04C885.686 326.333 885.493 325.473 885.493 324.46V318.04H887.293V324.22C887.293 325.3 887.566 326.133 888.113 326.72C888.659 327.293 889.406 327.58 890.353 327.58C891.326 327.58 892.093 327.28 892.653 326.68C893.213 326.08 893.493 325.207 893.493 324.06V318.04H895.313ZM905.938 319.54V326C905.938 326.533 906.051 326.913 906.278 327.14C906.504 327.353 906.898 327.46 907.458 327.46H908.798V329H907.158C906.144 329 905.384 328.767 904.878 328.3C904.371 327.833 904.118 327.067 904.118 326V319.54H902.698V318.04H904.118V315.28H905.938V318.04H908.798V319.54H905.938ZM912.823 319.82C913.143 319.193 913.596 318.707 914.183 318.36C914.783 318.013 915.51 317.84 916.363 317.84V319.72H915.883C913.843 319.72 912.823 320.827 912.823 323.04V329H911.003V318.04H912.823V319.82ZM917.784 323.48C917.784 322.36 918.01 321.38 918.464 320.54C918.917 319.687 919.537 319.027 920.324 318.56C921.124 318.093 922.01 317.86 922.984 317.86C923.944 317.86 924.777 318.067 925.484 318.48C926.19 318.893 926.717 319.413 927.064 320.04V318.04H928.904V329H927.064V326.96C926.704 327.6 926.164 328.133 925.444 328.56C924.737 328.973 923.91 329.18 922.964 329.18C921.99 329.18 921.11 328.94 920.324 328.46C919.537 327.98 918.917 327.307 918.464 326.44C918.01 325.573 917.784 324.587 917.784 323.48ZM927.064 323.5C927.064 322.673 926.897 321.953 926.564 321.34C926.23 320.727 925.777 320.26 925.204 319.94C924.644 319.607 924.024 319.44 923.344 319.44C922.664 319.44 922.044 319.6 921.484 319.92C920.924 320.24 920.477 320.707 920.144 321.32C919.81 321.933 919.644 322.653 919.644 323.48C919.644 324.32 919.81 325.053 920.144 325.68C920.477 326.293 920.924 326.767 921.484 327.1C922.044 327.42 922.664 327.58 923.344 327.58C924.024 327.58 924.644 327.42 925.204 327.1C925.777 326.767 926.23 326.293 926.564 325.68C926.897 325.053 927.064 324.327 927.064 323.5ZM931.299 323.5C931.299 322.367 931.526 321.38 931.979 320.54C932.433 319.687 933.059 319.027 933.859 318.56C934.673 318.093 935.599 317.86 936.639 317.86C937.986 317.86 939.093 318.187 939.959 318.84C940.839 319.493 941.419 320.4 941.699 321.56H939.739C939.553 320.893 939.186 320.367 938.639 319.98C938.106 319.593 937.439 319.4 936.639 319.4C935.599 319.4 934.759 319.76 934.119 320.48C933.479 321.187 933.159 322.193 933.159 323.5C933.159 324.82 933.479 325.84 934.119 326.56C934.759 327.28 935.599 327.64 936.639 327.64C937.439 327.64 938.106 327.453 938.639 327.08C939.173 326.707 939.539 326.173 939.739 325.48H941.699C941.406 326.6 940.819 327.5 939.939 328.18C939.059 328.847 937.959 329.18 936.639 329.18C935.599 329.18 934.673 328.947 933.859 328.48C933.059 328.013 932.433 327.353 931.979 326.5C931.526 325.647 931.299 324.647 931.299 323.5ZM950.248 329L945.948 324.16V329H944.128V314.2H945.948V322.9L950.168 318.04H952.708L947.548 323.5L952.728 329H950.248ZM959.073 323.48C959.073 322.36 959.3 321.38 959.753 320.54C960.206 319.687 960.826 319.027 961.613 318.56C962.413 318.093 963.3 317.86 964.273 317.86C965.233 317.86 966.066 318.067 966.773 318.48C967.48 318.893 968.006 319.413 968.353 320.04V318.04H970.193V329H968.353V326.96C967.993 327.6 967.453 328.133 966.733 328.56C966.026 328.973 965.2 329.18 964.253 329.18C963.28 329.18 962.4 328.94 961.613 328.46C960.826 327.98 960.206 327.307 959.753 326.44C959.3 325.573 959.073 324.587 959.073 323.48ZM968.353 323.5C968.353 322.673 968.186 321.953 967.853 321.34C967.52 320.727 967.066 320.26 966.493 319.94C965.933 319.607 965.313 319.44 964.633 319.44C963.953 319.44 963.333 319.6 962.773 319.92C962.213 320.24 961.766 320.707 961.433 321.32C961.1 321.933 960.933 322.653 960.933 323.48C960.933 324.32 961.1 325.053 961.433 325.68C961.766 326.293 962.213 326.767 962.773 327.1C963.333 327.42 963.953 327.58 964.633 327.58C965.313 327.58 965.933 327.42 966.493 327.1C967.066 326.767 967.52 326.293 967.853 325.68C968.186 325.053 968.353 324.327 968.353 323.5ZM975.089 314.2V329H973.269V314.2H975.089ZM980.01 314.2V329H978.19V314.2H980.01ZM997.884 318.04L991.284 334.16H989.404L991.564 328.88L987.144 318.04H989.164L992.604 326.92L996.004 318.04H997.884ZM1004.49 329.18C1003.47 329.18 1002.53 328.947 1001.69 328.48C1000.87 328.013 1000.21 327.353 999.734 326.5C999.267 325.633 999.034 324.633 999.034 323.5C999.034 322.38 999.274 321.393 999.754 320.54C1000.25 319.673 1000.91 319.013 1001.75 318.56C1002.59 318.093 1003.53 317.86 1004.57 317.86C1005.61 317.86 1006.55 318.093 1007.39 318.56C1008.23 319.013 1008.89 319.667 1009.37 320.52C1009.87 321.373 1010.11 322.367 1010.11 323.5C1010.11 324.633 1009.86 325.633 1009.35 326.5C1008.86 327.353 1008.19 328.013 1007.33 328.48C1006.48 328.947 1005.53 329.18 1004.49 329.18ZM1004.49 327.58C1005.15 327.58 1005.76 327.427 1006.33 327.12C1006.91 326.813 1007.37 326.353 1007.71 325.74C1008.07 325.127 1008.25 324.38 1008.25 323.5C1008.25 322.62 1008.08 321.873 1007.73 321.26C1007.39 320.647 1006.93 320.193 1006.37 319.9C1005.81 319.593 1005.21 319.44 1004.55 319.44C1003.89 319.44 1003.27 319.593 1002.71 319.9C1002.17 320.193 1001.73 320.647 1001.39 321.26C1001.06 321.873 1000.89 322.62 1000.89 323.5C1000.89 324.393 1001.05 325.147 1001.37 325.76C1001.71 326.373 1002.15 326.833 1002.69 327.14C1003.24 327.433 1003.84 327.58 1004.49 327.58ZM1022.23 318.04V329H1020.41V327.38C1020.06 327.94 1019.57 328.38 1018.95 328.7C1018.33 329.007 1017.65 329.16 1016.91 329.16C1016.05 329.16 1015.29 328.987 1014.61 328.64C1013.93 328.28 1013.39 327.747 1012.99 327.04C1012.6 326.333 1012.41 325.473 1012.41 324.46V318.04H1014.21V324.22C1014.21 325.3 1014.48 326.133 1015.03 326.72C1015.57 327.293 1016.32 327.58 1017.27 327.58C1018.24 327.58 1019.01 327.28 1019.57 326.68C1020.13 326.08 1020.41 325.207 1020.41 324.06V318.04H1022.23ZM1027.12 319.82C1027.44 319.193 1027.89 318.707 1028.48 318.36C1029.08 318.013 1029.81 317.84 1030.66 317.84V319.72H1030.18C1028.14 319.72 1027.12 320.827 1027.12 323.04V329H1025.3V318.04H1027.12V319.82ZM487.774 349.54V356C487.774 356.533 487.887 356.913 488.114 357.14C488.34 357.353 488.734 357.46 489.294 357.46H490.634V359H488.994C487.98 359 487.22 358.767 486.714 358.3C486.207 357.833 485.954 357.067 485.954 356V349.54H484.534V348.04H485.954V345.28H487.774V348.04H490.634V349.54H487.774ZM494.659 349.82C494.979 349.193 495.432 348.707 496.019 348.36C496.619 348.013 497.345 347.84 498.199 347.84V349.72H497.719C495.679 349.72 494.659 350.827 494.659 353.04V359H492.839V348.04H494.659V349.82ZM499.62 353.48C499.62 352.36 499.846 351.38 500.3 350.54C500.753 349.687 501.373 349.027 502.16 348.56C502.96 348.093 503.846 347.86 504.82 347.86C505.78 347.86 506.613 348.067 507.32 348.48C508.026 348.893 508.553 349.413 508.9 350.04V348.04H510.74V359H508.9V356.96C508.54 357.6 508 358.133 507.28 358.56C506.573 358.973 505.746 359.18 504.8 359.18C503.826 359.18 502.946 358.94 502.16 358.46C501.373 357.98 500.753 357.307 500.3 356.44C499.846 355.573 499.62 354.587 499.62 353.48ZM508.9 353.5C508.9 352.673 508.733 351.953 508.4 351.34C508.066 350.727 507.613 350.26 507.04 349.94C506.48 349.607 505.86 349.44 505.18 349.44C504.5 349.44 503.88 349.6 503.32 349.92C502.76 350.24 502.313 350.707 501.98 351.32C501.646 351.933 501.48 352.653 501.48 353.48C501.48 354.32 501.646 355.053 501.98 355.68C502.313 356.293 502.76 356.767 503.32 357.1C503.88 357.42 504.5 357.58 505.18 357.58C505.86 357.58 506.48 357.42 507.04 357.1C507.613 356.767 508.066 356.293 508.4 355.68C508.733 355.053 508.9 354.327 508.9 353.5ZM513.135 353.48C513.135 352.36 513.362 351.38 513.815 350.54C514.269 349.687 514.889 349.027 515.675 348.56C516.475 348.093 517.369 347.86 518.355 347.86C519.209 347.86 520.002 348.06 520.735 348.46C521.469 348.847 522.029 349.36 522.415 350V344.2H524.255V359H522.415V356.94C522.055 357.593 521.522 358.133 520.815 358.56C520.109 358.973 519.282 359.18 518.335 359.18C517.362 359.18 516.475 358.94 515.675 358.46C514.889 357.98 514.269 357.307 513.815 356.44C513.362 355.573 513.135 354.587 513.135 353.48ZM522.415 353.5C522.415 352.673 522.249 351.953 521.915 351.34C521.582 350.727 521.129 350.26 520.555 349.94C519.995 349.607 519.375 349.44 518.695 349.44C518.015 349.44 517.395 349.6 516.835 349.92C516.275 350.24 515.829 350.707 515.495 351.32C515.162 351.933 514.995 352.653 514.995 353.48C514.995 354.32 515.162 355.053 515.495 355.68C515.829 356.293 516.275 356.767 516.835 357.1C517.395 357.42 518.015 357.58 518.695 357.58C519.375 357.58 519.995 357.42 520.555 357.1C521.129 356.767 521.582 356.293 521.915 355.68C522.249 355.053 522.415 354.327 522.415 353.5ZM537.331 353.1C537.331 353.447 537.311 353.813 537.271 354.2H528.511C528.578 355.28 528.944 356.127 529.611 356.74C530.291 357.34 531.111 357.64 532.071 357.64C532.858 357.64 533.511 357.46 534.031 357.1C534.564 356.727 534.938 356.233 535.151 355.62H537.111C536.818 356.673 536.231 357.533 535.351 358.2C534.471 358.853 533.378 359.18 532.071 359.18C531.031 359.18 530.098 358.947 529.271 358.48C528.458 358.013 527.818 357.353 527.351 356.5C526.884 355.633 526.651 354.633 526.651 353.5C526.651 352.367 526.878 351.373 527.331 350.52C527.784 349.667 528.418 349.013 529.231 348.56C530.058 348.093 531.004 347.86 532.071 347.86C533.111 347.86 534.031 348.087 534.831 348.54C535.631 348.993 536.244 349.62 536.671 350.42C537.111 351.207 537.331 352.1 537.331 353.1ZM535.451 352.72C535.451 352.027 535.298 351.433 534.991 350.94C534.684 350.433 534.264 350.053 533.731 349.8C533.211 349.533 532.631 349.4 531.991 349.4C531.071 349.4 530.284 349.693 529.631 350.28C528.991 350.867 528.624 351.68 528.531 352.72H535.451ZM543.613 359.18C542.773 359.18 542.02 359.04 541.353 358.76C540.687 358.467 540.16 358.067 539.773 357.56C539.387 357.04 539.173 356.447 539.133 355.78H541.013C541.067 356.327 541.32 356.773 541.773 357.12C542.24 357.467 542.847 357.64 543.593 357.64C544.287 357.64 544.833 357.487 545.233 357.18C545.633 356.873 545.833 356.487 545.833 356.02C545.833 355.54 545.62 355.187 545.193 354.96C544.767 354.72 544.107 354.487 543.213 354.26C542.4 354.047 541.733 353.833 541.213 353.62C540.707 353.393 540.267 353.067 539.893 352.64C539.533 352.2 539.353 351.627 539.353 350.92C539.353 350.36 539.52 349.847 539.853 349.38C540.187 348.913 540.66 348.547 541.273 348.28C541.887 348 542.587 347.86 543.373 347.86C544.587 347.86 545.567 348.167 546.313 348.78C547.06 349.393 547.46 350.233 547.513 351.3H545.693C545.653 350.727 545.42 350.267 544.993 349.92C544.58 349.573 544.02 349.4 543.313 349.4C542.66 349.4 542.14 349.54 541.753 349.82C541.367 350.1 541.173 350.467 541.173 350.92C541.173 351.28 541.287 351.58 541.513 351.82C541.753 352.047 542.047 352.233 542.393 352.38C542.753 352.513 543.247 352.667 543.873 352.84C544.66 353.053 545.3 353.267 545.793 353.48C546.287 353.68 546.707 353.987 547.053 354.4C547.413 354.813 547.6 355.353 547.613 356.02C547.613 356.62 547.447 357.16 547.113 357.64C546.78 358.12 546.307 358.5 545.693 358.78C545.093 359.047 544.4 359.18 543.613 359.18ZM570.115 348.04L566.695 359H564.815L562.175 350.3L559.535 359H557.655L554.215 348.04H556.075L558.595 357.24L561.315 348.04H563.175L565.835 357.26L568.315 348.04H570.115ZM572.861 346.26C572.514 346.26 572.221 346.14 571.981 345.9C571.741 345.66 571.621 345.367 571.621 345.02C571.621 344.673 571.741 344.38 571.981 344.14C572.221 343.9 572.514 343.78 572.861 343.78C573.194 343.78 573.474 343.9 573.701 344.14C573.941 344.38 574.061 344.673 574.061 345.02C574.061 345.367 573.941 345.66 573.701 345.9C573.474 346.14 573.194 346.26 572.861 346.26ZM573.741 348.04V359H571.921V348.04H573.741ZM579.063 349.54V356C579.063 356.533 579.176 356.913 579.403 357.14C579.629 357.353 580.023 357.46 580.583 357.46H581.923V359H580.283C579.269 359 578.509 358.767 578.003 358.3C577.496 357.833 577.243 357.067 577.243 356V349.54H575.823V348.04H577.243V345.28H579.063V348.04H581.923V349.54H579.063ZM589.568 347.84C590.395 347.84 591.141 348.02 591.808 348.38C592.475 348.727 592.995 349.253 593.368 349.96C593.755 350.667 593.948 351.527 593.948 352.54V359H592.148V352.8C592.148 351.707 591.875 350.873 591.328 350.3C590.781 349.713 590.035 349.42 589.088 349.42C588.128 349.42 587.361 349.72 586.788 350.32C586.228 350.92 585.948 351.793 585.948 352.94V359H584.128V344.2H585.948V349.6C586.308 349.04 586.801 348.607 587.428 348.3C588.068 347.993 588.781 347.84 589.568 347.84ZM612.253 353.1C612.253 353.447 612.233 353.813 612.193 354.2H603.433C603.5 355.28 603.866 356.127 604.533 356.74C605.213 357.34 606.033 357.64 606.993 357.64C607.78 357.64 608.433 357.46 608.953 357.1C609.486 356.727 609.86 356.233 610.073 355.62H612.033C611.74 356.673 611.153 357.533 610.273 358.2C609.393 358.853 608.3 359.18 606.993 359.18C605.953 359.18 605.02 358.947 604.193 358.48C603.38 358.013 602.74 357.353 602.273 356.5C601.806 355.633 601.573 354.633 601.573 353.5C601.573 352.367 601.8 351.373 602.253 350.52C602.706 349.667 603.34 349.013 604.153 348.56C604.98 348.093 605.926 347.86 606.993 347.86C608.033 347.86 608.953 348.087 609.753 348.54C610.553 348.993 611.166 349.62 611.593 350.42C612.033 351.207 612.253 352.1 612.253 353.1ZM610.373 352.72C610.373 352.027 610.22 351.433 609.913 350.94C609.606 350.433 609.186 350.053 608.653 349.8C608.133 349.533 607.553 349.4 606.913 349.4C605.993 349.4 605.206 349.693 604.553 350.28C603.913 350.867 603.546 351.68 603.453 352.72H610.373ZM619.995 347.84C621.329 347.84 622.409 348.247 623.235 349.06C624.062 349.86 624.475 351.02 624.475 352.54V359H622.675V352.8C622.675 351.707 622.402 350.873 621.855 350.3C621.309 349.713 620.562 349.42 619.615 349.42C618.655 349.42 617.889 349.72 617.315 350.32C616.755 350.92 616.475 351.793 616.475 352.94V359H614.655V348.04H616.475V349.6C616.835 349.04 617.322 348.607 617.935 348.3C618.562 347.993 619.249 347.84 619.995 347.84ZM632.888 347.84C633.715 347.84 634.462 348.02 635.128 348.38C635.795 348.727 636.315 349.253 636.688 349.96C637.075 350.667 637.268 351.527 637.268 352.54V359H635.468V352.8C635.468 351.707 635.195 350.873 634.648 350.3C634.102 349.713 633.355 349.42 632.408 349.42C631.448 349.42 630.682 349.72 630.108 350.32C629.548 350.92 629.268 351.793 629.268 352.94V359H627.448V344.2H629.268V349.6C629.628 349.04 630.122 348.607 630.748 348.3C631.388 347.993 632.102 347.84 632.888 347.84ZM639.561 353.48C639.561 352.36 639.788 351.38 640.241 350.54C640.695 349.687 641.315 349.027 642.101 348.56C642.901 348.093 643.788 347.86 644.761 347.86C645.721 347.86 646.555 348.067 647.261 348.48C647.968 348.893 648.495 349.413 648.841 350.04V348.04H650.681V359H648.841V356.96C648.481 357.6 647.941 358.133 647.221 358.56C646.515 358.973 645.688 359.18 644.741 359.18C643.768 359.18 642.888 358.94 642.101 358.46C641.315 357.98 640.695 357.307 640.241 356.44C639.788 355.573 639.561 354.587 639.561 353.48ZM648.841 353.5C648.841 352.673 648.675 351.953 648.341 351.34C648.008 350.727 647.555 350.26 646.981 349.94C646.421 349.607 645.801 349.44 645.121 349.44C644.441 349.44 643.821 349.6 643.261 349.92C642.701 350.24 642.255 350.707 641.921 351.32C641.588 351.933 641.421 352.653 641.421 353.48C641.421 354.32 641.588 355.053 641.921 355.68C642.255 356.293 642.701 356.767 643.261 357.1C643.821 357.42 644.441 357.58 645.121 357.58C645.801 357.58 646.421 357.42 646.981 357.1C647.555 356.767 648.008 356.293 648.341 355.68C648.675 355.053 648.841 354.327 648.841 353.5ZM659.097 347.84C660.43 347.84 661.51 348.247 662.337 349.06C663.163 349.86 663.577 351.02 663.577 352.54V359H661.777V352.8C661.777 351.707 661.503 350.873 660.957 350.3C660.41 349.713 659.663 349.42 658.717 349.42C657.757 349.42 656.99 349.72 656.417 350.32C655.857 350.92 655.577 351.793 655.577 352.94V359H653.757V348.04H655.577V349.6C655.937 349.04 656.423 348.607 657.037 348.3C657.663 347.993 658.35 347.84 659.097 347.84ZM665.87 353.5C665.87 352.367 666.096 351.38 666.55 350.54C667.003 349.687 667.63 349.027 668.43 348.56C669.243 348.093 670.17 347.86 671.21 347.86C672.556 347.86 673.663 348.187 674.53 348.84C675.41 349.493 675.99 350.4 676.27 351.56H674.31C674.123 350.893 673.756 350.367 673.21 349.98C672.676 349.593 672.01 349.4 671.21 349.4C670.17 349.4 669.33 349.76 668.69 350.48C668.05 351.187 667.73 352.193 667.73 353.5C667.73 354.82 668.05 355.84 668.69 356.56C669.33 357.28 670.17 357.64 671.21 357.64C672.01 357.64 672.676 357.453 673.21 357.08C673.743 356.707 674.11 356.173 674.31 355.48H676.27C675.976 356.6 675.39 357.5 674.51 358.18C673.63 358.847 672.53 359.18 671.21 359.18C670.17 359.18 669.243 358.947 668.43 358.48C667.63 358.013 667.003 357.353 666.55 356.5C666.096 355.647 665.87 354.647 665.87 353.5ZM688.698 353.1C688.698 353.447 688.678 353.813 688.638 354.2H679.878C679.945 355.28 680.312 356.127 680.978 356.74C681.658 357.34 682.478 357.64 683.438 357.64C684.225 357.64 684.878 357.46 685.398 357.1C685.932 356.727 686.305 356.233 686.518 355.62H688.478C688.185 356.673 687.598 357.533 686.718 358.2C685.838 358.853 684.745 359.18 683.438 359.18C682.398 359.18 681.465 358.947 680.638 358.48C679.825 358.013 679.185 357.353 678.718 356.5C678.252 355.633 678.018 354.633 678.018 353.5C678.018 352.367 678.245 351.373 678.698 350.52C679.152 349.667 679.785 349.013 680.598 348.56C681.425 348.093 682.372 347.86 683.438 347.86C684.478 347.86 685.398 348.087 686.198 348.54C686.998 348.993 687.612 349.62 688.038 350.42C688.478 351.207 688.698 352.1 688.698 353.1ZM686.818 352.72C686.818 352.027 686.665 351.433 686.358 350.94C686.052 350.433 685.632 350.053 685.098 349.8C684.578 349.533 683.998 349.4 683.358 349.4C682.438 349.4 681.652 349.693 680.998 350.28C680.358 350.867 679.992 351.68 679.898 352.72H686.818ZM690.421 353.48C690.421 352.36 690.647 351.38 691.101 350.54C691.554 349.687 692.174 349.027 692.961 348.56C693.761 348.093 694.654 347.86 695.641 347.86C696.494 347.86 697.287 348.06 698.021 348.46C698.754 348.847 699.314 349.36 699.701 350V344.2H701.541V359H699.701V356.94C699.341 357.593 698.807 358.133 698.101 358.56C697.394 358.973 696.567 359.18 695.621 359.18C694.647 359.18 693.761 358.94 692.961 358.46C692.174 357.98 691.554 357.307 691.101 356.44C690.647 355.573 690.421 354.587 690.421 353.48ZM699.701 353.5C699.701 352.673 699.534 351.953 699.201 351.34C698.867 350.727 698.414 350.26 697.841 349.94C697.281 349.607 696.661 349.44 695.981 349.44C695.301 349.44 694.681 349.6 694.121 349.92C693.561 350.24 693.114 350.707 692.781 351.32C692.447 351.933 692.281 352.653 692.281 353.48C692.281 354.32 692.447 355.053 692.781 355.68C693.114 356.293 693.561 356.767 694.121 357.1C694.681 357.42 695.301 357.58 695.981 357.58C696.661 357.58 697.281 357.42 697.841 357.1C698.414 356.767 698.867 356.293 699.201 355.68C699.534 355.053 699.701 354.327 699.701 353.5ZM711.768 349.82C712.088 349.193 712.542 348.707 713.128 348.36C713.728 348.013 714.455 347.84 715.308 347.84V349.72H714.828C712.788 349.72 711.768 350.827 711.768 353.04V359H709.948V348.04H711.768V349.82ZM727.409 353.1C727.409 353.447 727.389 353.813 727.349 354.2H718.589C718.656 355.28 719.022 356.127 719.689 356.74C720.369 357.34 721.189 357.64 722.149 357.64C722.936 357.64 723.589 357.46 724.109 357.1C724.642 356.727 725.016 356.233 725.229 355.62H727.189C726.896 356.673 726.309 357.533 725.429 358.2C724.549 358.853 723.456 359.18 722.149 359.18C721.109 359.18 720.176 358.947 719.349 358.48C718.536 358.013 717.896 357.353 717.429 356.5C716.962 355.633 716.729 354.633 716.729 353.5C716.729 352.367 716.956 351.373 717.409 350.52C717.862 349.667 718.496 349.013 719.309 348.56C720.136 348.093 721.082 347.86 722.149 347.86C723.189 347.86 724.109 348.087 724.909 348.54C725.709 348.993 726.322 349.62 726.749 350.42C727.189 351.207 727.409 352.1 727.409 353.1ZM725.529 352.72C725.529 352.027 725.376 351.433 725.069 350.94C724.762 350.433 724.342 350.053 723.809 349.8C723.289 349.533 722.709 349.4 722.069 349.4C721.149 349.4 720.362 349.693 719.709 350.28C719.069 350.867 718.702 351.68 718.609 352.72H725.529ZM731.631 350.06C731.991 349.433 732.525 348.913 733.231 348.5C733.951 348.073 734.785 347.86 735.731 347.86C736.705 347.86 737.585 348.093 738.371 348.56C739.171 349.027 739.798 349.687 740.251 350.54C740.705 351.38 740.931 352.36 740.931 353.48C740.931 354.587 740.705 355.573 740.251 356.44C739.798 357.307 739.171 357.98 738.371 358.46C737.585 358.94 736.705 359.18 735.731 359.18C734.798 359.18 733.971 358.973 733.251 358.56C732.545 358.133 732.005 357.607 731.631 356.98V364.2H729.811V348.04H731.631V350.06ZM739.071 353.48C739.071 352.653 738.905 351.933 738.571 351.32C738.238 350.707 737.785 350.24 737.211 349.92C736.651 349.6 736.031 349.44 735.351 349.44C734.685 349.44 734.065 349.607 733.491 349.94C732.931 350.26 732.478 350.733 732.131 351.36C731.798 351.973 731.631 352.687 731.631 353.5C731.631 354.327 731.798 355.053 732.131 355.68C732.478 356.293 732.931 356.767 733.491 357.1C734.065 357.42 734.685 357.58 735.351 357.58C736.031 357.58 736.651 357.42 737.211 357.1C737.785 356.767 738.238 356.293 738.571 355.68C738.905 355.053 739.071 354.32 739.071 353.48ZM748.107 359.18C747.08 359.18 746.147 358.947 745.307 358.48C744.48 358.013 743.827 357.353 743.347 356.5C742.88 355.633 742.647 354.633 742.647 353.5C742.647 352.38 742.887 351.393 743.367 350.54C743.86 349.673 744.527 349.013 745.367 348.56C746.207 348.093 747.147 347.86 748.187 347.86C749.227 347.86 750.167 348.093 751.007 348.56C751.847 349.013 752.507 349.667 752.987 350.52C753.48 351.373 753.727 352.367 753.727 353.5C753.727 354.633 753.474 355.633 752.967 356.5C752.474 357.353 751.8 358.013 750.947 358.48C750.094 358.947 749.147 359.18 748.107 359.18ZM748.107 357.58C748.76 357.58 749.374 357.427 749.947 357.12C750.52 356.813 750.98 356.353 751.327 355.74C751.687 355.127 751.867 354.38 751.867 353.5C751.867 352.62 751.694 351.873 751.347 351.26C751 350.647 750.547 350.193 749.987 349.9C749.427 349.593 748.82 349.44 748.167 349.44C747.5 349.44 746.887 349.593 746.327 349.9C745.78 350.193 745.34 350.647 745.007 351.26C744.674 351.873 744.507 352.62 744.507 353.5C744.507 354.393 744.667 355.147 744.987 355.76C745.32 356.373 745.76 356.833 746.307 357.14C746.854 357.433 747.454 357.58 748.107 357.58ZM757.94 349.82C758.26 349.193 758.713 348.707 759.3 348.36C759.9 348.013 760.627 347.84 761.48 347.84V349.72H761C758.96 349.72 757.94 350.827 757.94 353.04V359H756.12V348.04H757.94V349.82ZM765.801 349.54V356C765.801 356.533 765.914 356.913 766.141 357.14C766.368 357.353 766.761 357.46 767.321 357.46H768.661V359H767.021C766.008 359 765.248 358.767 764.741 358.3C764.234 357.833 763.981 357.067 763.981 356V349.54H762.561V348.04H763.981V345.28H765.801V348.04H768.661V349.54H765.801ZM774.746 359.18C773.906 359.18 773.153 359.04 772.486 358.76C771.82 358.467 771.293 358.067 770.906 357.56C770.52 357.04 770.306 356.447 770.266 355.78H772.146C772.2 356.327 772.453 356.773 772.906 357.12C773.373 357.467 773.98 357.64 774.726 357.64C775.42 357.64 775.966 357.487 776.366 357.18C776.766 356.873 776.966 356.487 776.966 356.02C776.966 355.54 776.753 355.187 776.326 354.96C775.9 354.72 775.24 354.487 774.346 354.26C773.533 354.047 772.866 353.833 772.346 353.62C771.84 353.393 771.4 353.067 771.026 352.64C770.666 352.2 770.486 351.627 770.486 350.92C770.486 350.36 770.653 349.847 770.986 349.38C771.32 348.913 771.793 348.547 772.406 348.28C773.02 348 773.72 347.86 774.506 347.86C775.72 347.86 776.7 348.167 777.446 348.78C778.193 349.393 778.593 350.233 778.646 351.3H776.826C776.786 350.727 776.553 350.267 776.126 349.92C775.713 349.573 775.153 349.4 774.446 349.4C773.793 349.4 773.273 349.54 772.886 349.82C772.5 350.1 772.306 350.467 772.306 350.92C772.306 351.28 772.42 351.58 772.646 351.82C772.886 352.047 773.18 352.233 773.526 352.38C773.886 352.513 774.38 352.667 775.006 352.84C775.793 353.053 776.433 353.267 776.926 353.48C777.42 353.68 777.84 353.987 778.186 354.4C778.546 354.813 778.733 355.353 778.746 356.02C778.746 356.62 778.58 357.16 778.246 357.64C777.913 358.12 777.44 358.5 776.826 358.78C776.226 359.047 775.533 359.18 774.746 359.18ZM785.967 353.48C785.967 352.36 786.194 351.38 786.647 350.54C787.101 349.687 787.721 349.027 788.507 348.56C789.307 348.093 790.194 347.86 791.167 347.86C792.127 347.86 792.961 348.067 793.667 348.48C794.374 348.893 794.901 349.413 795.247 350.04V348.04H797.087V359H795.247V356.96C794.887 357.6 794.347 358.133 793.627 358.56C792.921 358.973 792.094 359.18 791.147 359.18C790.174 359.18 789.294 358.94 788.507 358.46C787.721 357.98 787.101 357.307 786.647 356.44C786.194 355.573 785.967 354.587 785.967 353.48ZM795.247 353.5C795.247 352.673 795.081 351.953 794.747 351.34C794.414 350.727 793.961 350.26 793.387 349.94C792.827 349.607 792.207 349.44 791.527 349.44C790.847 349.44 790.227 349.6 789.667 349.92C789.107 350.24 788.661 350.707 788.327 351.32C787.994 351.933 787.827 352.653 787.827 353.48C787.827 354.32 787.994 355.053 788.327 355.68C788.661 356.293 789.107 356.767 789.667 357.1C790.227 357.42 790.847 357.58 791.527 357.58C792.207 357.58 792.827 357.42 793.387 357.1C793.961 356.767 794.414 356.293 794.747 355.68C795.081 355.053 795.247 354.327 795.247 353.5ZM805.503 347.84C806.836 347.84 807.916 348.247 808.743 349.06C809.57 349.86 809.983 351.02 809.983 352.54V359H808.183V352.8C808.183 351.707 807.91 350.873 807.363 350.3C806.816 349.713 806.07 349.42 805.123 349.42C804.163 349.42 803.396 349.72 802.823 350.32C802.263 350.92 801.983 351.793 801.983 352.94V359H800.163V348.04H801.983V349.6C802.343 349.04 802.83 348.607 803.443 348.3C804.07 347.993 804.756 347.84 805.503 347.84ZM812.276 353.48C812.276 352.36 812.503 351.38 812.956 350.54C813.409 349.687 814.029 349.027 814.816 348.56C815.616 348.093 816.509 347.86 817.496 347.86C818.349 347.86 819.143 348.06 819.876 348.46C820.609 348.847 821.169 349.36 821.556 350V344.2H823.396V359H821.556V356.94C821.196 357.593 820.663 358.133 819.956 358.56C819.249 358.973 818.423 359.18 817.476 359.18C816.503 359.18 815.616 358.94 814.816 358.46C814.029 357.98 813.409 357.307 812.956 356.44C812.503 355.573 812.276 354.587 812.276 353.48ZM821.556 353.5C821.556 352.673 821.389 351.953 821.056 351.34C820.723 350.727 820.269 350.26 819.696 349.94C819.136 349.607 818.516 349.44 817.836 349.44C817.156 349.44 816.536 349.6 815.976 349.92C815.416 350.24 814.969 350.707 814.636 351.32C814.303 351.933 814.136 352.653 814.136 353.48C814.136 354.32 814.303 355.053 814.636 355.68C814.969 356.293 815.416 356.767 815.976 357.1C816.536 357.42 817.156 357.58 817.836 357.58C818.516 357.58 819.136 357.42 819.696 357.1C820.269 356.767 820.723 356.293 821.056 355.68C821.389 355.053 821.556 354.327 821.556 353.5ZM831.124 353.48C831.124 352.36 831.35 351.38 831.804 350.54C832.257 349.687 832.877 349.027 833.664 348.56C834.464 348.093 835.357 347.86 836.344 347.86C837.197 347.86 837.99 348.06 838.724 348.46C839.457 348.847 840.017 349.36 840.404 350V344.2H842.244V359H840.404V356.94C840.044 357.593 839.51 358.133 838.804 358.56C838.097 358.973 837.27 359.18 836.324 359.18C835.35 359.18 834.464 358.94 833.664 358.46C832.877 357.98 832.257 357.307 831.804 356.44C831.35 355.573 831.124 354.587 831.124 353.48ZM840.404 353.5C840.404 352.673 840.237 351.953 839.904 351.34C839.57 350.727 839.117 350.26 838.544 349.94C837.984 349.607 837.364 349.44 836.684 349.44C836.004 349.44 835.384 349.6 834.824 349.92C834.264 350.24 833.817 350.707 833.484 351.32C833.15 351.933 832.984 352.653 832.984 353.48C832.984 354.32 833.15 355.053 833.484 355.68C833.817 356.293 834.264 356.767 834.824 357.1C835.384 357.42 836.004 357.58 836.684 357.58C837.364 357.58 837.984 357.42 838.544 357.1C839.117 356.767 839.57 356.293 839.904 355.68C840.237 355.053 840.404 354.327 840.404 353.5ZM844.639 353.48C844.639 352.36 844.866 351.38 845.319 350.54C845.773 349.687 846.393 349.027 847.179 348.56C847.979 348.093 848.866 347.86 849.839 347.86C850.799 347.86 851.633 348.067 852.339 348.48C853.046 348.893 853.573 349.413 853.919 350.04V348.04H855.759V359H853.919V356.96C853.559 357.6 853.019 358.133 852.299 358.56C851.593 358.973 850.766 359.18 849.819 359.18C848.846 359.18 847.966 358.94 847.179 358.46C846.393 357.98 845.773 357.307 845.319 356.44C844.866 355.573 844.639 354.587 844.639 353.48ZM853.919 353.5C853.919 352.673 853.753 351.953 853.419 351.34C853.086 350.727 852.633 350.26 852.059 349.94C851.499 349.607 850.879 349.44 850.199 349.44C849.519 349.44 848.899 349.6 848.339 349.92C847.779 350.24 847.333 350.707 846.999 351.32C846.666 351.933 846.499 352.653 846.499 353.48C846.499 354.32 846.666 355.053 846.999 355.68C847.333 356.293 847.779 356.767 848.339 357.1C848.899 357.42 849.519 357.58 850.199 357.58C850.879 357.58 851.499 357.42 852.059 357.1C852.633 356.767 853.086 356.293 853.419 355.68C853.753 355.053 853.919 354.327 853.919 353.5ZM862.715 359.18C861.875 359.18 861.122 359.04 860.455 358.76C859.788 358.467 859.262 358.067 858.875 357.56C858.488 357.04 858.275 356.447 858.235 355.78H860.115C860.168 356.327 860.422 356.773 860.875 357.12C861.342 357.467 861.948 357.64 862.695 357.64C863.388 357.64 863.935 357.487 864.335 357.18C864.735 356.873 864.935 356.487 864.935 356.02C864.935 355.54 864.722 355.187 864.295 354.96C863.868 354.72 863.208 354.487 862.315 354.26C861.502 354.047 860.835 353.833 860.315 353.62C859.808 353.393 859.368 353.067 858.995 352.64C858.635 352.2 858.455 351.627 858.455 350.92C858.455 350.36 858.622 349.847 858.955 349.38C859.288 348.913 859.762 348.547 860.375 348.28C860.988 348 861.688 347.86 862.475 347.86C863.688 347.86 864.668 348.167 865.415 348.78C866.162 349.393 866.562 350.233 866.615 351.3H864.795C864.755 350.727 864.522 350.267 864.095 349.92C863.682 349.573 863.122 349.4 862.415 349.4C861.762 349.4 861.242 349.54 860.855 349.82C860.468 350.1 860.275 350.467 860.275 350.92C860.275 351.28 860.388 351.58 860.615 351.82C860.855 352.047 861.148 352.233 861.495 352.38C861.855 352.513 862.348 352.667 862.975 352.84C863.762 353.053 864.402 353.267 864.895 353.48C865.388 353.68 865.808 353.987 866.155 354.4C866.515 354.813 866.702 355.353 866.715 356.02C866.715 356.62 866.548 357.16 866.215 357.64C865.882 358.12 865.408 358.5 864.795 358.78C864.195 359.047 863.502 359.18 862.715 359.18ZM874.724 347.84C875.551 347.84 876.297 348.02 876.964 348.38C877.631 348.727 878.151 349.253 878.524 349.96C878.911 350.667 879.104 351.527 879.104 352.54V359H877.304V352.8C877.304 351.707 877.031 350.873 876.484 350.3C875.937 349.713 875.191 349.42 874.244 349.42C873.284 349.42 872.517 349.72 871.944 350.32C871.384 350.92 871.104 351.793 871.104 352.94V359H869.284V344.2H871.104V349.6C871.464 349.04 871.957 348.607 872.584 348.3C873.224 347.993 873.937 347.84 874.724 347.84ZM883.897 350.08C884.27 349.427 884.817 348.893 885.537 348.48C886.257 348.067 887.077 347.86 887.997 347.86C888.984 347.86 889.87 348.093 890.657 348.56C891.444 349.027 892.064 349.687 892.517 350.54C892.97 351.38 893.197 352.36 893.197 353.48C893.197 354.587 892.97 355.573 892.517 356.44C892.064 357.307 891.437 357.98 890.637 358.46C889.85 358.94 888.97 359.18 887.997 359.18C887.05 359.18 886.217 358.973 885.497 358.56C884.79 358.147 884.257 357.62 883.897 356.98V359H882.077V344.2H883.897V350.08ZM891.337 353.48C891.337 352.653 891.17 351.933 890.837 351.32C890.504 350.707 890.05 350.24 889.477 349.92C888.917 349.6 888.297 349.44 887.617 349.44C886.95 349.44 886.33 349.607 885.757 349.94C885.197 350.26 884.744 350.733 884.397 351.36C884.064 351.973 883.897 352.687 883.897 353.5C883.897 354.327 884.064 355.053 884.397 355.68C884.744 356.293 885.197 356.767 885.757 357.1C886.33 357.42 886.95 357.58 887.617 357.58C888.297 357.58 888.917 357.42 889.477 357.1C890.05 356.767 890.504 356.293 890.837 355.68C891.17 355.053 891.337 354.32 891.337 353.48ZM900.373 359.18C899.346 359.18 898.413 358.947 897.573 358.48C896.746 358.013 896.093 357.353 895.613 356.5C895.146 355.633 894.913 354.633 894.913 353.5C894.913 352.38 895.153 351.393 895.633 350.54C896.126 349.673 896.793 349.013 897.633 348.56C898.473 348.093 899.413 347.86 900.453 347.86C901.493 347.86 902.433 348.093 903.273 348.56C904.113 349.013 904.773 349.667 905.253 350.52C905.746 351.373 905.993 352.367 905.993 353.5C905.993 354.633 905.739 355.633 905.233 356.5C904.739 357.353 904.066 358.013 903.213 358.48C902.359 358.947 901.413 359.18 900.373 359.18ZM900.373 357.58C901.026 357.58 901.639 357.427 902.213 357.12C902.786 356.813 903.246 356.353 903.593 355.74C903.953 355.127 904.133 354.38 904.133 353.5C904.133 352.62 903.959 351.873 903.613 351.26C903.266 350.647 902.813 350.193 902.253 349.9C901.693 349.593 901.086 349.44 900.433 349.44C899.766 349.44 899.153 349.593 898.593 349.9C898.046 350.193 897.606 350.647 897.273 351.26C896.939 351.873 896.773 352.62 896.773 353.5C896.773 354.393 896.933 355.147 897.253 355.76C897.586 356.373 898.026 356.833 898.573 357.14C899.119 357.433 899.719 357.58 900.373 357.58ZM907.706 353.48C907.706 352.36 907.932 351.38 908.386 350.54C908.839 349.687 909.459 349.027 910.246 348.56C911.046 348.093 911.932 347.86 912.906 347.86C913.866 347.86 914.699 348.067 915.406 348.48C916.112 348.893 916.639 349.413 916.986 350.04V348.04H918.826V359H916.986V356.96C916.626 357.6 916.086 358.133 915.366 358.56C914.659 358.973 913.832 359.18 912.886 359.18C911.912 359.18 911.032 358.94 910.246 358.46C909.459 357.98 908.839 357.307 908.386 356.44C907.932 355.573 907.706 354.587 907.706 353.48ZM916.986 353.5C916.986 352.673 916.819 351.953 916.486 351.34C916.152 350.727 915.699 350.26 915.126 349.94C914.566 349.607 913.946 349.44 913.266 349.44C912.586 349.44 911.966 349.6 911.406 349.92C910.846 350.24 910.399 350.707 910.066 351.32C909.732 351.933 909.566 352.653 909.566 353.48C909.566 354.32 909.732 355.053 910.066 355.68C910.399 356.293 910.846 356.767 911.406 357.1C911.966 357.42 912.586 357.58 913.266 357.58C913.946 357.58 914.566 357.42 915.126 357.1C915.699 356.767 916.152 356.293 916.486 355.68C916.819 355.053 916.986 354.327 916.986 353.5ZM923.721 349.82C924.041 349.193 924.495 348.707 925.081 348.36C925.681 348.013 926.408 347.84 927.261 347.84V349.72H926.781C924.741 349.72 923.721 350.827 923.721 353.04V359H921.901V348.04H923.721V349.82ZM928.682 353.48C928.682 352.36 928.909 351.38 929.362 350.54C929.816 349.687 930.436 349.027 931.222 348.56C932.022 348.093 932.916 347.86 933.902 347.86C934.756 347.86 935.549 348.06 936.282 348.46C937.016 348.847 937.576 349.36 937.962 350V344.2H939.802V359H937.962V356.94C937.602 357.593 937.069 358.133 936.362 358.56C935.656 358.973 934.829 359.18 933.882 359.18C932.909 359.18 932.022 358.94 931.222 358.46C930.436 357.98 929.816 357.307 929.362 356.44C928.909 355.573 928.682 354.587 928.682 353.48ZM937.962 353.5C937.962 352.673 937.796 351.953 937.462 351.34C937.129 350.727 936.676 350.26 936.102 349.94C935.542 349.607 934.922 349.44 934.242 349.44C933.562 349.44 932.942 349.6 932.382 349.92C931.822 350.24 931.376 350.707 931.042 351.32C930.709 351.933 930.542 352.653 930.542 353.48C930.542 354.32 930.709 355.053 931.042 355.68C931.376 356.293 931.822 356.767 932.382 357.1C932.942 357.42 933.562 357.58 934.242 357.58C934.922 357.58 935.542 357.42 936.102 357.1C936.676 356.767 937.129 356.293 937.462 355.68C937.796 355.053 937.962 354.327 937.962 353.5ZM946.758 359.18C945.918 359.18 945.165 359.04 944.498 358.76C943.831 358.467 943.305 358.067 942.918 357.56C942.531 357.04 942.318 356.447 942.278 355.78H944.158C944.211 356.327 944.465 356.773 944.918 357.12C945.385 357.467 945.991 357.64 946.738 357.64C947.431 357.64 947.978 357.487 948.378 357.18C948.778 356.873 948.978 356.487 948.978 356.02C948.978 355.54 948.765 355.187 948.338 354.96C947.911 354.72 947.251 354.487 946.358 354.26C945.545 354.047 944.878 353.833 944.358 353.62C943.851 353.393 943.411 353.067 943.038 352.64C942.678 352.2 942.498 351.627 942.498 350.92C942.498 350.36 942.665 349.847 942.998 349.38C943.331 348.913 943.805 348.547 944.418 348.28C945.031 348 945.731 347.86 946.518 347.86C947.731 347.86 948.711 348.167 949.458 348.78C950.205 349.393 950.605 350.233 950.658 351.3H948.838C948.798 350.727 948.565 350.267 948.138 349.92C947.725 349.573 947.165 349.4 946.458 349.4C945.805 349.4 945.285 349.54 944.898 349.82C944.511 350.1 944.318 350.467 944.318 350.92C944.318 351.28 944.431 351.58 944.658 351.82C944.898 352.047 945.191 352.233 945.538 352.38C945.898 352.513 946.391 352.667 947.018 352.84C947.805 353.053 948.445 353.267 948.938 353.48C949.431 353.68 949.851 353.987 950.198 354.4C950.558 354.813 950.745 355.353 950.758 356.02C950.758 356.62 950.591 357.16 950.258 357.64C949.925 358.12 949.451 358.5 948.838 358.78C948.238 359.047 947.545 359.18 946.758 359.18ZM953.907 359.12C953.56 359.12 953.267 359 953.027 358.76C952.787 358.52 952.667 358.227 952.667 357.88C952.667 357.533 952.787 357.24 953.027 357C953.267 356.76 953.56 356.64 953.907 356.64C954.24 356.64 954.52 356.76 954.747 357C954.987 357.24 955.107 357.533 955.107 357.88C955.107 358.227 954.987 358.52 954.747 358.76C954.52 359 954.24 359.12 953.907 359.12Z" fill="#121212"/>
<g filter="url(#filter1_d_1818_9601)">
<rect x="639" y="403" width="162" height="66" rx="33" fill="url(#paint0_linear_1818_9601)"/>
<path d="M694.18 440.78H698.78V443H691.38V429.04H694.18V440.78ZM705.48 443.18C704.413 443.18 703.453 442.947 702.6 442.48C701.746 442 701.073 441.327 700.58 440.46C700.1 439.593 699.86 438.593 699.86 437.46C699.86 436.327 700.106 435.327 700.6 434.46C701.106 433.593 701.793 432.927 702.66 432.46C703.526 431.98 704.493 431.74 705.56 431.74C706.626 431.74 707.593 431.98 708.46 432.46C709.326 432.927 710.006 433.593 710.5 434.46C711.006 435.327 711.26 436.327 711.26 437.46C711.26 438.593 711 439.593 710.48 440.46C709.973 441.327 709.28 442 708.4 442.48C707.533 442.947 706.56 443.18 705.48 443.18ZM705.48 440.74C705.986 440.74 706.46 440.62 706.9 440.38C707.353 440.127 707.713 439.753 707.98 439.26C708.246 438.767 708.38 438.167 708.38 437.46C708.38 436.407 708.1 435.6 707.54 435.04C706.993 434.467 706.32 434.18 705.52 434.18C704.72 434.18 704.046 434.467 703.5 435.04C702.966 435.6 702.7 436.407 702.7 437.46C702.7 438.513 702.96 439.327 703.48 439.9C704.013 440.46 704.68 440.74 705.48 440.74ZM717.654 431.74C718.48 431.74 719.207 431.907 719.834 432.24C720.46 432.56 720.954 432.98 721.314 433.5V431.92H724.134V443.08C724.134 444.107 723.927 445.02 723.514 445.82C723.1 446.633 722.48 447.273 721.654 447.74C720.827 448.22 719.827 448.46 718.654 448.46C717.08 448.46 715.787 448.093 714.774 447.36C713.774 446.627 713.207 445.627 713.074 444.36H715.854C716 444.867 716.314 445.267 716.794 445.56C717.287 445.867 717.88 446.02 718.574 446.02C719.387 446.02 720.047 445.773 720.554 445.28C721.06 444.8 721.314 444.067 721.314 443.08V441.36C720.954 441.88 720.454 442.313 719.814 442.66C719.187 443.007 718.467 443.18 717.654 443.18C716.72 443.18 715.867 442.94 715.094 442.46C714.32 441.98 713.707 441.307 713.254 440.44C712.814 439.56 712.594 438.553 712.594 437.42C712.594 436.3 712.814 435.307 713.254 434.44C713.707 433.573 714.314 432.907 715.074 432.44C715.847 431.973 716.707 431.74 717.654 431.74ZM721.314 437.46C721.314 436.78 721.18 436.2 720.914 435.72C720.647 435.227 720.287 434.853 719.834 434.6C719.38 434.333 718.894 434.2 718.374 434.2C717.854 434.2 717.374 434.327 716.934 434.58C716.494 434.833 716.134 435.207 715.854 435.7C715.587 436.18 715.454 436.753 715.454 437.42C715.454 438.087 715.587 438.673 715.854 439.18C716.134 439.673 716.494 440.053 716.934 440.32C717.387 440.587 717.867 440.72 718.374 440.72C718.894 440.72 719.38 440.593 719.834 440.34C720.287 440.073 720.647 439.7 720.914 439.22C721.18 438.727 721.314 438.14 721.314 437.46ZM733.054 430.6C732.561 430.6 732.147 430.447 731.814 430.14C731.494 429.82 731.334 429.427 731.334 428.96C731.334 428.493 731.494 428.107 731.814 427.8C732.147 427.48 732.561 427.32 733.054 427.32C733.547 427.32 733.954 427.48 734.274 427.8C734.607 428.107 734.774 428.493 734.774 428.96C734.774 429.427 734.607 429.82 734.274 430.14C733.954 430.447 733.547 430.6 733.054 430.6ZM734.434 431.92V443H731.634V431.92H734.434ZM743.34 431.76C744.66 431.76 745.727 432.18 746.54 433.02C747.354 433.847 747.76 435.007 747.76 436.5V443H744.96V436.88C744.96 436 744.74 435.327 744.3 434.86C743.86 434.38 743.26 434.14 742.5 434.14C741.727 434.14 741.114 434.38 740.66 434.86C740.22 435.327 740 436 740 436.88V443H737.2V431.92H740V433.3C740.374 432.82 740.847 432.447 741.42 432.18C742.007 431.9 742.647 431.76 743.34 431.76Z" fill="white"/>
</g>
<rect x="361" y="158" width="718" height="352" rx="17" stroke="white" stroke-width="4"/>
</g>
<defs>
<filter id="filter0_b_1818_9601" x="354" y="151" width="732" height="366" filterUnits="userSpaceOnUse" color-interpolation-filters="sRGB">
<feFlood flood-opacity="0" result="BackgroundImageFix"/>
<feGaussianBlur in="BackgroundImageFix" stdDeviation="2.5"/>
<feComposite in2="SourceAlpha" operator="in" result="effect1_backgroundBlur_1818_9601"/>
<feBlend mode="normal" in="SourceGraphic" in2="effect1_backgroundBlur_1818_9601" result="shape"/>
</filter>
<filter id="filter1_d_1818_9601" x="623.236" y="387.236" width="193.527" height="97.5272" filterUnits="userSpaceOnUse" color-interpolation-filters="sRGB">
<feFlood flood-opacity="0" result="BackgroundImageFix"/>
<feColorMatrix in="SourceAlpha" type="matrix" values="0 0 0 0 0 0 0 0 0 0 0 0 0 0 0 0 0 0 127 0" result="hardAlpha"/>
<feOffset/>
<feGaussianBlur stdDeviation="7.8818"/>
<feComposite in2="hardAlpha" operator="out"/>
<feColorMatrix type="matrix" values="0 0 0 0 0.219608 0 0 0 0 0.72549 0 0 0 0 0.564706 0 0 0 0.5 0"/>
<feBlend mode="normal" in2="BackgroundImageFix" result="effect1_dropShadow_1818_9601"/>
<feBlend mode="normal" in="SourceGraphic" in2="effect1_dropShadow_1818_9601" result="shape"/>
</filter>
<linearGradient id="paint0_linear_1818_9601" x1="720" y1="310.598" x2="720" y2="469" gradientUnits="userSpaceOnUse">
<stop stop-color="#0B224E"/>
<stop offset="0.973392" stop-color="#01787B"/>
</linearGradient>
</defs>
</svg>
