<svg width="623" height="228" viewBox="0 0 623 228" fill="none" xmlns="http://www.w3.org/2000/svg">
<g clip-path="url(#clip0_1552_9783)">
<path d="M84.125 67.1245H177.876L143.831 100.784H84.125V67.1245Z" fill="url(#paint0_linear_1552_9783)"/>
<path d="M177.876 67.1245L177.876 160.875L144.217 160.875L144.217 100.368L177.876 67.1245Z" fill="url(#paint1_linear_1552_9783)"/>
<path d="M84.125 67.1245L177.876 160.875H84.125V67.1245Z" fill="#1E8C51"/>
</g>
<path d="M233.279 89.8233V93.9038H219.63V139H214.705V93.9038H200.987V89.8233H233.279ZM267.226 139L255.055 118.457H245.979V139H241.055V89.8233H255.829C261.316 89.8233 265.467 91.1365 268.281 93.7631C271.142 96.3896 272.573 99.8369 272.573 104.105C272.573 107.669 271.541 110.718 269.477 113.251C267.461 115.737 264.459 117.355 260.472 118.105L273.136 139H267.226ZM245.979 114.447H255.899C259.745 114.447 262.63 113.509 264.553 111.633C266.523 109.757 267.507 107.247 267.507 104.105C267.507 100.869 266.569 98.3829 264.693 96.6475C262.817 94.8653 259.862 93.9741 255.829 93.9741H245.979V114.447ZM310.839 127.321H288.467L284.175 139H278.969L296.909 90.4565H302.467L320.336 139H315.13L310.839 127.321ZM309.361 123.241L299.653 96.6475L289.944 123.241H309.361ZM342.803 89.8233C348.244 89.8233 352.911 90.8082 356.803 92.7781C360.696 94.748 363.675 97.5856 365.738 101.291C367.802 104.996 368.834 109.405 368.834 114.517C368.834 119.583 367.802 123.968 365.738 127.673C363.675 131.332 360.696 134.146 356.803 136.116C352.911 138.039 348.244 139 342.803 139H328.24V89.8233H342.803ZM342.803 134.92C349.651 134.92 354.857 133.137 358.422 129.573C362.033 125.961 363.839 120.943 363.839 114.517C363.839 108.045 362.033 103.003 358.422 99.3913C354.857 95.7329 349.651 93.9038 342.803 93.9038H333.165V134.92H342.803ZM382.838 93.8334V112.196H401.481V116.276H382.838V134.92H403.592V139H377.913V89.7529H403.592V93.8334H382.838ZM441.156 89.8936V124.367C441.156 129.151 439.772 132.879 437.005 135.553C434.238 138.179 430.532 139.492 425.889 139.492C421.199 139.492 417.4 138.132 414.492 135.412C411.631 132.692 410.2 128.893 410.2 124.015H420.05C420.097 126.125 420.589 127.767 421.527 128.94C422.512 130.112 423.919 130.698 425.748 130.698C427.531 130.698 428.891 130.136 429.829 129.01C430.767 127.884 431.236 126.336 431.236 124.367V89.8936H441.156ZM462.495 89.8936V139H452.645V89.8936H462.495ZM514.226 139H504.377L482.075 105.301V139H472.226V89.8233H482.075L504.377 123.593V89.8233H514.226V139ZM533.809 89.8936V139H523.96V89.8936H533.809Z" fill="white"/>
<defs>
<linearGradient id="paint0_linear_1552_9783" x1="42.239" y1="85.515" x2="204.054" y2="83.9542" gradientUnits="userSpaceOnUse">
<stop stop-color="#18944A"/>
<stop offset="1" stop-color="#86D3BB"/>
</linearGradient>
<linearGradient id="paint1_linear_1552_9783" x1="161.046" y1="158.062" x2="161.046" y2="106.124" gradientUnits="userSpaceOnUse">
<stop stop-color="#1E975D"/>
<stop offset="1" stop-color="#86D3BB"/>
</linearGradient>
<clipPath id="clip0_1552_9783">
<rect x="84.125" y="67.1245" width="93.751" height="93.751" rx="11" fill="white"/>
</clipPath>
</defs>
</svg>
