<svg width="203" height="59" viewBox="0 0 203 59" fill="none" xmlns="http://www.w3.org/2000/svg">
<g filter="url(#filter0_d_2160_10809)">
<rect x="4.88647" width="194" height="51" rx="10" fill="#151515"/>
<path d="M76.4835 8.6C77.6355 8.6 78.5915 9.004 79.3515 9.812C80.1195 10.62 80.5035 11.616 80.5035 12.8C80.5035 13.976 80.1195 14.972 79.3515 15.788C78.5915 16.596 77.6355 17 76.4835 17H73.1835V8.6H76.4835ZM76.4835 15.68C77.2755 15.68 77.9195 15.408 78.4155 14.864C78.9195 14.32 79.1715 13.632 79.1715 12.8C79.1715 11.96 78.9195 11.272 78.4155 10.736C77.9195 10.192 77.2755 9.92 76.4835 9.92H74.5635V15.68H76.4835ZM84.5096 17.156C83.6296 17.156 82.8816 16.852 82.2656 16.244C81.6496 15.636 81.3416 14.888 81.3416 14C81.3416 13.112 81.6496 12.364 82.2656 11.756C82.8816 11.148 83.6296 10.844 84.5096 10.844C85.3976 10.844 86.1456 11.148 86.7536 11.756C87.3696 12.364 87.6776 13.112 87.6776 14C87.6776 14.888 87.3696 15.636 86.7536 16.244C86.1456 16.852 85.3976 17.156 84.5096 17.156ZM83.1776 15.356C83.5376 15.716 83.9816 15.896 84.5096 15.896C85.0376 15.896 85.4816 15.716 85.8416 15.356C86.2016 14.996 86.3816 14.544 86.3816 14C86.3816 13.456 86.2016 13.004 85.8416 12.644C85.4816 12.284 85.0376 12.104 84.5096 12.104C83.9816 12.104 83.5376 12.284 83.1776 12.644C82.8176 13.004 82.6376 13.456 82.6376 14C82.6376 14.544 82.8176 14.996 83.1776 15.356ZM95.5271 11H96.8951L95.0111 17H93.7391L92.4911 12.956L91.2311 17H89.9591L88.0751 11H89.4431L90.6071 15.14L91.8671 11H93.1031L94.3511 15.14L95.5271 11ZM101.006 10.844C101.694 10.844 102.25 11.064 102.674 11.504C103.098 11.944 103.31 12.548 103.31 13.316V17H102.014V13.448C102.014 13 101.894 12.656 101.654 12.416C101.414 12.176 101.086 12.056 100.67 12.056C100.214 12.056 99.8455 12.2 99.5655 12.488C99.2855 12.768 99.1455 13.2 99.1455 13.784V17H97.8495V11H99.1455V11.768C99.5375 11.152 100.158 10.844 101.006 10.844ZM104.705 17V8.24H106.001V17H104.705ZM110.338 17.156C109.458 17.156 108.71 16.852 108.094 16.244C107.478 15.636 107.17 14.888 107.17 14C107.17 13.112 107.478 12.364 108.094 11.756C108.71 11.148 109.458 10.844 110.338 10.844C111.226 10.844 111.974 11.148 112.582 11.756C113.198 12.364 113.506 13.112 113.506 14C113.506 14.888 113.198 15.636 112.582 16.244C111.974 16.852 111.226 17.156 110.338 17.156ZM109.006 15.356C109.366 15.716 109.81 15.896 110.338 15.896C110.866 15.896 111.31 15.716 111.67 15.356C112.03 14.996 112.21 14.544 112.21 14C112.21 13.456 112.03 13.004 111.67 12.644C111.31 12.284 110.866 12.104 110.338 12.104C109.81 12.104 109.366 12.284 109.006 12.644C108.646 13.004 108.466 13.456 108.466 14C108.466 14.544 108.646 14.996 109.006 15.356ZM119.43 11H120.726V17H119.43V16.136C118.942 16.816 118.242 17.156 117.33 17.156C116.506 17.156 115.802 16.852 115.218 16.244C114.634 15.628 114.342 14.88 114.342 14C114.342 13.112 114.634 12.364 115.218 11.756C115.802 11.148 116.506 10.844 117.33 10.844C118.242 10.844 118.942 11.18 119.43 11.852V11ZM116.178 15.38C116.538 15.74 116.99 15.92 117.534 15.92C118.078 15.92 118.53 15.74 118.89 15.38C119.25 15.012 119.43 14.552 119.43 14C119.43 13.448 119.25 12.992 118.89 12.632C118.53 12.264 118.078 12.08 117.534 12.08C116.99 12.08 116.538 12.264 116.178 12.632C115.818 12.992 115.638 13.448 115.638 14C115.638 14.552 115.818 15.012 116.178 15.38ZM126.988 8.6H128.284V17H126.988V16.136C126.5 16.816 125.8 17.156 124.888 17.156C124.064 17.156 123.36 16.852 122.776 16.244C122.192 15.628 121.9 14.88 121.9 14C121.9 13.112 122.192 12.364 122.776 11.756C123.36 11.148 124.064 10.844 124.888 10.844C125.8 10.844 126.5 11.18 126.988 11.852V8.6ZM123.736 15.38C124.096 15.74 124.548 15.92 125.092 15.92C125.636 15.92 126.088 15.74 126.448 15.38C126.808 15.012 126.988 14.552 126.988 14C126.988 13.448 126.808 12.992 126.448 12.632C126.088 12.264 125.636 12.08 125.092 12.08C124.548 12.08 124.096 12.264 123.736 12.632C123.376 12.992 123.196 13.448 123.196 14C123.196 14.552 123.376 15.012 123.736 15.38ZM135.627 17.156C134.747 17.156 133.999 16.852 133.383 16.244C132.767 15.636 132.459 14.888 132.459 14C132.459 13.112 132.767 12.364 133.383 11.756C133.999 11.148 134.747 10.844 135.627 10.844C136.515 10.844 137.263 11.148 137.871 11.756C138.487 12.364 138.795 13.112 138.795 14C138.795 14.888 138.487 15.636 137.871 16.244C137.263 16.852 136.515 17.156 135.627 17.156ZM134.295 15.356C134.655 15.716 135.099 15.896 135.627 15.896C136.155 15.896 136.599 15.716 136.959 15.356C137.319 14.996 137.499 14.544 137.499 14C137.499 13.456 137.319 13.004 136.959 12.644C136.599 12.284 136.155 12.104 135.627 12.104C135.099 12.104 134.655 12.284 134.295 12.644C133.935 13.004 133.755 13.456 133.755 14C133.755 14.544 133.935 14.996 134.295 15.356ZM143.123 10.844C143.811 10.844 144.367 11.064 144.791 11.504C145.215 11.944 145.427 12.548 145.427 13.316V17H144.131V13.448C144.131 13 144.011 12.656 143.771 12.416C143.531 12.176 143.203 12.056 142.787 12.056C142.331 12.056 141.963 12.2 141.683 12.488C141.403 12.768 141.263 13.2 141.263 13.784V17H139.967V11H141.263V11.768C141.655 11.152 142.275 10.844 143.123 10.844ZM153.17 12.248H151.682V15.128C151.682 15.376 151.738 15.556 151.85 15.668C151.962 15.772 152.126 15.832 152.342 15.848C152.566 15.856 152.842 15.852 153.17 15.836V17C152.178 17.12 151.466 17.036 151.034 16.748C150.602 16.452 150.386 15.912 150.386 15.128V12.248H149.282V11H150.386V9.704L151.682 9.32V11H153.17V12.248ZM157.502 10.844C158.19 10.844 158.746 11.064 159.17 11.504C159.594 11.944 159.806 12.548 159.806 13.316V17H158.51V13.448C158.51 13 158.39 12.656 158.15 12.416C157.91 12.176 157.582 12.056 157.166 12.056C156.71 12.056 156.342 12.2 156.062 12.488C155.782 12.768 155.642 13.2 155.642 13.784V17H154.346V8.6H155.642V11.768C156.034 11.152 156.654 10.844 157.502 10.844ZM162.221 14.552C162.317 15.008 162.537 15.36 162.881 15.608C163.225 15.848 163.645 15.968 164.141 15.968C164.829 15.968 165.345 15.72 165.689 15.224L166.757 15.848C166.165 16.72 165.289 17.156 164.129 17.156C163.153 17.156 162.365 16.86 161.765 16.268C161.165 15.668 160.865 14.912 160.865 14C160.865 13.104 161.161 12.356 161.753 11.756C162.345 11.148 163.105 10.844 164.033 10.844C164.913 10.844 165.633 11.152 166.193 11.768C166.761 12.384 167.045 13.132 167.045 14.012C167.045 14.148 167.029 14.328 166.997 14.552H162.221ZM162.209 13.496H165.737C165.649 13.008 165.445 12.64 165.125 12.392C164.813 12.144 164.445 12.02 164.021 12.02C163.541 12.02 163.141 12.152 162.821 12.416C162.501 12.68 162.297 13.04 162.209 13.496Z" fill="white"/>
<path d="M82.5569 38L81.5769 35.18H75.6169L74.6369 38H72.1369L77.2169 24H79.9769L85.0369 38H82.5569ZM76.3769 33.02H80.8169L78.5969 26.7L76.3769 33.02ZM92.0623 27.74C93.4357 27.74 94.609 28.2533 95.5823 29.28C96.5557 30.2933 97.0423 31.5333 97.0423 33C97.0423 34.48 96.5557 35.7267 95.5823 36.74C94.609 37.7533 93.4357 38.26 92.0623 38.26C90.5423 38.26 89.3757 37.7 88.5623 36.58V42H86.4023V28H88.5623V29.44C89.3757 28.3067 90.5423 27.74 92.0623 27.74ZM89.4623 35.3C90.0623 35.9 90.8157 36.2 91.7223 36.2C92.629 36.2 93.3823 35.9 93.9823 35.3C94.5823 34.6867 94.8823 33.92 94.8823 33C94.8823 32.08 94.5823 31.32 93.9823 30.72C93.3823 30.1067 92.629 29.8 91.7223 29.8C90.8157 29.8 90.0623 30.1067 89.4623 30.72C88.8623 31.32 88.5623 32.08 88.5623 33C88.5623 33.92 88.8623 34.6867 89.4623 35.3ZM104.66 27.74C106.033 27.74 107.207 28.2533 108.18 29.28C109.153 30.2933 109.64 31.5333 109.64 33C109.64 34.48 109.153 35.7267 108.18 36.74C107.207 37.7533 106.033 38.26 104.66 38.26C103.14 38.26 101.973 37.7 101.16 36.58V42H99V28H101.16V29.44C101.973 28.3067 103.14 27.74 104.66 27.74ZM102.06 35.3C102.66 35.9 103.413 36.2 104.32 36.2C105.227 36.2 105.98 35.9 106.58 35.3C107.18 34.6867 107.48 33.92 107.48 33C107.48 32.08 107.18 31.32 106.58 30.72C105.98 30.1067 105.227 29.8 104.32 29.8C103.413 29.8 102.66 30.1067 102.06 30.72C101.46 31.32 101.16 32.08 101.16 33C101.16 33.92 101.46 34.6867 102.06 35.3ZM121.398 38.26C120.051 38.26 118.904 37.9533 117.958 37.34C117.024 36.7267 116.371 35.8867 115.998 34.82L117.978 33.66C118.538 35.2333 119.698 36.02 121.458 36.02C122.324 36.02 122.971 35.8533 123.398 35.52C123.838 35.1733 124.058 34.7267 124.058 34.18C124.058 33.6067 123.824 33.1733 123.358 32.88C122.891 32.5733 122.064 32.24 120.878 31.88C120.211 31.68 119.671 31.4933 119.258 31.32C118.844 31.1467 118.404 30.9067 117.938 30.6C117.484 30.28 117.144 29.8867 116.918 29.42C116.691 28.9533 116.578 28.4067 116.578 27.78C116.578 26.54 117.018 25.56 117.898 24.84C118.778 24.1067 119.838 23.74 121.078 23.74C122.198 23.74 123.178 24.0133 124.018 24.56C124.858 25.1067 125.504 25.86 125.958 26.82L124.018 27.94C123.431 26.6333 122.451 25.98 121.078 25.98C120.411 25.98 119.878 26.14 119.478 26.46C119.078 26.7667 118.878 27.1867 118.878 27.72C118.878 28.24 119.078 28.6533 119.478 28.96C119.891 29.2533 120.631 29.5667 121.698 29.9C122.231 30.0733 122.618 30.2067 122.858 30.3C123.111 30.38 123.458 30.5133 123.898 30.7C124.351 30.8867 124.691 31.0733 124.918 31.26C125.144 31.4467 125.384 31.68 125.638 31.96C125.904 32.24 126.091 32.56 126.198 32.92C126.304 33.28 126.358 33.6867 126.358 34.14C126.358 35.4067 125.898 36.4133 124.978 37.16C124.071 37.8933 122.878 38.26 121.398 38.26ZM133.486 30.08H131.006V34.88C131.006 35.2933 131.1 35.5933 131.286 35.78C131.473 35.9533 131.746 36.0533 132.106 36.08C132.48 36.0933 132.94 36.0867 133.486 36.06V38C131.833 38.2 130.646 38.06 129.926 37.58C129.206 37.0867 128.846 36.1867 128.846 34.88V30.08H127.006V28H128.846V25.84L131.006 25.2V28H133.486V30.08ZM139.755 38.26C138.288 38.26 137.042 37.7533 136.015 36.74C134.988 35.7267 134.475 34.48 134.475 33C134.475 31.52 134.988 30.2733 136.015 29.26C137.042 28.2467 138.288 27.74 139.755 27.74C141.235 27.74 142.482 28.2467 143.495 29.26C144.522 30.2733 145.035 31.52 145.035 33C145.035 34.48 144.522 35.7267 143.495 36.74C142.482 37.7533 141.235 38.26 139.755 38.26ZM137.535 35.26C138.135 35.86 138.875 36.16 139.755 36.16C140.635 36.16 141.375 35.86 141.975 35.26C142.575 34.66 142.875 33.9067 142.875 33C142.875 32.0933 142.575 31.34 141.975 30.74C141.375 30.14 140.635 29.84 139.755 29.84C138.875 29.84 138.135 30.14 137.535 30.74C136.935 31.34 136.635 32.0933 136.635 33C136.635 33.9067 136.935 34.66 137.535 35.26ZM149.148 29.68C149.695 28.44 150.722 27.82 152.228 27.82V30.16C151.402 30.1067 150.682 30.3067 150.068 30.76C149.455 31.2 149.148 31.9333 149.148 32.96V38H146.988V28H149.148V29.68ZM155.055 33.92C155.215 34.68 155.582 35.2667 156.155 35.68C156.729 36.08 157.429 36.28 158.255 36.28C159.402 36.28 160.262 35.8667 160.835 35.04L162.615 36.08C161.629 37.5333 160.169 38.26 158.235 38.26C156.609 38.26 155.295 37.7667 154.295 36.78C153.295 35.78 152.795 34.52 152.795 33C152.795 31.5067 153.289 30.26 154.275 29.26C155.262 28.2467 156.529 27.74 158.075 27.74C159.542 27.74 160.742 28.2533 161.675 29.28C162.622 30.3067 163.095 31.5533 163.095 33.02C163.095 33.2467 163.069 33.5467 163.015 33.92H155.055ZM155.035 32.16H160.915C160.769 31.3467 160.429 30.7333 159.895 30.32C159.375 29.9067 158.762 29.7 158.055 29.7C157.255 29.7 156.589 29.92 156.055 30.36C155.522 30.8 155.182 31.4 155.035 32.16Z" fill="white"/>
<g clip-path="url(#clip0_2160_10809)">
<path d="M49.1285 10.5625C51.0628 8.01304 53.752 8.00061 53.752 8.00061C53.752 8.00061 54.152 10.3975 52.2303 12.7065C50.1785 15.1721 47.8464 14.7686 47.8464 14.7686C47.8464 14.7686 47.4084 12.8296 49.1285 10.5625ZM48.0924 16.4477C49.0875 16.4477 50.9343 15.0798 53.3383 15.0798C57.4762 15.0798 59.1041 18.0242 59.1041 18.0242C59.1041 18.0242 55.9203 19.652 55.9203 23.6019C55.9203 28.0576 59.8865 29.5932 59.8865 29.5932C59.8865 29.5932 57.114 37.3968 53.3691 37.3968C51.6491 37.3968 50.3119 36.2377 48.4996 36.2377C46.6527 36.2377 44.82 37.4401 43.6263 37.4401C40.2067 37.4402 35.8865 30.0376 35.8865 24.0872C35.8865 18.2329 39.5432 15.1618 42.9731 15.1618C45.2029 15.1618 46.9332 16.4477 48.0924 16.4477Z" fill="white"/>
</g>
</g>
<defs>
<filter id="filter0_d_2160_10809" x="0.886475" y="0" width="202" height="59" filterUnits="userSpaceOnUse" color-interpolation-filters="sRGB">
<feFlood flood-opacity="0" result="BackgroundImageFix"/>
<feColorMatrix in="SourceAlpha" type="matrix" values="0 0 0 0 0 0 0 0 0 0 0 0 0 0 0 0 0 0 127 0" result="hardAlpha"/>
<feOffset dy="4"/>
<feGaussianBlur stdDeviation="2"/>
<feComposite in2="hardAlpha" operator="out"/>
<feColorMatrix type="matrix" values="0 0 0 0 0 0 0 0 0 0 0 0 0 0 0 0 0 0 0.25 0"/>
<feBlend mode="normal" in2="BackgroundImageFix" result="effect1_dropShadow_2160_10809"/>
<feBlend mode="normal" in="SourceGraphic" in2="effect1_dropShadow_2160_10809" result="shape"/>
</filter>
<clipPath id="clip0_2160_10809">
<rect width="24" height="29.4406" fill="white" transform="translate(35.8865 8)"/>
</clipPath>
</defs>
</svg>
