<svg width="203" height="59" viewBox="0 0 203 59" fill="none" xmlns="http://www.w3.org/2000/svg">
<g filter="url(#filter0_d_2160_10799)">
<rect x="4.88647" width="194" height="51" rx="10" fill="#151515"/>
<g clip-path="url(#clip0_2160_10799)">
<path d="M43.2735 20.3262L28.7921 13.0924C28.6102 13 28.3812 13.0052 28.2051 13.0975C28.0232 13.1899 27.9116 13.354 27.9116 13.5387C27.9116 13.5387 27.9175 14.2057 27.9234 15.3036L38.4718 24.5229L43.2735 20.3262Z" fill="url(#paint0_linear_2160_10799)"/>
<path d="M27.9233 15.3036C27.9409 19.2643 27.9938 28.8786 28.0173 33.6653L38.4776 24.5229L27.9233 15.3036Z" fill="url(#paint1_linear_2160_10799)"/>
<path d="M51.5618 24.4664L43.2734 20.3262L38.4658 24.5228L43.8897 29.2633L51.5677 25.354C51.7497 25.2616 51.8612 25.0923 51.8612 24.9127C51.8612 24.7281 51.7438 24.5588 51.5618 24.4664Z" fill="url(#paint2_linear_2160_10799)"/>
<path d="M28.0115 33.6652C28.0232 35.3736 28.0291 36.4664 28.0291 36.4664C28.0291 36.6511 28.1406 36.8204 28.3226 36.9076C28.5046 37 28.7276 37 28.9096 36.9076L43.8957 29.2684L38.4719 24.528L28.0115 33.6652Z" fill="url(#paint3_linear_2160_10799)"/>
</g>
<path d="M72.1661 12.656V13.232C72.1661 14.384 71.7861 15.328 71.0261 16.064C70.2661 16.792 69.2741 17.156 68.0501 17.156C66.7541 17.156 65.6821 16.736 64.8341 15.896C63.9941 15.056 63.5741 14.024 63.5741 12.8C63.5741 11.584 63.9941 10.556 64.8341 9.716C65.6821 8.868 66.7301 8.444 67.9781 8.444C68.7621 8.444 69.4781 8.624 70.1261 8.984C70.7741 9.344 71.2781 9.828 71.6381 10.436L70.4501 11.12C70.2261 10.72 69.8941 10.4 69.4541 10.16C69.0141 9.912 68.5221 9.788 67.9781 9.788C67.0981 9.788 66.3741 10.076 65.8061 10.652C65.2381 11.228 64.9541 11.948 64.9541 12.812C64.9541 13.676 65.2381 14.392 65.8061 14.96C66.3821 15.528 67.1341 15.812 68.0621 15.812C68.8061 15.812 69.4101 15.64 69.8741 15.296C70.3461 14.944 70.6461 14.476 70.7741 13.892H67.9661V12.656H72.1661ZM74.8076 15.68H78.5276V17H73.4276V8.6H78.4676V9.92H74.8076V12.104H78.1676V13.412H74.8076V15.68ZM85.2509 8.6V9.92H82.8869V17H81.5069V9.92H79.1309V8.6H85.2509ZM89.2714 8.6H90.6514V17H89.2714V8.6ZM97.79 8.6V9.92H95.426V17H94.046V9.92H91.67V8.6H97.79ZM108.83 15.896C107.99 16.736 106.962 17.156 105.746 17.156C104.53 17.156 103.498 16.736 102.65 15.896C101.81 15.048 101.39 14.016 101.39 12.8C101.39 11.584 101.81 10.556 102.65 9.716C103.498 8.868 104.53 8.444 105.746 8.444C106.962 8.444 107.99 8.868 108.83 9.716C109.678 10.556 110.102 11.584 110.102 12.8C110.102 14.016 109.678 15.048 108.83 15.896ZM103.622 14.96C104.198 15.528 104.906 15.812 105.746 15.812C106.586 15.812 107.29 15.528 107.858 14.96C108.434 14.384 108.722 13.664 108.722 12.8C108.722 11.936 108.434 11.22 107.858 10.652C107.29 10.076 106.586 9.788 105.746 9.788C104.906 9.788 104.198 10.076 103.622 10.652C103.054 11.22 102.77 11.936 102.77 12.8C102.77 13.664 103.054 14.384 103.622 14.96ZM116.401 8.6H117.781V17H116.701L112.741 11.3V17H111.361V8.6H112.441L116.401 14.3V8.6Z" fill="white"/>
<path d="M77.9123 30.76V31.72C77.9123 33.64 77.279 35.2133 76.0123 36.44C74.7457 37.6533 73.0923 38.26 71.0523 38.26C68.8923 38.26 67.1057 37.56 65.6923 36.16C64.2923 34.76 63.5923 33.04 63.5923 31C63.5923 28.9733 64.2923 27.26 65.6923 25.86C67.1057 24.4467 68.8523 23.74 70.9323 23.74C72.239 23.74 73.4323 24.04 74.5123 24.64C75.5923 25.24 76.4323 26.0467 77.0323 27.06L75.0523 28.2C74.679 27.5333 74.1257 27 73.3923 26.6C72.659 26.1867 71.839 25.98 70.9323 25.98C69.4657 25.98 68.259 26.46 67.3123 27.42C66.3657 28.38 65.8923 29.58 65.8923 31.02C65.8923 32.46 66.3657 33.6533 67.3123 34.6C68.2723 35.5467 69.5257 36.02 71.0723 36.02C72.3123 36.02 73.319 35.7333 74.0923 35.16C74.879 34.5733 75.379 33.7933 75.5923 32.82H70.9123V30.76H77.9123ZM84.595 38.26C83.1283 38.26 81.8817 37.7533 80.855 36.74C79.8283 35.7267 79.315 34.48 79.315 33C79.315 31.52 79.8283 30.2733 80.855 29.26C81.8817 28.2467 83.1283 27.74 84.595 27.74C86.075 27.74 87.3217 28.2467 88.335 29.26C89.3617 30.2733 89.875 31.52 89.875 33C89.875 34.48 89.3617 35.7267 88.335 36.74C87.3217 37.7533 86.075 38.26 84.595 38.26ZM82.375 35.26C82.975 35.86 83.715 36.16 84.595 36.16C85.475 36.16 86.215 35.86 86.815 35.26C87.415 34.66 87.715 33.9067 87.715 33C87.715 32.0933 87.415 31.34 86.815 30.74C86.215 30.14 85.475 29.84 84.595 29.84C83.715 29.84 82.975 30.14 82.375 30.74C81.775 31.34 81.475 32.0933 81.475 33C81.475 33.9067 81.775 34.66 82.375 35.26ZM96.5481 38.26C95.0814 38.26 93.8348 37.7533 92.8081 36.74C91.7814 35.7267 91.2681 34.48 91.2681 33C91.2681 31.52 91.7814 30.2733 92.8081 29.26C93.8348 28.2467 95.0814 27.74 96.5481 27.74C98.0281 27.74 99.2748 28.2467 100.288 29.26C101.315 30.2733 101.828 31.52 101.828 33C101.828 34.48 101.315 35.7267 100.288 36.74C99.2748 37.7533 98.0281 38.26 96.5481 38.26ZM94.3281 35.26C94.9281 35.86 95.6681 36.16 96.5481 36.16C97.4281 36.16 98.1681 35.86 98.7681 35.26C99.3681 34.66 99.6681 33.9067 99.6681 33C99.6681 32.0933 99.3681 31.34 98.7681 30.74C98.1681 30.14 97.4281 29.84 96.5481 29.84C95.6681 29.84 94.9281 30.14 94.3281 30.74C93.7281 31.34 93.4281 32.0933 93.4281 33C93.4281 33.9067 93.7281 34.66 94.3281 35.26ZM111.741 28H113.861V37.54C113.861 39.06 113.361 40.2267 112.361 41.04C111.361 41.8533 110.148 42.26 108.721 42.26C106.415 42.26 104.835 41.4533 103.981 39.84L105.841 38.76C106.361 39.7867 107.335 40.3 108.761 40.3C109.695 40.3 110.421 40.0533 110.941 39.56C111.475 39.08 111.741 38.4067 111.741 37.54V36.32C110.928 37.48 109.768 38.06 108.261 38.06C106.848 38.06 105.655 37.56 104.681 36.56C103.708 35.5467 103.221 34.3267 103.221 32.9C103.221 31.4733 103.708 30.26 104.681 29.26C105.655 28.2467 106.848 27.74 108.261 27.74C109.768 27.74 110.928 28.32 111.741 29.48V28ZM106.281 35.14C106.895 35.74 107.655 36.04 108.561 36.04C109.468 36.04 110.221 35.74 110.821 35.14C111.435 34.54 111.741 33.7933 111.741 32.9C111.741 32.0067 111.435 31.26 110.821 30.66C110.221 30.06 109.468 29.76 108.561 29.76C107.655 29.76 106.895 30.06 106.281 30.66C105.681 31.26 105.381 32.0067 105.381 32.9C105.381 33.7933 105.681 34.54 106.281 35.14ZM116.379 38V23.4H118.539V38H116.379ZM122.747 33.92C122.907 34.68 123.274 35.2667 123.847 35.68C124.42 36.08 125.12 36.28 125.947 36.28C127.094 36.28 127.954 35.8667 128.527 35.04L130.307 36.08C129.32 37.5333 127.86 38.26 125.927 38.26C124.3 38.26 122.987 37.7667 121.987 36.78C120.987 35.78 120.487 34.52 120.487 33C120.487 31.5067 120.98 30.26 121.967 29.26C122.954 28.2467 124.22 27.74 125.767 27.74C127.234 27.74 128.434 28.2533 129.367 29.28C130.314 30.3067 130.787 31.5533 130.787 33.02C130.787 33.2467 130.76 33.5467 130.707 33.92H122.747ZM122.727 32.16H128.607C128.46 31.3467 128.12 30.7333 127.587 30.32C127.067 29.9067 126.454 29.7 125.747 29.7C124.947 29.7 124.28 29.92 123.747 30.36C123.214 30.8 122.874 31.4 122.727 32.16ZM142.987 24C144.307 24 145.407 24.44 146.287 25.32C147.181 26.2 147.627 27.2933 147.627 28.6C147.627 29.8933 147.181 30.9867 146.287 31.88C145.407 32.76 144.307 33.2 142.987 33.2H140.127V38H137.827V24H142.987ZM142.987 31.04C143.667 31.04 144.227 30.8133 144.667 30.36C145.107 29.8933 145.327 29.3067 145.327 28.6C145.327 27.8933 145.107 27.3133 144.667 26.86C144.227 26.3933 143.667 26.16 142.987 26.16H140.127V31.04H142.987ZM149.484 38V23.4H151.644V38H149.484ZM162.072 28H164.232V38H162.072V36.56C161.259 37.6933 160.092 38.26 158.572 38.26C157.199 38.26 156.026 37.7533 155.052 36.74C154.079 35.7133 153.592 34.4667 153.592 33C153.592 31.52 154.079 30.2733 155.052 29.26C156.026 28.2467 157.199 27.74 158.572 27.74C160.092 27.74 161.259 28.3 162.072 29.42V28ZM156.652 35.3C157.252 35.9 158.006 36.2 158.912 36.2C159.819 36.2 160.572 35.9 161.172 35.3C161.772 34.6867 162.072 33.92 162.072 33C162.072 32.08 161.772 31.32 161.172 30.72C160.572 30.1067 159.819 29.8 158.912 29.8C158.006 29.8 157.252 30.1067 156.652 30.72C156.052 31.32 155.752 32.08 155.752 33C155.752 33.92 156.052 34.6867 156.652 35.3ZM173.49 28H175.79L171.95 38.32C170.99 40.9067 169.363 42.1333 167.07 42V39.98C167.75 40.02 168.297 39.8733 168.71 39.54C169.123 39.22 169.463 38.7133 169.73 38.02L169.83 37.82L165.59 28H167.95L170.93 35.26L173.49 28Z" fill="white"/>
</g>
<defs>
<filter id="filter0_d_2160_10799" x="0.886475" y="0" width="202" height="59" filterUnits="userSpaceOnUse" color-interpolation-filters="sRGB">
<feFlood flood-opacity="0" result="BackgroundImageFix"/>
<feColorMatrix in="SourceAlpha" type="matrix" values="0 0 0 0 0 0 0 0 0 0 0 0 0 0 0 0 0 0 127 0" result="hardAlpha"/>
<feOffset dy="4"/>
<feGaussianBlur stdDeviation="2"/>
<feComposite in2="hardAlpha" operator="out"/>
<feColorMatrix type="matrix" values="0 0 0 0 0 0 0 0 0 0 0 0 0 0 0 0 0 0 0.25 0"/>
<feBlend mode="normal" in2="BackgroundImageFix" result="effect1_dropShadow_2160_10799"/>
<feBlend mode="normal" in="SourceGraphic" in2="effect1_dropShadow_2160_10799" result="shape"/>
</filter>
<linearGradient id="paint0_linear_2160_10799" x1="35.5925" y1="13.0256" x2="35.5925" y2="24.5229" gradientUnits="userSpaceOnUse">
<stop stop-color="#151515"/>
<stop offset="0.70625" stop-color="#01787B"/>
</linearGradient>
<linearGradient id="paint1_linear_2160_10799" x1="27.9205" y1="24.4866" x2="38.4715" y2="24.4866" gradientUnits="userSpaceOnUse">
<stop stop-color="#3EC6F2"/>
<stop offset="1" stop-color="#45AFE3"/>
</linearGradient>
<linearGradient id="paint2_linear_2160_10799" x1="38.4715" y1="24.798" x2="51.8598" y2="24.798" gradientUnits="userSpaceOnUse">
<stop stop-color="#FAA51A"/>
<stop offset="0.387" stop-color="#FAB716"/>
<stop offset="0.741" stop-color="#FAC412"/>
<stop offset="1" stop-color="#FAC80F"/>
</linearGradient>
<linearGradient id="paint3_linear_2160_10799" x1="28.0141" y1="30.7522" x2="43.8955" y2="30.7522" gradientUnits="userSpaceOnUse">
<stop stop-color="#EC3B50"/>
<stop offset="1" stop-color="#E7515B"/>
</linearGradient>
<clipPath id="clip0_2160_10799">
<rect width="24" height="24" fill="white" transform="translate(27.8865 13)"/>
</clipPath>
</defs>
</svg>
