<svg width="121" height="121" viewBox="0 0 121 121" fill="none" xmlns="http://www.w3.org/2000/svg">
<g filter="url(#filter0_b_3161_9154)">
<circle cx="60.0356" cy="60.4644" r="60.0356" fill="#F9F9F9" fill-opacity="0.8"/>
<circle cx="60.0356" cy="60.4644" r="59.0356" stroke="white" stroke-width="2"/>
</g>
<path d="M80.4337 61.2896L67.7986 73.9247C67.6053 74.118 67.3431 74.2266 67.0696 74.2266C66.7962 74.2266 66.534 74.118 66.3407 73.9247C66.1474 73.7313 66.0388 73.4691 66.0388 73.1957C66.0388 72.9223 66.1474 72.6601 66.3407 72.4668L77.2166 61.5909L40.33 61.3987C40.063 61.3893 39.8102 61.2766 39.6246 61.0844C39.4391 60.8922 39.3354 60.6355 39.3354 60.3684C39.3354 60.1013 39.4391 59.8446 39.6246 59.6524C39.8101 59.4603 40.063 59.3476 40.33 59.3382L77.2166 59.5304L66.3407 48.6544C66.1474 48.4611 66.0388 48.1989 66.0388 47.9255C66.0388 47.6521 66.1474 47.3899 66.3407 47.1965C66.534 47.0032 66.7962 46.8946 67.0696 46.8946C67.3431 46.8946 67.6053 47.0032 67.7986 47.1965L80.4337 59.8317C80.627 60.025 80.7356 60.2872 80.7356 60.5606C80.7356 60.834 80.627 61.0962 80.4337 61.2896Z" fill="black"/>
<defs>
<filter id="filter0_b_3161_9154" x="-9" y="-8.57117" width="138.071" height="138.071" filterUnits="userSpaceOnUse" color-interpolation-filters="sRGB">
<feFlood flood-opacity="0" result="BackgroundImageFix"/>
<feGaussianBlur in="BackgroundImageFix" stdDeviation="4.5"/>
<feComposite in2="SourceAlpha" operator="in" result="effect1_backgroundBlur_3161_9154"/>
<feBlend mode="normal" in="SourceGraphic" in2="effect1_backgroundBlur_3161_9154" result="shape"/>
</filter>
</defs>
</svg>
