<svg width="1159" height="199" viewBox="0 0 1159 199" fill="none" xmlns="http://www.w3.org/2000/svg">
<g filter="url(#filter0_b_113_5721)">
<path d="M60.7131 120.999V119.339H64.4731V133.799H62.6331V120.999H60.7131ZM67.5994 126.419C67.5994 124.126 67.9727 122.339 68.7194 121.059C69.466 119.766 70.7727 119.119 72.6394 119.119C74.4927 119.119 75.7927 119.766 76.5394 121.059C77.286 122.339 77.6594 124.126 77.6594 126.419C77.6594 128.752 77.286 130.566 76.5394 131.859C75.7927 133.152 74.4927 133.799 72.6394 133.799C70.7727 133.799 69.466 133.152 68.7194 131.859C67.9727 130.566 67.5994 128.752 67.5994 126.419ZM75.8594 126.419C75.8594 125.259 75.7794 124.279 75.6194 123.479C75.4727 122.666 75.1594 122.012 74.6794 121.519C74.2127 121.026 73.5327 120.779 72.6394 120.779C71.7327 120.779 71.0394 121.026 70.5594 121.519C70.0927 122.012 69.7794 122.666 69.6194 123.479C69.4727 124.279 69.3994 125.259 69.3994 126.419C69.3994 127.619 69.4727 128.626 69.6194 129.439C69.7794 130.252 70.0927 130.906 70.5594 131.399C71.0394 131.892 71.7327 132.139 72.6394 132.139C73.5327 132.139 74.2127 131.892 74.6794 131.399C75.1594 130.906 75.4727 130.252 75.6194 129.439C75.7794 128.626 75.8594 127.619 75.8594 126.419ZM79.758 122.599C79.758 121.692 80.0313 120.972 80.578 120.439C81.1246 119.892 81.8246 119.619 82.678 119.619C83.5313 119.619 84.2313 119.892 84.778 120.439C85.3246 120.972 85.598 121.692 85.598 122.599C85.598 123.519 85.3246 124.252 84.778 124.799C84.2313 125.332 83.5313 125.599 82.678 125.599C81.8246 125.599 81.1246 125.332 80.578 124.799C80.0313 124.252 79.758 123.519 79.758 122.599ZM91.438 119.839L83.338 133.799H81.538L89.638 119.839H91.438ZM82.678 120.739C82.2246 120.739 81.8646 120.899 81.598 121.219C81.3446 121.526 81.218 121.986 81.218 122.599C81.218 123.212 81.3446 123.679 81.598 123.999C81.8646 124.319 82.2246 124.479 82.678 124.479C83.1313 124.479 83.4913 124.319 83.758 123.999C84.0246 123.666 84.158 123.199 84.158 122.599C84.158 121.986 84.0246 121.526 83.758 121.219C83.4913 120.899 83.1313 120.739 82.678 120.739ZM87.418 131.039C87.418 130.119 87.6913 129.392 88.238 128.859C88.7846 128.312 89.4846 128.039 90.338 128.039C91.1913 128.039 91.8846 128.312 92.418 128.859C92.9646 129.392 93.238 130.119 93.238 131.039C93.238 131.946 92.9646 132.672 92.418 133.219C91.8846 133.766 91.1913 134.039 90.338 134.039C89.4846 134.039 88.7846 133.772 88.238 133.239C87.6913 132.692 87.418 131.959 87.418 131.039ZM90.318 129.179C89.8646 129.179 89.5046 129.339 89.238 129.659C88.9713 129.966 88.838 130.426 88.838 131.039C88.838 131.639 88.9713 132.099 89.238 132.419C89.5046 132.726 89.8646 132.879 90.318 132.879C90.7713 132.879 91.1313 132.726 91.398 132.419C91.6646 132.099 91.798 131.639 91.798 131.039C91.798 130.426 91.6646 129.966 91.398 129.659C91.1313 129.339 90.7713 129.179 90.318 129.179ZM100.286 126.819C100.286 125.459 100.592 124.239 101.206 123.159C101.819 122.066 102.652 121.212 103.706 120.599C104.772 119.986 105.952 119.679 107.246 119.679C108.766 119.679 110.092 120.046 111.226 120.779C112.359 121.512 113.186 122.552 113.706 123.899H111.526C111.139 123.059 110.579 122.412 109.846 121.959C109.126 121.506 108.259 121.279 107.246 121.279C106.272 121.279 105.399 121.506 104.626 121.959C103.852 122.412 103.246 123.059 102.806 123.899C102.366 124.726 102.146 125.699 102.146 126.819C102.146 127.926 102.366 128.899 102.806 129.739C103.246 130.566 103.852 131.206 104.626 131.659C105.399 132.112 106.272 132.339 107.246 132.339C108.259 132.339 109.126 132.119 109.846 131.679C110.579 131.226 111.139 130.579 111.526 129.739H113.706C113.186 131.072 112.359 132.106 111.226 132.839C110.092 133.559 108.766 133.919 107.246 133.919C105.952 133.919 104.772 133.619 103.706 133.019C102.652 132.406 101.819 131.559 101.206 130.479C100.592 129.399 100.286 128.179 100.286 126.819ZM121.195 133.979C120.168 133.979 119.235 133.746 118.395 133.279C117.568 132.812 116.915 132.152 116.435 131.299C115.968 130.432 115.735 129.432 115.735 128.299C115.735 127.179 115.975 126.192 116.455 125.339C116.948 124.472 117.615 123.812 118.455 123.359C119.295 122.892 120.235 122.659 121.275 122.659C122.315 122.659 123.255 122.892 124.095 123.359C124.935 123.812 125.595 124.466 126.075 125.319C126.568 126.172 126.815 127.166 126.815 128.299C126.815 129.432 126.562 130.432 126.055 131.299C125.562 132.152 124.888 132.812 124.035 133.279C123.182 133.746 122.235 133.979 121.195 133.979ZM121.195 132.379C121.848 132.379 122.462 132.226 123.035 131.919C123.608 131.612 124.068 131.152 124.415 130.539C124.775 129.926 124.955 129.179 124.955 128.299C124.955 127.419 124.782 126.672 124.435 126.059C124.088 125.446 123.635 124.992 123.075 124.699C122.515 124.392 121.908 124.239 121.255 124.239C120.588 124.239 119.975 124.392 119.415 124.699C118.868 124.992 118.428 125.446 118.095 126.059C117.762 126.672 117.595 127.419 117.595 128.299C117.595 129.192 117.755 129.946 118.075 130.559C118.408 131.172 118.848 131.632 119.395 131.939C119.942 132.232 120.542 132.379 121.195 132.379ZM142.388 122.639C143.241 122.639 144.001 122.819 144.668 123.179C145.335 123.526 145.861 124.052 146.248 124.759C146.635 125.466 146.828 126.326 146.828 127.339V133.799H145.028V127.599C145.028 126.506 144.755 125.672 144.208 125.099C143.675 124.512 142.948 124.219 142.028 124.219C141.081 124.219 140.328 124.526 139.768 125.139C139.208 125.739 138.928 126.612 138.928 127.759V133.799H137.128V127.599C137.128 126.506 136.855 125.672 136.308 125.099C135.775 124.512 135.048 124.219 134.128 124.219C133.181 124.219 132.428 124.526 131.868 125.139C131.308 125.739 131.028 126.612 131.028 127.759V133.799H129.208V122.839H131.028V124.419C131.388 123.846 131.868 123.406 132.468 123.099C133.081 122.792 133.755 122.639 134.488 122.639C135.408 122.639 136.221 122.846 136.928 123.259C137.635 123.672 138.161 124.279 138.508 125.079C138.815 124.306 139.321 123.706 140.028 123.279C140.735 122.852 141.521 122.639 142.388 122.639ZM162.993 122.639C163.847 122.639 164.607 122.819 165.273 123.179C165.94 123.526 166.467 124.052 166.853 124.759C167.24 125.466 167.433 126.326 167.433 127.339V133.799H165.633V127.599C165.633 126.506 165.36 125.672 164.813 125.099C164.28 124.512 163.553 124.219 162.633 124.219C161.687 124.219 160.933 124.526 160.373 125.139C159.813 125.739 159.533 126.612 159.533 127.759V133.799H157.733V127.599C157.733 126.506 157.46 125.672 156.913 125.099C156.38 124.512 155.653 124.219 154.733 124.219C153.787 124.219 153.033 124.526 152.473 125.139C151.913 125.739 151.633 126.612 151.633 127.759V133.799H149.813V122.839H151.633V124.419C151.993 123.846 152.473 123.406 153.073 123.099C153.687 122.792 154.36 122.639 155.093 122.639C156.013 122.639 156.827 122.846 157.533 123.259C158.24 123.672 158.767 124.279 159.113 125.079C159.42 124.306 159.927 123.706 160.633 123.279C161.34 122.852 162.127 122.639 162.993 122.639ZM171.359 121.059C171.012 121.059 170.719 120.939 170.479 120.699C170.239 120.459 170.119 120.166 170.119 119.819C170.119 119.472 170.239 119.179 170.479 118.939C170.719 118.699 171.012 118.579 171.359 118.579C171.692 118.579 171.972 118.699 172.199 118.939C172.439 119.179 172.559 119.472 172.559 119.819C172.559 120.166 172.439 120.459 172.199 120.699C171.972 120.939 171.692 121.059 171.359 121.059ZM172.239 122.839V133.799H170.419V122.839H172.239ZM179.221 133.979C178.381 133.979 177.627 133.839 176.961 133.559C176.294 133.266 175.767 132.866 175.381 132.359C174.994 131.839 174.781 131.246 174.741 130.579H176.621C176.674 131.126 176.927 131.572 177.381 131.919C177.847 132.266 178.454 132.439 179.201 132.439C179.894 132.439 180.441 132.286 180.841 131.979C181.241 131.672 181.441 131.286 181.441 130.819C181.441 130.339 181.227 129.986 180.801 129.759C180.374 129.519 179.714 129.286 178.821 129.059C178.007 128.846 177.341 128.632 176.821 128.419C176.314 128.192 175.874 127.866 175.501 127.439C175.141 126.999 174.961 126.426 174.961 125.719C174.961 125.159 175.127 124.646 175.461 124.179C175.794 123.712 176.267 123.346 176.881 123.079C177.494 122.799 178.194 122.659 178.981 122.659C180.194 122.659 181.174 122.966 181.921 123.579C182.667 124.192 183.067 125.032 183.121 126.099H181.301C181.261 125.526 181.027 125.066 180.601 124.719C180.187 124.372 179.627 124.199 178.921 124.199C178.267 124.199 177.747 124.339 177.361 124.619C176.974 124.899 176.781 125.266 176.781 125.719C176.781 126.079 176.894 126.379 177.121 126.619C177.361 126.846 177.654 127.032 178.001 127.179C178.361 127.312 178.854 127.466 179.481 127.639C180.267 127.852 180.907 128.066 181.401 128.279C181.894 128.479 182.314 128.786 182.661 129.199C183.021 129.612 183.207 130.152 183.221 130.819C183.221 131.419 183.054 131.959 182.721 132.439C182.387 132.919 181.914 133.299 181.301 133.579C180.701 133.846 180.007 133.979 179.221 133.979ZM189.67 133.979C188.83 133.979 188.077 133.839 187.41 133.559C186.743 133.266 186.217 132.866 185.83 132.359C185.443 131.839 185.23 131.246 185.19 130.579H187.07C187.123 131.126 187.377 131.572 187.83 131.919C188.297 132.266 188.903 132.439 189.65 132.439C190.343 132.439 190.89 132.286 191.29 131.979C191.69 131.672 191.89 131.286 191.89 130.819C191.89 130.339 191.677 129.986 191.25 129.759C190.823 129.519 190.163 129.286 189.27 129.059C188.457 128.846 187.79 128.632 187.27 128.419C186.763 128.192 186.323 127.866 185.95 127.439C185.59 126.999 185.41 126.426 185.41 125.719C185.41 125.159 185.577 124.646 185.91 124.179C186.243 123.712 186.717 123.346 187.33 123.079C187.943 122.799 188.643 122.659 189.43 122.659C190.643 122.659 191.623 122.966 192.37 123.579C193.117 124.192 193.517 125.032 193.57 126.099H191.75C191.71 125.526 191.477 125.066 191.05 124.719C190.637 124.372 190.077 124.199 189.37 124.199C188.717 124.199 188.197 124.339 187.81 124.619C187.423 124.899 187.23 125.266 187.23 125.719C187.23 126.079 187.343 126.379 187.57 126.619C187.81 126.846 188.103 127.032 188.45 127.179C188.81 127.312 189.303 127.466 189.93 127.639C190.717 127.852 191.357 128.066 191.85 128.279C192.343 128.479 192.763 128.786 193.11 129.199C193.47 129.612 193.657 130.152 193.67 130.819C193.67 131.419 193.503 131.959 193.17 132.439C192.837 132.919 192.363 133.299 191.75 133.579C191.15 133.846 190.457 133.979 189.67 133.979ZM197.179 121.059C196.833 121.059 196.539 120.939 196.299 120.699C196.059 120.459 195.939 120.166 195.939 119.819C195.939 119.472 196.059 119.179 196.299 118.939C196.539 118.699 196.833 118.579 197.179 118.579C197.513 118.579 197.793 118.699 198.019 118.939C198.259 119.179 198.379 119.472 198.379 119.819C198.379 120.166 198.259 120.459 198.019 120.699C197.793 120.939 197.513 121.059 197.179 121.059ZM198.059 122.839V133.799H196.239V122.839H198.059ZM205.941 133.979C204.914 133.979 203.981 133.746 203.141 133.279C202.314 132.812 201.661 132.152 201.181 131.299C200.714 130.432 200.481 129.432 200.481 128.299C200.481 127.179 200.721 126.192 201.201 125.339C201.694 124.472 202.361 123.812 203.201 123.359C204.041 122.892 204.981 122.659 206.021 122.659C207.061 122.659 208.001 122.892 208.841 123.359C209.681 123.812 210.341 124.466 210.821 125.319C211.314 126.172 211.561 127.166 211.561 128.299C211.561 129.432 211.308 130.432 210.801 131.299C210.308 132.152 209.634 132.812 208.781 133.279C207.928 133.746 206.981 133.979 205.941 133.979ZM205.941 132.379C206.594 132.379 207.208 132.226 207.781 131.919C208.354 131.612 208.814 131.152 209.161 130.539C209.521 129.926 209.701 129.179 209.701 128.299C209.701 127.419 209.528 126.672 209.181 126.059C208.834 125.446 208.381 124.992 207.821 124.699C207.261 124.392 206.654 124.239 206.001 124.239C205.334 124.239 204.721 124.392 204.161 124.699C203.614 124.992 203.174 125.446 202.841 126.059C202.508 126.672 202.341 127.419 202.341 128.299C202.341 129.192 202.501 129.946 202.821 130.559C203.154 131.172 203.594 131.632 204.141 131.939C204.688 132.232 205.288 132.379 205.941 132.379ZM219.294 122.639C220.627 122.639 221.707 123.046 222.534 123.859C223.361 124.659 223.774 125.819 223.774 127.339V133.799H221.974V127.599C221.974 126.506 221.701 125.672 221.154 125.099C220.607 124.512 219.861 124.219 218.914 124.219C217.954 124.219 217.187 124.519 216.614 125.119C216.054 125.719 215.774 126.592 215.774 127.739V133.799H213.954V122.839H215.774V124.399C216.134 123.839 216.621 123.406 217.234 123.099C217.861 122.792 218.547 122.639 219.294 122.639ZM236.859 133.979C235.832 133.979 234.899 133.746 234.059 133.279C233.232 132.812 232.579 132.152 232.099 131.299C231.632 130.432 231.399 129.432 231.399 128.299C231.399 127.179 231.639 126.192 232.119 125.339C232.612 124.472 233.279 123.812 234.119 123.359C234.959 122.892 235.899 122.659 236.939 122.659C237.979 122.659 238.919 122.892 239.759 123.359C240.599 123.812 241.259 124.466 241.739 125.319C242.232 126.172 242.479 127.166 242.479 128.299C242.479 129.432 242.226 130.432 241.719 131.299C241.226 132.152 240.552 132.812 239.699 133.279C238.846 133.746 237.899 133.979 236.859 133.979ZM236.859 132.379C237.512 132.379 238.126 132.226 238.699 131.919C239.272 131.612 239.732 131.152 240.079 130.539C240.439 129.926 240.619 129.179 240.619 128.299C240.619 127.419 240.446 126.672 240.099 126.059C239.752 125.446 239.299 124.992 238.739 124.699C238.179 124.392 237.572 124.239 236.919 124.239C236.252 124.239 235.639 124.392 235.079 124.699C234.532 124.992 234.092 125.446 233.759 126.059C233.426 126.672 233.259 127.419 233.259 128.299C233.259 129.192 233.419 129.946 233.739 130.559C234.072 131.172 234.512 131.632 235.059 131.939C235.606 132.232 236.206 132.379 236.859 132.379ZM250.212 122.639C251.545 122.639 252.625 123.046 253.452 123.859C254.279 124.659 254.692 125.819 254.692 127.339V133.799H252.892V127.599C252.892 126.506 252.619 125.672 252.072 125.099C251.525 124.512 250.779 124.219 249.832 124.219C248.872 124.219 248.105 124.519 247.532 125.119C246.972 125.719 246.692 126.592 246.692 127.739V133.799H244.872V122.839H246.692V124.399C247.052 123.839 247.539 123.406 248.152 123.099C248.779 122.792 249.465 122.639 250.212 122.639ZM112.385 151.879C112.759 151.226 113.305 150.692 114.025 150.279C114.745 149.866 115.565 149.659 116.485 149.659C117.472 149.659 118.359 149.892 119.145 150.359C119.932 150.826 120.552 151.486 121.005 152.339C121.459 153.179 121.685 154.159 121.685 155.279C121.685 156.386 121.459 157.372 121.005 158.239C120.552 159.106 119.925 159.779 119.125 160.259C118.339 160.739 117.459 160.979 116.485 160.979C115.539 160.979 114.705 160.772 113.985 160.359C113.279 159.946 112.745 159.419 112.385 158.779V160.799H110.565V145.999H112.385V151.879ZM119.825 155.279C119.825 154.452 119.659 153.732 119.325 153.119C118.992 152.506 118.539 152.039 117.965 151.719C117.405 151.399 116.785 151.239 116.105 151.239C115.439 151.239 114.819 151.406 114.245 151.739C113.685 152.059 113.232 152.532 112.885 153.159C112.552 153.772 112.385 154.486 112.385 155.299C112.385 156.126 112.552 156.852 112.885 157.479C113.232 158.092 113.685 158.566 114.245 158.899C114.819 159.219 115.439 159.379 116.105 159.379C116.785 159.379 117.405 159.219 117.965 158.899C118.539 158.566 118.992 158.092 119.325 157.479C119.659 156.852 119.825 156.119 119.825 155.279ZM125.901 151.619C126.221 150.992 126.674 150.506 127.261 150.159C127.861 149.812 128.588 149.639 129.441 149.639V151.519H128.961C126.921 151.519 125.901 152.626 125.901 154.839V160.799H124.081V149.839H125.901V151.619ZM136.322 160.979C135.295 160.979 134.362 160.746 133.522 160.279C132.695 159.812 132.042 159.152 131.562 158.299C131.095 157.432 130.862 156.432 130.862 155.299C130.862 154.179 131.102 153.192 131.582 152.339C132.075 151.472 132.742 150.812 133.582 150.359C134.422 149.892 135.362 149.659 136.402 149.659C137.442 149.659 138.382 149.892 139.222 150.359C140.062 150.812 140.722 151.466 141.202 152.319C141.695 153.172 141.942 154.166 141.942 155.299C141.942 156.432 141.689 157.432 141.182 158.299C140.689 159.152 140.015 159.812 139.162 160.279C138.309 160.746 137.362 160.979 136.322 160.979ZM136.322 159.379C136.975 159.379 137.589 159.226 138.162 158.919C138.735 158.612 139.195 158.152 139.542 157.539C139.902 156.926 140.082 156.179 140.082 155.299C140.082 154.419 139.909 153.672 139.562 153.059C139.215 152.446 138.762 151.992 138.202 151.699C137.642 151.392 137.035 151.239 136.382 151.239C135.715 151.239 135.102 151.392 134.542 151.699C133.995 151.992 133.555 152.446 133.222 153.059C132.889 153.672 132.722 154.419 132.722 155.299C132.722 156.192 132.882 156.946 133.202 157.559C133.535 158.172 133.975 158.632 134.522 158.939C135.069 159.232 135.669 159.379 136.322 159.379ZM150.455 160.799L146.155 155.959V160.799H144.335V145.999H146.155V154.699L150.375 149.839H152.915L147.755 155.299L152.935 160.799H150.455ZM164.628 154.899C164.628 155.246 164.608 155.612 164.568 155.999H155.808C155.875 157.079 156.241 157.926 156.908 158.539C157.588 159.139 158.408 159.439 159.368 159.439C160.155 159.439 160.808 159.259 161.328 158.899C161.861 158.526 162.235 158.032 162.448 157.419H164.408C164.115 158.472 163.528 159.332 162.648 159.999C161.768 160.652 160.675 160.979 159.368 160.979C158.328 160.979 157.395 160.746 156.568 160.279C155.755 159.812 155.115 159.152 154.648 158.299C154.181 157.432 153.948 156.432 153.948 155.299C153.948 154.166 154.175 153.172 154.628 152.319C155.081 151.466 155.715 150.812 156.528 150.359C157.355 149.892 158.301 149.659 159.368 149.659C160.408 149.659 161.328 149.886 162.128 150.339C162.928 150.792 163.541 151.419 163.968 152.219C164.408 153.006 164.628 153.899 164.628 154.899ZM162.748 154.519C162.748 153.826 162.595 153.232 162.288 152.739C161.981 152.232 161.561 151.852 161.028 151.599C160.508 151.332 159.928 151.199 159.288 151.199C158.368 151.199 157.581 151.492 156.928 152.079C156.288 152.666 155.921 153.479 155.828 154.519H162.748ZM168.85 151.619C169.17 150.992 169.624 150.506 170.21 150.159C170.81 149.812 171.537 149.639 172.39 149.639V151.519H171.91C169.87 151.519 168.85 152.626 168.85 154.839V160.799H167.03V149.839H168.85V151.619ZM173.811 155.279C173.811 154.159 174.038 153.179 174.491 152.339C174.945 151.486 175.565 150.826 176.351 150.359C177.151 149.892 178.038 149.659 179.011 149.659C179.971 149.659 180.805 149.866 181.511 150.279C182.218 150.692 182.745 151.212 183.091 151.839V149.839H184.931V160.799H183.091V158.759C182.731 159.399 182.191 159.932 181.471 160.359C180.765 160.772 179.938 160.979 178.991 160.979C178.018 160.979 177.138 160.739 176.351 160.259C175.565 159.779 174.945 159.106 174.491 158.239C174.038 157.372 173.811 156.386 173.811 155.279ZM183.091 155.299C183.091 154.472 182.925 153.752 182.591 153.139C182.258 152.526 181.805 152.059 181.231 151.739C180.671 151.406 180.051 151.239 179.371 151.239C178.691 151.239 178.071 151.399 177.511 151.719C176.951 152.039 176.505 152.506 176.171 153.119C175.838 153.732 175.671 154.452 175.671 155.279C175.671 156.119 175.838 156.852 176.171 157.479C176.505 158.092 176.951 158.566 177.511 158.899C178.071 159.219 178.691 159.379 179.371 159.379C180.051 159.379 180.671 159.219 181.231 158.899C181.805 158.566 182.258 158.092 182.591 157.479C182.925 156.852 183.091 156.126 183.091 155.299ZM192.527 149.659C193.473 149.659 194.3 149.866 195.007 150.279C195.727 150.692 196.26 151.212 196.607 151.839V149.839H198.447V161.039C198.447 162.039 198.233 162.926 197.807 163.699C197.38 164.486 196.767 165.099 195.967 165.539C195.18 165.979 194.26 166.199 193.207 166.199C191.767 166.199 190.567 165.859 189.607 165.179C188.647 164.499 188.08 163.572 187.907 162.399H189.707C189.907 163.066 190.32 163.599 190.947 163.999C191.573 164.412 192.327 164.619 193.207 164.619C194.207 164.619 195.02 164.306 195.647 163.679C196.287 163.052 196.607 162.172 196.607 161.039V158.739C196.247 159.379 195.713 159.912 195.007 160.339C194.3 160.766 193.473 160.979 192.527 160.979C191.553 160.979 190.667 160.739 189.867 160.259C189.08 159.779 188.46 159.106 188.007 158.239C187.553 157.372 187.327 156.386 187.327 155.279C187.327 154.159 187.553 153.179 188.007 152.339C188.46 151.486 189.08 150.826 189.867 150.359C190.667 149.892 191.553 149.659 192.527 149.659ZM196.607 155.299C196.607 154.472 196.44 153.752 196.107 153.139C195.773 152.526 195.32 152.059 194.747 151.739C194.187 151.406 193.567 151.239 192.887 151.239C192.207 151.239 191.587 151.399 191.027 151.719C190.467 152.039 190.02 152.506 189.687 153.119C189.353 153.732 189.187 154.452 189.187 155.279C189.187 156.119 189.353 156.852 189.687 157.479C190.02 158.092 190.467 158.566 191.027 158.899C191.587 159.219 192.207 159.379 192.887 159.379C193.567 159.379 194.187 159.219 194.747 158.899C195.32 158.566 195.773 158.092 196.107 157.479C196.44 156.852 196.607 156.126 196.607 155.299ZM211.522 154.899C211.522 155.246 211.502 155.612 211.462 155.999H202.702C202.769 157.079 203.136 157.926 203.802 158.539C204.482 159.139 205.302 159.439 206.262 159.439C207.049 159.439 207.702 159.259 208.222 158.899C208.756 158.526 209.129 158.032 209.342 157.419H211.302C211.009 158.472 210.422 159.332 209.542 159.999C208.662 160.652 207.569 160.979 206.262 160.979C205.222 160.979 204.289 160.746 203.462 160.279C202.649 159.812 202.009 159.152 201.542 158.299C201.076 157.432 200.842 156.432 200.842 155.299C200.842 154.166 201.069 153.172 201.522 152.319C201.976 151.466 202.609 150.812 203.422 150.359C204.249 149.892 205.196 149.659 206.262 149.659C207.302 149.659 208.222 149.886 209.022 150.339C209.822 150.792 210.436 151.419 210.862 152.219C211.302 153.006 211.522 153.899 211.522 154.899ZM209.642 154.519C209.642 153.826 209.489 153.232 209.182 152.739C208.876 152.232 208.456 151.852 207.922 151.599C207.402 151.332 206.822 151.199 206.182 151.199C205.262 151.199 204.476 151.492 203.822 152.079C203.182 152.666 202.816 153.479 202.722 154.519H209.642Z" fill="black"/>
</g>
<path fill-rule="evenodd" clip-rule="evenodd" d="M156.635 32.2009C138.808 32.2009 124.336 46.6731 124.336 64.5C124.336 82.3268 138.808 96.799 156.635 96.799C174.462 96.799 188.934 82.3268 188.934 64.5C188.934 46.6731 174.462 32.2009 156.635 32.2009ZM156.635 35.0094C172.91 35.0094 186.126 48.2249 186.126 64.5002C186.126 80.7755 172.91 93.991 156.635 93.991C140.36 93.991 127.144 80.7755 127.144 64.5002C127.144 48.2249 140.36 35.0094 156.635 35.0094Z" fill="#118B64"/>
<path fill-rule="evenodd" clip-rule="evenodd" d="M148.209 49.053C144.333 49.053 141.188 52.1986 141.188 56.0744C141.188 59.9502 144.333 63.0959 148.209 63.0959C152.085 63.0959 155.23 59.9502 155.23 56.0744C155.23 52.1986 152.085 49.053 148.209 49.053ZM148.209 51.8615C150.535 51.8615 152.422 53.7489 152.422 56.0744C152.422 58.4 150.535 60.2874 148.209 60.2874C145.883 60.2874 143.996 58.4 143.996 56.0744C143.996 53.7489 145.883 51.8615 148.209 51.8615Z" fill="#118B64"/>
<path fill-rule="evenodd" clip-rule="evenodd" d="M165.061 65.9048C161.185 65.9048 158.039 69.0504 158.039 72.9262C158.039 76.802 161.185 79.9477 165.061 79.9477C168.936 79.9477 172.082 76.802 172.082 72.9262C172.082 69.0504 168.936 65.9048 165.061 65.9048ZM165.061 68.7133C167.386 68.7133 169.273 70.6007 169.273 72.9262C169.273 75.2518 167.386 77.1392 165.061 77.1392C162.735 77.1392 160.848 75.2518 160.848 72.9262C160.848 70.6007 162.735 68.7133 165.061 68.7133Z" fill="#118B64"/>
<path fill-rule="evenodd" clip-rule="evenodd" d="M143.586 79.5355L171.672 51.4494C172.22 50.9017 172.22 50.0116 171.672 49.4638C171.124 48.916 170.234 48.916 169.686 49.4638L141.6 77.5499C141.053 78.0977 141.053 78.9877 141.6 79.5355C142.148 80.0833 143.038 80.0833 143.586 79.5355Z" fill="#118B64"/>
<g clip-path="url(#clip0_113_5721)">
<path d="M355.225 133.94V64.9399" stroke="#118B64" stroke-width="2.76"/>
</g>
<path d="M607.05 56.168C602.681 56.1585 598.487 57.8654 595.392 60.9126L584.117 71.2472L572.843 81.6036L572.708 81.7372V81.7367C570.24 84.122 566.918 85.447 563.466 85.4224C560.013 85.3983 556.711 84.0264 554.278 81.607C551.846 79.187 550.481 75.9151 550.481 72.5051C550.481 69.0952 551.846 65.8233 554.278 63.4038C556.711 60.9838 560.013 59.6119 563.466 59.5878C566.918 59.5632 570.24 60.8882 572.708 63.2735L579.021 69.0644C579.736 69.4716 580.642 69.3256 581.189 68.7154C581.736 68.1046 581.773 67.1986 581.276 66.5475L575.052 60.8461L575.053 60.8456C571.937 57.8098 567.731 56.1157 563.354 56.1353C558.977 56.1549 554.786 57.8859 551.699 60.9491C548.611 64.0128 546.877 68.16 546.877 72.4829C546.877 76.8061 548.611 80.9527 551.699 84.0166C554.786 87.0803 558.977 88.8114 563.354 88.8304C567.731 88.85 571.937 87.1565 575.053 84.1201L586.327 73.7855L597.602 63.4291L597.737 63.2954V63.296C600.203 60.9062 603.526 59.5772 606.98 59.5991C610.434 59.6204 613.739 60.9912 616.174 63.4113C618.609 65.8313 619.976 69.1049 619.976 72.5165C619.976 75.9282 618.609 79.2017 616.174 81.6218C613.739 84.042 610.434 85.4128 606.98 85.434C603.526 85.4558 600.203 84.1269 597.737 81.7371L591.424 75.9686H591.423C591.11 75.5575 590.626 75.3069 590.105 75.2863C589.584 75.2661 589.081 75.4781 588.736 75.8634C588.39 76.2493 588.238 76.7678 588.322 77.2762C588.406 77.784 588.717 78.2281 589.168 78.4854L595.392 84.1868V84.1873C599.328 88.0006 604.929 89.6281 610.329 88.5269C615.728 87.4257 620.218 83.741 622.303 78.7001C624.389 73.6587 623.796 67.9227 620.722 63.4015C617.648 58.8808 612.496 56.1687 606.983 56.1681L607.05 56.168Z" fill="#118B64"/>
<g filter="url(#filter1_b_113_5721)">
<path d="M509.59 134.865H507.77L500.45 123.765V134.865H498.63V120.905H500.45L507.77 131.985V120.905H509.59V134.865ZM517.472 135.045C516.446 135.045 515.512 134.812 514.672 134.345C513.846 133.878 513.192 133.218 512.712 132.365C512.246 131.498 512.012 130.498 512.012 129.365C512.012 128.245 512.252 127.258 512.732 126.405C513.226 125.538 513.892 124.878 514.732 124.425C515.572 123.958 516.512 123.725 517.552 123.725C518.592 123.725 519.532 123.958 520.372 124.425C521.212 124.878 521.872 125.532 522.352 126.385C522.846 127.238 523.092 128.232 523.092 129.365C523.092 130.498 522.839 131.498 522.332 132.365C521.839 133.218 521.166 133.878 520.312 134.345C519.459 134.812 518.512 135.045 517.472 135.045ZM517.472 133.445C518.126 133.445 518.739 133.292 519.312 132.985C519.886 132.678 520.346 132.218 520.692 131.605C521.052 130.992 521.232 130.245 521.232 129.365C521.232 128.485 521.059 127.738 520.712 127.125C520.366 126.512 519.912 126.058 519.352 125.765C518.792 125.458 518.186 125.305 517.532 125.305C516.866 125.305 516.252 125.458 515.692 125.765C515.146 126.058 514.706 126.512 514.372 127.125C514.039 127.738 513.872 128.485 513.872 129.365C513.872 130.258 514.032 131.012 514.352 131.625C514.686 132.238 515.126 132.698 515.672 133.005C516.219 133.298 516.819 133.445 517.472 133.445ZM532.637 120.065V134.865H530.817V120.065H532.637ZM536.679 122.125C536.333 122.125 536.039 122.005 535.799 121.765C535.559 121.525 535.439 121.232 535.439 120.885C535.439 120.538 535.559 120.245 535.799 120.005C536.039 119.765 536.333 119.645 536.679 119.645C537.013 119.645 537.293 119.765 537.519 120.005C537.759 120.245 537.879 120.538 537.879 120.885C537.879 121.232 537.759 121.525 537.519 121.765C537.293 122.005 537.013 122.125 536.679 122.125ZM537.559 123.905V134.865H535.739V123.905H537.559ZM553.841 123.705C554.694 123.705 555.454 123.885 556.121 124.245C556.788 124.592 557.314 125.118 557.701 125.825C558.088 126.532 558.281 127.392 558.281 128.405V134.865H556.481V128.665C556.481 127.572 556.208 126.738 555.661 126.165C555.128 125.578 554.401 125.285 553.481 125.285C552.534 125.285 551.781 125.592 551.221 126.205C550.661 126.805 550.381 127.678 550.381 128.825V134.865H548.581V128.665C548.581 127.572 548.308 126.738 547.761 126.165C547.228 125.578 546.501 125.285 545.581 125.285C544.634 125.285 543.881 125.592 543.321 126.205C542.761 126.805 542.481 127.678 542.481 128.825V134.865H540.661V123.905H542.481V125.485C542.841 124.912 543.321 124.472 543.921 124.165C544.534 123.858 545.208 123.705 545.941 123.705C546.861 123.705 547.674 123.912 548.381 124.325C549.088 124.738 549.614 125.345 549.961 126.145C550.268 125.372 550.774 124.772 551.481 124.345C552.188 123.918 552.974 123.705 553.841 123.705ZM562.207 122.125C561.86 122.125 561.567 122.005 561.327 121.765C561.087 121.525 560.967 121.232 560.967 120.885C560.967 120.538 561.087 120.245 561.327 120.005C561.567 119.765 561.86 119.645 562.207 119.645C562.54 119.645 562.82 119.765 563.047 120.005C563.287 120.245 563.407 120.538 563.407 120.885C563.407 121.232 563.287 121.525 563.047 121.765C562.82 122.005 562.54 122.125 562.207 122.125ZM563.087 123.905V134.865H561.267V123.905H563.087ZM568.408 125.405V131.865C568.408 132.398 568.522 132.778 568.748 133.005C568.975 133.218 569.368 133.325 569.928 133.325H571.268V134.865H569.628C568.615 134.865 567.855 134.632 567.348 134.165C566.842 133.698 566.588 132.932 566.588 131.865V125.405H565.168V123.905H566.588V121.145H568.408V123.905H571.268V125.405H568.408ZM583.586 135.045C582.559 135.045 581.626 134.812 580.786 134.345C579.959 133.878 579.306 133.218 578.826 132.365C578.359 131.498 578.126 130.498 578.126 129.365C578.126 128.245 578.366 127.258 578.846 126.405C579.339 125.538 580.006 124.878 580.846 124.425C581.686 123.958 582.626 123.725 583.666 123.725C584.706 123.725 585.646 123.958 586.486 124.425C587.326 124.878 587.986 125.532 588.466 126.385C588.959 127.238 589.206 128.232 589.206 129.365C589.206 130.498 588.952 131.498 588.446 132.365C587.952 133.218 587.279 133.878 586.426 134.345C585.572 134.812 584.626 135.045 583.586 135.045ZM583.586 133.445C584.239 133.445 584.852 133.292 585.426 132.985C585.999 132.678 586.459 132.218 586.806 131.605C587.166 130.992 587.346 130.245 587.346 129.365C587.346 128.485 587.172 127.738 586.826 127.125C586.479 126.512 586.026 126.058 585.466 125.765C584.906 125.458 584.299 125.305 583.646 125.305C582.979 125.305 582.366 125.458 581.806 125.765C581.259 126.058 580.819 126.512 580.486 127.125C580.152 127.738 579.986 128.485 579.986 129.365C579.986 130.258 580.146 131.012 580.466 131.625C580.799 132.238 581.239 132.698 581.786 133.005C582.332 133.298 582.932 133.445 583.586 133.445ZM596.939 123.705C598.272 123.705 599.352 124.112 600.179 124.925C601.005 125.725 601.419 126.885 601.419 128.405V134.865H599.619V128.665C599.619 127.572 599.345 126.738 598.799 126.165C598.252 125.578 597.505 125.285 596.559 125.285C595.599 125.285 594.832 125.585 594.259 126.185C593.699 126.785 593.419 127.658 593.419 128.805V134.865H591.599V123.905H593.419V125.465C593.779 124.905 594.265 124.472 594.879 124.165C595.505 123.858 596.192 123.705 596.939 123.705ZM611.944 125.405V131.865C611.944 132.398 612.057 132.778 612.284 133.005C612.51 133.218 612.904 133.325 613.464 133.325H614.804V134.865H613.164C612.15 134.865 611.39 134.632 610.884 134.165C610.377 133.698 610.124 132.932 610.124 131.865V125.405H608.704V123.905H610.124V121.145H611.944V123.905H614.804V125.405H611.944ZM627.009 128.965C627.009 129.312 626.989 129.678 626.949 130.065H618.189C618.255 131.145 618.622 131.992 619.289 132.605C619.969 133.205 620.789 133.505 621.749 133.505C622.535 133.505 623.189 133.325 623.709 132.965C624.242 132.592 624.615 132.098 624.829 131.485H626.789C626.495 132.538 625.909 133.398 625.029 134.065C624.149 134.718 623.055 135.045 621.749 135.045C620.709 135.045 619.775 134.812 618.949 134.345C618.135 133.878 617.495 133.218 617.029 132.365C616.562 131.498 616.329 130.498 616.329 129.365C616.329 128.232 616.555 127.238 617.009 126.385C617.462 125.532 618.095 124.878 618.909 124.425C619.735 123.958 620.682 123.725 621.749 123.725C622.789 123.725 623.709 123.952 624.509 124.405C625.309 124.858 625.922 125.485 626.349 126.285C626.789 127.072 627.009 127.965 627.009 128.965ZM625.129 128.585C625.129 127.892 624.975 127.298 624.669 126.805C624.362 126.298 623.942 125.918 623.409 125.665C622.889 125.398 622.309 125.265 621.669 125.265C620.749 125.265 619.962 125.558 619.309 126.145C618.669 126.732 618.302 127.545 618.209 128.585H625.129ZM634.751 123.705C636.084 123.705 637.164 124.112 637.991 124.925C638.818 125.725 639.231 126.885 639.231 128.405V134.865H637.431V128.665C637.431 127.572 637.158 126.738 636.611 126.165C636.064 125.578 635.318 125.285 634.371 125.285C633.411 125.285 632.644 125.585 632.071 126.185C631.511 126.785 631.231 127.658 631.231 128.805V134.865H629.411V123.905H631.231V125.465C631.591 124.905 632.078 124.472 632.691 124.165C633.318 123.858 634.004 123.705 634.751 123.705ZM651.924 123.905V134.865H650.104V133.245C649.757 133.805 649.271 134.245 648.644 134.565C648.031 134.872 647.351 135.025 646.604 135.025C645.751 135.025 644.984 134.852 644.304 134.505C643.624 134.145 643.084 133.612 642.684 132.905C642.297 132.198 642.104 131.338 642.104 130.325V123.905H643.904V130.085C643.904 131.165 644.177 131.998 644.724 132.585C645.271 133.158 646.017 133.445 646.964 133.445C647.937 133.445 648.704 133.145 649.264 132.545C649.824 131.945 650.104 131.072 650.104 129.925V123.905H651.924ZM656.817 125.685C657.137 125.058 657.59 124.572 658.177 124.225C658.777 123.878 659.504 123.705 660.357 123.705V125.585H659.877C657.837 125.585 656.817 126.692 656.817 128.905V134.865H654.997V123.905H656.817V125.685ZM672.458 128.965C672.458 129.312 672.438 129.678 672.398 130.065H663.638C663.705 131.145 664.071 131.992 664.738 132.605C665.418 133.205 666.238 133.505 667.198 133.505C667.985 133.505 668.638 133.325 669.158 132.965C669.691 132.592 670.065 132.098 670.278 131.485H672.238C671.945 132.538 671.358 133.398 670.478 134.065C669.598 134.718 668.505 135.045 667.198 135.045C666.158 135.045 665.225 134.812 664.398 134.345C663.585 133.878 662.945 133.218 662.478 132.365C662.011 131.498 661.778 130.498 661.778 129.365C661.778 128.232 662.005 127.238 662.458 126.385C662.911 125.532 663.545 124.878 664.358 124.425C665.185 123.958 666.131 123.725 667.198 123.725C668.238 123.725 669.158 123.952 669.958 124.405C670.758 124.858 671.371 125.485 671.798 126.285C672.238 127.072 672.458 127.965 672.458 128.965ZM670.578 128.585C670.578 127.892 670.425 127.298 670.118 126.805C669.811 126.298 669.391 125.918 668.858 125.665C668.338 125.398 667.758 125.265 667.118 125.265C666.198 125.265 665.411 125.558 664.758 126.145C664.118 126.732 663.751 127.545 663.658 128.585H670.578Z" fill="black"/>
</g>
<g clip-path="url(#clip1_113_5721)">
<path d="M815.225 133.94V64.9399" stroke="#118B64" stroke-width="2.76"/>
</g>
<path d="M1035.89 75.5854C1035.89 72.2357 1033.24 69.5566 1029.92 69.5566C1027.27 69.5566 1024.96 71.3433 1024.29 73.7996H1007.4L997.357 59.2847H1037.76C1038.54 61.741 1040.74 63.5276 1043.39 63.5276C1046.71 63.5276 1049.35 60.8478 1049.35 57.4988C1049.35 54.1491 1046.7 51.47 1043.39 51.47C1040.74 51.47 1038.43 53.2566 1037.76 55.713H991.506L1001.55 41.1981H1018.22C1019 43.6544 1021.2 45.441 1023.85 45.441C1027.17 45.441 1029.81 42.7612 1029.81 39.4122C1029.81 36.0625 1027.16 33.3834 1023.85 33.3834C1021.2 33.3834 1018.89 35.17 1018.22 37.6264H999.786L997.358 41.0874L987.311 55.6024H969.647C968.874 53.146 966.666 51.3594 964.017 51.3594C960.705 51.4707 958.056 54.1507 958.056 57.5004C958.056 60.8502 960.705 63.5292 964.017 63.5292C966.667 63.5292 968.985 61.7426 969.647 59.2863H993.162L1005.64 77.3737H1024.29C1025.07 79.83 1027.28 81.6166 1029.92 81.6166C1033.24 81.6151 1035.89 78.9352 1035.89 75.5854H1035.89ZM1023.96 36.9539C1025.29 36.9539 1026.39 38.0707 1026.39 39.4102C1026.39 40.7497 1025.29 41.8666 1023.96 41.8666C1022.64 41.8666 1021.53 40.7497 1021.53 39.4102C1021.53 38.0699 1022.53 36.9539 1023.96 36.9539ZM1045.82 57.4978C1045.82 58.8374 1044.72 59.9542 1043.39 59.9542C1042.07 59.9542 1040.96 58.8373 1040.96 57.4978C1040.96 56.1583 1041.96 55.0415 1043.39 55.0415C1044.72 55.0415 1045.82 56.1583 1045.82 57.4978ZM964.016 59.9542C962.692 59.9542 961.587 58.8373 961.587 57.4978C961.587 56.1583 962.692 55.0415 964.016 55.0415C965.341 55.0415 966.445 56.1583 966.445 57.4978C966.445 58.8373 965.341 59.9542 964.016 59.9542ZM1027.61 75.585C1027.5 74.2455 1028.6 73.1287 1030.03 73.1287C1031.36 73.1287 1032.46 74.2455 1032.46 75.585C1032.46 76.9245 1031.36 78.0414 1030.03 78.0414C1028.71 78.0414 1027.61 76.9253 1027.61 75.585Z" fill="#118B64"/>
<g filter="url(#filter2_b_113_5721)">
<path d="M919.216 113.677V115.157H915.416V127.617H913.596V115.157H909.776V113.677H919.216ZM931.456 121.717C931.456 122.063 931.436 122.43 931.396 122.817H922.636C922.703 123.897 923.069 124.743 923.736 125.357C924.416 125.957 925.236 126.257 926.196 126.257C926.983 126.257 927.636 126.077 928.156 125.717C928.689 125.343 929.063 124.85 929.276 124.237H931.236C930.943 125.29 930.356 126.15 929.476 126.817C928.596 127.47 927.503 127.797 926.196 127.797C925.156 127.797 924.223 127.563 923.396 127.097C922.583 126.63 921.943 125.97 921.476 125.117C921.009 124.25 920.776 123.25 920.776 122.117C920.776 120.983 921.003 119.99 921.456 119.137C921.909 118.283 922.543 117.63 923.356 117.177C924.183 116.71 925.129 116.477 926.196 116.477C927.236 116.477 928.156 116.703 928.956 117.157C929.756 117.61 930.369 118.237 930.796 119.037C931.236 119.823 931.456 120.717 931.456 121.717ZM929.576 121.337C929.576 120.643 929.423 120.05 929.116 119.557C928.809 119.05 928.389 118.67 927.856 118.417C927.336 118.15 926.756 118.017 926.116 118.017C925.196 118.017 924.409 118.31 923.756 118.897C923.116 119.483 922.749 120.297 922.656 121.337H929.576ZM933.178 122.117C933.178 120.983 933.405 119.997 933.858 119.157C934.312 118.303 934.938 117.643 935.738 117.177C936.552 116.71 937.478 116.477 938.518 116.477C939.865 116.477 940.972 116.803 941.838 117.457C942.718 118.11 943.298 119.017 943.578 120.177H941.618C941.432 119.51 941.065 118.983 940.518 118.597C939.985 118.21 939.318 118.017 938.518 118.017C937.478 118.017 936.638 118.377 935.998 119.097C935.358 119.803 935.038 120.81 935.038 122.117C935.038 123.437 935.358 124.457 935.998 125.177C936.638 125.897 937.478 126.257 938.518 126.257C939.318 126.257 939.985 126.07 940.518 125.697C941.052 125.323 941.418 124.79 941.618 124.097H943.578C943.285 125.217 942.698 126.117 941.818 126.797C940.938 127.463 939.838 127.797 938.518 127.797C937.478 127.797 936.552 127.563 935.738 127.097C934.938 126.63 934.312 125.97 933.858 125.117C933.405 124.263 933.178 123.263 933.178 122.117ZM951.447 116.457C952.273 116.457 953.02 116.637 953.687 116.997C954.353 117.343 954.873 117.87 955.247 118.577C955.633 119.283 955.827 120.143 955.827 121.157V127.617H954.027V121.417C954.027 120.323 953.753 119.49 953.207 118.917C952.66 118.33 951.913 118.037 950.967 118.037C950.007 118.037 949.24 118.337 948.667 118.937C948.107 119.537 947.827 120.41 947.827 121.557V127.617H946.007V112.817H947.827V118.217C948.187 117.657 948.68 117.223 949.307 116.917C949.947 116.61 950.66 116.457 951.447 116.457ZM964.14 116.457C965.473 116.457 966.553 116.863 967.38 117.677C968.206 118.477 968.62 119.637 968.62 121.157V127.617H966.82V121.417C966.82 120.323 966.546 119.49 966 118.917C965.453 118.33 964.706 118.037 963.76 118.037C962.8 118.037 962.033 118.337 961.46 118.937C960.9 119.537 960.62 120.41 960.62 121.557V127.617H958.8V116.657H960.62V118.217C960.98 117.657 961.466 117.223 962.08 116.917C962.706 116.61 963.393 116.457 964.14 116.457ZM976.373 127.797C975.346 127.797 974.413 127.563 973.573 127.097C972.746 126.63 972.093 125.97 971.613 125.117C971.146 124.25 970.913 123.25 970.913 122.117C970.913 120.997 971.153 120.01 971.633 119.157C972.126 118.29 972.793 117.63 973.633 117.177C974.473 116.71 975.413 116.477 976.453 116.477C977.493 116.477 978.433 116.71 979.273 117.177C980.113 117.63 980.773 118.283 981.253 119.137C981.746 119.99 981.993 120.983 981.993 122.117C981.993 123.25 981.739 124.25 981.233 125.117C980.739 125.97 980.066 126.63 979.213 127.097C978.359 127.563 977.413 127.797 976.373 127.797ZM976.373 126.197C977.026 126.197 977.639 126.043 978.213 125.737C978.786 125.43 979.246 124.97 979.593 124.357C979.953 123.743 980.133 122.997 980.133 122.117C980.133 121.237 979.959 120.49 979.613 119.877C979.266 119.263 978.813 118.81 978.253 118.517C977.693 118.21 977.086 118.057 976.433 118.057C975.766 118.057 975.153 118.21 974.593 118.517C974.046 118.81 973.606 119.263 973.273 119.877C972.939 120.49 972.773 121.237 972.773 122.117C972.773 123.01 972.933 123.763 973.253 124.377C973.586 124.99 974.026 125.45 974.573 125.757C975.119 126.05 975.719 126.197 976.373 126.197ZM986.206 112.817V127.617H984.386V112.817H986.206ZM994.088 127.797C993.061 127.797 992.128 127.563 991.288 127.097C990.461 126.63 989.808 125.97 989.328 125.117C988.861 124.25 988.628 123.25 988.628 122.117C988.628 120.997 988.868 120.01 989.348 119.157C989.841 118.29 990.508 117.63 991.348 117.177C992.188 116.71 993.128 116.477 994.168 116.477C995.208 116.477 996.148 116.71 996.988 117.177C997.828 117.63 998.488 118.283 998.968 119.137C999.461 119.99 999.708 120.983 999.708 122.117C999.708 123.25 999.454 124.25 998.948 125.117C998.454 125.97 997.781 126.63 996.928 127.097C996.074 127.563 995.128 127.797 994.088 127.797ZM994.088 126.197C994.741 126.197 995.354 126.043 995.928 125.737C996.501 125.43 996.961 124.97 997.308 124.357C997.668 123.743 997.848 122.997 997.848 122.117C997.848 121.237 997.674 120.49 997.328 119.877C996.981 119.263 996.528 118.81 995.968 118.517C995.408 118.21 994.801 118.057 994.148 118.057C993.481 118.057 992.868 118.21 992.308 118.517C991.761 118.81 991.321 119.263 990.988 119.877C990.654 120.49 990.488 121.237 990.488 122.117C990.488 123.01 990.648 123.763 990.968 124.377C991.301 124.99 991.741 125.45 992.288 125.757C992.834 126.05 993.434 126.197 994.088 126.197ZM1006.62 116.477C1007.57 116.477 1008.39 116.683 1009.1 117.097C1009.82 117.51 1010.35 118.03 1010.7 118.657V116.657H1012.54V127.857C1012.54 128.857 1012.33 129.743 1011.9 130.517C1011.47 131.303 1010.86 131.917 1010.06 132.357C1009.27 132.797 1008.35 133.017 1007.3 133.017C1005.86 133.017 1004.66 132.677 1003.7 131.997C1002.74 131.317 1002.17 130.39 1002 129.217H1003.8C1004 129.883 1004.41 130.417 1005.04 130.817C1005.67 131.23 1006.42 131.437 1007.3 131.437C1008.3 131.437 1009.11 131.123 1009.74 130.497C1010.38 129.87 1010.7 128.99 1010.7 127.857V125.557C1010.34 126.197 1009.81 126.73 1009.1 127.157C1008.39 127.583 1007.57 127.797 1006.62 127.797C1005.65 127.797 1004.76 127.557 1003.96 127.077C1003.17 126.597 1002.55 125.923 1002.1 125.057C1001.65 124.19 1001.42 123.203 1001.42 122.097C1001.42 120.977 1001.65 119.997 1002.1 119.157C1002.55 118.303 1003.17 117.643 1003.96 117.177C1004.76 116.71 1005.65 116.477 1006.62 116.477ZM1010.7 122.117C1010.7 121.29 1010.53 120.57 1010.2 119.957C1009.87 119.343 1009.41 118.877 1008.84 118.557C1008.28 118.223 1007.66 118.057 1006.98 118.057C1006.3 118.057 1005.68 118.217 1005.12 118.537C1004.56 118.857 1004.11 119.323 1003.78 119.937C1003.45 120.55 1003.28 121.27 1003.28 122.097C1003.28 122.937 1003.45 123.67 1003.78 124.297C1004.11 124.91 1004.56 125.383 1005.12 125.717C1005.68 126.037 1006.3 126.197 1006.98 126.197C1007.66 126.197 1008.28 126.037 1008.84 125.717C1009.41 125.383 1009.87 124.91 1010.2 124.297C1010.53 123.67 1010.7 122.943 1010.7 122.117ZM1025.06 116.657L1018.46 132.777H1016.58L1018.74 127.497L1014.32 116.657H1016.34L1019.78 125.537L1023.18 116.657H1025.06ZM1031.54 122.097C1031.54 120.977 1031.76 119.997 1032.22 119.157C1032.67 118.303 1033.29 117.643 1034.08 117.177C1034.88 116.71 1035.77 116.477 1036.76 116.477C1037.61 116.477 1038.4 116.677 1039.14 117.077C1039.87 117.463 1040.43 117.977 1040.82 118.617V112.817H1042.66V127.617H1040.82V125.557C1040.46 126.21 1039.92 126.75 1039.22 127.177C1038.51 127.59 1037.68 127.797 1036.74 127.797C1035.76 127.797 1034.88 127.557 1034.08 127.077C1033.29 126.597 1032.67 125.923 1032.22 125.057C1031.76 124.19 1031.54 123.203 1031.54 122.097ZM1040.82 122.117C1040.82 121.29 1040.65 120.57 1040.32 119.957C1039.98 119.343 1039.53 118.877 1038.96 118.557C1038.4 118.223 1037.78 118.057 1037.1 118.057C1036.42 118.057 1035.8 118.217 1035.24 118.537C1034.68 118.857 1034.23 119.323 1033.9 119.937C1033.56 120.55 1033.4 121.27 1033.4 122.097C1033.4 122.937 1033.56 123.67 1033.9 124.297C1034.23 124.91 1034.68 125.383 1035.24 125.717C1035.8 126.037 1036.42 126.197 1037.1 126.197C1037.78 126.197 1038.4 126.037 1038.96 125.717C1039.53 125.383 1039.98 124.91 1040.32 124.297C1040.65 123.67 1040.82 122.943 1040.82 122.117ZM1047.55 118.437C1047.87 117.81 1048.33 117.323 1048.91 116.977C1049.51 116.63 1050.24 116.457 1051.09 116.457V118.337H1050.61C1048.57 118.337 1047.55 119.443 1047.55 121.657V127.617H1045.73V116.657H1047.55V118.437ZM1054.13 114.877C1053.79 114.877 1053.49 114.757 1053.25 114.517C1053.01 114.277 1052.89 113.983 1052.89 113.637C1052.89 113.29 1053.01 112.997 1053.25 112.757C1053.49 112.517 1053.79 112.397 1054.13 112.397C1054.47 112.397 1054.75 112.517 1054.97 112.757C1055.21 112.997 1055.33 113.29 1055.33 113.637C1055.33 113.983 1055.21 114.277 1054.97 114.517C1054.75 114.757 1054.47 114.877 1054.13 114.877ZM1055.01 116.657V127.617H1053.19V116.657H1055.01ZM1062.2 125.937L1065.6 116.657H1067.54L1063.24 127.617H1061.12L1056.82 116.657H1058.78L1062.2 125.937ZM1079.33 121.717C1079.33 122.063 1079.31 122.43 1079.27 122.817H1070.51C1070.57 123.897 1070.94 124.743 1071.61 125.357C1072.29 125.957 1073.11 126.257 1074.07 126.257C1074.85 126.257 1075.51 126.077 1076.03 125.717C1076.56 125.343 1076.93 124.85 1077.15 124.237H1079.11C1078.81 125.29 1078.23 126.15 1077.35 126.817C1076.47 127.47 1075.37 127.797 1074.07 127.797C1073.03 127.797 1072.09 127.563 1071.27 127.097C1070.45 126.63 1069.81 125.97 1069.35 125.117C1068.88 124.25 1068.65 123.25 1068.65 122.117C1068.65 120.983 1068.87 119.99 1069.33 119.137C1069.78 118.283 1070.41 117.63 1071.23 117.177C1072.05 116.71 1073 116.477 1074.07 116.477C1075.11 116.477 1076.03 116.703 1076.83 117.157C1077.63 117.61 1078.24 118.237 1078.67 119.037C1079.11 119.823 1079.33 120.717 1079.33 121.717ZM1077.45 121.337C1077.45 120.643 1077.29 120.05 1076.99 119.557C1076.68 119.05 1076.26 118.67 1075.73 118.417C1075.21 118.15 1074.63 118.017 1073.99 118.017C1073.07 118.017 1072.28 118.31 1071.63 118.897C1070.99 119.483 1070.62 120.297 1070.53 121.337H1077.45ZM1087.07 116.457C1088.4 116.457 1089.48 116.863 1090.31 117.677C1091.14 118.477 1091.55 119.637 1091.55 121.157V127.617H1089.75V121.417C1089.75 120.323 1089.48 119.49 1088.93 118.917C1088.38 118.33 1087.64 118.037 1086.69 118.037C1085.73 118.037 1084.96 118.337 1084.39 118.937C1083.83 119.537 1083.55 120.41 1083.55 121.557V127.617H1081.73V116.657H1083.55V118.217C1083.91 117.657 1084.4 117.223 1085.01 116.917C1085.64 116.61 1086.32 116.457 1087.07 116.457ZM953.735 143.677C955.255 143.677 956.569 143.963 957.675 144.537C958.795 145.097 959.649 145.903 960.235 146.957C960.835 148.01 961.135 149.25 961.135 150.677C961.135 152.103 960.835 153.343 960.235 154.397C959.649 155.437 958.795 156.237 957.675 156.797C956.569 157.343 955.255 157.617 953.735 157.617H949.395V143.677H953.735ZM953.735 156.117C955.535 156.117 956.909 155.643 957.855 154.697C958.802 153.737 959.275 152.397 959.275 150.677C959.275 148.943 958.795 147.59 957.835 146.617C956.889 145.643 955.522 145.157 953.735 145.157H951.215V156.117H953.735ZM962.856 152.097C962.856 150.977 963.083 149.997 963.536 149.157C963.989 148.303 964.609 147.643 965.396 147.177C966.196 146.71 967.083 146.477 968.056 146.477C969.016 146.477 969.849 146.683 970.556 147.097C971.263 147.51 971.789 148.03 972.136 148.657V146.657H973.976V157.617H972.136V155.577C971.776 156.217 971.236 156.75 970.516 157.177C969.809 157.59 968.983 157.797 968.036 157.797C967.063 157.797 966.183 157.557 965.396 157.077C964.609 156.597 963.989 155.923 963.536 155.057C963.083 154.19 962.856 153.203 962.856 152.097ZM972.136 152.117C972.136 151.29 971.969 150.57 971.636 149.957C971.303 149.343 970.849 148.877 970.276 148.557C969.716 148.223 969.096 148.057 968.416 148.057C967.736 148.057 967.116 148.217 966.556 148.537C965.996 148.857 965.549 149.323 965.216 149.937C964.883 150.55 964.716 151.27 964.716 152.097C964.716 152.937 964.883 153.67 965.216 154.297C965.549 154.91 965.996 155.383 966.556 155.717C967.116 156.037 967.736 156.197 968.416 156.197C969.096 156.197 969.716 156.037 970.276 155.717C970.849 155.383 971.303 154.91 971.636 154.297C971.969 153.67 972.136 152.943 972.136 152.117ZM980.932 157.797C980.092 157.797 979.338 157.657 978.672 157.377C978.005 157.083 977.478 156.683 977.092 156.177C976.705 155.657 976.492 155.063 976.452 154.397H978.332C978.385 154.943 978.638 155.39 979.092 155.737C979.558 156.083 980.165 156.257 980.912 156.257C981.605 156.257 982.152 156.103 982.552 155.797C982.952 155.49 983.152 155.103 983.152 154.637C983.152 154.157 982.938 153.803 982.512 153.577C982.085 153.337 981.425 153.103 980.532 152.877C979.718 152.663 979.052 152.45 978.532 152.237C978.025 152.01 977.585 151.683 977.212 151.257C976.852 150.817 976.672 150.243 976.672 149.537C976.672 148.977 976.838 148.463 977.172 147.997C977.505 147.53 977.978 147.163 978.592 146.897C979.205 146.617 979.905 146.477 980.692 146.477C981.905 146.477 982.885 146.783 983.632 147.397C984.378 148.01 984.778 148.85 984.832 149.917H983.012C982.972 149.343 982.738 148.883 982.312 148.537C981.898 148.19 981.338 148.017 980.632 148.017C979.978 148.017 979.458 148.157 979.072 148.437C978.685 148.717 978.492 149.083 978.492 149.537C978.492 149.897 978.605 150.197 978.832 150.437C979.072 150.663 979.365 150.85 979.712 150.997C980.072 151.13 980.565 151.283 981.192 151.457C981.978 151.67 982.618 151.883 983.112 152.097C983.605 152.297 984.025 152.603 984.372 153.017C984.732 153.43 984.918 153.97 984.932 154.637C984.932 155.237 984.765 155.777 984.432 156.257C984.098 156.737 983.625 157.117 983.012 157.397C982.412 157.663 981.718 157.797 980.932 157.797ZM992.941 146.457C993.768 146.457 994.514 146.637 995.181 146.997C995.848 147.343 996.368 147.87 996.741 148.577C997.128 149.283 997.321 150.143 997.321 151.157V157.617H995.521V151.417C995.521 150.323 995.248 149.49 994.701 148.917C994.154 148.33 993.408 148.037 992.461 148.037C991.501 148.037 990.734 148.337 990.161 148.937C989.601 149.537 989.321 150.41 989.321 151.557V157.617H987.501V142.817H989.321V148.217C989.681 147.657 990.174 147.223 990.801 146.917C991.441 146.61 992.154 146.457 992.941 146.457ZM1002.11 148.697C1002.49 148.043 1003.03 147.51 1003.75 147.097C1004.47 146.683 1005.29 146.477 1006.21 146.477C1007.2 146.477 1008.09 146.71 1008.87 147.177C1009.66 147.643 1010.28 148.303 1010.73 149.157C1011.19 149.997 1011.41 150.977 1011.41 152.097C1011.41 153.203 1011.19 154.19 1010.73 155.057C1010.28 155.923 1009.65 156.597 1008.85 157.077C1008.07 157.557 1007.19 157.797 1006.21 157.797C1005.27 157.797 1004.43 157.59 1003.71 157.177C1003.01 156.763 1002.47 156.237 1002.11 155.597V157.617H1000.29V142.817H1002.11V148.697ZM1009.55 152.097C1009.55 151.27 1009.39 150.55 1009.05 149.937C1008.72 149.323 1008.27 148.857 1007.69 148.537C1007.13 148.217 1006.51 148.057 1005.83 148.057C1005.17 148.057 1004.55 148.223 1003.97 148.557C1003.41 148.877 1002.96 149.35 1002.61 149.977C1002.28 150.59 1002.11 151.303 1002.11 152.117C1002.11 152.943 1002.28 153.67 1002.61 154.297C1002.96 154.91 1003.41 155.383 1003.97 155.717C1004.55 156.037 1005.17 156.197 1005.83 156.197C1006.51 156.197 1007.13 156.037 1007.69 155.717C1008.27 155.383 1008.72 154.91 1009.05 154.297C1009.39 153.67 1009.55 152.937 1009.55 152.097ZM1018.59 157.797C1017.56 157.797 1016.63 157.563 1015.79 157.097C1014.96 156.63 1014.31 155.97 1013.83 155.117C1013.36 154.25 1013.13 153.25 1013.13 152.117C1013.13 150.997 1013.37 150.01 1013.85 149.157C1014.34 148.29 1015.01 147.63 1015.85 147.177C1016.69 146.71 1017.63 146.477 1018.67 146.477C1019.71 146.477 1020.65 146.71 1021.49 147.177C1022.33 147.63 1022.99 148.283 1023.47 149.137C1023.96 149.99 1024.21 150.983 1024.21 152.117C1024.21 153.25 1023.96 154.25 1023.45 155.117C1022.96 155.97 1022.28 156.63 1021.43 157.097C1020.58 157.563 1019.63 157.797 1018.59 157.797ZM1018.59 156.197C1019.24 156.197 1019.86 156.043 1020.43 155.737C1021 155.43 1021.46 154.97 1021.81 154.357C1022.17 153.743 1022.35 152.997 1022.35 152.117C1022.35 151.237 1022.18 150.49 1021.83 149.877C1021.48 149.263 1021.03 148.81 1020.47 148.517C1019.91 148.21 1019.3 148.057 1018.65 148.057C1017.98 148.057 1017.37 148.21 1016.81 148.517C1016.26 148.81 1015.82 149.263 1015.49 149.877C1015.16 150.49 1014.99 151.237 1014.99 152.117C1014.99 153.01 1015.15 153.763 1015.47 154.377C1015.8 154.99 1016.24 155.45 1016.79 155.757C1017.34 156.05 1017.94 156.197 1018.59 156.197ZM1025.92 152.097C1025.92 150.977 1026.15 149.997 1026.6 149.157C1027.06 148.303 1027.68 147.643 1028.46 147.177C1029.26 146.71 1030.15 146.477 1031.12 146.477C1032.08 146.477 1032.92 146.683 1033.62 147.097C1034.33 147.51 1034.86 148.03 1035.2 148.657V146.657H1037.04V157.617H1035.2V155.577C1034.84 156.217 1034.3 156.75 1033.58 157.177C1032.88 157.59 1032.05 157.797 1031.1 157.797C1030.13 157.797 1029.25 157.557 1028.46 157.077C1027.68 156.597 1027.06 155.923 1026.6 155.057C1026.15 154.19 1025.92 153.203 1025.92 152.097ZM1035.2 152.117C1035.2 151.29 1035.04 150.57 1034.7 149.957C1034.37 149.343 1033.92 148.877 1033.34 148.557C1032.78 148.223 1032.16 148.057 1031.48 148.057C1030.8 148.057 1030.18 148.217 1029.62 148.537C1029.06 148.857 1028.62 149.323 1028.28 149.937C1027.95 150.55 1027.78 151.27 1027.78 152.097C1027.78 152.937 1027.95 153.67 1028.28 154.297C1028.62 154.91 1029.06 155.383 1029.62 155.717C1030.18 156.037 1030.8 156.197 1031.48 156.197C1032.16 156.197 1032.78 156.037 1033.34 155.717C1033.92 155.383 1034.37 154.91 1034.7 154.297C1035.04 153.67 1035.2 152.943 1035.2 152.117ZM1041.94 148.437C1042.26 147.81 1042.71 147.323 1043.3 146.977C1043.9 146.63 1044.62 146.457 1045.48 146.457V148.337H1045C1042.96 148.337 1041.94 149.443 1041.94 151.657V157.617H1040.12V146.657H1041.94V148.437ZM1046.9 152.097C1046.9 150.977 1047.13 149.997 1047.58 149.157C1048.03 148.303 1048.65 147.643 1049.44 147.177C1050.24 146.71 1051.13 146.477 1052.12 146.477C1052.97 146.477 1053.77 146.677 1054.5 147.077C1055.23 147.463 1055.79 147.977 1056.18 148.617V142.817H1058.02V157.617H1056.18V155.557C1055.82 156.21 1055.29 156.75 1054.58 157.177C1053.87 157.59 1053.05 157.797 1052.1 157.797C1051.13 157.797 1050.24 157.557 1049.44 157.077C1048.65 156.597 1048.03 155.923 1047.58 155.057C1047.13 154.19 1046.9 153.203 1046.9 152.097ZM1056.18 152.117C1056.18 151.29 1056.01 150.57 1055.68 149.957C1055.35 149.343 1054.89 148.877 1054.32 148.557C1053.76 148.223 1053.14 148.057 1052.46 148.057C1051.78 148.057 1051.16 148.217 1050.6 148.537C1050.04 148.857 1049.59 149.323 1049.26 149.937C1048.93 150.55 1048.76 151.27 1048.76 152.097C1048.76 152.937 1048.93 153.67 1049.26 154.297C1049.59 154.91 1050.04 155.383 1050.6 155.717C1051.16 156.037 1051.78 156.197 1052.46 156.197C1053.14 156.197 1053.76 156.037 1054.32 155.717C1054.89 155.383 1055.35 154.91 1055.68 154.297C1056.01 153.67 1056.18 152.943 1056.18 152.117Z" fill="black"/>
</g>
<rect x="0.705078" y="1" width="1157" height="197" rx="19.5" stroke="#118B64"/>
<defs>
<filter id="filter0_b_113_5721" x="57.3601" y="115.226" width="200.685" height="54.3257" filterUnits="userSpaceOnUse" color-interpolation-filters="sRGB">
<feFlood flood-opacity="0" result="BackgroundImageFix"/>
<feGaussianBlur in="BackgroundImageFix" stdDeviation="1.67642"/>
<feComposite in2="SourceAlpha" operator="in" result="effect1_backgroundBlur_113_5721"/>
<feBlend mode="normal" in="SourceGraphic" in2="effect1_backgroundBlur_113_5721" result="shape"/>
</filter>
<filter id="filter1_b_113_5721" x="495.277" y="116.292" width="180.534" height="22.1057" filterUnits="userSpaceOnUse" color-interpolation-filters="sRGB">
<feFlood flood-opacity="0" result="BackgroundImageFix"/>
<feGaussianBlur in="BackgroundImageFix" stdDeviation="1.67642"/>
<feComposite in2="SourceAlpha" operator="in" result="effect1_backgroundBlur_113_5721"/>
<feBlend mode="normal" in="SourceGraphic" in2="effect1_backgroundBlur_113_5721" result="shape"/>
</filter>
<filter id="filter2_b_113_5721" x="906.423" y="109.044" width="188.479" height="52.1057" filterUnits="userSpaceOnUse" color-interpolation-filters="sRGB">
<feFlood flood-opacity="0" result="BackgroundImageFix"/>
<feGaussianBlur in="BackgroundImageFix" stdDeviation="1.67642"/>
<feComposite in2="SourceAlpha" operator="in" result="effect1_backgroundBlur_113_5721"/>
<feBlend mode="normal" in="SourceGraphic" in2="effect1_backgroundBlur_113_5721" result="shape"/>
</filter>
<clipPath id="clip0_113_5721">
<rect width="79" height="11" fill="white" transform="matrix(0 -1 1 0 349.705 139)"/>
</clipPath>
<clipPath id="clip1_113_5721">
<rect width="79" height="11" fill="white" transform="matrix(0 -1 1 0 809.705 139)"/>
</clipPath>
</defs>
</svg>
