<svg width="40" height="40" viewBox="0 0 40 40" fill="none" xmlns="http://www.w3.org/2000/svg">
<path d="M20 40C31.0457 40 40 31.0457 40 20C40 8.9543 31.0457 0 20 0C8.9543 0 0 8.9543 0 20C0 31.0457 8.9543 40 20 40Z" fill="#DD4B39"/>
<path d="M11.3834 24.5473C13.1156 22.1162 16.4605 21.9136 18.108 22.1333C17.6498 21.6435 16.4949 20.732 17.3098 19.2295C13.591 19.6851 12.4025 17.4061 12.2327 15.6165C11.8932 12.6115 14.5418 10.4509 17.2587 10.4167H23.2697C23.066 10.6026 22.0641 11.2611 21.8264 11.2611L20.2472 11.2778C24.2716 15.0426 20.3658 18.1997 19.5677 18.8578C17.9545 20.7991 23.0148 21.7615 22.7432 25.0537C22.7432 28.0416 20.2133 30 16.2567 30C11.8588 29.9834 9.75353 27.2655 11.3834 24.5473ZM20.1965 28.177C21.7757 26.9784 21.4021 25.2058 20.1793 24.0238C19.449 23.3148 18.5662 22.6397 16.6982 22.8589C14.5074 23.1123 12.9114 24.1588 12.9965 25.7964C13.4547 29.2744 18.4983 29.3586 20.1961 28.1599L20.1965 28.177ZM19.1267 17.9634C20.9435 16.4775 19.2625 11.2953 16.7833 11.2953C15.2041 11.2953 14.3892 12.426 14.3208 14.0302C14.2022 17.001 16.9363 19.753 19.1267 17.9634ZM27.1583 19.8539L24.4246 19.871V18.5035H27.1248V15.8194H28.5002V18.5039L31.2339 18.5206L31.2507 19.8714H28.5002V22.5726L27.1416 22.5897L27.1583 19.8539Z" fill="#F8FBF8"/>
</svg>
