<svg width="40" height="40" viewBox="0 0 40 40" fill="none" xmlns="http://www.w3.org/2000/svg">
<g clip-path="url(#clip0_113_5775)">
<path d="M20 40C31.0457 40 40 31.0457 40 20C40 8.9543 31.0457 0 20 0C8.9543 0 0 8.9543 0 20C0 31.0457 8.9543 40 20 40Z" fill="#3C5A9A"/>
<path d="M24.9832 9.58331H21.4454C19.346 9.58331 17.0108 10.4642 17.0108 13.5001C17.021 14.558 17.0108 15.5711 17.0108 16.7113H14.582V20.5669H17.086V31.6666H21.687V20.4937H24.7239L24.9987 16.7004H21.6078C21.6078 16.7004 21.6154 15.0131 21.6078 14.523C21.6078 13.3233 22.8591 13.392 22.9344 13.392C23.5299 13.392 24.6877 13.3937 24.9849 13.392V9.58331H24.9832Z" fill="#F8FBF8"/>
</g>
<defs>
<clipPath id="clip0_113_5775">
<rect width="40" height="40" fill="white"/>
</clipPath>
</defs>
</svg>
