<svg width="203" height="135" viewBox="0 0 203 135" fill="none" xmlns="http://www.w3.org/2000/svg">
<g filter="url(#filter0_b_113_5722)">
<path d="M1.50805 88.9989V87.3389H5.26805V101.799H3.42805V88.9989H1.50805ZM8.3943 94.4189C8.3943 92.1256 8.76763 90.3389 9.5143 89.0589C10.261 87.7656 11.5676 87.1189 13.4343 87.1189C15.2876 87.1189 16.5876 87.7656 17.3343 89.0589C18.081 90.3389 18.4543 92.1256 18.4543 94.4189C18.4543 96.7523 18.081 98.5656 17.3343 99.859C16.5876 101.152 15.2876 101.799 13.4343 101.799C11.5676 101.799 10.261 101.152 9.5143 99.859C8.76763 98.5656 8.3943 96.7523 8.3943 94.4189ZM16.6543 94.4189C16.6543 93.2589 16.5743 92.2789 16.4143 91.4789C16.2676 90.6656 15.9543 90.0123 15.4743 89.5189C15.0076 89.0256 14.3276 88.7789 13.4343 88.7789C12.5276 88.7789 11.8343 89.0256 11.3543 89.5189C10.8876 90.0123 10.5743 90.6656 10.4143 91.4789C10.2676 92.2789 10.1943 93.2589 10.1943 94.4189C10.1943 95.6189 10.2676 96.6256 10.4143 97.439C10.5743 98.2523 10.8876 98.9056 11.3543 99.399C11.8343 99.8923 12.5276 100.139 13.4343 100.139C14.3276 100.139 15.0076 99.8923 15.4743 99.399C15.9543 98.9056 16.2676 98.2523 16.4143 97.439C16.5743 96.6256 16.6543 95.6189 16.6543 94.4189ZM20.5529 90.599C20.5529 89.6923 20.8262 88.9723 21.3729 88.4389C21.9196 87.8923 22.6196 87.6189 23.4729 87.6189C24.3262 87.6189 25.0262 87.8923 25.5729 88.4389C26.1196 88.9723 26.3929 89.6923 26.3929 90.599C26.3929 91.5189 26.1196 92.2523 25.5729 92.7989C25.0262 93.3323 24.3262 93.5989 23.4729 93.5989C22.6196 93.5989 21.9196 93.3323 21.3729 92.7989C20.8262 92.2523 20.5529 91.5189 20.5529 90.599ZM32.2329 87.8389L24.1329 101.799H22.3329L30.4329 87.8389H32.2329ZM23.4729 88.7389C23.0196 88.7389 22.6596 88.8989 22.3929 89.219C22.1396 89.5256 22.0129 89.9856 22.0129 90.599C22.0129 91.2123 22.1396 91.679 22.3929 91.999C22.6596 92.3189 23.0196 92.4789 23.4729 92.4789C23.9262 92.4789 24.2862 92.3189 24.5529 91.999C24.8196 91.6656 24.9529 91.1989 24.9529 90.599C24.9529 89.9856 24.8196 89.5256 24.5529 89.219C24.2862 88.8989 23.9262 88.7389 23.4729 88.7389ZM28.2129 99.0389C28.2129 98.1189 28.4862 97.3923 29.0329 96.859C29.5796 96.3123 30.2796 96.0389 31.1329 96.0389C31.9862 96.0389 32.6796 96.3123 33.2129 96.859C33.7596 97.3923 34.0329 98.1189 34.0329 99.0389C34.0329 99.9456 33.7596 100.672 33.2129 101.219C32.6796 101.766 31.9862 102.039 31.1329 102.039C30.2796 102.039 29.5796 101.772 29.0329 101.239C28.4862 100.692 28.2129 99.959 28.2129 99.0389ZM31.1129 97.179C30.6596 97.179 30.2996 97.3389 30.0329 97.6589C29.7662 97.9656 29.6329 98.4256 29.6329 99.0389C29.6329 99.639 29.7662 100.099 30.0329 100.419C30.2996 100.726 30.6596 100.879 31.1129 100.879C31.5662 100.879 31.9262 100.726 32.1929 100.419C32.4596 100.099 32.5929 99.639 32.5929 99.0389C32.5929 98.4256 32.4596 97.9656 32.1929 97.6589C31.9262 97.3389 31.5662 97.179 31.1129 97.179ZM41.0807 94.819C41.0807 93.4589 41.3874 92.2389 42.0007 91.159C42.614 90.0656 43.4474 89.2123 44.5007 88.5989C45.5674 87.9856 46.7474 87.6789 48.0407 87.6789C49.5607 87.6789 50.8874 88.0456 52.0207 88.7789C53.154 89.5123 53.9807 90.5523 54.5007 91.8989H52.3207C51.934 91.0589 51.374 90.4123 50.6407 89.959C49.9207 89.5056 49.054 89.2789 48.0407 89.2789C47.0674 89.2789 46.194 89.5056 45.4207 89.959C44.6474 90.4123 44.0407 91.0589 43.6007 91.8989C43.1607 92.7256 42.9407 93.6989 42.9407 94.819C42.9407 95.9256 43.1607 96.899 43.6007 97.739C44.0407 98.5656 44.6474 99.2056 45.4207 99.659C46.194 100.112 47.0674 100.339 48.0407 100.339C49.054 100.339 49.9207 100.119 50.6407 99.679C51.374 99.2256 51.934 98.579 52.3207 97.739H54.5007C53.9807 99.0723 53.154 100.106 52.0207 100.839C50.8874 101.559 49.5607 101.919 48.0407 101.919C46.7474 101.919 45.5674 101.619 44.5007 101.019C43.4474 100.406 42.614 99.559 42.0007 98.479C41.3874 97.399 41.0807 96.179 41.0807 94.819ZM61.9899 101.979C60.9633 101.979 60.0299 101.746 59.1899 101.279C58.3633 100.812 57.7099 100.152 57.2299 99.299C56.7633 98.4323 56.5299 97.4323 56.5299 96.299C56.5299 95.1789 56.7699 94.1923 57.2499 93.339C57.7433 92.4723 58.4099 91.8123 59.2499 91.3589C60.0899 90.8923 61.0299 90.6589 62.0699 90.6589C63.1099 90.6589 64.0499 90.8923 64.8899 91.3589C65.7299 91.8123 66.3899 92.4656 66.8699 93.3189C67.3633 94.1723 67.6099 95.1656 67.6099 96.299C67.6099 97.4323 67.3566 98.4323 66.8499 99.299C66.3566 100.152 65.6833 100.812 64.8299 101.279C63.9766 101.746 63.0299 101.979 61.9899 101.979ZM61.9899 100.379C62.6433 100.379 63.2566 100.226 63.8299 99.919C64.4033 99.6123 64.8633 99.1523 65.2099 98.539C65.5699 97.9256 65.7499 97.179 65.7499 96.299C65.7499 95.4189 65.5766 94.6723 65.2299 94.0589C64.8833 93.4456 64.4299 92.9923 63.8699 92.6989C63.3099 92.3923 62.7033 92.2389 62.0499 92.2389C61.3833 92.2389 60.7699 92.3923 60.2099 92.6989C59.6633 92.9923 59.2233 93.4456 58.8899 94.0589C58.5566 94.6723 58.3899 95.4189 58.3899 96.299C58.3899 97.1923 58.5499 97.9456 58.8699 98.559C59.2033 99.1723 59.6433 99.6323 60.1899 99.939C60.7366 100.232 61.3366 100.379 61.9899 100.379ZM83.1829 90.6389C84.0362 90.6389 84.7962 90.8189 85.4629 91.1789C86.1296 91.5256 86.6562 92.0523 87.0429 92.7589C87.4296 93.4656 87.6229 94.3256 87.6229 95.3389V101.799H85.8229V95.599C85.8229 94.5056 85.5496 93.6723 85.0029 93.0989C84.4696 92.5123 83.7429 92.2189 82.8229 92.2189C81.8762 92.2189 81.1229 92.5256 80.5629 93.1389C80.0029 93.7389 79.7229 94.6123 79.7229 95.7589V101.799H77.9229V95.599C77.9229 94.5056 77.6496 93.6723 77.1029 93.0989C76.5696 92.5123 75.8429 92.2189 74.9229 92.2189C73.9762 92.2189 73.2229 92.5256 72.6629 93.1389C72.1029 93.7389 71.8229 94.6123 71.8229 95.7589V101.799H70.0029V90.8389H71.8229V92.4189C72.1829 91.8456 72.6629 91.4056 73.2629 91.0989C73.8762 90.7923 74.5496 90.6389 75.2829 90.6389C76.2029 90.6389 77.0162 90.8456 77.7229 91.2589C78.4296 91.6723 78.9562 92.2789 79.3029 93.0789C79.6096 92.3056 80.1162 91.7056 80.8229 91.2789C81.5296 90.8523 82.3162 90.6389 83.1829 90.6389ZM103.788 90.6389C104.642 90.6389 105.402 90.8189 106.068 91.1789C106.735 91.5256 107.262 92.0523 107.648 92.7589C108.035 93.4656 108.228 94.3256 108.228 95.3389V101.799H106.428V95.599C106.428 94.5056 106.155 93.6723 105.608 93.0989C105.075 92.5123 104.348 92.2189 103.428 92.2189C102.482 92.2189 101.728 92.5256 101.168 93.1389C100.608 93.7389 100.328 94.6123 100.328 95.7589V101.799H98.5284V95.599C98.5284 94.5056 98.255 93.6723 97.7084 93.0989C97.175 92.5123 96.4484 92.2189 95.5284 92.2189C94.5817 92.2189 93.8284 92.5256 93.2684 93.1389C92.7084 93.7389 92.4284 94.6123 92.4284 95.7589V101.799H90.6084V90.8389H92.4284V92.4189C92.7884 91.8456 93.2684 91.4056 93.8684 91.0989C94.4817 90.7923 95.155 90.6389 95.8884 90.6389C96.8084 90.6389 97.6217 90.8456 98.3284 91.2589C99.035 91.6723 99.5617 92.2789 99.9084 93.0789C100.215 92.3056 100.722 91.7056 101.428 91.2789C102.135 90.8523 102.922 90.6389 103.788 90.6389ZM112.154 89.0589C111.807 89.0589 111.514 88.9389 111.274 88.6989C111.034 88.4589 110.914 88.1656 110.914 87.8189C110.914 87.4723 111.034 87.1789 111.274 86.9389C111.514 86.6989 111.807 86.5789 112.154 86.5789C112.487 86.5789 112.767 86.6989 112.994 86.9389C113.234 87.1789 113.354 87.4723 113.354 87.8189C113.354 88.1656 113.234 88.4589 112.994 88.6989C112.767 88.9389 112.487 89.0589 112.154 89.0589ZM113.034 90.8389V101.799H111.214V90.8389H113.034ZM120.016 101.979C119.176 101.979 118.422 101.839 117.756 101.559C117.089 101.266 116.562 100.866 116.176 100.359C115.789 99.839 115.576 99.2456 115.536 98.5789H117.416C117.469 99.1256 117.722 99.5723 118.176 99.919C118.642 100.266 119.249 100.439 119.996 100.439C120.689 100.439 121.236 100.286 121.636 99.979C122.036 99.6723 122.236 99.2856 122.236 98.819C122.236 98.339 122.022 97.9856 121.596 97.759C121.169 97.5189 120.509 97.2856 119.616 97.0589C118.802 96.8456 118.136 96.6323 117.616 96.4189C117.109 96.1923 116.669 95.8656 116.296 95.4389C115.936 94.9989 115.756 94.4256 115.756 93.7189C115.756 93.1589 115.922 92.6456 116.256 92.1789C116.589 91.7123 117.062 91.3456 117.676 91.0789C118.289 90.7989 118.989 90.6589 119.776 90.6589C120.989 90.6589 121.969 90.9656 122.716 91.5789C123.462 92.1923 123.862 93.0323 123.916 94.0989H122.096C122.056 93.5256 121.822 93.0656 121.396 92.7189C120.982 92.3723 120.422 92.1989 119.716 92.1989C119.062 92.1989 118.542 92.3389 118.156 92.6189C117.769 92.8989 117.576 93.2656 117.576 93.7189C117.576 94.079 117.689 94.3789 117.916 94.6189C118.156 94.8456 118.449 95.0323 118.796 95.1789C119.156 95.3123 119.649 95.4656 120.276 95.6389C121.062 95.8523 121.702 96.0656 122.196 96.2789C122.689 96.4789 123.109 96.7856 123.456 97.199C123.816 97.6123 124.002 98.1523 124.016 98.819C124.016 99.419 123.849 99.959 123.516 100.439C123.182 100.919 122.709 101.299 122.096 101.579C121.496 101.846 120.802 101.979 120.016 101.979ZM130.465 101.979C129.625 101.979 128.872 101.839 128.205 101.559C127.538 101.266 127.012 100.866 126.625 100.359C126.238 99.839 126.025 99.2456 125.985 98.5789H127.865C127.918 99.1256 128.172 99.5723 128.625 99.919C129.092 100.266 129.698 100.439 130.445 100.439C131.138 100.439 131.685 100.286 132.085 99.979C132.485 99.6723 132.685 99.2856 132.685 98.819C132.685 98.339 132.472 97.9856 132.045 97.759C131.618 97.5189 130.958 97.2856 130.065 97.0589C129.252 96.8456 128.585 96.6323 128.065 96.4189C127.558 96.1923 127.118 95.8656 126.745 95.4389C126.385 94.9989 126.205 94.4256 126.205 93.7189C126.205 93.1589 126.372 92.6456 126.705 92.1789C127.038 91.7123 127.512 91.3456 128.125 91.0789C128.738 90.7989 129.438 90.6589 130.225 90.6589C131.438 90.6589 132.418 90.9656 133.165 91.5789C133.912 92.1923 134.312 93.0323 134.365 94.0989H132.545C132.505 93.5256 132.272 93.0656 131.845 92.7189C131.432 92.3723 130.872 92.1989 130.165 92.1989C129.512 92.1989 128.992 92.3389 128.605 92.6189C128.218 92.8989 128.025 93.2656 128.025 93.7189C128.025 94.079 128.138 94.3789 128.365 94.6189C128.605 94.8456 128.898 95.0323 129.245 95.1789C129.605 95.3123 130.098 95.4656 130.725 95.6389C131.512 95.8523 132.152 96.0656 132.645 96.2789C133.138 96.4789 133.558 96.7856 133.905 97.199C134.265 97.6123 134.452 98.1523 134.465 98.819C134.465 99.419 134.298 99.959 133.965 100.439C133.632 100.919 133.158 101.299 132.545 101.579C131.945 101.846 131.252 101.979 130.465 101.979ZM137.974 89.0589C137.627 89.0589 137.334 88.9389 137.094 88.6989C136.854 88.4589 136.734 88.1656 136.734 87.8189C136.734 87.4723 136.854 87.1789 137.094 86.9389C137.334 86.6989 137.627 86.5789 137.974 86.5789C138.307 86.5789 138.587 86.6989 138.814 86.9389C139.054 87.1789 139.174 87.4723 139.174 87.8189C139.174 88.1656 139.054 88.4589 138.814 88.6989C138.587 88.9389 138.307 89.0589 137.974 89.0589ZM138.854 90.8389V101.799H137.034V90.8389H138.854ZM146.736 101.979C145.709 101.979 144.776 101.746 143.936 101.279C143.109 100.812 142.456 100.152 141.976 99.299C141.509 98.4323 141.276 97.4323 141.276 96.299C141.276 95.1789 141.516 94.1923 141.996 93.339C142.489 92.4723 143.156 91.8123 143.996 91.3589C144.836 90.8923 145.776 90.6589 146.816 90.6589C147.856 90.6589 148.796 90.8923 149.636 91.3589C150.476 91.8123 151.136 92.4656 151.616 93.3189C152.109 94.1723 152.356 95.1656 152.356 96.299C152.356 97.4323 152.103 98.4323 151.596 99.299C151.103 100.152 150.429 100.812 149.576 101.279C148.723 101.746 147.776 101.979 146.736 101.979ZM146.736 100.379C147.389 100.379 148.003 100.226 148.576 99.919C149.149 99.6123 149.609 99.1523 149.956 98.539C150.316 97.9256 150.496 97.179 150.496 96.299C150.496 95.4189 150.323 94.6723 149.976 94.0589C149.629 93.4456 149.176 92.9923 148.616 92.6989C148.056 92.3923 147.449 92.2389 146.796 92.2389C146.129 92.2389 145.516 92.3923 144.956 92.6989C144.409 92.9923 143.969 93.4456 143.636 94.0589C143.303 94.6723 143.136 95.4189 143.136 96.299C143.136 97.1923 143.296 97.9456 143.616 98.559C143.949 99.1723 144.389 99.6323 144.936 99.939C145.483 100.232 146.083 100.379 146.736 100.379ZM160.089 90.6389C161.422 90.6389 162.502 91.0456 163.329 91.859C164.156 92.659 164.569 93.819 164.569 95.3389V101.799H162.769V95.599C162.769 94.5056 162.496 93.6723 161.949 93.0989C161.402 92.5123 160.656 92.2189 159.709 92.2189C158.749 92.2189 157.982 92.5189 157.409 93.1189C156.849 93.7189 156.569 94.5923 156.569 95.739V101.799H154.749V90.8389H156.569V92.3989C156.929 91.8389 157.416 91.4056 158.029 91.0989C158.656 90.7923 159.342 90.6389 160.089 90.6389ZM177.654 101.979C176.627 101.979 175.694 101.746 174.854 101.279C174.027 100.812 173.374 100.152 172.894 99.299C172.427 98.4323 172.194 97.4323 172.194 96.299C172.194 95.1789 172.434 94.1923 172.914 93.339C173.407 92.4723 174.074 91.8123 174.914 91.3589C175.754 90.8923 176.694 90.6589 177.734 90.6589C178.774 90.6589 179.714 90.8923 180.554 91.3589C181.394 91.8123 182.054 92.4656 182.534 93.3189C183.027 94.1723 183.274 95.1656 183.274 96.299C183.274 97.4323 183.021 98.4323 182.514 99.299C182.021 100.152 181.347 100.812 180.494 101.279C179.641 101.746 178.694 101.979 177.654 101.979ZM177.654 100.379C178.307 100.379 178.921 100.226 179.494 99.919C180.067 99.6123 180.527 99.1523 180.874 98.539C181.234 97.9256 181.414 97.179 181.414 96.299C181.414 95.4189 181.241 94.6723 180.894 94.0589C180.547 93.4456 180.094 92.9923 179.534 92.6989C178.974 92.3923 178.367 92.2389 177.714 92.2389C177.047 92.2389 176.434 92.3923 175.874 92.6989C175.327 92.9923 174.887 93.4456 174.554 94.0589C174.221 94.6723 174.054 95.4189 174.054 96.299C174.054 97.1923 174.214 97.9456 174.534 98.559C174.867 99.1723 175.307 99.6323 175.854 99.939C176.401 100.232 177.001 100.379 177.654 100.379ZM191.007 90.6389C192.34 90.6389 193.42 91.0456 194.247 91.859C195.074 92.659 195.487 93.819 195.487 95.3389V101.799H193.687V95.599C193.687 94.5056 193.414 93.6723 192.867 93.0989C192.32 92.5123 191.574 92.2189 190.627 92.2189C189.667 92.2189 188.9 92.5189 188.327 93.1189C187.767 93.7189 187.487 94.5923 187.487 95.739V101.799H185.667V90.8389H187.487V92.3989C187.847 91.8389 188.334 91.4056 188.947 91.0989C189.574 90.7923 190.26 90.6389 191.007 90.6389ZM53.1803 119.879C53.5536 119.226 54.1003 118.692 54.8203 118.279C55.5403 117.866 56.3603 117.659 57.2803 117.659C58.267 117.659 59.1536 117.892 59.9403 118.359C60.727 118.826 61.347 119.486 61.8003 120.339C62.2536 121.179 62.4803 122.159 62.4803 123.279C62.4803 124.386 62.2536 125.372 61.8003 126.239C61.347 127.106 60.7203 127.779 59.9203 128.259C59.1336 128.739 58.2536 128.979 57.2803 128.979C56.3336 128.979 55.5003 128.772 54.7803 128.359C54.0736 127.946 53.5403 127.419 53.1803 126.779V128.799H51.3603V113.999H53.1803V119.879ZM60.6203 123.279C60.6203 122.452 60.4536 121.732 60.1203 121.119C59.787 120.506 59.3336 120.039 58.7603 119.719C58.2003 119.399 57.5803 119.239 56.9003 119.239C56.2336 119.239 55.6136 119.406 55.0403 119.739C54.4803 120.059 54.027 120.532 53.6803 121.159C53.347 121.772 53.1803 122.486 53.1803 123.299C53.1803 124.126 53.347 124.852 53.6803 125.479C54.027 126.092 54.4803 126.566 55.0403 126.899C55.6136 127.219 56.2336 127.379 56.9003 127.379C57.5803 127.379 58.2003 127.219 58.7603 126.899C59.3336 126.566 59.787 126.092 60.1203 125.479C60.4536 124.852 60.6203 124.119 60.6203 123.279ZM66.6959 119.619C67.0159 118.992 67.4693 118.506 68.0559 118.159C68.6559 117.812 69.3826 117.639 70.2359 117.639V119.519H69.7559C67.7159 119.519 66.6959 120.626 66.6959 122.839V128.799H64.8759V117.839H66.6959V119.619ZM77.1169 128.979C76.0902 128.979 75.1569 128.746 74.3169 128.279C73.4902 127.812 72.8369 127.152 72.3569 126.299C71.8902 125.432 71.6569 124.432 71.6569 123.299C71.6569 122.179 71.8969 121.192 72.3769 120.339C72.8702 119.472 73.5369 118.812 74.3769 118.359C75.2169 117.892 76.1569 117.659 77.1969 117.659C78.2369 117.659 79.1769 117.892 80.0169 118.359C80.8569 118.812 81.5169 119.466 81.9969 120.319C82.4902 121.172 82.7369 122.166 82.7369 123.299C82.7369 124.432 82.4835 125.432 81.9769 126.299C81.4835 127.152 80.8102 127.812 79.9569 128.279C79.1035 128.746 78.1569 128.979 77.1169 128.979ZM77.1169 127.379C77.7702 127.379 78.3835 127.226 78.9569 126.919C79.5302 126.612 79.9902 126.152 80.3369 125.539C80.6969 124.926 80.8769 124.179 80.8769 123.299C80.8769 122.419 80.7035 121.672 80.3569 121.059C80.0102 120.446 79.5569 119.992 78.9969 119.699C78.4369 119.392 77.8302 119.239 77.1769 119.239C76.5102 119.239 75.8969 119.392 75.3369 119.699C74.7902 119.992 74.3502 120.446 74.0169 121.059C73.6835 121.672 73.5169 122.419 73.5169 123.299C73.5169 124.192 73.6769 124.946 73.9969 125.559C74.3302 126.172 74.7702 126.632 75.3169 126.939C75.8635 127.232 76.4635 127.379 77.1169 127.379ZM91.2498 128.799L86.9498 123.959V128.799H85.1298V113.999H86.9498V122.699L91.1698 117.839H93.7098L88.5498 123.299L93.7298 128.799H91.2498ZM105.423 122.899C105.423 123.246 105.403 123.612 105.363 123.999H96.6028C96.6695 125.079 97.0361 125.926 97.7028 126.539C98.3828 127.139 99.2028 127.439 100.163 127.439C100.949 127.439 101.603 127.259 102.123 126.899C102.656 126.526 103.029 126.032 103.243 125.419H105.203C104.909 126.472 104.323 127.332 103.443 127.999C102.563 128.652 101.469 128.979 100.163 128.979C99.1228 128.979 98.1895 128.746 97.3628 128.279C96.5495 127.812 95.9095 127.152 95.4428 126.299C94.9761 125.432 94.7428 124.432 94.7428 123.299C94.7428 122.166 94.9695 121.172 95.4228 120.319C95.8761 119.466 96.5095 118.812 97.3228 118.359C98.1495 117.892 99.0961 117.659 100.163 117.659C101.203 117.659 102.123 117.886 102.923 118.339C103.723 118.792 104.336 119.419 104.763 120.219C105.203 121.006 105.423 121.899 105.423 122.899ZM103.543 122.519C103.543 121.826 103.389 121.232 103.083 120.739C102.776 120.232 102.356 119.852 101.823 119.599C101.303 119.332 100.723 119.199 100.083 119.199C99.1628 119.199 98.3761 119.492 97.7228 120.079C97.0828 120.666 96.7161 121.479 96.6228 122.519H103.543ZM109.645 119.619C109.965 118.992 110.418 118.506 111.005 118.159C111.605 117.812 112.332 117.639 113.185 117.639V119.519H112.705C110.665 119.519 109.645 120.626 109.645 122.839V128.799H107.825V117.839H109.645V119.619ZM114.606 123.279C114.606 122.159 114.833 121.179 115.286 120.339C115.739 119.486 116.359 118.826 117.146 118.359C117.946 117.892 118.833 117.659 119.806 117.659C120.766 117.659 121.599 117.866 122.306 118.279C123.013 118.692 123.539 119.212 123.886 119.839V117.839H125.726V128.799H123.886V126.759C123.526 127.399 122.986 127.932 122.266 128.359C121.559 128.772 120.733 128.979 119.786 128.979C118.813 128.979 117.933 128.739 117.146 128.259C116.359 127.779 115.739 127.106 115.286 126.239C114.833 125.372 114.606 124.386 114.606 123.279ZM123.886 123.299C123.886 122.472 123.719 121.752 123.386 121.139C123.053 120.526 122.599 120.059 122.026 119.739C121.466 119.406 120.846 119.239 120.166 119.239C119.486 119.239 118.866 119.399 118.306 119.719C117.746 120.039 117.299 120.506 116.966 121.119C116.633 121.732 116.466 122.452 116.466 123.279C116.466 124.119 116.633 124.852 116.966 125.479C117.299 126.092 117.746 126.566 118.306 126.899C118.866 127.219 119.486 127.379 120.166 127.379C120.846 127.379 121.466 127.219 122.026 126.899C122.599 126.566 123.053 126.092 123.386 125.479C123.719 124.852 123.886 124.126 123.886 123.299ZM133.322 117.659C134.268 117.659 135.095 117.866 135.802 118.279C136.522 118.692 137.055 119.212 137.402 119.839V117.839H139.242V129.039C139.242 130.039 139.028 130.926 138.602 131.699C138.175 132.486 137.562 133.099 136.762 133.539C135.975 133.979 135.055 134.199 134.002 134.199C132.562 134.199 131.362 133.859 130.402 133.179C129.442 132.499 128.875 131.572 128.702 130.399H130.502C130.702 131.066 131.115 131.599 131.742 131.999C132.368 132.412 133.122 132.619 134.002 132.619C135.002 132.619 135.815 132.306 136.442 131.679C137.082 131.052 137.402 130.172 137.402 129.039V126.739C137.042 127.379 136.508 127.912 135.802 128.339C135.095 128.766 134.268 128.979 133.322 128.979C132.348 128.979 131.462 128.739 130.662 128.259C129.875 127.779 129.255 127.106 128.802 126.239C128.348 125.372 128.122 124.386 128.122 123.279C128.122 122.159 128.348 121.179 128.802 120.339C129.255 119.486 129.875 118.826 130.662 118.359C131.462 117.892 132.348 117.659 133.322 117.659ZM137.402 123.299C137.402 122.472 137.235 121.752 136.902 121.139C136.568 120.526 136.115 120.059 135.542 119.739C134.982 119.406 134.362 119.239 133.682 119.239C133.002 119.239 132.382 119.399 131.822 119.719C131.262 120.039 130.815 120.506 130.482 121.119C130.148 121.732 129.982 122.452 129.982 123.279C129.982 124.119 130.148 124.852 130.482 125.479C130.815 126.092 131.262 126.566 131.822 126.899C132.382 127.219 133.002 127.379 133.682 127.379C134.362 127.379 134.982 127.219 135.542 126.899C136.115 126.566 136.568 126.092 136.902 125.479C137.235 124.852 137.402 124.126 137.402 123.299ZM152.317 122.899C152.317 123.246 152.297 123.612 152.257 123.999H143.497C143.564 125.079 143.931 125.926 144.597 126.539C145.277 127.139 146.097 127.439 147.057 127.439C147.844 127.439 148.497 127.259 149.017 126.899C149.551 126.526 149.924 126.032 150.137 125.419H152.097C151.804 126.472 151.217 127.332 150.337 127.999C149.457 128.652 148.364 128.979 147.057 128.979C146.017 128.979 145.084 128.746 144.257 128.279C143.444 127.812 142.804 127.152 142.337 126.299C141.871 125.432 141.637 124.432 141.637 123.299C141.637 122.166 141.864 121.172 142.317 120.319C142.771 119.466 143.404 118.812 144.217 118.359C145.044 117.892 145.991 117.659 147.057 117.659C148.097 117.659 149.017 117.886 149.817 118.339C150.617 118.792 151.231 119.419 151.657 120.219C152.097 121.006 152.317 121.899 152.317 122.899ZM150.437 122.519C150.437 121.826 150.284 121.232 149.977 120.739C149.671 120.232 149.251 119.852 148.717 119.599C148.197 119.332 147.617 119.199 146.977 119.199C146.057 119.199 145.271 119.492 144.617 120.079C143.977 120.666 143.611 121.479 143.517 122.519H150.437Z" fill="black"/>
</g>
<path fill-rule="evenodd" clip-rule="evenodd" d="M97.4299 0.200928C79.603 0.200928 65.1309 14.6731 65.1309 32.5C65.1309 50.3268 79.603 64.799 97.4299 64.799C115.257 64.799 129.729 50.3268 129.729 32.5C129.729 14.6731 115.257 0.200928 97.4299 0.200928ZM97.4299 3.00941C113.705 3.00941 126.921 16.2249 126.921 32.5002C126.921 48.7755 113.705 61.991 97.4299 61.991C81.1546 61.991 67.9391 48.7755 67.9391 32.5002C67.9391 16.2249 81.1546 3.00941 97.4299 3.00941Z" fill="#118B64"/>
<path fill-rule="evenodd" clip-rule="evenodd" d="M89.0039 17.053C85.1281 17.053 81.9824 20.1986 81.9824 24.0744C81.9824 27.9502 85.1281 31.0959 89.0039 31.0959C92.8797 31.0959 96.0253 27.9502 96.0253 24.0744C96.0253 20.1986 92.8797 17.053 89.0039 17.053ZM89.0039 19.8615C91.3294 19.8615 93.2168 21.7489 93.2168 24.0744C93.2168 26.4 91.3294 28.2874 89.0039 28.2874C86.6783 28.2874 84.7909 26.4 84.7909 24.0744C84.7909 21.7489 86.6783 19.8615 89.0039 19.8615Z" fill="#118B64"/>
<path fill-rule="evenodd" clip-rule="evenodd" d="M105.855 33.9048C101.98 33.9048 98.834 37.0504 98.834 40.9262C98.834 44.802 101.98 47.9477 105.855 47.9477C109.731 47.9477 112.877 44.802 112.877 40.9262C112.877 37.0504 109.731 33.9048 105.855 33.9048ZM105.855 36.7133C108.181 36.7133 110.068 38.6007 110.068 40.9262C110.068 43.2518 108.181 45.1392 105.855 45.1392C103.53 45.1392 101.642 43.2518 101.642 40.9262C101.642 38.6007 103.53 36.7133 105.855 36.7133Z" fill="#118B64"/>
<path fill-rule="evenodd" clip-rule="evenodd" d="M84.3808 47.5355L112.467 19.4494C113.015 18.9017 113.015 18.0116 112.467 17.4638C111.919 16.916 111.029 16.916 110.481 17.4638L82.3952 45.5499C81.8474 46.0977 81.8474 46.9877 82.3952 47.5355C82.943 48.0833 83.833 48.0833 84.3808 47.5355Z" fill="#118B64"/>
<defs>
<filter id="filter0_b_113_5722" x="-1.84502" y="83.2261" width="200.684" height="54.3257" filterUnits="userSpaceOnUse" color-interpolation-filters="sRGB">
<feFlood flood-opacity="0" result="BackgroundImageFix"/>
<feGaussianBlur in="BackgroundImageFix" stdDeviation="1.67642"/>
<feComposite in2="SourceAlpha" operator="in" result="effect1_backgroundBlur_113_5722"/>
<feBlend mode="normal" in="SourceGraphic" in2="effect1_backgroundBlur_113_5722" result="shape"/>
</filter>
</defs>
</svg>
