<svg width="37" height="37" viewBox="0 0 37 37" fill="none" xmlns="http://www.w3.org/2000/svg">
<path d="M34.1886 9.5C33.0336 10.025 31.7886 10.37 30.4986 10.535C31.8186 9.74 32.8386 8.48 33.3186 6.965C32.0736 7.715 30.6936 8.24 29.2386 8.54C28.0536 7.25 26.3886 6.5 24.4986 6.5C20.9736 6.5 18.0936 9.38 18.0936 12.935C18.0936 13.445 18.1536 13.94 18.2586 14.405C12.9186 14.135 8.16359 11.57 4.99859 7.685C4.44359 8.63 4.12859 9.74 4.12859 10.91C4.12859 13.145 5.25359 15.125 6.99359 16.25C5.92859 16.25 4.93859 15.95 4.06859 15.5V15.545C4.06859 18.665 6.28859 21.275 9.22859 21.86C8.28468 22.1183 7.29374 22.1543 6.33359 21.965C6.741 23.2437 7.5389 24.3626 8.61512 25.1644C9.69134 25.9662 10.9918 26.4105 12.3336 26.435C10.059 28.2357 7.23959 29.209 4.33859 29.195C3.82859 29.195 3.31859 29.165 2.80859 29.105C5.65859 30.935 9.04859 32 12.6786 32C24.4986 32 30.9936 22.19 30.9936 13.685C30.9936 13.4 30.9936 13.13 30.9786 12.845C32.2386 11.945 33.3186 10.805 34.1886 9.5Z" fill="black"/>
</svg>
