<svg width="37" height="37" viewBox="0 0 37 37" fill="none" xmlns="http://www.w3.org/2000/svg">
<path d="M18.5 3.5C26.7845 3.5 33.5 10.2155 33.5 18.5C33.5 26.7845 26.7845 33.5 18.5 33.5C15.8492 33.5043 13.245 32.8028 10.955 31.4675L3.50602 33.5L5.53402 26.048C4.19766 23.7573 3.49559 21.152 3.50002 18.5C3.50002 10.2155 10.2155 3.5 18.5 3.5ZM13.388 11.45L13.088 11.462C12.8938 11.4738 12.704 11.5249 12.53 11.612C12.3673 11.7041 12.2188 11.8193 12.089 11.954C11.909 12.1235 11.807 12.2705 11.6975 12.413C11.1427 13.1344 10.844 14.02 10.8485 14.93C10.8515 15.665 11.0435 16.3805 11.3435 17.0495C11.957 18.4025 12.9665 19.835 14.2985 21.1625C14.6195 21.482 14.9345 21.803 15.2735 22.1015C16.9286 23.5587 18.9009 24.6096 21.0335 25.1705L21.8855 25.301C22.163 25.316 22.4405 25.295 22.7195 25.2815C23.1564 25.2589 23.5829 25.1407 23.969 24.935C24.1655 24.8338 24.3572 24.7237 24.5435 24.605C24.5435 24.605 24.608 24.563 24.731 24.47C24.9335 24.32 25.058 24.2135 25.226 24.038C25.3505 23.909 25.4585 23.7575 25.541 23.585C25.658 23.3405 25.775 22.874 25.823 22.4855C25.859 22.1885 25.8485 22.0265 25.844 21.926C25.838 21.7655 25.7045 21.599 25.559 21.5285L24.686 21.137C24.686 21.137 23.381 20.5685 22.583 20.2055C22.4995 20.169 22.41 20.1482 22.319 20.144C22.2164 20.1335 22.1127 20.145 22.0149 20.1779C21.9171 20.2107 21.8275 20.2641 21.752 20.3345C21.7445 20.3315 21.644 20.417 20.5595 21.731C20.4973 21.8146 20.4115 21.8779 20.3132 21.9126C20.2149 21.9473 20.1085 21.952 20.0075 21.926C19.9098 21.8998 19.8141 21.8667 19.721 21.827C19.535 21.749 19.4705 21.719 19.343 21.665C18.4821 21.2893 17.6851 20.7817 16.9805 20.1605C16.7915 19.9955 16.616 19.8155 16.436 19.6415C15.8459 19.0763 15.3316 18.437 14.906 17.7395L14.8175 17.597C14.754 17.5012 14.7026 17.398 14.6645 17.2895C14.6075 17.069 14.756 16.892 14.756 16.892C14.756 16.892 15.1205 16.493 15.29 16.277C15.455 16.067 15.5945 15.863 15.6845 15.7175C15.8615 15.4325 15.917 15.14 15.824 14.9135C15.404 13.8875 14.969 12.866 14.522 11.852C14.4335 11.651 14.171 11.507 13.9325 11.4785C13.8515 11.4695 13.7705 11.4605 13.6895 11.4545C13.4881 11.4445 13.2862 11.4465 13.085 11.4605L13.3865 11.4485L13.388 11.45Z" fill="black"/>
</svg>
