<svg width="336" height="304" viewBox="0 0 336 304" fill="none" xmlns="http://www.w3.org/2000/svg">
<g filter="url(#filter0_b_2811_4503)">
<rect x="0.915039" width="335" height="304" rx="32.3741" fill="#154E77" fill-opacity="0.1"/>
<path d="M58.9599 56.3997H72.1199V122.2H57.0799V72.2857L45.4239 75.4817L41.7579 62.6037L58.9599 56.3997ZM127.986 114.21C123.286 120.414 116.737 123.516 108.34 123.516C99.9426 123.516 93.3626 120.414 88.6 114.21C83.9 107.943 81.55 99.6397 81.55 89.2997C81.55 78.9597 83.9 70.6877 88.6 64.4837C93.3626 58.217 99.9426 55.0837 108.34 55.0837C116.737 55.0837 123.286 58.217 127.986 64.4837C132.749 70.6877 135.13 78.9597 135.13 89.2997C135.13 99.6397 132.749 107.943 127.986 114.21ZM96.59 89.2997C96.59 102.334 100.507 108.852 108.34 108.852C116.173 108.852 120.09 102.334 120.09 89.2997C120.09 76.265 116.173 69.7477 108.34 69.7477C100.507 69.7477 96.59 76.265 96.59 89.2997Z" fill="#0D8335"/>
<g filter="url(#filter1_d_2811_4503)">
<path d="M125.463 157.327C123.64 157.345 122.818 156.651 122.416 154.903L122.394 154.793C121.429 149.904 124.233 144.156 126.606 139.692C131.263 130.896 137.243 124.465 143.884 117.332C144.358 116.839 144.655 116.324 144.877 115.709C145.796 112.845 147.09 109.279 147.8 106.513C147.745 106.524 147.679 106.48 147.613 106.436C147.393 106.765 147.106 107.05 146.886 107.379C145.266 109.582 140.385 115.797 138.107 117.273C137.755 117.514 137.327 117.656 136.997 117.721C135.898 117.938 135.032 117.309 134.783 116.046L134.718 115.716C133.985 110.267 138.091 102.15 139.959 101.782C140.179 101.738 140.355 101.761 140.497 101.904C140.705 102.091 140.804 102.3 140.847 102.52C140.988 103.234 140.514 104.013 140.116 104.89C138.758 107.841 137.816 110.881 137.193 114.086C137.104 114.503 136.96 114.931 137.047 115.371C137.09 115.591 137.178 115.744 137.276 115.953C137.87 115.494 138.431 115.155 138.905 114.662C143.639 110.303 145.833 106.959 149.535 102.004C149.668 101.807 149.789 101.554 149.987 101.401C150.141 101.314 150.295 101.226 150.405 101.205C150.735 101.14 150.943 101.327 151.008 101.656L151.051 101.876C151.094 102.381 148.392 111.248 148.026 112.576L148.058 112.741C148.069 112.796 148.091 112.906 148.068 113.082C153.122 108.032 158.559 103.762 164.553 100.296C164.619 100.34 164.695 100.439 164.761 100.484C164.629 100.681 164.497 100.878 164.298 101.032C163.297 101.743 162.285 102.399 161.273 103.056C156.289 106.436 151.831 110.456 147.669 114.816C147.294 115.232 147.007 115.803 146.83 116.351C145.7 120.17 144.68 123.968 143.539 127.732C140.904 136.072 137.199 145.936 132.008 153.182C130.718 155.034 128.495 156.786 126.298 157.22C126.023 157.274 125.748 157.328 125.463 157.327ZM124.102 148.12C123.427 150.194 123.147 152.247 123.559 154.335L123.603 154.555C123.863 155.874 124.444 156.215 125.883 155.989L126.048 155.956C127.642 155.642 129.325 154.339 130.284 153.122C133.854 148.365 136.273 143.264 138.198 137.69C139.769 133.213 142.979 123.447 143.814 119.001C141.942 120.798 139.574 123.548 137.856 125.543C132.271 131.953 126.77 139.945 124.102 148.12Z" fill="#0D8335"/>
</g>
<path opacity="0.6" d="M49.3068 194.893C48.3834 195.804 47.2621 196.26 45.9429 196.26C44.6238 196.26 43.5025 195.804 42.579 194.893C41.6676 193.981 41.2119 192.86 41.2119 191.529C41.2119 190.198 41.6676 189.076 42.579 188.165C43.5025 187.253 44.6238 186.798 45.9429 186.798C47.2621 186.798 48.3834 187.253 49.3068 188.165C50.2303 189.076 50.692 190.198 50.692 191.529C50.692 192.86 50.2303 193.981 49.3068 194.893ZM45.9429 194.731C46.8424 194.731 47.5979 194.425 48.2095 193.813C48.8211 193.202 49.127 192.44 49.127 191.529C49.127 190.617 48.8211 189.856 48.2095 189.244C47.5979 188.632 46.8424 188.327 45.9429 188.327C45.0555 188.327 44.306 188.632 43.6943 189.244C43.0827 189.856 42.7769 190.617 42.7769 191.529C42.7769 192.44 43.0827 193.202 43.6943 193.813C44.306 194.425 45.0555 194.731 45.9429 194.731ZM56.8263 184.711C55.2433 184.579 54.4518 185.263 54.4518 186.762V187.031H56.8263V188.543H54.4518V196.026H52.8868V188.543H51.4477V187.031H52.8868V186.762C52.8868 185.55 53.2225 184.633 53.8941 184.009C54.5777 183.386 55.5551 183.116 56.8263 183.2V184.711ZM68.7212 187.031H70.2863V196.026H68.7212V194.731C68.0856 195.75 67.1142 196.26 65.8071 196.26C64.7517 196.26 63.9062 195.93 63.2706 195.27C62.635 194.599 62.3172 193.693 62.3172 192.554V187.031H63.8823V192.464C63.8823 193.196 64.0801 193.765 64.4759 194.173C64.8716 194.569 65.4173 194.767 66.1129 194.767C66.8924 194.767 67.522 194.527 68.0017 194.047C68.4814 193.555 68.7212 192.806 68.7212 191.799V187.031ZM77.1481 186.798C78.2035 186.798 79.049 187.133 79.6846 187.805C80.3202 188.465 80.638 189.364 80.638 190.503V196.026H79.0729V190.593C79.0729 189.862 78.8751 189.298 78.4793 188.902C78.0836 188.495 77.5379 188.291 76.8423 188.291C76.0628 188.291 75.4332 188.537 74.9535 189.028C74.4738 189.508 74.234 190.251 74.234 191.259V196.026H72.6689V187.031H74.234V188.327C74.8696 187.307 75.841 186.798 77.1481 186.798ZM93.2952 187.031H94.9322L92.1439 196.026H90.5429L88.4382 189.37L86.3335 196.026H84.7325L81.9443 187.031H83.5812L85.56 193.867L87.6827 187.031H89.1937L91.3164 193.885L93.2952 187.031ZM103.639 187.031H105.204V196.026H103.639V194.479C102.859 195.666 101.726 196.26 100.239 196.26C98.9796 196.26 97.9063 195.804 97.0189 194.893C96.1314 193.969 95.6877 192.848 95.6877 191.529C95.6877 190.21 96.1314 189.094 97.0189 188.183C97.9063 187.259 98.9796 186.798 100.239 186.798C101.726 186.798 102.859 187.391 103.639 188.579V187.031ZM100.437 194.749C101.348 194.749 102.11 194.443 102.721 193.831C103.333 193.208 103.639 192.44 103.639 191.529C103.639 190.617 103.333 189.856 102.721 189.244C102.11 188.62 101.348 188.309 100.437 188.309C99.5373 188.309 98.7818 188.62 98.1701 189.244C97.5585 189.856 97.2527 190.617 97.2527 191.529C97.2527 192.44 97.5585 193.208 98.1701 193.831C98.7818 194.443 99.5373 194.749 100.437 194.749ZM113.871 187.031H115.562L111.964 196.026H110.129L106.532 187.031H108.222L111.047 194.353L113.871 187.031ZM117.631 192.248C117.787 193.052 118.153 193.675 118.729 194.119C119.316 194.563 120.036 194.785 120.887 194.785C122.075 194.785 122.938 194.347 123.478 193.471L124.809 194.227C123.934 195.582 122.614 196.26 120.851 196.26C119.424 196.26 118.261 195.816 117.362 194.929C116.474 194.029 116.03 192.896 116.03 191.529C116.03 190.174 116.468 189.046 117.344 188.147C118.219 187.247 119.352 186.798 120.744 186.798C122.063 186.798 123.136 187.265 123.964 188.201C124.803 189.124 125.223 190.239 125.223 191.547C125.223 191.775 125.205 192.008 125.169 192.248H117.631ZM120.744 188.273C119.904 188.273 119.208 188.513 118.657 188.992C118.105 189.46 117.763 190.09 117.631 190.881H123.64C123.508 190.03 123.172 189.382 122.632 188.938C122.093 188.495 121.463 188.273 120.744 188.273ZM128.587 188.543C129.102 187.427 130.038 186.87 131.393 186.87V188.507C130.626 188.471 129.966 188.674 129.414 189.118C128.863 189.562 128.587 190.275 128.587 191.259V196.026H127.022V187.031H128.587V188.543ZM133.716 185.395C133.416 185.395 133.164 185.293 132.96 185.089C132.756 184.885 132.654 184.639 132.654 184.351C132.654 184.063 132.756 183.817 132.96 183.614C133.164 183.398 133.416 183.29 133.716 183.29C134.004 183.29 134.249 183.398 134.453 183.614C134.657 183.817 134.759 184.063 134.759 184.351C134.759 184.639 134.657 184.885 134.453 185.089C134.249 185.293 134.004 185.395 133.716 185.395ZM132.924 196.026V187.031H134.489V196.026H132.924ZM141.356 186.798C142.411 186.798 143.257 187.133 143.893 187.805C144.528 188.465 144.846 189.364 144.846 190.503V196.026H143.281V190.593C143.281 189.862 143.083 189.298 142.687 188.902C142.292 188.495 141.746 188.291 141.05 188.291C140.271 188.291 139.641 188.537 139.162 189.028C138.682 189.508 138.442 190.251 138.442 191.259V196.026H136.877V187.031H138.442V188.327C139.078 187.307 140.049 186.798 141.356 186.798ZM154.496 187.031H156.043V195.648C156.043 196.979 155.593 198.011 154.694 198.742C153.795 199.486 152.715 199.857 151.456 199.857C150.449 199.857 149.579 199.666 148.848 199.282C148.116 198.91 147.564 198.37 147.193 197.663L148.56 196.889C149.051 197.897 150.029 198.4 151.492 198.4C152.427 198.4 153.159 198.155 153.687 197.663C154.226 197.171 154.496 196.5 154.496 195.648V194.371C153.705 195.57 152.577 196.17 151.114 196.17C149.831 196.17 148.746 195.714 147.858 194.803C146.971 193.891 146.527 192.782 146.527 191.475C146.527 190.168 146.971 189.064 147.858 188.165C148.746 187.253 149.831 186.798 151.114 186.798C152.589 186.798 153.717 187.391 154.496 188.579V187.031ZM149.01 193.759C149.621 194.371 150.383 194.677 151.294 194.677C152.206 194.677 152.967 194.371 153.579 193.759C154.19 193.148 154.496 192.386 154.496 191.475C154.496 190.575 154.19 189.82 153.579 189.208C152.967 188.597 152.206 188.291 151.294 188.291C150.383 188.291 149.621 188.597 149.01 189.208C148.398 189.82 148.092 190.575 148.092 191.475C148.092 192.386 148.398 193.148 149.01 193.759ZM45.9429 221.26C44.5878 221.26 43.4605 220.81 42.5611 219.911C41.6616 218.999 41.2119 217.872 41.2119 216.529C41.2119 215.186 41.6616 214.064 42.5611 213.165C43.4605 212.253 44.5878 211.798 45.9429 211.798C46.8304 211.798 47.6279 212.013 48.3355 212.445C49.043 212.865 49.5707 213.435 49.9185 214.154L48.6053 214.91C48.3774 214.43 48.0236 214.046 47.5439 213.758C47.0762 213.471 46.5426 213.327 45.9429 213.327C45.0435 213.327 44.288 213.632 43.6764 214.244C43.0767 214.856 42.7769 215.617 42.7769 216.529C42.7769 217.428 43.0767 218.184 43.6764 218.795C44.288 219.407 45.0435 219.713 45.9429 219.713C46.5426 219.713 47.0822 219.575 47.5619 219.299C48.0416 219.011 48.4074 218.627 48.6592 218.148L49.9904 218.921C49.6067 219.629 49.055 220.198 48.3355 220.63C47.6159 221.05 46.8184 221.26 45.9429 221.26ZM59.0039 219.893C58.0805 220.804 56.9592 221.26 55.64 221.26C54.3208 221.26 53.1995 220.804 52.2761 219.893C51.3647 218.981 50.909 217.86 50.909 216.529C50.909 215.198 51.3647 214.076 52.2761 213.165C53.1995 212.253 54.3208 211.798 55.64 211.798C56.9592 211.798 58.0805 212.253 59.0039 213.165C59.9273 214.076 60.3891 215.198 60.3891 216.529C60.3891 217.86 59.9273 218.981 59.0039 219.893ZM55.64 219.731C56.5395 219.731 57.295 219.425 57.9066 218.813C58.5182 218.202 58.824 217.44 58.824 216.529C58.824 215.617 58.5182 214.856 57.9066 214.244C57.295 213.632 56.5395 213.327 55.64 213.327C54.7526 213.327 54.003 213.632 53.3914 214.244C52.7798 214.856 52.474 215.617 52.474 216.529C52.474 217.44 52.7798 218.202 53.3914 218.813C54.003 219.425 54.7526 219.731 55.64 219.731ZM71.948 211.798C72.9553 211.798 73.7708 212.127 74.3944 212.787C75.0181 213.435 75.3299 214.316 75.3299 215.431V221.026H73.7648V215.485C73.7648 214.79 73.585 214.25 73.2252 213.866C72.8654 213.483 72.3857 213.291 71.7861 213.291C71.1145 213.291 70.5748 213.519 70.1671 213.974C69.7713 214.418 69.5735 215.102 69.5735 216.025V221.026H68.0084V215.485C68.0084 214.79 67.8345 214.25 67.4868 213.866C67.151 213.483 66.6893 213.291 66.1016 213.291C65.442 213.291 64.8904 213.519 64.4467 213.974C64.0149 214.43 63.7991 215.114 63.7991 216.025V221.026H62.234V212.031H63.7991V213.237C64.4107 212.277 65.3041 211.798 66.4794 211.798C67.6906 211.798 68.5721 212.307 69.1237 213.327C69.7473 212.307 70.6888 211.798 71.948 211.798ZM87.2138 211.798C88.2212 211.798 89.0367 212.127 89.6603 212.787C90.2839 213.435 90.5957 214.316 90.5957 215.431V221.026H89.0307V215.485C89.0307 214.79 88.8508 214.25 88.4911 213.866C88.1313 213.483 87.6516 213.291 87.0519 213.291C86.3804 213.291 85.8407 213.519 85.433 213.974C85.0372 214.418 84.8393 215.102 84.8393 216.025V221.026H83.2743V215.485C83.2743 214.79 83.1004 214.25 82.7526 213.866C82.4168 213.483 81.9551 213.291 81.3675 213.291C80.7079 213.291 80.1562 213.519 79.7125 213.974C79.2808 214.43 79.0649 215.114 79.0649 216.025V221.026H77.4999V212.031H79.0649V213.237C79.6765 212.277 80.57 211.798 81.7453 211.798C82.9565 211.798 83.838 212.307 84.3896 213.327C85.0132 212.307 85.9546 211.798 87.2138 211.798ZM93.5573 210.395C93.2575 210.395 93.0056 210.293 92.8018 210.089C92.5979 209.885 92.4959 209.639 92.4959 209.351C92.4959 209.063 92.5979 208.817 92.8018 208.614C93.0056 208.398 93.2575 208.29 93.5573 208.29C93.8451 208.29 94.0909 208.398 94.2948 208.614C94.4987 208.817 94.6006 209.063 94.6006 209.351C94.6006 209.639 94.4987 209.885 94.2948 210.089C94.0909 210.293 93.8451 210.395 93.5573 210.395ZM92.7658 221.026V212.031H94.3308V221.026H92.7658ZM101.611 213.543H99.2188V218.418C99.2188 218.861 99.3028 219.179 99.4707 219.371C99.6506 219.551 99.9204 219.647 100.28 219.659C100.64 219.659 101.084 219.647 101.611 219.623V221.026C100.244 221.206 99.2428 221.098 98.6072 220.702C97.9716 220.294 97.6538 219.533 97.6538 218.418V213.543H95.8729V212.031H97.6538V209.981L99.2188 209.513V212.031H101.611V213.543ZM113.231 211.798C114.238 211.798 115.054 212.127 115.677 212.787C116.301 213.435 116.613 214.316 116.613 215.431V221.026H115.048V215.485C115.048 214.79 114.868 214.25 114.508 213.866C114.148 213.483 113.669 213.291 113.069 213.291C112.397 213.291 111.858 213.519 111.45 213.974C111.054 214.418 110.856 215.102 110.856 216.025V221.026H109.291V215.485C109.291 214.79 109.117 214.25 108.77 213.866C108.434 213.483 107.972 213.291 107.384 213.291C106.725 213.291 106.173 213.519 105.73 213.974C105.298 214.43 105.082 215.114 105.082 216.025V221.026H103.517V212.031H105.082V213.237C105.694 212.277 106.587 211.798 107.762 211.798C108.973 211.798 109.855 212.307 110.407 213.327C111.03 212.307 111.972 211.798 113.231 211.798ZM119.88 217.248C120.036 218.052 120.402 218.675 120.977 219.119C121.565 219.563 122.285 219.785 123.136 219.785C124.323 219.785 125.187 219.347 125.726 218.471L127.058 219.227C126.182 220.582 124.863 221.26 123.1 221.26C121.673 221.26 120.51 220.816 119.61 219.929C118.723 219.029 118.279 217.896 118.279 216.529C118.279 215.174 118.717 214.046 119.592 213.147C120.468 212.247 121.601 211.798 122.992 211.798C124.311 211.798 125.385 212.265 126.212 213.201C127.052 214.124 127.471 215.239 127.471 216.547C127.471 216.775 127.453 217.008 127.417 217.248H119.88ZM122.992 213.273C122.153 213.273 121.457 213.513 120.905 213.992C120.354 214.46 120.012 215.09 119.88 215.881H125.888C125.756 215.03 125.421 214.382 124.881 213.938C124.341 213.495 123.712 213.273 122.992 213.273ZM133.75 211.798C134.805 211.798 135.65 212.133 136.286 212.805C136.922 213.465 137.239 214.364 137.239 215.503V221.026H135.674V215.593C135.674 214.862 135.476 214.298 135.081 213.902C134.685 213.495 134.139 213.291 133.444 213.291C132.664 213.291 132.035 213.537 131.555 214.028C131.075 214.508 130.835 215.251 130.835 216.259V221.026H129.27V212.031H130.835V213.327C131.471 212.307 132.442 211.798 133.75 211.798ZM144.317 213.543H141.925V218.418C141.925 218.861 142.009 219.179 142.176 219.371C142.356 219.551 142.626 219.647 142.986 219.659C143.346 219.659 143.789 219.647 144.317 219.623V221.026C142.95 221.206 141.949 221.098 141.313 220.702C140.677 220.294 140.36 219.533 140.36 218.418V213.543H138.579V212.031H140.36V209.981L141.925 209.513V212.031H144.317V213.543ZM46.6085 238.543H44.216V243.418C44.216 243.861 44.3 244.179 44.4679 244.371C44.6478 244.551 44.9176 244.647 45.2774 244.659C45.6371 244.659 46.0809 244.647 46.6085 244.623V246.026C45.2414 246.206 44.24 246.098 43.6044 245.702C42.9688 245.294 42.651 244.533 42.651 243.418V238.543H40.8701V237.031H42.651V234.981L44.216 234.513V237.031H46.6085V238.543ZM55.5959 244.893C54.6725 245.804 53.5512 246.26 52.232 246.26C50.9128 246.26 49.7915 245.804 48.8681 244.893C47.9567 243.981 47.5009 242.86 47.5009 241.529C47.5009 240.198 47.9567 239.076 48.8681 238.165C49.7915 237.253 50.9128 236.798 52.232 236.798C53.5512 236.798 54.6725 237.253 55.5959 238.165C56.5193 239.076 56.981 240.198 56.981 241.529C56.981 242.86 56.5193 243.981 55.5959 244.893ZM52.232 244.731C53.1314 244.731 53.887 244.425 54.4986 243.813C55.1102 243.202 55.416 242.44 55.416 241.529C55.416 240.617 55.1102 239.856 54.4986 239.244C53.887 238.632 53.1314 238.327 52.232 238.327C51.3445 238.327 50.595 238.632 49.9834 239.244C49.3718 239.856 49.066 240.617 49.066 241.529C49.066 242.44 49.3718 243.202 49.9834 243.813C50.595 244.425 51.3445 244.731 52.232 244.731ZM67.5506 246.26C66.1954 246.26 65.0681 245.81 64.1687 244.911C63.2692 243.999 62.8195 242.872 62.8195 241.529C62.8195 240.186 63.2692 239.064 64.1687 238.165C65.0681 237.253 66.1954 236.798 67.5506 236.798C68.438 236.798 69.2355 237.013 69.9431 237.445C70.6506 237.865 71.1783 238.435 71.5261 239.154L70.2129 239.91C69.985 239.43 69.6313 239.046 69.1516 238.758C68.6839 238.471 68.1502 238.327 67.5506 238.327C66.6511 238.327 65.8956 238.632 65.284 239.244C64.6843 239.856 64.3845 240.617 64.3845 241.529C64.3845 242.428 64.6843 243.184 65.284 243.795C65.8956 244.407 66.6511 244.713 67.5506 244.713C68.1502 244.713 68.6898 244.575 69.1696 244.299C69.6493 244.011 70.015 243.627 70.2669 243.148L71.598 243.921C71.2143 244.629 70.6626 245.198 69.9431 245.63C69.2235 246.05 68.426 246.26 67.5506 246.26ZM73.1432 246.026V232.894H74.7083V246.026H73.1432ZM77.8874 235.395C77.5876 235.395 77.3357 235.293 77.1318 235.089C76.928 234.885 76.826 234.639 76.826 234.351C76.826 234.063 76.928 233.817 77.1318 233.614C77.3357 233.398 77.5876 233.29 77.8874 233.29C78.1752 233.29 78.421 233.398 78.6249 233.614C78.8288 233.817 78.9307 234.063 78.9307 234.351C78.9307 234.639 78.8288 234.885 78.6249 235.089C78.421 235.293 78.1752 235.395 77.8874 235.395ZM77.0959 246.026V237.031H78.6609V246.026H77.0959ZM82.1458 242.248C82.3017 243.052 82.6675 243.675 83.2431 244.119C83.8307 244.563 84.5503 244.785 85.4018 244.785C86.589 244.785 87.4525 244.347 87.9921 243.471L89.3233 244.227C88.4479 245.582 87.1287 246.26 85.3658 246.26C83.9387 246.26 82.7754 245.816 81.876 244.929C80.9885 244.029 80.5448 242.896 80.5448 241.529C80.5448 240.174 80.9825 239.046 81.858 238.147C82.7334 237.247 83.8667 236.798 85.2578 236.798C86.577 236.798 87.6504 237.265 88.4778 238.201C89.3173 239.124 89.7371 240.239 89.7371 241.547C89.7371 241.775 89.7191 242.008 89.6831 242.248H82.1458ZM85.2578 238.273C84.4184 238.273 83.7228 238.513 83.1711 238.992C82.6195 239.46 82.2777 240.09 82.1458 240.881H88.154C88.0221 240.03 87.6863 239.382 87.1467 238.938C86.607 238.495 85.9774 238.273 85.2578 238.273ZM96.0153 236.798C97.0706 236.798 97.9161 237.133 98.5517 237.805C99.1873 238.465 99.5051 239.364 99.5051 240.503V246.026H97.9401V240.593C97.9401 239.862 97.7422 239.298 97.3464 238.902C96.9507 238.495 96.405 238.291 95.7095 238.291C94.93 238.291 94.3003 238.537 93.8206 239.028C93.3409 239.508 93.1011 240.251 93.1011 241.259V246.026H91.5361V237.031H93.1011V238.327C93.7367 237.307 94.7081 236.798 96.0153 236.798ZM106.583 238.543H104.19V243.418C104.19 243.861 104.274 244.179 104.442 244.371C104.622 244.551 104.892 244.647 105.252 244.659C105.611 244.659 106.055 244.647 106.583 244.623V246.026C105.216 246.206 104.214 246.098 103.579 245.702C102.943 245.294 102.625 244.533 102.625 243.418V238.543H100.844V237.031H102.625V234.981L104.19 234.513V237.031H106.583V238.543ZM114.335 239.46C114.335 239.808 114.509 240.09 114.856 240.305C115.204 240.509 115.624 240.677 116.116 240.809C116.607 240.929 117.099 241.073 117.591 241.241C118.082 241.397 118.502 241.673 118.85 242.068C119.198 242.452 119.372 242.95 119.372 243.561C119.372 244.377 119.054 245.03 118.418 245.522C117.795 246.014 116.991 246.26 116.008 246.26C115.132 246.26 114.383 246.068 113.759 245.684C113.135 245.3 112.692 244.791 112.428 244.155L113.777 243.382C113.921 243.813 114.191 244.155 114.587 244.407C114.982 244.659 115.456 244.785 116.008 244.785C116.523 244.785 116.949 244.689 117.285 244.497C117.621 244.293 117.789 243.981 117.789 243.561C117.789 243.214 117.615 242.938 117.267 242.734C116.919 242.518 116.499 242.35 116.008 242.23C115.516 242.098 115.024 241.948 114.533 241.781C114.041 241.613 113.621 241.337 113.273 240.953C112.926 240.569 112.752 240.078 112.752 239.478C112.752 238.698 113.052 238.057 113.651 237.553C114.263 237.049 115.024 236.798 115.936 236.798C116.667 236.798 117.315 236.966 117.879 237.301C118.454 237.625 118.886 238.081 119.174 238.668L117.861 239.406C117.537 238.638 116.895 238.255 115.936 238.255C115.492 238.255 115.114 238.363 114.802 238.579C114.491 238.782 114.335 239.076 114.335 239.46ZM127.343 237.031H128.908V246.026H127.343V244.731C126.707 245.75 125.736 246.26 124.429 246.26C123.373 246.26 122.528 245.93 121.892 245.27C121.257 244.599 120.939 243.693 120.939 242.554V237.031H122.504V242.464C122.504 243.196 122.702 243.765 123.098 244.173C123.493 244.569 124.039 244.767 124.735 244.767C125.514 244.767 126.144 244.527 126.623 244.047C127.103 243.555 127.343 242.806 127.343 241.799V237.031ZM135.518 246.26C134.163 246.26 133.035 245.81 132.136 244.911C131.237 243.999 130.787 242.872 130.787 241.529C130.787 240.186 131.237 239.064 132.136 238.165C133.035 237.253 134.163 236.798 135.518 236.798C136.405 236.798 137.203 237.013 137.91 237.445C138.618 237.865 139.146 238.435 139.493 239.154L138.18 239.91C137.952 239.43 137.599 239.046 137.119 238.758C136.651 238.471 136.118 238.327 135.518 238.327C134.619 238.327 133.863 238.632 133.251 239.244C132.652 239.856 132.352 240.617 132.352 241.529C132.352 242.428 132.652 243.184 133.251 243.795C133.863 244.407 134.619 244.713 135.518 244.713C136.118 244.713 136.657 244.575 137.137 244.299C137.617 244.011 137.982 243.627 138.234 243.148L139.565 243.921C139.182 244.629 138.63 245.198 137.91 245.63C137.191 246.05 136.393 246.26 135.518 246.26ZM145.215 246.26C143.86 246.26 142.733 245.81 141.833 244.911C140.934 243.999 140.484 242.872 140.484 241.529C140.484 240.186 140.934 239.064 141.833 238.165C142.733 237.253 143.86 236.798 145.215 236.798C146.102 236.798 146.9 237.013 147.608 237.445C148.315 237.865 148.843 238.435 149.191 239.154L147.877 239.91C147.649 239.43 147.296 239.046 146.816 238.758C146.348 238.471 145.815 238.327 145.215 238.327C144.316 238.327 143.56 238.632 142.948 239.244C142.349 239.856 142.049 240.617 142.049 241.529C142.049 242.428 142.349 243.184 142.948 243.795C143.56 244.407 144.316 244.713 145.215 244.713C145.815 244.713 146.354 244.575 146.834 244.299C147.314 244.011 147.679 243.627 147.931 243.148L149.262 243.921C148.879 244.629 148.327 245.198 147.608 245.63C146.888 246.05 146.09 246.26 145.215 246.26ZM151.782 242.248C151.938 243.052 152.304 243.675 152.879 244.119C153.467 244.563 154.187 244.785 155.038 244.785C156.225 244.785 157.089 244.347 157.628 243.471L158.96 244.227C158.084 245.582 156.765 246.26 155.002 246.26C153.575 246.26 152.412 245.816 151.512 244.929C150.625 244.029 150.181 242.896 150.181 241.529C150.181 240.174 150.619 239.046 151.494 238.147C152.37 237.247 153.503 236.798 154.894 236.798C156.213 236.798 157.287 237.265 158.114 238.201C158.954 239.124 159.373 240.239 159.373 241.547C159.373 241.775 159.355 242.008 159.319 242.248H151.782ZM154.894 238.273C154.055 238.273 153.359 238.513 152.807 238.992C152.256 239.46 151.914 240.09 151.782 240.881H157.79C157.658 240.03 157.323 239.382 156.783 238.938C156.243 238.495 155.614 238.273 154.894 238.273ZM162.17 239.46C162.17 239.808 162.344 240.09 162.692 240.305C163.04 240.509 163.459 240.677 163.951 240.809C164.443 240.929 164.934 241.073 165.426 241.241C165.918 241.397 166.338 241.673 166.685 242.068C167.033 242.452 167.207 242.95 167.207 243.561C167.207 244.377 166.889 245.03 166.254 245.522C165.63 246.014 164.826 246.26 163.843 246.26C162.968 246.26 162.218 246.068 161.594 245.684C160.971 245.3 160.527 244.791 160.263 244.155L161.612 243.382C161.756 243.813 162.026 244.155 162.422 244.407C162.818 244.659 163.291 244.785 163.843 244.785C164.359 244.785 164.785 244.689 165.12 244.497C165.456 244.293 165.624 243.981 165.624 243.561C165.624 243.214 165.45 242.938 165.102 242.734C164.755 242.518 164.335 242.35 163.843 242.23C163.351 242.098 162.86 241.948 162.368 241.781C161.876 241.613 161.457 241.337 161.109 240.953C160.761 240.569 160.587 240.078 160.587 239.478C160.587 238.698 160.887 238.057 161.487 237.553C162.098 237.049 162.86 236.798 163.771 236.798C164.503 236.798 165.15 236.966 165.714 237.301C166.29 237.625 166.721 238.081 167.009 238.668L165.696 239.406C165.372 238.638 164.731 238.255 163.771 238.255C163.327 238.255 162.95 238.363 162.638 238.579C162.326 238.782 162.17 239.076 162.17 239.46ZM169.847 239.46C169.847 239.808 170.021 240.09 170.369 240.305C170.716 240.509 171.136 240.677 171.628 240.809C172.12 240.929 172.611 241.073 173.103 241.241C173.595 241.397 174.014 241.673 174.362 242.068C174.71 242.452 174.884 242.95 174.884 243.561C174.884 244.377 174.566 245.03 173.93 245.522C173.307 246.014 172.503 246.26 171.52 246.26C170.644 246.26 169.895 246.068 169.271 245.684C168.648 245.3 168.204 244.791 167.94 244.155L169.289 243.382C169.433 243.813 169.703 244.155 170.099 244.407C170.495 244.659 170.968 244.785 171.52 244.785C172.036 244.785 172.461 244.689 172.797 244.497C173.133 244.293 173.301 243.981 173.301 243.561C173.301 243.214 173.127 242.938 172.779 242.734C172.431 242.518 172.012 242.35 171.52 242.23C171.028 242.098 170.537 241.948 170.045 241.781C169.553 241.613 169.133 241.337 168.786 240.953C168.438 240.569 168.264 240.078 168.264 239.478C168.264 238.698 168.564 238.057 169.163 237.553C169.775 237.049 170.537 236.798 171.448 236.798C172.18 236.798 172.827 236.966 173.391 237.301C173.966 237.625 174.398 238.081 174.686 238.668L173.373 239.406C173.049 238.638 172.407 238.255 171.448 238.255C171.004 238.255 170.627 238.363 170.315 238.579C170.003 238.782 169.847 239.076 169.847 239.46Z" fill="#144E77"/>
<g filter="url(#filter2_d_2811_4503)">
<circle cx="244.735" cy="216.526" r="36.1153" fill="#0D8335"/>
</g>
<g filter="url(#filter3_d_2811_4503)">
<path fill-rule="evenodd" clip-rule="evenodd" d="M285.633 216.526C285.633 239.113 267.323 257.424 244.736 257.424C222.149 257.424 203.838 239.113 203.838 216.526C203.838 193.939 222.149 175.629 244.736 175.629C267.323 175.629 285.633 193.939 285.633 216.526ZM244.736 254.802C265.875 254.802 283.012 237.666 283.012 216.526C283.012 195.387 265.875 178.25 244.736 178.25C223.596 178.25 206.46 195.387 206.46 216.526C206.46 237.666 223.596 254.802 244.736 254.802Z" fill="#0D8335"/>
</g>
<path d="M239.11 221.026L255.705 204.432C256.221 203.916 256.877 203.658 257.674 203.658C258.471 203.658 259.127 203.916 259.643 204.432C260.158 204.947 260.416 205.604 260.416 206.401C260.416 207.197 260.158 207.854 259.643 208.369L241.079 226.933C240.517 227.495 239.86 227.777 239.11 227.777C238.36 227.777 237.704 227.495 237.142 226.933L229.829 219.62C229.313 219.104 229.055 218.448 229.055 217.651C229.055 216.854 229.313 216.198 229.829 215.682C230.344 215.167 231.001 214.909 231.798 214.909C232.594 214.909 233.251 215.167 233.766 215.682L239.11 221.026Z" fill="#F7F9F8"/>
</g>
<defs>
<filter id="filter0_b_2811_4503" x="-9.08496" y="-10" width="355" height="324" filterUnits="userSpaceOnUse" color-interpolation-filters="sRGB">
<feFlood flood-opacity="0" result="BackgroundImageFix"/>
<feGaussianBlur in="BackgroundImageFix" stdDeviation="5"/>
<feComposite in2="SourceAlpha" operator="in" result="effect1_backgroundBlur_2811_4503"/>
<feBlend mode="normal" in="SourceGraphic" in2="effect1_backgroundBlur_2811_4503" result="shape"/>
</filter>
<filter id="filter1_d_2811_4503" x="96.4199" y="80.459" width="94.2393" height="93.9747" filterUnits="userSpaceOnUse" color-interpolation-filters="sRGB">
<feFlood flood-opacity="0" result="BackgroundImageFix"/>
<feColorMatrix in="SourceAlpha" type="matrix" values="0 0 0 0 0 0 0 0 0 0 0 0 0 0 0 0 0 0 127 0" result="hardAlpha"/>
<feOffset/>
<feGaussianBlur stdDeviation="8.28176"/>
<feComposite in2="hardAlpha" operator="out"/>
<feColorMatrix type="matrix" values="0 0 0 0 0.133333 0 0 0 0 0.713726 0 0 0 0 0.568627 0 0 0 0.5 0"/>
<feBlend mode="normal" in2="BackgroundImageFix" result="effect1_dropShadow_2811_4503"/>
<feBlend mode="normal" in="SourceGraphic" in2="effect1_dropShadow_2811_4503" result="shape"/>
</filter>
<filter id="filter2_d_2811_4503" x="190.559" y="162.349" width="108.354" height="108.354" filterUnits="userSpaceOnUse" color-interpolation-filters="sRGB">
<feFlood flood-opacity="0" result="BackgroundImageFix"/>
<feColorMatrix in="SourceAlpha" type="matrix" values="0 0 0 0 0 0 0 0 0 0 0 0 0 0 0 0 0 0 127 0" result="hardAlpha"/>
<feOffset/>
<feGaussianBlur stdDeviation="9.03077"/>
<feComposite in2="hardAlpha" operator="out"/>
<feColorMatrix type="matrix" values="0 0 0 0 0.133333 0 0 0 0 0.713726 0 0 0 0 0.568627 0 0 0 0.5 0"/>
<feBlend mode="normal" in2="BackgroundImageFix" result="effect1_dropShadow_2811_4503"/>
<feBlend mode="normal" in="SourceGraphic" in2="effect1_dropShadow_2811_4503" result="shape"/>
</filter>
<filter id="filter3_d_2811_4503" x="185.777" y="157.567" width="117.918" height="117.918" filterUnits="userSpaceOnUse" color-interpolation-filters="sRGB">
<feFlood flood-opacity="0" result="BackgroundImageFix"/>
<feColorMatrix in="SourceAlpha" type="matrix" values="0 0 0 0 0 0 0 0 0 0 0 0 0 0 0 0 0 0 127 0" result="hardAlpha"/>
<feOffset/>
<feGaussianBlur stdDeviation="9.03077"/>
<feComposite in2="hardAlpha" operator="out"/>
<feColorMatrix type="matrix" values="0 0 0 0 0.133333 0 0 0 0 0.713726 0 0 0 0 0.568627 0 0 0 0.5 0"/>
<feBlend mode="normal" in2="BackgroundImageFix" result="effect1_dropShadow_2811_4503"/>
<feBlend mode="normal" in="SourceGraphic" in2="effect1_dropShadow_2811_4503" result="shape"/>
</filter>
</defs>
</svg>
