<svg width="365" height="271" viewBox="0 0 365 271" fill="none" xmlns="http://www.w3.org/2000/svg">
<line opacity="0.3" x1="23.0223" y1="0.694916" x2="23.0223" y2="270.305" stroke="black" stroke-width="0.870788" stroke-linecap="round"/>
<line opacity="0.3" x1="102.917" y1="0.694916" x2="102.917" y2="270.305" stroke="black" stroke-width="0.870788" stroke-linecap="round" stroke-dasharray="19.16 19.16"/>
<line opacity="0.3" x1="182.812" y1="0.694916" x2="182.812" y2="270.305" stroke="black" stroke-width="0.870788" stroke-linecap="round" stroke-dasharray="19.16 19.16"/>
<line opacity="0.3" x1="262.707" y1="0.694916" x2="262.707" y2="270.305" stroke="black" stroke-width="0.870788" stroke-linecap="round" stroke-dasharray="19.16 19.16"/>
<line opacity="0.3" x1="342.602" y1="0.694916" x2="342.602" y2="270.305" stroke="black" stroke-width="0.870788" stroke-linecap="round" stroke-dasharray="19.16 19.16"/>
<g filter="url(#filter0_d_1790_7823)">
<path d="M22.6453 197.458L25.7858 192.375C28.9263 187.292 35.2074 177.126 41.4884 177.154C47.7694 177.182 54.0505 187.405 60.3315 180.529C66.6126 173.652 72.8936 149.676 79.1747 146.86C85.4557 144.045 91.7367 162.39 98.0178 168.276C104.299 174.162 110.58 167.589 116.861 161.546C123.142 155.504 129.423 149.991 135.704 150.198C141.985 150.404 148.266 156.329 154.547 161.844C160.828 167.359 167.109 172.464 173.39 168.764C179.671 165.064 185.952 152.557 192.233 146.578C198.514 140.598 204.796 141.144 211.077 145.756C217.358 150.367 223.639 159.044 229.92 159.382C236.201 159.721 242.482 151.722 248.763 145.356C255.044 138.99 261.325 134.258 267.606 132.115C273.887 129.972 280.168 130.417 286.449 121.306C292.73 112.196 299.011 93.5299 305.292 93.5968C311.573 93.6638 317.854 112.464 324.135 112.299C330.416 112.135 336.697 93.0056 339.838 83.4411L342.978 73.8765" stroke="#118B64" stroke-width="5.22473" stroke-linecap="round"/>
</g>
<path d="M343.037 269.74H22.5869V271.74H343.037V269.74Z" fill="#B3B3B3" mask="url(#path-1-inside-1_1790_7823)"/>
<defs>
<filter id="filter0_d_1790_7823" x="0.87525" y="52.1061" width="363.874" height="167.122" filterUnits="userSpaceOnUse" color-interpolation-filters="sRGB">
<feFlood flood-opacity="0" result="BackgroundImageFix"/>
<feColorMatrix in="SourceAlpha" type="matrix" values="0 0 0 0 0 0 0 0 0 0 0 0 0 0 0 0 0 0 127 0" result="hardAlpha"/>
<feOffset/>
<feGaussianBlur stdDeviation="9.57867"/>
<feComposite in2="hardAlpha" operator="out"/>
<feColorMatrix type="matrix" values="0 0 0 0 0.133333 0 0 0 0 0.713726 0 0 0 0 0.568627 0 0 0 0.5 0"/>
<feBlend mode="normal" in2="BackgroundImageFix" result="effect1_dropShadow_1790_7823"/>
<feBlend mode="normal" in="SourceGraphic" in2="effect1_dropShadow_1790_7823" result="shape"/>
</filter>
</defs>
</svg>
