<svg width="335" height="304" viewBox="0 0 335 304" fill="none" xmlns="http://www.w3.org/2000/svg">
<g filter="url(#filter0_b_249_5158)">
<rect width="335" height="304" rx="32.3741" fill="#154E77" fill-opacity="0.1"/>
<path d="M58.0448 56.3995H71.2048V122.199H56.1648V72.2855L44.5088 75.4815L40.8428 62.6035L58.0448 56.3995ZM127.071 114.209C122.371 120.413 115.822 123.515 107.425 123.515C99.0276 123.515 92.4476 120.413 87.6849 114.209C82.9849 107.943 80.6349 99.6395 80.6349 89.2995C80.6349 78.9595 82.9849 70.6875 87.6849 64.4835C92.4476 58.2168 99.0276 55.0835 107.425 55.0835C115.822 55.0835 122.371 58.2168 127.071 64.4835C131.834 70.6875 134.215 78.9595 134.215 89.2995C134.215 99.6395 131.834 107.943 127.071 114.209ZM95.6749 89.2995C95.6749 102.334 99.5916 108.851 107.425 108.851C115.258 108.851 119.175 102.334 119.175 89.2995C119.175 76.2648 115.258 69.7475 107.425 69.7475C99.5916 69.7475 95.6749 76.2648 95.6749 89.2995Z" fill="#0D8335"/>
<g filter="url(#filter1_d_249_5158)">
<path d="M124.548 157.327C122.724 157.345 121.903 156.651 121.501 154.903L121.479 154.793C120.514 149.904 123.318 144.156 125.691 139.692C130.348 130.896 136.328 124.465 142.969 117.332C143.443 116.839 143.74 116.324 143.962 115.709C144.881 112.845 146.175 109.279 146.885 106.513C146.83 106.524 146.764 106.48 146.698 106.436C146.478 106.765 146.191 107.05 145.971 107.379C144.351 109.582 139.47 115.797 137.192 117.273C136.84 117.514 136.412 117.656 136.082 117.721C134.983 117.938 134.117 117.309 133.868 116.046L133.803 115.716C133.07 110.267 137.176 102.15 139.044 101.782C139.264 101.738 139.44 101.761 139.582 101.904C139.79 102.091 139.889 102.3 139.932 102.52C140.073 103.234 139.599 104.013 139.201 104.89C137.843 107.841 136.901 110.881 136.278 114.086C136.189 114.503 136.045 114.931 136.132 115.371C136.175 115.591 136.263 115.744 136.361 115.953C136.955 115.494 137.516 115.155 137.99 114.662C142.723 110.303 144.918 106.959 148.62 102.004C148.753 101.807 148.874 101.554 149.072 101.401C149.226 101.314 149.38 101.226 149.49 101.205C149.82 101.14 150.028 101.327 150.093 101.656L150.136 101.876C150.179 102.381 147.476 111.248 147.111 112.576L147.143 112.741C147.154 112.796 147.176 112.906 147.153 113.082C152.207 108.032 157.644 103.762 163.638 100.296C163.704 100.34 163.78 100.439 163.846 100.484C163.714 100.681 163.582 100.878 163.383 101.032C162.382 101.743 161.37 102.399 160.358 103.056C155.374 106.436 150.916 110.456 146.753 114.816C146.379 115.232 146.092 115.803 145.915 116.351C144.785 120.17 143.765 123.968 142.624 127.732C139.989 136.072 136.284 145.936 131.093 153.182C129.803 155.034 127.58 156.786 125.383 157.22C125.108 157.274 124.833 157.328 124.548 157.327ZM123.187 148.12C122.512 150.194 122.232 152.247 122.644 154.335L122.688 154.555C122.948 155.874 123.529 156.215 124.968 155.989L125.133 155.956C126.726 155.642 128.41 154.339 129.369 153.122C132.939 148.365 135.358 143.264 137.283 137.69C138.854 133.213 142.064 123.447 142.899 119.001C141.027 120.798 138.659 123.548 136.941 125.543C131.356 131.953 125.855 139.945 123.187 148.12ZM167.143 111.135L166.813 111.2C163.956 111.764 162.38 109.849 161.946 107.651C161.772 106.772 161.764 105.86 161.942 105.026C162.765 100.811 165.014 97.4562 168.645 95.0273C169.14 94.6442 169.623 94.4917 170.063 94.405C171.217 94.1773 171.984 94.8821 172.168 95.8161C172.276 96.3655 172.22 96.9475 171.977 97.452C171.579 98.3296 171.193 99.2621 170.521 99.9084C169.189 101.256 167.67 102.526 166.206 103.785C165.766 104.157 165.249 104.431 164.699 104.539C164.37 104.604 164.029 104.614 163.623 104.58C163.159 105.699 163.079 106.742 163.253 107.621C163.6 109.38 165.102 110.339 167.354 109.894C167.959 109.775 168.552 109.601 169.179 109.306C174.303 106.925 182.15 100.41 185.741 96.3342C185.829 96.2026 185.928 96.126 186.038 96.1043C186.093 96.0934 186.159 96.1375 186.181 96.2474C186.191 96.3024 186.158 96.4231 186.026 96.6204C182.753 100.862 172.747 109.743 167.143 111.135ZM169.442 96.7536C166.967 98.0981 165.578 100.313 164.253 102.858C166.475 101.677 169.438 98.1814 169.442 96.7536ZM186.168 102.757C186.014 102.844 185.904 102.866 185.739 102.899C185.08 103.029 184.268 102.675 184.116 101.906C184.084 101.741 184.106 101.566 184.129 101.39C184.218 100.687 184.319 100.04 184.463 99.3261C184.985 97.3396 185.934 95.497 187.201 93.8199C187.929 92.8773 189.006 92.265 190.05 92.059C191.314 91.8097 192.631 92.1205 193.365 92.9461C193.43 92.9902 193.43 92.9902 193.485 92.9794C193.705 92.936 193.915 92.5521 194.179 92.443C194.234 92.4322 194.333 92.3555 194.388 92.3447C194.827 92.258 195.144 92.7091 195.242 93.2035C195.275 93.3683 195.307 93.5332 195.274 93.6539C195.128 94.9385 193.557 99.4153 194.001 101.668C194.175 102.547 194.679 103.075 195.722 102.869L195.777 102.859C203.249 101.384 211.292 91.5204 212.051 91.0281L212.106 91.0173C212.161 91.0065 212.161 91.0065 212.172 91.0614C212.172 91.0614 212.182 91.1163 212.138 91.1821C209.371 95.3813 201.138 102.543 196.291 103.727L195.962 103.793C193.819 104.215 192.845 103.038 192.53 101.444C192.237 99.9611 192.451 98.1495 192.817 96.8215C191.143 98.4646 187.917 101.784 186.168 102.757ZM187.002 98.8823C186.957 98.9481 186.835 99.4859 186.889 99.7607C186.922 99.9255 186.988 99.9696 187.043 99.9587C187.098 99.9479 187.197 99.8713 187.296 99.7946C189.277 97.9766 190.389 96.9581 191.943 94.7107C191.505 94.2263 191.022 94.0933 190.583 94.18C190.363 94.2234 190.099 94.3325 189.857 94.5516C188.768 95.3944 187.389 97.6643 187.002 98.8823ZM213.125 109.31C212.862 108.848 212.699 108.31 212.58 107.705C211.658 103.035 215.488 95.8296 215.647 93.4578C215.626 93.3479 215.659 93.2272 215.637 93.1173C215.345 91.6339 212.235 92.3618 210.677 91.6988C210.348 91.4783 210.096 91.0713 209.988 90.5219C209.793 89.533 210.038 88.1718 210.755 86.8887C211.02 86.494 211.427 86.2424 211.866 86.1557C212.8 85.9714 213.864 86.4464 214.07 87.4902C214.168 87.9847 214.111 88.5666 213.681 89.2794C215.734 89.5592 217.732 89.8499 218.144 91.9376C218.209 92.2673 218.275 92.5969 218.241 93.0032C218.258 94.8263 212.975 103.346 213.908 108.071L213.973 108.401C214.321 109.588 215.11 110.402 216.493 110.472C216.724 110.484 217.01 110.484 217.284 110.43C223.712 109.162 236.074 89.3698 239.883 86.1067C240.224 85.8111 240.576 85.5704 240.917 85.2747C241.049 85.3629 241.126 85.4619 241.191 85.506C241.015 85.7692 240.849 86.0872 240.596 86.2513C234.718 91.7495 224.128 109.822 217.205 111.188C216.931 111.242 216.711 111.285 216.48 111.274C214.602 111.302 213.748 110.443 213.125 109.31ZM246.266 110.533C244.946 111.364 243.737 111.888 242.638 112.105C240.056 112.615 238.225 111.435 237.759 109.072C237.499 107.754 237.668 106.008 238.365 104.044C240.876 96.813 247.81 90.8782 253.992 87.2039C253.347 86.2468 242.586 89.5689 240.816 86.0938C240.718 85.8849 240.608 85.6211 240.565 85.4013C239.676 80.8962 247.805 71.7576 251.65 70.9987C251.815 70.9661 251.991 70.9885 252.101 70.9669C253.287 70.904 254.867 71.6768 255.413 72.7106C255.49 72.8096 255.511 72.9195 255.544 73.0843C255.706 73.9084 255.318 75.4121 254.439 75.5855C253.945 75.6831 253.385 75.451 252.696 74.5597C252.455 74.2076 252.038 74.1187 251.488 74.2271C248.467 74.8234 241.859 81.8353 242.445 84.8021L242.466 84.912C242.836 86.2088 245.67 86.1063 248.471 85.8389C251.317 85.5057 254.129 85.0077 255.312 86.3726C258.733 84.3276 267.364 80.6267 271.167 79.3625C271.431 79.2533 271.651 79.21 271.87 79.1666C272.255 79.0907 272.485 79.1023 272.507 79.2121C272.529 79.322 272.331 79.4753 271.748 79.7044C268.45 80.926 259.412 84.8785 256.244 87.0449C256.145 87.1216 256.156 87.1765 256.177 87.2864C256.242 87.616 256.91 88.3975 257.225 89.9908C257.398 90.8698 257.461 92.0561 257.194 93.593C256.013 100.048 251.789 106.989 246.266 110.533ZM239.265 104.266C238.568 106.23 238.41 107.745 238.627 108.844C238.985 110.657 240.378 111.353 242.246 110.984C243.125 110.81 244.18 110.374 245.247 109.707C250.846 106.262 255.424 98.2231 256.012 91.657C256.08 91.13 256.026 90.5698 255.929 90.0753C255.788 89.3611 255.482 88.6794 254.901 88.0519C249.446 91.0691 241.411 98.0773 239.265 104.266Z" fill="#0D8335"/>
</g>
<path opacity="0.6" d="M48.3918 194.893C47.4684 195.804 46.3471 196.26 45.0279 196.26C43.7087 196.26 42.5874 195.804 41.664 194.893C40.7526 193.981 40.2969 192.86 40.2969 191.529C40.2969 190.198 40.7526 189.076 41.664 188.165C42.5874 187.253 43.7087 186.798 45.0279 186.798C46.3471 186.798 47.4684 187.253 48.3918 188.165C49.3152 189.076 49.7769 190.198 49.7769 191.529C49.7769 192.86 49.3152 193.981 48.3918 194.893ZM45.0279 194.731C45.9273 194.731 46.6829 194.425 47.2945 193.813C47.9061 193.202 48.2119 192.44 48.2119 191.529C48.2119 190.617 47.9061 189.856 47.2945 189.244C46.6829 188.632 45.9273 188.327 45.0279 188.327C44.1405 188.327 43.3909 188.632 42.7793 189.244C42.1677 189.856 41.8619 190.617 41.8619 191.529C41.8619 192.44 42.1677 193.202 42.7793 193.813C43.3909 194.425 44.1405 194.731 45.0279 194.731ZM55.9113 184.711C54.3282 184.579 53.5367 185.263 53.5367 186.762V187.031H55.9113V188.543H53.5367V196.026H51.9717V188.543H50.5326V187.031H51.9717V186.762C51.9717 185.55 52.3075 184.633 52.9791 184.009C53.6627 183.386 54.64 183.116 55.9113 183.2V184.711ZM67.8062 187.031H69.3712V196.026H67.8062V194.731C67.1706 195.75 66.1992 196.26 64.892 196.26C63.8367 196.26 62.9912 195.93 62.3556 195.27C61.72 194.599 61.4022 193.693 61.4022 192.554V187.031H62.9672V192.464C62.9672 193.196 63.1651 193.765 63.5608 194.173C63.9566 194.569 64.5023 194.767 65.1978 194.767C65.9773 194.767 66.6069 194.527 67.0866 194.047C67.5663 193.555 67.8062 192.806 67.8062 191.799V187.031ZM76.2331 186.798C77.2884 186.798 78.1339 187.133 78.7695 187.805C79.4051 188.465 79.7229 189.364 79.7229 190.503V196.026H78.1579V190.593C78.1579 189.862 77.96 189.298 77.5643 188.902C77.1685 188.495 76.6229 188.291 75.9273 188.291C75.1478 188.291 74.5182 188.537 74.0385 189.028C73.5588 189.508 73.3189 190.251 73.3189 191.259V196.026H71.7539V187.031H73.3189V188.327C73.9545 187.307 74.9259 186.798 76.2331 186.798ZM92.3801 187.031H94.0171L91.2289 196.026H89.6279L87.5232 189.37L85.4185 196.026H83.8175L81.0292 187.031H82.6662L84.645 193.867L86.7676 187.031H88.2787L90.4014 193.885L92.3801 187.031ZM102.724 187.031H104.289V196.026H102.724V194.479C101.944 195.666 100.811 196.26 99.3238 196.26C98.0646 196.26 96.9913 195.804 96.1038 194.893C95.2164 193.969 94.7726 192.848 94.7726 191.529C94.7726 190.21 95.2164 189.094 96.1038 188.183C96.9913 187.259 98.0646 186.798 99.3238 186.798C100.811 186.798 101.944 187.391 102.724 188.579V187.031ZM99.5217 194.749C100.433 194.749 101.195 194.443 101.806 193.831C102.418 193.208 102.724 192.44 102.724 191.529C102.724 190.617 102.418 189.856 101.806 189.244C101.195 188.62 100.433 188.309 99.5217 188.309C98.6222 188.309 97.8667 188.62 97.2551 189.244C96.6435 189.856 96.3377 190.617 96.3377 191.529C96.3377 192.44 96.6435 193.208 97.2551 193.831C97.8667 194.443 98.6222 194.749 99.5217 194.749ZM112.956 187.031H114.647L111.049 196.026H109.214L105.617 187.031H107.307L110.132 194.353L112.956 187.031ZM116.716 192.248C116.872 193.052 117.238 193.675 117.814 194.119C118.401 194.563 119.121 194.785 119.972 194.785C121.16 194.785 122.023 194.347 122.563 193.471L123.894 194.227C123.018 195.582 121.699 196.26 119.936 196.26C118.509 196.26 117.346 195.816 116.447 194.929C115.559 194.029 115.115 192.896 115.115 191.529C115.115 190.174 115.553 189.046 116.429 188.147C117.304 187.247 118.437 186.798 119.828 186.798C121.148 186.798 122.221 187.265 123.048 188.201C123.888 189.124 124.308 190.239 124.308 191.547C124.308 191.775 124.29 192.008 124.254 192.248H116.716ZM119.828 188.273C118.989 188.273 118.293 188.513 117.742 188.992C117.19 189.46 116.848 190.09 116.716 190.881H122.725C122.593 190.03 122.257 189.382 121.717 188.938C121.178 188.495 120.548 188.273 119.828 188.273ZM127.672 188.543C128.187 187.427 129.123 186.87 130.478 186.87V188.507C129.71 188.471 129.051 188.674 128.499 189.118C127.948 189.562 127.672 190.275 127.672 191.259V196.026H126.107V187.031H127.672V188.543ZM132.801 185.395C132.501 185.395 132.249 185.293 132.045 185.089C131.841 184.885 131.739 184.639 131.739 184.351C131.739 184.063 131.841 183.817 132.045 183.614C132.249 183.398 132.501 183.29 132.801 183.29C133.089 183.29 133.334 183.398 133.538 183.614C133.742 183.817 133.844 184.063 133.844 184.351C133.844 184.639 133.742 184.885 133.538 185.089C133.334 185.293 133.089 185.395 132.801 185.395ZM132.009 196.026V187.031H133.574V196.026H132.009ZM140.441 186.798C141.496 186.798 142.342 187.133 142.978 187.805C143.613 188.465 143.931 189.364 143.931 190.503V196.026H142.366V190.593C142.366 189.862 142.168 189.298 141.772 188.902C141.377 188.495 140.831 188.291 140.135 188.291C139.356 188.291 138.726 188.537 138.246 189.028C137.767 189.508 137.527 190.251 137.527 191.259V196.026H135.962V187.031H137.527V188.327C138.163 187.307 139.134 186.798 140.441 186.798ZM153.581 187.031H155.128V195.648C155.128 196.979 154.678 198.011 153.779 198.742C152.88 199.486 151.8 199.857 150.541 199.857C149.534 199.857 148.664 199.666 147.933 199.282C147.201 198.91 146.649 198.37 146.278 197.663L147.645 196.889C148.136 197.897 149.114 198.4 150.577 198.4C151.512 198.4 152.244 198.155 152.772 197.663C153.311 197.171 153.581 196.5 153.581 195.648V194.371C152.79 195.57 151.662 196.17 150.199 196.17C148.916 196.17 147.831 195.714 146.943 194.803C146.056 193.891 145.612 192.782 145.612 191.475C145.612 190.168 146.056 189.064 146.943 188.165C147.831 187.253 148.916 186.798 150.199 186.798C151.674 186.798 152.802 187.391 153.581 188.579V187.031ZM148.094 193.759C148.706 194.371 149.468 194.677 150.379 194.677C151.29 194.677 152.052 194.371 152.664 193.759C153.275 193.148 153.581 192.386 153.581 191.475C153.581 190.575 153.275 189.82 152.664 189.208C152.052 188.597 151.29 188.291 150.379 188.291C149.468 188.291 148.706 188.597 148.094 189.208C147.483 189.82 147.177 190.575 147.177 191.475C147.177 192.386 147.483 193.148 148.094 193.759ZM45.0279 221.26C43.6727 221.26 42.5455 220.81 41.646 219.911C40.7466 218.999 40.2969 217.872 40.2969 216.529C40.2969 215.186 40.7466 214.064 41.646 213.165C42.5455 212.253 43.6727 211.798 45.0279 211.798C45.9154 211.798 46.7129 212.013 47.4204 212.445C48.128 212.865 48.6556 213.435 49.0034 214.154L47.6902 214.91C47.4624 214.43 47.1086 214.046 46.6289 213.758C46.1612 213.471 45.6275 213.327 45.0279 213.327C44.1285 213.327 43.3729 213.632 42.7613 214.244C42.1617 214.856 41.8619 215.617 41.8619 216.529C41.8619 217.428 42.1617 218.184 42.7613 218.795C43.3729 219.407 44.1285 219.713 45.0279 219.713C45.6275 219.713 46.1672 219.575 46.6469 219.299C47.1266 219.011 47.4924 218.627 47.7442 218.148L49.0754 218.921C48.6916 219.629 48.14 220.198 47.4204 220.63C46.7009 221.05 45.9034 221.26 45.0279 221.26ZM58.0889 219.893C57.1655 220.804 56.0442 221.26 54.725 221.26C53.4058 221.26 52.2845 220.804 51.3611 219.893C50.4496 218.981 49.9939 217.86 49.9939 216.529C49.9939 215.198 50.4496 214.076 51.3611 213.165C52.2845 212.253 53.4058 211.798 54.725 211.798C56.0442 211.798 57.1655 212.253 58.0889 213.165C59.0123 214.076 59.474 215.198 59.474 216.529C59.474 217.86 59.0123 218.981 58.0889 219.893ZM54.725 219.731C55.6244 219.731 56.3799 219.425 56.9916 218.813C57.6032 218.202 57.909 217.44 57.909 216.529C57.909 215.617 57.6032 214.856 56.9916 214.244C56.3799 213.632 55.6244 213.327 54.725 213.327C53.8375 213.327 53.088 213.632 52.4764 214.244C51.8648 214.856 51.559 215.617 51.559 216.529C51.559 217.44 51.8648 218.202 52.4764 218.813C53.088 219.425 53.8375 219.731 54.725 219.731ZM71.0329 211.798C72.0403 211.798 72.8558 212.127 73.4794 212.787C74.103 213.435 74.4148 214.316 74.4148 215.431V221.026H72.8498V215.485C72.8498 214.79 72.6699 214.25 72.3101 213.866C71.9504 213.483 71.4707 213.291 70.871 213.291C70.1995 213.291 69.6598 213.519 69.252 213.974C68.8563 214.418 68.6584 215.102 68.6584 216.025V221.026H67.0934V215.485C67.0934 214.79 66.9195 214.25 66.5717 213.866C66.2359 213.483 65.7742 213.291 65.1866 213.291C64.527 213.291 63.9753 213.519 63.5316 213.974C63.0999 214.43 62.884 215.114 62.884 216.025V221.026H61.319V212.031H62.884V213.237C63.4956 212.277 64.3891 211.798 65.5643 211.798C66.7756 211.798 67.657 212.307 68.2087 213.327C68.8323 212.307 69.7737 211.798 71.0329 211.798ZM86.2988 211.798C87.3062 211.798 88.1217 212.127 88.7453 212.787C89.3689 213.435 89.6807 214.316 89.6807 215.431V221.026H88.1157V215.485C88.1157 214.79 87.9358 214.25 87.576 213.866C87.2162 213.483 86.7365 213.291 86.1369 213.291C85.4653 213.291 84.9257 213.519 84.5179 213.974C84.1222 214.418 83.9243 215.102 83.9243 216.025V221.026H82.3593V215.485C82.3593 214.79 82.1854 214.25 81.8376 213.866C81.5018 213.483 81.0401 213.291 80.4525 213.291C79.7929 213.291 79.2412 213.519 78.7975 213.974C78.3658 214.43 78.1499 215.114 78.1499 216.025V221.026H76.5849V212.031H78.1499V213.237C78.7615 212.277 79.655 211.798 80.8302 211.798C82.0415 211.798 82.9229 212.307 83.4746 213.327C84.0982 212.307 85.0396 211.798 86.2988 211.798ZM92.6422 210.395C92.3424 210.395 92.0906 210.293 91.8867 210.089C91.6828 209.885 91.5809 209.639 91.5809 209.351C91.5809 209.063 91.6828 208.817 91.8867 208.614C92.0906 208.398 92.3424 208.29 92.6422 208.29C92.9301 208.29 93.1759 208.398 93.3798 208.614C93.5837 208.817 93.6856 209.063 93.6856 209.351C93.6856 209.639 93.5837 209.885 93.3798 210.089C93.1759 210.293 92.9301 210.395 92.6422 210.395ZM91.8507 221.026V212.031H93.4158V221.026H91.8507ZM100.696 213.543H98.3038V218.418C98.3038 218.861 98.3877 219.179 98.5556 219.371C98.7355 219.551 99.0054 219.647 99.3651 219.659C99.7249 219.659 100.169 219.647 100.696 219.623V221.026C99.3291 221.206 98.3278 221.098 97.6922 220.702C97.0566 220.294 96.7388 219.533 96.7388 218.418V213.543H94.9579V212.031H96.7388V209.981L98.3038 209.513V212.031H100.696V213.543ZM112.316 211.798C113.323 211.798 114.139 212.127 114.762 212.787C115.386 213.435 115.698 214.316 115.698 215.431V221.026H114.133V215.485C114.133 214.79 113.953 214.25 113.593 213.866C113.233 213.483 112.754 213.291 112.154 213.291C111.482 213.291 110.943 213.519 110.535 213.974C110.139 214.418 109.941 215.102 109.941 216.025V221.026H108.376V215.485C108.376 214.79 108.202 214.25 107.855 213.866C107.519 213.483 107.057 213.291 106.469 213.291C105.81 213.291 105.258 213.519 104.814 213.974C104.383 214.43 104.167 215.114 104.167 216.025V221.026H102.602V212.031H104.167V213.237C104.778 212.277 105.672 211.798 106.847 211.798C108.058 211.798 108.94 212.307 109.492 213.327C110.115 212.307 111.057 211.798 112.316 211.798ZM118.965 217.248C119.121 218.052 119.487 218.675 120.062 219.119C120.65 219.563 121.37 219.785 122.221 219.785C123.408 219.785 124.272 219.347 124.811 218.471L126.143 219.227C125.267 220.582 123.948 221.26 122.185 221.26C120.758 221.26 119.595 220.816 118.695 219.929C117.808 219.029 117.364 217.896 117.364 216.529C117.364 215.174 117.802 214.046 118.677 213.147C119.553 212.247 120.686 211.798 122.077 211.798C123.396 211.798 124.47 212.265 125.297 213.201C126.137 214.124 126.556 215.239 126.556 216.547C126.556 216.775 126.538 217.008 126.502 217.248H118.965ZM122.077 213.273C121.238 213.273 120.542 213.513 119.99 213.992C119.439 214.46 119.097 215.09 118.965 215.881H124.973C124.841 215.03 124.506 214.382 123.966 213.938C123.426 213.495 122.797 213.273 122.077 213.273ZM132.835 211.798C133.89 211.798 134.735 212.133 135.371 212.805C136.007 213.465 136.324 214.364 136.324 215.503V221.026H134.759V215.593C134.759 214.862 134.561 214.298 134.166 213.902C133.77 213.495 133.224 213.291 132.529 213.291C131.749 213.291 131.12 213.537 130.64 214.028C130.16 214.508 129.92 215.251 129.92 216.259V221.026H128.355V212.031H129.92V213.327C130.556 212.307 131.527 211.798 132.835 211.798ZM143.402 213.543H141.01V218.418C141.01 218.861 141.094 219.179 141.261 219.371C141.441 219.551 141.711 219.647 142.071 219.659C142.431 219.659 142.874 219.647 143.402 219.623V221.026C142.035 221.206 141.034 221.098 140.398 220.702C139.762 220.294 139.445 219.533 139.445 218.418V213.543H137.664V212.031H139.445V209.981L141.01 209.513V212.031H143.402V213.543ZM45.6935 238.543H43.301V243.418C43.301 243.861 43.3849 244.179 43.5528 244.371C43.7327 244.551 44.0025 244.647 44.3623 244.659C44.7221 244.659 45.1658 244.647 45.6935 244.623V246.026C44.3263 246.206 43.325 246.098 42.6894 245.702C42.0538 245.294 41.736 244.533 41.736 243.418V238.543H39.9551V237.031H41.736V234.981L43.301 234.513V237.031H45.6935V238.543ZM54.6809 244.893C53.7574 245.804 52.6361 246.26 51.317 246.26C49.9978 246.26 48.8765 245.804 47.953 244.893C47.0416 243.981 46.5859 242.86 46.5859 241.529C46.5859 240.198 47.0416 239.076 47.953 238.165C48.8765 237.253 49.9978 236.798 51.317 236.798C52.6361 236.798 53.7574 237.253 54.6809 238.165C55.6043 239.076 56.066 240.198 56.066 241.529C56.066 242.86 55.6043 243.981 54.6809 244.893ZM51.317 244.731C52.2164 244.731 52.9719 244.425 53.5835 243.813C54.1952 243.202 54.501 242.44 54.501 241.529C54.501 240.617 54.1952 239.856 53.5835 239.244C52.9719 238.632 52.2164 238.327 51.317 238.327C50.4295 238.327 49.68 238.632 49.0684 239.244C48.4567 239.856 48.1509 240.617 48.1509 241.529C48.1509 242.44 48.4567 243.202 49.0684 243.813C49.68 244.425 50.4295 244.731 51.317 244.731ZM66.6355 246.26C65.2804 246.26 64.1531 245.81 63.2536 244.911C62.3542 243.999 61.9045 242.872 61.9045 241.529C61.9045 240.186 62.3542 239.064 63.2536 238.165C64.1531 237.253 65.2804 236.798 66.6355 236.798C67.523 236.798 68.3205 237.013 69.028 237.445C69.7356 237.865 70.2633 238.435 70.611 239.154L69.2979 239.91C69.07 239.43 68.7162 239.046 68.2365 238.758C67.7688 238.471 67.2351 238.327 66.6355 238.327C65.7361 238.327 64.9806 238.632 64.3689 239.244C63.7693 239.856 63.4695 240.617 63.4695 241.529C63.4695 242.428 63.7693 243.184 64.3689 243.795C64.9806 244.407 65.7361 244.713 66.6355 244.713C67.2351 244.713 67.7748 244.575 68.2545 244.299C68.7342 244.011 69.1 243.627 69.3518 243.148L70.683 243.921C70.2992 244.629 69.7476 245.198 69.028 245.63C68.3085 246.05 67.511 246.26 66.6355 246.26ZM72.2282 246.026V232.894H73.7932V246.026H72.2282ZM76.9723 235.395C76.6725 235.395 76.4207 235.293 76.2168 235.089C76.0129 234.885 75.911 234.639 75.911 234.351C75.911 234.063 76.0129 233.817 76.2168 233.614C76.4207 233.398 76.6725 233.29 76.9723 233.29C77.2601 233.29 77.506 233.398 77.7099 233.614C77.9137 233.817 78.0157 234.063 78.0157 234.351C78.0157 234.639 77.9137 234.885 77.7099 235.089C77.506 235.293 77.2601 235.395 76.9723 235.395ZM76.1808 246.026V237.031H77.7458V246.026H76.1808ZM81.2307 242.248C81.3866 243.052 81.7524 243.675 82.3281 244.119C82.9157 244.563 83.6352 244.785 84.4867 244.785C85.674 244.785 86.5374 244.347 87.0771 243.471L88.4083 244.227C87.5328 245.582 86.2136 246.26 84.4507 246.26C83.0236 246.26 81.8604 245.816 80.9609 244.929C80.0735 244.029 79.6297 242.896 79.6297 241.529C79.6297 240.174 80.0675 239.046 80.9429 238.147C81.8184 237.247 82.9517 236.798 84.3428 236.798C85.662 236.798 86.7353 237.265 87.5628 238.201C88.4023 239.124 88.822 240.239 88.822 241.547C88.822 241.775 88.804 242.008 88.768 242.248H81.2307ZM84.3428 238.273C83.5033 238.273 82.8078 238.513 82.2561 238.992C81.7045 239.46 81.3627 240.09 81.2307 240.881H87.239C87.1071 240.03 86.7713 239.382 86.2316 238.938C85.692 238.495 85.0624 238.273 84.3428 238.273ZM95.1002 236.798C96.1556 236.798 97.0011 237.133 97.6367 237.805C98.2723 238.465 98.5901 239.364 98.5901 240.503V246.026H97.025V240.593C97.025 239.862 96.8272 239.298 96.4314 238.902C96.0357 238.495 95.49 238.291 94.7944 238.291C94.0149 238.291 93.3853 238.537 92.9056 239.028C92.4259 239.508 92.1861 240.251 92.1861 241.259V246.026H90.621V237.031H92.1861V238.327C92.8217 237.307 93.7931 236.798 95.1002 236.798ZM105.668 238.543H103.275V243.418C103.275 243.861 103.359 244.179 103.527 244.371C103.707 244.551 103.977 244.647 104.337 244.659C104.696 244.659 105.14 244.647 105.668 244.623V246.026C104.301 246.206 103.299 246.098 102.664 245.702C102.028 245.294 101.71 244.533 101.71 243.418V238.543H99.9294V237.031H101.71V234.981L103.275 234.513V237.031H105.668V238.543ZM113.42 239.46C113.42 239.808 113.594 240.09 113.941 240.305C114.289 240.509 114.709 240.677 115.201 240.809C115.692 240.929 116.184 241.073 116.676 241.241C117.167 241.397 117.587 241.673 117.935 242.068C118.283 242.452 118.457 242.95 118.457 243.561C118.457 244.377 118.139 245.03 117.503 245.522C116.88 246.014 116.076 246.26 115.093 246.26C114.217 246.26 113.468 246.068 112.844 245.684C112.22 245.3 111.777 244.791 111.513 244.155L112.862 243.382C113.006 243.813 113.276 244.155 113.672 244.407C114.067 244.659 114.541 244.785 115.093 244.785C115.608 244.785 116.034 244.689 116.37 244.497C116.706 244.293 116.874 243.981 116.874 243.561C116.874 243.214 116.7 242.938 116.352 242.734C116.004 242.518 115.584 242.35 115.093 242.23C114.601 242.098 114.109 241.948 113.618 241.781C113.126 241.613 112.706 241.337 112.358 240.953C112.011 240.569 111.837 240.078 111.837 239.478C111.837 238.698 112.137 238.057 112.736 237.553C113.348 237.049 114.109 236.798 115.021 236.798C115.752 236.798 116.4 236.966 116.963 237.301C117.539 237.625 117.971 238.081 118.259 238.668L116.946 239.406C116.622 238.638 115.98 238.255 115.021 238.255C114.577 238.255 114.199 238.363 113.887 238.579C113.576 238.782 113.42 239.076 113.42 239.46ZM126.428 237.031H127.993V246.026H126.428V244.731C125.792 245.75 124.821 246.26 123.514 246.26C122.458 246.26 121.613 245.93 120.977 245.27C120.342 244.599 120.024 243.693 120.024 242.554V237.031H121.589V242.464C121.589 243.196 121.787 243.765 122.182 244.173C122.578 244.569 123.124 244.767 123.819 244.767C124.599 244.767 125.229 244.527 125.708 244.047C126.188 243.555 126.428 242.806 126.428 241.799V237.031ZM134.603 246.26C133.248 246.26 132.12 245.81 131.221 244.911C130.322 243.999 129.872 242.872 129.872 241.529C129.872 240.186 130.322 239.064 131.221 238.165C132.12 237.253 133.248 236.798 134.603 236.798C135.49 236.798 136.288 237.013 136.995 237.445C137.703 237.865 138.231 238.435 138.578 239.154L137.265 239.91C137.037 239.43 136.684 239.046 136.204 238.758C135.736 238.471 135.203 238.327 134.603 238.327C133.703 238.327 132.948 238.632 132.336 239.244C131.737 239.856 131.437 240.617 131.437 241.529C131.437 242.428 131.737 243.184 132.336 243.795C132.948 244.407 133.703 244.713 134.603 244.713C135.203 244.713 135.742 244.575 136.222 244.299C136.702 244.011 137.067 243.627 137.319 243.148L138.65 243.921C138.267 244.629 137.715 245.198 136.995 245.63C136.276 246.05 135.478 246.26 134.603 246.26ZM144.3 246.26C142.945 246.26 141.818 245.81 140.918 244.911C140.019 243.999 139.569 242.872 139.569 241.529C139.569 240.186 140.019 239.064 140.918 238.165C141.818 237.253 142.945 236.798 144.3 236.798C145.187 236.798 145.985 237.013 146.692 237.445C147.4 237.865 147.928 238.435 148.275 239.154L146.962 239.91C146.734 239.43 146.381 239.046 145.901 238.758C145.433 238.471 144.9 238.327 144.3 238.327C143.401 238.327 142.645 238.632 142.033 239.244C141.434 239.856 141.134 240.617 141.134 241.529C141.134 242.428 141.434 243.184 142.033 243.795C142.645 244.407 143.401 244.713 144.3 244.713C144.9 244.713 145.439 244.575 145.919 244.299C146.399 244.011 146.764 243.627 147.016 243.148L148.347 243.921C147.964 244.629 147.412 245.198 146.692 245.63C145.973 246.05 145.175 246.26 144.3 246.26ZM150.867 242.248C151.023 243.052 151.389 243.675 151.964 244.119C152.552 244.563 153.272 244.785 154.123 244.785C155.31 244.785 156.174 244.347 156.713 243.471L158.045 244.227C157.169 245.582 155.85 246.26 154.087 246.26C152.66 246.26 151.497 245.816 150.597 244.929C149.71 244.029 149.266 242.896 149.266 241.529C149.266 240.174 149.704 239.046 150.579 238.147C151.455 237.247 152.588 236.798 153.979 236.798C155.298 236.798 156.372 237.265 157.199 238.201C158.039 239.124 158.458 240.239 158.458 241.547C158.458 241.775 158.44 242.008 158.404 242.248H150.867ZM153.979 238.273C153.14 238.273 152.444 238.513 151.892 238.992C151.341 239.46 150.999 240.09 150.867 240.881H156.875C156.743 240.03 156.408 239.382 155.868 238.938C155.328 238.495 154.699 238.273 153.979 238.273ZM161.255 239.46C161.255 239.808 161.429 240.09 161.777 240.305C162.125 240.509 162.544 240.677 163.036 240.809C163.528 240.929 164.019 241.073 164.511 241.241C165.003 241.397 165.423 241.673 165.77 242.068C166.118 242.452 166.292 242.95 166.292 243.561C166.292 244.377 165.974 245.03 165.339 245.522C164.715 246.014 163.911 246.26 162.928 246.26C162.053 246.26 161.303 246.068 160.679 245.684C160.056 245.3 159.612 244.791 159.348 244.155L160.697 243.382C160.841 243.813 161.111 244.155 161.507 244.407C161.903 244.659 162.376 244.785 162.928 244.785C163.444 244.785 163.869 244.689 164.205 244.497C164.541 244.293 164.709 243.981 164.709 243.561C164.709 243.214 164.535 242.938 164.187 242.734C163.839 242.518 163.42 242.35 162.928 242.23C162.436 242.098 161.945 241.948 161.453 241.781C160.961 241.613 160.542 241.337 160.194 240.953C159.846 240.569 159.672 240.078 159.672 239.478C159.672 238.698 159.972 238.057 160.572 237.553C161.183 237.049 161.945 236.798 162.856 236.798C163.588 236.798 164.235 236.966 164.799 237.301C165.375 237.625 165.806 238.081 166.094 238.668L164.781 239.406C164.457 238.638 163.816 238.255 162.856 238.255C162.412 238.255 162.035 238.363 161.723 238.579C161.411 238.782 161.255 239.076 161.255 239.46ZM168.932 239.46C168.932 239.808 169.106 240.09 169.454 240.305C169.801 240.509 170.221 240.677 170.713 240.809C171.205 240.929 171.696 241.073 172.188 241.241C172.68 241.397 173.099 241.673 173.447 242.068C173.795 242.452 173.969 242.95 173.969 243.561C173.969 244.377 173.651 245.03 173.015 245.522C172.392 246.014 171.588 246.26 170.605 246.26C169.729 246.26 168.98 246.068 168.356 245.684C167.733 245.3 167.289 244.791 167.025 244.155L168.374 243.382C168.518 243.813 168.788 244.155 169.184 244.407C169.58 244.659 170.053 244.785 170.605 244.785C171.121 244.785 171.546 244.689 171.882 244.497C172.218 244.293 172.386 243.981 172.386 243.561C172.386 243.214 172.212 242.938 171.864 242.734C171.516 242.518 171.097 242.35 170.605 242.23C170.113 242.098 169.622 241.948 169.13 241.781C168.638 241.613 168.218 241.337 167.871 240.953C167.523 240.569 167.349 240.078 167.349 239.478C167.349 238.698 167.649 238.057 168.248 237.553C168.86 237.049 169.622 236.798 170.533 236.798C171.265 236.798 171.912 236.966 172.476 237.301C173.051 237.625 173.483 238.081 173.771 238.668L172.458 239.406C172.134 238.638 171.492 238.255 170.533 238.255C170.089 238.255 169.711 238.363 169.4 238.579C169.088 238.782 168.932 239.076 168.932 239.46Z" fill="#144E77"/>
<g filter="url(#filter2_d_249_5158)">
<circle cx="243.82" cy="216.526" r="36.1153" fill="#0D8335"/>
</g>
<g filter="url(#filter3_d_249_5158)">
<path fill-rule="evenodd" clip-rule="evenodd" d="M284.718 216.526C284.718 239.113 266.408 257.423 243.821 257.423C221.234 257.423 202.923 239.113 202.923 216.526C202.923 193.939 221.234 175.628 243.821 175.628C266.408 175.628 284.718 193.939 284.718 216.526ZM243.821 254.802C264.96 254.802 282.097 237.665 282.097 216.526C282.097 195.386 264.96 178.25 243.821 178.25C222.681 178.25 205.545 195.386 205.545 216.526C205.545 237.665 222.681 254.802 243.821 254.802Z" fill="#0D8335"/>
</g>
<path d="M238.195 221.026L254.79 204.431C255.306 203.916 255.962 203.658 256.759 203.658C257.556 203.658 258.212 203.916 258.728 204.431C259.243 204.947 259.501 205.603 259.501 206.4C259.501 207.197 259.243 207.853 258.728 208.369L240.164 226.933C239.602 227.495 238.945 227.776 238.195 227.776C237.445 227.776 236.789 227.495 236.227 226.933L228.914 219.62C228.398 219.104 228.14 218.448 228.14 217.651C228.14 216.854 228.398 216.198 228.914 215.682C229.429 215.166 230.086 214.909 230.882 214.909C231.679 214.909 232.336 215.166 232.851 215.682L238.195 221.026Z" fill="#F7F9F8"/>
</g>
<defs>
<filter id="filter0_b_249_5158" x="-10" y="-10" width="355" height="324" filterUnits="userSpaceOnUse" color-interpolation-filters="sRGB">
<feFlood flood-opacity="0" result="BackgroundImageFix"/>
<feGaussianBlur in="BackgroundImageFix" stdDeviation="5"/>
<feComposite in2="SourceAlpha" operator="in" result="effect1_backgroundBlur_249_5158"/>
<feBlend mode="normal" in="SourceGraphic" in2="effect1_backgroundBlur_249_5158" result="shape"/>
</filter>
<filter id="filter1_d_249_5158" x="93.8789" y="50.7815" width="204.494" height="123.652" filterUnits="userSpaceOnUse" color-interpolation-filters="sRGB">
<feFlood flood-opacity="0" result="BackgroundImageFix"/>
<feColorMatrix in="SourceAlpha" type="matrix" values="0 0 0 0 0 0 0 0 0 0 0 0 0 0 0 0 0 0 127 0" result="hardAlpha"/>
<feOffset/>
<feGaussianBlur stdDeviation="8.28176"/>
<feComposite in2="hardAlpha" operator="out"/>
<feColorMatrix type="matrix" values="0 0 0 0 0.133333 0 0 0 0 0.713726 0 0 0 0 0.568627 0 0 0 0.5 0"/>
<feBlend mode="normal" in2="BackgroundImageFix" result="effect1_dropShadow_249_5158"/>
<feBlend mode="normal" in="SourceGraphic" in2="effect1_dropShadow_249_5158" result="shape"/>
</filter>
<filter id="filter2_d_249_5158" x="189.644" y="162.349" width="108.354" height="108.354" filterUnits="userSpaceOnUse" color-interpolation-filters="sRGB">
<feFlood flood-opacity="0" result="BackgroundImageFix"/>
<feColorMatrix in="SourceAlpha" type="matrix" values="0 0 0 0 0 0 0 0 0 0 0 0 0 0 0 0 0 0 127 0" result="hardAlpha"/>
<feOffset/>
<feGaussianBlur stdDeviation="9.03077"/>
<feComposite in2="hardAlpha" operator="out"/>
<feColorMatrix type="matrix" values="0 0 0 0 0.133333 0 0 0 0 0.713726 0 0 0 0 0.568627 0 0 0 0.5 0"/>
<feBlend mode="normal" in2="BackgroundImageFix" result="effect1_dropShadow_249_5158"/>
<feBlend mode="normal" in="SourceGraphic" in2="effect1_dropShadow_249_5158" result="shape"/>
</filter>
<filter id="filter3_d_249_5158" x="184.862" y="157.567" width="117.918" height="117.918" filterUnits="userSpaceOnUse" color-interpolation-filters="sRGB">
<feFlood flood-opacity="0" result="BackgroundImageFix"/>
<feColorMatrix in="SourceAlpha" type="matrix" values="0 0 0 0 0 0 0 0 0 0 0 0 0 0 0 0 0 0 127 0" result="hardAlpha"/>
<feOffset/>
<feGaussianBlur stdDeviation="9.03077"/>
<feComposite in2="hardAlpha" operator="out"/>
<feColorMatrix type="matrix" values="0 0 0 0 0.133333 0 0 0 0 0.713726 0 0 0 0 0.568627 0 0 0 0.5 0"/>
<feBlend mode="normal" in2="BackgroundImageFix" result="effect1_dropShadow_249_5158"/>
<feBlend mode="normal" in="SourceGraphic" in2="effect1_dropShadow_249_5158" result="shape"/>
</filter>
</defs>
</svg>
