<svg width="20" height="30" viewBox="0 0 25 38" fill="none" xmlns="http://www.w3.org/2000/svg">
<path d="M16.2158 37.5511L2.9073 22.9638L2.9073 18.796H9.83364C11.5817 18.796 13.091 18.1965 14.3615 16.9976C15.6306 15.8001 16.3972 14.3156 16.661 12.5443H0.928345L0.928345 8.3765H16.0673C15.5066 7.16089 14.6742 6.16201 13.5699 5.37985C12.4643 4.59908 11.2189 4.2087 9.83364 4.2087H0.928345L0.928345 0.0408936H24.6758V4.2087H18.2442C18.7059 4.79914 19.1182 5.44167 19.481 6.13631C19.8438 6.83094 20.1242 7.57767 20.3221 8.3765H24.6758V12.5443H20.6684C20.4045 15.4965 19.2502 17.9708 17.2052 19.9672C15.1603 21.9649 12.7031 22.9638 9.83364 22.9638H8.39889L21.7074 37.5511H16.2158Z" fill="#118B64"/>
</svg>
