<svg width="17" height="16" viewBox="0 0 17 16" fill="none" xmlns="http://www.w3.org/2000/svg">
<path d="M15.3935 15.875L9.88103 10.3625C9.44353 10.7125 8.94041 10.9896 8.37166 11.1937C7.80291 11.3979 7.1977 11.5 6.55603 11.5C4.96645 11.5 3.62128 10.9493 2.52053 9.848C1.41978 8.74667 0.869114 7.4015 0.86853 5.8125C0.86853 4.22292 1.4192 2.87775 2.52053 1.777C3.62186 0.67625 4.96703 0.125583 6.55603 0.125C8.14561 0.125 9.49078 0.675667 10.5915 1.777C11.6923 2.87833 12.2429 4.2235 12.2435 5.8125C12.2435 6.45417 12.1414 7.05937 11.9373 7.62812C11.7331 8.19687 11.456 8.7 11.106 9.1375L16.6185 14.65L15.3935 15.875ZM6.55603 9.75C7.64978 9.75 8.57961 9.36704 9.34553 8.60113C10.1114 7.83521 10.4941 6.90567 10.4935 5.8125C10.4935 4.71875 10.1106 3.78892 9.34466 3.023C8.57874 2.25708 7.6492 1.87442 6.55603 1.875C5.46228 1.875 4.53245 2.25796 3.76653 3.02388C3.00061 3.78979 2.61795 4.71933 2.61853 5.8125C2.61853 6.90625 3.00149 7.83608 3.76741 8.602C4.53332 9.36792 5.46286 9.75058 6.55603 9.75Z" fill="white"/>
</svg>
