<svg width="50" height="50" viewBox="0 0 50 50" fill="none" xmlns="http://www.w3.org/2000/svg">
<path d="M12.7072 27.1135V23.0442H28.9843L21.8631 15.923L24.7523 13.0338L36.7974 25.0789L24.7523 37.124L21.8631 34.2348L28.9843 27.1135H12.7072ZM45.2615 25.0789C45.2615 30.4751 43.1179 35.6503 39.3022 39.466C35.4865 43.2817 30.3113 45.4254 24.915 45.4254C22.2431 45.4254 19.5973 44.8991 17.1288 43.8766C14.6602 42.8541 12.4173 41.3554 10.5279 39.466C6.7122 35.6503 4.56856 30.4751 4.56856 25.0789C4.56856 19.6827 6.7122 14.5075 10.5279 10.6918C14.3436 6.87606 19.5188 4.73242 24.915 4.73242C27.587 4.73242 30.2327 5.2587 32.7013 6.28121C35.1698 7.30371 37.4128 8.80242 39.3022 10.6918C41.1915 12.5811 42.6902 14.8241 43.7127 17.2926C44.7352 19.7612 45.2615 22.407 45.2615 25.0789ZM41.1922 25.0789C41.1922 20.7619 39.4773 16.6218 36.4247 13.5692C33.3722 10.5166 29.232 8.80172 24.915 8.80172C20.5981 8.80172 16.4579 10.5166 13.4053 13.5692C10.3528 16.6218 8.63786 20.7619 8.63786 25.0789C8.63786 29.3959 10.3528 33.536 13.4053 36.5886C16.4579 39.6412 20.5981 41.3561 24.915 41.3561C29.232 41.3561 33.3722 39.6412 36.4247 36.5886C39.4773 33.536 41.1922 29.3959 41.1922 25.0789Z" fill="black"/>
</svg>
