<svg width="36" height="36" viewBox="0 0 36 36" fill="none" xmlns="http://www.w3.org/2000/svg">
<path d="M0.00365394 17.8282C0.00365394 14.139 0.00365394 10.45 0.00365394 6.76129C0.00365394 5.61526 0.173697 4.49362 0.698583 3.45925C1.44805 1.98341 2.66979 1.09277 4.26306 0.70007C4.92912 0.535161 5.61057 0.487036 6.29587 0.487677C12.0568 0.493238 17.8179 0.494308 23.5793 0.490886C24.099 0.490886 24.099 0.490886 24.099 1.00743C24.099 2.87854 24.0689 4.74965 24.1086 6.62012C24.1439 8.29744 23.1352 9.07836 21.6485 9.13803C21.1351 9.15857 20.6186 9.14317 20.1033 9.14317H9.60304C9.14361 9.14317 9.14232 9.14317 9.14232 9.59233C9.14232 15.0157 9.14232 20.4391 9.14232 25.8625C9.14232 26.2822 9.14938 26.2899 9.56198 26.2899H26.026C26.4379 26.2899 26.4443 26.2822 26.4443 25.8612C26.4443 22.0249 26.4443 18.1886 26.4443 14.3522C26.4444 14.0475 26.4691 13.7432 26.5181 13.4424C26.6997 12.3002 27.3792 11.663 28.5901 11.4878C28.9019 11.4416 29.2168 11.4184 29.532 11.4185C31.3717 11.423 33.2114 11.4269 35.0504 11.4147C35.3635 11.4147 35.4662 11.5019 35.4662 11.8241C35.4572 17.5208 35.4733 23.2176 35.4502 28.9137C35.4438 30.4088 34.8727 31.7434 33.8806 32.8458C32.6525 34.2158 31.0842 34.9133 29.2228 34.946C23.0101 35.0538 16.7975 34.9954 10.5848 34.9819C9.26167 34.9787 7.93663 34.9428 6.61286 34.9499C4.70966 34.9608 3.13629 34.2305 1.75477 32.9607C0.508007 31.8114 -0.00597109 30.3985 -0.000196052 28.7378C0.0119957 25.0996 0.00365394 21.4652 0.00365394 17.8282Z" fill="#38B990"/>
</svg>
