<svg width="42" height="42" viewBox="0 0 42 42" fill="none" xmlns="http://www.w3.org/2000/svg">
<path d="M41.2599 21C41.2599 26.3961 39.1163 31.5711 35.3007 35.3867C31.4852 39.2023 26.3101 41.3458 20.9141 41.3458C18.2422 41.3458 15.5965 40.8196 13.1281 39.7971C10.6596 38.7746 8.41668 37.276 6.52739 35.3867C2.71181 31.5711 0.568237 26.3961 0.568237 21C0.568237 15.604 2.71181 10.4289 6.52739 6.61333C10.343 2.79775 15.518 0.654175 20.9141 0.654175C23.5859 0.654175 26.2316 1.18044 28.7001 2.20291C31.1686 3.22538 33.4115 4.72405 35.3007 6.61333C37.19 8.50262 38.6887 10.7455 39.7112 13.214C40.7336 15.6825 41.2599 18.3282 41.2599 21ZM8.70657 23.0346H24.9832L17.8622 30.1556L20.7513 33.0447L32.796 21L20.7513 8.95527L17.8622 11.8444L24.9832 18.9654H8.70657V23.0346Z" fill="#118B64"/>
</svg>
