<svg width="177" height="170" viewBox="0 0 177 170" fill="none" xmlns="http://www.w3.org/2000/svg">
<g filter="url(#filter0_d_289_42259)">
<rect x="12" y="12" width="165" height="218" rx="17" fill="#B7D8CD"/>
<path d="M69.4099 139.361H57.1473V151.948H48.5829V139.361H36.3203V131.445H48.5829V118.858H57.1473V131.445H69.4099V139.361Z" fill="#E8F4F0"/>
<path d="M151.589 123.66V131.575H116.229V123.66H151.589ZM151.589 139.231V147.147H116.229V139.231H151.589Z" fill="#E8F4F0"/>
<path d="M27 41C27 33.8203 32.8203 28 40 28H147C154.18 28 160 33.8203 160 41V88C160 91.866 156.866 95 153 95H34C30.134 95 27 91.866 27 88V41Z" fill="#E8F4F0"/>
<path d="M102.198 52.3524C102.198 49.6213 102.988 47.4831 104.569 45.9378C106.187 44.3925 108.253 43.6199 110.768 43.6199C113.284 43.6199 115.332 44.3925 116.914 45.9378C118.531 47.4831 119.339 49.6213 119.339 52.3524C119.339 55.1195 118.531 57.2757 116.914 58.821C115.332 60.3663 113.284 61.1389 110.768 61.1389C108.253 61.1389 106.187 60.3663 104.569 58.821C102.988 57.2757 102.198 55.1195 102.198 52.3524ZM136.804 44.2667L115.62 82H108.289L129.419 44.2667H136.804ZM110.715 48.1479C108.738 48.1479 107.75 49.5494 107.75 52.3524C107.75 55.1914 108.738 56.6109 110.715 56.6109C111.685 56.6109 112.439 56.2695 112.979 55.5867C113.518 54.868 113.787 53.7899 113.787 52.3524C113.787 49.5494 112.763 48.1479 110.715 48.1479ZM125.862 73.8604C125.862 71.0933 126.652 68.9551 128.234 67.4457C129.851 65.9005 131.917 65.1278 134.433 65.1278C136.948 65.1278 138.979 65.9005 140.524 67.4457C142.105 68.9551 142.896 71.0933 142.896 73.8604C142.896 76.6275 142.105 78.7837 140.524 80.329C138.979 81.8742 136.948 82.6469 134.433 82.6469C131.881 82.6469 129.815 81.8742 128.234 80.329C126.652 78.7837 125.862 76.6275 125.862 73.8604ZM134.379 69.6558C132.33 69.6558 131.306 71.0574 131.306 73.8604C131.306 76.6994 132.33 78.1189 134.379 78.1189C136.391 78.1189 137.397 76.6994 137.397 73.8604C137.397 71.0574 136.391 69.6558 134.379 69.6558Z" fill="#598879"/>
</g>
<defs>
<filter id="filter0_d_289_42259" x="0" y="0" width="189" height="242" filterUnits="userSpaceOnUse" color-interpolation-filters="sRGB">
<feFlood flood-opacity="0" result="BackgroundImageFix"/>
<feColorMatrix in="SourceAlpha" type="matrix" values="0 0 0 0 0 0 0 0 0 0 0 0 0 0 0 0 0 0 127 0" result="hardAlpha"/>
<feOffset/>
<feGaussianBlur stdDeviation="6"/>
<feComposite in2="hardAlpha" operator="out"/>
<feColorMatrix type="matrix" values="0 0 0 0 0 0 0 0 0 0 0 0 0 0 0 0 0 0 0.1 0"/>
<feBlend mode="normal" in2="BackgroundImageFix" result="effect1_dropShadow_289_42259"/>
<feBlend mode="normal" in="SourceGraphic" in2="effect1_dropShadow_289_42259" result="shape"/>
</filter>
</defs>
</svg>
