<svg width="177" height="170" viewBox="0 0 177 170" fill="none" xmlns="http://www.w3.org/2000/svg">
<g filter="url(#filter0_d_289_42271)">
<rect x="12" y="12" width="165" height="218" rx="17" fill="#4EA98C"/>
<path d="M69.4099 139.361H57.1473V151.948H48.5829V139.361H36.3203V131.445H48.5829V118.858H57.1473V131.445H69.4099V139.361Z" fill="#87CBB4"/>
<path d="M151.589 123.66V131.575H116.229V123.66H151.589ZM151.589 139.231V147.147H116.229V139.231H151.589Z" fill="#87CBB4"/>
<path d="M27 41C27 33.8203 32.8203 28 40 28H147C154.18 28 160 33.8203 160 41V88C160 91.866 156.866 95 153 95H34C30.134 95 27 91.866 27 88V41Z" fill="#87CBB4"/>
<path d="M132.344 40.7961L121.799 84.8491H116.449L126.994 40.7961H132.344Z" fill="#598879"/>
</g>
<defs>
<filter id="filter0_d_289_42271" x="0" y="0" width="189" height="242" filterUnits="userSpaceOnUse" color-interpolation-filters="sRGB">
<feFlood flood-opacity="0" result="BackgroundImageFix"/>
<feColorMatrix in="SourceAlpha" type="matrix" values="0 0 0 0 0 0 0 0 0 0 0 0 0 0 0 0 0 0 127 0" result="hardAlpha"/>
<feOffset/>
<feGaussianBlur stdDeviation="6"/>
<feComposite in2="hardAlpha" operator="out"/>
<feColorMatrix type="matrix" values="0 0 0 0 0 0 0 0 0 0 0 0 0 0 0 0 0 0 0.1 0"/>
<feBlend mode="normal" in2="BackgroundImageFix" result="effect1_dropShadow_289_42271"/>
<feBlend mode="normal" in="SourceGraphic" in2="effect1_dropShadow_289_42271" result="shape"/>
</filter>
</defs>
</svg>
