<svg width="18" height="29" viewBox="0 0 18 29" fill="none" xmlns="http://www.w3.org/2000/svg">
<path d="M8.12332 29L0.56332 15.8V14.04H1.44332C3.57665 14.04 5.20332 13.7333 6.32332 13.12C7.46999 12.5067 8.13665 11.4 8.32332 9.8H0.56332V7.24H8.28332C8.01665 5.74667 7.30999 4.66667 6.16332 4C5.04332 3.33333 3.46999 3 1.44332 3H0.56332V0.439998H17.1233V3H9.56332C10.8433 4.04 11.6033 5.45333 11.8433 7.24H17.1233V9.8H11.9233C11.7367 11.7467 10.99 13.2667 9.68332 14.36C8.40332 15.4267 6.69665 16.1067 4.56332 16.4L12.2033 29H8.12332Z" fill="#38B990"/>
</svg>
