<svg width="177" height="171" viewBox="0 0 177 171" fill="none" xmlns="http://www.w3.org/2000/svg">
<g filter="url(#filter0_d_289_42259)">
<rect x="12" y="12.1509" width="165" height="218" rx="17" fill="#4EA98C"/>
<path d="M69.4099 139.512H57.1473V152.099H48.5829V139.512H36.3203V131.596H48.5829V119.009H57.1473V131.596H69.4099V139.512Z" fill="#87CBB4"/>
<path d="M151.589 123.811V131.726H116.229V123.811H151.589ZM151.589 139.382V147.298H116.229V139.382H151.589Z" fill="#87CBB4"/>
<path d="M27 41.1509C27 33.9712 32.8203 28.1509 40 28.1509H147C154.18 28.1509 160 33.9712 160 41.1509V88.1509C160 92.0169 156.866 95.1509 153 95.1509H34C30.134 95.1509 27 92.0169 27 88.1509V41.1509Z" fill="#87CBB4"/>
<path d="M102.198 52.5034C102.198 49.7722 102.988 47.634 104.569 46.0887C106.187 44.5435 108.253 43.7708 110.768 43.7708C113.284 43.7708 115.332 44.5435 116.914 46.0887C118.531 47.634 119.339 49.7722 119.339 52.5034C119.339 55.2705 118.531 57.4267 116.914 58.9719C115.332 60.5172 113.284 61.2898 110.768 61.2898C108.253 61.2898 106.187 60.5172 104.569 58.9719C102.988 57.4267 102.198 55.2705 102.198 52.5034ZM136.804 44.4177L115.62 82.1509H108.289L129.419 44.4177H136.804ZM110.715 48.2988C108.738 48.2988 107.75 49.7003 107.75 52.5034C107.75 55.3424 108.738 56.7618 110.715 56.7618C111.685 56.7618 112.439 56.4205 112.979 55.7377C113.518 55.0189 113.787 53.9408 113.787 52.5034C113.787 49.7003 112.763 48.2988 110.715 48.2988ZM125.862 74.0113C125.862 71.2442 126.652 69.106 128.234 67.5967C129.851 66.0514 131.917 65.2788 134.433 65.2788C136.948 65.2788 138.979 66.0514 140.524 67.5967C142.105 69.106 142.896 71.2442 142.896 74.0113C142.896 76.7784 142.105 78.9346 140.524 80.4799C138.979 82.0252 136.948 82.7978 134.433 82.7978C131.881 82.7978 129.815 82.0252 128.234 80.4799C126.652 78.9346 125.862 76.7784 125.862 74.0113ZM134.379 69.8068C132.33 69.8068 131.306 71.2083 131.306 74.0113C131.306 76.8503 132.33 78.2698 134.379 78.2698C136.391 78.2698 137.397 76.8503 137.397 74.0113C137.397 71.2083 136.391 69.8068 134.379 69.8068Z" fill="#598879"/>
</g>
<defs>
<filter id="filter0_d_289_42259" x="0" y="0.15094" width="189" height="242" filterUnits="userSpaceOnUse" color-interpolation-filters="sRGB">
<feFlood flood-opacity="0" result="BackgroundImageFix"/>
<feColorMatrix in="SourceAlpha" type="matrix" values="0 0 0 0 0 0 0 0 0 0 0 0 0 0 0 0 0 0 127 0" result="hardAlpha"/>
<feOffset/>
<feGaussianBlur stdDeviation="6"/>
<feComposite in2="hardAlpha" operator="out"/>
<feColorMatrix type="matrix" values="0 0 0 0 0 0 0 0 0 0 0 0 0 0 0 0 0 0 0.1 0"/>
<feBlend mode="normal" in2="BackgroundImageFix" result="effect1_dropShadow_289_42259"/>
<feBlend mode="normal" in="SourceGraphic" in2="effect1_dropShadow_289_42259" result="shape"/>
</filter>
</defs>
</svg>
