<svg width="177" height="171" viewBox="0 0 177 171" fill="none" xmlns="http://www.w3.org/2000/svg">
<g filter="url(#filter0_d_289_42271)">
<rect x="12" y="12.1509" width="165" height="218" rx="17" fill="#4EA98C"/>
<path d="M69.4099 139.512H57.1473V152.099H48.5829V139.512H36.3203V131.596H48.5829V119.009H57.1473V131.596H69.4099V139.512Z" fill="#87CBB4"/>
<path d="M151.589 123.811V131.726H116.229V123.811H151.589ZM151.589 139.382V147.298H116.229V139.382H151.589Z" fill="#87CBB4"/>
<path d="M27 41.1509C27 33.9712 32.8203 28.1509 40 28.1509H147C154.18 28.1509 160 33.9712 160 41.1509V88.1509C160 92.0169 156.866 95.1509 153 95.1509H34C30.134 95.1509 27 92.0169 27 88.1509V41.1509Z" fill="#87CBB4"/>
<path d="M132.344 40.947L121.799 85H116.449L126.994 40.947H132.344Z" fill="#598879"/>
</g>
<defs>
<filter id="filter0_d_289_42271" x="0" y="0.15094" width="189" height="242" filterUnits="userSpaceOnUse" color-interpolation-filters="sRGB">
<feFlood flood-opacity="0" result="BackgroundImageFix"/>
<feColorMatrix in="SourceAlpha" type="matrix" values="0 0 0 0 0 0 0 0 0 0 0 0 0 0 0 0 0 0 127 0" result="hardAlpha"/>
<feOffset/>
<feGaussianBlur stdDeviation="6"/>
<feComposite in2="hardAlpha" operator="out"/>
<feColorMatrix type="matrix" values="0 0 0 0 0 0 0 0 0 0 0 0 0 0 0 0 0 0 0.1 0"/>
<feBlend mode="normal" in2="BackgroundImageFix" result="effect1_dropShadow_289_42271"/>
<feBlend mode="normal" in="SourceGraphic" in2="effect1_dropShadow_289_42271" result="shape"/>
</filter>
</defs>
</svg>
