<svg width="18" height="30" viewBox="0 0 18 30" fill="none" xmlns="http://www.w3.org/2000/svg">
<path d="M8.27875 29.28L0.71875 16.08V14.32H1.59875C3.73208 14.32 5.35875 14.0133 6.47875 13.4C7.62542 12.7866 8.29208 11.68 8.47875 10.08H0.71875V7.51997H8.43875C8.17208 6.02664 7.46542 4.94664 6.31875 4.27997C5.19875 3.6133 3.62542 3.27997 1.59875 3.27997H0.71875V0.719971H17.2788V3.27997H9.71875C10.9988 4.31997 11.7588 5.73331 11.9988 7.51997H17.2788V10.08H12.0788C11.8921 12.0266 11.1454 13.5466 9.83875 14.64C8.55875 15.7066 6.85208 16.3866 4.71875 16.68L12.3588 29.28H8.27875Z" fill="#118B64"/>
</svg>
